<svg width="32" height="26" viewBox="0 0 32 26" fill="none" xmlns="http://www.w3.org/2000/svg">
<path d="M14.0909 3.89116L11.8182 0C5.72727 2.7415 0 8.84354 0 17.068C0 22.1973 3.27272 26 7.54545 26C11.8182 26 14.0909 22.9932 14.0909 19.898C14.0909 16.5374 11.7273 13.8844 8.09091 13.8844C7.18182 13.8844 6.36364 14.1497 5.81818 14.5034C5.90909 11.0544 8.90909 6.27891 14.0909 3.89116ZM31.9091 3.89116L29.7273 0C23.5455 2.7415 17.9091 8.84354 17.9091 17.068C17.9091 22.1973 21.1818 26 25.4545 26C29.6364 26 32 22.9932 32 19.898C32 16.5374 29.6364 13.8844 26 13.8844C25.0909 13.8844 24.1818 14.1497 23.7273 14.5034C23.8182 11.0544 26.8182 6.27891 31.9091 3.89116Z" fill="#E7142D"/>
</svg>
