<svg width="22" height="22" viewBox="0 0 22 22" fill="none" xmlns="http://www.w3.org/2000/svg">
<path d="M16.8333 0.5H5.16667C2.5895 0.5 0.5 2.5895 0.5 5.16667V16.8333C0.5 19.4105 2.5895 21.5 5.16667 21.5H11.7245V13.3788H8.991V10.1997H11.7245V7.8605C11.7245 5.14917 13.3823 3.671 15.802 3.671C16.6175 3.66867 17.4318 3.71067 18.2427 3.7935V6.6285H16.5767C15.2583 6.6285 15.0017 7.2515 15.0017 8.17083V10.195H18.1517L17.7422 13.3742H14.983V21.5H16.8333C19.4105 21.5 21.5 19.4105 21.5 16.8333V5.16667C21.5 2.5895 19.4105 0.5 16.8333 0.5Z" fill="#000"/>
</svg>
