<svg width="22" height="22" viewBox="0 0 22 22" fill="none" xmlns="http://www.w3.org/2000/svg">
<path fill-rule="evenodd" clip-rule="evenodd" d="M0.5 6.33333C0.5 3.11217 3.11217 0.5 6.33333 0.5H15.6667C18.8878 0.5 21.5 3.11217 21.5 6.33333V15.6667C21.5 18.8878 18.8878 21.5 15.6667 21.5H6.33333C3.11217 21.5 0.5 18.8878 0.5 15.6667V6.33333ZM19.1669 3.99977C19.1669 3.35577 18.6443 2.8331 18.0003 2.8331C17.3563 2.8331 16.8336 3.35577 16.8336 3.99977C16.8336 4.64377 17.3563 5.16643 18.0003 5.16643C18.6443 5.16643 19.1669 4.64377 19.1669 3.99977ZM11.0004 5.16714C14.2216 5.16714 16.8338 7.77931 16.8338 11.0005C16.8338 14.2216 14.2216 16.8338 11.0004 16.8338C7.77925 16.8338 5.16708 14.2216 5.16708 11.0005C5.16708 7.77931 7.77925 5.16714 11.0004 5.16714ZM7.49985 10.9999C7.49985 9.06691 9.06685 7.49991 10.9998 7.49991C12.9328 7.49991 14.4998 9.06691 14.4998 10.9999C14.4998 12.9329 12.9328 14.4999 10.9998 14.4999C9.06685 14.4999 7.49985 12.9329 7.49985 10.9999Z" fill="#000"/>
</svg>
