<svg width="22" height="17" viewBox="0 0 22 17" fill="none" xmlns="http://www.w3.org/2000/svg">
<path fill-rule="evenodd" clip-rule="evenodd" d="M19.2047 0.926708C20.1077 1.1615 20.8196 1.85362 21.0611 2.73154C21.5 4.32404 21.5 8.66667 21.5 8.66667C21.5 8.66667 21.5 13.0093 21.0611 14.6018C20.8196 15.4797 20.1087 16.1718 19.2047 16.4066C17.5667 16.8333 11 16.8333 11 16.8333C11 16.8333 4.4333 16.8333 2.7953 16.4066C1.8923 16.1718 1.1804 15.4797 0.9389 14.6018C0.5 13.0093 0.5 8.66667 0.5 8.66667C0.5 8.66667 0.5 4.32404 0.9389 2.73154C1.1804 1.85362 1.8923 1.1615 2.7953 0.926708C4.4333 0.5 11 0.5 11 0.5C11 0.5 17.5667 0.5 19.2047 0.926708ZM8.90012 6.0145V11.3188C8.90012 11.7118 9.33797 11.9578 9.68762 11.7608L14.4126 9.10865C14.7623 8.91265 14.7623 8.42061 14.4126 8.22461L9.68762 5.57248C9.33797 5.37648 8.90012 5.62148 8.90012 6.0145Z" fill="#000"/>
</svg>
