<svg width="64" height="64" viewBox="0 0 64 64" fill="none" xmlns="http://www.w3.org/2000/svg">
<circle cx="32" cy="32" r="24" fill="#23CA1F"/>
<path d="M44.971 21.7104C44.7404 21.4687 44.4277 21.333 44.1018 21.333C43.7758 21.333 43.4632 21.4687 43.2325 21.7104L26.7335 39.0016L20.7636 32.7389C20.5294 32.5029 20.2191 32.3678 19.8944 32.3604C19.7327 32.3586 19.5722 32.3913 19.4228 32.4563C19.2735 32.5214 19.1382 32.6175 19.0252 32.7389C18.7944 32.9807 18.6646 33.3087 18.6644 33.6508C18.6607 33.8208 18.6909 33.9897 18.753 34.1467C18.8152 34.3037 18.9079 34.4454 19.0252 34.5627L26.7335 42.6663L44.971 23.5341C45.2013 23.2922 45.3307 22.9642 45.3307 22.6223C45.3307 22.2803 45.2013 21.9523 44.971 21.7104Z" fill="white" stroke="white" stroke-width="0.5"/>
</svg>
