<svg width="150" height="183" viewBox="0 0 150 183" fill="none" xmlns="http://www.w3.org/2000/svg">
<path d="M68.5115 134.58C67.326 134.58 66.0785 134.037 65.1424 133.067C64.1392 132.03 63.5564 130.575 63.5428 129.072L63.4708 122.963C63.446 122.951 63.4212 122.938 63.3989 122.926L59.4607 127.278C57.4493 129.494 54.2612 129.535 52.2054 127.376L42.414 117.082C41.3997 116.017 40.833 114.608 40.8194 113.114C40.8033 111.616 41.3389 110.192 42.3248 109.1L46.2084 104.808L40.4782 104.885C39.2121 104.915 37.8977 104.405 36.9094 103.384C35.9062 102.351 35.321 100.892 35.3036 99.385L35.1337 84.6809C35.0692 83.3301 35.5454 81.9209 36.4804 80.8288C37.4327 79.7123 38.7831 79.0628 40.1806 79.0451L45.814 78.8953C45.8165 78.8899 45.8189 78.8831 45.8189 78.8776L41.8299 74.6839C40.8416 73.6437 40.2774 72.1827 40.2972 70.6768C40.3134 69.1695 40.911 67.7207 41.9328 66.6996L51.3854 56.2532C53.3943 54.0365 56.5849 53.9902 58.6407 56.1593L62.6733 60.3993C62.6981 60.3898 62.7266 60.3775 62.7477 60.3693L62.6782 54.2571C62.6137 52.9064 63.0899 51.4972 64.0224 50.4051C64.9785 49.2886 66.3276 48.6391 67.7277 48.6214L81.3741 48.4389C82.6017 48.3749 83.9546 48.9182 84.9428 49.9421C85.946 50.9756 86.5313 52.4339 86.5487 53.9371L86.6181 60.0549C86.6429 60.0644 86.6677 60.0767 86.6925 60.0889L90.6308 55.7374C92.6396 53.5207 95.8302 53.4771 97.886 55.6393L107.633 65.8842C108.643 66.949 109.21 68.3541 109.227 69.8464C109.243 71.3442 108.708 72.7711 107.722 73.8605L103.836 78.1549L109.566 78.0787C110.863 78.012 112.149 78.5607 113.139 79.5819C114.142 80.6154 114.727 82.0736 114.744 83.5769L114.867 98.2413C114.932 99.5838 114.455 100.992 113.523 102.084C112.567 103.2 111.218 103.85 109.82 103.867L104.09 103.944L108.076 108.132L108.078 108.135C109.989 110.147 110.177 113.399 108.531 115.866C108.448 115.989 108.356 116.104 108.258 116.211L98.7058 126.763C96.7007 128.984 93.5139 129.029 91.4505 126.861L87.418 122.618C87.3907 122.628 87.3647 122.64 87.3436 122.648L87.413 128.763C87.4775 130.114 87.0013 131.523 86.0688 132.615C85.1128 133.732 83.7636 134.384 82.3636 134.403L68.7172 134.585C68.6502 134.577 68.5783 134.58 68.5113 134.58L68.5115 134.58ZM81.8642 128.886V128.944V128.886ZM68.5784 128.477H68.5511H68.5932H68.5784ZM62.7922 116.212C63.1122 116.212 63.4309 116.273 63.7446 116.398C64.2146 116.588 64.6448 116.816 65.0553 117.042C65.219 117.131 65.3752 117.222 65.5364 117.296C65.7534 117.399 66.3809 117.699 66.8062 117.799C68.0723 118.099 68.9837 119.322 69.0011 120.743L69.0928 128.475L81.8564 128.3L81.7672 120.575C81.751 119.148 82.6364 117.9 83.9037 117.567C84.1865 117.493 84.4481 117.356 84.7209 117.232L85.2963 116.973C85.5468 116.875 85.9014 116.723 86.5041 116.324C87.5767 115.613 88.9544 115.775 89.862 116.729L95.0342 122.17L103.997 112.272L98.8026 106.812C98.0004 105.968 97.73 104.677 98.1219 103.536C98.2992 103.018 98.5187 102.542 98.7332 102.088C98.7977 101.953 98.8609 101.822 98.9167 101.692C98.9949 101.451 99.0866 101.204 99.1809 100.954C99.2664 100.722 99.3693 100.486 99.4165 100.252C99.6967 98.8703 100.805 97.8831 102.097 97.864L109.322 97.7701L109.208 84.18L101.986 84.278H101.95C100.673 84.278 99.5616 83.3235 99.2528 81.9564C99.1859 81.6637 99.0644 81.3887 98.9478 81.1054L98.7035 80.4737C98.5671 80.0679 98.365 79.6404 98.112 79.2019C97.4176 77.9996 97.5763 76.4297 98.4902 75.4192L103.465 69.9264L94.3262 60.3191L89.2795 65.8977C88.5206 66.7391 87.3773 67.0237 86.358 66.6112C85.888 66.4219 85.4577 66.1931 85.0473 65.9671C84.917 65.8963 84.7893 65.8241 84.6616 65.7601C84.4335 65.6744 84.1979 65.5736 83.9585 65.4701C83.7415 65.3762 83.522 65.2631 83.2976 65.2114C82.0315 64.9118 81.1176 63.6891 81.1003 62.2676L81.011 54.5391L68.2474 54.7134L68.3367 62.4391C68.3528 63.8661 67.4674 65.1133 66.2001 65.4469C65.9174 65.5204 65.6582 65.6539 65.3866 65.7819L64.8038 66.0446C64.562 66.1386 64.2061 66.2911 63.601 66.6914C62.5345 67.4049 61.1507 67.2401 60.243 66.2856L55.0683 60.8448L46.1103 70.7425L51.1126 76.0038C51.9149 76.848 52.1852 78.1388 51.7909 79.2798C51.616 79.7986 51.3966 80.2711 51.182 80.7231C51.1014 80.8933 51.0183 81.0622 50.9514 81.2296C50.8621 81.4489 50.5881 82.1201 50.4988 82.5654C50.221 83.9351 49.1298 84.9196 47.855 84.9536L40.6915 85.1456L40.8527 98.7943L48.0772 98.6962C49.4239 98.6499 50.4915 99.6357 50.8015 101.001C50.8685 101.297 50.9937 101.569 51.1066 101.852L51.3595 102.499C51.4538 102.792 51.5927 103.146 51.9535 103.783C52.6367 104.986 52.478 106.543 51.5679 107.55L46.5954 113.042L55.7817 122.699L60.8284 117.12C61.3542 116.527 62.0685 116.212 62.7927 116.212L62.7922 116.212ZM40.3328 98.7874H40.3018H40.349H40.3328ZM109.317 98.349V98.413V98.349ZM40.282 85.1454C40.2796 85.1454 40.2796 85.1454 40.282 85.1454V85.1454ZM40.6826 84.4919V84.5504V84.4919ZM109.699 84.1664H109.741H109.699ZM81.5031 54.5257H81.5453H81.5031ZM68.231 54.06V54.1185V54.06Z" fill="#DD3835"/>
<path d="M75.1242 109.302C70.7406 109.302 66.6274 107.514 63.525 104.254C60.3555 100.924 58.5836 96.4184 58.5277 91.5694C58.4719 86.7166 60.1447 82.166 63.2336 78.75C66.3051 75.3555 70.4606 73.4493 74.9309 73.3907C79.3529 73.3689 83.5975 75.1199 86.7494 78.4356C89.9165 81.7606 91.6886 86.2648 91.7492 91.1204V91.1667C91.7405 96.0589 90.0715 100.597 87.0434 103.94C83.9681 107.337 79.8104 109.241 75.3439 109.302H75.1244L75.1242 109.302ZM75.149 79.4907H75.0014C71.9931 79.5302 69.2153 80.7965 67.1744 83.05C65.147 85.2912 64.0496 88.2893 64.0855 91.492C64.1215 94.6918 65.2884 97.6562 67.3692 99.8455C69.4636 102.047 72.235 103.252 75.2768 103.198C78.2827 103.158 81.0629 101.892 83.1076 99.6358C85.0904 97.4463 86.1854 94.4413 86.1965 91.1773C86.1519 87.9803 84.985 85.0188 82.9103 82.8416C80.8481 80.6767 78.0965 79.4907 75.149 79.4907L75.149 79.4907Z" fill="#DD3835"/>
<path d="M72.6572 15.9266H78.2126V35.4072H72.6572V15.9266Z" fill="#DD3835"/>
<path d="M75.3395 21.5243C69.8584 21.5243 65.4043 16.6959 65.4043 10.7635C65.4043 4.82841 69.8597 0 75.3395 0C80.8205 0 85.2746 4.82841 85.2746 10.7635C85.2758 16.6962 80.8205 21.5243 75.3395 21.5243ZM75.3395 6.1C72.9226 6.1 70.9596 8.19279 70.9596 10.7635C70.9596 13.3343 72.9238 15.4243 75.3395 15.4243C77.7563 15.4243 79.7193 13.3315 79.7193 10.7635C79.7205 8.19554 77.7563 6.1 75.3395 6.1Z" fill="#DD3835"/>
<path d="M30.4618 64.5729L14.4814 53.3098L30.4618 64.5729Z" fill="#DD3835"/>
<path d="M12.9766 55.869L15.9762 50.7384L31.9552 62.0014L28.9556 67.1321L12.9766 55.869Z" fill="#DD3835"/>
<path d="M10.2562 61.5716C8.5784 61.5716 6.88456 61.1141 5.33066 60.1474C3.0118 58.7041 1.35622 56.3647 0.673069 53.5625C-0.00522113 50.7876 0.356862 47.8954 1.68741 45.4133C4.42292 40.3074 10.4978 38.5453 15.2259 41.4824C17.5448 42.9257 19.2004 45.2651 19.8835 48.0673C20.5618 50.8422 20.1997 53.7343 18.8692 56.2165C17.0327 59.6478 13.6884 61.5716 10.2559 61.5716L10.2562 61.5716ZM10.281 46.1473C8.76193 46.1473 7.28383 46.9915 6.47287 48.5015C5.90617 49.5636 5.75119 50.7985 6.0401 51.9818C6.33399 53.1895 7.05692 54.2053 8.07002 54.8371C10.1756 56.1429 12.8727 55.3804 14.0806 53.1201C14.6497 52.058 14.806 50.8231 14.5171 49.6398C14.2232 48.4321 13.5002 47.4163 12.4871 46.7845C11.7927 46.3556 11.0314 46.1473 10.2811 46.1473H10.281Z" fill="#DD3835"/>
<path d="M30.0239 117.615L14.041 128.878L30.0239 117.615Z" fill="#DD3835"/>
<path d="M12.542 126.308L28.5223 115.044L31.5219 120.175L15.5416 131.439L12.542 126.308Z" fill="#DD3835"/>
<path d="M9.96129 142.311C6.53381 142.311 3.1895 140.39 1.34799 136.959C0.0174418 134.477 -0.3434 131.582 0.333652 128.81C1.01689 126.006 2.67235 123.667 4.99124 122.225C9.71073 119.288 15.793 121.042 18.5323 126.156C19.8628 128.635 20.2212 131.53 19.5429 134.305C18.8597 137.109 17.2042 139.448 14.8853 140.89C13.3365 141.851 11.6366 142.311 9.96107 142.311L9.96129 142.311ZM9.93897 126.891C9.18627 126.891 8.42738 127.095 7.73049 127.531C6.71615 128.163 5.99443 129.179 5.70057 130.386C5.41164 131.57 5.56665 132.805 6.13335 133.867C7.34981 136.124 10.0532 136.895 12.1474 135.584C13.1617 134.952 13.8835 133.936 14.1773 132.728C14.4662 131.545 14.3112 130.31 13.7445 129.248C12.9336 127.733 11.4592 126.891 9.93897 126.891ZM6.36134 124.875H6.38862H6.36134Z" fill="#DD3835"/>
<path d="M71.7871 147.592H77.3424V167.073H71.7871V147.592Z" fill="#DD3835"/>
<path d="M74.6607 183C69.1797 183 64.7256 178.172 64.7256 172.236C64.7256 166.304 69.181 161.476 74.6607 161.476C80.1418 161.476 84.5959 166.304 84.5959 172.236C84.5959 178.172 80.1405 183 74.6607 183ZM74.6607 167.576C72.2439 167.576 70.2809 169.668 70.2809 172.236C70.2797 174.804 72.2439 176.9 74.6607 176.9C77.0776 176.9 79.0406 174.807 79.0406 172.236C79.0406 169.666 77.0776 167.576 74.6607 167.576Z" fill="#DD3835"/>
<path d="M119.538 118.427L135.518 129.69L119.538 118.427Z" fill="#DD3835"/>
<path d="M118.033 120.993L121.033 115.862L137.012 127.125L134.012 132.256L118.033 120.993Z" fill="#DD3835"/>
<path d="M139.696 142.942C138.018 142.942 136.324 142.485 134.774 141.518C132.455 140.075 130.8 137.735 130.116 134.933C129.438 132.158 129.8 129.266 131.131 126.784C133.861 121.675 139.936 119.916 144.669 122.853C146.988 124.296 148.644 126.636 149.327 129.438C150.005 132.213 149.643 135.105 148.313 137.587C146.47 141.021 143.125 142.942 139.695 142.942L139.696 142.942ZM139.721 127.521C138.201 127.521 136.726 128.362 135.918 129.875C135.348 130.937 135.192 132.172 135.481 133.355C135.775 134.563 136.498 135.579 137.511 136.21C139.616 137.528 142.316 136.754 143.525 134.493C144.092 133.431 144.247 132.196 143.958 131.013C143.664 129.805 142.941 128.79 141.928 128.158C141.232 127.725 140.471 127.521 139.721 127.521H139.721Z" fill="#DD3835"/>
<path d="M119.976 65.3851L135.958 54.1221L119.976 65.3851Z" fill="#DD3835"/>
<path d="M118.471 62.8161L134.451 51.5516L137.451 56.6823L121.47 67.9467L118.471 62.8161Z" fill="#DD3835"/>
<path d="M140.08 62.2061C136.653 62.2061 133.308 60.2848 131.467 56.8509C130.136 54.3715 129.778 51.4767 130.456 48.7017C131.139 45.8981 132.795 43.5589 135.114 42.1168C139.836 39.1798 145.916 40.9363 148.652 46.0452C149.983 48.5274 150.344 51.4223 149.667 54.1945C148.983 56.998 147.328 59.3373 145.009 60.7794C143.458 61.7488 141.758 62.2063 140.08 62.2063L140.08 62.2061ZM140.062 46.7846C139.309 46.7846 138.547 46.9888 137.853 47.4218C136.839 48.0536 136.117 49.0693 135.823 50.2771C135.534 51.4603 135.689 52.6953 136.256 53.7573C137.47 56.0176 140.164 56.7924 142.27 55.4743C143.284 54.8426 144.006 53.8268 144.3 52.619C144.589 51.4358 144.434 50.2008 143.867 49.1388C143.055 47.6301 141.581 46.7846 140.062 46.7846Z" fill="#DD3835"/>
</svg>
