<svg width="150" height="183" viewBox="0 0 150 183" fill="none" xmlns="http://www.w3.org/2000/svg">
<path d="M118.335 159.64H31.5563C30.6361 159.64 29.8896 158.768 29.8896 157.693C29.8896 156.618 30.6361 155.746 31.5563 155.746H118.335C119.255 155.746 120.001 156.618 120.001 157.693C120.001 158.768 119.255 159.64 118.335 159.64Z" fill="#DD3835"/>
<path d="M118.335 29H31.6646C30.7455 29 30 27.6565 30 26C30 24.3436 30.7455 23 31.6646 23H118.335C119.254 23 120 24.3436 120 26C120 27.6565 119.254 29 118.335 29Z" fill="#DD3835"/>
<path d="M78.334 15.5755H65.0007C64.0804 15.5755 63.334 14.7036 63.334 13.6287C63.334 12.5538 64.0804 11.6819 65.0007 11.6819H78.334C79.2543 11.6819 80.0007 12.5538 80.0007 13.6287C80.0007 14.7036 79.2543 15.5755 78.334 15.5755Z" fill="#DD3835"/>
<path d="M81.668 171.32H68.3347C67.4144 171.32 66.668 170.448 66.668 169.373C66.668 168.298 67.4144 167.426 68.3347 167.426H81.668C82.5883 167.426 83.3347 168.298 83.3347 169.373C83.3347 170.448 82.5883 171.32 81.668 171.32Z" fill="#DD3835"/>
<path d="M8.5 134C3.81294 134 0 130.187 0 125.5C0 120.813 3.81294 117 8.5 117C13.1871 117 17 120.813 17 125.5C17 130.187 13.1871 134 8.5 134ZM8.5 120.4C5.68773 120.4 3.40013 122.688 3.40013 125.5C3.40013 128.312 5.68783 130.6 8.5 130.6C11.3122 130.6 13.5999 128.312 13.5999 125.5C13.5999 122.688 11.3122 120.4 8.5 120.4Z" fill="#DD3835"/>
<path d="M140 67C134.486 67 130 62.5141 130 57C130 51.4859 134.486 47 140 47C145.514 47 150 51.4859 150 57C150 62.5141 145.514 67 140 67ZM140 50.3329C136.324 50.3329 133.333 53.3234 133.333 56.9997C133.333 60.6759 136.324 63.6665 140 63.6665C143.676 63.6665 146.667 60.6759 146.667 56.9997C146.667 53.3234 143.676 50.3329 140 50.3329Z" fill="#DD3835"/>
<path d="M4.66601 29.203C6.32238 29.203 7.66602 30.5465 7.66602 32.203C7.66602 33.8595 6.32252 35.203 4.66601 35.203C3.00951 35.203 1.66602 33.8595 1.66602 32.203C1.66602 30.5465 3.00951 29.203 4.66601 29.203Z" fill="#DD3835"/>
<path d="M14.665 87.6062C16.3214 87.6062 17.665 88.9497 17.665 90.6062C17.665 92.2627 16.3215 93.6062 14.665 93.6062C13.0085 93.6062 11.665 92.2627 11.665 90.6062C11.665 88.9497 13.0085 87.6062 14.665 87.6062Z" fill="#DD3835"/>
<path d="M138 9.73474C139.656 9.73474 141 11.0782 141 12.7347C141 14.3912 139.657 15.7347 138 15.7347C136.343 15.7347 135 14.3912 135 12.7347C135 11.0782 136.343 9.73474 138 9.73474Z" fill="#DD3835"/>
<path d="M84.666 40.8829C86.3224 40.8829 87.666 42.2264 87.666 43.8829C87.666 45.5394 86.3225 46.8829 84.666 46.8829C83.0095 46.8829 81.666 45.5394 81.666 43.8829C81.666 42.2264 83.0095 40.8829 84.666 40.8829Z" fill="#DD3835"/>
<path d="M88 10C89.6564 10 91 11.3435 91 13C91 14.6565 89.6565 16 88 16C86.3435 16 85 14.6565 85 13C85 11.3435 86.3435 10 88 10Z" fill="#DD3835"/>
<path d="M51.334 40.8829C52.9903 40.8829 54.334 42.2264 54.334 43.8829C54.334 45.5394 52.9905 46.8829 51.334 46.8829C49.6775 46.8829 48.334 45.5394 48.334 43.8829C48.334 42.2264 49.6775 40.8829 51.334 40.8829Z" fill="#DD3835"/>
<path d="M134.669 91.5007C136.325 91.5007 137.669 92.8442 137.669 94.5007C137.669 96.1572 136.325 97.5007 134.669 97.5007C133.012 97.5007 131.669 96.1572 131.669 94.5007C131.669 92.8442 133.012 91.5007 134.669 91.5007Z" fill="#DD3835"/>
<path d="M131.667 157.693C133.508 157.693 135.001 159.437 135.001 161.587C135.001 163.737 133.508 165.481 131.667 165.481C129.827 165.481 128.334 163.737 128.334 161.587C128.334 159.437 129.827 157.693 131.667 157.693Z" fill="#DD3835"/>
<path d="M14.9985 153.798C16.839 153.798 18.332 155.542 18.332 157.692C18.332 159.842 16.8392 161.586 14.9985 161.586C13.1579 161.586 11.665 159.842 11.665 157.692C11.665 155.542 13.1579 153.798 14.9985 153.798Z" fill="#DD3835"/>
<path d="M104.478 183H43.4087C34.9122 183 28 175.082 28 165.349V17.6505C28 7.91786 34.9122 0 43.4087 0H104.478C112.975 0 119.887 7.91786 119.887 17.6505V25.3569L120 92.0012L119.887 165.352C119.887 175.082 112.975 183 104.478 183ZM43.5216 4.00107C36.8993 4.00107 31.5118 10.1725 31.5118 17.7582V165.457C31.5118 173.043 36.8993 179.214 43.5216 179.214H104.591C111.214 179.214 116.601 173.043 116.601 165.456V92.0033V25.4678V17.7571C116.601 10.1714 111.214 4 104.591 4L43.5216 4.00107Z" fill="#DD3835"/>
<path d="M105.002 46.7247C104.081 46.7247 103.335 45.8528 103.335 44.7779V36.9906C103.335 35.9157 104.081 35.0438 105.002 35.0438C105.922 35.0438 106.668 35.9157 106.668 36.9906V44.7779C106.668 45.8528 105.922 46.7247 105.002 46.7247Z" fill="#DD3835"/>
<path d="M94.9987 46.7247C94.0785 46.7247 93.332 45.8528 93.332 44.7779V40.8841C93.332 39.8092 94.0785 38.9373 94.9987 38.9373C95.919 38.9373 96.6654 39.8091 96.6654 40.8841V44.7779C96.6654 45.8528 95.919 46.7247 94.9987 46.7247Z" fill="#DD3835"/>
<path d="M58.3325 58.4046H31.6657C30.7455 58.4046 29.999 57.5327 29.999 56.4578C29.999 55.3829 30.7454 54.511 31.6657 54.511H58.3325C59.2527 54.511 59.9991 55.3829 59.9991 56.4578C59.9991 57.5327 59.2527 58.4046 58.3325 58.4046Z" fill="#DD3835"/>
<path d="M41.6656 46.7247H31.6657C30.7455 46.7247 29.999 45.8528 29.999 44.7779C29.999 43.7029 30.7454 42.8311 31.6657 42.8311H41.6656C42.5858 42.8311 43.3323 43.7029 43.3323 44.7779C43.3323 45.8528 42.5858 46.7247 41.6656 46.7247Z" fill="#DD3835"/>
<path d="M105.001 144.066H44.9997C44.0795 144.066 43.333 143.194 43.333 142.119V72.0323C43.333 70.9574 44.0794 70.0854 44.9997 70.0854H105.001C105.922 70.0854 106.668 70.9573 106.668 72.0323V142.119C106.668 143.194 105.922 144.066 105.001 144.066ZM46.6667 140.172H103.334V73.9798H46.6667V140.172Z" fill="#DD3835"/>
<path d="M62.5 144C61.1197 144 60 143.128 60 142.053V71.9473C60 70.8721 61.1196 70 62.5 70C63.8804 70 65 70.8721 65 71.9473V142.053C65 143.128 63.8804 144 62.5 144Z" fill="#DD3835"/>
<path d="M105.316 97H44.6842C43.7543 97 43 95.8804 43 94.5C43 93.1196 43.7543 92 44.6842 92H105.316C106.246 92 107 93.1196 107 94.5C107 95.8804 106.246 97 105.316 97Z" fill="#DD3835"/>
<path d="M105.316 113H44.6842C43.7543 113 43 111.88 43 110.5C43 109.12 43.7543 108 44.6842 108H105.316C106.246 108 107 109.12 107 110.5C107 111.88 106.246 113 105.316 113Z" fill="#DD3835"/>
<path d="M105.316 128H44.6842C43.7543 128 43 126.88 43 125.5C43 124.12 43.7543 123 44.6842 123H105.316C106.246 123 107 124.12 107 125.5C107 126.88 106.246 128 105.316 128Z" fill="#DD3835"/>
</svg>
