<svg width="130" height="130" viewBox="0 0 130 130" fill="none" xmlns="http://www.w3.org/2000/svg">
<path d="M113.298 45.2441C113.607 43.7406 113.763 42.2108 113.765 40.6763C113.779 35.012 111.638 29.5535 107.775 25.4073C103.912 21.261 98.6178 18.737 92.9621 18.3454C89.3933 10.1137 82.3738 3.87375 73.7759 1.28986C65.1792 -1.29311 55.8795 0.0428036 48.3575 4.94216C40.8372 9.84151 35.862 17.806 34.7582 26.7093C33.337 26.5263 31.905 26.4447 30.472 26.4655C19.5852 26.4655 9.52556 32.2695 4.08318 41.6912C-1.36106 51.1129 -1.36106 62.7208 4.08318 72.1425C9.52649 81.5642 19.5861 87.3682 30.472 87.3682H60.9448V121.88H18.2829C16.8309 121.88 15.4896 122.654 14.7641 123.91C14.0386 125.166 14.0386 126.714 14.7641 127.97C15.4896 129.226 16.831 130 18.2829 130H111.733C113.185 130 114.526 129.226 115.252 127.97C115.977 126.714 115.977 125.166 115.252 123.91C114.526 122.654 113.185 121.88 111.733 121.88H69.0709V87.3682H108.684C115.75 87.3627 122.355 83.8618 126.322 78.0179C130.288 72.1741 131.102 64.7463 128.494 58.1839C125.885 51.6215 120.194 46.7755 113.296 45.244L113.298 45.2441ZM108.687 79.2475H30.4719C22.4881 79.2475 15.1113 74.9915 11.119 68.082C7.12774 61.1726 7.12774 52.6606 11.119 45.7511C15.1113 38.8416 22.4884 34.5856 30.4719 34.5856C32.8264 34.5829 35.1653 34.9599 37.399 35.7022C38.6705 36.1181 40.0653 35.8825 41.1291 35.0714C42.1929 34.2593 42.7879 32.9769 42.7217 31.642V31.1146V30.5255C42.7308 23.374 46.1662 16.6592 51.9634 12.4649C57.7596 8.27062 65.2163 7.10431 72.0174 9.32812C78.8194 11.5521 84.1438 16.8974 86.3388 23.7046C86.6634 24.5629 87.2548 25.2943 88.0266 25.7909C88.7983 26.2884 89.7089 26.5241 90.6248 26.4652H91.4175C95.1894 26.4652 98.8062 27.9623 101.473 30.6277C104.14 33.2921 105.638 36.9063 105.638 40.6758C105.638 42.869 105.123 45.0313 104.134 46.989C103.51 48.2478 103.578 49.7395 104.319 50.9341C105.059 52.1286 106.365 52.8554 107.771 52.8563H108.685C113.403 52.8563 117.762 55.3713 120.121 59.4543C122.48 63.5372 122.48 68.5669 120.121 72.6498C117.762 76.7327 113.403 79.2477 108.685 79.2477L108.687 79.2475Z" fill="#DD3835"/>
</svg>
