<svg width="128" height="155" viewBox="0 0 128 155" fill="none" xmlns="http://www.w3.org/2000/svg">
<path d="M63.5312 0C39.7966 0 20.4811 17.9411 20.4811 39.9897V63.3223H14.5629C6.53227 63.3223 0 69.3899 0 76.8423V141.472C0 148.932 6.53193 155 14.5629 155H112.486C120.517 155 127.049 148.932 127.049 141.472V76.8423C127.049 69.3825 120.517 63.3223 112.486 63.3223H106.576L106.578 39.9897C106.578 17.9424 87.2637 0 63.5277 0H63.5312ZM26.3025 39.9897C26.3025 20.9285 43.0025 5.40759 63.5312 5.40759C84.0598 5.40759 100.76 20.9204 100.76 39.9897V63.3223H26.3025V39.9897ZM112.496 68.7367C117.313 68.7367 121.231 72.376 121.231 76.85V141.48C121.231 145.954 117.313 149.593 112.496 149.593H14.5626C9.7462 149.593 5.82836 145.954 5.82836 141.48V76.85C5.82836 72.376 9.7462 68.7367 14.5626 68.7367H112.496Z" fill="#DD3835"/>
</svg>
