<svg width="150" height="150" viewBox="0 0 150 150" fill="none" xmlns="http://www.w3.org/2000/svg">
<path d="M15.1112 133.201H76.0106C83.4024 143.654 96.1515 149.983 109.85 150C131.989 150 150 133.663 150 113.602C150.01 105.077 146.715 96.8208 140.69 90.274C134.666 83.7283 126.296 79.3085 117.041 77.7866V33.3955C117.041 32.7609 116.768 32.1524 116.279 31.6973L83.1157 0.735887C82.6076 0.264527 81.9109 -0.00108353 81.1842 3.32241e-06H15.1128C11.107 0.00218038 7.26549 1.44457 4.43223 4.01161C1.59873 6.57851 0.00491992 10.0587 0 13.6894V119.449C0.00240215 123.086 1.59393 126.575 4.42516 129.151C7.25747 131.728 11.1 133.183 15.1131 133.2L15.1112 133.201ZM144.616 113.586C144.616 121.944 140.954 129.958 134.432 135.867C127.913 141.777 119.07 145.096 109.849 145.096C100.629 145.096 91.7857 141.777 85.2646 135.868C78.7448 129.958 75.0825 121.944 75.0825 113.588C75.0825 105.231 78.7448 97.2162 85.2646 91.3073C91.7844 85.3974 100.629 82.0783 109.849 82.0783C119.066 82.0881 127.903 85.4105 134.422 91.3171C140.939 97.2237 144.605 105.233 144.616 113.586ZM83.741 8.44303L107.983 31.0903H87.3912C85.3937 31.0348 83.7926 29.5761 83.741 27.7656V8.44303ZM5.37895 13.6889C5.38255 11.3506 6.40835 9.11019 8.23287 7.45789C10.0574 5.80648 12.5317 4.87792 15.1106 4.87683H78.3623V27.7657C78.3888 29.9309 79.3485 32.0003 81.0361 33.533C82.7237 35.0658 85.0046 35.9388 87.3939 35.9671H111.658V77.237C110.986 77.213 110.457 77.2718 109.852 77.2718C100.36 77.2587 91.1727 80.2991 83.925 85.8521C76.6774 91.4062 71.8401 99.1112 70.2775 107.596H21.8162C20.3304 107.596 19.1257 108.687 19.1257 110.034C19.1257 111.381 20.3304 112.473 21.8162 112.473H69.7301C69.7145 112.777 69.7037 113.265 69.7037 113.686C69.7073 118.728 70.8712 123.712 73.1209 128.323H15.112C12.5259 128.307 10.0503 127.367 8.22806 125.703C6.40471 124.041 5.38014 121.793 5.38014 119.448L5.37895 13.6889Z" fill="#DD3835"/>
<path d="M21.8185 97.2315H64.6187C66.1046 97.2315 67.3093 96.1397 67.3093 94.7931C67.3093 93.4465 66.1046 92.3546 64.6187 92.3546H21.8185C20.3327 92.3546 19.1279 93.4465 19.1279 94.7931C19.1279 96.1397 20.3327 97.2315 21.8185 97.2315Z" fill="#DD3835"/>
<path d="M69.6179 34.442C69.6179 33.7954 69.3344 33.1749 68.8299 32.7177C68.3254 32.2605 67.6408 32.0035 66.9273 32.0035H50.4474C48.9616 32.0035 47.7568 33.0954 47.7568 34.442V74.0676C47.7568 74.7142 48.0403 75.3347 48.5448 75.7919C49.0493 76.2491 49.7339 76.5061 50.4474 76.5061H66.9273C67.6408 76.5061 68.3255 76.2492 68.8299 75.7919C69.3344 75.3347 69.6179 74.7142 69.6179 74.0676V34.442ZM53.138 36.8805H63.9003V71.6292H53.138V36.8805Z" fill="#DD3835"/>
<path d="M41.365 56.9984C41.365 56.3518 41.0815 55.7313 40.577 55.2741C40.0725 54.8169 39.3879 54.5599 38.6744 54.5599H22.1945C20.7087 54.5599 19.5039 55.6518 19.5039 56.9984V74.0676C19.5039 74.7142 19.7874 75.3347 20.2919 75.7919C20.7963 76.2491 21.481 76.506 22.1945 76.506H38.6744C39.3879 76.506 40.0725 76.2491 40.577 75.7919C41.0815 75.3347 41.365 74.7142 41.365 74.0676V56.9984ZM24.8851 59.4368H35.9838V71.6291H24.8851V59.4368Z" fill="#DD3835"/>
<path d="M97.5319 48.4624C97.5319 47.8158 97.2485 47.1952 96.744 46.738C96.2395 46.2808 95.5548 46.0239 94.8414 46.0239H78.3615C76.8757 46.0239 75.6709 47.1158 75.6709 48.4624V74.0662C75.6709 74.7128 75.9544 75.3333 76.4589 75.7905C76.9633 76.2477 77.648 76.5046 78.3615 76.5046H94.8414C95.5548 76.5046 96.2395 76.2477 96.744 75.7905C97.2485 75.3333 97.5319 74.7128 97.5319 74.0662V48.4624ZM81.0521 50.9008H92.1508V71.6277H81.0521V50.9008Z" fill="#DD3835"/>
<path d="M108.688 89.108L84.8601 96.0946C83.7646 96.4266 83.0379 97.3682 83.0704 98.4155V127.986V127.985C83.0379 129.031 83.7646 129.974 84.8601 130.306L108.726 137.293C108.986 137.371 109.259 137.41 109.533 137.41C109.81 137.41 110.085 137.371 110.35 137.293L134.299 130.306C135.42 129.986 136.19 129.051 136.209 127.985V98.4144V98.4155C136.188 97.3486 135.417 96.4146 134.293 96.0946L110.364 89.108H110.365C109.82 88.9513 109.234 88.9513 108.689 89.108H108.688ZM88.4516 101.764L106.613 107.117V131.562L88.4516 126.21V101.764ZM111.994 131.683V107.238L130.828 101.762V126.208L111.994 131.683ZM124.652 98.4143L109.514 102.838L94.3758 98.4143L109.514 93.9903L124.652 98.4143Z" fill="#DD3835"/>
</svg>
