<svg width="150" height="150" viewBox="0 0 150 150" fill="none" xmlns="http://www.w3.org/2000/svg">
<path d="M148.289 130.524H146.437V43.6028C146.437 39.1906 142.897 35.5842 138.536 35.5842H28.8144C24.4538 35.5842 20.9134 39.1903 20.9134 43.6028V57.0535H5.79072C2.60233 57.0535 0 59.6866 0 62.9128V106.635C0 109.861 2.60233 112.494 5.79072 112.494H20.8888V130.499L19.014 130.5C18.076 130.5 17.3021 131.283 17.3021 132.232C17.3021 142.03 25.1793 150 34.8622 150H132.44C142.123 150 150 142.03 150 132.232C150 131.283 149.226 130.524 148.289 130.524V130.524ZM24.3124 43.6028C24.3124 41.0887 26.3286 39.0486 28.7906 39.0486H138.512C140.974 39.0486 142.991 41.0887 142.991 43.6028V130.524H24.3135V112.519H28.9321V124.095C28.9321 125.044 29.706 125.828 30.644 125.828L136.66 125.826C137.598 125.826 138.372 125.043 138.372 124.094L138.371 45.4772C138.371 44.5281 137.597 43.745 136.659 43.745H30.6429C29.7049 43.745 28.931 44.5281 28.931 45.4772V57.0538H24.3124L24.3124 43.6028ZM5.79075 60.5167H84.0486C85.3611 60.5167 86.4167 61.5837 86.4167 62.9128V66.8511H3.42282V62.9128C3.42282 61.6088 4.50108 60.5167 5.79092 60.5167H5.79075ZM86.3945 70.3143V77.2645L3.44484 77.2656V70.3154L86.3945 70.3143ZM3.42274 106.633V80.7524H86.3945V106.634C86.3945 107.962 85.34 109.03 84.0264 109.03L5.79067 109.029C4.50083 109.029 3.42257 107.962 3.42257 106.633L3.42274 106.633ZM84.0486 112.516C87.237 112.516 89.8393 109.883 89.8393 106.657L89.8404 62.9125C89.8404 59.6863 87.238 57.0532 84.0496 57.0532H32.354V47.2086H134.95V122.337H32.354V112.492H84.0496L84.0486 112.516ZM132.44 146.533H34.8618C27.6646 146.533 21.7087 141.053 20.8422 133.984H146.46C145.616 141.054 139.662 146.533 132.441 146.533H132.44Z" fill="#DD3835"/>
<path d="M73.9219 86.8018C69.0919 86.8018 65.1533 90.7629 65.1533 95.6501C65.1533 100.537 69.0919 104.523 73.9219 104.523C78.7519 104.523 82.6667 100.537 82.6667 95.6501C82.6904 90.7638 78.7508 86.8018 73.9219 86.8018ZM73.9219 101.06C70.9678 101.06 68.5769 98.6394 68.5769 95.6512C68.5769 92.6862 70.9687 90.2658 73.9219 90.2658C76.8522 90.2658 79.2443 92.686 79.2443 95.6512C79.2443 98.6395 76.8524 101.06 73.9219 101.06Z" fill="#DD3835"/>
<path d="M22.1546 99.0198H12.121C11.1831 99.0198 10.4092 99.8028 10.4092 100.752C10.4092 101.701 11.1831 102.484 12.121 102.484H22.1557C23.0936 102.484 23.8675 101.701 23.8675 100.752C23.8664 99.8028 23.0925 99.0198 22.1546 99.0198H22.1546Z" fill="#DD3835"/>
<path d="M41.9194 99.0198H31.3935C30.4555 99.0198 29.6816 99.8028 29.6816 100.752C29.6816 101.701 30.4555 102.484 31.3935 102.484H41.9205C42.8585 102.484 43.6324 101.701 43.6324 100.752C43.6313 99.8028 42.8811 99.0198 41.9194 99.0198H41.9194Z" fill="#DD3835"/>
<path d="M83.651 143.427C85.3855 143.427 86.7929 142.004 86.7929 140.247C86.7929 138.492 85.3865 137.068 83.651 137.068C81.8927 137.068 80.4863 138.491 80.4863 140.247C80.509 142.004 81.9165 143.427 83.651 143.427Z" fill="#DD3835"/>
<path d="M139.941 22.2056H142.942C143.574 22.2056 144.09 21.6836 144.09 21.0436C144.09 20.4036 143.574 19.8816 142.942 19.8816L139.941 19.8805C139.309 19.8805 138.793 20.4025 138.793 21.0425C138.816 21.6836 139.308 22.2057 139.941 22.2057V22.2056Z" fill="#DD3835"/>
<path d="M131.619 22.2056H134.62C135.252 22.2056 135.768 21.6836 135.768 21.0436C135.768 20.4036 135.252 19.8816 134.62 19.8816H131.619C130.987 19.8816 130.471 20.4036 130.471 21.0436C130.47 21.6836 130.986 22.2056 131.619 22.2056Z" fill="#DD3835"/>
<path d="M137.292 27.9207C137.924 27.9207 138.44 27.3987 138.44 26.7587V23.7227C138.44 23.0827 137.924 22.5607 137.292 22.5607C136.659 22.5607 136.144 23.0827 136.144 23.7227V26.7587C136.144 27.4227 136.659 27.9207 137.292 27.9207Z" fill="#DD3835"/>
<path d="M137.27 19.5003C137.902 19.5003 138.418 18.9783 138.418 18.3383V15.3023C138.418 14.6623 137.902 14.1403 137.27 14.1403C136.637 14.1403 136.121 14.6623 136.121 15.3023V18.3383C136.144 18.9783 136.636 19.5003 137.27 19.5003Z" fill="#DD3835"/>
<path d="M62.5049 22.5845H65.6695C66.302 22.5845 66.8179 22.0625 66.8179 21.4225C66.8179 20.7825 66.302 20.2605 65.6695 20.2605H62.5049C61.8724 20.2605 61.3564 20.7825 61.3564 21.4225C61.3554 22.0625 61.8713 22.5845 62.5049 22.5845Z" fill="#DD3835"/>
<path d="M53.6875 22.5845H56.8521C57.4846 22.5845 58.0005 22.0625 58.0005 21.4225C58.0005 20.7825 57.4846 20.2605 56.8521 20.2605H53.6875C53.055 20.2605 52.5391 20.7825 52.5391 21.4225C52.5391 22.0625 53.055 22.5845 53.6875 22.5845Z" fill="#DD3835"/>
<path d="M59.667 23.1309C59.0345 23.1309 58.5186 23.6529 58.5186 24.2929V27.495C58.5186 28.135 59.0345 28.657 59.667 28.657C60.2995 28.657 60.8154 28.135 60.8154 27.495V24.2929C60.8165 23.6289 60.3005 23.1309 59.667 23.1309Z" fill="#DD3835"/>
<path d="M59.667 19.7386C60.2995 19.7386 60.8154 19.2165 60.8154 18.5765V15.3744C60.8154 14.7344 60.2995 14.2124 59.667 14.2124C59.0345 14.2124 58.5186 14.7344 58.5186 15.3744V18.5765C58.5423 19.2165 59.0345 19.7386 59.667 19.7386Z" fill="#DD3835"/>
<path d="M20.9601 9.53672C23.5862 9.53672 25.7191 7.4016 25.7191 4.76836C25.7191 2.13512 23.5852 0 20.9601 0C18.3341 0 16.2012 2.13512 16.2012 4.76836C16.2001 7.4026 18.334 9.53672 20.9601 9.53672ZM20.9601 2.32533C22.3201 2.32533 23.4222 3.41636 23.4222 4.76844C23.4222 6.1205 22.3201 7.21156 20.9601 7.21156C19.5764 7.21156 18.4755 6.14454 18.4755 4.76844C18.4744 3.39343 19.5764 2.32533 20.9601 2.32533Z" fill="#DD3835"/>
<path d="M12.1213 38.4779C14.7473 38.4779 16.8802 36.3428 16.8802 33.7095C16.8802 31.0764 14.7463 28.9412 12.1213 28.9412C9.49521 28.9412 7.36231 31.0763 7.36231 33.7095C7.36123 36.3427 9.49512 38.4779 12.1213 38.4779ZM12.1213 31.2665C13.4813 31.2665 14.5833 32.3575 14.5833 33.7096C14.5833 35.0617 13.4813 36.1527 12.1213 36.1527C10.7375 36.1527 9.63659 35.0857 9.63659 33.7096C9.63552 32.3346 10.7375 31.2665 12.1213 31.2665Z" fill="#DD3835"/>
<path d="M9.02621 133.605C6.58795 133.605 4.61816 135.574 4.61816 138.017C4.61816 140.437 6.61064 142.429 9.02621 142.429C11.4407 142.429 13.4343 140.46 13.4343 138.017C13.4332 135.574 11.4644 133.605 9.02621 133.605ZM9.02621 140.105C7.83029 140.105 6.89232 139.18 6.89232 138.018C6.89232 136.856 7.83026 135.931 9.02621 135.931C10.1984 135.931 11.1363 136.856 11.1363 138.018C11.1353 139.18 10.1984 140.105 9.02621 140.105Z" fill="#DD3835"/>
<path d="M94.7863 13.8312C97.6003 13.8312 99.897 11.5541 99.897 8.73096C99.897 5.90783 97.5991 3.60669 94.7863 3.60669C91.9723 3.60669 89.6982 5.90783 89.6982 8.73096C89.6982 11.5302 91.9962 13.8312 94.7863 13.8312ZM94.7863 5.93174C96.3341 5.93174 97.6003 7.18879 97.6003 8.73096C97.6003 10.249 96.3342 11.5061 94.7863 11.5061C93.2385 11.5061 91.9961 10.272 91.9961 8.73096C91.9961 7.18887 93.2621 5.93174 94.7863 5.93174Z" fill="#DD3835"/>
</svg>
