<svg width="575" height="569" viewBox="0 0 575 569" fill="none" xmlns="http://www.w3.org/2000/svg">
<path d="M391.021 0H501.242C501.242 0 567.903 16.7982 574.126 74.3145V279.531L268.433 74.3145H110.22C110.22 74.3145 75.5277 76.9465 73.7386 108.762V162.95C76.1329 174.178 82.8294 184.036 92.4068 190.431L446.17 431.876H318.993L42.547 242.606C42.547 242.606 2.56594 219.383 2.56594 191.282V83.9909C2.56594 83.9909 0.77694 7.0444 85.2508 0H288.346L504.742 148.629L502.953 85.7714C502.953 85.7714 479.618 45.1306 390.943 3.5609" fill="url(#paint0_linear_979_17228)"/>
<path d="M183.129 569H72.8938C72.8938 569 6.2236 552.202 0 494.686V289.469L305.734 494.686H463.969C463.969 494.686 498.666 492.054 500.455 460.238V406.05C498.06 394.822 491.363 384.964 481.784 378.569L127.973 137.124H255.09L531.573 326.394C531.573 326.394 571.56 349.617 571.56 377.718V484.777C571.56 484.777 573.349 561.723 488.864 568.768H285.741L69.3153 420.448L71.1047 483.229C71.1047 483.229 94.4432 523.87 183.129 565.439" fill="url(#paint1_linear_979_17228)"/>
<defs>
<linearGradient id="paint0_linear_979_17228" x1="288.344" y1="0" x2="288.344" y2="431.876" gradientUnits="userSpaceOnUse">
<stop stop-color="#B72122"/>
<stop offset="1" stop-color="#DF3A3B" stop-opacity="0.46"/>
</linearGradient>
<linearGradient id="paint1_linear_979_17228" x1="285.781" y1="137.124" x2="285.781" y2="569" gradientUnits="userSpaceOnUse">
<stop stop-color="#DF3A3B" stop-opacity="0.46"/>
<stop offset="1" stop-color="#B72122"/>
</linearGradient>
</defs>
</svg>
