<svg width="120" height="90" viewBox="0 0 120 90" fill="none" xmlns="http://www.w3.org/2000/svg">
<path d="M45 76.875C56.3909 76.875 65.625 67.6409 65.625 56.25C65.625 44.8591 56.3909 35.625 45 35.625C33.6091 35.625 24.375 44.8591 24.375 56.25C24.375 67.6409 33.6091 76.875 45 76.875Z" fill="#E7142D"/>
<g filter="url(#filter0_iii_1212_3572)">
<path d="M35.625 18.75C35.625 14.6079 38.9829 11.25 43.125 11.25H88.125C92.2671 11.25 95.625 14.6079 95.625 18.75V69.375C95.625 73.5171 92.2671 76.875 88.125 76.875H43.125C38.9829 76.875 35.625 73.5171 35.625 69.375V18.75Z" fill="#DCD3D3" fill-opacity="0.5"/>
<g filter="url(#filter1_d_1212_3572)">
<path d="M86.1561 43.5H45.8439C44.5494 43.5 43.5 44.5493 43.5 45.8438C43.5 47.1382 44.5494 48.1875 45.8439 48.1875H86.1561C87.4506 48.1875 88.5 47.1382 88.5 45.8438C88.5 44.5493 87.4506 43.5 86.1561 43.5Z" fill="white"/>
</g>
<g filter="url(#filter2_di_1212_3572)">
<path d="M67.4061 54.1875H45.8439C44.5494 54.1875 43.5 55.2368 43.5 56.5312C43.5 57.8257 44.5494 58.875 45.8439 58.875H67.4061C68.7006 58.875 69.75 57.8257 69.75 56.5312C69.75 55.2368 68.7006 54.1875 67.4061 54.1875Z" fill="white"/>
</g>
<g filter="url(#filter3_d_1212_3572)">
<path d="M86.1561 64.875H45.8439C44.5494 64.875 43.5 65.9243 43.5 67.2188C43.5 68.5132 44.5494 69.5625 45.8439 69.5625H86.1561C87.4506 69.5625 88.5 68.5132 88.5 67.2188C88.5 65.9243 87.4506 64.875 86.1561 64.875Z" fill="white"/>
</g>
<g filter="url(#filter4_di_1212_3572)">
<path d="M43.3066 27.6371L49.7322 33.9284C50.137 34.3247 50.618 34.5149 51.1752 34.4991C51.7311 34.4819 52.2114 34.2752 52.6162 33.8789C52.9872 33.4826 53.1815 33.0202 53.1991 32.4918C53.2153 31.9634 53.021 31.501 52.6162 31.1047L47.6578 26.25L52.6162 21.3953C53.021 20.999 53.2153 20.5366 53.1991 20.0082C53.1815 19.4798 52.9872 19.0174 52.6162 18.6211C52.2114 18.2248 51.7311 18.0181 51.1752 18.0009C50.618 17.9851 50.137 18.1753 49.7322 18.5716L43.3066 24.8629C43.1042 25.0611 42.9605 25.2758 42.8755 25.5069C42.7918 25.7381 42.75 25.9858 42.75 26.25C42.75 26.5142 42.7918 26.7619 42.8755 26.9931C42.9605 27.2242 43.1042 27.4389 43.3066 27.6371Z" fill="white"/>
</g>
<g filter="url(#filter5_di_1212_3572)">
<path d="M69.8433 27.6371L63.4177 33.9284C63.0129 34.3247 62.5319 34.5149 61.9747 34.4991C61.4188 34.4819 60.9385 34.2752 60.5337 33.8789C60.1627 33.4826 59.9684 33.0202 59.9508 32.4918C59.9346 31.9634 60.1289 31.501 60.5337 31.1047L65.4921 26.25L60.5337 21.3953C60.1289 20.999 59.9346 20.5366 59.9508 20.0082C59.9684 19.4798 60.1627 19.0174 60.5337 18.6211C60.9385 18.2248 61.4188 18.0181 61.9747 18.0009C62.5319 17.9851 63.0129 18.1753 63.4177 18.5716L69.8433 24.8629C70.0457 25.0611 70.1894 25.2758 70.2744 25.5069C70.3581 25.7381 70.3999 25.9858 70.3999 26.25C70.3999 26.5142 70.3581 26.7619 70.2744 26.9931C70.1894 27.2242 70.0457 27.4389 69.8433 27.6371Z" fill="white"/>
</g>
</g>
<defs>
<filter id="filter0_iii_1212_3572" x="35.625" y="7.857" width="65.429" height="82.589" filterUnits="userSpaceOnUse" color-interpolation-filters="sRGB">
<feFlood flood-opacity="0" result="BackgroundImageFix"/>
<feBlend mode="normal" in="SourceGraphic" in2="BackgroundImageFix" result="shape"/>
<feColorMatrix in="SourceAlpha" type="matrix" values="0 0 0 0 0 0 0 0 0 0 0 0 0 0 0 0 0 0 127 0" result="hardAlpha"/>
<feOffset dx="5.429" dy="13.571"/>
<feGaussianBlur stdDeviation="8.951"/>
<feComposite in2="hardAlpha" operator="arithmetic" k2="-1" k3="1"/>
<feColorMatrix type="matrix" values="0 0 0 0 1 0 0 0 0 1 0 0 0 0 1 0 0 0 0.25 0"/>
<feBlend mode="normal" in2="shape" result="effect1_innerShadow_1212_3572"/>
<feColorMatrix in="SourceAlpha" type="matrix" values="0 0 0 0 0 0 0 0 0 0 0 0 0 0 0 0 0 0 127 0" result="hardAlpha"/>
<feOffset dy="3.393"/>
<feGaussianBlur stdDeviation="3.393"/>
<feComposite in2="hardAlpha" operator="arithmetic" k2="-1" k3="1"/>
<feColorMatrix type="matrix" values="0 0 0 0 1 0 0 0 0 1 0 0 0 0 1 0 0 0 0.2 0"/>
<feBlend mode="normal" in2="effect1_innerShadow_1212_3572" result="effect2_innerShadow_1212_3572"/>
<feColorMatrix in="SourceAlpha" type="matrix" values="0 0 0 0 0 0 0 0 0 0 0 0 0 0 0 0 0 0 127 0" result="hardAlpha"/>
<feOffset dy="-3.393"/>
<feGaussianBlur stdDeviation="3.393"/>
<feComposite in2="hardAlpha" operator="arithmetic" k2="-1" k3="1"/>
<feColorMatrix type="matrix" values="0 0 0 0 0.290196 0 0 0 0 0.290196 0 0 0 0 0.290196 0 0 0 0.1 0"/>
<feBlend mode="normal" in2="effect2_innerShadow_1212_3572" result="effect3_innerShadow_1212_3572"/>
</filter>
<filter id="filter1_d_1212_3572" x="39.5" y="43.5" width="53" height="14.9375" filterUnits="userSpaceOnUse" color-interpolation-filters="sRGB">
<feFlood flood-opacity="0" result="BackgroundImageFix"/>
<feColorMatrix in="SourceAlpha" type="matrix" values="0 0 0 0 0 0 0 0 0 0 0 0 0 0 0 0 0 0 127 0" result="hardAlpha"/>
<feOffset dy="6.25"/>
<feGaussianBlur stdDeviation="2"/>
<feColorMatrix type="matrix" values="0 0 0 0 0.290196 0 0 0 0 0.290196 0 0 0 0 0.290196 0 0 0 0.1 0"/>
<feBlend mode="normal" in2="BackgroundImageFix" result="effect1_dropShadow_1212_3572"/>
<feBlend mode="normal" in="SourceGraphic" in2="effect1_dropShadow_1212_3572" result="shape"/>
</filter>
<filter id="filter2_di_1212_3572" x="39.5" y="54.1875" width="35.25" height="17.1875" filterUnits="userSpaceOnUse" color-interpolation-filters="sRGB">
<feFlood flood-opacity="0" result="BackgroundImageFix"/>
<feColorMatrix in="SourceAlpha" type="matrix" values="0 0 0 0 0 0 0 0 0 0 0 0 0 0 0 0 0 0 127 0" result="hardAlpha"/>
<feOffset dy="6.25"/>
<feGaussianBlur stdDeviation="2"/>
<feColorMatrix type="matrix" values="0 0 0 0 0.290196 0 0 0 0 0.290196 0 0 0 0 0.290196 0 0 0 0.1 0"/>
<feBlend mode="normal" in2="BackgroundImageFix" result="effect1_dropShadow_1212_3572"/>
<feBlend mode="normal" in="SourceGraphic" in2="effect1_dropShadow_1212_3572" result="shape"/>
<feColorMatrix in="SourceAlpha" type="matrix" values="0 0 0 0 0 0 0 0 0 0 0 0 0 0 0 0 0 0 127 0" result="hardAlpha"/>
<feOffset dx="5" dy="12.5"/>
<feGaussianBlur stdDeviation="8.245"/>
<feComposite in2="hardAlpha" operator="arithmetic" k2="-1" k3="1"/>
<feColorMatrix type="matrix" values="0 0 0 0 1 0 0 0 0 1 0 0 0 0 1 0 0 0 0.25 0"/>
<feBlend mode="normal" in2="shape" result="effect2_innerShadow_1212_3572"/>
</filter>
<filter id="filter3_d_1212_3572" x="39.5" y="64.875" width="53" height="14.9375" filterUnits="userSpaceOnUse" color-interpolation-filters="sRGB">
<feFlood flood-opacity="0" result="BackgroundImageFix"/>
<feColorMatrix in="SourceAlpha" type="matrix" values="0 0 0 0 0 0 0 0 0 0 0 0 0 0 0 0 0 0 127 0" result="hardAlpha"/>
<feOffset dy="6.25"/>
<feGaussianBlur stdDeviation="2"/>
<feColorMatrix type="matrix" values="0 0 0 0 0.290196 0 0 0 0 0.290196 0 0 0 0 0.290196 0 0 0 0.1 0"/>
<feBlend mode="normal" in2="BackgroundImageFix" result="effect1_dropShadow_1212_3572"/>
<feBlend mode="normal" in="SourceGraphic" in2="effect1_dropShadow_1212_3572" result="shape"/>
</filter>
<filter id="filter4_di_1212_3572" x="38.75" y="18" width="19.4502" height="29" filterUnits="userSpaceOnUse" color-interpolation-filters="sRGB">
<feFlood flood-opacity="0" result="BackgroundImageFix"/>
<feColorMatrix in="SourceAlpha" type="matrix" values="0 0 0 0 0 0 0 0 0 0 0 0 0 0 0 0 0 0 127 0" result="hardAlpha"/>
<feOffset dy="6.25"/>
<feGaussianBlur stdDeviation="2"/>
<feColorMatrix type="matrix" values="0 0 0 0 0.290196 0 0 0 0 0.290196 0 0 0 0 0.290196 0 0 0 0.1 0"/>
<feBlend mode="normal" in2="BackgroundImageFix" result="effect1_dropShadow_1212_3572"/>
<feBlend mode="normal" in="SourceGraphic" in2="effect1_dropShadow_1212_3572" result="shape"/>
<feColorMatrix in="SourceAlpha" type="matrix" values="0 0 0 0 0 0 0 0 0 0 0 0 0 0 0 0 0 0 127 0" result="hardAlpha"/>
<feOffset dx="5" dy="12.5"/>
<feGaussianBlur stdDeviation="8.245"/>
<feComposite in2="hardAlpha" operator="arithmetic" k2="-1" k3="1"/>
<feColorMatrix type="matrix" values="0 0 0 0 1 0 0 0 0 1 0 0 0 0 1 0 0 0 0.25 0"/>
<feBlend mode="normal" in2="shape" result="effect2_innerShadow_1212_3572"/>
</filter>
<filter id="filter5_di_1212_3572" x="55.9497" y="18" width="19.4502" height="29" filterUnits="userSpaceOnUse" color-interpolation-filters="sRGB">
<feFlood flood-opacity="0" result="BackgroundImageFix"/>
<feColorMatrix in="SourceAlpha" type="matrix" values="0 0 0 0 0 0 0 0 0 0 0 0 0 0 0 0 0 0 127 0" result="hardAlpha"/>
<feOffset dy="6.25"/>
<feGaussianBlur stdDeviation="2"/>
<feColorMatrix type="matrix" values="0 0 0 0 0.290196 0 0 0 0 0.290196 0 0 0 0 0.290196 0 0 0 0.1 0"/>
<feBlend mode="normal" in2="BackgroundImageFix" result="effect1_dropShadow_1212_3572"/>
<feBlend mode="normal" in="SourceGraphic" in2="effect1_dropShadow_1212_3572" result="shape"/>
<feColorMatrix in="SourceAlpha" type="matrix" values="0 0 0 0 0 0 0 0 0 0 0 0 0 0 0 0 0 0 127 0" result="hardAlpha"/>
<feOffset dx="5" dy="12.5"/>
<feGaussianBlur stdDeviation="8.245"/>
<feComposite in2="hardAlpha" operator="arithmetic" k2="-1" k3="1"/>
<feColorMatrix type="matrix" values="0 0 0 0 1 0 0 0 0 1 0 0 0 0 1 0 0 0 0.25 0"/>
<feBlend mode="normal" in2="shape" result="effect2_innerShadow_1212_3572"/>
</filter>
</defs>
</svg>
