<svg width="464" height="267" viewBox="0 0 464 267" fill="none" xmlns="http://www.w3.org/2000/svg">
<g clip-path="url(#clip0_152_2211)">
<path d="M59.5225 221.665C59.5046 221.647 59.6828 221.407 60.0214 220.998C60.4135 220.536 60.9036 219.957 61.4828 219.281C62.7213 217.85 64.45 215.884 66.3836 213.74L66.4281 213.696V213.989C64.4856 211.881 62.7481 209.96 61.5006 208.555C60.9214 207.888 60.4313 207.327 60.0304 206.874C59.6918 206.474 59.5046 206.242 59.5225 206.216C59.5403 206.189 59.7452 206.394 60.1195 206.758C60.5383 207.185 61.0551 207.719 61.661 208.341C62.953 209.693 64.7173 211.588 66.6598 213.696L66.7935 213.838L66.6598 213.98L66.6153 214.034C64.6906 216.186 62.9352 218.116 61.6521 219.495C61.0462 220.135 60.5383 220.678 60.1195 221.114C59.7452 221.487 59.5314 221.683 59.5225 221.665Z" fill="#E1E1E1"/>
<path d="M44.544 206.207C44.5618 206.224 44.3836 206.465 44.045 206.874C43.6529 207.336 43.1628 207.914 42.5836 208.59C41.3451 210.022 39.6164 211.988 37.6828 214.132L37.6383 214.176V213.882C39.5808 215.99 41.3183 217.912 42.5658 219.317C43.145 219.984 43.6351 220.544 44.0361 220.998C44.3747 221.398 44.5618 221.629 44.544 221.656C44.5261 221.674 44.3212 221.478 43.947 221.114C43.5282 220.687 43.0113 220.153 42.4054 219.53C41.1134 218.178 39.3491 216.284 37.4066 214.176L37.2729 214.034L37.4066 213.891L37.4512 213.847C39.3758 211.694 41.1312 209.764 42.4143 208.386C43.0203 207.745 43.5282 207.203 43.947 206.767C44.3212 206.393 44.5261 206.189 44.544 206.207Z" fill="#E1E1E1"/>
<path d="M48.3842 225.312C48.2951 225.276 49.8723 220.1 51.895 213.767C53.9177 207.425 55.6374 202.32 55.7265 202.365C55.8156 202.4 54.2385 207.568 52.2158 213.909C50.1931 220.242 48.4733 225.348 48.3842 225.312Z" fill="#E1E1E1"/>
<path d="M76.5328 236.368C76.5328 236.368 76.5239 236.065 76.515 235.505C76.515 234.927 76.5061 234.1 76.4972 233.014C76.4882 230.835 76.4793 227.651 76.4615 223.595C76.4437 215.484 76.417 203.894 76.3902 189.93L76.5328 190.099C62.5967 190.108 45.8448 190.117 27.8276 190.135L27.9969 189.939C27.988 206.723 27.988 222.581 27.9791 236.377L27.8276 236.199C42.2895 236.234 54.4435 236.27 62.9976 236.288C67.2747 236.305 70.6518 236.323 72.9686 236.332C74.118 236.341 75.0002 236.35 75.615 236.35C75.9091 236.35 76.1318 236.359 76.3011 236.359C76.4526 236.359 76.5328 236.368 76.5328 236.368C76.5328 236.368 76.4615 236.377 76.31 236.377C76.1496 236.377 75.9269 236.385 75.6417 236.385C75.0358 236.394 74.1626 236.394 73.022 236.403C70.7142 236.412 67.346 236.43 63.0868 236.448C54.5059 236.465 42.3162 236.501 27.8187 236.537H27.6672V236.359C27.6583 222.564 27.6583 206.705 27.6494 189.921V189.726H27.8187C45.8359 189.734 62.5967 189.752 76.5239 189.761H76.6665V189.93C76.6397 203.948 76.613 215.573 76.5952 223.702C76.5774 227.74 76.5684 230.907 76.5595 233.086C76.5506 234.153 76.5506 234.971 76.5417 235.54C76.5506 236.092 76.5328 236.368 76.5328 236.368Z" fill="#E1E1E1"/>
<path d="M76.9158 196.823C76.9158 196.93 65.9202 197.019 52.3583 197.019C38.7964 197.019 27.8008 196.93 27.8008 196.823C27.8008 196.716 38.7964 196.628 52.3583 196.628C65.9202 196.619 76.9158 196.708 76.9158 196.823Z" fill="#E1E1E1"/>
<path d="M31.8017 193.434C31.8017 193.861 31.5076 194.208 31.1423 194.208C30.777 194.208 30.4829 193.861 30.4829 193.434C30.4829 193.008 30.777 192.661 31.1423 192.661C31.5076 192.661 31.8017 193.008 31.8017 193.434Z" fill="#E1E1E1"/>
<path d="M34.1896 193.434C34.1896 193.861 33.8956 194.208 33.5302 194.208C33.1649 194.208 32.8708 193.861 32.8708 193.434C32.8708 193.008 33.1649 192.661 33.5302 192.661C33.8956 192.661 34.1896 193.008 34.1896 193.434Z" fill="#E1E1E1"/>
<path d="M36.5778 193.434C36.5778 193.861 36.2838 194.208 35.9184 194.208C35.5531 194.208 35.259 193.861 35.259 193.434C35.259 193.008 35.5531 192.661 35.9184 192.661C36.2838 192.661 36.5778 193.008 36.5778 193.434Z" fill="#E1E1E1"/>
<path d="M464 266.795C464 266.911 362.045 267 236.317 267C110.536 267 8.60767 266.911 8.60767 266.795C8.60767 266.68 110.536 266.591 236.317 266.591C362.054 266.591 464 266.68 464 266.795Z" fill="#1A2E35"/>
<path d="M393.611 265.441H446.397V76.2493H393.611V265.441Z" fill="#ECECEC"/>
<path d="M351.967 265.444H393.615L393.687 76.2515H351.967V265.444Z" fill="#E1E1E1"/>
<path d="M398.706 121.279H443.482V106.532H398.706V121.279Z" fill="#1A2E35"/>
<path d="M439.726 119.667H442.23V108.381H439.726V119.667Z" fill="#375A64"/>
<path d="M436.769 110.762C436.769 111.277 437.126 111.695 437.562 111.695C437.999 111.695 438.355 111.277 438.355 110.762C438.355 110.246 437.999 109.828 437.562 109.828C437.126 109.828 436.769 110.246 436.769 110.762Z" fill="white"/>
<path d="M436.769 114.746C436.769 115.262 437.126 115.68 437.562 115.68C437.999 115.68 438.355 115.262 438.355 114.746C438.355 114.231 437.999 113.812 437.562 113.812C437.126 113.812 436.769 114.231 436.769 114.746Z" fill="white"/>
<path d="M431.11 118.494H433.578V109.822H431.11V118.494Z" fill="#375A64"/>
<path d="M427.556 118.494H430.024V109.822H427.556V118.494Z" fill="#375A64"/>
<path d="M423.993 118.494H426.461V109.822H423.993V118.494Z" fill="#375A64"/>
<path d="M420.439 118.494H422.907V109.822H420.439V118.494Z" fill="#375A64"/>
<path d="M416.876 118.494H419.344V109.822H416.876V118.494Z" fill="#375A64"/>
<path d="M413.321 118.494H415.79V109.822H413.321V118.494Z" fill="#375A64"/>
<path d="M409.759 118.494H412.227V109.822H409.759V118.494Z" fill="#375A64"/>
<path d="M406.196 118.494H408.664V109.822H406.196V118.494Z" fill="#375A64"/>
<path d="M402.642 118.494H405.11V109.822H402.642V118.494Z" fill="#375A64"/>
<path d="M399.078 118.494H401.547V109.822H399.078V118.494Z" fill="#375A64"/>
<path d="M398.706 142.472H443.482V127.725H398.706V142.472Z" fill="#1A2E35"/>
<path d="M439.726 140.86H442.23V129.573H439.726V140.86Z" fill="#375A64"/>
<path d="M436.769 131.948C436.769 132.464 437.126 132.882 437.562 132.882C437.999 132.882 438.355 132.464 438.355 131.948C438.355 131.432 437.999 131.014 437.562 131.014C437.126 131.014 436.769 131.432 436.769 131.948Z" fill="white"/>
<path d="M436.769 135.932C436.769 136.448 437.126 136.866 437.562 136.866C437.999 136.866 438.355 136.448 438.355 135.932C438.355 135.417 437.999 134.999 437.562 134.999C437.126 135.007 436.769 135.417 436.769 135.932Z" fill="white"/>
<path d="M431.11 139.687H433.578V131.015H431.11V139.687Z" fill="#375A64"/>
<path d="M427.556 139.687H430.024V131.015H427.556V139.687Z" fill="#375A64"/>
<path d="M423.993 139.687H426.461V131.015H423.993V139.687Z" fill="#375A64"/>
<path d="M420.439 139.687H422.907V131.015H420.439V139.687Z" fill="#375A64"/>
<path d="M416.876 139.687H419.344V131.015H416.876V139.687Z" fill="#375A64"/>
<path d="M413.321 139.687H415.79V131.015H413.321V139.687Z" fill="#375A64"/>
<path d="M409.759 139.687H412.227V131.015H409.759V139.687Z" fill="#375A64"/>
<path d="M406.196 139.687H408.664V131.015H406.196V139.687Z" fill="#375A64"/>
<path d="M402.642 139.687H405.11V131.015H402.642V139.687Z" fill="#375A64"/>
<path d="M399.078 139.687H401.547V131.015H399.078V139.687Z" fill="#375A64"/>
<path d="M398.706 163.826H443.482V149.079H398.706V163.826Z" fill="#1A2E35"/>
<path d="M439.726 162.223H442.23V150.936H439.726V162.223Z" fill="#375A64"/>
<path d="M437.562 154.237C438 154.237 438.355 153.819 438.355 153.304C438.355 152.788 438 152.37 437.562 152.37C437.124 152.37 436.769 152.788 436.769 153.304C436.769 153.819 437.124 154.237 437.562 154.237Z" fill="white"/>
<path d="M436.769 157.297C436.769 157.813 437.126 158.231 437.562 158.231C437.999 158.231 438.355 157.813 438.355 157.297C438.355 156.781 437.999 156.363 437.562 156.363C437.126 156.363 436.769 156.781 436.769 157.297Z" fill="white"/>
<path d="M431.11 161.041H433.578V152.369H431.11V161.041Z" fill="#375A64"/>
<path d="M427.556 161.041H430.024V152.369H427.556V161.041Z" fill="#375A64"/>
<path d="M423.993 161.041H426.461V152.369H423.993V161.041Z" fill="#375A64"/>
<path d="M420.439 161.041H422.907V152.369H420.439V161.041Z" fill="#375A64"/>
<path d="M416.876 161.041H419.344V152.369H416.876V161.041Z" fill="#375A64"/>
<path d="M413.321 161.041H415.79V152.369H413.321V161.041Z" fill="#375A64"/>
<path d="M409.759 161.041H412.227V152.369H409.759V161.041Z" fill="#375A64"/>
<path d="M406.196 161.041H408.664V152.369H406.196V161.041Z" fill="#375A64"/>
<path d="M402.642 161.041H405.11V152.369H402.642V161.041Z" fill="#375A64"/>
<path d="M399.078 161.041H401.547V152.369H399.078V161.041Z" fill="#375A64"/>
<path d="M398.706 186.9H443.482V172.154H398.706V186.9Z" fill="#1A2E35"/>
<path d="M439.726 185.297H442.23V174.01H439.726V185.297Z" fill="#375A64"/>
<path d="M436.769 176.375C436.769 176.891 437.126 177.309 437.562 177.309C437.999 177.309 438.355 176.891 438.355 176.375C438.355 175.859 437.999 175.441 437.562 175.441C437.126 175.45 436.769 175.868 436.769 176.375Z" fill="white"/>
<path d="M437.562 181.302C438 181.302 438.355 180.884 438.355 180.368C438.355 179.853 438 179.435 437.562 179.435C437.124 179.435 436.769 179.853 436.769 180.368C436.769 180.884 437.124 181.302 437.562 181.302Z" fill="white"/>
<path d="M431.11 184.115H433.578V175.443H431.11V184.115Z" fill="#375A64"/>
<path d="M427.556 184.115H430.024V175.443H427.556V184.115Z" fill="#375A64"/>
<path d="M423.993 184.115H426.461V175.443H423.993V184.115Z" fill="#375A64"/>
<path d="M420.439 184.115H422.907V175.443H420.439V184.115Z" fill="#375A64"/>
<path d="M416.876 184.115H419.344V175.443H416.876V184.115Z" fill="#375A64"/>
<path d="M413.321 184.115H415.79V175.443H413.321V184.115Z" fill="#375A64"/>
<path d="M409.759 184.115H412.227V175.443H409.759V184.115Z" fill="#375A64"/>
<path d="M406.196 184.115H408.664V175.443H406.196V184.115Z" fill="#375A64"/>
<path d="M402.642 184.115H405.11V175.443H402.642V184.115Z" fill="#375A64"/>
<path d="M399.078 184.115H401.547V175.443H399.078V184.115Z" fill="#375A64"/>
<path d="M398.706 210.2H443.482V195.453H398.706V210.2Z" fill="#1A2E35"/>
<path d="M439.726 208.597H442.23V197.31H439.726V208.597Z" fill="#375A64"/>
<path d="M436.769 199.678C436.769 200.194 437.126 200.612 437.562 200.612C437.999 200.612 438.355 200.194 438.355 199.678C438.355 199.162 437.999 198.744 437.562 198.744C437.126 198.744 436.769 199.162 436.769 199.678Z" fill="white"/>
<path d="M437.562 204.606C438 204.606 438.355 204.187 438.355 203.672C438.355 203.156 438 202.738 437.562 202.738C437.124 202.738 436.769 203.156 436.769 203.672C436.769 204.187 437.124 204.606 437.562 204.606Z" fill="white"/>
<path d="M431.11 207.423H433.578V198.751H431.11V207.423Z" fill="#375A64"/>
<path d="M427.556 207.423H430.024V198.751H427.556V207.423Z" fill="#375A64"/>
<path d="M423.993 207.423H426.461V198.751H423.993V207.423Z" fill="#375A64"/>
<path d="M420.439 207.423H422.907V198.751H420.439V207.423Z" fill="#375A64"/>
<path d="M416.876 207.423H419.344V198.751H416.876V207.423Z" fill="#375A64"/>
<path d="M413.321 207.423H415.79V198.751H413.321V207.423Z" fill="#375A64"/>
<path d="M409.759 207.423H412.227V198.751H409.759V207.423Z" fill="#375A64"/>
<path d="M406.196 207.423H408.664V198.751H406.196V207.423Z" fill="#375A64"/>
<path d="M402.642 207.423H405.11V198.751H402.642V207.423Z" fill="#375A64"/>
<path d="M399.078 207.423H401.547V198.751H399.078V207.423Z" fill="#375A64"/>
<path d="M398.706 256.574H443.482V241.827H398.706V256.574Z" fill="#1A2E35"/>
<path d="M439.726 254.971H442.23V243.684H439.726V254.971Z" fill="#375A64"/>
<path d="M436.769 246.054C436.769 246.569 437.126 246.987 437.562 246.987C437.999 246.987 438.355 246.569 438.355 246.054C438.355 245.538 437.999 245.12 437.562 245.12C437.126 245.12 436.769 245.538 436.769 246.054Z" fill="white"/>
<path d="M436.769 250.047C436.769 250.563 437.126 250.981 437.562 250.981C437.999 250.981 438.355 250.563 438.355 250.047C438.355 249.531 437.999 249.113 437.562 249.113C437.126 249.113 436.769 249.531 436.769 250.047Z" fill="white"/>
<path d="M431.11 253.797H433.578V245.125H431.11V253.797Z" fill="#375A64"/>
<path d="M427.556 253.797H430.024V245.125H427.556V253.797Z" fill="#375A64"/>
<path d="M423.993 253.797H426.461V245.125H423.993V253.797Z" fill="#375A64"/>
<path d="M420.439 253.797H422.907V245.125H420.439V253.797Z" fill="#375A64"/>
<path d="M416.876 253.797H419.344V245.125H416.876V253.797Z" fill="#375A64"/>
<path d="M413.321 253.797H415.79V245.125H413.321V253.797Z" fill="#375A64"/>
<path d="M409.759 253.797H412.227V245.125H409.759V253.797Z" fill="#375A64"/>
<path d="M406.196 253.797H408.664V245.125H406.196V253.797Z" fill="#375A64"/>
<path d="M402.642 253.797H405.11V245.125H402.642V253.797Z" fill="#375A64"/>
<path d="M399.078 253.797H401.547V245.125H399.078V253.797Z" fill="#375A64"/>
<path d="M398.706 233.409H443.482V218.662H398.706V233.409Z" fill="#1A2E35"/>
<path d="M439.726 231.806H442.23V220.519H439.726V231.806Z" fill="#375A64"/>
<path d="M436.769 222.884C436.769 223.4 437.126 223.818 437.562 223.818C437.999 223.818 438.355 223.4 438.355 222.884C438.355 222.368 437.999 221.95 437.562 221.95C437.126 221.959 436.769 222.377 436.769 222.884Z" fill="white"/>
<path d="M436.769 226.878C436.769 227.394 437.126 227.812 437.562 227.812C437.999 227.812 438.355 227.394 438.355 226.878C438.355 226.362 437.999 225.944 437.562 225.944C437.126 225.944 436.769 226.362 436.769 226.878Z" fill="white"/>
<path d="M431.11 230.624H433.578V221.952H431.11V230.624Z" fill="#375A64"/>
<path d="M427.556 230.624H430.024V221.952H427.556V230.624Z" fill="#375A64"/>
<path d="M423.993 230.624H426.461V221.952H423.993V230.624Z" fill="#375A64"/>
<path d="M420.439 230.624H422.907V221.952H420.439V230.624Z" fill="#375A64"/>
<path d="M416.876 230.624H419.344V221.952H416.876V230.624Z" fill="#375A64"/>
<path d="M413.321 230.624H415.79V221.952H413.321V230.624Z" fill="#375A64"/>
<path d="M409.759 230.624H412.227V221.952H409.759V230.624Z" fill="#375A64"/>
<path d="M406.196 230.624H408.664V221.952H406.196V230.624Z" fill="#375A64"/>
<path d="M402.642 230.624H405.11V221.952H402.642V230.624Z" fill="#375A64"/>
<path d="M399.078 230.624H401.547V221.952H399.078V230.624Z" fill="#375A64"/>
<path d="M415.785 106.528C415.794 106.528 415.812 106.368 415.829 106.074C415.847 105.772 415.865 105.336 415.874 104.767C415.883 104.197 415.892 103.504 415.927 102.694C415.972 101.894 416.016 100.969 416.23 99.9992C416.471 99.0386 416.836 98.0068 417.424 97.0462C418.004 96.0857 418.832 95.2318 419.884 94.7337C420.926 94.2267 422.129 94.0399 423.368 93.9065C424.615 93.782 425.907 93.6486 427.226 93.5152C432.51 92.9815 437.304 92.6346 440.779 92.5635C442.517 92.519 443.924 92.5368 444.896 92.5368C445.359 92.5457 445.733 92.5457 446.018 92.5546C446.277 92.5546 446.41 92.5457 446.41 92.5368C446.41 92.5279 446.277 92.5101 446.018 92.4834C445.733 92.4656 445.359 92.439 444.896 92.4034C443.924 92.3589 442.517 92.3055 440.779 92.3233C437.295 92.3322 432.492 92.6435 427.208 93.1772C425.889 93.3106 424.597 93.444 423.35 93.5774C422.102 93.7109 420.882 93.9065 419.795 94.4491C418.699 94.9739 417.834 95.8811 417.246 96.8861C416.649 97.8823 416.275 98.9407 416.052 99.9369C415.838 100.942 415.812 101.876 415.785 102.685C415.767 103.495 415.776 104.188 415.776 104.758C415.776 105.3 415.785 105.736 415.785 106.065C415.776 106.368 415.776 106.528 415.785 106.528Z" fill="#1A2E35"/>
<path d="M429.373 106.528C429.382 106.528 429.391 106.377 429.4 106.101C429.4 105.781 429.409 105.371 429.409 104.865C429.409 104.331 429.409 103.673 429.463 102.926C429.525 102.178 429.623 101.307 430.015 100.497C430.407 99.688 431.173 99.0832 432.038 98.674C432.911 98.2738 433.945 98.1137 434.987 98.3183C435.504 98.425 436.03 98.6207 436.511 98.9231C436.983 99.2344 437.438 99.6613 437.696 100.231C437.972 100.8 437.981 101.502 437.696 102.081C437.42 102.659 436.921 103.112 436.35 103.264C435.78 103.424 435.183 103.192 434.782 102.73C434.372 102.276 434.114 101.627 434.078 100.978C434.025 100.328 434.23 99.7058 434.551 99.1899C434.862 98.6651 435.272 98.2471 435.736 97.9625C436.19 97.6601 436.707 97.6156 437.215 97.5178C437.723 97.4288 438.213 97.3488 438.685 97.2865C439.638 97.162 440.53 97.0908 441.34 97.0553C442.971 96.9841 444.299 97.0108 445.208 97.0108C445.644 97.0108 445.992 97.0108 446.259 97.0108C446.5 97.0108 446.624 97.0019 446.624 96.9841C446.624 96.9752 446.5 96.9574 446.259 96.9396C445.992 96.9218 445.644 96.904 445.208 96.8774C444.29 96.8329 442.971 96.7706 441.332 96.8151C440.512 96.8418 439.612 96.8952 438.649 97.0108C438.168 97.0641 437.678 97.1442 437.161 97.2242C436.903 97.2687 436.653 97.3132 436.386 97.3666C436.119 97.4288 435.851 97.5356 435.602 97.6868C435.103 97.9892 434.657 98.4428 434.31 99.0031C433.971 99.5457 433.722 100.266 433.784 101.004C433.829 101.734 434.105 102.445 434.577 102.97C435.041 103.495 435.745 103.779 436.404 103.584C437.054 103.406 437.616 102.899 437.928 102.241C438.257 101.582 438.248 100.711 437.928 100.079C437.625 99.43 437.135 98.9675 436.627 98.6473C436.11 98.3272 435.566 98.1226 435.014 98.0158C433.918 97.8024 432.84 97.9803 431.931 98.4161C431.031 98.8519 430.238 99.4923 429.819 100.382C429.418 101.262 429.329 102.161 429.284 102.917C429.249 103.682 429.267 104.34 429.284 104.873C429.302 105.38 429.32 105.79 429.329 106.11C429.347 106.377 429.356 106.528 429.373 106.528Z" fill="#1A2E35"/>
<path d="M412.132 106.528C412.14 106.528 412.176 106.359 412.221 106.038C412.265 105.718 412.345 105.247 412.452 104.642C412.675 103.432 413.031 101.68 413.771 99.6433C414.502 97.6243 415.669 95.2762 417.665 93.524C418.636 92.6346 419.902 92.1454 421.238 91.9319C422.575 91.7096 423.992 91.7185 425.435 91.6651C431.218 91.5406 436.466 91.5673 440.262 91.3894C442.16 91.3093 443.693 91.2115 444.753 91.1225C445.261 91.0692 445.662 91.0336 445.974 91.0069C446.25 90.9713 446.402 90.9536 446.402 90.9447C446.402 90.9358 446.25 90.9358 445.974 90.9447C445.671 90.9624 445.261 90.9802 444.753 90.998C443.693 91.0425 442.16 91.1137 440.262 91.1581C436.466 91.2737 431.227 91.2026 425.435 91.336C423.992 91.3805 422.566 91.3716 421.203 91.6117C419.839 91.8252 418.52 92.35 417.514 93.2839C416.516 94.2 415.678 95.2317 415.045 96.3346C414.413 97.4286 413.949 98.5316 413.584 99.5633C412.862 101.636 412.533 103.406 412.345 104.624C412.247 105.238 412.194 105.718 412.158 106.038C412.132 106.359 412.123 106.528 412.132 106.528Z" fill="#1A2E35"/>
<path d="M399.312 86H442.858V78.5999H399.312V86Z" fill="#1A2E35"/>
<path d="M409.575 85.998H433.286V82.298H409.575V85.998Z" fill="#375A64"/>
<path d="M381.551 232.001C381.542 232.036 382.032 232.09 382.869 232.374C383.698 232.668 384.892 233.21 386.157 234.26C386.79 234.785 387.44 235.443 388.002 236.27C388.296 236.679 388.545 237.142 388.759 237.64C388.955 238.147 389.116 238.698 389.231 239.285C389.73 241.624 389.579 244.293 389.481 247.085C389.383 249.869 389.534 252.644 390.479 254.877C390.924 255.989 391.557 256.932 392.252 257.661C392.956 258.381 393.713 258.906 394.435 259.28C395.157 259.653 395.852 259.876 396.476 259.991C397.099 260.089 397.643 260.116 398.08 260.071C398.516 260.027 398.855 259.965 399.078 259.884C399.3 259.813 399.416 259.778 399.416 259.76C399.407 259.715 398.944 259.893 398.071 259.938C397.634 259.965 397.108 259.92 396.502 259.804C395.897 259.671 395.219 259.44 394.515 259.057C393.811 258.675 393.081 258.159 392.413 257.447C391.744 256.736 391.147 255.829 390.719 254.744C389.82 252.582 389.668 249.869 389.766 247.103C389.864 244.328 390.016 241.615 389.49 239.214C389.356 238.618 389.205 238.049 388.982 237.515C388.75 236.999 388.483 236.519 388.18 236.101C387.583 235.256 386.915 234.598 386.264 234.073C384.954 233.032 383.734 232.517 382.887 232.259C382.459 232.134 382.121 232.063 381.889 232.036C381.666 232.001 381.551 231.983 381.551 232.001Z" fill="#1A2E35"/>
<path d="M398.05 262.556H401.623V257.468H398.05V262.556Z" fill="#1A2E35"/>
<path d="M361.5 244.848H381.549V219.152H361.5V244.848Z" fill="#375A64"/>
<path d="M371.526 239.819C375.173 239.819 378.129 236.362 378.129 232.098C378.129 227.834 375.173 224.378 371.526 224.378C367.879 224.378 364.923 227.834 364.923 232.098C364.923 236.362 367.879 239.819 371.526 239.819Z" fill="#1A2E35"/>
<path d="M371.526 235.959C373.347 235.959 374.823 234.23 374.823 232.098C374.823 229.967 373.347 228.238 371.526 228.238C369.705 228.238 368.229 229.967 368.229 232.098C368.229 234.23 369.705 235.959 371.526 235.959Z" fill="#375A64"/>
<path d="M378.227 223.142C378.227 223.542 378.503 223.862 378.842 223.862C379.18 223.862 379.457 223.542 379.457 223.142C379.457 222.742 379.18 222.421 378.842 222.421C378.494 222.421 378.227 222.742 378.227 223.142Z" fill="#1A2E35"/>
<path d="M363.952 223.142C363.952 223.542 364.228 223.862 364.567 223.862C364.906 223.862 365.182 223.542 365.182 223.142C365.182 222.742 364.906 222.421 364.567 222.421C364.228 222.421 363.952 222.742 363.952 223.142Z" fill="#1A2E35"/>
<path d="M364.433 242.834C364.773 242.834 365.048 242.511 365.048 242.114C365.048 241.716 364.773 241.393 364.433 241.393C364.094 241.393 363.818 241.716 363.818 242.114C363.818 242.511 364.094 242.834 364.433 242.834Z" fill="#1A2E35"/>
<path d="M378.227 242.407C378.227 242.807 378.503 243.127 378.842 243.127C379.18 243.127 379.457 242.807 379.457 242.407C379.457 242.007 379.18 241.687 378.842 241.687C378.494 241.695 378.227 242.016 378.227 242.407Z" fill="#1A2E35"/>
<path d="M359.885 244.848H361.497V219.152H359.885V244.848Z" fill="#1A2E35"/>
<path d="M338.379 263.789H77.2725C70.0995 263.789 64.2898 257.99 64.2898 250.83V48.5806C64.2898 44.7738 67.3818 41.6875 71.1955 41.6875H345.347C348.662 41.6875 351.353 44.3736 351.353 47.6823V250.839C351.353 257.99 345.543 263.789 338.379 263.789Z" fill="#375A64"/>
<path d="M351.068 266.795H64.5127C57.7584 266.795 52.2874 261.334 52.2874 254.592V247.361H363.302V254.592C363.302 261.334 357.822 266.795 351.068 266.795Z" fill="#375A64"/>
<path d="M342.843 50.5107H71.9976V238.075H342.843V50.5107Z" fill="#E1E1E1"/>
<path d="M179.521 247.361L183.389 254.539H237.69L241.272 247.361H179.521Z" fill="#1A2E35"/>
<path d="M335.465 61.3706H80.0349V238.066H335.465V61.3706Z" fill="#1A2E35"/>
<path d="M99.6293 232.881C99.4956 232.881 99.3887 195.249 99.3887 148.838C99.3887 102.409 99.4956 64.7861 99.6293 64.7861C99.7629 64.7861 99.8698 102.409 99.8698 148.838C99.8698 195.249 99.7629 232.881 99.6293 232.881Z" fill="#E1E1E1"/>
<path d="M94.479 80.0219C94.479 80.1731 92.6167 80.3065 90.3266 80.3065C88.0366 80.3065 86.1743 80.182 86.1743 80.0219C86.1743 79.8707 88.0277 79.7373 90.3266 79.7373C92.6167 79.7462 94.479 79.8707 94.479 80.0219Z" fill="#E1E1E1"/>
<path d="M94.7998 70.4873C94.7998 70.6385 92.9464 70.7719 90.6474 70.7719C88.3574 70.7719 86.4951 70.6473 86.4951 70.4873C86.4951 70.336 88.3485 70.2026 90.6474 70.2026C92.9375 70.2026 94.7998 70.3272 94.7998 70.4873Z" fill="#E1E1E1"/>
<path d="M94.479 90.3041C94.479 90.4553 92.6167 90.5888 90.3266 90.5888C88.0366 90.5888 86.1743 90.4642 86.1743 90.3041C86.1743 90.1529 88.0277 90.0195 90.3266 90.0195C92.6167 90.0284 94.479 90.1529 94.479 90.3041Z" fill="#E1E1E1"/>
<path d="M94.479 100.586C94.479 100.737 92.6167 100.87 90.3266 100.87C88.0366 100.87 86.1743 100.746 86.1743 100.586C86.1743 100.435 88.0277 100.31 90.3266 100.31C92.6167 100.301 94.479 100.435 94.479 100.586Z" fill="#E1E1E1"/>
<path d="M94.479 110.868C94.479 111.019 92.6167 111.152 90.3266 111.152C88.0366 111.152 86.1743 111.028 86.1743 110.868C86.1743 110.716 88.0277 110.583 90.3266 110.583C92.6167 110.583 94.479 110.716 94.479 110.868Z" fill="#E1E1E1"/>
<path d="M94.479 121.15C94.479 121.301 92.6167 121.434 90.3266 121.434C88.0366 121.434 86.1743 121.31 86.1743 121.15C86.1743 120.999 88.0277 120.865 90.3266 120.865C92.6167 120.865 94.479 120.99 94.479 121.15Z" fill="#E1E1E1"/>
<path d="M94.479 131.432C94.479 131.583 92.6167 131.716 90.3266 131.716C88.0366 131.716 86.1743 131.592 86.1743 131.432C86.1743 131.28 88.0277 131.147 90.3266 131.147C92.6167 131.147 94.479 131.272 94.479 131.432Z" fill="#E1E1E1"/>
<path d="M94.479 141.713C94.479 141.865 92.6167 141.998 90.3266 141.998C88.0366 141.998 86.1743 141.873 86.1743 141.713C86.1743 141.553 88.0277 141.429 90.3266 141.429C92.6167 141.429 94.479 141.553 94.479 141.713Z" fill="#E1E1E1"/>
<path d="M94.479 151.995C94.479 152.147 92.6167 152.28 90.3266 152.28C88.0366 152.28 86.1743 152.156 86.1743 151.995C86.1743 151.844 88.0277 151.72 90.3266 151.72C92.6167 151.711 94.479 151.835 94.479 151.995Z" fill="#E1E1E1"/>
<path d="M94.479 162.277C94.479 162.428 92.6167 162.562 90.3266 162.562C88.0366 162.562 86.1743 162.437 86.1743 162.277C86.1743 162.126 88.0277 161.993 90.3266 161.993C92.6167 161.993 94.479 162.117 94.479 162.277Z" fill="#E1E1E1"/>
<path d="M94.479 172.55C94.479 172.701 92.6167 172.826 90.3266 172.826C88.0366 172.826 86.1743 172.701 86.1743 172.55C86.1743 172.399 88.0277 172.266 90.3266 172.266C92.6167 172.275 94.479 172.399 94.479 172.55Z" fill="#E1E1E1"/>
<path d="M94.479 182.832C94.479 182.983 92.6167 183.117 90.3266 183.117C88.0366 183.117 86.1743 182.992 86.1743 182.832C86.1743 182.672 88.0277 182.547 90.3266 182.547C92.6167 182.556 94.479 182.681 94.479 182.832Z" fill="#E1E1E1"/>
<path d="M94.479 193.114C94.479 193.265 92.6167 193.399 90.3266 193.399C88.0366 193.399 86.1743 193.274 86.1743 193.114C86.1743 192.963 88.0277 192.83 90.3266 192.83C92.6167 192.838 94.479 192.963 94.479 193.114Z" fill="#E1E1E1"/>
<path d="M94.479 203.396C94.479 203.547 92.6167 203.681 90.3266 203.681C88.0366 203.681 86.1743 203.556 86.1743 203.396C86.1743 203.245 88.0277 203.111 90.3266 203.111C92.6167 203.12 94.479 203.245 94.479 203.396Z" fill="#E1E1E1"/>
<path d="M94.479 213.678C94.479 213.829 92.6167 213.962 90.3266 213.962C88.0366 213.962 86.1743 213.838 86.1743 213.678C86.1743 213.518 88.0277 213.393 90.3266 213.393C92.6167 213.402 94.479 213.526 94.479 213.678Z" fill="#E1E1E1"/>
<path d="M94.479 223.959C94.479 224.111 92.6167 224.244 90.3266 224.244C88.0366 224.244 86.1743 224.12 86.1743 223.959C86.1743 223.808 88.0277 223.675 90.3266 223.675C92.6167 223.684 94.479 223.808 94.479 223.959Z" fill="#E1E1E1"/>
<path d="M127.742 223.959C127.742 224.111 122.922 224.244 116.978 224.244C111.026 224.244 106.205 224.12 106.205 223.959C106.205 223.808 111.026 223.675 116.978 223.675C122.922 223.684 127.742 223.808 127.742 223.959Z" fill="#FF735D"/>
<path d="M135.182 78.4834C135.182 78.6346 130.362 78.768 124.418 78.768C118.466 78.768 113.646 78.6435 113.646 78.4834C113.646 78.3321 118.466 78.1987 124.418 78.1987C130.362 78.2076 135.182 78.3321 135.182 78.4834Z" fill="#FF735D"/>
<path d="M157.735 100.586C157.735 100.737 148.718 100.87 137.588 100.87C126.459 100.87 117.441 100.746 117.441 100.586C117.441 100.435 126.459 100.31 137.588 100.31C148.709 100.301 157.735 100.435 157.735 100.586Z" fill="#FF735D"/>
<path d="M204.329 100.586C204.329 100.737 195.311 100.87 184.182 100.87C173.052 100.87 164.035 100.746 164.035 100.586C164.035 100.435 173.052 100.31 184.182 100.31C195.302 100.301 204.329 100.435 204.329 100.586Z" fill="#E1E1E1"/>
<path d="M186.516 110.868C186.516 111.019 173.222 111.152 156.826 111.152C140.422 111.152 127.136 111.028 127.136 110.868C127.136 110.716 140.431 110.583 156.826 110.583C173.222 110.583 186.516 110.716 186.516 110.868Z" fill="#E1E1E1"/>
<path d="M186.516 121.15C186.516 121.301 173.222 121.434 156.826 121.434C140.422 121.434 127.136 121.31 127.136 121.15C127.136 120.999 140.431 120.865 156.826 120.865C173.222 120.865 186.516 120.99 186.516 121.15Z" fill="#E1E1E1"/>
<path d="M227.389 151.995C227.389 152.147 214.094 152.28 197.699 152.28C181.295 152.28 168.009 152.156 168.009 151.995C168.009 151.844 181.304 151.72 197.699 151.72C214.094 151.711 227.389 151.835 227.389 151.995Z" fill="#E1E1E1"/>
<path d="M209.755 131.432C209.755 131.583 196.46 131.716 180.065 131.716C163.661 131.716 150.375 131.592 150.375 131.432C150.375 131.28 163.67 131.147 180.065 131.147C196.46 131.147 209.755 131.272 209.755 131.432Z" fill="#E1E1E1"/>
<path d="M282.323 131.432C282.323 131.583 269.028 131.716 252.633 131.716C236.228 131.716 222.943 131.592 222.943 131.432C222.943 131.28 236.237 131.147 252.633 131.147C269.028 131.147 282.323 131.272 282.323 131.432Z" fill="#E1E1E1"/>
<path d="M257.088 110.868C257.088 111.019 243.793 111.152 227.398 111.152C210.993 111.152 197.708 111.028 197.708 110.868C197.708 110.716 211.002 110.583 227.398 110.583C243.793 110.583 257.088 110.716 257.088 110.868Z" fill="#FAFAFA"/>
<path d="M298.103 151.995C298.103 152.147 284.809 152.28 268.413 152.28C252.009 152.28 238.723 152.156 238.723 151.995C238.723 151.844 252.018 151.72 268.413 151.72C284.809 151.711 298.103 151.835 298.103 151.995Z" fill="#FAFAFA"/>
<path d="M289.914 121.15C289.914 121.301 269.269 121.434 243.811 121.434C218.345 121.434 197.708 121.31 197.708 121.15C197.708 120.999 218.345 120.865 243.811 120.865C269.269 120.865 289.914 120.99 289.914 121.15Z" fill="#375A64"/>
<path d="M127.742 213.678C127.742 213.829 122.922 213.962 116.978 213.962C111.026 213.962 106.205 213.838 106.205 213.678C106.205 213.518 111.026 213.393 116.978 213.393C122.922 213.402 127.742 213.526 127.742 213.678Z" fill="#FAFAFA"/>
<path d="M138.408 131.432C138.408 131.583 133.587 131.716 127.644 131.716C121.692 131.716 116.871 131.592 116.871 131.432C116.871 131.28 121.692 131.147 127.644 131.147C133.587 131.147 138.408 131.272 138.408 131.432Z" fill="#FAFAFA"/>
<path d="M311.015 131.432C311.015 131.583 306.194 131.716 300.251 131.716C294.298 131.716 289.478 131.592 289.478 131.432C289.478 131.28 294.298 131.147 300.251 131.147C306.194 131.147 311.015 131.272 311.015 131.432Z" fill="#FF735D"/>
<path d="M157.735 172.497C157.735 172.648 148.718 172.782 137.588 172.782C126.459 172.782 117.441 172.657 117.441 172.497C117.441 172.346 126.459 172.212 137.588 172.212C148.709 172.212 157.735 172.337 157.735 172.497Z" fill="#FF735D"/>
<path d="M204.329 172.497C204.329 172.648 195.311 172.782 184.182 172.782C173.052 172.782 164.035 172.657 164.035 172.497C164.035 172.346 173.052 172.212 184.182 172.212C195.302 172.212 204.329 172.337 204.329 172.497Z" fill="#E1E1E1"/>
<path d="M186.516 182.779C186.516 182.93 173.222 183.063 156.826 183.063C140.422 183.063 127.136 182.939 127.136 182.779C127.136 182.628 140.431 182.494 156.826 182.494C173.222 182.494 186.516 182.619 186.516 182.779Z" fill="#E1E1E1"/>
<path d="M186.516 193.06C186.516 193.212 173.222 193.345 156.826 193.345C140.422 193.345 127.136 193.221 127.136 193.06C127.136 192.909 140.431 192.776 156.826 192.776C173.222 192.776 186.516 192.9 186.516 193.06Z" fill="#E1E1E1"/>
<path d="M209.755 203.333C209.755 203.485 196.46 203.618 180.065 203.618C163.661 203.618 150.375 203.494 150.375 203.333C150.375 203.182 163.67 203.049 180.065 203.049C196.46 203.058 209.755 203.182 209.755 203.333Z" fill="#E1E1E1"/>
<path d="M282.323 203.333C282.323 203.485 269.028 203.618 252.633 203.618C236.228 203.618 222.943 203.494 222.943 203.333C222.943 203.182 236.237 203.049 252.633 203.049C269.028 203.058 282.323 203.182 282.323 203.333Z" fill="#E1E1E1"/>
<path d="M197.182 213.42C197.182 213.571 183.888 213.704 167.492 213.704C151.088 213.704 137.802 213.58 137.802 213.42C137.802 213.269 151.097 213.135 167.492 213.135C183.888 213.135 197.182 213.269 197.182 213.42Z" fill="#E1E1E1"/>
<path d="M176.634 87.6181C176.634 87.7693 163.34 87.9027 146.944 87.9027C130.54 87.9027 117.254 87.7782 117.254 87.6181C117.254 87.4669 130.549 87.3335 146.944 87.3335C163.34 87.3424 176.634 87.4669 176.634 87.6181Z" fill="#E1E1E1"/>
<path d="M257.088 182.779C257.088 182.93 243.793 183.063 227.398 183.063C210.993 183.063 197.708 182.939 197.708 182.779C197.708 182.628 211.002 182.494 227.398 182.494C243.793 182.494 257.088 182.619 257.088 182.779Z" fill="#FAFAFA"/>
<path d="M289.914 193.06C289.914 193.212 269.269 193.345 243.811 193.345C218.345 193.345 197.708 193.221 197.708 193.06C197.708 192.909 218.345 192.776 243.811 192.776C269.269 192.776 289.914 192.9 289.914 193.06Z" fill="#375A64"/>
<path d="M138.408 203.333C138.408 203.485 133.587 203.618 127.644 203.618C121.692 203.618 116.871 203.494 116.871 203.333C116.871 203.182 121.692 203.049 127.644 203.049C133.587 203.058 138.408 203.182 138.408 203.333Z" fill="#FAFAFA"/>
<path d="M311.015 203.333C311.015 203.485 306.194 203.618 300.251 203.618C294.298 203.618 289.478 203.494 289.478 203.333C289.478 203.182 294.298 203.049 300.251 203.049C306.194 203.058 311.015 203.182 311.015 203.333Z" fill="#FF735D"/>
<path d="M229.278 12.1318C229.278 12.1318 229.269 11.8739 229.26 11.3758C229.26 10.8688 229.251 10.1217 229.242 9.1522C229.233 8.17382 229.233 6.96418 229.224 5.54109C229.206 4.82954 229.278 4.02904 229.554 3.26413C229.839 2.49921 230.285 1.74319 230.926 1.18285C231.559 0.604712 232.379 0.21336 233.279 0.142205C234.17 0.106627 235.087 0.124416 236.05 0.115521C237.983 0.106627 240.077 0.106627 242.323 0.0977327C246.832 0.0888384 251.955 0.079944 257.622 0.0710496C280.309 0.0532609 311.629 0.0354722 346.229 0.00878906C363.533 0.0176834 380.018 0.0176834 395.014 0.0265778C398.766 0.0265778 402.419 0.0354722 405.965 0.0354722C406.411 0.0354722 406.848 0.0354722 407.293 0.0354722C407.73 0.0443665 408.184 0.0176834 408.63 0.124416C409.521 0.320092 410.34 0.84486 410.973 1.58309C411.597 2.33022 412.025 3.28192 412.176 4.29587C412.265 4.80285 412.247 5.31873 412.256 5.79902C412.256 6.28821 412.256 6.7774 412.256 7.26659C412.247 15.067 412.238 22.3337 412.238 28.9688C412.212 42.2304 412.194 52.957 412.185 60.3926C412.167 64.0927 412.158 66.9745 412.149 68.9312C412.14 69.9007 412.132 70.639 412.132 71.1548C412.123 71.6529 412.114 71.9109 412.114 71.9109C412.114 71.9109 412.105 71.6529 412.096 71.1548C412.096 70.6479 412.087 69.9007 412.078 68.9312C412.069 66.9656 412.06 64.0927 412.042 60.3926C412.034 52.9659 412.007 42.2304 411.989 28.9688C411.98 22.3337 411.971 15.067 411.971 7.26659C411.971 6.7774 411.971 6.28821 411.971 5.79902C411.971 5.30094 411.98 4.82064 411.9 4.35813C411.748 3.41533 411.356 2.52589 410.768 1.83213C410.18 1.14727 409.414 0.658078 408.585 0.480191C408.175 0.382353 407.748 0.400141 407.302 0.400141C406.865 0.400141 406.42 0.400141 405.974 0.400141C402.419 0.400141 398.766 0.409036 395.023 0.409036C380.027 0.41793 363.542 0.41793 346.238 0.426824C311.638 0.400141 280.317 0.382353 257.631 0.364564C251.964 0.355669 246.832 0.346775 242.332 0.337881C240.077 0.328986 237.983 0.328986 236.059 0.320092C235.096 0.328986 234.17 0.293409 233.296 0.328986C232.432 0.391247 231.639 0.76481 231.015 1.31626C230.383 1.85882 229.946 2.58816 229.67 3.32639C229.402 4.08241 229.322 4.83843 229.331 5.54998C229.322 6.97308 229.322 8.18271 229.313 9.16109C229.304 10.1306 229.296 10.8688 229.296 11.3847C229.296 11.8739 229.278 12.1318 229.278 12.1318Z" fill="#1A2E35"/>
<path d="M413.842 71.9017C413.842 73.0135 413.076 73.9118 412.122 73.9118C411.178 73.9118 410.403 73.0135 410.403 71.9017C410.403 70.7899 411.169 69.8916 412.122 69.8916C413.076 69.8916 413.842 70.7899 413.842 71.9017Z" fill="#1A2E35"/>
<path d="M230.997 12.1317C230.997 13.2435 230.231 14.1418 229.278 14.1418C228.333 14.1418 227.558 13.2435 227.558 12.1317C227.558 11.0199 228.324 10.1216 229.278 10.1216C230.231 10.1216 230.997 11.0199 230.997 12.1317Z" fill="#1A2E35"/>
<path d="M140.743 20.6611V192.589H272.806H289.237H384.188V20.6611H140.743Z" fill="#FAFAFA"/>
<path d="M384.179 20.6611H140.743V33.3712H384.179V20.6611Z" fill="#E1E1E1"/>
<path d="M146.989 28.8883C147.766 28.8883 148.397 28.1476 148.397 27.2339C148.397 26.3203 147.766 25.5796 146.989 25.5796C146.211 25.5796 145.581 26.3203 145.581 27.2339C145.581 28.1476 146.211 28.8883 146.989 28.8883Z" fill="#1A2E35"/>
<path d="M153.654 27.2339C153.654 28.1501 153.021 28.8883 152.246 28.8883C151.471 28.8883 150.838 28.1501 150.838 27.2339C150.838 26.3178 151.471 25.5796 152.246 25.5796C153.021 25.5885 153.654 26.3267 153.654 27.2339Z" fill="#1A2E35"/>
<path d="M158.902 27.2339C158.902 28.1501 158.27 28.8883 157.495 28.8883C156.719 28.8883 156.087 28.1501 156.087 27.2339C156.087 26.3178 156.719 25.5796 157.495 25.5796C158.27 25.5796 158.902 26.3267 158.902 27.2339Z" fill="#1A2E35"/>
<path d="M258.745 48.0203C258.745 48.1181 253.773 48.1892 247.652 48.1892C241.521 48.1892 236.558 48.1092 236.558 48.0203C236.558 47.9313 241.521 47.8513 247.652 47.8513C253.782 47.8424 258.745 47.9224 258.745 48.0203Z" fill="#1A2E35"/>
<path d="M288.266 48.0203C288.266 48.1181 283.294 48.1892 277.172 48.1892C271.042 48.1892 266.079 48.1092 266.079 48.0203C266.079 47.9313 271.042 47.8513 277.172 47.8513C283.294 47.8424 288.266 47.9224 288.266 48.0203Z" fill="#FF735D"/>
<path d="M317.778 48.0203C317.778 48.1181 312.806 48.1892 306.684 48.1892C300.554 48.1892 295.591 48.1092 295.591 48.0203C295.591 47.9313 300.554 47.8513 306.684 47.8513C312.815 47.8424 317.778 47.9224 317.778 48.0203Z" fill="#1A2E35"/>
<path d="M347.557 48.0203C347.557 48.1181 342.585 48.1892 336.463 48.1892C330.333 48.1892 325.37 48.1092 325.37 48.0203C325.37 47.9313 330.333 47.8513 336.463 47.8513C342.585 47.8424 347.557 47.9224 347.557 48.0203Z" fill="#1A2E35"/>
<path d="M373.424 52.1472C373.424 52.1294 373.612 52.1383 373.95 52.0404C374.28 51.9426 374.788 51.7113 375.224 51.1243C375.438 50.8308 375.634 50.4572 375.732 50.0036C375.848 49.5589 375.812 49.043 375.812 48.4738C375.75 47.3887 376.035 45.9745 375.189 44.9338C374.806 44.4269 374.235 44.0711 373.612 44.0266C372.97 44.0088 372.275 44.0266 371.571 44.0266C370.154 44.0355 368.639 44.0355 367.053 44.0444C363.872 44.0444 360.37 44.0533 356.699 44.0622C355.826 44.0533 355.006 44.667 354.623 45.5476C354.427 45.9923 354.356 46.4726 354.365 46.9795C354.365 47.4954 354.365 48.0024 354.365 48.5094C354.374 49.0253 354.338 49.5144 354.445 49.9592C354.543 50.4128 354.757 50.8219 355.024 51.1599C355.3 51.489 355.639 51.7291 356.004 51.8626C356.37 52.0049 356.753 51.9871 357.163 51.9871C360.335 52.0049 363.204 52.0138 365.619 52.0227C368.007 52.0493 369.949 52.0671 371.322 52.076C371.972 52.0938 372.489 52.1027 372.872 52.1116C373.032 52.1205 373.166 52.1205 373.273 52.1294C373.38 52.1294 373.424 52.1383 373.424 52.1472C373.424 52.1561 373.38 52.1561 373.291 52.165C373.184 52.1739 373.05 52.1739 372.89 52.1827C372.516 52.1916 371.99 52.2005 371.339 52.2183C369.967 52.2272 368.025 52.2539 365.637 52.2717C363.222 52.2806 360.362 52.2984 357.18 52.3073C356.797 52.3073 356.361 52.334 355.942 52.1739C355.532 52.0227 355.149 51.7558 354.837 51.3912C354.534 51.0176 354.293 50.564 354.178 50.0481C354.115 49.7991 354.097 49.5322 354.088 49.2654C354.088 49.0164 354.088 48.7584 354.088 48.5094C354.088 48.0024 354.088 47.4954 354.088 46.9795C354.071 46.4548 354.151 45.8855 354.374 45.3963C354.801 44.4002 355.728 43.7153 356.708 43.7242C360.379 43.7331 363.872 43.7331 367.062 43.742C368.648 43.7509 370.163 43.7509 371.58 43.7598C372.293 43.7687 372.961 43.7509 373.638 43.7776C374.324 43.8398 374.948 44.2401 375.358 44.7915C375.768 45.343 375.991 46.0367 376 46.6949C376 47.3264 375.991 47.9312 375.991 48.4916C375.982 49.043 376.008 49.5856 375.884 50.0659C375.768 50.5462 375.554 50.9286 375.331 51.2311C374.859 51.827 374.324 52.0493 373.986 52.1294C373.612 52.1828 373.424 52.1472 373.424 52.1472Z" fill="#1A2E35"/>
<path d="M190.25 54.1928H165.559C162.672 54.1928 160.328 51.8536 160.328 48.9718V48.616C160.328 45.7342 162.672 43.395 165.559 43.395H190.25C193.137 43.395 195.48 45.7342 195.48 48.616V48.9718C195.48 51.8625 193.137 54.1928 190.25 54.1928Z" fill="#E1E1E1"/>
<path d="M213.177 79.2041H161.397V137.818H213.177V79.2041Z" fill="#FF735D"/>
<g opacity="0.3">
<g opacity="0.3">
<g opacity="0.3">
<g opacity="0.3">
<path opacity="0.3" d="M165.416 132.793L179.735 102.641L191.453 121.915L198.572 111.677L209.167 132.793H165.416Z" fill="black"/>
</g>
</g>
</g>
</g>
<g opacity="0.3">
<g opacity="0.3">
<g opacity="0.3">
<g opacity="0.3">
<path opacity="0.3" d="M196.443 96.7704C196.443 99.1807 194.776 101.129 192.718 101.129C190.66 101.129 188.993 99.1807 188.993 96.7704C188.993 94.36 190.66 92.4121 192.718 92.4121C194.776 92.4121 196.443 94.36 196.443 96.7704Z" fill="black"/>
</g>
</g>
</g>
</g>
<path opacity="0.3" d="M209.167 83.8111C196.496 83.8023 181.473 83.7845 165.425 83.7667C165.47 83.7044 164.953 84.3181 165.176 84.0602V84.0691V84.0958V84.1491V84.2559V84.4693V84.8874V85.7234V87.3867C165.176 88.4985 165.176 89.6014 165.176 90.6954C165.176 92.8923 165.176 95.0714 165.176 97.2238C165.176 101.529 165.176 105.745 165.185 109.854C165.193 118.063 165.202 125.819 165.211 132.961V133.21H165.425C178.541 133.157 189.493 133.113 197.191 133.086C200.996 133.059 203.99 133.033 206.066 133.024C207.064 133.015 207.839 132.997 208.392 132.997C208.641 132.988 208.828 132.988 208.98 132.979C209.114 132.97 209.176 132.97 209.167 132.961C209.167 132.953 209.087 132.953 208.953 132.944C208.793 132.944 208.597 132.935 208.338 132.926C207.777 132.917 206.993 132.908 205.968 132.899C203.883 132.881 200.871 132.864 197.049 132.837C189.421 132.81 178.595 132.766 165.63 132.712C165.639 125.641 165.648 117.966 165.657 109.854C165.657 105.745 165.657 101.529 165.666 97.2238C165.666 95.0714 165.666 92.8923 165.666 90.6954C165.666 89.6014 165.666 88.4985 165.666 87.3867V85.7234V84.8874V84.4693V84.3448C181.544 84.327 196.398 84.3181 208.953 84.3003C208.998 98.8248 209.033 110.93 209.06 119.442C209.087 123.711 209.105 127.073 209.114 129.395C209.123 130.524 209.131 131.405 209.14 132.036C209.149 132.321 209.149 132.543 209.149 132.721C209.149 132.872 209.158 132.961 209.158 132.961C209.167 132.97 209.167 132.89 209.167 132.748C209.167 132.579 209.176 132.365 209.176 132.09C209.185 131.476 209.194 130.613 209.203 129.502C209.212 127.189 209.238 123.845 209.256 119.602C209.283 111.001 209.319 98.7626 209.363 84.0602V83.8111H209.167Z" fill="black"/>
<path d="M206.69 146.81C206.69 146.926 197.984 147.015 187.247 147.015C176.51 147.015 167.804 146.926 167.804 146.81C167.804 146.694 176.51 146.605 187.247 146.605C197.984 146.605 206.69 146.703 206.69 146.81Z" fill="#1A2E35"/>
<path d="M214.478 153.605C214.478 153.721 202.6 153.81 187.951 153.81C173.302 153.81 161.424 153.721 161.424 153.605C161.424 153.49 173.302 153.401 187.951 153.401C202.6 153.401 214.478 153.49 214.478 153.605Z" fill="#1A2E35"/>
<path d="M214.478 160.178C214.478 160.294 202.6 160.383 187.951 160.383C173.302 160.383 161.424 160.294 161.424 160.178C161.424 160.063 173.302 159.974 187.951 159.974C202.6 159.974 214.478 160.063 214.478 160.178Z" fill="#1A2E35"/>
<path d="M214.478 166.743C214.478 166.858 202.6 166.947 187.951 166.947C173.302 166.947 161.424 166.858 161.424 166.743C161.424 166.627 173.302 166.538 187.951 166.538C202.6 166.538 214.478 166.636 214.478 166.743Z" fill="#1A2E35"/>
<path d="M183.318 173.315C183.318 173.431 178.417 173.52 172.375 173.52C166.325 173.52 161.424 173.431 161.424 173.315C161.424 173.2 166.325 173.111 172.375 173.111C178.417 173.111 183.318 173.209 183.318 173.315Z" fill="#1A2E35"/>
<path d="M288.507 79.2041H236.727V137.818H288.507V79.2041Z" fill="#FF735D"/>
<g opacity="0.3">
<g opacity="0.3">
<g opacity="0.3">
<g opacity="0.3">
<path opacity="0.3" d="M240.746 132.793L255.065 102.641L266.783 121.915L273.902 111.677L284.497 132.793H240.746Z" fill="black"/>
</g>
</g>
</g>
</g>
<g opacity="0.3">
<g opacity="0.3">
<g opacity="0.3">
<g opacity="0.3">
<path opacity="0.3" d="M271.773 96.7704C271.773 99.1807 270.106 101.129 268.048 101.129C265.99 101.129 264.323 99.1807 264.323 96.7704C264.323 94.36 265.99 92.4121 268.048 92.4121C270.106 92.4121 271.773 94.36 271.773 96.7704Z" fill="black"/>
</g>
</g>
</g>
</g>
<path opacity="0.3" d="M284.497 83.8111C271.826 83.8023 256.803 83.7845 240.755 83.7667C240.799 83.7044 240.283 84.3181 240.505 84.0602V84.0691V84.0958V84.1491V84.2559V84.4693V84.8874V85.7234V87.3867C240.505 88.4985 240.505 89.6014 240.505 90.6954C240.505 92.8923 240.505 95.0714 240.505 97.2238C240.505 101.529 240.505 105.745 240.514 109.854C240.523 118.063 240.532 125.819 240.541 132.961V133.21H240.755C253.871 133.157 264.822 133.113 272.521 133.086C276.326 133.059 279.32 133.033 281.396 133.024C282.394 133.015 283.169 132.997 283.722 132.997C283.971 132.988 284.158 132.988 284.31 132.979C284.443 132.97 284.506 132.97 284.497 132.961C284.497 132.953 284.417 132.953 284.283 132.944C284.123 132.944 283.927 132.935 283.668 132.926C283.107 132.917 282.323 132.908 281.298 132.899C279.213 132.881 276.201 132.864 272.378 132.837C264.751 132.81 253.925 132.766 240.96 132.712C240.969 125.641 240.978 117.966 240.987 109.854C240.987 105.745 240.986 101.529 240.995 97.2238C240.995 95.0714 240.995 92.8923 240.995 90.6954C240.995 89.6014 240.995 88.4985 240.995 87.3867V85.7234V84.8874V84.4693V84.3448C256.874 84.327 271.728 84.3181 284.283 84.3003C284.328 98.8248 284.363 110.93 284.39 119.442C284.417 123.711 284.434 127.073 284.443 129.395C284.452 130.524 284.461 131.405 284.47 132.036C284.479 132.321 284.479 132.543 284.479 132.721C284.479 132.872 284.488 132.961 284.488 132.961C284.497 132.97 284.497 132.89 284.497 132.748C284.497 132.579 284.506 132.365 284.506 132.09C284.515 131.476 284.524 130.613 284.532 129.502C284.541 127.189 284.568 123.845 284.586 119.602C284.613 111.001 284.648 98.7626 284.693 84.0602V83.8111H284.497Z" fill="black"/>
<path d="M282.02 146.81C282.02 146.926 273.314 147.015 262.577 147.015C251.84 147.015 243.134 146.926 243.134 146.81C243.134 146.694 251.84 146.605 262.577 146.605C273.314 146.605 282.02 146.703 282.02 146.81Z" fill="#1A2E35"/>
<path d="M289.808 153.605C289.808 153.721 277.93 153.81 263.281 153.81C248.632 153.81 236.754 153.721 236.754 153.605C236.754 153.49 248.632 153.401 263.281 153.401C277.93 153.401 289.808 153.49 289.808 153.605Z" fill="#1A2E35"/>
<path d="M289.808 160.178C289.808 160.294 277.93 160.383 263.281 160.383C248.632 160.383 236.754 160.294 236.754 160.178C236.754 160.063 248.632 159.974 263.281 159.974C277.93 159.974 289.808 160.063 289.808 160.178Z" fill="#1A2E35"/>
<path d="M289.808 166.743C289.808 166.858 277.93 166.947 263.281 166.947C248.632 166.947 236.754 166.858 236.754 166.743C236.754 166.627 248.632 166.538 263.281 166.538C277.93 166.538 289.808 166.636 289.808 166.743Z" fill="#1A2E35"/>
<path d="M258.647 173.315C258.647 173.431 253.746 173.52 247.705 173.52C241.655 173.52 236.754 173.431 236.754 173.315C236.754 173.2 241.655 173.111 247.705 173.111C253.746 173.111 258.647 173.209 258.647 173.315Z" fill="#1A2E35"/>
<path d="M362.438 79.2041H310.658V137.818H362.438V79.2041Z" fill="#FF735D"/>
<g opacity="0.3">
<g opacity="0.3">
<g opacity="0.3">
<g opacity="0.3">
<path opacity="0.3" d="M314.677 132.793L328.996 102.641L340.714 121.915L347.833 111.677L358.428 132.793H314.677Z" fill="black"/>
</g>
</g>
</g>
</g>
<g opacity="0.3">
<g opacity="0.3">
<g opacity="0.3">
<g opacity="0.3">
<path opacity="0.3" d="M345.704 96.7704C345.704 99.1807 344.037 101.129 341.979 101.129C339.921 101.129 338.254 99.1807 338.254 96.7704C338.254 94.36 339.921 92.4121 341.979 92.4121C344.037 92.4121 345.704 94.36 345.704 96.7704Z" fill="black"/>
</g>
</g>
</g>
</g>
<path opacity="0.3" d="M358.428 83.8111C345.757 83.8023 330.734 83.7845 314.686 83.7667C314.73 83.7044 314.214 84.3181 314.436 84.0602V84.0691V84.0958V84.1491V84.2559V84.4693V84.8874V85.7234V87.3867C314.436 88.4985 314.436 89.6014 314.436 90.6954C314.436 92.8923 314.436 95.0714 314.436 97.2238C314.436 101.529 314.436 105.745 314.445 109.854C314.454 118.063 314.463 125.819 314.472 132.961V133.21H314.686C327.802 133.157 338.753 133.113 346.452 133.086C350.257 133.059 353.251 133.033 355.327 133.024C356.325 133.015 357.1 132.997 357.653 132.997C357.902 132.988 358.089 132.988 358.241 132.979C358.374 132.97 358.437 132.97 358.428 132.961C358.428 132.953 358.348 132.953 358.214 132.944C358.054 132.944 357.858 132.935 357.599 132.926C357.038 132.917 356.254 132.908 355.229 132.899C353.144 132.881 350.132 132.864 346.309 132.837C338.682 132.81 327.856 132.766 314.891 132.712C314.9 125.641 314.909 117.966 314.918 109.854C314.918 105.745 314.918 101.529 314.926 97.2238C314.926 95.0714 314.926 92.8923 314.926 90.6954C314.926 89.6014 314.926 88.4985 314.926 87.3867V85.7234V84.8874V84.4693V84.3448C330.805 84.327 345.659 84.3181 358.214 84.3003C358.259 98.8248 358.294 110.93 358.321 119.442C358.348 123.711 358.365 127.073 358.374 129.395C358.383 130.524 358.392 131.405 358.401 132.036C358.41 132.321 358.41 132.543 358.41 132.721C358.41 132.872 358.419 132.961 358.419 132.961C358.419 132.97 358.428 132.89 358.428 132.748C358.428 132.579 358.437 132.365 358.437 132.09C358.446 131.476 358.455 130.613 358.463 129.502C358.472 127.189 358.499 123.845 358.517 119.602C358.544 111.001 358.579 98.7626 358.624 84.0602V83.8111H358.428Z" fill="black"/>
<path d="M355.951 146.81C355.951 146.926 347.245 147.015 336.508 147.015C325.771 147.015 317.065 146.926 317.065 146.81C317.065 146.694 325.771 146.605 336.508 146.605C347.245 146.605 355.951 146.703 355.951 146.81Z" fill="#1A2E35"/>
<path d="M363.739 153.605C363.739 153.721 351.861 153.81 337.212 153.81C322.563 153.81 310.685 153.721 310.685 153.605C310.685 153.49 322.563 153.401 337.212 153.401C351.861 153.401 363.739 153.49 363.739 153.605Z" fill="#1A2E35"/>
<path d="M363.739 160.178C363.739 160.294 351.861 160.383 337.212 160.383C322.563 160.383 310.685 160.294 310.685 160.178C310.685 160.063 322.563 159.974 337.212 159.974C351.861 159.974 363.739 160.063 363.739 160.178Z" fill="#1A2E35"/>
<path d="M363.739 166.743C363.739 166.858 351.861 166.947 337.212 166.947C322.563 166.947 310.685 166.858 310.685 166.743C310.685 166.627 322.563 166.538 337.212 166.538C351.861 166.538 363.739 166.636 363.739 166.743Z" fill="#1A2E35"/>
<path d="M332.578 173.315C332.578 173.431 327.678 173.52 321.636 173.52C315.586 173.52 310.685 173.431 310.685 173.315C310.685 173.2 315.586 173.111 321.636 173.111C327.678 173.111 332.578 173.209 332.578 173.315Z" fill="#1A2E35"/>
<path d="M384.188 61.5483C384.188 61.6639 329.736 61.7529 262.577 61.7529C195.4 61.7529 140.957 61.6639 140.957 61.5483C140.957 61.4327 195.4 61.3438 262.577 61.3438C329.736 61.3438 384.188 61.4416 384.188 61.5483Z" fill="#E1E1E1"/>
<path d="M140.742 20.6614C142.204 20.6614 241.352 20.5813 384.179 20.4746H384.34V20.6614C384.34 73.5562 384.348 131.672 384.348 192.572V192.59V192.794H384.17C291.572 192.776 206.511 192.759 140.734 192.75H140.6V192.59C140.698 87.2624 140.742 21.9422 140.742 20.6614C140.742 21.9422 140.796 87.2624 140.876 192.598L140.742 192.438C206.52 192.429 291.581 192.412 384.179 192.394L384.001 192.598V192.581C384.01 131.681 384.01 73.5651 384.01 20.6703L384.17 20.8571C241.352 20.7325 142.204 20.6614 140.742 20.6614Z" fill="#1A2E35"/>
<path d="M180.591 110.291L165.737 133.416H209.398L196.345 115.182L188.693 122.743L180.591 110.291Z" fill="#B35041"/>
<path d="M256.33 110.291L241.476 133.416H285.138L272.085 115.182L264.433 122.743L256.33 110.291Z" fill="#B35041"/>
<path d="M329.397 111.18L314.543 134.305H358.205L345.151 116.072L337.499 123.632L329.397 111.18Z" fill="#B35041"/>
<path d="M34.8136 108.689H3.86719C1.72865 108.689 0 106.661 0 104.162V54.0507C0 51.5514 1.73756 49.5234 3.86719 49.5234H23.4883L38.6808 67.8458V104.17C38.6897 106.661 36.9521 108.689 34.8136 108.689Z" fill="#FF735D"/>
<g opacity="0.2">
<g opacity="0.2">
<path opacity="0.2" d="M30.6524 108.689H8.15317C3.65333 108.689 0 105.042 0 100.55V90.7397H38.6897V100.675C38.6897 105.095 35.0898 108.689 30.6524 108.689Z" fill="black"/>
</g>
</g>
<g opacity="0.2">
<g opacity="0.2">
<path opacity="0.2" d="M23.4971 49.5234V63.6299C23.4971 65.9602 25.1099 67.8458 27.0969 67.8458H38.6896L23.4971 49.5234Z" fill="white"/>
</g>
</g>
<g opacity="0.2">
<g opacity="0.2">
<path opacity="0.2" d="M23.6576 64.8574C23.6576 64.8574 23.5061 68.2818 26.8297 69.4024C26.9545 69.4469 27.0792 69.4736 27.2129 69.5003C28.7277 69.8205 38.6897 71.8929 38.6897 71.626C38.6897 71.3325 38.6897 67.837 38.6897 67.837H27.097C27.097 67.837 24.2011 67.7214 23.6576 64.8574Z" fill="black"/>
</g>
</g>
<path d="M11.0759 98.5582C11.0759 96.4324 12.466 94.9204 14.3461 94.9204C15.3886 94.9204 16.253 95.3651 16.8232 96.1656L15.9322 97.1351C15.5312 96.5925 15.0233 96.3079 14.4174 96.3079C13.2947 96.3079 12.4927 97.2329 12.4927 98.5582C12.4927 99.8835 13.2947 100.808 14.4174 100.808C15.0233 100.808 15.5223 100.524 15.9322 99.9724L16.8232 100.942C16.253 101.76 15.3886 102.196 14.3372 102.196C12.466 102.196 11.0759 100.684 11.0759 98.5582Z" fill="#FAFAFA"/>
<path d="M17.2241 101.387L17.6964 100.159C18.2043 100.595 18.9617 100.897 19.6834 100.897C20.5121 100.897 20.8418 100.577 20.8418 100.141C20.8418 98.825 17.34 99.7323 17.34 97.1173C17.34 95.9166 18.1686 94.9204 19.8795 94.9204C20.6369 94.9204 21.4121 95.1339 21.9645 95.543L21.5368 96.7793C20.9755 96.4058 20.4052 96.2279 19.8706 96.2279C19.0419 96.2279 18.73 96.5925 18.73 97.0284C18.73 98.3269 22.2319 97.4286 22.2319 100.017C22.2319 101.191 21.3943 102.196 19.6834 102.196C18.7211 102.196 17.7588 101.867 17.2241 101.387Z" fill="#FAFAFA"/>
<path d="M22.7041 101.387L23.1764 100.159C23.6843 100.595 24.4417 100.897 25.1634 100.897C25.9921 100.897 26.3218 100.577 26.3218 100.141C26.3218 98.825 22.8199 99.7323 22.8199 97.1173C22.8199 95.9166 23.6486 94.9204 25.3595 94.9204C26.1168 94.9204 26.8921 95.1339 27.4445 95.543L27.0168 96.7793C26.4555 96.4058 25.8852 96.2279 25.3505 96.2279C24.5219 96.2279 24.21 96.5925 24.21 97.0284C24.21 98.3269 27.7118 97.4286 27.7118 100.017C27.7118 101.191 26.8742 102.196 25.1634 102.196C24.2011 102.196 23.2387 101.867 22.7041 101.387Z" fill="#FAFAFA"/>
<path d="M13.0361 75.7798C13.6688 76.0022 13.9628 76.4736 13.9628 77.5943V80.1825C13.9628 80.9386 14.2925 81.3833 14.9697 81.3833H15.2192V83.3578H14.4172C12.6886 83.3578 11.8065 82.3261 11.8065 80.4672V77.5409C11.8065 77.025 11.5748 76.776 11.2005 76.776H10.7461V74.8015H11.2005C11.5748 74.8015 11.8065 74.5613 11.8065 74.0454V71.1192C11.8065 69.2603 12.6886 68.2285 14.4172 68.2285H15.2192V70.2031H14.9697C14.2925 70.2031 13.9628 70.6389 13.9628 71.4038V73.9921C13.9628 75.0772 13.6777 75.5486 13.0361 75.7798Z" fill="#FAFAFA"/>
<path d="M27.9436 74.7925V76.767H27.4891C27.1149 76.767 26.8832 77.0072 26.8832 77.532V80.4582C26.8832 82.3171 26.0011 83.3489 24.2724 83.3489H23.4705V81.3743H23.72C24.3972 81.3743 24.7268 80.9385 24.7268 80.1736V77.5853C24.7268 76.4735 25.0209 76.0021 25.6535 75.7709C25.0209 75.5485 24.7268 75.0771 24.7268 73.9564V71.3682C24.7268 70.6032 24.3972 70.1674 23.72 70.1674H23.4705V68.1929H24.2724C26.0011 68.1929 26.8832 69.2246 26.8832 71.0835V74.0098C26.8832 74.5257 27.1149 74.7658 27.4891 74.7658H27.9436V74.7925Z" fill="#FAFAFA"/>
<path d="M58.9879 120.296C58.9879 120.314 58.7562 120.331 58.3196 120.34C57.8473 120.349 57.2147 120.367 56.4305 120.385C54.7553 120.403 52.4119 120.429 49.5783 120.456H49.4357V120.287C49.4268 115.849 49.4179 110.334 49.4001 104.357C49.409 100.639 49.409 97.0994 49.4179 93.8707C49.4268 92.2608 49.4268 90.731 49.4357 89.2901C49.4803 88.5964 49.2486 87.9649 48.8476 87.5557C48.4467 87.1288 47.9298 87.0132 47.413 87.0488C45.3636 87.0221 43.6884 87.0043 42.4766 86.9865C41.9241 86.9687 41.4786 86.9598 41.1311 86.9509C40.8281 86.942 40.6677 86.9242 40.6677 86.9064C40.6677 86.8886 40.8281 86.8798 41.1311 86.862C41.4697 86.8531 41.9152 86.8353 42.4766 86.8264C43.6795 86.8086 45.3547 86.7908 47.413 86.7641C47.9209 86.7197 48.5714 86.8353 49.0258 87.3245C49.4981 87.7781 49.7654 88.5519 49.7298 89.299C49.7387 90.731 49.7387 92.2697 49.7476 93.8796C49.7476 97.1083 49.7565 100.648 49.7654 104.366C49.7565 110.343 49.7387 115.858 49.7298 120.296L49.5872 120.136C52.4208 120.162 54.7642 120.189 56.4394 120.207C57.2325 120.225 57.8562 120.243 58.3285 120.251C58.7562 120.26 58.9879 120.278 58.9879 120.296Z" fill="#1A2E35"/>
<path d="M40.1599 153.187C40.1599 153.169 40.2847 153.161 40.5342 153.143C40.8193 153.134 41.1757 153.116 41.6034 153.107C42.5836 153.089 43.9202 153.072 45.5508 153.045C46.3795 152.983 47.3329 153.214 48.1438 152.645C48.9636 152.111 49.5071 150.981 49.4091 149.718C49.4091 147.139 49.4002 144.311 49.3913 141.34C49.4091 135.416 49.4269 130.062 49.4447 126.113C49.4715 124.209 49.4893 122.644 49.4982 121.497C49.5071 120.99 49.5249 120.572 49.5338 120.242C49.5427 119.958 49.5606 119.807 49.5695 119.807C49.5784 119.807 49.5962 119.958 49.6051 120.242C49.614 120.572 49.6229 120.99 49.6408 121.497C49.6586 122.644 49.6764 124.2 49.6942 126.113C49.7031 130.062 49.7299 135.416 49.7477 141.34C49.7388 144.311 49.7388 147.139 49.7299 149.718C49.7299 150.03 49.7299 150.377 49.6764 150.706C49.614 151.035 49.5249 151.346 49.3913 151.631C49.1239 152.2 48.7319 152.654 48.2774 152.947C47.823 153.241 47.324 153.374 46.8517 153.356C46.3973 153.347 45.9607 153.347 45.5419 153.347C43.9113 153.321 42.5747 153.303 41.5945 153.285C41.1579 153.267 40.8104 153.258 40.5252 153.249C40.2847 153.214 40.1599 153.196 40.1599 153.187Z" fill="#1A2E35"/>
<path d="M61.7147 120.296C61.7147 121.168 61.1088 121.87 60.3692 121.87C59.6296 121.87 59.0237 121.168 59.0237 120.296C59.0237 119.424 59.6296 118.722 60.3692 118.722C61.1177 118.722 61.7147 119.424 61.7147 120.296Z" fill="#1A2E35"/>
<path d="M34.7066 181.836H4.74036C2.67311 181.836 0.989014 179.87 0.989014 177.451V128.923C0.989014 126.504 2.6642 124.539 4.74036 124.539H23.7466L38.458 142.283V177.46C38.458 179.87 36.7828 181.836 34.7066 181.836Z" fill="#FF735D"/>
<g opacity="0.2">
<g opacity="0.2">
<path opacity="0.2" d="M31.1424 181.836H8.19766C4.21464 181.836 0.989014 178.616 0.989014 174.641V164.448H38.458V174.534C38.458 178.563 35.1789 181.836 31.1424 181.836Z" fill="black"/>
</g>
</g>
<path d="M14.2747 175.663L15.2192 174.338C15.6202 174.961 16.0568 175.281 16.5825 175.281C17.2597 175.281 17.6161 174.801 17.6161 173.858V169.775H15.041V168.183H19.3002V173.751C19.3002 175.868 18.3913 176.917 16.6627 176.917C15.6736 176.917 14.8093 176.473 14.2747 175.663Z" fill="#FAFAFA"/>
<path d="M20.3159 176.152L20.8595 174.783C21.3585 175.165 22.1248 175.423 22.8198 175.423C23.5772 175.423 23.8534 175.192 23.8534 174.818C23.8534 173.742 20.4496 174.845 20.4496 172.212C20.4496 170.958 21.4119 170.078 23.0604 170.078C23.8356 170.078 24.691 170.282 25.2256 170.656L24.6821 172.017C24.1296 171.652 23.5683 171.527 23.0604 171.527C22.3297 171.527 22.0089 171.794 22.0089 172.141C22.0089 173.271 25.4128 172.177 25.4128 174.774C25.4128 176.001 24.4415 176.873 22.7485 176.873C21.804 176.864 20.8327 176.562 20.3159 176.152Z" fill="#FAFAFA"/>
<path d="M8.92822 155.322L10.1044 153.712C10.8707 154.993 11.8687 155.678 13.0627 155.678C14.6666 155.678 15.4953 154.539 15.4953 152.316V143.003H10.3717V140.94H17.5002V152.2C17.5002 155.9 15.9587 157.724 13.0627 157.724C11.3786 157.715 9.84601 156.861 8.92822 155.322Z" fill="#FAFAFA"/>
<path d="M19.9951 156.203L20.806 154.406C21.7149 155.162 23.1762 155.714 24.5751 155.714C26.3751 155.714 27.1236 155.073 27.1236 154.006C27.1236 151.186 20.3337 153.623 20.3337 148.625C20.3337 146.374 22.0535 144.854 24.8068 144.854C26.2058 144.854 27.783 145.28 28.7186 145.992L27.8899 147.789C26.9186 147.05 25.8404 146.792 24.789 146.792C23.0871 146.792 22.2584 147.531 22.2584 148.518C22.2584 151.48 29.0661 149.061 29.0661 153.944C29.0661 156.22 27.284 157.661 24.4237 157.661C22.6416 157.67 20.8862 157.03 19.9951 156.203Z" fill="#FAFAFA"/>
<g opacity="0.3">
<g opacity="0.3">
<path opacity="0.3" d="M23.7466 124.53V138.192C23.7466 140.442 25.3059 142.274 27.2306 142.274H38.4579L23.7466 124.53Z" fill="white"/>
</g>
</g>
<g opacity="0.2">
<g opacity="0.2">
<path opacity="0.2" d="M23.8981 139.392C23.8981 139.392 23.7466 142.701 26.9722 143.795C27.097 143.839 27.2217 143.866 27.3376 143.893C28.7989 144.195 38.4491 146.205 38.4491 145.947C38.4491 145.663 38.4491 142.274 38.4491 142.274H27.2217C27.2306 142.274 24.4327 142.158 23.8981 139.392Z" fill="black"/>
</g>
</g>
<ellipse cx="196.032" cy="103.174" rx="3.56422" ry="3.55775" fill="#B35041"/>
<ellipse cx="271.772" cy="103.174" rx="3.56422" ry="3.55775" fill="#B35041"/>
<ellipse cx="345.73" cy="104.064" rx="3.56422" ry="3.55775" fill="#B35041"/>
</g>
<defs>
<clipPath id="clip0_152_2211">
<rect width="464" height="267" fill="white"/>
</clipPath>
</defs>
</svg>
