<svg width="120" height="120" viewBox="0 0 120 120" fill="none" xmlns="http://www.w3.org/2000/svg">
<path d="M97.4982 48.75C96.9247 47.9881 96.2981 47.2675 95.6232 46.5938L67.7794 18.75C67.0498 18.0193 66.1832 17.4395 65.2292 17.044C64.2753 16.6484 63.2527 16.4448 62.2201 16.4448C61.1874 16.4448 60.1648 16.6484 59.2109 17.044C58.2569 17.4395 57.3904 18.0193 56.6607 18.75L13.5357 61.875C12.8049 62.6047 12.2252 63.4713 11.8296 64.4252C11.4341 65.3792 11.2305 66.4017 11.2305 67.4344C11.2305 68.4671 11.4341 69.4897 11.8296 70.4436C12.2252 71.3975 12.8049 72.2641 13.5357 72.9938L31.8732 91.3125" stroke="#505050" stroke-width="4" stroke-linecap="round" stroke-linejoin="round"/>
<path d="M31.8359 63.75H108.711" stroke="#E7142D" stroke-width="4" stroke-linecap="round" stroke-linejoin="round"/>
<path d="M100.892 48.75H39.6547C35.3365 48.75 31.8359 52.2506 31.8359 56.5688V95.3063C31.8359 99.6244 35.3365 103.125 39.6547 103.125H100.892C105.21 103.125 108.711 99.6244 108.711 95.3063V56.5688C108.711 52.2506 105.21 48.75 100.892 48.75Z" stroke="#505050" stroke-width="4" stroke-linecap="round" stroke-linejoin="round"/>
<path d="M31.8359 71.25H108.711" stroke="#505050" stroke-width="4" stroke-linecap="round" stroke-linejoin="round"/>
<path d="M43.0859 82.5H58.0859" stroke="#505050" stroke-width="4" stroke-linecap="round" stroke-linejoin="round"/>
<path d="M43.0859 90H52.4609" stroke="#E7142D" stroke-width="4" stroke-linecap="round" stroke-linejoin="round"/>
<path d="M65.5859 82.5H74.9609" stroke="#505050" stroke-width="4" stroke-linecap="round" stroke-linejoin="round"/>
</svg>
