<svg width="120" height="120" viewBox="0 0 120 120" fill="none" xmlns="http://www.w3.org/2000/svg">
<path fill-rule="evenodd" clip-rule="evenodd" d="M106.875 22.5C106.875 17.3231 102.677 13.125 97.5 13.125C80.55 13.125 39.45 13.125 22.5 13.125C17.3231 13.125 13.125 17.3231 13.125 22.5C13.125 44.115 13.125 105 13.125 105C13.125 106.035 13.965 106.875 15 106.875H105C106.035 106.875 106.875 106.035 106.875 105V22.5ZM103.125 22.5C103.125 19.3931 100.607 16.875 97.5 16.875H22.5C19.3931 16.875 16.875 19.3931 16.875 22.5V103.125H103.125V22.5Z" fill="#505050"/>
<path fill-rule="evenodd" clip-rule="evenodd" d="M24.375 45V56.25C24.375 57.285 25.215 58.125 26.25 58.125C27.285 58.125 28.125 57.285 28.125 56.25V45C28.125 43.965 27.285 43.125 26.25 43.125C25.215 43.125 24.375 43.965 24.375 45ZM24.375 65.625V71.25C24.375 74.3569 26.8931 76.875 30 76.875C41.8162 76.875 78.1838 76.875 90 76.875C93.1069 76.875 95.625 74.3569 95.625 71.25C95.625 68.6644 95.625 65.6888 95.625 65.6888C95.625 64.6556 94.785 63.8138 93.75 63.8138C92.715 63.8138 91.875 64.6556 91.875 65.6888C91.875 65.6888 91.875 68.6644 91.875 71.25C91.875 72.285 91.035 73.125 90 73.125C78.1838 73.125 41.8162 73.125 30 73.125C28.965 73.125 28.125 72.285 28.125 71.25C28.125 68.64 28.125 65.625 28.125 65.625C28.125 64.59 27.285 63.75 26.25 63.75C25.215 63.75 24.375 64.59 24.375 65.625ZM95.625 56.25V45C95.625 43.965 94.785 43.125 93.75 43.125C92.715 43.125 91.875 43.965 91.875 45V56.25C91.875 57.285 92.715 58.125 93.75 58.125C94.785 58.125 95.625 57.285 95.625 56.25ZM95.625 35.565V30C95.625 26.8931 93.1069 24.375 90 24.375C78.1838 24.375 41.8162 24.375 30 24.375C26.8931 24.375 24.375 26.8931 24.375 30C24.375 32.6194 24.375 35.6494 24.375 35.6494C24.375 36.6844 25.215 37.5244 26.25 37.5244C27.285 37.5244 28.125 36.6844 28.125 35.6494C28.125 35.6494 28.125 32.6194 28.125 30C28.125 28.965 28.965 28.125 30 28.125C41.8162 28.125 78.1838 28.125 90 28.125C91.035 28.125 91.875 28.965 91.875 30C91.875 32.5875 91.875 35.565 91.875 35.565C91.875 36.6 92.715 37.44 93.75 37.44C94.785 37.44 95.625 36.6 95.625 35.565Z" fill="#505050"/>
<path fill-rule="evenodd" clip-rule="evenodd" d="M105 33.75H93.75C92.2575 33.75 90.8269 34.3425 89.7731 35.3981C88.7175 36.4519 88.125 37.8825 88.125 39.375C88.125 39.9919 88.125 40.6331 88.125 41.25C88.125 42.7425 88.7175 44.1731 89.7731 45.2269C90.8269 46.2825 92.2575 46.875 93.75 46.875C98.1937 46.875 105 46.875 105 46.875C106.035 46.875 106.875 46.035 106.875 45C106.875 43.965 106.035 43.125 105 43.125H93.75C93.2531 43.125 92.775 42.9281 92.4244 42.5756C92.0719 42.225 91.875 41.7469 91.875 41.25C91.875 40.6331 91.875 39.9919 91.875 39.375C91.875 38.8781 92.0719 38.4 92.4244 38.0494C92.775 37.6969 93.2531 37.5 93.75 37.5C98.1937 37.5 105 37.5 105 37.5C106.035 37.5 106.875 36.66 106.875 35.625C106.875 34.59 106.035 33.75 105 33.75ZM15 37.5H26.25C26.7469 37.5 27.225 37.6969 27.5756 38.0494C27.9281 38.4 28.125 38.8781 28.125 39.375C28.125 39.9919 28.125 40.6331 28.125 41.25C28.125 41.7469 27.9281 42.225 27.5756 42.5756C27.225 42.9281 26.7469 43.125 26.25 43.125C21.8062 43.125 15 43.125 15 43.125C13.965 43.125 13.125 43.965 13.125 45C13.125 46.035 13.965 46.875 15 46.875H26.25C27.7425 46.875 29.1731 46.2825 30.2269 45.2269C31.2825 44.1731 31.875 42.7425 31.875 41.25C31.875 40.6331 31.875 39.9919 31.875 39.375C31.875 37.8825 31.2825 36.4519 30.2269 35.3981C29.1731 34.3425 27.7425 33.75 26.25 33.75C21.8062 33.75 15 33.75 15 33.75C13.965 33.75 13.125 34.59 13.125 35.625C13.125 36.66 13.965 37.5 15 37.5ZM105 54.375H93.75C92.2575 54.375 90.8269 54.9675 89.7731 56.0231C88.7175 57.0769 88.125 58.5075 88.125 60C88.125 60.6169 88.125 61.2581 88.125 61.875C88.125 63.3675 88.7175 64.7981 89.7731 65.8519C90.8269 66.9075 92.2575 67.5 93.75 67.5C98.1937 67.5 105 67.5 105 67.5C106.035 67.5 106.875 66.66 106.875 65.625C106.875 64.59 106.035 63.75 105 63.75H93.75C93.2531 63.75 92.775 63.5531 92.4244 63.2006C92.0719 62.85 91.875 62.3719 91.875 61.875C91.875 61.2581 91.875 60.6169 91.875 60C91.875 59.5031 92.0719 59.025 92.4244 58.6744C92.775 58.3219 93.2531 58.125 93.75 58.125C98.1937 58.125 105 58.125 105 58.125C106.035 58.125 106.875 57.285 106.875 56.25C106.875 55.215 106.035 54.375 105 54.375ZM15 58.125H26.25C26.7469 58.125 27.225 58.3219 27.5756 58.6744C27.9281 59.025 28.125 59.5031 28.125 60C28.125 60.6169 28.125 61.2581 28.125 61.875C28.125 62.3719 27.9281 62.85 27.5756 63.2006C27.225 63.5531 26.7469 63.75 26.25 63.75C21.8062 63.75 15 63.75 15 63.75C13.965 63.75 13.125 64.59 13.125 65.625C13.125 66.66 13.965 67.5 15 67.5H26.25C27.7425 67.5 29.1731 66.9075 30.2269 65.8519C31.2825 64.7981 31.875 63.3675 31.875 61.875C31.875 61.2581 31.875 60.6169 31.875 60C31.875 58.5075 31.2825 57.0769 30.2269 56.0231C29.1731 54.9675 27.7425 54.375 26.25 54.375C21.8062 54.375 15 54.375 15 54.375C13.965 54.375 13.125 55.215 13.125 56.25C13.125 57.285 13.965 58.125 15 58.125Z" fill="#505050"/>
<path fill-rule="evenodd" clip-rule="evenodd" d="M85.1666 84.2756C84.3435 82.08 82.2453 80.625 79.8997 80.625C71.9535 80.625 48.0435 80.625 40.0972 80.625C37.7516 80.625 35.6535 82.08 34.8303 84.2756C34.071 86.2969 32.9666 89.2444 32.0178 91.7756C31.371 93.5025 31.611 95.4375 32.661 96.9544C33.7128 98.4713 35.4397 99.375 37.2847 99.375C48.0341 99.375 71.9628 99.375 82.7122 99.375C84.5572 99.375 86.2841 98.4713 87.336 96.9544C88.386 95.4375 88.626 93.5025 87.9791 91.7756L85.1666 84.2756ZM81.6547 85.5919L84.4672 93.0919C84.6828 93.6675 84.6041 94.3125 84.2535 94.8188C83.9028 95.3231 83.3272 95.625 82.7122 95.625C71.9628 95.625 48.0341 95.625 37.2847 95.625C36.6697 95.625 36.0941 95.3231 35.7435 94.8188C35.3928 94.3125 35.3141 93.6675 35.5297 93.0919C36.4785 90.5606 37.5828 87.615 38.3422 85.5919C38.616 84.8606 39.3153 84.375 40.0972 84.375C48.0435 84.375 71.9535 84.375 79.8997 84.375C80.6816 84.375 81.381 84.8606 81.6547 85.5919Z" fill="#505050"/>
<path d="M44.1014 52.4384H46.0959C46.1342 52.4384 46.1662 52.4256 46.1918 52.4C46.2301 52.3616 46.2429 52.3233 46.2301 52.2849L45.1178 47.2795C45.1178 47.2667 45.1114 47.2603 45.0986 47.2603C45.0858 47.2603 45.0795 47.2667 45.0795 47.2795L43.9671 52.2849C43.9543 52.3233 43.9607 52.3616 43.9863 52.4C44.0247 52.4256 44.063 52.4384 44.1014 52.4384ZM47.4767 45.0356L51.2356 56.9644C51.3123 57.2201 51.2676 57.4566 51.1014 57.674C50.9479 57.8913 50.737 58 50.4685 58H48.589C48.2694 58 47.9817 57.9041 47.726 57.7123C47.4831 57.5078 47.3297 57.2521 47.2658 56.9452L46.9397 55.4685C46.9142 55.3662 46.8502 55.3151 46.7479 55.3151H43.4685C43.3406 55.3151 43.2703 55.3662 43.2575 55.4685L42.9315 56.9452C42.8676 57.2521 42.7078 57.5078 42.4521 57.7123C42.2091 57.9041 41.9279 58 41.6082 58H39.8055C39.537 58 39.3196 57.8913 39.1534 57.674C39 57.4566 38.9616 57.2201 39.0384 56.9644L42.7973 45.0356C42.8868 44.7288 43.0594 44.4795 43.3151 44.2877C43.5836 44.0959 43.884 44 44.2164 44H46.0575C46.3772 44 46.6648 44.0959 46.9205 44.2877C47.189 44.4795 47.3744 44.7288 47.4767 45.0356Z" fill="#E7142D"/>
<path d="M61.6853 44C61.9793 44 62.235 44.1087 62.4524 44.326C62.6697 44.5434 62.7784 44.7991 62.7784 45.0932V46.0712C62.7784 46.3653 62.6697 46.621 62.4524 46.8384C62.235 47.0557 61.9793 47.1644 61.6853 47.1644H59.3455C59.2305 47.1644 59.1729 47.2219 59.1729 47.337V56.9068C59.1729 57.2009 59.0643 57.4566 58.8469 57.674C58.6423 57.8913 58.393 58 58.099 58H56.3346C56.0405 58 55.7848 57.8913 55.5674 57.674C55.3629 57.4566 55.2606 57.2009 55.2606 56.9068V47.337C55.2606 47.2219 55.2031 47.1644 55.088 47.1644H52.7483C52.4542 47.1644 52.1985 47.0557 51.9811 46.8384C51.7638 46.621 51.6551 46.3653 51.6551 46.0712V45.0932C51.6551 44.7991 51.7638 44.5434 51.9811 44.326C52.1985 44.1087 52.4542 44 52.7483 44H61.6853Z" fill="#E7142D"/>
<path d="M79.1416 44C79.4357 44 79.6914 44.1087 79.9088 44.326C80.1261 44.5434 80.2348 44.7991 80.2348 45.0932V56.9068C80.2348 57.2009 80.1261 57.4566 79.9088 57.674C79.6914 57.8913 79.4357 58 79.1416 58H77.7416C77.4476 58 77.1919 57.8913 76.9745 57.674C76.7572 57.4566 76.6485 57.2009 76.6485 56.9068V50.3479C76.6485 50.3352 76.6421 50.3288 76.6293 50.3288C76.6165 50.3288 76.6101 50.3352 76.6101 50.3479L75.2101 54.1069C75.0951 54.4137 74.9033 54.663 74.6348 54.8548C74.3663 55.0338 74.0658 55.1233 73.7334 55.1233H72.8512C72.5188 55.1233 72.2184 55.0338 71.9499 54.8548C71.6814 54.663 71.4896 54.4137 71.3745 54.1069L69.9745 50.3479C69.9745 50.3352 69.9681 50.3288 69.9553 50.3288C69.9426 50.3288 69.9362 50.3352 69.9362 50.3479V56.9068C69.9362 57.2009 69.8275 57.4566 69.6101 57.674C69.3928 57.8913 69.1371 58 68.843 58H67.5197C67.2257 58 66.97 57.8913 66.7526 57.674C66.5352 57.4566 66.4266 57.2009 66.4266 56.9068V45.0932C66.4266 44.7991 66.5352 44.5434 66.7526 44.326C66.97 44.1087 67.2257 44 67.5197 44H69.2266C69.559 44 69.8594 44.0959 70.1279 44.2877C70.3964 44.4667 70.5818 44.7096 70.6841 45.0164L73.2731 52.2274C73.2731 52.2402 73.2795 52.2466 73.2923 52.2466C73.3051 52.2466 73.3115 52.2402 73.3115 52.2274L75.9005 45.0164C76.0028 44.7096 76.1882 44.4667 76.4567 44.2877C76.7252 44.0959 77.0257 44 77.3581 44H79.1416Z" fill="#E7142D"/>
</svg>
