<svg width="52" height="52" viewBox="0 0 52 52" fill="none" xmlns="http://www.w3.org/2000/svg">
<g clip-path="url(#clip0_1558_36864)">
<path d="M7.53834 13.7494H7.26862C7.12403 13.7688 6.99048 13.8372 6.89032 13.9433C6.79015 14.0493 6.72946 14.1866 6.71839 14.332C6.70726 14.4714 6.74394 14.6104 6.82239 14.7261C6.90084 14.8418 7.01637 14.9273 7.14994 14.9686C7.26043 14.9896 7.3739 14.9896 7.48439 14.9686H46.9822C47.5109 14.9686 47.7374 14.7312 47.7374 14.2134V11.3759C47.7479 11.0529 47.692 10.7311 47.5732 10.4305C47.4544 10.13 47.2752 9.85695 47.0466 9.62841C46.8181 9.39987 46.5451 9.22065 46.2445 9.10183C45.944 8.98301 45.6222 8.92713 45.2992 8.93763H6.52419C6.37333 8.92704 6.22192 8.92704 6.07106 8.93763C5.5061 9.02168 4.99135 9.30937 4.62374 9.74653C4.25613 10.1837 4.06101 10.7402 4.07513 11.3112C4.07513 17.7197 4.07513 24.1283 4.07513 30.5368V40.6136C4.06626 40.9324 4.12235 41.2498 4.23998 41.5463C4.35761 41.8428 4.53433 42.1122 4.75938 42.3383C4.98443 42.5644 5.25311 42.7423 5.54908 42.8612C5.84506 42.9802 6.16213 43.0377 6.48103 43.0303H45.3207C45.6623 43.0322 46.0005 42.9624 46.3133 42.8253C46.7578 42.6493 47.1357 42.3378 47.3932 41.935C47.6508 41.5322 47.775 41.0585 47.7482 40.5812V16.9645C47.7337 16.8466 47.6871 16.735 47.6134 16.6418C47.5397 16.5486 47.4418 16.4776 47.3304 16.4363C47.2189 16.3951 47.0983 16.3853 46.9818 16.4081C46.8652 16.4308 46.7571 16.4852 46.6693 16.5653C46.5989 16.6355 46.5441 16.72 46.5088 16.813C46.4734 16.906 46.4583 17.0054 46.4644 17.1048C46.4644 18.3994 46.4644 19.7049 46.4644 20.9995V24.7432C46.4644 30.0441 46.4644 35.3378 46.4644 40.6244C46.4673 40.7782 46.4391 40.931 46.3816 41.0737C46.3241 41.2164 46.2384 41.346 46.1296 41.4548C46.0208 41.5636 45.8912 41.6493 45.7485 41.7068C45.6058 41.7643 45.453 41.7925 45.2992 41.7895H6.52419C6.36417 41.8065 6.20238 41.7875 6.05067 41.7339C5.89896 41.6803 5.76117 41.5934 5.64738 41.4796C5.5336 41.3658 5.44671 41.228 5.39308 41.0763C5.33945 40.9246 5.32043 40.7628 5.33742 40.6028V22.6394C5.33742 18.8993 5.33742 15.1556 5.33742 11.4083C5.33674 11.1918 5.38467 10.978 5.47767 10.7825C5.58026 10.5914 5.73808 10.4356 5.93054 10.3355C6.123 10.2354 6.34117 10.1957 6.55655 10.2215H42.8177C43.6593 10.2215 44.5224 10.2215 45.3855 10.2215C45.6716 10.2215 45.946 10.3352 46.1484 10.5375C46.3507 10.7398 46.4644 11.0142 46.4644 11.3004V13.6955L7.53834 13.7494Z" fill="#252525"/>
<path d="M37.1439 27.1705C37.0385 26.1859 36.7989 25.2204 36.4319 24.3007C36.3739 24.146 36.2728 24.0112 36.1406 23.9123C36.0368 23.8282 35.9073 23.7823 35.7738 23.7823C35.6402 23.7823 35.5107 23.8282 35.4069 23.9123C35.2926 24.0067 35.2141 24.1375 35.1847 24.2828C35.1552 24.4282 35.1766 24.5792 35.2451 24.7107C35.8091 26.1449 36.0349 27.6899 35.9047 29.2255C35.7745 30.7611 35.292 32.2461 34.4945 33.5649C33.6971 34.8837 32.6063 36.0008 31.3069 36.8295C30.0075 37.6582 28.5345 38.176 27.0024 38.3428C25.4703 38.5096 23.9204 38.3209 22.4731 37.7912C21.0259 37.2616 19.7202 36.4053 18.6577 35.289C17.5952 34.1727 16.8044 32.8263 16.3468 31.3547C15.8893 29.883 15.7772 28.3257 16.0194 26.8037C16.3278 24.6416 17.3672 22.6503 18.9648 21.1611C20.2743 19.8693 21.919 18.9695 23.713 18.5635C25.507 18.1574 27.3789 18.2612 29.1171 18.8631C29.918 19.1176 30.6803 19.4806 31.3827 19.942C31.4821 20.0203 31.6026 20.0671 31.7287 20.0766C31.8549 20.0861 31.981 20.0578 32.091 19.9953C32.201 19.9327 32.2899 19.8389 32.3463 19.7256C32.4027 19.6124 32.424 19.4849 32.4076 19.3594C32.388 19.2571 32.3471 19.1601 32.2877 19.0746C32.2282 18.9892 32.1515 18.9171 32.0624 18.8631C30.1969 17.6639 28.0225 17.0341 25.8049 17.0506H25.4057C25.1144 17.0506 24.8123 17.0506 24.5102 17.1369C22.1425 17.416 19.9323 18.4661 18.2204 20.1254C16.8384 21.4043 15.8066 23.0155 15.2231 24.8057C14.6395 26.5959 14.5237 28.5056 14.8866 30.3532C15.2459 32.8559 16.4991 35.1438 18.4146 36.7941C20.4128 38.6339 23.024 39.6646 25.7402 39.6855C26.8083 39.6818 27.8712 39.5367 28.9013 39.254C30.497 38.85 31.98 38.0884 33.2379 37.0267C34.4958 35.965 35.4958 34.6311 36.1621 33.1259C37.0381 31.2711 37.3781 29.2084 37.1439 27.1705Z" fill="#252525"/>
<path d="M31.8771 27.3759L30.6903 26.1352L28.8131 24.1608C28.5002 23.8479 28.1981 23.5135 27.896 23.1898L26.3964 21.6147C26.2747 21.5071 26.1251 21.436 25.9648 21.4097C25.6628 21.4097 25.5009 21.5499 25.3499 21.7118L25.2851 21.7765C23.8466 23.3085 22.4081 24.8333 20.9696 26.3509L20.031 27.3327C19.9276 27.4227 19.8555 27.5431 19.8249 27.6767C19.7943 27.8103 19.807 27.9501 19.8609 28.0761C19.9149 28.202 20.0075 28.3076 20.1253 28.3776C20.2431 28.4476 20.3801 28.4784 20.5165 28.4655H23.149V34.6907C23.1381 34.7799 23.1466 34.8704 23.1738 34.956C23.201 35.0417 23.2464 35.1204 23.3068 35.187C23.3672 35.2535 23.4412 35.3063 23.5238 35.3416C23.6064 35.377 23.6957 35.3942 23.7855 35.392H28.101C28.1923 35.3875 28.2816 35.3641 28.3634 35.3233C28.4451 35.2824 28.5174 35.225 28.5757 35.1546C28.6771 34.9971 28.7297 34.8132 28.7268 34.626V28.4655H31.424C31.553 28.474 31.6813 28.4408 31.79 28.3709C31.8988 28.301 31.9823 28.198 32.0282 28.0771C32.0779 27.9589 32.0901 27.8282 32.0631 27.7027C32.0361 27.5773 31.9711 27.4632 31.8771 27.3759ZM27.4105 27.9153V34.1189H24.3789V27.9369C24.3937 27.8347 24.3843 27.7305 24.3514 27.6327C24.3186 27.5348 24.2631 27.4461 24.1896 27.3736C24.1161 27.3012 24.0266 27.247 23.9282 27.2155C23.8299 27.1841 23.7256 27.1762 23.6237 27.1925H21.8975L25.9109 22.974L29.9351 27.1925H28.1118C28.0156 27.1837 27.9187 27.1966 27.8282 27.2301C27.7377 27.2637 27.6558 27.3171 27.5885 27.3864C27.5213 27.4557 27.4704 27.5392 27.4396 27.6307C27.4088 27.7222 27.3989 27.8195 27.4105 27.9153Z" fill="#252525"/>
<path d="M34.5321 21.1507C34.4194 21.0499 34.2734 20.9941 34.1222 20.9941C33.9709 20.9941 33.8249 21.0499 33.7122 21.1507C33.603 21.2596 33.5348 21.4028 33.5191 21.5561C33.5034 21.7095 33.5411 21.8635 33.6259 21.9923C33.7014 22.1002 33.7985 22.208 33.8956 22.3267C33.9571 22.3945 34.032 22.4486 34.1156 22.4858C34.1992 22.5229 34.2896 22.5422 34.3811 22.5425C34.4558 22.5579 34.5329 22.5579 34.6077 22.5425C34.7429 22.4901 34.8562 22.3931 34.9288 22.2675C35.0014 22.142 35.0289 21.9954 35.0068 21.852C34.9412 21.5674 34.772 21.3174 34.5321 21.1507Z" fill="#252525"/>
<path d="M15.2411 11.3433C15.1572 11.3425 15.074 11.3583 14.9962 11.3898C14.9184 11.4212 14.8477 11.4678 14.7879 11.5267C14.666 11.6462 14.5962 11.8091 14.5938 11.9798C14.5938 12.1487 14.6608 12.3106 14.7802 12.4299C14.8996 12.5493 15.0615 12.6164 15.2303 12.6164C15.3939 12.6149 15.5513 12.5534 15.6726 12.4437C15.7909 12.3217 15.8601 12.1604 15.8668 11.9906C15.8683 11.907 15.8532 11.824 15.8225 11.7462C15.7919 11.6684 15.7462 11.5974 15.688 11.5373C15.6299 11.4772 15.5606 11.4291 15.4839 11.3958C15.4072 11.3626 15.3247 11.3447 15.2411 11.3433Z" fill="#252525"/>
<path d="M12.2529 11.5379C12.1334 11.416 11.9705 11.3462 11.7998 11.3438C11.6299 11.3437 11.4669 11.4104 11.3458 11.5295C11.2247 11.6486 11.1553 11.8105 11.1524 11.9803C11.151 12.0643 11.1664 12.1477 11.1979 12.2256C11.2294 12.3035 11.2762 12.3742 11.3356 12.4336C11.395 12.493 11.4658 12.5399 11.5437 12.5714C11.6216 12.6028 11.705 12.6183 11.789 12.6168C11.9549 12.6168 12.114 12.5508 12.2313 12.4334C12.2937 12.3751 12.3439 12.3051 12.3791 12.2273C12.4142 12.1496 12.4337 12.0656 12.4363 11.9803C12.4362 11.8144 12.3703 11.6552 12.2529 11.5379Z" fill="#252525"/>
<path d="M8.42332 11.3438C8.25817 11.3437 8.09945 11.4078 7.98068 11.5225C7.86191 11.6372 7.79238 11.7937 7.78678 11.9587C7.78046 12.0439 7.79262 12.1295 7.82241 12.2095C7.8522 12.2896 7.89893 12.3623 7.9594 12.4226C8.01868 12.4859 8.09065 12.5359 8.1706 12.5693C8.25055 12.6028 8.33667 12.619 8.42332 12.6168C8.59214 12.6168 8.75405 12.5498 8.87342 12.4304C8.9928 12.311 9.05986 12.1491 9.05986 11.9803C9.05986 11.8115 8.9928 11.6496 8.87342 11.5302C8.75405 11.4108 8.59214 11.3438 8.42332 11.3438Z" fill="#252525"/>
</g>
<defs>
<clipPath id="clip0_1558_36864">
<rect width="43.6839" height="34.125" fill="white" transform="translate(4.0625 8.9375)"/>
</clipPath>
</defs>
</svg>
