<svg width="36" height="40" viewBox="0 0 36 40" fill="none" xmlns="http://www.w3.org/2000/svg">
<path d="M15.1112 10.3504C13.3846 10.3504 11.9844 8.9502 11.9844 7.22355C11.9844 5.4969 13.3846 4.09668 15.1112 4.09668C16.8379 4.09668 18.2381 5.4969 18.2381 7.22355C18.2381 8.94161 16.8293 10.3504 15.1112 10.3504ZM15.1112 5.51408C14.1749 5.51408 13.4104 6.27862 13.4104 7.21496C13.4104 8.15989 14.1749 8.92443 15.1112 8.92443C16.0476 8.92443 16.8121 8.15989 16.8121 7.21496C16.8121 6.27862 16.0476 5.51408 15.1112 5.51408Z" fill="#252525"/>
<path d="M20.2831 17.7717C19.8879 17.7717 19.5701 17.4538 19.5701 17.0587V14.2668C19.5701 13.2188 18.7196 12.3598 17.663 12.3598H12.5518C11.5038 12.3598 10.6447 13.2102 10.6447 14.2668V17.0587C10.6447 17.4538 10.3269 17.7717 9.93175 17.7717C9.53659 17.7717 9.21875 17.4538 9.21875 17.0587V14.2668C9.21875 12.4285 10.7135 10.9424 12.5432 10.9424H17.6544C19.4928 10.9424 20.9789 12.4371 20.9789 14.2668V17.0587C20.9875 17.4538 20.6696 17.7717 20.2831 17.7717Z" fill="#252525"/>
<path d="M12.8771 17.7719C12.4819 17.7719 12.1641 17.454 12.1641 17.0589V16.0538C12.1641 15.6587 12.4819 15.3408 12.8771 15.3408C13.2722 15.3408 13.5901 15.6587 13.5901 16.0538V17.0589C13.5901 17.454 13.2722 17.7719 12.8771 17.7719Z" fill="#252525"/>
<path d="M17.338 17.7719C16.9428 17.7719 16.625 17.454 16.625 17.0589V16.0538C16.625 15.6587 16.9428 15.3408 17.338 15.3408C17.7331 15.3408 18.051 15.6587 18.051 16.0538V17.0589C18.051 17.454 17.7331 17.7719 17.338 17.7719Z" fill="#252525"/>
<path d="M21.6614 23.1526H6.2755C5.88034 23.1526 5.5625 22.8347 5.5625 22.4396C5.5625 22.0444 5.88034 21.7266 6.2755 21.7266H21.6614C22.0566 21.7266 22.3744 22.0444 22.3744 22.4396C22.3744 22.8347 22.0566 23.1526 21.6614 23.1526Z" fill="#252525"/>
<path d="M18.5119 28.2795H6.2755C5.88034 28.2795 5.5625 27.9617 5.5625 27.5665C5.5625 27.1714 5.88034 26.8535 6.2755 26.8535H18.5119C18.9071 26.8535 19.2249 27.1714 19.2249 27.5665C19.2163 27.9617 18.8985 28.2795 18.5119 28.2795Z" fill="#252525"/>
<path d="M15.8208 33.4065H6.2755C5.88034 33.4065 5.5625 33.0886 5.5625 32.6935C5.5625 32.2983 5.88034 31.9805 6.2755 31.9805H15.8208C16.2159 31.9805 16.5338 32.2983 16.5338 32.6935C16.5338 33.0886 16.2159 33.4065 15.8208 33.4065Z" fill="#252525"/>
<path d="M26.1758 39.0447H1.6505C1.25534 39.0447 0.9375 38.7183 0.9375 38.3317V1.213C0.9375 0.817842 1.25534 0.5 1.6505 0.5H28.5725C28.9677 0.5 29.2855 0.817842 29.2855 1.213V25.7469C29.2855 26.1421 28.9677 26.4599 28.5725 26.4599C25.3683 26.4599 22.7655 29.0628 22.7655 32.267C22.7655 34.6637 24.2086 36.7855 26.4421 37.6703C26.76 37.7991 26.9404 38.1255 26.8802 38.4606C26.8115 38.7956 26.5194 39.0447 26.1758 39.0447ZM2.36349 37.6187H23.7018C22.2157 36.2786 21.3395 34.3544 21.3395 32.267C21.3395 28.5216 24.2086 25.4291 27.8595 25.0683V1.92599H2.36349V37.6187Z" fill="#252525"/>
<path d="M28.5651 39.5003C24.5792 39.5003 21.332 36.2531 21.332 32.2672C21.332 28.2813 24.5792 25.0342 28.5651 25.0342C32.551 25.0342 35.7981 28.2813 35.7981 32.2672C35.7981 36.2531 32.5596 39.5003 28.5651 39.5003ZM28.5651 26.4602C25.3609 26.4602 22.758 29.063 22.758 32.2672C22.758 35.4714 25.3609 38.0743 28.5651 38.0743C31.7693 38.0743 34.3721 35.4714 34.3721 32.2672C34.3807 29.063 31.7693 26.4602 28.5651 26.4602Z" fill="#252525"/>
<path d="M27.9111 35.6944C27.6791 35.6944 27.473 35.5827 27.3355 35.4023L24.8014 31.9319C24.5694 31.614 24.6382 31.1673 24.956 30.9354C25.2738 30.7034 25.7205 30.7722 25.9525 31.09L27.9282 33.7874L30.9778 29.8186C31.2183 29.5094 31.665 29.4493 31.9743 29.6898C32.2835 29.9303 32.3437 30.377 32.1031 30.6863L28.478 35.4023C28.3406 35.5913 28.1344 35.6944 27.9111 35.6944Z" fill="#7C7C7C"/>
</svg>
