<svg width="38" height="44" viewBox="0 0 38 44" fill="none" xmlns="http://www.w3.org/2000/svg">
<path d="M18.2266 43.1247C18.1141 43.1247 18.0016 43.0992 17.8971 43.0398C17.672 42.9125 17.5273 42.6663 17.5273 42.3946V36.2231C17.5273 34.1772 19.1027 32.5049 21.0477 32.5049H31.2231C31.5285 32.5049 31.8018 32.7171 31.8902 33.0227C31.9786 33.3283 31.8661 33.6679 31.6089 33.8462L18.6044 43.0058C18.4918 43.0822 18.3552 43.1247 18.2266 43.1247ZM21.0477 33.9735C19.8743 33.9735 18.9178 34.9837 18.9178 36.2231V41.0279L28.9324 33.9735H21.0477Z" fill="#252525"/>
<path d="M25.398 11.2264H6.83965C6.45386 11.2264 6.14844 10.8954 6.14844 10.4964V6.26521C6.14844 5.85774 6.4619 5.53516 6.83965 5.53516H25.398C25.7838 5.53516 26.0893 5.86623 26.0893 6.26521V10.4879C26.0893 10.8954 25.7838 11.2264 25.398 11.2264ZM7.53087 9.75782H24.6988V6.99527H7.53087V9.75782Z" fill="#252525"/>
<path d="M21.9018 18.1789H6.83965C6.45386 18.1789 6.14844 17.8478 6.14844 17.4488C6.14844 17.0413 6.4619 16.7188 6.83965 16.7188H21.9018C22.2876 16.7188 22.593 17.0498 22.593 17.4488C22.593 17.8478 22.2876 18.1789 21.9018 18.1789Z" fill="#252525"/>
<path d="M15.859 23.4601H6.83965C6.45386 23.4601 6.14844 23.129 6.14844 22.7301C6.14844 22.3311 6.4619 22 6.83965 22H15.859C16.2448 22 16.5502 22.3311 16.5502 22.7301C16.5502 23.129 16.2448 23.4601 15.859 23.4601Z" fill="#252525"/>
<path d="M14.21 30.0519H6.83965C6.45386 30.0519 6.14844 29.7208 6.14844 29.3219C6.14844 28.9144 6.4619 28.5918 6.83965 28.5918H14.218C14.6038 28.5918 14.9092 28.9229 14.9092 29.3219C14.9092 29.7208 14.5958 30.0519 14.21 30.0519Z" fill="#252525"/>
<path d="M15.2213 35.2384C15.0445 35.2384 14.8676 35.1705 14.731 35.0262L11.8456 31.9786C11.5723 31.69 11.5723 31.2316 11.8456 30.9429L30.9987 10.7135C31.272 10.4249 31.706 10.4249 31.9793 10.7135L34.8647 13.7611C35.138 14.0497 35.138 14.5081 34.8647 14.7968L28.3142 21.7153C28.041 22.004 27.6069 22.004 27.3337 21.7153C27.0604 21.4267 27.0604 20.9683 27.3337 20.6797L33.3939 14.2789L31.489 12.267L13.3164 31.4608L15.2213 33.4727L24.5447 23.6254C24.818 23.3368 25.252 23.3368 25.5253 23.6254C25.7985 23.914 25.7985 24.3724 25.5253 24.661L15.7116 35.0262C15.5749 35.1705 15.3981 35.2384 15.2213 35.2384Z" fill="#252525"/>
<path d="M34.3736 15.0093C34.1888 15.0093 34.012 14.9329 33.8834 14.797L30.9979 11.7495C30.7247 11.4608 30.7247 11.0024 30.9979 10.7138L32.8224 8.78678C33.0957 8.49816 33.5297 8.49816 33.803 8.78678L36.6884 11.8344C36.9617 12.123 36.9617 12.5814 36.6884 12.87L34.8639 14.797C34.7353 14.9329 34.5585 15.0093 34.3736 15.0093ZM32.4768 11.2316L34.3817 13.2435L35.2256 12.3522L33.3207 10.3403L32.4768 11.2316Z" fill="#252525"/>
<path d="M35.8458 12.7088C35.669 12.7088 35.4922 12.6409 35.3555 12.4965L33.1854 10.2045C32.9122 9.91588 32.9122 9.45747 33.1854 9.16884L34.1981 8.09922C34.6 7.67477 35.1466 7.45405 35.7413 7.47952C36.3039 7.50499 36.8424 7.75966 37.2604 8.20109C37.6703 8.63403 37.9114 9.2028 37.9436 9.80552C37.9677 10.4252 37.7667 11.0025 37.3568 11.4354L36.3361 12.5135C36.1994 12.6324 36.0226 12.7088 35.8458 12.7088ZM34.6563 9.67818L35.8458 10.9346L36.3682 10.3828C36.4888 10.2554 36.5531 10.0687 36.5451 9.86494C36.537 9.63574 36.4325 9.40653 36.2718 9.22826C36.103 9.04999 35.894 8.94813 35.677 8.93115C35.4841 8.91417 35.3073 8.99057 35.1867 9.11791L34.6563 9.67818Z" fill="#252525"/>
<path d="M11.0095 36.6392C10.8246 36.6392 10.6478 36.5628 10.5192 36.4269C10.3344 36.2317 10.2701 35.9516 10.3504 35.6884L11.6766 31.2486C11.7489 31.0024 11.9418 30.8157 12.1749 30.7563C12.408 30.6968 12.6572 30.7647 12.834 30.9515L15.7194 33.9991C15.8882 34.1773 15.9605 34.4405 15.9043 34.6952C15.848 34.9414 15.6712 35.1451 15.4381 35.2215L11.2345 36.6222C11.1542 36.6307 11.0818 36.6392 11.0095 36.6392ZM12.6572 32.8361L12.0785 34.7801L13.919 34.1689L12.6572 32.8361Z" fill="#252525"/>
<path d="M18.2279 43.1251H3.83289C1.88783 43.1251 0.3125 41.4612 0.3125 39.4069V37.9468C0.3125 37.5393 0.625959 37.2167 1.00372 37.2167C1.38951 37.2167 1.69493 37.5478 1.69493 37.9468V39.4069C1.69493 40.6463 2.65139 41.6565 3.82485 41.6565H18.0109L30.5332 32.8449V17.607C30.5332 17.1995 30.8466 16.877 31.2244 16.877C31.6102 16.877 31.9156 17.208 31.9156 17.607V33.2438C31.9156 33.49 31.8031 33.7192 31.6102 33.8551L18.6056 43.0062C18.4931 43.0826 18.3645 43.1251 18.2279 43.1251Z" fill="#7C7C7C"/>
<path d="M1.00372 34.0672C0.625959 34.0672 0.3125 33.7446 0.3125 33.3371V4.5932C0.3125 2.53885 1.88783 0.875 3.83289 0.875H28.4033C30.3403 0.875 31.9236 2.53885 31.9236 4.5932V7.853C31.9236 8.26047 31.6102 8.58306 31.2324 8.58306C30.8466 8.58306 30.5412 8.25199 30.5412 7.853V4.5932C30.5412 3.3538 29.5848 2.34361 28.4113 2.34361H3.83289C2.65942 2.34361 1.70297 3.3538 1.70297 4.5932V33.3371C1.70297 33.7446 1.38951 34.0672 1.00372 34.0672Z" fill="#7C7C7C"/>
</svg>
