<svg width="44" height="40" viewBox="0 0 44 40" fill="none" xmlns="http://www.w3.org/2000/svg">
<path d="M42.5793 19.5635C42.1728 19.5635 41.846 19.2367 41.846 18.8303C41.846 15.9293 39.9014 13.3152 37.128 12.4864C36.7374 12.3668 36.5143 11.9604 36.6338 11.5699C36.7534 11.1793 37.1598 10.9562 37.5504 11.0757C40.9534 12.0879 43.3204 15.2758 43.3204 18.8303C43.3204 19.2288 42.9857 19.5635 42.5793 19.5635Z" fill="#252525"/>
<path d="M8.15178 26.9117C5.87244 26.9117 3.68873 25.9474 2.15854 24.2578C0.803685 22.7674 0.0625 20.8388 0.0625 18.8224C0.0625 14.3594 3.68873 10.7331 8.15178 10.7331C9.06033 10.7331 9.95294 10.8846 10.8137 11.1874C11.6505 7.56915 14.8862 4.93914 18.6878 4.93914C20.0187 4.93914 21.3098 5.25793 22.4734 5.87957C24.0434 2.62792 27.3827 0.5 31.0329 0.5C36.277 0.5 40.5488 4.76381 40.5488 10.0159C40.5488 10.8367 40.4372 11.6576 40.222 12.4626C42.1746 13.9928 43.3222 16.3359 43.3222 18.8304C43.3222 21.8111 41.6884 24.5447 39.0504 25.9553C38.6918 26.1466 38.2455 26.0111 38.0542 25.6525C37.8629 25.2938 37.9984 24.8475 38.3571 24.6563C40.5089 23.5007 41.8478 21.2691 41.8478 18.8304C41.8478 16.6387 40.7639 14.5985 38.9548 13.3632C38.6838 13.1798 38.5643 12.8371 38.6679 12.5263C38.9389 11.7134 39.0743 10.8686 39.0743 10.0238C39.0743 5.59266 35.4641 1.98237 31.0329 1.98237C27.7015 1.98237 24.673 4.08638 23.5095 7.21849C23.4298 7.43367 23.2544 7.59306 23.0392 7.66479C22.8241 7.73652 22.5929 7.69667 22.4017 7.56915C21.3018 6.82 20.0187 6.42948 18.6878 6.42948C15.3086 6.42948 12.4793 8.96386 12.1127 12.3191C12.0888 12.5582 11.9454 12.7654 11.7382 12.885C11.5309 13.0045 11.2759 13.0045 11.0607 12.9009C10.1442 12.4466 9.16394 12.2235 8.15178 12.2235C4.50164 12.2235 1.5369 15.1882 1.5369 18.8384C1.5369 20.4881 2.1426 22.0661 3.25039 23.2855C4.50164 24.6642 6.28686 25.4532 8.15178 25.4532C8.55824 25.4532 8.88499 25.78 8.88499 26.1865C8.88499 26.5929 8.55824 26.9117 8.15178 26.9117Z" fill="#252525"/>
<path d="M23.9459 39.7033H11.3856C10.9791 39.7033 10.6523 39.3765 10.6523 38.9701V22.6082C10.6523 22.2018 10.9791 21.875 11.3856 21.875H23.9459C24.3523 21.875 24.6791 22.2018 24.6791 22.6082V38.9621C24.6791 39.3686 24.3523 39.7033 23.9459 39.7033ZM12.1188 38.2289H23.2047V23.3414H12.1188V38.2289Z" fill="#252525"/>
<path d="M26.6959 37.2165H23.9463C23.5398 37.2165 23.2131 36.8897 23.2131 36.4833V23.3412H14.1356C13.7291 23.3412 13.4023 23.0144 13.4023 22.608V20.1214C13.4023 19.7149 13.7291 19.3882 14.1356 19.3882H26.6959C27.1023 19.3882 27.4291 19.7149 27.4291 20.1214V36.4753C27.4291 36.8817 27.1023 37.2165 26.6959 37.2165ZM24.6795 35.7421H25.9547V20.8546H14.8688V21.8668H23.9463C24.3528 21.8668 24.6795 22.1935 24.6795 22.6V35.7421Z" fill="#252525"/>
<path d="M21.286 27.3981H14.0574C13.651 27.3981 13.3242 27.0713 13.3242 26.6649C13.3242 26.2584 13.651 25.9316 14.0574 25.9316H21.286C21.6924 25.9316 22.0192 26.2584 22.0192 26.6649C22.0192 27.0713 21.6924 27.3981 21.286 27.3981Z" fill="#252525"/>
<path d="M21.286 31.1666H14.0574C13.651 31.1666 13.3242 30.8399 13.3242 30.4334C13.3242 30.027 13.651 29.7002 14.0574 29.7002H21.286C21.6924 29.7002 22.0192 30.027 22.0192 30.4334C22.0192 30.8399 21.6924 31.1666 21.286 31.1666Z" fill="#252525"/>
<path d="M21.286 34.4113H14.0574C13.651 34.4113 13.3242 34.0845 13.3242 33.678C13.3242 33.2716 13.651 32.9448 14.0574 32.9448H21.286C21.6924 32.9448 22.0192 33.2716 22.0192 33.678C22.0192 34.0845 21.6924 34.4113 21.286 34.4113Z" fill="#252525"/>
<path d="M36.8998 32.1401H29.4481C29.0416 32.1401 28.7148 31.8133 28.7148 31.4069C28.7148 31.0004 29.0416 30.6737 29.4481 30.6737H36.1586V19.1893C36.1586 18.7828 36.4853 18.4561 36.8918 18.4561C37.2982 18.4561 37.625 18.7828 37.625 19.1893V31.4069C37.633 31.8133 37.3062 32.1401 36.8998 32.1401Z" fill="#252525"/>
<path d="M35.4871 21.0538C35.2958 21.0538 35.1125 20.9821 34.9691 20.8386C34.6822 20.5517 34.6822 20.0815 34.9691 19.7946L36.4196 18.3441C36.7065 18.0572 37.1767 18.0572 37.4636 18.3441L38.9141 19.7946C39.201 20.0815 39.201 20.5517 38.9141 20.8386C38.6272 21.1255 38.157 21.1255 37.8701 20.8386L36.9456 19.9141L36.0211 20.8386C35.8617 20.9821 35.6784 21.0538 35.4871 21.0538Z" fill="#252525"/>
</svg>
