<svg width="44" height="40" viewBox="0 0 44 40" fill="none" xmlns="http://www.w3.org/2000/svg">
<path d="M40.7549 30.2438H2.58269C1.18874 30.2438 0.0625 29.1176 0.0625 27.7236V3.01096C0.0625 1.62624 1.18874 0.5 2.58269 0.5H40.7641C42.1488 0.5 43.2843 1.62624 43.2843 3.01096V27.7236C43.2751 29.1176 42.1396 30.2438 40.7549 30.2438ZM2.58269 1.97704C2.01034 1.97704 1.54877 2.43861 1.54877 3.01096V27.7236C1.54877 28.296 2.01034 28.7576 2.58269 28.7576H40.7641C41.3364 28.7576 41.798 28.296 41.798 27.7236V3.01096C41.798 2.43861 41.3364 1.97704 40.7641 1.97704H2.58269Z" fill="#252525"/>
<path d="M29.4285 35.4687H13.9104C13.5042 35.4687 13.1719 35.1363 13.1719 34.7301V29.5051C13.1719 29.0989 13.5042 28.7666 13.9104 28.7666H29.4285C29.8347 28.7666 30.167 29.0989 30.167 29.5051V34.7301C30.167 35.1363 29.8347 35.4687 29.4285 35.4687ZM14.6489 33.9916H28.69V30.2436H14.6489V33.9916Z" fill="#252525"/>
<path d="M38.0586 39.8173H5.27758C4.8714 39.8173 4.53906 39.4849 4.53906 39.0787C4.53906 36.2724 6.81924 33.9922 9.62561 33.9922H33.7105C36.5169 33.9922 38.7971 36.2724 38.7971 39.0787C38.7971 39.4942 38.4648 39.8173 38.0586 39.8173ZM6.08995 38.3402H37.2462C36.9046 36.7062 35.4461 35.4692 33.7105 35.4692H9.62561C7.89009 35.4692 6.43152 36.7062 6.08995 38.3402Z" fill="#252525"/>
<path d="M21.2406 23.1908H10.0705C9.66436 23.1908 9.33203 22.8585 9.33203 22.4523V12.0207C9.33203 11.6146 9.66436 11.2822 10.0705 11.2822C10.4767 11.2822 10.8091 11.6146 10.8091 12.0207V21.7138H20.5021V12.0207C20.5021 11.6146 20.8345 11.2822 21.2406 11.2822C21.6468 11.2822 21.9792 11.6146 21.9792 12.0207V22.4523C21.9792 22.8585 21.6468 23.1908 21.2406 23.1908Z" fill="#252525"/>
<path d="M22.7164 10.7567C22.6241 10.7567 22.5225 10.7382 22.4302 10.7013L15.6543 7.81181L8.87842 10.7013C8.49993 10.8674 8.06605 10.6828 7.90912 10.3135C7.75218 9.93505 7.92758 9.50117 8.29684 9.34424L15.3589 6.33477C15.5435 6.25169 15.7559 6.25169 15.9405 6.33477L23.0026 9.34424C23.3811 9.50117 23.5565 9.93505 23.3903 10.3135C23.2795 10.5905 23.0026 10.7567 22.7164 10.7567Z" fill="#252525"/>
<path d="M23.8417 23.1909H7.46508C7.0589 23.1909 6.72656 22.8586 6.72656 22.4524C6.72656 22.0462 7.0589 21.7139 7.46508 21.7139H23.8417C24.2479 21.7139 24.5802 22.0462 24.5802 22.4524C24.5802 22.8586 24.2479 23.1909 23.8417 23.1909Z" fill="#252525"/>
<path d="M35.5938 12.0952H27.9963C27.5901 12.0952 27.2578 11.7629 27.2578 11.3567C27.2578 10.9505 27.5901 10.6182 27.9963 10.6182H35.5938C36 10.6182 36.3324 10.9505 36.3324 11.3567C36.3324 11.7629 36 12.0952 35.5938 12.0952Z" fill="#252525"/>
<path d="M35.5938 16.1108H27.9963C27.5901 16.1108 27.2578 15.7785 27.2578 15.3723C27.2578 14.9661 27.5901 14.6338 27.9963 14.6338H35.5938C36 14.6338 36.3324 14.9661 36.3324 15.3723C36.3324 15.7785 36 16.1108 35.5938 16.1108Z" fill="#252525"/>
<path d="M35.5938 20.1352H27.9963C27.5901 20.1352 27.2578 19.8029 27.2578 19.3967C27.2578 18.9905 27.5901 18.6582 27.9963 18.6582H35.5938C36 18.6582 36.3324 18.9905 36.3324 19.3967C36.3324 19.8029 36 20.1352 35.5938 20.1352Z" fill="#252525"/>
</svg>
