<svg width="45" height="32" viewBox="0 0 45 32" fill="none" xmlns="http://www.w3.org/2000/svg">
<path d="M43.4237 15.743C43.672 15.6236 43.8922 15.453 44.0697 15.2423C44.2473 15.0316 44.3781 14.7857 44.4536 14.5207C44.5291 14.2558 44.5476 13.9778 44.5078 13.7052C44.468 13.4326 44.3709 13.1715 44.2228 12.9392C43.7882 12.1542 43.3536 11.3831 42.905 10.6121L42.7929 10.4299C42.7438 10.323 42.6738 10.2271 42.5872 10.1477C42.5005 10.0682 42.3989 10.0069 42.2882 9.96725C42.2072 9.94758 42.1231 9.94489 42.0411 9.95937C41.959 9.97385 41.8809 10.0052 41.8116 10.0514C41.3209 10.3317 41.5031 10.8224 41.6573 11.0887C42.0919 11.8738 42.5265 12.6588 42.9891 13.4299C43.0488 13.5223 43.0895 13.6257 43.1088 13.734C43.128 13.8423 43.1255 13.9534 43.1013 14.0607C43.0697 14.162 43.0172 14.2555 42.9472 14.3352C42.8771 14.4149 42.7911 14.479 42.6947 14.5233L40.5919 15.6729C40.5043 15.736 40.4035 15.7785 40.297 15.7971C40.1906 15.8158 40.0813 15.81 39.9774 15.7803C39.8736 15.7506 39.7777 15.6978 39.6972 15.6258C39.6167 15.5537 39.5535 15.4644 39.5125 15.3645C37.3723 11.5327 35.176 7.66819 32.9237 3.77099C32.8644 3.68105 32.8239 3.58004 32.8046 3.47404C32.7853 3.36804 32.7877 3.25923 32.8115 3.15417C32.8858 2.95088 33.0368 2.78479 33.2321 2.69155L34.3536 2.08875L35.3069 1.55604C35.8256 1.27566 36.1059 1.34576 36.4003 1.86445L36.9891 2.88781C37.1994 3.26632 37.4097 3.65884 37.634 4.03734C37.6672 4.12992 37.7203 4.2141 37.7895 4.28394C37.8587 4.35379 37.9425 4.40761 38.0347 4.44161C38.127 4.47562 38.2256 4.48897 38.3237 4.48075C38.4217 4.47253 38.5167 4.44291 38.602 4.39401C38.6873 4.3451 38.7609 4.27808 38.8175 4.19767C38.8742 4.11727 38.9125 4.02542 38.9298 3.9286C38.9471 3.83179 38.943 3.73235 38.9177 3.6373C38.8924 3.54226 38.8466 3.4539 38.7835 3.37847C38.363 2.60744 37.9424 1.85043 37.4938 1.09342C37.3694 0.862524 37.2 0.658898 36.9956 0.49457C36.7913 0.330241 36.556 0.208545 36.3038 0.136669C36.0516 0.0647931 35.7875 0.0441961 35.5272 0.0760955C35.2669 0.107995 35.0156 0.191743 34.7882 0.322392L32.419 1.62613C32.1768 1.7475 31.9674 1.92559 31.8087 2.14526C31.6501 2.36493 31.5469 2.61967 31.5078 2.88781C31.4795 3.20494 31.4795 3.52396 31.5078 3.84108C31.5078 3.99529 31.5078 4.17753 31.5078 4.34576V4.51398H31.3536L30.919 4.64015C30.5265 4.7523 30.0779 4.89249 29.6153 4.99062C29.2604 5.07522 28.8907 5.07522 28.5358 4.99062C27.7648 4.73828 26.9798 4.45791 26.2368 4.19155L25.5218 3.9252C24.7437 3.63371 23.9105 3.51879 23.0826 3.58875L21.2041 3.75697L18.7228 3.98127C17.589 3.99133 16.4884 4.36476 15.5826 5.04669C15.5271 5.09894 15.4602 5.13754 15.3872 5.15944C15.3142 5.18134 15.2371 5.18594 15.162 5.17286L13.5499 4.69623L12.877 4.49996V4.3037C13.001 4.0496 13.071 3.77257 13.0826 3.49006C13.0943 3.20755 13.0472 2.9257 12.9445 2.66228C12.8417 2.39885 12.6855 2.15957 12.4857 1.95953C12.2859 1.75948 12.0468 1.603 11.7835 1.49996L9.94707 0.490618C9.70041 0.307833 9.41507 0.18414 9.11305 0.129078C8.81103 0.0740155 8.5004 0.0890548 8.20511 0.173036C7.90982 0.257017 7.63777 0.407694 7.40992 0.613452C7.18208 0.819209 7.00454 1.07455 6.89099 1.35977L5.75547 3.35043L2.68538 8.77566C2.05454 9.91118 1.43772 11.0467 0.820897 12.1962L0.0078125 13.5981V14.3831C0.1654 14.8845 0.486153 15.3188 0.919027 15.6168L1.39566 15.8831C2.06856 16.2757 2.79753 16.6682 3.47043 17.0187C3.90705 17.2411 4.41182 17.2896 4.88279 17.1542C5.35376 17.0189 5.75583 16.71 6.00781 16.2897C6.06645 16.1827 6.13201 16.0797 6.20407 15.9813L6.47043 15.5327L7.01716 15.9532L7.95641 16.6402C8.03034 16.687 8.09317 16.7495 8.14053 16.8231C8.18789 16.8967 8.21864 16.9798 8.23065 17.0665C8.24266 17.1532 8.23563 17.2415 8.21006 17.3253C8.18449 17.409 8.14099 17.4861 8.08258 17.5514C7.84117 17.9071 7.68846 18.3154 7.63724 18.7422C7.58602 19.169 7.63778 19.6019 7.78819 20.0046C7.94355 20.4175 8.19702 20.7864 8.52672 21.0794C8.85643 21.3725 9.25248 21.581 9.68071 21.6869H9.91903L10.1854 21.771V21.9252C10.2555 23.6635 10.8302 24.3785 12.6387 24.9673H12.7788V25.1215C12.73 25.4933 12.7563 25.8711 12.8561 26.2326C12.9559 26.5941 13.1272 26.9318 13.3599 27.2259C13.5925 27.52 13.8818 27.7645 14.2106 27.9448C14.5395 28.1251 14.9011 28.2376 15.2742 28.2757H15.4144V28.4299C15.4144 28.542 15.4144 28.6682 15.4144 28.7803C15.4312 28.9974 15.464 29.2129 15.5125 29.4252C15.6257 29.8497 15.8401 30.2404 16.1373 30.5639C16.4345 30.8875 16.8057 31.1342 17.219 31.283C17.6324 31.4318 18.0756 31.4783 18.5108 31.4184C18.946 31.3585 19.3603 31.1941 19.7181 30.9392C20.2648 30.5327 20.7835 30.1121 21.3302 29.6635L22.1013 29.0467L22.2274 28.9486L22.5218 29.1869C22.8697 29.5869 23.301 29.9059 23.7854 30.1215C24.2698 30.337 24.7955 30.4439 25.3256 30.4345C25.9268 30.4 26.501 30.1727 26.963 29.7864C27.4251 29.4001 27.7505 28.8753 27.891 28.2897V28.0934H28.0872C28.5241 28.241 28.9906 28.2785 29.4454 28.2027C29.9002 28.1269 30.3293 27.9401 30.6947 27.6588C31.0467 27.372 31.3237 27.004 31.5019 26.5864C31.6802 26.1688 31.7544 25.7142 31.7181 25.2616V25.0934H31.8723C33.6106 24.6028 34.1433 23.9439 34.3396 22.0514V21.9673L34.4658 21.8411H34.5499C35.0295 21.7632 35.4807 21.5621 35.8591 21.2574C36.2376 20.9526 36.5304 20.5547 36.7087 20.1028C36.8812 19.6646 36.9345 19.1886 36.8631 18.7231C36.7917 18.2577 36.5981 17.8195 36.3022 17.4532C36.2472 17.3675 36.218 17.2677 36.218 17.1659C36.218 17.064 36.2472 16.9642 36.3022 16.8785C36.728 16.3746 37.2724 15.9844 37.8863 15.743H38.0405L38.1947 15.9813L38.2788 16.1074C38.3981 16.3826 38.5776 16.6275 38.8041 16.8241C39.0307 17.0207 39.2984 17.164 39.5876 17.2433C39.8769 17.3227 40.1802 17.3362 40.4753 17.2827C40.7705 17.2293 41.0498 17.1103 41.2929 16.9345L41.7274 16.7102L43.4237 15.743ZM5.04052 15.4205C4.95512 15.5599 4.84599 15.6832 4.71809 15.785L4.59192 15.8972L4.49379 16.0093L4.17136 15.8691L3.90501 15.757L1.8723 14.6355C1.67604 14.5093 1.47978 14.3831 1.4237 14.1588C1.40271 14.0497 1.40432 13.9374 1.42843 13.8289C1.45254 13.7204 1.49864 13.618 1.56389 13.528C3.7508 9.64015 5.94706 5.76165 8.15267 1.89249C8.44706 1.34576 8.74146 1.27566 9.27417 1.57005C9.80688 1.86445 10.676 2.31305 11.3069 2.69155C11.4114 2.73315 11.5063 2.79563 11.5859 2.87517C11.6654 2.95472 11.7279 3.04965 11.7695 3.15417C11.7905 3.26332 11.7889 3.37561 11.7648 3.48411C11.7407 3.59262 11.6946 3.69502 11.6293 3.78501C9.38632 7.67286 7.19006 11.5514 5.04052 15.4205ZM10.648 20.4252L10.4377 20.4953C10.1505 20.4762 9.87486 20.3748 9.64369 20.2033C9.41251 20.0317 9.23557 19.7973 9.13398 19.528C9.03859 19.2541 9.03051 18.9573 9.11086 18.6786C9.1912 18.3999 9.35602 18.153 9.58258 17.9719C10.1994 17.4532 10.8302 16.9486 11.4611 16.4579L12.3443 15.757C12.5265 15.6028 12.7087 15.4486 12.905 15.3084C13.123 15.1516 13.3814 15.0607 13.6495 15.0465C13.9176 15.0324 14.1841 15.0955 14.4174 15.2283C14.6507 15.3612 14.8409 15.5583 14.9655 15.7962C15.09 16.034 15.1436 16.3026 15.12 16.5701C15.1081 16.7467 15.0596 16.9189 14.9775 17.0758C14.8955 17.2327 14.7817 17.3708 14.6433 17.4813C13.676 18.2944 12.6387 19.1215 11.2648 20.1869C11.0964 20.3015 10.9051 20.378 10.7041 20.4112L10.648 20.4252ZM13.2835 23.6495L13.0452 23.7476C12.7659 23.7206 12.499 23.6192 12.2721 23.454C12.0453 23.2888 11.8669 23.0659 11.7555 22.8084C11.6439 22.53 11.6246 22.2232 11.7003 21.933C11.776 21.6429 11.9427 21.3846 12.176 21.1962L13.9003 19.7944L15.12 18.813L16.9003 17.4112C17.1301 17.2264 17.4124 17.1189 17.7068 17.1038C18.0013 17.0887 18.293 17.1668 18.5405 17.3271C18.7785 17.4881 18.9613 17.7183 19.0641 17.9866C19.1669 18.2549 19.1847 18.5483 19.1153 18.8271C19.0159 19.1419 18.8316 19.4233 18.5826 19.6402C17.1807 20.7757 15.6807 21.9813 13.9704 23.3271C13.7787 23.4675 13.5657 23.5763 13.3396 23.6495H13.2835ZM15.4844 26.9299C15.2821 26.9244 15.0834 26.8752 14.9019 26.7857C14.7204 26.6962 14.5605 26.5684 14.433 26.4112C14.2062 26.1313 14.0957 25.7749 14.1246 25.4158C14.1531 25.207 14.2237 25.0061 14.3321 24.8254C14.4406 24.6447 14.5846 24.4878 14.7555 24.3644C15.7368 23.5654 16.7461 22.7523 17.7555 21.9813C17.9362 21.8438 18.1341 21.7307 18.3443 21.6448L18.4985 21.5747C18.7858 21.56 19.0712 21.629 19.32 21.7733C19.5688 21.9177 19.7704 22.1311 19.9003 22.3878C20.0149 22.6378 20.0533 22.916 20.0109 23.1877C19.9686 23.4594 19.8472 23.7126 19.662 23.9159C19.4842 24.0992 19.292 24.2679 19.0872 24.4205L18.919 24.6168L16.5779 26.4953C16.2882 26.7484 15.9242 26.9009 15.5405 26.9299H15.4844ZM20.9517 28.2476C20.2788 28.8504 19.5499 29.4112 18.8349 29.9439C18.6938 30.0366 18.5371 30.1031 18.3723 30.1401H18.2742H18.1901C17.9025 30.1676 17.6136 30.1056 17.3626 29.9625C17.1117 29.8195 16.9111 29.6025 16.7882 29.3411C16.6569 29.0892 16.6105 28.8016 16.656 28.5212C16.7015 28.2407 16.8364 27.9825 17.0405 27.785C17.8116 27.1261 18.5125 26.5654 19.1854 26.0887C19.4709 25.9508 19.7948 25.9137 20.1042 25.9836C20.4136 26.0534 20.6901 26.2261 20.8886 26.4735C21.0871 26.7208 21.1959 27.0282 21.1972 27.3453C21.1985 27.6624 21.0922 27.9707 20.8957 28.2196L20.9517 28.2476ZM34.9003 20.271C34.65 20.4222 34.3586 20.4914 34.067 20.4688C33.7754 20.4461 33.4982 20.3329 33.2742 20.1448L32.2929 19.3598L31.1153 18.4205C30.9883 18.3162 30.8466 18.2311 30.6947 18.1682C30.5538 18.1429 30.4084 18.1633 30.2799 18.2263C30.1513 18.2894 30.0461 18.3918 29.9798 18.5187C29.9091 18.6538 29.8886 18.8097 29.9219 18.9586C29.9553 19.1075 30.0404 19.2397 30.162 19.3317C30.891 19.9345 31.634 20.5233 32.377 21.1121C32.5934 21.2497 32.768 21.4439 32.8817 21.6738C32.9954 21.9037 33.0439 22.1603 33.0218 22.4159C33.0008 22.6661 32.913 22.9061 32.7675 23.1108C32.622 23.3155 32.4242 23.4773 32.1947 23.5794C31.9659 23.6759 31.7155 23.7099 31.4691 23.6779C31.2228 23.6459 30.9894 23.549 30.7929 23.3972L29.391 22.2196L28.5919 21.5887C28.4842 21.4784 28.3555 21.3906 28.2136 21.3305C28.0716 21.2703 27.919 21.239 27.7648 21.2383C27.6859 21.2521 27.6105 21.2816 27.5432 21.3249C27.4758 21.3683 27.4177 21.4246 27.3723 21.4906C27.1901 21.757 27.0779 22.0794 27.7788 22.6402L28.1293 22.9205C28.7321 23.3972 29.3349 23.8738 29.9237 24.3224C30.095 24.4441 30.2386 24.6007 30.3449 24.7819C30.4512 24.9632 30.5179 25.1649 30.5405 25.3738C30.5731 25.7376 30.4625 26.0997 30.2321 26.3831C30.1098 26.5316 29.9583 26.6534 29.787 26.7408C29.6157 26.8282 29.4282 26.8794 29.2362 26.8912C29.0442 26.9031 28.8518 26.8753 28.6711 26.8096C28.4903 26.7439 28.325 26.6416 28.1854 26.5093C27.7087 26.1448 27.2461 25.7663 26.7835 25.3878L25.62 24.6168C25.505 24.5234 25.3615 24.4725 25.2134 24.4725C25.0654 24.4725 24.9218 24.5234 24.8069 24.6168C24.6922 24.6714 24.6 24.7642 24.5463 24.8793C24.4926 24.9944 24.4806 25.1247 24.5125 25.2476C24.5718 25.4389 24.6778 25.6123 24.8209 25.7523C25.0312 25.9486 25.2555 26.1168 25.4798 26.299L25.9704 26.6916C26.1186 26.8053 26.2425 26.9475 26.3349 27.1098C26.4273 27.2721 26.4863 27.4513 26.5085 27.6367C26.5307 27.8222 26.5156 28.0102 26.4641 28.1897C26.4127 28.3693 26.3258 28.5367 26.2087 28.6822C26.0813 28.8394 25.9214 28.9672 25.7399 29.0567C25.5584 29.1463 25.3596 29.1955 25.1573 29.2009C24.8114 29.1959 24.4766 29.0777 24.2041 28.8644L23.9938 28.6962C23.9205 28.6278 23.8407 28.5668 23.7555 28.514C23.4372 28.3316 23.1685 28.0739 22.973 27.7635C22.7775 27.4531 22.6611 27.0994 22.634 26.7336C22.5759 26.33 22.417 25.9476 22.1719 25.6217C21.9269 25.2959 21.6037 25.037 21.2321 24.8691L21.0359 24.771L21.148 24.5747C21.377 24.2432 21.5318 23.8663 21.602 23.4695C21.6721 23.0728 21.6559 22.6656 21.5545 22.2757C21.4576 21.8977 21.2829 21.5441 21.0415 21.2375C20.8001 20.931 20.4974 20.6782 20.1527 20.4953L19.8723 20.4112L19.9844 20.2149C20.328 19.7203 20.5031 19.1283 20.4839 18.5264C20.4648 17.9245 20.2524 17.3448 19.8781 16.873C19.5038 16.4013 18.9876 16.0625 18.4059 15.907C17.8241 15.7514 17.2078 15.7873 16.648 16.0093H16.4517L16.2555 15.5046C16.1098 15.1036 15.8718 14.7425 15.5607 14.4505C15.2496 14.1585 14.8742 13.9437 14.4648 13.8236C14.0554 13.7036 13.6235 13.6815 13.204 13.7592C12.7845 13.8369 12.3891 14.0122 12.0499 14.271C11.5031 14.6916 10.9564 15.1402 10.4377 15.5607C10.1994 15.743 9.9751 15.9392 9.73678 16.1074L9.61061 16.2196L7.21342 14.3411L7.29753 14.1729L12.148 5.59342L12.905 5.81772L14.6994 6.35043C14.7875 6.37865 14.8665 6.42993 14.9281 6.49895C14.9897 6.56797 15.0318 6.65221 15.0499 6.74295C15.1569 7.28821 15.371 7.80684 15.6797 8.26888C15.9884 8.73092 16.3856 9.1272 16.8484 9.43483C17.3111 9.74246 17.8302 9.95533 18.3757 10.0612C18.9212 10.167 19.4823 10.1637 20.0265 10.0514C20.4751 10.0514 20.9517 9.93921 21.5265 9.84108C22.2306 9.71203 22.9535 9.72621 23.652 9.88277C24.3505 10.0393 25.0103 10.3351 25.5919 10.7523C26.9938 11.7196 28.5499 12.8551 30.12 14.0607C31.6901 15.2663 33.4985 16.7243 34.9003 17.8598C35.2075 18.1187 35.4358 18.4587 35.5592 18.8411C35.6278 19.1188 35.5999 19.4116 35.4802 19.6714C35.3605 19.9312 35.156 20.1427 34.9003 20.271ZM34.9845 16.2056L34.9003 16.1215L33.8209 15.2663C33.0499 14.6495 32.2368 14.0046 31.4237 13.3878C30.6106 12.771 29.6013 11.9859 28.62 11.3411C28.0031 10.8925 27.3723 10.4299 26.7695 9.93922C25.9053 9.26203 24.8978 8.79127 23.8239 8.56289C22.7501 8.33451 21.6382 8.35454 20.5732 8.62146C19.7834 8.83261 18.9519 8.83261 18.162 8.62146C17.7333 8.50155 17.3434 8.27155 17.031 7.9543C16.7187 7.63705 16.4948 7.24361 16.3816 6.81305C16.3305 6.70378 16.3043 6.58449 16.3049 6.46384C16.3056 6.34318 16.333 6.22418 16.3854 6.11547C16.4377 6.00676 16.5136 5.91106 16.6075 5.83531C16.7014 5.75957 16.811 5.70567 16.9284 5.67753C17.5093 5.49197 18.1049 5.35597 18.7087 5.27099C20.363 5.08875 21.863 4.94856 23.2929 4.87847C23.8128 4.8587 24.3317 4.93962 24.8209 5.11679C25.7882 5.41118 26.8256 5.78968 28.0031 6.23828C28.6433 6.48897 29.3489 6.51858 30.0078 6.32239L31.5499 5.88781L32.433 5.64949L32.5172 5.78968L37.3676 14.3691L34.9845 16.2056Z" fill="#252525"/>
</svg>
