<svg width="40" height="39" viewBox="0 0 40 39" fill="none" xmlns="http://www.w3.org/2000/svg">
<path d="M38.2507 31.2181L29.9936 22.9635C30.129 22.6834 30.1911 22.3736 30.174 22.0631C30.1569 21.7525 30.0612 21.4514 29.8959 21.1879C29.7306 20.9244 29.5011 20.7072 29.229 20.5567C28.9568 20.4062 28.6508 20.3273 28.3398 20.3273C28.0979 20.3267 27.8583 20.3741 27.6349 20.4668C27.4114 20.5595 27.2086 20.6956 27.0382 20.8672L25.7524 22.1518L23.1211 19.5095L29.188 12.9429L30.9686 11.5584C31.3415 11.9882 31.6653 12.4583 31.9339 12.96C32.6617 14.3886 32.9665 15.9953 32.8126 17.5912C32.801 17.7235 32.833 17.8559 32.9036 17.9683C32.9742 18.0808 33.0796 18.1671 33.2037 18.2141C33.3279 18.2612 33.464 18.2664 33.5914 18.229C33.7188 18.1915 33.8305 18.1135 33.9095 18.0068C34.9372 16.6363 35.5466 14.998 35.6645 13.289C35.9509 8.64925 31.968 5.24528 30.8845 4.57984L30.681 4.45797C30.1053 4.13291 29.5645 3.74942 29.0674 3.31356C28.1812 2.42747 27.3798 1.46045 26.6737 0.425124C26.6232 0.351288 26.5569 0.2895 26.4798 0.244154C26.4026 0.198809 26.3164 0.171018 26.2273 0.162757C26.1382 0.154497 26.0483 0.165969 25.9641 0.19636C25.8799 0.22675 25.8035 0.275312 25.7402 0.338593L21.75 4.32878C21.6748 4.4042 21.6207 4.498 21.593 4.60085C21.5654 4.7037 21.5652 4.812 21.5924 4.91496C21.6197 5.01791 21.6734 5.11192 21.7483 5.18763C21.8232 5.26334 21.9167 5.31809 22.0193 5.34644C23.2625 5.68891 25.3953 6.53716 25.8316 7.35615C26.2281 8.15121 26.2976 9.06985 26.0254 9.91553L19.5124 15.9045L13.4077 9.79609L12.5801 5.67794C12.5498 5.52395 12.4628 5.38695 12.3364 5.29403L6.30356 0.979656C6.18351 0.893915 6.03697 0.853481 5.88994 0.865529C5.7429 0.877577 5.6049 0.941328 5.50041 1.04547L2.04647 4.49697C1.9417 4.60105 1.87742 4.73904 1.86514 4.88621C1.85286 5.03338 1.89338 5.18011 1.97944 5.30012L6.29381 11.3329C6.38648 11.4597 6.5236 11.5467 6.67772 11.5767L10.7959 12.4054L16.7933 18.4029L1.63209 32.3625C1.10705 32.8446 0.740061 33.4743 0.579316 34.1687C0.418571 34.8632 0.47158 35.5901 0.731383 36.2539C0.991186 36.9177 1.44564 37.4874 2.03508 37.8883C2.62453 38.2892 3.32141 38.5024 4.03425 38.5001H4.11956C4.59285 38.4913 5.05939 38.3862 5.4908 38.1914C5.9222 37.9965 6.30945 37.7159 6.62897 37.3667L20.6178 22.2176L23.1528 24.7526L21.8682 26.0372C21.5561 26.341 21.3627 26.7463 21.323 27.1801C21.2832 27.6139 21.3996 28.0476 21.6512 28.4031C21.9029 28.7587 22.2732 29.0127 22.6955 29.1195C23.1178 29.2262 23.5644 29.1786 23.9547 28.9853L32.2191 37.2497C32.6125 37.6571 33.0832 37.982 33.6037 38.2056C34.1241 38.4291 34.6838 38.5468 35.2502 38.5517C35.8166 38.5567 36.3783 38.4487 36.9025 38.2342C37.4268 38.0198 37.903 37.703 38.3035 37.3025C38.704 36.902 39.0208 36.4258 39.2353 35.9015C39.4497 35.3773 39.5577 34.8156 39.5527 34.2492C39.5478 33.6828 39.4301 33.1231 39.2066 32.6027C38.983 32.0822 38.6581 31.6115 38.2507 31.2181ZM23.3197 4.48234L26.0936 1.70969C26.736 2.61526 27.4628 3.45793 28.2642 4.22641C28.8193 4.71259 29.4224 5.14096 30.0643 5.50487L30.2532 5.61822C31.1441 6.16178 34.6968 9.21962 34.4494 13.2098C34.4008 13.9569 34.2385 14.6921 33.968 15.3902C33.7209 13.4649 32.8417 11.676 31.4683 10.3043C31.3634 10.199 31.2236 10.1356 31.0752 10.1262C30.9268 10.1168 30.7801 10.1619 30.6627 10.2531L28.8261 11.6815L27.2417 10.0971C27.5474 8.99126 27.4287 7.81109 26.909 6.78822C26.3264 5.695 24.4897 4.89672 23.3197 4.48234ZM26.5263 11.1062L27.9291 12.509L22.2497 18.6564L20.3655 16.7759L26.5263 11.1062ZM5.73075 36.5403C5.52177 36.7685 5.2686 36.9519 4.98661 37.0793C4.70462 37.2066 4.39968 37.2754 4.09031 37.2813C3.77718 37.2877 3.46592 37.2315 3.17481 37.116C2.8837 37.0004 2.61859 36.8279 2.39503 36.6086C2.17487 36.3866 2.00152 36.1227 1.88526 35.8325C1.769 35.5423 1.7122 35.2317 1.71823 34.9191C1.72425 34.6066 1.79298 34.2984 1.92033 34.0129C2.04769 33.7274 2.23108 33.4703 2.45962 33.257L17.6672 19.2585L19.7634 21.3462L5.73075 36.5403ZM21.0492 20.8867C21.0305 20.8725 21.011 20.8595 20.9907 20.8477L18.1632 18.0324C18.1514 18.0121 18.1384 17.9926 18.1242 17.9739L11.543 11.3927C11.456 11.3057 11.3454 11.2464 11.2249 11.222L7.164 10.4055L3.303 5.00275L6.00253 2.30322L11.4065 6.16666L12.2218 10.2251C12.2469 10.3456 12.3066 10.4562 12.3937 10.5432L19.048 17.1976C19.0667 17.2117 19.0863 17.2247 19.1065 17.2366L21.7878 19.9178C21.7996 19.9381 21.8126 19.9576 21.8268 19.9763L24.8749 23.0329L24.4556 23.4522L24.0339 23.8751L21.0492 20.8867ZM23.5903 27.7605C23.4769 27.8622 23.3288 27.9166 23.1764 27.9125C23.0241 27.9084 22.8792 27.8462 22.7713 27.7385C22.6635 27.6308 22.601 27.4859 22.5967 27.3336C22.5924 27.1813 22.6466 27.0331 22.7482 26.9195L24.4739 25.1938L26.1923 23.4753L27.9217 21.7484C27.9771 21.693 28.0429 21.6491 28.1152 21.6192C28.1876 21.5893 28.2651 21.574 28.3434 21.5741C28.4608 21.5747 28.5753 21.6099 28.6727 21.6754C28.7701 21.7408 28.8461 21.8336 28.891 21.942C28.9359 22.0504 28.9478 22.1697 28.9252 22.2848C28.9026 22.4 28.8465 22.5059 28.7639 22.5893L23.5903 27.7605ZM37.3878 36.388C36.8074 36.9419 36.0359 37.251 35.2336 37.251C34.4313 37.251 33.6599 36.9419 33.0795 36.388L24.9017 28.2114L29.21 23.9019L37.3878 32.0797C37.959 32.6511 38.2799 33.4259 38.2799 34.2339C38.2799 35.0418 37.959 35.8166 37.3878 36.388ZM28.9138 26.7599C28.7989 26.6489 28.645 26.5874 28.4852 26.5888C28.3254 26.5902 28.1726 26.6543 28.0596 26.7673C27.9466 26.8803 27.8825 27.0331 27.8811 27.1929C27.8797 27.3527 27.9412 27.5066 28.0522 27.6215L35.8083 35.3777C35.9232 35.4887 36.0771 35.5501 36.2369 35.5487C36.3967 35.5473 36.5495 35.4832 36.6625 35.3702C36.7755 35.2572 36.8396 35.1044 36.841 34.9446C36.8424 34.7849 36.7809 34.6309 36.6699 34.516L28.9138 26.7599Z" fill="#252525"/>
</svg>
