<svg width="30" height="40" viewBox="0 0 30 40" fill="none" xmlns="http://www.w3.org/2000/svg">
<path d="M26.6751 39.5H3.02846C1.57051 39.5 0.38229 38.3118 0.38229 36.8538V10.4213C0.38229 10.0714 0.666589 9.7871 1.0165 9.7871C1.3664 9.7871 1.6507 10.0714 1.6507 10.4213V36.8538C1.6507 37.6193 2.27033 38.2389 3.03575 38.2389H26.6824C27.4478 38.2389 28.0674 37.6193 28.0674 36.8538V3.14617C28.0674 2.38075 27.4478 1.76112 26.6824 1.76112H3.02846C2.26304 1.76112 1.64341 2.38075 1.64341 3.14617V5.55178C1.64341 5.90168 1.35911 6.18598 1.00921 6.18598C0.659299 6.18598 0.375 5.90168 0.375 5.55178V3.14617C0.375 1.68822 1.56322 0.5 3.02117 0.5H26.6678C28.1257 0.5 29.314 1.68822 29.314 3.14617V36.8465C29.3213 38.3118 28.133 39.5 26.6751 39.5Z" fill="#252525"/>
<path d="M24.7297 35.0823H4.97014C4.62024 35.0823 4.33594 34.798 4.33594 34.4481V22.0265C4.33594 21.6765 4.62024 21.3922 4.97014 21.3922C5.32005 21.3922 5.60435 21.6765 5.60435 22.0265V33.8139H24.1028V6.18589H5.40307C5.05316 6.18589 4.76887 5.90159 4.76887 5.55169C4.76887 5.20178 5.05316 4.91748 5.40307 4.91748H24.7297C25.0796 4.91748 25.3639 5.20178 25.3639 5.55169V34.4481C25.3567 34.798 25.0796 35.0823 24.7297 35.0823Z" fill="#252525"/>
<path d="M20.8947 31.176H8.65831C8.26315 31.176 7.94531 30.8582 7.94531 30.463C7.94531 30.0678 8.26315 29.75 8.65831 29.75H20.8947C21.2899 29.75 21.6077 30.0678 21.6077 30.463C21.5991 30.8582 21.2813 31.176 20.8947 31.176Z" fill="#252525"/>
<path d="M20.8284 21.1373H7.55662C7.2213 21.1373 6.95158 20.8821 6.92971 20.5468L6.30279 11.1941C6.28821 11.0191 6.35382 10.8515 6.47046 10.7203C6.58709 10.589 6.75475 10.5234 6.92971 10.5234H21.4553C21.6302 10.5234 21.7979 10.5963 21.9145 10.7203C22.0312 10.8442 22.0968 11.0191 22.0822 11.1941L21.4553 20.5468C21.4334 20.8748 21.1637 21.1373 20.8284 21.1373ZM8.14709 19.8761H20.2379L20.7846 11.7846H7.60765L8.14709 19.8761Z" fill="#252525"/>
<path d="M21.047 16.9349H7.34514C6.99524 16.9349 6.71094 16.6506 6.71094 16.3007C6.71094 15.9508 6.99524 15.6665 7.34514 15.6665H21.047C21.3969 15.6665 21.6812 15.9508 21.6812 16.3007C21.6739 16.6506 21.3896 16.9349 21.047 16.9349Z" fill="#252525"/>
<path d="M6.93033 11.7773C6.6023 11.7773 6.33258 11.5295 6.30342 11.1942L6.07744 8.39491H3.16155C2.81164 8.4022 2.52734 8.1179 2.52734 7.76799C2.52734 7.41809 2.81164 7.13379 3.16155 7.13379H6.66061C6.98865 7.13379 7.26566 7.38893 7.28753 7.71697L7.56454 11.0994C7.5937 11.4493 7.33127 11.7482 6.98865 11.7773C6.96678 11.7773 6.94491 11.7773 6.93033 11.7773Z" fill="#252525"/>
<path d="M11.0758 26.2633C9.94585 26.2633 9.02734 25.3448 9.02734 24.2149C9.02734 23.085 9.94585 22.1665 11.0758 22.1665C12.2057 22.1665 13.1242 23.085 13.1242 24.2149C13.1242 25.3448 12.2057 26.2633 11.0758 26.2633ZM11.0758 23.4349C10.6457 23.4349 10.2885 23.7848 10.2885 24.2222C10.2885 24.6596 10.6384 25.0095 11.0758 25.0095C11.5058 25.0095 11.863 24.6596 11.863 24.2222C11.863 23.7848 11.5131 23.4349 11.0758 23.4349Z" fill="#252525"/>
<path d="M18.1812 26.2633C17.0513 26.2633 16.1328 25.3448 16.1328 24.2149C16.1328 23.085 17.0513 22.1665 18.1812 22.1665C19.3111 22.1665 20.2296 23.085 20.2296 24.2149C20.2296 25.3448 19.3111 26.2633 18.1812 26.2633ZM18.1812 23.4349C17.7511 23.4349 17.3939 23.7848 17.3939 24.2222C17.3939 24.6596 17.7438 25.0095 18.1812 25.0095C18.6113 25.0095 18.9685 24.6596 18.9685 24.2222C18.9685 23.7848 18.6186 23.4349 18.1812 23.4349Z" fill="#252525"/>
</svg>
