<svg width="140" height="141" viewBox="0 0 140 141" fill="none" xmlns="http://www.w3.org/2000/svg">
<path d="M71.5877 113.253C71.5648 113.253 71.5424 113.253 71.5194 113.253C71.3286 113.244 71.142 113.194 70.9715 113.108C70.801 113.022 70.6505 112.901 70.5295 112.753L68.184 109.887C68.0703 109.748 67.9851 109.588 67.9333 109.416C67.8814 109.244 67.8639 109.064 67.8818 108.885C67.8997 108.706 67.9526 108.533 68.0374 108.375C68.1223 108.216 68.2375 108.076 68.3765 107.963C68.5155 107.849 68.6755 107.764 68.8474 107.712C69.0192 107.66 69.1997 107.643 69.3783 107.661C69.557 107.678 69.7303 107.731 69.8886 107.816C70.0468 107.901 70.1867 108.016 70.3004 108.155L71.6889 109.851L74.9209 106.619C75.1788 106.37 75.5242 106.232 75.8826 106.235C76.2411 106.239 76.584 106.382 76.8375 106.636C77.091 106.889 77.2348 107.232 77.2379 107.591C77.241 107.949 77.1032 108.294 76.8541 108.552L72.5541 112.852C72.2979 113.109 71.9503 113.253 71.5877 113.253V113.253Z" fill="#E7142D"/>
<path d="M31.0244 46.0983C31.3774 47.1906 31.9838 48.1838 32.7941 48.9967L53.1876 69.3903C53.4444 69.6448 53.7915 69.7873 54.1531 69.7866C54.5146 69.7859 54.8612 69.6419 55.1169 69.3863C55.3726 69.1307 55.5166 68.7842 55.5175 68.4226C55.5183 68.061 55.3759 67.7139 55.1214 67.457L35.6942 48.0288L44.9539 38.7669L67.6492 61.4622C67.9071 61.7113 68.2524 61.8491 68.6109 61.8459C68.9694 61.8428 69.3123 61.699 69.5658 61.4456C69.8192 61.1921 69.963 60.8492 69.9661 60.4907C69.9693 60.1322 69.8315 59.7869 69.5824 59.529L45.923 35.8668C45.1104 35.0558 44.1171 34.4491 43.0245 34.0966L30.7986 30.1591C30.282 29.9938 29.7298 29.9739 29.2027 30.1017C28.6756 30.2295 28.1938 30.5 27.8103 30.8835C27.4267 31.267 27.1562 31.7488 27.0284 32.2759C26.9007 32.8031 26.9205 33.3552 27.0858 33.8718L31.0244 46.0983ZM42.8665 36.9896L33.9174 45.9386C33.802 45.7208 33.7048 45.4938 33.627 45.2599L31.5489 38.8068L35.7341 34.6216L42.1872 36.6997C42.4212 36.7777 42.6483 36.8746 42.8665 36.9896V36.9896ZM29.7415 32.8153C29.7683 32.7853 29.8034 32.764 29.8424 32.7543C29.8814 32.7445 29.9225 32.7467 29.9602 32.7606L32.8072 33.6777L30.6066 35.8832L29.6895 33.0351C29.675 32.9974 29.6723 32.9562 29.6818 32.9169C29.6913 32.8776 29.7125 32.8422 29.7426 32.8153H29.7415Z" fill="#505050"/>
<path d="M112.73 102.674L82.5575 72.5014C82.4314 72.3708 82.2806 72.2666 82.1138 72.195C81.947 72.1233 81.7676 72.0856 81.586 72.084C81.4045 72.0825 81.2245 72.117 81.0564 72.1858C80.8884 72.2545 80.7358 72.3561 80.6074 72.4844C80.479 72.6128 80.3775 72.7654 80.3088 72.9335C80.24 73.1015 80.2054 73.2815 80.207 73.463C80.2086 73.6446 80.2463 73.824 80.318 73.9908C80.3896 74.1576 80.4938 74.3085 80.6243 74.4346L105.478 99.2889L96.2163 108.551L74.8428 87.18C74.7167 87.0495 74.5658 86.9453 74.399 86.8737C74.2322 86.802 74.0528 86.7643 73.8713 86.7627C73.6897 86.7611 73.5097 86.7957 73.3417 86.8645C73.1736 86.9332 73.021 87.0347 72.8926 87.1631C72.7643 87.2915 72.6627 87.4441 72.594 87.6121C72.5253 87.7802 72.4907 87.9602 72.4922 88.1417C72.4938 88.3233 72.5315 88.5027 72.6032 88.6695C72.6748 88.8363 72.779 88.9871 72.9096 89.1132L99.6009 115.805C101.046 117.247 103.004 118.056 105.046 118.056C107.087 118.056 109.045 117.247 110.491 115.805L112.73 113.566C114.172 112.12 114.982 110.162 114.982 108.12C114.982 106.078 114.172 104.119 112.73 102.674ZM110.798 111.63L108.555 113.868C107.623 114.797 106.361 115.319 105.044 115.319C103.728 115.319 102.465 114.797 101.533 113.868L98.1479 110.483L107.41 101.221L110.795 104.605C111.726 105.536 112.249 106.8 112.249 108.117C112.249 109.434 111.726 110.697 110.795 111.628L110.798 111.63Z" fill="#505050"/>
<path d="M70.4227 84.9185L75.2636 80.0781C75.7535 79.5881 76.0287 78.9236 76.0287 78.2308C76.0287 77.5379 75.7535 76.8735 75.2636 76.3835L74.0605 75.1803L101.418 47.8185L104.212 47.1743C105.445 46.8908 106.529 46.1584 107.251 45.1197L113.933 35.5335C114.284 35.0306 114.447 34.42 114.393 33.809C114.338 33.198 114.071 32.6255 113.637 32.1921L110.298 28.8562C109.865 28.4219 109.293 28.1541 108.682 28.1C108.071 28.0459 107.46 28.2089 106.957 28.5603L97.3705 35.241C96.332 35.9639 95.5996 37.0473 95.3159 38.2805L94.6711 41.075L67.3121 68.4341L66.109 67.231C65.6188 66.7419 64.9546 66.4672 64.2622 66.4672C63.5697 66.4672 62.9055 66.7419 62.4154 67.231L57.5744 72.0719C56.8835 71.9948 56.1841 72.0741 55.5279 72.304C54.8718 72.5338 54.2758 72.9083 53.784 73.3997L26.3757 100.8C25.5049 101.671 25.0156 102.853 25.0156 104.084C25.0156 105.316 25.5049 106.497 26.3757 107.368L35.1219 116.114C35.5531 116.545 36.065 116.887 36.6284 117.121C37.1919 117.354 37.7958 117.474 38.4056 117.474C39.0155 117.474 39.6194 117.354 40.1828 117.121C40.7463 116.887 41.2582 116.545 41.6893 116.114L69.0949 88.7106C69.5864 88.2185 69.961 87.6222 70.1908 86.9658C70.4207 86.3094 70.4999 85.6097 70.4227 84.9185ZM97.9808 38.8903C98.1121 38.3179 98.4519 37.8151 98.934 37.4799L108.437 30.8572L111.631 34.051L105.008 43.5535C104.673 44.0356 104.17 44.3757 103.598 44.5078L101.16 45.0699L97.4181 41.3282L97.9808 38.8903ZM95.9153 43.6924L98.7951 46.5728L72.1251 73.2449L69.2453 70.3645L95.9153 43.6924ZM64.2578 69.2462L73.2424 78.2303L69.2059 82.2667C69.1676 82.2252 69.1332 82.182 69.0933 82.1415L60.3471 73.3953C60.3066 73.3549 60.2629 73.3204 60.2218 73.2821L64.2578 69.2462ZM67.16 86.7763L39.7578 114.181C39.394 114.528 38.9103 114.722 38.4073 114.722C37.9042 114.722 37.4205 114.528 37.0568 114.181L28.3095 105.435C28.1321 105.258 27.9914 105.047 27.8954 104.815C27.7994 104.584 27.75 104.335 27.75 104.084C27.75 103.833 27.7994 103.585 27.8954 103.353C27.9914 103.122 28.1321 102.911 28.3095 102.734L55.7145 75.3285C56.0732 74.9715 56.5587 74.7711 57.0647 74.7711C57.5708 74.7711 58.0563 74.9715 58.415 75.3285L67.1617 84.0747C67.519 84.4334 67.7196 84.9191 67.7196 85.4255C67.7196 85.9318 67.519 86.4175 67.1617 86.7763H67.16Z" fill="#505050"/>
<path d="M72.4265 99.29C70.3944 99.2901 68.4079 99.8928 66.7183 101.022C65.0287 102.151 63.7119 103.756 62.9343 105.633C62.1567 107.511 61.9533 109.576 62.3498 111.57C62.7464 113.563 63.725 115.393 65.1619 116.83C66.5989 118.267 68.4297 119.246 70.4227 119.642C72.4158 120.038 74.4817 119.835 76.3591 119.057C78.2365 118.28 79.8412 116.963 80.9702 115.273C82.0991 113.583 82.7017 111.597 82.7017 109.565C82.6985 106.841 81.6149 104.229 79.6886 102.303C77.7623 100.377 75.1506 99.2931 72.4265 99.29V99.29ZM72.4265 117.105C70.9352 117.105 69.4774 116.663 68.2375 115.834C66.9975 115.005 66.0312 113.828 65.4605 112.45C64.8899 111.072 64.7407 109.556 65.0317 108.093C65.3227 106.631 66.0409 105.287 67.0954 104.233C68.15 103.178 69.4935 102.46 70.9562 102.169C72.4189 101.878 73.9349 102.028 75.3127 102.598C76.6905 103.169 77.8681 104.136 78.6966 105.376C79.5251 106.616 79.9673 108.073 79.9673 109.565C79.9656 111.564 79.1705 113.481 77.7567 114.895C76.3429 116.309 74.4259 117.103 72.4265 117.105Z" fill="#505050"/>
<path d="M60.0422 39.3204L61.9475 39.8126L60.9467 41.5079C60.6588 41.9982 60.5416 42.5702 60.6134 43.1343C60.6852 43.6983 60.9421 44.2226 61.3438 44.6251L63.2709 46.5529C63.6738 46.9551 64.1988 47.2122 64.7635 47.2839C65.3283 47.3555 65.9009 47.2377 66.3914 46.9488L68.0867 45.948L68.5789 47.855C68.7218 48.4059 69.0436 48.8939 69.4937 49.2423C69.9438 49.5907 70.4969 49.7798 71.0661 49.78H73.7901C74.3594 49.7797 74.9126 49.5905 75.3627 49.2419C75.8129 48.8932 76.1346 48.405 76.2773 47.8539L76.7695 45.948L78.4648 46.9493C78.9551 47.2373 79.527 47.3545 80.0911 47.2827C80.6552 47.2108 81.1795 46.954 81.582 46.5523L83.5086 44.6251C83.9108 44.2223 84.168 43.6973 84.2396 43.1325C84.3113 42.5678 84.1934 41.9952 83.9045 41.5047L82.9048 39.8093L84.8112 39.3172C85.3621 39.1743 85.85 38.8526 86.1984 38.4026C86.5468 37.9525 86.736 37.3996 86.7363 36.8305V34.1093C86.736 33.5401 86.5468 32.9872 86.1984 32.5372C85.85 32.0872 85.3621 31.7655 84.8112 31.6226V31.6226L82.9059 31.1304L83.9067 29.4351C84.1947 28.9448 84.3119 28.3728 84.24 27.8088C84.1682 27.2447 83.9113 26.7204 83.5097 26.3179L81.583 24.3918C81.1803 23.9893 80.6553 23.7319 80.0904 23.66C79.5255 23.5882 78.9527 23.7059 78.462 23.9948L76.7667 24.995L76.2745 23.0881C76.1316 22.5372 75.81 22.0493 75.3599 21.7009C74.9099 21.3526 74.357 21.1634 73.7879 21.1631H71.0639C70.495 21.1631 69.9422 21.3519 69.4921 21.6999C69.042 22.0479 68.72 22.5353 68.5767 23.0859L68.0845 24.9912L66.3892 23.9904C65.8988 23.7026 65.3268 23.5854 64.7628 23.6574C64.1987 23.7293 63.6744 23.9863 63.272 24.388L61.3459 26.3136C60.9435 26.7164 60.6862 27.2414 60.6144 27.8063C60.5426 28.3712 60.6605 28.9439 60.9495 29.4346L61.9491 31.1299L60.0427 31.6221C59.4917 31.7649 59.0037 32.0865 58.6553 32.5365C58.3068 32.9865 58.1175 33.5395 58.1172 34.1087V36.8327C58.1172 37.402 58.3063 37.9552 58.6547 38.4054C59.0031 38.8557 59.4911 39.1775 60.0422 39.3204V39.3204ZM60.8499 34.2345L64.3904 33.3223C64.5955 33.2693 64.7855 33.1694 64.9454 33.0304C65.1053 32.8915 65.2307 32.7172 65.3117 32.5215C65.3928 32.3258 65.4272 32.1139 65.4123 31.9025C65.3975 31.6912 65.3337 31.4862 65.226 31.3038L63.3666 28.1554L65.1112 26.4109L68.2595 28.2703C68.442 28.378 68.6471 28.4419 68.8585 28.4568C69.0699 28.4717 69.2819 28.4372 69.4778 28.3561C69.6736 28.275 69.8479 28.1495 69.9869 27.9895C70.1258 27.8295 70.2257 27.6393 70.2786 27.4341L71.1908 23.8936H73.6577L74.5699 27.4341C74.6228 27.6393 74.7227 27.8295 74.8617 27.9895C75.0006 28.1495 75.1749 28.275 75.3708 28.3561C75.5666 28.4372 75.7786 28.4717 75.99 28.4568C76.2014 28.4419 76.4065 28.378 76.589 28.2703L79.7373 26.4109L81.4819 28.1554L79.6225 31.3038C79.5148 31.4862 79.4511 31.6912 79.4362 31.9025C79.4213 32.1139 79.4557 32.3258 79.5368 32.5215C79.6178 32.7172 79.7432 32.8915 79.9031 33.0304C80.063 33.1694 80.253 33.2693 80.4581 33.3223L83.998 34.2345V36.7031L80.4587 37.6147C80.2534 37.6676 80.0633 37.7675 79.9033 37.9065C79.7432 38.0455 79.6177 38.2197 79.5366 38.4156C79.4555 38.6114 79.4211 38.8234 79.436 39.0348C79.4509 39.2462 79.5147 39.4513 79.6225 39.6338L81.4819 42.7816L79.7373 44.5267L76.589 42.6673C76.4064 42.5596 76.2013 42.4957 75.9899 42.4809C75.7784 42.466 75.5664 42.5005 75.3706 42.5816C75.1747 42.6628 75.0005 42.7884 74.8615 42.9485C74.7226 43.1085 74.6227 43.2987 74.5699 43.504L73.6577 47.0439H71.1908L70.2786 43.504C70.2258 43.2987 70.1259 43.1085 69.987 42.9485C69.848 42.7884 69.6738 42.6628 69.4779 42.5816C69.2821 42.5005 69.0701 42.466 68.8586 42.4809C68.6472 42.4957 68.4421 42.5596 68.2595 42.6673L65.1112 44.5267L63.3666 42.7816L65.226 39.6338C65.3338 39.4513 65.3976 39.2462 65.4125 39.0348C65.4274 38.8234 65.393 38.6114 65.3119 38.4156C65.2308 38.2197 65.1053 38.0455 64.9452 37.9065C64.7852 37.7675 64.5951 37.6676 64.3898 37.6147L60.8499 36.7031V34.2345Z" fill="#505050"/>
<path d="M72.4259 41.015C71.3296 41.015 70.258 40.6899 69.3464 40.0808C68.4349 39.4718 67.7244 38.6061 67.3048 37.5932C66.8853 36.5804 66.7754 35.4659 66.9893 34.3906C67.2031 33.3154 67.731 32.3277 68.5062 31.5525C69.2813 30.7772 70.269 30.2492 71.3442 30.0353C72.4194 29.8213 73.5339 29.931 74.5468 30.3505C75.5597 30.77 76.4255 31.4804 77.0346 32.3918C77.6438 33.3033 77.969 34.375 77.9691 35.4713C77.9676 36.941 77.3832 38.3502 76.344 39.3895C75.3047 40.4288 73.8957 41.0134 72.4259 41.015V41.015ZM72.4259 32.6631C71.8704 32.6631 71.3273 32.8278 70.8654 33.1365C70.4035 33.4451 70.0435 33.8838 69.8309 34.3971C69.6184 34.9104 69.5628 35.4751 69.6712 36.02C69.7796 36.5649 70.0472 37.0653 70.44 37.4581C70.8329 37.8509 71.3334 38.1184 71.8783 38.2267C72.4232 38.335 72.988 38.2793 73.5012 38.0666C74.0144 37.854 74.453 37.4939 74.7616 37.0319C75.0702 36.5699 75.2348 36.0268 75.2347 35.4713C75.234 34.7266 74.9378 34.0127 74.4112 33.4862C73.8846 32.9597 73.1706 32.6637 72.4259 32.6631V32.6631Z" fill="#E7142D"/>
</svg>
