<svg width="140" height="141" viewBox="0 0 140 141" fill="none" xmlns="http://www.w3.org/2000/svg">
<path d="M45.6995 73.2876V70.2207H50.5476V73.2876L49.7535 73.9777L51.7802 85.2592L48.2146 97.2434L44.5664 85.2592L46.6292 73.9777L45.6995 73.2876Z" fill="#E7142D"/>
<path d="M41.6427 101.851H34.5722C34.3059 101.851 34.0898 101.635 34.0898 101.369V99.4404C34.0898 99.174 34.3059 98.958 34.5722 98.958H41.6427C41.9091 98.958 42.1251 99.174 42.1251 99.4404V101.369C42.1245 101.635 41.9085 101.851 41.6427 101.851Z" fill="#E7142D"/>
<path d="M54.787 101.851H61.8576C62.1239 101.851 62.3399 101.635 62.3399 101.369V99.4404C62.3399 99.174 62.1239 98.958 61.8576 98.958H54.787C54.5207 98.958 54.3047 99.174 54.3047 99.4404V101.369C54.3047 101.635 54.5207 101.851 54.787 101.851Z" fill="#E7142D"/>
<path d="M128.517 14.0801H11.1211C10.3659 14.0801 9.75391 14.692 9.75391 15.4473V89.5691C9.75391 90.3243 10.3659 90.9362 11.1211 90.9362H16.3164C17.0716 90.9362 17.6836 90.3243 17.6836 89.5691C17.6836 88.8138 17.0716 88.2019 16.3164 88.2019H12.4883V16.8145H127.15V88.2019H84.2755C83.5202 88.2019 82.9083 88.8138 82.9083 89.5691C82.9083 90.3243 83.5202 90.9362 84.2755 90.9362H128.517C129.272 90.9362 129.884 90.3243 129.884 89.5691V15.4473C129.884 14.692 129.272 14.0801 128.517 14.0801Z" fill="#505050"/>
<path d="M53.9545 50.0458C54.9283 50.0458 55.7177 49.2564 55.7177 48.2827C55.7177 47.3089 54.9283 46.5195 53.9545 46.5195C52.9808 46.5195 52.1914 47.3089 52.1914 48.2827C52.1914 49.2564 52.9808 50.0458 53.9545 50.0458Z" fill="#505050"/>
<path d="M42.2944 50.0458C43.2681 50.0458 44.0575 49.2564 44.0575 48.2827C44.0575 47.3089 43.2681 46.5195 42.2944 46.5195C41.3206 46.5195 40.5312 47.3089 40.5312 48.2827C40.5312 49.2564 41.3206 50.0458 42.2944 50.0458Z" fill="#505050"/>
<path d="M50.1641 55.0443C49.6178 55.5901 48.8926 55.8908 48.1221 55.8908C47.3515 55.8908 46.6263 55.5901 46.0806 55.0443C45.5463 54.51 44.6811 54.51 44.1468 55.0443C43.6125 55.578 43.6125 56.4437 44.1468 56.9775C45.2094 58.0401 46.6209 58.6252 48.1226 58.6252C49.6238 58.6252 51.0353 58.0406 52.0978 56.9775C52.6321 56.4432 52.6321 55.578 52.0978 55.0443C51.5641 54.5105 50.6978 54.5105 50.1641 55.0443Z" fill="#505050"/>
<path d="M48.1237 29.5391C39.2999 29.5391 32.1211 36.5402 32.1211 45.1458C32.1211 45.551 32.301 45.9355 32.6122 46.1952C32.9234 46.4561 33.333 46.5622 33.7327 46.4911C37.0752 45.8841 40.6201 44.6886 42.4811 40.7073C46.3448 44.4616 52.8302 46.846 59.012 46.846C60.3688 46.8455 61.7119 46.7306 63.0086 46.4905C63.6566 46.3702 64.1264 45.8053 64.1264 45.1463C64.1259 36.5396 56.947 29.5391 48.1237 29.5391ZM43.0794 37.2347C42.8202 36.8694 42.4023 36.6588 41.9648 36.6588C41.879 36.6588 41.7926 36.667 41.7062 36.6834C41.1801 36.7852 40.7612 37.1844 40.6354 37.705C39.8818 40.8277 38.2893 42.4863 34.9752 43.41C35.8524 37.1297 41.4147 32.2734 48.1237 32.2734C55.0341 32.2734 60.727 37.4255 61.3379 43.9777C54.4817 44.7805 46.3491 41.841 43.0794 37.2347Z" fill="#505050"/>
<path d="M35.0926 49.4873C34.9723 48.7414 34.2684 48.2306 33.5247 48.3558C32.7793 48.4761 32.2724 49.1778 32.3927 49.9232C33.8009 58.6485 40.4164 64.9819 48.1241 64.9819C55.8317 64.9819 62.4473 58.6485 63.8555 49.9232C63.9758 49.1778 63.4688 48.4761 62.7234 48.3558C61.9742 48.2306 61.2759 48.7425 61.1556 49.4873C59.9628 56.8816 54.482 62.2475 48.1241 62.2475C41.7661 62.2475 36.2853 56.8816 35.0926 49.4873Z" fill="#505050"/>
<path d="M90.652 78.6623L96.234 73.0809C98.649 70.6659 98.649 66.736 96.234 64.321C93.8185 61.9055 89.8892 61.9066 87.4747 64.321L81.8927 69.903L74.2431 77.5527L66.618 69.9276C66.3615 69.6711 66.0142 69.5273 65.6511 69.5273H57.4201V66.8388C57.4201 66.3795 57.1898 65.9512 56.8065 65.698C56.4231 65.4443 55.9381 65.4011 55.5164 65.581L48.1254 68.7337L40.7344 65.581C40.3122 65.4022 39.8277 65.4448 39.4443 65.698C39.0609 65.9512 38.8307 66.38 38.8307 66.8394V69.5278H28.573C23.7298 69.5278 19.7891 73.4686 19.7891 78.3117V114.832C19.7891 118.247 22.5672 121.024 25.9813 121.024C28.4089 121.024 30.5084 119.617 31.5234 117.578C35.9066 120.657 41.8331 122.397 48.1254 122.397L48.2123 122.397C48.214 122.397 48.2151 122.397 48.2162 122.397C48.2173 122.397 48.2189 122.397 48.22 122.397L48.307 122.397C55.4059 122.397 62.0445 120.186 66.5195 116.332C66.8405 116.055 67.009 115.651 66.9926 115.243V87.8459L70.1666 91.0506C72.3963 93.2797 76.0319 93.2873 78.2713 91.0665L82.0579 87.3094C82.1328 87.2351 82.1968 87.1519 82.2509 87.0628L90.6504 78.6628C90.6509 78.6628 90.6515 78.6628 90.652 78.6623ZM89.4079 66.2542C90.7565 64.9051 92.9511 64.9062 94.3002 66.2542C95.6494 67.6034 95.6494 69.798 94.3002 71.1471L89.6857 75.7616L84.7934 70.8693L89.4079 66.2542ZM55.2725 86.3322L57.2588 87.9739L49.5834 97.8598V97.4425L57.0723 72.2622H62.1708L59.3347 82.3209L55.576 84.0353C55.1473 84.2305 54.8492 84.633 54.788 85.1001C54.7262 85.5666 54.9094 86.0319 55.2725 86.3322ZM41.6444 85.0995C41.5826 84.6325 41.2851 84.23 40.8563 84.0348L37.0977 82.3203L34.2616 72.2616H39.1845L46.8484 97.4458V97.8598L39.173 87.9739L41.1593 86.3322C41.523 86.0319 41.7062 85.5666 41.6444 85.0995ZM41.5651 68.9087L47.5889 71.478C47.9318 71.6245 48.319 71.6245 48.6619 71.478L54.6857 68.9087V70.6959L48.202 92.4977L41.5651 70.6916V68.9087ZM28.573 72.2622H31.4205L34.6378 83.6727C34.7472 84.0594 35.0206 84.3787 35.3865 84.5455L37.7342 85.6163L36.4097 86.7112C35.8404 87.1815 35.748 88.0198 36.2008 88.6034L46.849 102.319V119.636C41.1336 119.404 35.8781 117.619 32.1736 114.647V88.1407C32.1736 87.3855 31.5616 86.7735 30.8064 86.7735C30.0512 86.7735 29.4392 87.3855 29.4392 88.1407V106.112H22.5234V78.3117C22.5234 74.9763 25.2376 72.2622 28.573 72.2622ZM25.9813 118.29C24.0749 118.29 22.5234 116.739 22.5234 114.833V108.846H29.4392V114.832C29.4392 116.739 27.8883 118.29 25.9813 118.29ZM80.1017 85.3456C80.0263 85.4211 79.9623 85.5031 79.9087 85.5906L76.3458 89.1256C75.1727 90.2894 73.2691 90.285 72.1053 89.1223L66.6251 83.588C66.3752 83.3205 66.0191 83.1532 65.6243 83.1532C65.0725 83.1532 64.5748 83.4846 64.3627 83.9943C64.2828 84.1857 64.2489 84.388 64.2588 84.5871V114.655C60.5542 117.624 55.296 119.403 49.5834 119.635V102.318L60.2316 88.6023C60.6849 88.0187 60.592 87.1804 60.0227 86.7101L58.6981 85.6152L61.0459 84.5444C61.4117 84.3777 61.6852 84.0583 61.7945 83.6716L65.0118 72.2611H65.084L72.5018 79.6789C72.9667 80.1443 73.5846 80.3997 74.242 80.3997C74.8993 80.3997 75.5178 80.1437 75.9821 79.6789L82.8585 72.8025L87.7509 77.6948L80.1017 85.3456Z" fill="#505050"/>
<path d="M105.148 47.588C104.363 48.1387 103.554 48.5494 102.785 48.7884L102.176 48.9771L100.639 50.5138L92.4802 58.6726L92.9013 59.0937L92.1155 59.8796C91.9667 60.0283 91.9667 60.2695 92.1155 60.4182L93.2295 61.5322C93.3782 61.681 93.6194 61.681 93.7681 61.5322L94.554 60.7464L94.9751 61.1675L103.134 53.0086L104.671 51.4719L104.86 50.8627C105.099 50.0927 105.51 49.2844 106.06 48.4991L106.184 48.3225L105.326 47.4639L105.148 47.588Z" fill="#E7142D"/>
<path d="M107.1 46.548C106.926 46.3746 106.645 46.3746 106.471 46.548L105.853 47.1665C105.778 47.2409 105.778 47.3612 105.853 47.4361L106.212 47.7954C106.286 47.8698 106.407 47.8698 106.482 47.7954L107.1 47.1769C107.273 47.003 107.273 46.7213 107.1 46.548Z" fill="#E7142D"/>
</svg>
