<svg width="120" height="120" viewBox="0 0 120 120" fill="none" xmlns="http://www.w3.org/2000/svg">
<path d="M82.8338 85.7422H16.9219V92.5836H82.8338V85.7422Z" fill="white"/>
<path d="M75.9889 63.6847V79.1361C75.9889 80.0338 76.7164 80.7613 77.6141 80.7613H88.1764C89.0741 80.7613 89.8016 80.0338 89.8016 79.1361V63.6847C89.8016 62.787 90.5291 62.0595 91.4267 62.0595H95.8114C97.1534 62.0595 97.917 60.5248 97.1075 59.4542L84.1916 42.3772C83.5414 41.5175 82.2495 41.5175 81.5994 42.3772L68.6834 59.4547C67.8739 60.5253 68.6375 62.06 69.9795 62.06H74.3642C75.2614 62.06 75.9889 62.7875 75.9889 63.6847Z" fill="#E7142D"/>
<path d="M82.8337 25.5H16.9219C16.2745 25.5 15.75 26.0245 15.75 26.6719V92.5838C15.75 93.2311 16.2745 93.7556 16.9219 93.7556H82.8333C83.4806 93.7556 84.0051 93.2311 84.0051 92.5838V85.7423C84.0051 85.095 83.4806 84.5705 82.8333 84.5705C82.1859 84.5705 81.6614 85.095 81.6614 85.7423V91.4119H18.0937V27.8438H38.5017V47.0803C38.5017 47.7277 39.0262 48.2522 39.6736 48.2522H60.0816C60.7289 48.2522 61.2534 47.7277 61.2534 47.0803V27.8438H81.6614V37.8028C81.6614 38.4502 82.1859 38.9747 82.8333 38.9747C83.4806 38.9747 84.0051 38.4502 84.0051 37.8028V26.6719C84.0056 26.0245 83.4811 25.5 82.8337 25.5ZM58.9102 45.908H40.8459V27.8438H58.9102V45.908Z" fill="#505050"/>
<path d="M38.2945 68.9727H29.3672C28.7198 68.9727 28.1953 69.4972 28.1953 70.1445C28.1953 70.7919 28.7198 71.3164 29.3672 71.3164H38.2945C38.9419 71.3164 39.4664 70.7919 39.4664 70.1445C39.4664 69.4972 38.9419 68.9727 38.2945 68.9727Z" fill="#505050"/>
<path d="M38.2945 79.5889H29.3672C28.7198 79.5889 28.1953 80.1134 28.1953 80.7607C28.1953 81.4081 28.7198 81.9326 29.3672 81.9326H38.2945C38.9419 81.9326 39.4664 81.4081 39.4664 80.7607C39.4664 80.1134 38.9419 79.5889 38.2945 79.5889Z" fill="#505050"/>
<path d="M103.118 35.2404L96.4298 26.3988C96.0464 25.8912 95.4614 25.5996 94.8248 25.5996C94.8243 25.5996 94.8243 25.5996 94.8239 25.5996C94.1878 25.5996 93.6028 25.8907 93.2179 26.3988L86.5307 35.2409C86.0667 35.8545 85.9912 36.663 86.3334 37.3521C86.6756 38.0407 87.3665 38.4687 88.1362 38.4687H90.0764V46.1388C90.0764 47.2488 90.9797 48.1521 92.0897 48.1521H97.5586C98.6686 48.1521 99.5718 47.2488 99.5718 46.1388V38.4682H101.512C102.282 38.4682 102.972 38.0402 103.315 37.3516C103.657 36.663 103.582 35.854 103.118 35.2404ZM99.2418 36.1245C98.1318 36.1245 97.2286 37.0277 97.2286 38.1377V45.8079H92.4206V38.1377C92.4206 37.0277 91.5173 36.1245 90.4073 36.1245H88.8009L94.8243 28.1604L100.848 36.1245H99.2418Z" fill="#505050"/>
<path d="M61.4764 87.0945H66.9453C68.0553 87.0945 68.9586 86.1912 68.9586 85.0812V77.4111H70.8988C71.6684 77.4111 72.3584 76.9831 72.7016 76.2945C73.0438 75.6059 72.9683 74.7968 72.5047 74.1832L65.8166 65.3412C65.4331 64.8336 64.8481 64.542 64.2116 64.542C64.2111 64.542 64.2111 64.542 64.2106 64.542C63.5745 64.542 62.9895 64.8331 62.6047 65.3412L55.917 74.1832C55.4534 74.7968 55.378 75.6059 55.7202 76.2945C56.0628 76.9836 56.7533 77.4111 57.523 77.4111H59.4627V85.0812C59.4627 86.1912 60.3659 87.0945 61.4764 87.0945ZM58.1877 75.0673L64.2111 67.1032L70.235 75.0673H68.6286C67.5186 75.0673 66.6153 75.9706 66.6153 77.0806V84.7507H61.8069V77.0806C61.8069 75.9706 60.9036 75.0673 59.7936 75.0673H58.1877Z" fill="#505050"/>
</svg>
