<svg width="120" height="120" viewBox="0 0 120 120" fill="none" xmlns="http://www.w3.org/2000/svg">
<path d="M104.654 43.6987V77.9519C104.658 78.5673 104.54 79.1774 104.307 79.7471C104.075 80.3167 103.731 80.8347 103.298 81.2712C102.864 81.7077 102.348 82.0541 101.78 82.2905C101.212 82.5269 100.602 82.6486 99.9869 82.6486H91.2938L86.8305 89.6497C86.7811 89.7438 86.7068 89.8226 86.6158 89.8775C86.5248 89.9325 86.4205 89.9615 86.3142 89.9615C86.2079 89.9615 86.1036 89.9325 86.0126 89.8775C85.9216 89.8226 85.8474 89.7438 85.7979 89.6497L81.6263 82.6486H43.8784C42.6405 82.6486 41.4533 82.1568 40.578 81.2815C39.7027 80.4062 39.2109 79.219 39.2109 77.9811V43.6987C39.2109 42.4608 39.7027 41.2737 40.578 40.3983C41.4533 39.523 42.6405 39.0313 43.8784 39.0313H99.9694C100.584 39.029 101.193 39.148 101.761 39.3815C102.329 39.6151 102.846 39.9585 103.281 40.3921C103.716 40.8258 104.062 41.3411 104.297 41.9085C104.533 42.4759 104.654 43.0843 104.654 43.6987Z" fill="white"/>
<path d="M50.711 71.5519C51.4553 71.5519 52.0587 70.9485 52.0587 70.2042C52.0587 69.4598 51.4553 68.8564 50.711 68.8564C49.9667 68.8564 49.3633 69.4598 49.3633 70.2042C49.3633 70.9485 49.9667 71.5519 50.711 71.5519Z" fill="#DBCEC8"/>
<path d="M78.4311 73.2615C79.0078 73.2615 79.4754 72.794 79.4754 72.2172C79.4754 71.6404 79.0078 71.1729 78.4311 71.1729C77.8543 71.1729 77.3867 71.6404 77.3867 72.2172C77.3867 72.794 77.8543 73.2615 78.4311 73.2615Z" fill="#DBCEC8"/>
<path d="M98.8394 51.4004H49.1953" stroke="#E7142D" stroke-width="3.38601" stroke-miterlimit="10" stroke-linecap="round"/>
<path d="M98.8395 59.25H80.1172" stroke="#E7142D" stroke-width="3.38601" stroke-miterlimit="10" stroke-linecap="round"/>
<path d="M98.8384 67.2812H70.7812" stroke="#E7142D" stroke-width="3.38601" stroke-miterlimit="10" stroke-linecap="round"/>
<path d="M105 41.599V79.3878C105 80.1615 104.693 80.9035 104.146 81.4505C103.598 81.9976 102.856 82.305 102.083 82.305H91.6335L86.6452 90.1463L81.9778 82.305H42.4445C41.6708 82.305 40.9288 81.9976 40.3818 81.4505C39.8347 80.9035 39.5273 80.1615 39.5273 79.3878V43.3785C39.5273 42.1406 40.0191 40.9534 40.8944 40.0781C41.7697 39.2028 42.9569 38.711 44.1948 38.711H102.059C102.832 38.7048 103.576 39.0054 104.127 39.5469C104.678 40.0883 104.992 40.8263 105 41.599Z" stroke="#505050" stroke-width="3" stroke-miterlimit="10"/>
<path d="M15.3398 35.0171V69.2587C15.3475 70.4992 15.8458 71.6864 16.7257 72.5608C17.6057 73.4353 18.7959 73.9261 20.0365 73.9261H28.7121L33.1695 80.9273C33.2246 81.0153 33.3011 81.0878 33.392 81.1381C33.4828 81.1884 33.5849 81.2148 33.6887 81.2148C33.7926 81.2148 33.8947 81.1884 33.9855 81.1381C34.0763 81.0878 34.1529 81.0153 34.208 80.9273L38.3795 73.9261H76.1333C77.3712 73.9261 78.5584 73.4344 79.4337 72.5591C80.309 71.6837 80.8008 70.4966 80.8008 69.2587V35.023C80.8008 33.7851 80.309 32.5979 79.4337 31.7226C78.5584 30.8473 77.3712 30.3555 76.1333 30.3555H20.0306C19.4162 30.3525 18.8072 30.4707 18.2387 30.7035C17.6701 30.9364 17.153 31.2792 16.7172 31.7123C16.2814 32.1454 15.9354 32.6602 15.699 33.2274C15.4627 33.7945 15.3406 34.4027 15.3398 35.0171Z" fill="white"/>
<path d="M21.1602 42.707H70.8043" stroke="#E7142D" stroke-width="3.38601" stroke-miterlimit="10" stroke-linecap="round"/>
<path d="M21.1602 50.6475H39.8824" stroke="#E7142D" stroke-width="3.38601" stroke-miterlimit="10" stroke-linecap="round"/>
<path d="M21.1602 59.25H49.2173" stroke="#E7142D" stroke-width="3.38601" stroke-miterlimit="10" stroke-linecap="round"/>
<path d="M15 30.7935V72.8005C15 72.9059 15.0209 73.0103 15.0614 73.1077C15.1019 73.2051 15.1613 73.2934 15.2362 73.3677C15.311 73.442 15.3998 73.5008 15.4975 73.5406C15.5951 73.5804 15.6997 73.6005 15.8051 73.5998H27.923C28.0582 73.5997 28.1912 73.6339 28.3095 73.6992C28.4279 73.7645 28.5277 73.8588 28.5998 73.9732L33.3781 81.4527L37.818 74.0023C37.8898 73.8838 37.9907 73.7856 38.1113 73.7172C38.2318 73.6487 38.3678 73.6123 38.5064 73.6114H79.6908C79.7962 73.6122 79.9008 73.5921 79.9985 73.5523C80.0961 73.5125 80.1849 73.4537 80.2598 73.3794C80.3346 73.3051 80.394 73.2167 80.4345 73.1194C80.4751 73.022 80.4959 72.9176 80.4959 72.8121V30.8051C80.4959 30.5916 80.4111 30.3868 80.2601 30.2358C80.1091 30.0848 79.9043 30 79.6908 30H15.8051C15.5936 30 15.3906 30.0832 15.2399 30.2317C15.0892 30.3802 15.0031 30.582 15 30.7935V30.7935Z" stroke="#505050" stroke-width="3" stroke-miterlimit="10"/>
</svg>
