<svg width="120" height="120" viewBox="0 0 120 120" fill="none" xmlns="http://www.w3.org/2000/svg">
<g clip-path="url(#clip0_1661_25883)">
<path d="M101.249 20.25H81.6914V33.2862H101.249V20.25Z" fill="#E7142D"/>
<path d="M57.5735 51.0366C59.8252 51.3236 62.1103 50.8987 64.1083 49.8215C66.1064 48.7443 67.7172 47.0689 68.7151 45.0301C69.7129 42.9912 70.0477 40.6913 69.6725 38.4526C69.2973 36.2139 68.231 34.1488 66.6229 32.5467C65.0149 30.9446 62.9458 29.8859 60.7058 29.519C58.4657 29.1521 56.167 29.4954 54.1319 30.5008C52.0968 31.5062 50.4273 33.1232 49.3575 35.1252C48.2878 37.1272 47.8713 39.4138 48.1666 41.6644C48.4769 44.0472 49.5686 46.2598 51.2708 47.9558C52.973 49.6517 55.1896 50.7352 57.5735 51.0366ZM50.4193 38.7722C50.6874 37.2058 51.3813 35.7434 52.4249 34.5449C53.4685 33.3464 54.8216 32.4581 56.3363 31.9772C57.8509 31.4962 59.4686 31.4412 61.0124 31.818C62.5563 32.1949 63.9667 32.9891 65.0893 34.1139C66.2136 35.2374 67.0074 36.6483 67.3839 38.1924C67.7605 39.7365 67.7054 41.3544 67.2246 42.8693C66.7438 44.3842 65.8558 45.7378 64.6577 46.7821C63.4596 47.8265 61.9974 48.5214 60.4311 48.7909C59.9441 48.8737 59.4511 48.9155 58.9571 48.916C57.6951 48.9128 56.4489 48.6345 55.3053 48.1005C54.1618 47.5665 53.1484 46.7897 52.3357 45.8241C51.523 44.8586 50.9306 43.7274 50.5996 42.5095C50.2686 41.2916 50.2071 40.0162 50.4193 38.7722Z" fill="black"/>
<path d="M31.5918 80.3484C33.1931 80.6285 34.8419 80.3911 36.2992 79.6707C37.7564 78.9502 38.9461 77.7841 39.6958 76.3417C40.4454 74.8993 40.716 73.2555 40.4681 71.6489C40.2203 70.0423 39.467 68.5565 38.3175 67.407C37.168 66.2576 35.6822 65.5042 34.0756 65.2564C32.469 65.0086 30.8252 65.2791 29.3828 66.0287C27.9404 66.7784 26.7743 67.9681 26.0539 69.4254C25.3334 70.8826 25.096 72.5315 25.3761 74.1328C25.6366 75.6868 26.3754 77.1208 27.4896 78.235C28.6038 79.3491 30.0378 80.0879 31.5918 80.3484ZM27.5801 71.7758C27.7711 70.813 28.2201 69.9202 28.8792 69.1928C29.5382 68.4655 30.3826 67.9309 31.3219 67.6462C32.2613 67.3615 33.2603 67.3375 34.2123 67.5766C35.1643 67.8158 36.0334 68.3091 36.7267 69.0039C37.42 69.6988 37.9114 70.5689 38.1485 71.5214C38.3856 72.4739 38.3593 73.4729 38.0726 74.4116C37.7859 75.3504 37.2494 76.1936 36.5206 76.851C35.7918 77.5085 34.898 77.9556 33.9348 78.1444C33.5908 78.2078 33.2418 78.2404 32.8919 78.2418C32.091 78.2423 31.2999 78.0655 30.5755 77.724C29.8511 77.3824 29.2113 76.8847 28.7021 76.2665C28.1929 75.6483 27.827 74.925 27.6306 74.1485C27.4342 73.3721 27.4122 72.5618 27.5662 71.7758H27.5801Z" fill="black"/>
<path d="M91.5568 84.763H89.471L85.0421 89.1919L80.6133 84.763H78.5275C76.4992 84.763 74.5539 85.5688 73.1196 87.0031C71.6854 88.4373 70.8796 90.3826 70.8796 92.411V97.8201H60.0683V87.4954C60.0683 87.2022 59.9518 86.9211 59.7445 86.7137C59.5372 86.5064 59.256 86.39 58.9628 86.39C58.6696 86.39 58.3884 86.5064 58.1811 86.7137C57.9738 86.9211 57.8573 87.2022 57.8573 87.4954V97.7992H47.0321V92.3901C47.0321 90.3617 46.2263 88.4165 44.7921 86.9822C43.3578 85.5479 41.4125 84.7422 39.3842 84.7422H37.2984L32.8696 89.171L28.4407 84.7422H26.3549C24.3266 84.7422 22.3813 85.5479 20.947 86.9822C19.5128 88.4165 18.707 90.3617 18.707 92.3901V97.8896C18.7089 98.4515 18.9329 98.9898 19.3302 99.3871C19.7274 99.7843 20.2657 100.008 20.8276 100.01H97.0563C97.6181 100.008 98.1564 99.7843 98.5537 99.3871C98.951 98.9898 99.175 98.4515 99.1769 97.8896V92.3901C99.1714 90.3702 98.367 88.4344 96.9393 87.0055C95.5117 85.5765 93.5767 84.7704 91.5568 84.763ZM44.8211 97.7992H20.9597V92.3901C20.9597 90.9549 21.5294 89.5783 22.5436 88.5628C23.5578 87.5473 24.9336 86.9758 26.3688 86.974H27.5438L32.8904 92.3275L38.237 86.974H39.412C40.8472 86.9758 42.223 87.5473 43.2373 88.5628C44.2515 89.5783 44.8211 90.9549 44.8211 92.3901V97.7992ZM96.9659 97.7992H73.1045V92.3901C73.1045 90.9549 73.6741 89.5783 74.6884 88.5628C75.7026 87.5473 77.0784 86.9758 78.5136 86.974H79.6886L85.0352 92.3275L90.3818 86.974H91.5568C92.992 86.9758 94.3678 87.5473 95.382 88.5628C96.3962 89.5783 96.9659 90.9549 96.9659 92.3901V97.7992Z" fill="black"/>
<path d="M79.6463 67.4449C78.4332 68.6562 77.6623 70.24 77.4573 71.9419C77.2522 73.6439 77.6249 75.3654 78.5156 76.8301C79.4062 78.2949 80.7632 79.4179 82.3686 80.019C83.974 80.6201 85.7349 80.6644 87.3685 80.1448C89.0021 79.6251 90.4138 78.5717 91.3769 77.1536C92.3401 75.7355 92.7989 74.0349 92.6796 72.3247C92.5604 70.6146 91.8701 68.9941 90.7194 67.7234C89.5688 66.4526 88.0246 65.6053 86.3347 65.3174C85.1309 65.1059 83.8938 65.1889 82.7291 65.5593C81.5643 65.9298 80.5066 66.5768 79.6463 67.4449ZM90.3464 73.89C90.1382 74.9409 89.6227 75.9063 88.8652 76.6638C88.1076 77.4213 87.1422 77.9369 86.0914 78.145C85.7496 78.2081 85.4029 78.2407 85.0554 78.2424C83.9416 78.2441 82.8544 77.9014 81.9429 77.2614C81.0313 76.6213 80.3398 75.7151 79.9632 74.6669C79.5866 73.6187 79.5431 72.4797 79.8389 71.4058C80.1346 70.332 80.7551 69.3758 81.6153 68.6682C82.4754 67.9606 83.5333 67.5361 84.6441 67.453C85.7548 67.3699 86.8641 67.6322 87.82 68.2039C88.7759 68.7756 89.5318 69.6288 89.984 70.6467C90.4363 71.6646 90.5628 72.7974 90.3464 73.89Z" fill="black"/>
<path d="M43.6666 80.4599H74.2582C74.8224 80.4599 75.3636 80.2357 75.7626 79.8367C76.1615 79.4378 76.3857 78.8966 76.3857 78.3324V67.1664L87.1901 56.369C88.6182 54.9365 89.4207 52.9965 89.4219 50.9737V41.0245C89.4228 40.7774 89.3749 40.5326 89.281 40.304C89.1871 40.0754 89.0489 39.8677 88.8745 39.6926C88.7001 39.5176 88.4929 39.3787 88.2647 39.2839C88.0364 39.1891 87.7918 39.1403 87.5447 39.1403H79.6256V21.3346C79.6256 21.047 79.5113 20.7711 79.3079 20.5677C79.1045 20.3643 78.8287 20.25 78.541 20.25C78.2482 20.248 77.9661 20.3601 77.7545 20.5626C77.5429 20.7651 77.4186 21.042 77.4077 21.3346V40.3292C77.3938 40.4424 77.3938 40.5568 77.4077 40.6699V48.3178C77.407 48.8892 77.1794 49.4368 76.775 49.8405L71.1434 55.4721H63.2243L58.9624 62.529L54.7004 55.4304H49.187C47.1586 55.4304 45.2133 56.2361 43.7791 57.6704C42.3448 59.1047 41.5391 61.0499 41.5391 63.0783V78.3741C41.55 78.9311 41.7789 79.4616 42.1768 79.8516C42.5746 80.2416 43.1095 80.46 43.6666 80.4599ZM72.0611 57.6483L78.3185 51.3909C78.7258 50.9869 79.0487 50.5059 79.2684 49.976C79.488 49.446 79.6 48.8776 79.5978 48.3039V41.3513H87.1553V50.9737C87.1574 51.6843 87.0183 52.3882 86.7462 53.0447C86.4741 53.7011 86.0743 54.297 85.5701 54.7977L74.1469 66.2487V78.242H60.0678V70.2256L68.4875 65.1502L65.4909 57.6483H72.0611ZM58.9624 66.8396L63.6554 59.0249L65.7412 64.2185L59.7758 67.7922C58.6634 68.4874 57.2034 67.229 56.2995 66.6867L52.8232 64.6009C52.8232 64.6009 52.1766 64.2324 52.1836 64.2116L54.2693 59.0179L58.9624 66.8396ZM43.7778 63.0574C43.7797 61.6234 44.3501 60.2486 45.3641 59.2346C46.3782 58.2206 47.7529 57.6501 49.187 57.6483H52.4338L49.4373 65.1502L57.8569 70.2256V78.2698H43.7778V63.0574Z" fill="black"/>
</g>
<defs>
<clipPath id="clip0_1661_25883">
<rect width="82.5" height="79.7676" fill="white" transform="translate(18.75 20.25)"/>
</clipPath>
</defs>
</svg>
