<svg width="450" height="450" viewBox="0 0 450 450" fill="none" xmlns="http://www.w3.org/2000/svg">
<path d="M225 419.109C341.498 419.109 435.938 359.679 435.938 286.368C435.938 213.057 341.498 153.627 225 153.627C108.502 153.627 14.0625 213.057 14.0625 286.368C14.0625 359.679 108.502 419.109 225 419.109Z" fill="#E9E9E9"/>
<path opacity="0.3" d="M37.4845 169.362L37.664 169.462L37.4346 169.342L37.0059 169.093L37.4845 169.362Z" fill="black"/>
<path d="M34.204 166.869C34.1691 166.986 34.1691 167.11 34.204 167.228C34.1638 167.111 34.1638 166.985 34.204 166.869L34.8622 164.675L34.204 166.869Z" fill="#E7142D"/>
<path opacity="0.4" d="M34.204 166.869C34.1691 166.986 34.1691 167.11 34.204 167.228C34.1638 167.111 34.1638 166.985 34.204 166.869L34.8622 164.675L34.204 166.869Z" fill="white"/>
<path d="M95.7993 154.504C95.7993 155.312 95.7993 156.129 95.6797 156.977C95.6797 157.092 95.7027 157.207 95.7476 157.313C95.7924 157.42 95.8581 157.517 95.9408 157.597C96.0235 157.678 96.1215 157.742 96.229 157.784C96.3366 157.827 96.4516 157.847 96.5672 157.844L101.862 158.144C101.997 158.14 102.131 158.171 102.251 158.233L95.7993 154.504Z" fill="#E7142D"/>
<path d="M77.9092 189.744C77.6899 189.395 77.1115 189.415 76.593 189.744C76.0745 190.073 75.3465 190.551 74.7383 190.92L81.2297 194.689C81.1656 194.662 81.1104 194.617 81.0702 194.56L77.9092 189.744Z" fill="#E7142D"/>
<path d="M61.0176 193.144C60.0371 192.774 59.1241 192.245 58.3153 191.578C58.0939 191.452 57.8354 191.407 57.5843 191.451C57.3332 191.494 57.1051 191.624 56.9393 191.818L50.6373 197.581C50.4512 197.762 50.2077 197.871 49.9492 197.89L59.9207 203.694C59.8192 203.635 59.7392 203.545 59.6925 203.437C59.6459 203.33 59.635 203.21 59.6615 203.096L61.6558 194.251C61.6958 194.021 61.6539 193.784 61.5372 193.582C61.4206 193.38 61.2367 193.225 61.0176 193.144Z" fill="#E7142D"/>
<path d="M79.3645 177.05C77.2304 179.48 74.4716 181.28 71.3873 182.255L71.0483 182.334L70.809 182.394L70.2605 182.484L69.6223 182.544H69.034C67.7851 182.555 66.562 182.189 65.5248 181.493C64.4875 180.797 63.6844 179.805 63.2206 178.645C62.7706 177.616 62.4846 176.522 62.373 175.404C62.8517 175.185 63.3702 174.926 63.8389 174.646C70.6893 170.658 76.2335 161.085 76.2335 153.178C76.2335 152.579 76.2335 152.011 76.1637 151.493C77.5308 150.847 79.0297 150.529 80.5412 150.565H80.8104H81.0298H81.2691C82.3431 150.722 83.3571 151.158 84.2094 151.83C85.0617 152.502 85.7223 153.386 86.1252 154.394C88.6879 160.268 85.6865 170.379 79.3645 177.05Z" fill="#E7142D"/>
<path opacity="0.4" d="M79.3645 177.05C77.2304 179.48 74.4716 181.28 71.3873 182.255L71.0483 182.334L70.809 182.394L70.2605 182.484L69.6223 182.544H69.034C67.7851 182.555 66.562 182.189 65.5248 181.493C64.4875 180.797 63.6844 179.805 63.2206 178.645C62.7706 177.616 62.4846 176.522 62.373 175.404C62.8517 175.185 63.3702 174.926 63.8389 174.646C70.6893 170.658 76.2335 161.085 76.2335 153.178C76.2335 152.579 76.2335 152.011 76.1637 151.493C77.5308 150.847 79.0297 150.529 80.5412 150.565H80.8104H81.0298H81.2691C82.3431 150.722 83.3571 151.158 84.2094 151.83C85.0617 152.502 85.7223 153.386 86.1252 154.394C88.6879 160.268 85.6865 170.379 79.3645 177.05Z" fill="black"/>
<path d="M102.301 158.254C102.184 158.191 102.054 158.157 101.922 158.154L96.627 157.855C96.5119 157.859 96.3972 157.84 96.2897 157.798C96.1822 157.757 96.0841 157.694 96.0012 157.614C95.9184 157.534 95.8526 157.439 95.8076 157.332C95.7626 157.226 95.7395 157.112 95.7396 156.997C95.8094 156.16 95.8493 155.332 95.8592 154.524C95.8701 153.645 95.8301 152.766 95.7396 151.892C95.7596 151.32 95.9662 150.77 96.3279 150.326L102.231 143.177C102.407 142.981 102.532 142.745 102.595 142.489C102.657 142.233 102.656 141.966 102.59 141.711L99.788 135.499C99.7505 135.418 99.6875 135.351 99.6085 135.309C99.3792 135.19 99.0302 135.309 98.7011 135.588L92.3293 141.312C92.1611 141.502 91.9325 141.629 91.682 141.671C91.4314 141.713 91.1741 141.667 90.9533 141.541C90.1434 140.882 89.2348 140.353 88.2609 139.976C88.0418 139.895 87.8579 139.74 87.7413 139.538C87.6247 139.336 87.5827 139.099 87.6228 138.869L89.6171 130.034C89.6475 129.916 89.6375 129.791 89.5887 129.679C89.5399 129.567 89.4552 129.474 89.3478 129.416C89.1664 129.324 88.9621 129.285 88.7595 129.306L82.5971 129.925C82.3047 129.961 82.0266 130.072 81.7892 130.247C81.5518 130.421 81.3631 130.654 81.241 130.922L77.9005 139.896C77.6119 140.471 77.1376 140.931 76.5544 141.202C75.2241 141.837 73.9469 142.577 72.7353 143.416C72.2168 143.765 71.6384 143.785 71.4091 143.416L68.2481 138.59C68.0287 138.251 67.5202 138.321 67.1114 138.749L60.3407 145.899C60.1447 146.09 59.9951 146.323 59.9035 146.58C59.8118 146.838 59.7806 147.113 59.8122 147.385L61.6968 153.776C61.7814 154.313 61.6603 154.861 61.3578 155.312C60.215 157.052 59.1729 158.857 58.2367 160.717C57.9091 161.261 57.3839 161.657 56.7709 161.823L50.9675 163.219C50.6804 163.287 50.4131 163.421 50.1864 163.609C49.9597 163.798 49.7799 164.036 49.6612 164.306L46.7395 174.128C46.7089 174.236 46.7046 174.349 46.727 174.459C46.7494 174.569 46.7978 174.671 46.8682 174.758C46.9386 174.845 47.0289 174.914 47.1315 174.959C47.234 175.004 47.3458 175.023 47.4575 175.016L52.7623 175.315C52.8774 175.311 52.9922 175.33 53.0997 175.371C53.2072 175.413 53.3053 175.475 53.3881 175.555C53.471 175.635 53.5368 175.731 53.5818 175.837C53.6267 175.943 53.6499 176.057 53.6498 176.172C53.4903 177.871 53.4903 179.58 53.6498 181.278C53.6411 181.847 53.4369 182.397 53.0714 182.833L47.1683 189.993C46.9905 190.19 46.8646 190.428 46.8019 190.685C46.7393 190.943 46.7418 191.212 46.8093 191.469L49.6113 197.671C49.6457 197.751 49.7052 197.818 49.7809 197.861C49.8466 197.901 49.9228 197.922 50.0002 197.92C50.2631 197.899 50.5101 197.786 50.6982 197.601L56.9404 191.798C57.1097 191.609 57.3381 191.484 57.5882 191.442C57.8383 191.4 58.0951 191.445 58.3165 191.569C59.1303 192.228 60.042 192.756 61.0188 193.134C61.236 193.216 61.4177 193.372 61.5324 193.574C61.6471 193.776 61.6876 194.012 61.647 194.241L59.6527 203.076C59.6238 203.191 59.6335 203.313 59.6803 203.423C59.7271 203.533 59.8084 203.625 59.9119 203.684C60.0873 203.783 60.2917 203.819 60.4903 203.784L66.6527 203.175C66.9392 203.146 67.2137 203.044 67.4507 202.88C67.6877 202.716 67.8797 202.496 68.0088 202.238L71.3592 193.264C71.6563 192.695 72.1282 192.237 72.7054 191.957C73.3535 191.658 74.0116 191.309 74.6997 190.96C75.3877 190.611 75.9461 190.202 76.5644 189.784C77.1826 189.365 77.6612 189.405 77.8806 189.784L81.0416 194.61C81.0822 194.669 81.1371 194.717 81.2011 194.749C81.4504 194.909 81.8493 194.799 82.1983 194.45L88.9789 187.291C89.1723 187.101 89.3196 186.869 89.4095 186.613C89.4994 186.357 89.5295 186.084 89.4974 185.815L87.6128 179.423C87.5321 178.886 87.6567 178.337 87.9618 177.888C89.1093 176.149 90.1483 174.34 91.0729 172.473C91.4067 171.934 91.9353 171.545 92.5487 171.386L98.3421 169.99C98.6311 169.924 98.9002 169.79 99.1273 169.599C99.3543 169.408 99.5329 169.166 99.6484 168.893L102.58 159.071C102.642 158.925 102.648 158.76 102.597 158.609C102.545 158.458 102.44 158.332 102.301 158.254ZM71.3891 182.245L71.0501 182.335L70.8008 182.385C70.6199 182.425 70.4368 182.455 70.2524 182.474L69.6142 182.544H69.0359C67.7861 182.553 66.5628 182.185 65.5256 181.487C64.4885 180.79 63.6858 179.796 63.2225 178.635C62.7725 177.61 62.4865 176.519 62.3749 175.405C62.306 174.809 62.2727 174.21 62.2752 173.61C62.2752 168.006 65.1868 161.076 69.9333 156.07C71.3026 154.589 72.8776 153.313 74.6099 152.281C75.1096 151.98 75.6294 151.713 76.1655 151.483C77.5342 150.842 79.032 150.525 80.543 150.556H80.8022H81.0316H81.2709C82.3457 150.714 83.3599 151.152 84.2122 151.826C85.0644 152.5 85.7247 153.386 86.127 154.395C88.7396 160.188 85.7382 170.289 79.4162 176.96C77.2795 179.429 74.5013 181.258 71.3891 182.245Z" fill="#E7142D"/>
<path opacity="0.2" d="M57.8456 161.106C57.5256 161.431 57.1272 161.668 56.6889 161.794L50.8855 163.19C50.4707 163.3 50.0989 163.533 49.8185 163.858L37.3242 156.678C37.6026 156.324 37.9927 156.075 38.4311 155.97L44.2245 154.564C44.658 154.457 45.0521 154.229 45.3613 153.906L57.8456 161.106Z" fill="black"/>
<path opacity="0.3" d="M61.6462 153.906L49.1818 146.727C49.1974 146.651 49.1974 146.573 49.1818 146.497L47.2872 140.116C47.2246 139.908 47.2246 139.686 47.2872 139.478L56.8399 144.932L59.8314 146.627C59.7454 146.853 59.7246 147.098 59.7716 147.335L61.6562 153.717C61.6633 153.78 61.6599 153.844 61.6462 153.906Z" fill="black"/>
<path opacity="0.3" d="M81.4996 130.403C81.3544 130.531 81.2417 130.692 81.1705 130.872L77.8201 139.846L65.3457 132.647C65.3457 132.647 65.3457 132.647 65.3457 132.587L68.6961 123.613C68.7641 123.439 68.8737 123.285 69.0152 123.164L81.4996 130.403Z" fill="black"/>
<path opacity="0.3" d="M99.4771 135.239C99.3181 135.211 99.1545 135.225 99.0023 135.279C98.8501 135.333 98.7148 135.426 98.6096 135.549L92.3276 141.302C92.1579 141.493 91.9283 141.621 91.6765 141.665C91.4246 141.708 91.1654 141.665 90.9415 141.541C90.1328 140.88 89.224 140.352 88.2492 139.976C88.0281 139.895 87.8428 139.739 87.726 139.534C87.6092 139.33 87.5685 139.091 87.611 138.859L89.6053 130.044C89.6364 129.925 89.6268 129.798 89.5781 129.684C89.5293 129.571 89.4442 129.476 89.3361 129.416C89.1566 129.316 88.2293 128.788 86.9629 128.04C87.0419 128.041 87.1199 128.058 87.1922 128.09C87.2424 128.109 87.2895 128.136 87.3318 128.17L99.4771 135.239Z" fill="black"/>
<path opacity="0.3" d="M102.3 158.233C102.18 158.171 102.046 158.14 101.911 158.144L96.616 157.844C96.5004 157.847 96.3854 157.827 96.2779 157.784C96.1703 157.742 96.0723 157.678 95.9896 157.597C95.9069 157.517 95.8412 157.42 95.7964 157.313C95.7516 157.207 95.7285 157.092 95.7285 156.977C95.7983 156.129 95.8482 155.312 95.8482 154.504L102.3 158.233Z" fill="black"/>
<path opacity="0.4" d="M81.2297 194.699L74.7383 190.93C75.3465 190.561 75.9748 190.172 76.593 189.753C77.2112 189.335 77.6899 189.375 77.9092 189.753L81.0702 194.58C81.1117 194.633 81.1668 194.674 81.2297 194.699Z" fill="black"/>
<path opacity="0.4" d="M61.646 194.25L59.6517 203.095C59.6252 203.209 59.6361 203.329 59.6828 203.437C59.7294 203.545 59.8094 203.634 59.911 203.693L49.9395 197.89C50.1979 197.871 50.4414 197.761 50.6275 197.581L56.9395 191.797C57.1053 191.604 57.3334 191.474 57.5845 191.43C57.8356 191.387 58.0941 191.432 58.3155 191.558C59.1243 192.225 60.0373 192.753 61.0178 193.123C61.239 193.206 61.4236 193.365 61.5387 193.572C61.6537 193.778 61.6918 194.018 61.646 194.25Z" fill="black"/>
<path opacity="0.2" d="M53.4395 181.956C53.3358 182.265 53.177 182.552 52.9709 182.804L47.0677 189.963C46.8959 190.178 46.7703 190.426 46.6988 190.691L34.2344 183.482C34.3002 183.214 34.4264 182.965 34.6033 182.754L40.5164 175.594C40.7143 175.344 40.8662 175.06 40.9651 174.757L53.4395 181.956Z" fill="black"/>
<path opacity="0.1" d="M77.7999 139.886C77.5041 140.437 77.0391 140.877 76.4737 141.143C75.1435 141.773 73.8664 142.51 72.6546 143.346C72.1361 143.705 71.5578 143.735 71.3284 143.346L68.1774 138.52C68.1368 138.461 68.0819 138.413 68.0179 138.381H67.968L62.0449 134.96C62.6923 134.594 63.3579 134.262 64.0392 133.963L64.2686 133.834C64.5005 133.69 64.7146 133.519 64.9068 133.325C64.9884 133.243 65.065 133.157 65.1361 133.066C65.1889 133.013 65.2326 132.953 65.2657 132.886L65.3555 132.717L77.7999 139.886Z" fill="black"/>
<path opacity="0.4" d="M53.5587 181.238C53.5711 181.482 53.5338 181.727 53.449 181.956L40.9746 174.757C41.0623 174.528 41.103 174.284 41.0943 174.039C41.0121 173.164 40.9755 172.285 40.9846 171.406L46.9675 174.846C47.0958 174.919 47.2392 174.96 47.3863 174.966L52.6911 175.265C52.8071 175.261 52.9227 175.281 53.0309 175.323C53.139 175.364 53.2376 175.428 53.3206 175.509C53.4035 175.59 53.4692 175.687 53.5135 175.794C53.5579 175.902 53.58 176.017 53.5786 176.133C53.4161 177.83 53.4094 179.539 53.5587 181.238Z" fill="black"/>
<path opacity="0.1" d="M61.6466 153.906C61.6624 154.379 61.5337 154.845 61.2776 155.243C60.1306 156.98 59.0884 158.785 58.1565 160.647C58.0756 160.799 57.9713 160.937 57.8474 161.056L45.373 153.906C45.4439 153.843 45.5044 153.769 45.5525 153.687C45.6139 153.63 45.6646 153.563 45.7021 153.488C46.6228 151.618 47.662 149.81 48.8132 148.073C48.8748 147.983 48.9251 147.886 48.9628 147.784C49.0012 147.723 49.0282 147.655 49.0426 147.584C49.0499 147.552 49.0499 147.518 49.0426 147.485C49.0426 147.485 49.0426 147.485 49.0426 147.425C49.0719 147.338 49.092 147.247 49.1024 147.156C49.1313 147.024 49.1313 146.888 49.1024 146.757L61.6466 153.906Z" fill="black"/>
<path opacity="0.3" d="M45.5525 153.687C45.5044 153.769 45.4439 153.843 45.373 153.906C45.4384 153.837 45.4984 153.764 45.5525 153.687Z" fill="black"/>
<path opacity="0.4" d="M49.6796 197.83L47.1368 196.364L46.6582 196.085L42.5699 193.722C42.1909 193.502 41.822 193.273 41.463 193.074L37.265 190.651C37.2259 190.632 37.1917 190.605 37.1653 190.571C37.1341 190.534 37.1074 190.494 37.0855 190.451L34.2735 184.239C34.2213 184.07 34.2213 183.889 34.2735 183.72C34.2735 183.651 34.2735 183.571 34.2735 183.501L46.7379 190.71C46.652 190.952 46.652 191.216 46.7379 191.458L49.5399 197.651C49.5686 197.722 49.617 197.785 49.6796 197.83Z" fill="black"/>
<path opacity="0.3" d="M37.3248 156.678C37.2325 156.79 37.1615 156.919 37.1153 157.057L36.7564 158.283L34.8518 164.695L34.2037 166.889C34.1755 166.98 34.1671 167.076 34.1792 167.17C34.1912 167.265 34.2234 167.356 34.2735 167.437C34.3125 167.499 34.3633 167.554 34.423 167.597L34.5228 167.666L35.5199 168.225L35.7891 168.384L36.5669 168.833L36.9857 169.082L37.4644 169.352L37.6438 169.451L38.1524 169.75L40.9743 171.376L46.9572 174.816C46.8352 174.742 46.742 174.628 46.6931 174.494C46.6441 174.36 46.6424 174.213 46.688 174.078L49.2507 165.443L49.6097 164.246C49.6602 164.092 49.7416 163.949 49.849 163.827L37.3248 156.678Z" fill="black"/>
<path opacity="0.5" d="M62.0441 134.96L55.5726 131.201C55.4865 131.155 55.3907 131.131 55.2934 131.131C55.1546 131.139 55.0191 131.176 54.8954 131.239C54.7718 131.303 54.6628 131.392 54.5755 131.5L50.527 135.788L47.8048 138.659C47.5818 138.901 47.418 139.191 47.3262 139.507L56.839 144.931L59.8305 146.627C59.9276 146.336 60.0876 146.07 60.2991 145.849L60.3889 145.749L67.0698 138.689C67.1771 138.549 67.3229 138.444 67.4894 138.385C67.6559 138.327 67.8358 138.318 68.0071 138.36L62.0441 134.96Z" fill="white"/>
<path opacity="0.5" d="M89.2273 129.386C89.0562 129.32 88.8713 129.296 88.6888 129.317L82.5164 129.935C82.1416 129.977 81.7911 130.142 81.5193 130.403L69.0449 123.204C69.3189 122.942 69.6672 122.771 70.0421 122.715L76.2144 122.097C76.4248 122.071 76.6378 122.113 76.8227 122.217C76.8227 122.217 77.5107 122.606 78.488 123.214L79.3056 123.683L84.5905 126.744L85.8968 127.512L86.8939 128.04C88.1204 128.758 89.0478 129.287 89.2273 129.386Z" fill="white"/>
<path d="M239.697 49.594C239.428 47.5997 237.813 46.8618 235.888 47.9786L129.712 109.274C128.589 110.009 127.655 110.997 126.985 112.159C126.315 113.322 125.927 114.625 125.853 115.964V350.295C125.853 352.569 127.318 353.596 129.223 352.768C128.071 353.253 126.827 353.483 125.577 353.442C124.327 353.401 123.101 353.089 121.984 352.529L117.566 349.976C116.438 349.246 115.499 348.259 114.827 347.096C114.154 345.933 113.767 344.627 113.697 343.285V108.964C113.767 107.623 114.154 106.317 114.827 105.154C115.499 103.99 116.438 103.003 117.566 102.274L223.723 40.9687C224.921 40.3639 226.245 40.0488 227.587 40.0488C228.929 40.0488 230.253 40.3639 231.451 40.9687L235.918 43.5214C236.947 44.2034 237.817 45.0987 238.469 46.1465C239.121 47.1942 239.54 48.37 239.697 49.594Z" fill="#37474F"/>
<path d="M235.919 47.9789L129.713 109.274C128.59 110.009 127.656 110.997 126.986 112.16C126.316 113.322 125.928 114.625 125.854 115.965V350.295C125.854 352.758 127.589 353.755 129.713 352.529L235.919 291.194C237.04 290.458 237.973 289.47 238.641 288.307C239.31 287.145 239.696 285.842 239.768 284.503V50.2025C239.738 47.7495 238.013 46.7524 235.919 47.9789ZM234.214 262.436C234.214 264.54 232.738 265.886 230.903 266.943L134.369 322.674C132.544 323.731 131.059 322.874 131.059 320.76V138.351C131.121 137.201 131.453 136.082 132.028 135.084C132.604 134.086 133.405 133.238 134.369 132.607L230.903 76.8863C232.738 75.8193 234.214 76.6769 234.214 78.7809V262.436Z" fill="#455A64"/>
<path d="M129.223 352.728C128.071 353.214 126.827 353.444 125.577 353.402C124.327 353.361 123.101 353.049 121.984 352.489L117.566 349.936C116.439 349.206 115.5 348.219 114.828 347.056C114.155 345.893 113.768 344.587 113.697 343.245V108.965C113.742 107.615 114.133 106.3 114.834 105.146L126.989 112.126C126.295 113.279 125.904 114.589 125.853 115.935V350.265C125.853 352.529 127.318 353.556 129.223 352.728Z" fill="#263238"/>
<path d="M182.8 84.8238C184.226 83.9962 185.382 84.6643 185.382 86.3196C185.333 87.2161 185.074 88.0885 184.625 88.8663C184.176 89.6441 183.551 90.3054 182.8 90.7968C181.364 91.6244 180.207 90.9563 180.207 89.301C180.255 88.403 180.515 87.5292 180.965 86.751C181.416 85.9727 182.045 85.3123 182.8 84.8238Z" fill="#263238"/>
<path d="M175.321 97.7463C180.576 94.8446 189.959 89.2605 195.144 86.2092C196.032 85.6907 196.74 86.0497 196.74 87.007C196.699 87.5441 196.533 88.0644 196.256 88.5265C195.98 88.9886 195.599 89.3799 195.144 89.6694L175.281 101.137C174.394 101.645 173.676 101.286 173.676 100.329C173.721 99.7975 173.894 99.285 174.181 98.8352C174.467 98.3855 174.859 98.0118 175.321 97.7463Z" fill="#263238"/>
<path d="M170.305 100.648C171.103 100.189 171.751 100.558 171.751 101.486C171.73 101.997 171.588 102.496 171.337 102.941C171.086 103.387 170.732 103.766 170.305 104.048C169.498 104.507 168.85 104.138 168.85 103.211C168.871 102.698 169.014 102.199 169.267 101.753C169.52 101.307 169.876 100.928 170.305 100.648Z" fill="#263238"/>
<path d="M180.995 316.213C180.349 316.219 179.712 316.054 179.151 315.734C177.844 314.976 177.156 313.421 177.156 311.357C177.281 309.158 177.921 307.02 179.024 305.115C180.127 303.209 181.663 301.59 183.508 300.388C185.293 299.391 186.998 299.201 188.314 299.959C189.631 300.717 190.309 302.273 190.309 304.337C190.184 306.534 189.545 308.671 188.443 310.576C187.342 312.481 185.809 314.101 183.967 315.305C183.071 315.86 182.048 316.172 180.995 316.213ZM186.43 300.458C185.556 300.496 184.707 300.761 183.967 301.226C182.26 302.334 180.837 303.828 179.815 305.589C178.793 307.349 178.2 309.325 178.084 311.357C178.084 313.052 178.632 314.348 179.619 314.867C180.606 315.385 181.972 315.285 183.438 314.438C185.137 313.326 186.55 311.831 187.565 310.073C188.58 308.315 189.168 306.343 189.282 304.317C189.282 302.622 188.733 301.375 187.746 300.797C187.34 300.586 186.887 300.48 186.43 300.488V300.458Z" fill="#E6E6E6"/>
<path d="M234.183 78.7803V262.446C234.12 263.593 233.788 264.709 233.213 265.704C232.637 266.698 231.836 267.543 230.872 268.169L134.338 323.9C132.513 324.897 131.027 324.11 131.027 321.996V310.538L218.687 259.933C220.522 258.876 221.997 257.54 221.997 255.436V82.0111L230.872 76.8857C232.707 75.8287 234.183 76.6863 234.183 78.7803Z" fill="#37474F"/>
<path d="M230.873 76.8857L221.959 82.0111V255.436C221.929 256.209 221.707 256.963 221.312 257.628C220.916 258.293 220.361 258.849 219.695 259.245L232.519 266.654C233.495 265.46 234.064 263.986 234.144 262.446V78.7803C234.184 76.6863 232.708 75.8287 230.873 76.8857Z" fill="#263238"/>
<path d="M139.853 264.998L134.329 261.807C134.219 261.762 134.128 261.681 134.069 261.578L133.072 259.803L136.353 257.908L136.253 258.197L139.853 264.998Z" fill="#E0E0E0"/>
<path d="M135.834 258.178L139.663 264.799C139.72 264.884 139.8 264.952 139.893 264.996C139.986 265.04 140.089 265.058 140.191 265.047C140.294 265.037 140.391 264.999 140.474 264.938C140.557 264.877 140.621 264.794 140.66 264.699L144.709 253.032L135.834 258.178Z" fill="#EBEBEB"/>
<path d="M153.873 222.848C153.819 221.917 153.545 221.013 153.073 220.208C152.602 219.404 151.946 218.723 151.16 218.221L148.987 216.965C148.157 216.551 147.242 216.335 146.314 216.335C145.387 216.335 144.472 216.551 143.642 216.965L100.375 241.894C99.597 242.4 98.9492 243.083 98.4848 243.887C98.0204 244.691 97.7526 245.593 97.7031 246.521V268.458C97.7541 269.385 98.0227 270.287 98.4869 271.09C98.9512 271.894 99.5982 272.577 100.375 273.085L102.559 274.341C103.386 274.759 104.3 274.977 105.227 274.977C106.153 274.977 107.067 274.759 107.894 274.341L151.41 249.203C153.813 247.837 153.833 246.461 153.833 244.756L153.873 222.848Z" fill="#EBEBEB"/>
<path d="M97.752 268.459C97.8011 269.385 98.0677 270.286 98.5303 271.09C98.9928 271.894 99.6383 272.577 100.414 273.085L102.598 274.342C103.351 274.72 104.176 274.936 105.018 274.973C105.86 275.011 106.7 274.871 107.484 274.561C106.228 275.04 105.27 274.322 105.27 272.796V250.859C105.302 249.93 105.57 249.024 106.048 248.226L98.5297 243.889C98.0474 244.684 97.7794 245.591 97.752 246.521V268.459Z" fill="#E0E0E0"/>
<path d="M153.783 222.091C153.474 220.954 152.437 220.595 151.201 221.303L107.934 246.232C107.146 246.722 106.5 247.41 106.06 248.226L98.541 243.889C98.9883 243.074 99.6372 242.387 100.426 241.894L143.672 216.966C144.503 216.55 145.42 216.333 146.349 216.333C147.279 216.333 148.196 216.55 149.027 216.966L151.161 218.222C151.839 218.653 152.422 219.219 152.873 219.884C153.325 220.55 153.634 221.301 153.783 222.091Z" fill="#FAFAFA"/>
<path d="M112.452 252.474L143.363 234.525C144.251 234.007 144.979 234.246 144.979 235.054C144.913 235.551 144.734 236.025 144.453 236.441C144.173 236.856 143.8 237.201 143.363 237.447L112.452 255.396C111.554 255.914 110.826 255.675 110.826 254.867C110.893 254.37 111.075 253.894 111.357 253.479C111.639 253.064 112.014 252.72 112.452 252.474Z" fill="#455A64"/>
<path d="M112.452 259.813L143.363 241.864C144.251 241.346 144.979 241.575 144.979 242.383C144.912 242.88 144.731 243.356 144.451 243.773C144.171 244.189 143.799 244.536 143.363 244.786L112.452 262.734C111.554 263.253 110.826 263.014 110.826 262.206C110.893 261.708 111.075 261.233 111.357 260.818C111.639 260.403 112.014 260.059 112.452 259.813Z" fill="#455A64"/>
<path d="M69.1341 273.085L63.6099 269.894C63.5002 269.849 63.4089 269.768 63.3507 269.665L62.3535 267.89L65.6341 265.995L65.5344 266.284L69.1341 273.085Z" fill="#E7142D"/>
<path opacity="0.2" d="M69.1341 273.085L63.6099 269.894C63.5002 269.849 63.4089 269.768 63.3507 269.665L62.3535 267.89L65.6341 265.995L65.5344 266.284L69.1341 273.085Z" fill="black"/>
<path d="M65.1152 266.264L68.9343 272.886C68.9936 272.968 69.0735 273.034 69.1661 273.075C69.2587 273.117 69.3606 273.134 69.4617 273.124C69.5628 273.114 69.6594 273.077 69.7419 273.018C69.8244 272.958 69.8898 272.878 69.9315 272.786L73.9201 261.119L65.1152 266.264Z" fill="#E7142D"/>
<path d="M110.467 211.79C110.417 210.863 110.149 209.96 109.685 209.156C109.221 208.352 108.573 207.669 107.794 207.163L105.621 205.907C104.793 205.484 103.877 205.264 102.948 205.264C102.019 205.264 101.103 205.484 100.276 205.907L48.9126 235.572C48.1342 236.078 47.4863 236.761 47.0219 237.565C46.5575 238.369 46.2897 239.272 46.2402 240.199V265.407C46.2897 266.334 46.5575 267.237 47.0219 268.041C47.4863 268.845 48.1342 269.528 48.9126 270.034L51.0864 271.29C51.9138 271.713 52.8296 271.933 53.7588 271.933C54.6879 271.933 55.6038 271.713 56.4311 271.29L108.044 241.445C110.447 240.079 110.467 238.703 110.467 236.998V211.79Z" fill="#E7142D"/>
<path opacity="0.2" d="M46.2402 265.407C46.2897 266.334 46.5575 267.236 47.0219 268.041C47.4863 268.845 48.1342 269.528 48.9126 270.034L51.0864 271.29C51.8387 271.67 52.6629 271.887 53.5049 271.927C54.3469 271.966 55.1878 271.828 55.9724 271.519C54.716 271.988 53.7588 271.27 53.7588 269.745V244.537C53.7911 243.606 54.0623 242.699 54.5465 241.904L47.028 237.566C46.5438 238.362 46.2725 239.268 46.2402 240.199V265.407Z" fill="black"/>
<path opacity="0.4" d="M110.376 211.032C110.067 209.896 109.03 209.537 107.794 210.245L56.4305 239.92C55.6352 240.404 54.9844 241.093 54.5459 241.914L47.0273 237.566C47.4775 236.754 48.1258 236.068 48.912 235.572L100.305 205.907C101.136 205.491 102.053 205.274 102.983 205.274C103.912 205.274 104.829 205.491 105.66 205.907L107.834 207.163C108.498 207.602 109.065 208.172 109.502 208.837C109.939 209.502 110.237 210.249 110.376 211.032Z" fill="white"/>
<path d="M60.9376 251.626L88.7083 235.542C89.6058 235.023 90.3337 235.263 90.3337 236.07C90.2666 236.568 90.0849 237.043 89.8029 237.458C89.5208 237.874 89.1461 238.218 88.7083 238.463L60.9376 254.538C60.0502 255.056 59.3223 254.817 59.3223 254.009C59.3904 253.514 59.5716 253.042 59.8517 252.629C60.1319 252.216 60.5034 251.872 60.9376 251.626Z" fill="white"/>
<path d="M60.9376 258.955L99.9462 236.32C100.834 235.802 101.562 236.041 101.562 236.849C101.496 237.345 101.317 237.82 101.036 238.236C100.756 238.651 100.383 238.995 99.9462 239.242L60.9376 261.877C60.0502 262.396 59.3223 262.156 59.3223 261.349C59.389 260.852 59.5695 260.378 59.8497 259.963C60.1299 259.548 60.5022 259.203 60.9376 258.955Z" fill="white"/>
<path d="M60.9376 243.918L99.9462 221.283C100.834 220.764 101.562 221.004 101.562 221.811C101.495 222.308 101.314 222.782 101.034 223.197C100.754 223.612 100.382 223.957 99.9462 224.205L60.9376 246.84C60.0502 247.359 59.3223 247.119 59.3223 246.312C59.3875 245.815 59.5674 245.34 59.8477 244.924C60.1281 244.509 60.5012 244.165 60.9376 243.918Z" fill="white"/>
<path d="M415.077 81.9908L411.028 79.6575C410.734 79.5208 410.409 79.4653 410.086 79.4969C409.764 79.5285 409.455 79.6459 409.194 79.837L321.215 130.632C320.46 131.123 319.831 131.785 319.381 132.565C318.93 133.344 318.67 134.22 318.622 135.119V180.579C318.586 180.905 318.64 181.235 318.779 181.533C318.918 181.83 319.137 182.083 319.41 182.264L323.399 184.588V180.828L409.154 131.32C409.907 130.827 410.534 130.165 410.985 129.385C411.435 128.606 411.696 127.732 411.746 126.833V83.666L415.077 81.9908Z" fill="#E0E0E0"/>
<path d="M326.72 136.804L411.787 87.6947V83.7061L415.078 82.0308L411.029 79.6975C410.735 79.5608 410.41 79.5054 410.087 79.5369C409.765 79.5685 409.456 79.6859 409.194 79.877L321.216 130.672C320.446 131.146 319.814 131.813 319.381 132.606L326.72 136.804Z" fill="#FAFAFA"/>
<path d="M325.263 132.966L413.241 82.1707C414.677 81.343 415.834 82.0211 415.834 83.6664V129.137C415.785 130.036 415.525 130.911 415.074 131.69C414.624 132.47 413.996 133.132 413.241 133.624L325.263 184.419C323.827 185.236 322.67 184.568 322.67 182.923V137.453C322.721 136.554 322.982 135.68 323.432 134.901C323.883 134.121 324.51 133.459 325.263 132.966Z" fill="#F5F5F5"/>
<path d="M329.751 137.392L356.106 122.176C357.771 121.179 359.097 121.996 359.097 123.921V154.354C359.045 155.4 358.747 156.419 358.227 157.329C357.707 158.238 356.981 159.013 356.106 159.589L329.751 174.846C328.076 175.843 326.76 175.025 326.76 173.1V142.628C326.813 141.582 327.112 140.563 327.631 139.653C328.151 138.744 328.877 137.97 329.751 137.392Z" fill="#E7142D"/>
<path d="M342.702 136.276C345.494 134.671 347.758 135.977 347.758 139.208C347.662 140.963 347.155 142.671 346.276 144.194C345.398 145.716 344.174 147.011 342.702 147.973C339.9 149.588 337.637 148.282 337.637 145.051C337.731 143.293 338.239 141.582 339.119 140.057C339.999 138.532 341.227 137.237 342.702 136.276Z" fill="#FAFAFA"/>
<path d="M352.674 153.546C352.674 148.241 348.955 145.888 344.358 148.561L341.486 150.216C336.899 152.868 333.17 159.32 333.17 164.625V166.051L352.674 154.793V153.546Z" fill="#FAFAFA"/>
<path d="M369.388 116.851L405.575 95.9113C406.761 95.2232 407.729 95.7118 407.729 97.0081C407.677 97.7323 407.455 98.4341 407.081 99.0562C406.707 99.6783 406.191 100.203 405.575 100.588L369.388 121.528C368.192 122.216 367.234 121.728 367.234 120.431C367.286 119.707 367.508 119.005 367.882 118.383C368.256 117.761 368.773 117.236 369.388 116.851Z" fill="#E0E0E0"/>
<path d="M369.388 126.205L405.575 105.265C406.761 104.577 407.729 105.065 407.729 106.362C407.678 107.087 407.456 107.791 407.082 108.415C406.708 109.039 406.191 109.565 405.575 109.951L369.388 130.842C368.192 131.53 367.234 131.041 367.234 129.745C367.292 129.028 367.517 128.334 367.891 127.719C368.265 127.104 368.778 126.586 369.388 126.205Z" fill="#E0E0E0"/>
<path d="M369.388 135.558L405.575 114.667C406.761 113.979 407.729 114.468 407.729 115.754C407.678 116.48 407.456 117.184 407.082 117.807C406.708 118.431 406.191 118.958 405.575 119.344L369.388 140.234C368.192 140.922 367.234 140.434 367.234 139.138C367.286 138.413 367.508 137.712 367.882 137.089C368.256 136.467 368.773 135.943 369.388 135.558Z" fill="#E0E0E0"/>
<path d="M369.388 144.931L405.575 123.991C406.761 123.303 407.729 123.791 407.729 125.078C407.678 125.803 407.456 126.507 407.082 127.131C406.708 127.754 406.191 128.281 405.575 128.667L369.388 149.558C368.192 150.246 367.234 149.757 367.234 148.461C367.293 147.745 367.519 147.053 367.893 146.441C368.267 145.828 368.779 145.311 369.388 144.931Z" fill="#E0E0E0"/>
<path opacity="0.2" d="M267.618 256.013C267.618 258.117 266.142 259.463 264.308 260.52L167.773 316.251C165.949 317.298 164.463 316.451 164.463 314.337V131.968C164.525 130.818 164.858 129.699 165.433 128.701C166.008 127.703 166.81 126.855 167.773 126.224L264.308 70.5032C266.142 69.4363 267.618 70.2938 267.618 72.3978V256.013Z" fill="#E7142D"/>
<path d="M166.297 317.199C165.905 317.206 165.519 317.106 165.18 316.91C164.765 316.63 164.432 316.244 164.218 315.791C164.004 315.338 163.916 314.836 163.964 314.337V131.968C164.021 130.73 164.374 129.523 164.993 128.449C165.612 127.375 166.48 126.465 167.524 125.796L264.058 70.0649C264.451 69.7426 264.932 69.5476 265.439 69.5056C265.945 69.4637 266.452 69.5769 266.893 69.8301C267.333 70.0834 267.686 70.4647 267.905 70.9235C268.123 71.3822 268.197 71.8966 268.116 72.3983V256.014C268.116 258.606 266.122 260.072 264.556 261L168.022 316.73C167.498 317.035 166.903 317.197 166.297 317.199ZM265.833 70.5037C265.394 70.5239 264.968 70.6579 264.596 70.8926L168.062 126.613C167.173 127.199 166.433 127.985 165.901 128.908C165.37 129.831 165.061 130.865 165.001 131.928V314.337C164.915 314.663 164.938 315.007 165.067 315.318C165.196 315.629 165.424 315.889 165.715 316.058C166.007 316.227 166.345 316.295 166.679 316.253C167.013 316.21 167.324 316.059 167.563 315.823L264.098 260.082C266.222 258.866 267.159 257.609 267.159 256.014V72.3584C267.199 72.0362 267.154 71.7091 267.028 71.4099C266.902 71.1107 266.7 70.8498 266.441 70.6532C266.255 70.5516 266.045 70.5 265.833 70.5037Z" fill="#E7142D"/>
<path d="M320.139 246.442C320.837 220.516 318.763 214.244 311.843 209.487L309.17 224.534C309.17 224.534 312.321 242.274 311.982 248.177C311.683 253.372 311.175 259.863 309.988 264.051C309.764 264.795 309.274 265.431 308.612 265.836C306.857 266.933 306.139 268.07 304.813 269.456C303.816 270.543 302.898 270.812 303.028 271.161C303.23 271.541 303.568 271.831 303.975 271.973C304.381 272.116 304.826 272.1 305.222 271.929C306.105 271.581 306.943 271.126 307.715 270.573C307.107 272.164 306.245 273.646 305.162 274.96C302.689 277.952 302.579 279.846 307.565 279.896C310.696 279.896 313.179 277.992 315.542 271.111C316.457 268.591 317.19 266.008 317.736 263.383C318.883 256.613 320.029 250.63 320.139 246.442Z" fill="#FFA8A7"/>
<path d="M306.029 207.513C308.151 207.141 310.337 207.467 312.258 208.441C314.18 209.415 315.734 210.986 316.689 212.917C319.591 218.093 320.299 227.007 320.677 235.852C320.677 235.852 314.924 240.658 308.024 238.295L306.029 207.513Z" fill="#37474F"/>
<path d="M315.741 350.344C316.259 350.544 316.389 351.541 316.469 353.525C316.529 355.021 316.858 357.644 315.093 358.172C313.328 358.701 310.755 358.431 309.628 357.015C308.268 355.113 306.81 353.283 305.261 351.531C303.526 349.666 301.641 347.921 300.933 345.299C300.305 342.926 300.833 341.899 302.449 341.211C304.672 340.263 308.162 343.354 309.907 343.843C311.403 344.282 315.212 350.165 315.741 350.344Z" fill="#263238"/>
<path d="M315.742 348.52V350.963C314.826 351.546 313.769 351.869 312.683 351.898C311.597 351.926 310.525 351.658 309.58 351.123C309.47 350.893 308.941 347.643 308.941 347.643L315.742 348.52Z" fill="#FFA8A7"/>
<path d="M295.997 364.404C296.427 365.714 296.786 367.045 297.074 368.393C297.373 369.859 297.802 372.322 297.294 373.429C296.785 374.535 294.751 375.273 291.64 375.273C289.645 375.273 286.474 376.629 284.311 377.836C282.147 379.042 277.46 379.571 275.097 379.292C272.325 378.963 269.453 377.357 269.004 376.211C268.556 375.064 269.144 373.867 275.685 371.075C275.745 371.075 284.789 368.084 287.95 364.624L295.997 364.404Z" fill="#263238"/>
<path d="M295.998 361.772V364.614C295.998 365.611 294.791 367.187 291.63 367.077C289.417 366.998 287.861 366.399 287.951 364.574V361.932L295.998 361.772Z" fill="#FFA8A7"/>
<path d="M317.326 316.183C316.784 311.864 315.819 307.609 314.444 303.479C314.444 303.479 315.311 292.51 315.73 282.15C316.179 270.932 315.73 256.842 315.92 254.04C315.92 254.04 279.733 246.721 279.085 259.684C278.437 272.647 280.521 305.643 280.94 311.346C281.358 317.05 282.356 322.076 283.532 331.289C284.709 340.503 287.95 361.912 287.95 361.912C289.2 362.551 290.589 362.871 291.993 362.843C293.397 362.815 294.772 362.44 295.997 361.752C295.997 361.752 298.549 335.826 298.28 329.255C298.073 324.388 297.235 319.568 295.787 314.916C295.787 314.916 296.475 304.227 297.083 294.973C297.692 285.72 298.33 281.202 298.47 277.164L299.247 276.775C299.247 276.775 300.045 292.819 300.464 298.513C300.883 304.207 301.8 309.661 303.455 320.241C304.891 329.425 309.149 348.839 309.149 348.839C313.277 351.073 315.75 348.54 315.75 348.54C315.75 348.54 318.433 324.15 317.326 316.183Z" fill="#37474F"/>
<path d="M298.471 277.143C298.471 277.143 307.246 272.816 311.643 268.917C311.643 268.917 307.565 274.661 302.21 277.213C302.21 277.213 300.305 297.156 300.315 296.738L299.209 277.114L298.471 277.143Z" fill="#263238"/>
<path d="M290.652 203.415L292.796 215.201L303.446 214.423L301.212 201.062L290.652 203.415Z" fill="#FFA8A7"/>
<path d="M314.694 213.556C313.637 210.355 309.579 206.865 305.51 207.622C299.466 208.647 293.509 210.134 287.691 212.07C283.972 213.396 280.572 216.617 280.262 228.872C280.262 228.872 279.016 257.43 278.996 262.954C286.77 266.004 295.237 266.839 303.456 265.368C314.644 262.924 315.99 258.278 315.99 258.278C315.99 258.278 316.14 237.746 315.801 228.872C315.512 221.333 315.412 215.729 314.694 213.556Z" fill="#E7142D"/>
<path d="M282.446 189.075C282.446 189.075 279.744 193.383 280.073 193.792C280.402 194.201 282.466 194.53 282.466 194.53L282.446 189.075Z" fill="#F28F8F"/>
<path d="M289.935 177.169C284.311 178.486 282.736 181.008 282.407 190.013C282.058 199.406 283.085 202.338 284.341 203.574C285.199 204.412 289.826 204.461 292.149 203.763C295.051 202.896 301.602 200.403 304.583 195.617C308.093 189.973 308.881 182.424 304.923 179.423C299.338 175.195 292.229 176.631 289.935 177.169Z" fill="#FFA8A7"/>
<path d="M282.467 179.513C283.758 181.395 285.581 182.849 287.702 183.691C288.779 184.917 288.19 189.674 290.085 190.482C290.085 190.482 290.903 186.982 293.834 187.36C296.766 187.739 297.274 191.469 295.47 193.792C293.665 196.115 291.92 195.278 291.92 195.278C291.92 195.278 292.119 200.264 294.383 202.996C294.383 202.996 296.896 203.754 301.482 202.667C304.294 201.999 308.213 198.379 309.809 194.6C313.179 186.623 313.269 179.473 308.173 177.449C307.545 173.819 304.633 172.244 301.343 171.566C294.253 170.1 289.686 174.557 284.232 174.138C281.111 173.919 280.532 176.192 282.467 179.513Z" fill="#263238"/>
<path d="M308.283 178.665L311.624 176.601C311.517 176.33 311.351 176.086 311.139 175.885C310.927 175.685 310.674 175.534 310.397 175.442C310.121 175.35 309.827 175.32 309.538 175.354C309.248 175.388 308.969 175.485 308.721 175.639C308.473 175.792 308.262 175.998 308.102 176.241C307.942 176.485 307.838 176.761 307.796 177.049C307.754 177.338 307.776 177.632 307.86 177.911C307.945 178.19 308.089 178.448 308.283 178.665Z" fill="#263238"/>
<path d="M242.67 233.289C244.415 234.067 265.046 249.303 268.257 247.528C271.468 245.753 287.971 226.478 287.971 226.478C289.365 224.325 290.107 221.814 290.107 219.249C290.107 216.684 289.365 214.173 287.971 212.02C287.971 212.02 282.686 213.017 279.914 217.185C277.142 221.353 265.196 236.36 265.196 236.36C262.244 234.884 259.299 233.388 256.361 231.873C253.948 230.616 251.525 229.37 249.162 228.024C248.497 227.716 247.872 227.331 247.297 226.877C246.13 225.72 246.3 222.888 246.36 221.413C246.36 220.705 246.36 219.997 246.459 219.289C246.559 218.421 246.729 216.297 245.163 216.975C244.867 217.117 244.61 217.329 244.415 217.594C244.175 217.918 243.986 218.278 243.857 218.661C243.568 219.578 243.657 220.585 243.388 221.512C243.356 221.649 243.291 221.776 243.199 221.881C243.06 221.989 242.886 222.043 242.71 222.031C240.437 221.961 238.283 218.78 237.236 217.045C236.873 216.223 236.272 215.528 235.511 215.051C234.274 214.473 232.778 215.3 231.971 216.417C230.998 217.885 230.6 219.66 230.854 221.403C231.064 223.788 232.126 226.018 233.845 227.685C236.443 230.046 239.429 231.941 242.67 233.289Z" fill="#FFA8A7"/>
<path d="M289.655 211.401C287.381 211.661 283.602 211.83 279.893 216.028C275.565 220.924 269.861 228.931 269.861 228.931C270.446 231.289 271.698 233.428 273.466 235.094C275.234 236.76 277.444 237.881 279.833 238.324C279.833 238.324 287.641 230.347 289.804 225.93C291.968 221.512 292.337 214.373 289.655 211.401Z" fill="#37474F"/>
<path d="M329.451 109.822V78.3818L348.018 90.6568C342.614 99.1126 336.541 105.405 329.451 109.822Z" fill="#455A64"/>
<path d="M329.452 78.3815L322.023 74.0938V105.534L329.452 109.822V78.3815Z" fill="#37474F"/>
<path d="M358.796 54.569L330.966 74.5818L323.537 70.3041L351.368 50.2812L358.796 54.569Z" fill="#E7142D"/>
<path opacity="0.5" d="M358.796 54.569L330.966 74.5818L323.537 70.3041L351.368 50.2812L358.796 54.569Z" fill="black"/>
<path d="M358.797 54.5693C359.555 64.7203 356.564 75.9383 350.092 87.2261L338.485 79.558L330.967 74.5722L358.797 54.5693Z" fill="#E7142D"/>
<path opacity="0.3" d="M358.797 54.5693C359.555 64.7203 356.564 75.9383 350.092 87.2261L338.485 79.558L330.967 74.5722L358.797 54.5693Z" fill="black"/>
<path d="M350.091 87.2263L342.662 82.9386L323.537 70.3047L330.966 74.5825L350.091 87.2263Z" fill="#E7142D"/>
<path opacity="0.7" d="M350.091 87.2263L342.662 82.9386L323.537 70.3047L330.966 74.5825L350.091 87.2263Z" fill="black"/>
<path d="M319.828 60.8515L314.523 39.3429C315.271 38.7346 315.979 38.1862 316.847 37.568C326.639 30.5181 335.952 29.2517 342.444 33.001L349.793 37.2389C351.976 39.9013 350.311 42.7731 351.019 47.2104L321.962 68.1506L321.673 68.36L319.828 60.8515Z" fill="#E7142D"/>
<path opacity="0.7" d="M319.828 60.8515L314.523 39.3429C315.271 38.7346 315.979 38.1862 316.847 37.568C326.639 30.5181 335.952 29.2517 342.444 33.001L349.793 37.2389C351.976 39.9013 350.311 42.7731 351.019 47.2104L321.962 68.1506L321.673 68.36L319.828 60.8515Z" fill="white"/>
<path d="M327.258 65.1593L321.953 43.6508C322.691 43.0425 323.409 42.4941 324.267 41.8758C340.68 30.0696 355.717 34.477 358.449 51.5382L329.392 72.4784L329.103 72.6878L327.258 65.1593Z" fill="#E7142D"/>
<path opacity="0.5" d="M327.258 65.1593L321.953 43.6508C322.691 43.0425 323.409 42.4941 324.267 41.8758C340.68 30.0696 355.717 34.477 358.449 51.5382L329.392 72.4784L329.103 72.6878L327.258 65.1593Z" fill="white"/>
<path d="M314.523 39.3428L321.942 43.6305L329.102 72.6277L321.673 68.3399L314.523 39.3428Z" fill="#E7142D"/>
<path opacity="0.1" d="M314.523 39.3428L321.942 43.6305L329.102 72.6277L321.673 68.3399L314.523 39.3428Z" fill="black"/>
<path d="M319.191 107.169C314.384 109.702 310.216 113.202 306.278 113.052L298.859 108.764C294.97 106.551 292.098 102.472 290.662 96.669C288.668 88.5821 289.914 78.2915 294.152 67.6818C298.056 57.8538 304.071 49.0033 311.772 41.7559L319.201 46.0436L316.449 60.6918L319.191 71.81V107.169Z" fill="#E7142D"/>
<path opacity="0.2" d="M319.191 107.169C314.384 109.702 310.216 113.202 306.278 113.052L298.859 108.764C294.97 106.551 292.098 102.472 290.662 96.669C288.668 88.5821 289.914 78.2915 294.152 67.6818C298.056 57.8538 304.071 49.0033 311.772 41.7559L319.201 46.0436L316.449 60.6918L319.191 71.81V107.169Z" fill="black"/>
<path d="M326.659 111.457C312.879 118.726 301.511 114.628 298.141 100.957C296.146 92.8702 297.393 82.5796 301.631 71.9699C305.531 62.1399 311.546 53.2886 319.25 46.0439L323.917 64.9898L326.659 76.0682V111.457Z" fill="#E7142D"/>
<path d="M343.281 194.499C343.305 194.051 343.435 193.614 343.66 193.226C343.886 192.838 344.2 192.509 344.578 192.266L410.509 154.194C410.91 153.993 411.352 153.888 411.801 153.888C412.249 153.888 412.691 153.993 413.092 154.194L414.538 155.032C414.915 155.275 415.229 155.605 415.454 155.993C415.68 156.381 415.81 156.817 415.834 157.266V207.811C415.81 208.259 415.68 208.696 415.454 209.084C415.229 209.472 414.915 209.801 414.538 210.045L348.596 248.106C348.197 248.312 347.754 248.42 347.305 248.42C346.856 248.42 346.413 248.312 346.014 248.106L344.568 247.269C344.19 247.026 343.876 246.696 343.65 246.308C343.425 245.92 343.295 245.483 343.271 245.035L343.281 194.499Z" fill="#E7142D"/>
<path opacity="0.4" d="M343.281 194.499C343.305 194.051 343.435 193.614 343.66 193.226C343.886 192.838 344.2 192.509 344.578 192.266L410.509 154.194C410.91 153.993 411.352 153.888 411.801 153.888C412.249 153.888 412.691 153.993 413.092 154.194L414.538 155.032C414.915 155.275 415.229 155.605 415.454 155.993C415.68 156.381 415.81 156.817 415.834 157.266V207.811C415.81 208.259 415.68 208.696 415.454 209.084C415.229 209.472 414.915 209.801 414.538 210.045L348.596 248.106C348.197 248.312 347.754 248.42 347.305 248.42C346.856 248.42 346.413 248.312 346.014 248.106L344.568 247.269C344.19 247.026 343.876 246.696 343.65 246.308C343.425 245.92 343.295 245.483 343.271 245.035L343.281 194.499Z" fill="white"/>
<path d="M349.324 196.503L343.66 193.223C343.43 193.61 343.3 194.049 343.281 194.499V245.035C343.305 245.483 343.435 245.919 343.66 246.308C343.885 246.696 344.2 247.025 344.578 247.268L346.023 248.106C346.423 248.312 346.865 248.42 347.315 248.42C347.764 248.42 348.207 248.312 348.606 248.106L349.324 247.687V196.503Z" fill="#E7142D"/>
<path opacity="0.3" d="M349.324 196.503L343.66 193.223C343.43 193.61 343.3 194.049 343.281 194.499V245.035C343.305 245.483 343.435 245.919 343.66 246.308C343.885 246.696 344.2 247.025 344.578 247.268L346.023 248.106C346.423 248.312 346.865 248.42 347.315 248.42C347.764 248.42 348.207 248.312 348.606 248.106L349.324 247.687V196.503Z" fill="black"/>
<path d="M415.834 157.266V207.811C415.813 208.274 415.676 208.723 415.435 209.118C415.242 209.445 414.984 209.73 414.677 209.955L414.598 210.015L348.596 248.106C348.47 248.195 348.323 248.25 348.17 248.267C348.017 248.285 347.862 248.264 347.719 248.206C347.581 248.115 347.47 247.988 347.4 247.838C347.329 247.689 347.302 247.523 347.32 247.359V196.783C347.306 196.602 347.337 196.42 347.41 196.253C347.483 196.087 347.596 195.941 347.739 195.829C347.882 195.716 348.051 195.641 348.23 195.609C348.409 195.577 348.593 195.59 348.766 195.646L376.516 202.277L380.146 203.135C380.574 203.214 381.016 203.176 381.423 203.023C381.831 202.87 382.189 202.609 382.459 202.267L386.667 196.414L414.987 156.987C415.405 156.319 415.834 156.448 415.834 157.266Z" fill="#E7142D"/>
<path d="M414.548 210.045L414.628 209.985C414.934 209.76 415.192 209.475 415.385 209.147C415.622 208.758 415.76 208.316 415.784 207.861L386.598 196.443L406.142 214.891L414.548 210.045Z" fill="#E7142D"/>
<path opacity="0.2" d="M414.548 210.045L414.628 209.985C414.934 209.76 415.192 209.475 415.385 209.147C415.622 208.758 415.76 208.316 415.784 207.861L386.598 196.443L406.142 214.891L414.548 210.045Z" fill="black"/>
<path d="M347.321 247.368C347.303 247.533 347.33 247.699 347.401 247.848C347.471 247.998 347.581 248.125 347.719 248.216C347.862 248.274 348.018 248.295 348.171 248.277C348.324 248.26 348.47 248.204 348.597 248.116L371.302 235.014L376.487 202.287L347.311 246.531L347.321 247.368Z" fill="#E7142D"/>
<path opacity="0.2" d="M347.321 247.368C347.303 247.533 347.33 247.699 347.401 247.848C347.471 247.998 347.581 248.125 347.719 248.216C347.862 248.274 348.018 248.295 348.171 248.277C348.324 248.26 348.47 248.204 348.597 248.116L371.302 235.014L376.487 202.287L347.311 246.531L347.321 247.368Z" fill="black"/>
<path d="M415.405 209.118C415.212 209.445 414.954 209.73 414.648 209.955L348.596 248.106C348.47 248.195 348.323 248.25 348.17 248.268C348.017 248.285 347.862 248.264 347.719 248.206L379.289 197.78C379.925 196.773 380.902 196.026 382.042 195.677C383.182 195.328 384.409 195.398 385.501 195.876L415.405 209.118Z" fill="#E7142D"/>
<path d="M347.32 195.337L377.644 208.748C378.737 209.225 379.965 209.294 381.105 208.943C382.245 208.592 383.221 207.843 383.856 206.834L415.695 155.899L347.32 195.337Z" fill="#E7142D"/>
<path opacity="0.3" d="M347.32 195.337L377.644 208.748C378.737 209.225 379.965 209.294 381.105 208.943C382.245 208.592 383.221 207.843 383.856 206.834L415.695 155.899L347.32 195.337Z" fill="black"/>
<path d="M347.32 195.336L377.853 206.754C378.909 207.144 380.067 207.166 381.137 206.815C382.207 206.463 383.127 205.76 383.746 204.819L415.655 155.869L347.32 195.336Z" fill="#E7142D"/>
</svg>
