<svg width="450" height="423" viewBox="0 0 450 423" fill="none" xmlns="http://www.w3.org/2000/svg">
<path d="M65.8995 390.551C153.771 433.664 296.229 433.675 384.101 390.551C471.972 347.426 471.961 277.516 384.101 234.391C296.24 191.267 153.771 191.267 65.8995 234.391C-21.9719 277.516 -21.9611 347.426 65.8995 390.551Z" fill="#E9E9E9"/>
<path d="M376.844 365.776C396.558 365.776 412.54 358.161 412.54 348.767C412.54 339.372 396.558 331.757 376.844 331.757C357.13 331.757 341.148 339.372 341.148 348.767C341.148 358.161 357.13 365.776 376.844 365.776Z" fill="#E6E6E6"/>
<path d="M223.681 196.684L183.141 220.095C181.494 221.171 180.33 222.847 179.897 224.767L169.819 282.955C169.703 283.858 169.844 284.776 170.227 285.602C170.609 286.429 171.218 287.13 171.982 287.626L198.129 302.765C198.968 303.185 199.894 303.403 200.832 303.403C201.771 303.403 202.696 303.185 203.536 302.765L259.42 270.497C260.242 270.061 260.928 269.409 261.407 268.612C261.886 267.814 262.139 266.902 262.139 265.972C262.139 265.042 261.886 264.129 261.407 263.332C260.928 262.535 260.242 261.883 259.42 261.446L239.372 249.8C238.565 249.27 237.878 248.578 237.353 247.769C236.828 246.959 236.477 246.049 236.322 245.096L231.802 201.182C231.667 200.259 231.342 199.373 230.847 198.582C230.352 197.791 229.698 197.111 228.926 196.586C228.106 196.189 227.203 195.991 226.292 196.008C225.381 196.025 224.486 196.256 223.681 196.684Z" fill="#263238"/>
<path d="M200.844 292.493V303.371C201.792 303.39 202.73 303.167 203.569 302.722L259.453 270.455C260.232 269.969 260.884 269.307 261.358 268.521C261.832 267.736 262.113 266.849 262.178 265.935C262.118 264.865 261.742 263.838 261.097 262.982H251.949L200.844 292.493Z" fill="#455A64"/>
<path d="M228.786 199.626L188.235 223.048C186.587 224.124 185.424 225.8 184.991 227.719L175.831 280.533C175.717 281.438 175.859 282.356 176.241 283.184C176.624 284.012 177.231 284.716 177.994 285.215L198.097 296.818C198.936 297.238 199.862 297.456 200.8 297.456C201.739 297.456 202.664 297.238 203.503 296.818L259.453 264.507C260.967 263.642 260.967 262.236 259.453 261.36L239.372 249.801C238.566 249.271 237.878 248.579 237.353 247.769C236.828 246.959 236.477 246.049 236.323 245.097L231.803 201.183C231.809 200.829 231.717 200.481 231.536 200.178C231.355 199.874 231.092 199.628 230.779 199.466C230.465 199.304 230.111 199.233 229.759 199.261C229.407 199.289 229.07 199.416 228.786 199.626Z" fill="#263238"/>
<path d="M259.454 261.403L239.373 249.8C238.563 249.294 237.879 248.61 237.373 247.8L176.211 283.106C176.582 283.978 177.213 284.714 178.017 285.215L198.119 296.818C198.959 297.238 199.884 297.456 200.823 297.456C201.761 297.456 202.687 297.238 203.526 296.818L259.454 264.507C261 263.685 261 262.279 259.454 261.403Z" fill="#37474F"/>
<path d="M94.805 312.411L92.2098 310.908C91.0984 310.185 90.1735 309.21 89.5102 308.061C88.8469 306.913 88.464 305.625 88.3926 304.301V130.202C88.4639 128.879 88.8469 127.592 89.5103 126.446C90.1737 125.3 91.0986 124.326 92.2098 123.606L304.978 1.41189C306.161 0.812395 307.469 0.5 308.795 0.5C310.122 0.5 311.43 0.812395 312.613 1.41189L314.592 2.49325C315.702 3.21705 316.627 4.1925 317.29 5.34046C317.953 6.48842 318.336 7.77655 318.409 9.10036V183.307C318.337 184.632 317.954 185.92 317.291 187.068C316.628 188.216 315.703 189.191 314.592 189.915L102.439 312.411C101.256 313.008 99.9481 313.319 98.6222 313.319C97.2963 313.319 95.9889 313.008 94.805 312.411Z" fill="#455A64"/>
<path d="M103.726 134.592L89.5169 126.385C88.8422 127.527 88.47 128.822 88.4355 130.148V304.301C88.5069 305.625 88.8898 306.913 89.5531 308.062C90.2164 309.21 91.1414 310.185 92.2527 310.908L94.848 312.411C96.0319 313.008 97.3393 313.319 98.6652 313.319C99.9911 313.319 101.299 313.008 102.482 312.411L103.769 311.654L103.726 134.592Z" fill="#263238"/>
<path d="M98.623 310.205V136.106C98.6944 134.782 99.0773 133.494 99.7406 132.346C100.404 131.198 101.329 130.223 102.44 129.499L314.592 6.94879C316.701 5.73766 318.41 6.7217 318.41 9.11151V183.308C318.338 184.632 317.955 185.92 317.292 187.068C316.629 188.217 315.704 189.192 314.592 189.915L102.44 312.411C100.332 313.623 98.623 312.639 98.623 310.205Z" fill="#37474F"/>
<path d="M198.28 245.291L218.382 233.677C219.885 232.812 221.107 233.429 221.107 235.062C221.041 235.976 220.759 236.862 220.286 237.648C219.812 238.433 219.16 239.096 218.382 239.582L198.28 251.196C196.766 252.061 195.555 251.444 195.555 249.811C195.62 248.896 195.902 248.01 196.375 247.225C196.849 246.439 197.501 245.777 198.28 245.291Z" fill="#E0E0E0"/>
<path d="M108.397 134.744L308.2 19.0384C309.4 18.3463 310.363 18.9086 310.363 20.2927V172.127C310.323 172.881 310.107 173.616 309.731 174.271C309.355 174.927 308.831 175.485 308.2 175.9L108.397 291.26C107.186 291.952 106.234 291.39 106.234 289.995V138.604C106.261 137.835 106.471 137.083 106.847 136.411C107.223 135.74 107.755 135.168 108.397 134.744Z" fill="white"/>
<path d="M122.801 138.56L332.488 17.4481C335.818 15.5341 338.543 17.102 338.543 20.9409V157.787C338.488 158.761 338.205 159.709 337.716 160.555C337.228 161.4 336.548 162.118 335.732 162.653L121.72 286.22C120.173 287.118 118.908 286.382 118.908 284.598V145.308C118.984 143.957 119.376 142.643 120.052 141.471C120.728 140.299 121.67 139.302 122.801 138.56Z" fill="#E0E0E0"/>
<path d="M338.543 24.1307V20.9731C338.543 17.1343 335.818 15.5663 332.488 17.4803L122.801 138.593C121.67 139.335 120.728 140.332 120.052 141.504C119.376 142.675 118.984 143.99 118.908 145.34V150.963L338.543 24.1307Z" fill="#E7142D"/>
<path d="M313.164 31.3329C312.559 31.7272 312.055 32.2588 311.694 32.8846C311.334 33.5104 311.126 34.2125 311.088 34.9339C311.088 36.2639 312.018 36.8046 313.164 36.145C313.772 35.7496 314.277 35.2165 314.64 34.5889C315.003 33.9613 315.212 33.257 315.251 32.5332C315.251 31.2032 314.321 30.6625 313.164 31.3329Z" fill="white"/>
<path d="M321.436 26.6076C320.844 27.0024 320.351 27.5291 319.997 28.1464C319.642 28.7637 319.435 29.4547 319.393 30.1653C319.393 31.4954 320.323 32.0361 321.48 31.3656C322.086 30.9696 322.592 30.4363 322.954 29.8089C323.317 29.1814 323.527 28.4774 323.567 27.7539C323.523 26.4238 322.637 25.8939 321.436 26.6076Z" fill="white"/>
<path d="M329.708 21.7841C329.101 22.1771 328.595 22.7083 328.232 23.3341C327.87 23.96 327.66 24.6627 327.621 25.385C327.621 26.7151 328.551 27.2558 329.708 26.5962C330.313 26.1989 330.816 25.6651 331.177 25.0377C331.537 24.4104 331.746 23.707 331.784 22.9844C331.784 21.6543 330.854 21.1137 329.708 21.7841Z" fill="white"/>
<path d="M325.295 48.1695C325.122 47.5964 324.582 47.4125 323.944 47.7802L190.59 124.784C190.169 125.05 189.826 125.423 189.595 125.865L185.205 123.324C185.435 122.882 185.779 122.509 186.2 122.243L319.553 45.2498C319.988 45.026 320.47 44.9092 320.959 44.9092C321.448 44.9092 321.93 45.026 322.365 45.2498L323.944 46.1582C324.293 46.3851 324.592 46.6803 324.825 47.0259C325.057 47.3715 325.217 47.7605 325.295 48.1695Z" fill="#EBEBEB"/>
<path d="M325.35 48.5917V106.217C325.325 106.705 325.184 107.18 324.94 107.603C324.695 108.026 324.354 108.385 323.944 108.65L190.591 185.643L190.396 185.741C190.313 185.776 190.226 185.801 190.137 185.816C189.607 185.892 189.229 185.514 189.229 184.821V127.174C189.246 126.685 189.387 126.209 189.639 125.79C189.87 125.348 190.213 124.975 190.634 124.709L323.988 47.705C324.626 47.3373 325.166 47.5211 325.339 48.0943C325.345 48.1301 325.345 48.1666 325.339 48.2024C325.359 48.3312 325.363 48.462 325.35 48.5917Z" fill="#FAFAFA"/>
<path d="M190.094 185.827C189.663 185.959 189.21 185.999 188.764 185.946C188.418 185.916 188.082 185.813 187.779 185.643L186.201 184.735C185.793 184.467 185.453 184.108 185.209 183.685C184.965 183.263 184.823 182.789 184.795 182.302V124.676C184.81 124.187 184.952 123.71 185.206 123.292L189.596 125.833C189.344 126.252 189.203 126.729 189.185 127.217V184.832C189.185 185.568 189.564 185.903 190.094 185.827Z" fill="#E0E0E0"/>
<path d="M246.237 164.827C246.064 164.254 245.513 164.07 244.886 164.438L190.59 195.797C190.158 196.06 189.804 196.433 189.563 196.878L185.184 194.316C185.422 193.873 185.773 193.5 186.2 193.234L240.484 161.875C240.919 161.651 241.401 161.534 241.89 161.534C242.379 161.534 242.861 161.651 243.296 161.875L244.886 162.783C245.235 163.017 245.535 163.318 245.767 163.669C245.999 164.02 246.159 164.414 246.237 164.827Z" fill="#EBEBEB"/>
<path d="M246.292 165.248V207.659C246.265 208.145 246.125 208.619 245.883 209.041C245.64 209.463 245.303 209.823 244.897 210.092L193.586 239.711L190.602 241.441L190.386 241.549C189.715 241.787 189.229 241.408 189.229 240.619V198.219C189.243 197.755 189.373 197.301 189.607 196.9C189.848 196.455 190.202 196.081 190.634 195.818L244.929 164.459C245.557 164.091 246.108 164.275 246.281 164.848C246.281 164.848 246.281 164.913 246.281 164.956C246.294 165.053 246.298 165.151 246.292 165.248Z" fill="#FAFAFA"/>
<path d="M190.342 241.56L190.169 241.625C190.093 241.656 190.013 241.678 189.931 241.69C189.811 241.723 189.688 241.744 189.564 241.755H189.196C188.941 241.753 188.688 241.724 188.439 241.668C188.209 241.616 187.987 241.533 187.779 241.419L186.201 240.5C185.791 240.234 185.45 239.875 185.206 239.453C184.961 239.03 184.82 238.555 184.795 238.067V195.689C184.811 195.213 184.945 194.748 185.184 194.337L189.564 196.9C189.33 197.301 189.2 197.755 189.185 198.219V240.63C189.185 241.419 189.629 241.798 190.342 241.56Z" fill="#E0E0E0"/>
<path d="M193.574 233.558V205.291C193.593 204.966 193.688 204.65 193.851 204.368C194.015 204.086 194.242 203.847 194.515 203.669L197.035 202.209C197.554 201.917 197.965 202.209 197.965 202.75V230.984C197.948 231.309 197.855 231.625 197.694 231.906C197.532 232.188 197.306 232.428 197.035 232.606L194.515 234.055C193.953 234.401 193.574 234.153 193.574 233.558Z" fill="#E7142D"/>
<path d="M202.365 228.486V195.148C202.381 194.823 202.473 194.507 202.635 194.225C202.797 193.943 203.023 193.703 203.295 193.525L205.847 192.055C206.366 191.763 206.788 192.055 206.788 192.596V225.934C206.772 226.26 206.678 226.577 206.515 226.859C206.351 227.141 206.122 227.38 205.847 227.556L203.328 229.016C202.776 229.329 202.365 229.081 202.365 228.486Z" fill="#E7142D"/>
<path d="M211.146 223.414V207.41C211.165 207.085 211.26 206.769 211.423 206.487C211.587 206.205 211.814 205.966 212.087 205.788L214.607 204.339C215.115 204.036 215.537 204.285 215.537 204.88V220.873C215.523 221.198 215.431 221.515 215.269 221.798C215.108 222.08 214.88 222.319 214.607 222.495L212.087 223.955C211.568 224.258 211.146 224.009 211.146 223.414Z" fill="#E7142D"/>
<path d="M219.906 218.354V197.603C219.924 197.277 220.018 196.961 220.182 196.679C220.345 196.397 220.573 196.158 220.847 195.981L223.367 194.521C223.886 194.229 224.307 194.467 224.307 195.062V215.845C224.291 216.171 224.198 216.489 224.034 216.771C223.87 217.053 223.641 217.292 223.367 217.467L220.847 218.927C220.35 219.198 219.906 218.949 219.906 218.354Z" fill="#E7142D"/>
<path d="M228.719 213.282V206.221C228.736 205.897 228.829 205.581 228.991 205.299C229.152 205.018 229.378 204.778 229.649 204.599L232.179 203.139C232.687 202.847 233.109 203.085 233.109 203.68V210.741C233.092 211.065 232.999 211.381 232.837 211.663C232.676 211.945 232.45 212.184 232.179 212.363L229.638 213.823C229.14 214.115 228.719 213.877 228.719 213.282Z" fill="#E7142D"/>
<path d="M237.5 208.211V185.005C237.519 184.679 237.613 184.363 237.777 184.081C237.94 183.8 238.168 183.56 238.441 183.383L240.96 181.934C241.479 181.631 241.901 181.934 241.901 182.474V205.669C241.885 205.995 241.791 206.312 241.628 206.595C241.464 206.877 241.235 207.116 240.96 207.291L238.441 208.751C237.922 209.043 237.5 208.805 237.5 208.211Z" fill="#E7142D"/>
<path d="M325.297 119.172C325.124 118.599 324.572 118.415 323.945 118.782L256.479 157.711C256.047 157.974 255.692 158.348 255.452 158.793L251.072 156.23C251.311 155.787 251.661 155.414 252.089 155.149L319.544 116.22C319.979 115.996 320.461 115.879 320.95 115.879C321.439 115.879 321.921 115.996 322.356 116.22L323.945 117.128C324.295 117.362 324.594 117.663 324.827 118.014C325.059 118.365 325.218 118.758 325.297 119.172Z" fill="#EBEBEB"/>
<path d="M325.35 119.605V162.015C325.323 162.502 325.183 162.975 324.94 163.397C324.698 163.82 324.361 164.18 323.955 164.449L259.473 201.68L256.489 203.41L256.272 203.518C255.602 203.756 255.115 203.377 255.115 202.588V160.177C255.13 159.713 255.26 159.259 255.494 158.858C255.734 158.413 256.089 158.04 256.521 157.777L323.987 118.848C324.614 118.48 325.166 118.664 325.339 119.237C325.339 119.237 325.339 119.302 325.339 119.345C325.35 119.431 325.353 119.518 325.35 119.605Z" fill="#FAFAFA"/>
<path d="M256.229 203.518L256.056 203.583C255.98 203.614 255.9 203.636 255.818 203.648C255.698 203.681 255.575 203.702 255.45 203.713H255.083C254.828 203.711 254.574 203.682 254.326 203.626C254.095 203.574 253.873 203.491 253.666 203.377L252.087 202.458C251.678 202.192 251.337 201.833 251.092 201.411C250.848 200.988 250.707 200.513 250.682 200.025V157.647C250.698 157.171 250.832 156.707 251.071 156.295L255.45 158.858C255.216 159.259 255.086 159.713 255.072 160.177V202.588C255.072 203.377 255.591 203.756 256.229 203.518Z" fill="#E0E0E0"/>
<path d="M280.04 154.1L276.547 167.076C276.221 168.114 275.716 169.088 275.055 169.952L263.777 183.502C263.047 182.984 262.43 182.325 261.962 181.563C261.493 180.801 261.184 179.953 261.051 179.068C260.262 174.743 262.49 168.752 266.848 163.507C267.594 162.621 268.351 161.788 269.129 160.999C272.173 157.873 275.911 155.51 280.04 154.1Z" fill="#E7142D"/>
<path d="M289.437 170.493C284.43 178.917 274.914 185.275 267.81 184.832C266.835 184.797 265.875 184.584 264.977 184.205L276.093 170.85C276.688 170.206 277.51 169.818 278.385 169.769H278.504L289.437 170.493Z" fill="#E7142D"/>
<path d="M288.475 153.883L278.115 166.33L281.543 153.667C283.811 152.951 286.256 153.027 288.475 153.883Z" fill="#E7142D"/>
<path d="M290.194 169.217L278.613 168.503C278.483 168.494 278.355 168.465 278.234 168.417C278.251 168.339 278.284 168.265 278.332 168.201C278.359 168.154 278.391 168.11 278.429 168.071L289.708 154.521C293.373 157.052 293.568 162.718 290.194 169.217Z" fill="#E7142D"/>
<path d="M297.061 145.016C297.061 145.794 297.699 146.097 298.466 145.61L319.553 133.434C319.938 133.207 320.266 132.893 320.51 132.518C320.754 132.143 320.907 131.716 320.959 131.272C320.959 130.493 320.331 130.19 319.553 130.666L298.466 142.842C298.083 143.075 297.757 143.391 297.514 143.767C297.27 144.144 297.115 144.571 297.061 145.016Z" fill="#E7142D"/>
<path d="M297.061 153.494C297.061 154.273 297.699 154.576 298.466 154.089L319.553 141.924C319.945 141.688 320.276 141.364 320.52 140.977C320.764 140.59 320.914 140.151 320.959 139.696C320.959 138.918 320.331 138.615 319.553 139.101L298.466 151.267C298.076 151.504 297.746 151.829 297.502 152.216C297.258 152.602 297.107 153.04 297.061 153.494Z" fill="#E0E0E0"/>
<path d="M297.061 158.728C297.061 159.507 297.699 159.809 298.466 159.323L319.553 147.147C319.945 146.914 320.277 146.592 320.521 146.207C320.765 145.821 320.915 145.384 320.959 144.93C320.959 144.151 320.331 143.848 319.553 144.324L298.466 156.5C298.076 156.738 297.746 157.063 297.502 157.449C297.258 157.836 297.107 158.273 297.061 158.728Z" fill="#E0E0E0"/>
<path d="M297.061 163.94C297.061 164.718 297.699 165.021 298.466 164.545L319.553 152.369C319.946 152.135 320.279 151.811 320.523 151.424C320.768 151.037 320.917 150.597 320.959 150.141C320.959 149.363 320.331 149.06 319.553 149.547L298.466 161.777C298.083 162.006 297.756 162.32 297.513 162.695C297.269 163.07 297.114 163.496 297.061 163.94Z" fill="#E0E0E0"/>
<path d="M297.061 169.185C297.061 169.963 297.699 170.266 298.466 169.79L319.553 157.614C319.945 157.378 320.276 157.054 320.52 156.667C320.764 156.28 320.914 155.842 320.959 155.387C320.959 154.608 320.331 154.305 319.553 154.792L298.466 166.968C298.076 167.203 297.745 167.525 297.501 167.91C297.257 168.295 297.106 168.731 297.061 169.185Z" fill="#E0E0E0"/>
<path d="M171.558 159.765C171.384 159.182 170.844 158.998 170.206 159.376L133.44 180.571C133.023 180.843 132.681 181.215 132.445 181.652L128.098 179.079C128.331 178.639 128.674 178.267 129.093 177.997L165.859 156.792C166.295 156.573 166.776 156.459 167.265 156.459C167.753 156.459 168.234 156.573 168.67 156.792L170.249 157.711C170.595 157.947 170.889 158.251 171.114 158.604C171.339 158.957 171.49 159.352 171.558 159.765Z" fill="#EBEBEB"/>
<path d="M171.613 160.188V172.158C171.587 172.646 171.445 173.12 171.201 173.543C170.957 173.966 170.616 174.325 170.207 174.591L133.441 195.786L133.181 195.916H133.117C132.489 196.1 132.035 195.721 132.035 194.953V183.004C132.049 182.515 132.19 182.038 132.446 181.62C132.683 181.183 133.025 180.811 133.441 180.539L170.207 159.344C170.845 158.966 171.386 159.15 171.559 159.734C171.565 159.769 171.565 159.806 171.559 159.842C171.589 159.955 171.607 160.071 171.613 160.188Z" fill="#FAFAFA"/>
<path d="M133.159 195.937C132.988 196.002 132.81 196.049 132.629 196.078C132.079 196.179 131.511 196.13 130.986 195.937L130.672 195.786L129.093 194.878C128.683 194.612 128.342 194.253 128.098 193.83C127.854 193.407 127.713 192.932 127.688 192.445V180.474C127.706 179.985 127.848 179.51 128.098 179.09L132.489 181.62C132.233 182.038 132.091 182.515 132.078 183.004V194.975C132.078 195.743 132.532 196.121 133.159 195.937Z" fill="#E0E0E0"/>
<path d="M171.558 182.583C171.385 181.999 170.844 181.815 170.206 182.193L133.44 203.388C133.024 203.66 132.682 204.032 132.445 204.469L128.055 201.939C128.288 201.499 128.631 201.127 129.05 200.858L165.816 179.652C166.252 179.433 166.733 179.319 167.222 179.319C167.71 179.319 168.191 179.433 168.627 179.652L170.206 180.571C170.555 180.798 170.855 181.093 171.087 181.439C171.319 181.785 171.48 182.174 171.558 182.583Z" fill="#EBEBEB"/>
<path d="M171.613 183.004V194.975C171.591 195.476 171.447 195.963 171.195 196.396C170.942 196.83 170.589 197.195 170.164 197.462L133.398 218.657L133.138 218.786H133.074C132.446 218.97 131.992 218.592 131.992 217.824V205.821C132.006 205.331 132.148 204.854 132.403 204.437C132.64 203.999 132.982 203.628 133.398 203.355L170.164 182.161C170.802 181.782 171.343 181.966 171.516 182.55C171.522 182.586 171.522 182.622 171.516 182.658C171.561 182.769 171.594 182.885 171.613 183.004Z" fill="#FAFAFA"/>
<path d="M133.159 218.754C132.988 218.818 132.81 218.866 132.629 218.894C132.079 218.995 131.511 218.947 130.986 218.754L130.672 218.602L129.093 217.694C128.683 217.428 128.342 217.069 128.098 216.646C127.854 216.224 127.713 215.749 127.688 215.261V203.29C127.706 202.802 127.848 202.326 128.098 201.906L132.489 204.437C132.233 204.854 132.091 205.331 132.078 205.821V217.791C132.078 218.559 132.532 218.938 133.159 218.754Z" fill="#E0E0E0"/>
<path d="M171.558 205.41C171.385 204.826 170.844 204.642 170.206 205.02L133.44 226.215C133.024 226.487 132.682 226.859 132.445 227.296L128.055 224.766C128.288 224.326 128.631 223.954 129.05 223.685L165.816 202.479C166.252 202.26 166.733 202.146 167.222 202.146C167.71 202.146 168.191 202.26 168.627 202.479L170.206 203.398C170.555 203.625 170.855 203.921 171.087 204.266C171.319 204.612 171.48 205.001 171.558 205.41Z" fill="#EBEBEB"/>
<path d="M171.613 205.832V217.803C171.587 218.29 171.445 218.765 171.201 219.187C170.957 219.61 170.616 219.969 170.207 220.236L133.441 241.43L133.181 241.56H133.117C132.489 241.744 132.035 241.365 132.035 240.598V228.649C132.049 228.159 132.19 227.682 132.446 227.264C132.683 226.827 133.025 226.455 133.441 226.183L170.164 205.032C170.802 204.653 171.343 204.837 171.516 205.421C171.522 205.457 171.522 205.493 171.516 205.529C171.558 205.627 171.59 205.728 171.613 205.832Z" fill="#FAFAFA"/>
<path d="M133.159 241.582C132.988 241.646 132.81 241.694 132.629 241.723C132.079 241.823 131.511 241.775 130.986 241.582L130.672 241.431L129.093 240.522C128.683 240.256 128.342 239.897 128.098 239.475C127.854 239.052 127.713 238.577 127.688 238.089V226.119C127.706 225.63 127.848 225.154 128.098 224.734L132.489 227.265C132.233 227.682 132.091 228.16 132.078 228.649V240.62C132.078 241.387 132.532 241.798 133.159 241.582Z" fill="#E0E0E0"/>
<path d="M171.558 228.238C171.385 227.654 170.844 227.47 170.206 227.849L133.44 249.043C133.024 249.315 132.682 249.687 132.445 250.125L128.055 247.594C128.288 247.155 128.631 246.782 129.05 246.513L165.816 225.307C166.252 225.089 166.733 224.975 167.222 224.975C167.71 224.975 168.191 225.089 168.627 225.307L170.206 226.227C170.555 226.454 170.855 226.749 171.087 227.094C171.319 227.44 171.48 227.829 171.558 228.238Z" fill="#EBEBEB"/>
<path d="M171.613 228.659V240.63C171.587 241.117 171.445 241.592 171.201 242.014C170.957 242.437 170.616 242.796 170.207 243.063L133.441 264.257L133.181 264.387H133.117C132.489 264.571 132.035 264.192 132.035 263.425V251.53C132.049 251.04 132.19 250.563 132.446 250.146C132.683 249.708 133.025 249.337 133.441 249.064L170.207 227.87C170.845 227.491 171.386 227.675 171.559 228.259C171.565 228.295 171.565 228.331 171.559 228.367C171.586 228.462 171.604 228.56 171.613 228.659Z" fill="#FAFAFA"/>
<path d="M133.159 264.409C132.988 264.474 132.81 264.521 132.629 264.55C132.079 264.65 131.511 264.602 130.986 264.409L130.672 264.258L129.093 263.349C128.683 263.084 128.342 262.725 128.098 262.302C127.854 261.879 127.713 261.404 127.688 260.916V248.946C127.706 248.457 127.848 247.981 128.098 247.562L132.489 250.092C132.233 250.509 132.091 250.987 132.078 251.476V263.425C132.078 264.214 132.532 264.593 133.159 264.409Z" fill="#E0E0E0"/>
<path d="M175.42 140.81C175.466 140.797 175.514 140.797 175.56 140.81L171.613 138.539V137.317C171.623 137.213 171.623 137.107 171.613 137.003C171.619 136.967 171.619 136.931 171.613 136.895C171.535 136.486 171.375 136.097 171.143 135.751C170.91 135.406 170.611 135.111 170.262 134.884L168.683 133.965C168.246 133.746 167.765 133.632 167.277 133.632C166.789 133.632 166.308 133.746 165.871 133.965L129.105 155.17C128.696 155.436 128.355 155.796 128.111 156.218C127.867 156.641 127.726 157.116 127.699 157.603V169.574C127.725 170.062 127.865 170.536 128.11 170.959C128.354 171.382 128.695 171.741 129.105 172.007L130.684 172.915L130.997 173.067C131.523 173.259 132.09 173.308 132.641 173.207C132.822 173.178 132.999 173.131 133.171 173.067H133.236L133.495 172.937L170.262 151.742C170.671 151.476 171.011 151.117 171.256 150.694C171.5 150.271 171.641 149.797 171.667 149.309V145.881L175.679 141.253C175.717 141.21 175.74 141.157 175.746 141.1C175.751 141.043 175.739 140.986 175.71 140.937C175.681 140.888 175.638 140.849 175.586 140.826C175.533 140.803 175.475 140.798 175.42 140.81Z" fill="#E7142D"/>
<path opacity="0.1" d="M133.159 173.11C132.988 173.175 132.81 173.222 132.629 173.251C132.079 173.352 131.511 173.303 130.986 173.11L130.672 172.959L129.072 172.051C128.662 171.785 128.321 171.426 128.077 171.003C127.832 170.58 127.692 170.105 127.666 169.617V157.647C127.685 157.158 127.826 156.682 128.077 156.263L132.467 158.793C132.212 159.211 132.07 159.688 132.056 160.177V172.148C132.078 172.916 132.532 173.294 133.159 173.11Z" fill="black"/>
<path opacity="0.4" d="M171.558 136.906C171.385 136.322 170.844 136.138 170.206 136.517L133.44 157.711C133.024 157.983 132.682 158.355 132.445 158.793L128.055 156.262C128.288 155.822 128.631 155.45 129.05 155.181L165.816 133.975C166.252 133.757 166.733 133.643 167.222 133.643C167.71 133.643 168.191 133.757 168.627 133.975L170.206 134.894C170.555 135.121 170.855 135.417 171.087 135.762C171.319 136.108 171.48 136.497 171.558 136.906Z" fill="white"/>
<path opacity="0.4" d="M175.42 140.81H171.613V138.582L175.56 140.853C175.519 140.825 175.47 140.81 175.42 140.81Z" fill="white"/>
<path d="M57.0441 334.06L64.6136 329.735C64.6136 329.735 68.2578 309.687 65.5328 292.46C61.7048 268.238 45.214 259.879 39.2233 262.28C33.2325 264.68 31.8268 271.871 42.6404 285.864C49.0528 294.126 57.2496 311.579 57.0441 334.06Z" fill="#E7142D"/>
<g opacity="0.1">
<path opacity="0.1" d="M57.0441 334.06L64.6136 329.735C64.6136 329.735 68.2578 309.687 65.5328 292.46C61.7048 268.238 45.214 259.879 39.2233 262.28C33.2325 264.68 31.8268 271.871 42.6404 285.864C49.0528 294.126 57.2496 311.579 57.0441 334.06Z" fill="black"/>
</g>
<path d="M59.7891 324.447H59.7134C59.5735 324.425 59.4476 324.35 59.3627 324.236C59.2778 324.123 59.2406 323.981 59.2592 323.841C62.3952 301.132 53.2685 276.315 43.0388 266.302C42.9882 266.252 42.9479 266.192 42.9205 266.126C42.893 266.06 42.8789 265.989 42.8789 265.918C42.8789 265.847 42.893 265.776 42.9205 265.71C42.9479 265.644 42.9882 265.584 43.0388 265.534C43.0882 265.484 43.1471 265.444 43.212 265.416C43.277 265.389 43.3468 265.375 43.4173 265.375C43.4878 265.375 43.5576 265.389 43.6226 265.416C43.6876 265.444 43.7465 265.484 43.7958 265.534C54.2309 275.731 63.5306 300.981 60.3514 324.003C60.3258 324.132 60.2551 324.247 60.152 324.329C60.0489 324.41 59.9203 324.452 59.7891 324.447Z" fill="white"/>
<path d="M36 346.226C34.8105 346.907 32.3342 345.404 31.3934 344.766C29.7751 343.674 28.4645 342.184 27.5871 340.44C26.5969 338.431 26.2639 336.161 26.6354 333.952C26.8249 332.795 27.0959 331.654 27.4465 330.535C27.7709 329.454 28.0845 328.318 28.3981 327.215C28.7886 326.143 28.9542 325.002 28.8847 323.863C28.6035 321.592 26.5814 320.003 24.7539 318.629C22.7209 317.105 20.6123 315.104 20.6231 312.368C20.7786 310.245 21.6256 308.232 23.0345 306.637C24.343 304.982 25.8893 303.523 27.0788 301.771C28.0235 300.562 28.527 299.066 28.5062 297.532C28.3817 296.594 28.0651 295.692 27.5762 294.883C26.4684 293.185 25.4957 291.402 24.6674 289.551C24.0077 287.637 24.1051 285.226 25.5973 283.896C26.2639 283.397 27.0232 283.036 27.8308 282.834C28.6384 282.631 29.4782 282.592 30.3013 282.717C31.8365 282.92 33.311 283.447 34.6267 284.264C38.9522 286.675 41.4501 291.833 46.0567 293.671C47.8827 294.245 49.7426 294.703 51.6257 295.045C52.571 295.218 53.4694 295.587 54.263 296.129C55.0565 296.671 55.7274 297.374 56.2323 298.192C57.9192 301.565 54.7833 305.761 55.9728 309.319C57.0541 312.487 60.1036 313.709 61.8337 316.564C62.5474 317.823 62.8321 319.281 62.6448 320.716C62.4985 323.147 61.9046 325.53 60.8929 327.745C59.7685 329.943 58.4818 332.054 57.0433 334.06C56.9676 334.136 36.1839 346.117 36 346.226Z" fill="#E7142D"/>
<path d="M48.3173 339.661C48.2462 339.659 48.1765 339.642 48.1119 339.612C48.0474 339.582 47.9894 339.54 47.9412 339.488C47.8929 339.436 47.8555 339.374 47.831 339.308C47.8065 339.241 47.7953 339.17 47.7982 339.099C48.6849 317.634 38.5742 293.931 31.221 287.042C31.1219 286.941 31.0664 286.805 31.0664 286.664C31.0664 286.522 31.1219 286.387 31.221 286.285C31.3239 286.186 31.4615 286.13 31.6048 286.13C31.7482 286.13 31.8858 286.186 31.9887 286.285C39.4934 293.314 49.8095 317.407 48.912 339.175C48.9053 339.246 48.8845 339.315 48.8509 339.378C48.8172 339.441 48.7714 339.497 48.7161 339.542C48.6608 339.587 48.5971 339.621 48.5286 339.642C48.4602 339.662 48.3883 339.669 48.3173 339.661Z" fill="white"/>
<path d="M45.0951 314.304C45.0452 314.315 44.9935 314.315 44.9437 314.304C39.8551 312.909 34.6307 312.068 29.3613 311.795C29.2903 311.792 29.2205 311.776 29.156 311.746C29.0914 311.716 29.0334 311.674 28.9852 311.622C28.937 311.569 28.8995 311.508 28.875 311.442C28.8505 311.375 28.8393 311.304 28.8422 311.233C28.8436 311.161 28.8593 311.091 28.8886 311.026C28.9179 310.961 28.9601 310.902 29.0126 310.853C29.0652 310.805 29.127 310.768 29.1943 310.744C29.2617 310.72 29.3332 310.71 29.4046 310.714C34.7657 310.994 40.0809 311.854 45.2573 313.277C45.4007 313.298 45.5297 313.376 45.6159 313.492C45.7021 313.609 45.7384 313.755 45.7169 313.898C45.6954 314.042 45.6178 314.171 45.5012 314.257C45.3846 314.343 45.2385 314.38 45.0951 314.358V314.304Z" fill="white"/>
<path d="M126.164 290.676C126.104 290.033 125.871 289.418 125.49 288.897C125.109 288.376 124.595 287.966 124.002 287.713C122.411 286.903 120.651 286.48 118.865 286.48C117.08 286.48 115.32 286.903 113.729 287.713C113.137 287.968 112.624 288.378 112.243 288.899C111.863 289.42 111.629 290.034 111.566 290.676L108.69 366.23C108.582 367.798 109.566 369.388 111.642 370.556C113.867 371.686 116.327 372.275 118.822 372.275C121.317 372.275 123.778 371.686 126.002 370.556C128.078 369.355 129.052 367.766 128.954 366.23L126.164 290.676Z" fill="#E7142D"/>
<path opacity="0.15" d="M113.771 287.713C110.938 289.346 110.938 292.038 113.771 293.639C115.362 294.448 117.122 294.871 118.908 294.871C120.693 294.871 122.453 294.448 124.044 293.639C126.877 292.006 126.877 289.313 124.044 287.713C122.453 286.903 120.693 286.48 118.908 286.48C117.122 286.48 115.362 286.903 113.771 287.713Z" fill="black"/>
<path d="M122.011 266.584C121.05 266.093 119.987 265.837 118.908 265.837C117.829 265.837 116.765 266.093 115.804 266.584C115.45 266.739 115.144 266.986 114.917 267.3C114.691 267.614 114.553 267.982 114.518 268.368V290.676C114.551 291.064 114.688 291.435 114.915 291.75C115.141 292.066 115.448 292.315 115.804 292.471C116.767 292.956 117.83 293.209 118.908 293.209C119.986 293.209 121.049 292.956 122.011 292.471C122.367 292.315 122.675 292.066 122.901 291.75C123.128 291.435 123.265 291.064 123.298 290.676V268.368C123.263 267.982 123.125 267.614 122.899 267.3C122.672 266.986 122.366 266.739 122.011 266.584Z" fill="#263238"/>
<path d="M167.785 211.942C167.785 211.499 167.785 211.066 167.72 210.634C167.655 210.201 167.666 209.779 167.623 209.358C167.58 208.936 167.569 208.795 167.536 208.514C167.461 207.779 167.353 207.054 167.234 206.352C167.234 206.038 167.126 205.714 167.061 205.4C166.996 205.086 166.942 204.805 166.877 204.513C166.693 203.713 166.498 202.934 166.271 202.188C166.152 201.831 166.044 201.475 165.925 201.107C165.902 201.055 165.884 201 165.871 200.945C165.741 200.599 165.622 200.263 165.493 199.939C165.363 199.615 165.19 199.182 165.017 198.858C164.844 198.533 164.779 198.328 164.638 198.068C164.56 197.874 164.466 197.686 164.357 197.506C164.253 197.275 164.134 197.051 164 196.836C164 196.836 163.946 196.727 163.914 196.684C163.881 196.641 163.687 196.295 163.568 196.1C163.449 195.906 163.406 195.852 163.33 195.733C162.776 194.86 162.154 194.032 161.47 193.256L161.124 192.867L160.832 192.564L160.454 192.186C160.114 191.829 159.753 191.493 159.372 191.18C159.188 191.018 158.994 190.866 158.799 190.726L158.204 190.293C157.895 190.067 157.574 189.857 157.242 189.666L156.982 189.504H156.928L141.605 180.658H141.519C138.579 179.019 135.261 178.18 131.895 178.225C126.877 178.225 121.211 179.869 115.209 183.329C94.5987 195.224 77.8809 224.183 77.8809 247.995C77.8809 259.89 82.0333 268.216 88.6945 272.131H88.7593L104.093 280.965H104.158L104.342 281.063C104.629 281.233 104.925 281.388 105.228 281.528C105.596 281.712 105.975 281.874 106.31 282.025C106.645 282.177 106.991 282.295 107.391 282.404L107.943 282.566C108.136 282.64 108.335 282.698 108.537 282.739C108.737 282.799 108.939 282.85 109.143 282.89C109.288 282.933 109.436 282.965 109.586 282.988C109.846 283.042 110.127 283.096 110.397 283.128C110.458 283.138 110.52 283.138 110.581 283.128L111.554 283.258C117.123 283.842 123.579 282.274 130.5 278.284C151.121 266.389 167.839 237.419 167.839 213.618C167.818 213.067 167.807 212.505 167.785 211.942ZM142.784 195.105C143.586 198.066 143.979 201.122 143.952 204.189C143.952 225.189 128.586 251.769 110.43 262.301C107.776 263.879 104.91 265.069 101.919 265.837C101.114 262.874 100.718 259.814 100.741 256.743C100.741 235.743 116.107 209.163 134.263 198.631C136.92 197.054 139.79 195.867 142.784 195.105Z" fill="#E7142D"/>
<path opacity="0.1" d="M103.563 280.62L88.673 272.077C81.9577 268.152 77.8594 259.804 77.8594 247.952C77.8594 237.333 81.19 225.698 86.6941 215.014L102.028 223.859C96.5128 234.543 93.1931 246.178 93.1931 256.797C93.139 268.357 97.0968 276.597 103.563 280.62Z" fill="black"/>
<path opacity="0.4" d="M167.785 211.942C167.785 211.499 167.785 211.066 167.72 210.634C167.655 210.201 167.666 209.78 167.622 209.358C167.579 208.936 167.568 208.796 167.536 208.514C167.46 207.779 167.352 207.055 167.233 206.352C167.233 206.038 167.125 205.714 167.06 205.4C166.995 205.087 166.941 204.805 166.876 204.513C166.693 203.713 166.498 202.935 166.271 202.188C166.152 201.832 166.044 201.475 165.925 201.107C165.902 201.055 165.884 201 165.871 200.945C165.741 200.599 165.622 200.264 165.492 199.939C165.362 199.615 165.189 199.182 165.016 198.858C164.843 198.533 164.779 198.328 164.638 198.068C164.56 197.874 164.466 197.686 164.357 197.506C164.253 197.275 164.134 197.051 164 196.836C164 196.836 163.946 196.728 163.913 196.684C163.881 196.641 163.686 196.295 163.567 196.1C163.448 195.906 163.405 195.852 163.329 195.733C162.775 194.86 162.153 194.032 161.47 193.256L161.124 192.867L160.832 192.564L160.453 192.186C160.113 191.829 159.752 191.493 159.372 191.18C159.188 191.018 158.993 190.867 158.799 190.726L158.204 190.293C157.895 190.067 157.574 189.858 157.241 189.666C150.461 185.546 141.021 186.033 130.521 192.078C109.899 203.973 93.1816 232.932 93.1816 256.743C93.1816 268.8 97.5071 277.224 104.374 281.052C104.661 281.222 104.957 281.377 105.26 281.517C105.628 281.701 106.007 281.863 106.342 282.014C106.677 282.166 107.023 282.285 107.423 282.393L107.975 282.555C108.168 282.629 108.367 282.687 108.569 282.728C108.769 282.789 108.971 282.839 109.175 282.88C109.32 282.922 109.468 282.955 109.618 282.977C109.878 283.031 110.159 283.085 110.429 283.117C110.49 283.128 110.552 283.128 110.613 283.117L111.586 283.247C117.155 283.831 123.611 282.263 130.532 278.273C151.153 266.378 167.871 237.408 167.871 213.608C167.817 213.067 167.806 212.505 167.785 211.942ZM126.693 271.752C122.065 274.423 117.61 275.829 113.803 275.829C106.655 275.829 103.368 270.952 101.908 265.837C101.103 262.874 100.706 259.814 100.73 256.743C100.73 235.743 116.096 209.163 134.252 198.631C136.909 197.054 139.778 195.867 142.773 195.106C144.188 194.753 145.64 194.568 147.098 194.554C158.918 194.554 160.183 207.898 160.183 213.64C160.237 234.64 144.881 261.263 126.693 271.752Z" fill="white"/>
<path opacity="0.1" d="M160.237 213.683C160.237 234.683 144.881 261.263 126.714 271.795C122.086 274.466 117.631 275.872 113.825 275.872C106.677 275.872 103.39 270.995 101.93 265.88C104.92 265.112 107.786 263.922 110.44 262.344C128.628 251.844 143.962 225.232 143.962 204.232C143.989 201.165 143.596 198.109 142.794 195.148C144.21 194.796 145.661 194.611 147.12 194.597C158.971 194.554 160.237 207.898 160.237 213.683Z" fill="black"/>
<path opacity="0.7" d="M153.707 209.974C153.707 230.974 138.352 257.554 120.185 268.086C115.557 270.757 111.102 272.163 107.295 272.163C106.538 272.165 105.782 272.103 105.035 271.979C103.574 270.174 102.509 268.081 101.91 265.837C101.105 262.873 100.708 259.814 100.731 256.743C100.731 235.743 116.098 209.163 134.254 198.63C136.911 197.054 139.78 195.867 142.775 195.105C144.19 194.753 145.642 194.568 147.1 194.554C147.861 194.552 148.62 194.613 149.371 194.738C153.156 199.139 153.707 206.2 153.707 209.974Z" fill="white"/>
<path opacity="0.1" d="M116.788 294.678L114.853 371.811C113.775 371.543 112.739 371.132 111.771 370.589C109.694 369.389 108.71 367.799 108.819 366.264L111.695 290.72C111.758 291.362 111.992 291.975 112.372 292.496C112.753 293.017 113.265 293.427 113.858 293.683C114.773 294.173 115.763 294.509 116.788 294.678Z" fill="black"/>
<path d="M403.49 218.96C403.49 218.127 401.879 209.228 400.808 204.318L390.395 207.562L392.244 216.678L401.024 223.718C403.739 223.123 403.555 219.793 403.49 218.96Z" fill="#FFA8A7"/>
<path d="M376.281 174.365H378.498C382.611 174.359 386.553 172.722 389.46 169.813C392.368 166.903 394.002 162.96 394.005 158.847C394.002 154.441 392.249 150.216 389.133 147.102C386.016 143.987 381.79 142.237 377.384 142.237C372.978 142.237 368.752 143.987 365.636 147.102C362.519 150.216 360.767 154.441 360.764 158.847C360.764 162.963 362.399 166.909 365.309 169.82C368.219 172.73 372.166 174.365 376.281 174.365Z" fill="#263238"/>
<path d="M353.129 200.285L348.209 209.304L355.865 215.868L362.883 204.751L353.129 200.285Z" fill="#F28F8F"/>
<path d="M371.599 180.16C366.722 180.214 361.348 181.988 359.499 185.816C357.65 189.644 351.832 201.571 351.832 201.571C351.832 201.571 356.157 207.886 362.992 207.443L371.599 180.16Z" fill="#E7142D"/>
<g opacity="0.1">
<path opacity="0.1" d="M371.599 180.16C366.722 180.214 361.348 181.988 359.499 185.816C357.65 189.644 351.832 201.571 351.832 201.571C351.832 201.571 356.157 207.886 362.992 207.443L371.599 180.16Z" fill="black"/>
</g>
<path d="M388.069 340.559V339.478C387.647 340.732 385.69 346.128 382.727 348.832C380.369 350.994 377.158 353.46 376.336 355.85C375.514 358.239 380.813 359.18 383.019 358.791C385.956 358.294 388.65 356.847 390.685 354.671C391.951 353.125 392.762 351.275 393.659 350.054C394.557 348.832 396.655 347.458 397.141 346.042C397.289 344.721 397.141 343.384 396.709 342.127C396.363 340.808 395.995 339.348 395.541 339.478V340.289C394.477 341.129 393.155 341.576 391.799 341.554C390.761 341.608 388.058 341.392 388.069 340.559Z" fill="#263238"/>
<path d="M380.597 350.724C381.332 350.075 382.067 349.437 382.759 348.832C384.751 346.734 386.302 344.26 387.323 341.554C387.834 340.305 388.098 338.968 388.101 337.618V333.368H395.574V340.289V340.473C395.217 342.03 391.789 346.161 389.842 348.853C388.534 350.659 386.058 352.952 383.095 353.352C380.132 353.752 378.769 352.854 380.597 350.724Z" fill="#FFA8A7"/>
<path d="M360.311 333.346V332.265C359.889 333.519 357.932 338.904 354.969 341.608C352.611 343.771 349.4 346.247 348.578 348.637C347.756 351.026 353.055 351.967 355.25 351.578C358.192 351.084 360.889 349.636 362.928 347.458C364.193 345.912 364.993 344.063 365.901 342.841C366.81 341.619 368.886 340.245 369.383 338.829C369.525 337.508 369.378 336.172 368.951 334.914C368.605 333.595 368.226 332.135 367.783 332.265V333.076C366.718 333.914 365.397 334.361 364.041 334.341C362.949 334.406 360.3 334.19 360.311 333.346Z" fill="#263238"/>
<path d="M352.838 343.522L355.001 341.63C356.989 339.532 358.537 337.058 359.553 334.352C360.073 333.105 360.341 331.767 360.343 330.416V326.145H367.815V333.076V333.271C367.458 334.828 364.03 338.959 362.084 341.651C360.775 343.457 358.299 345.75 355.325 346.15C352.449 346.539 351.011 345.609 352.838 343.522Z" fill="#FFA8A7"/>
<path d="M394.005 224.496C399.802 237.148 393.8 281.711 393.8 281.711C393.973 283.766 396.32 287.799 397.196 296.85C398.277 307.534 395.573 334.33 395.573 334.33C394.432 334.995 393.146 335.37 391.826 335.422C390.507 335.475 389.195 335.204 388.004 334.633C388.004 334.633 380.889 294.266 379.548 283.647C378.38 274.39 376.131 252.623 376.131 252.623L369.761 283.603C370.756 287.163 371.347 290.823 371.524 294.514C371.675 300.786 367.869 328.296 367.869 328.296C367.134 329.702 361.565 330.037 360.105 328.296C360.105 328.296 356.861 289.681 356.158 282.165C355.769 277.678 360.883 222.69 360.883 222.69L394.005 224.496Z" fill="#37474F"/>
<path d="M376.195 252.611L374.324 242.263C374.324 242.263 366.366 240.619 362.754 237.224C365.247 240.142 368.505 242.307 372.162 243.474L374.27 252.525L370.583 279.905L376.195 252.611Z" fill="#263238"/>
<path d="M383.841 180.518C385.97 181.034 387.956 182.022 389.651 183.409C391.347 184.796 392.71 186.546 393.638 188.531C395.002 191.552 395.13 194.986 393.995 198.101L388.815 213.067C388.815 213.067 391.237 218.928 394.049 224.453C381.073 231.709 364.852 227.892 360.948 222.604C360.786 221.523 361.013 216.43 360.7 210.709C360.365 204.578 359.521 197.646 360.483 193.851C362.268 186.811 365.631 180.204 372.303 180.204L383.841 180.518Z" fill="#E7142D"/>
<path d="M383.84 180.518C388.263 181.145 395.162 182.021 398.211 192.791C401.185 203.291 401.877 206.946 401.877 206.946C401.877 206.946 398.244 211.185 390.89 211.142L388.598 203.053L383.84 180.518Z" fill="#E7142D"/>
<path d="M366.972 150.65C365.22 151.678 363.047 156.057 363.263 165.357C363.447 173.197 365.988 175.089 367.264 175.695C368.54 176.3 371.006 175.911 373.395 175.511V180.215C373.395 180.215 370.086 184.064 370.292 186.216C370.497 188.368 375.071 188.887 378.164 186.779C380.171 185.333 381.894 183.529 383.247 181.458V170.082C383.498 170.392 383.808 170.648 384.159 170.836C384.511 171.024 384.896 171.14 385.293 171.178C385.69 171.215 386.09 171.173 386.47 171.053C386.85 170.934 387.203 170.74 387.507 170.483C390.146 168.731 390.243 164.384 388.707 162.827C387.172 161.269 383.863 161.745 383.247 163.908C380.105 163.777 377.045 162.863 374.347 161.248C372.371 160.185 370.674 158.672 369.393 156.831C368.112 154.989 367.282 152.872 366.972 150.65Z" fill="#FFA8A7"/>
<path d="M372.031 163.378C372.019 163.51 372.034 163.644 372.075 163.77C372.116 163.897 372.181 164.014 372.268 164.115C372.355 164.216 372.461 164.298 372.58 164.357C372.699 164.416 372.829 164.451 372.961 164.459C373.165 164.478 373.37 164.436 373.55 164.338C373.729 164.24 373.876 164.09 373.97 163.908C374.064 163.726 374.101 163.52 374.077 163.317C374.053 163.113 373.969 162.922 373.836 162.767C373.702 162.611 373.525 162.5 373.328 162.446C373.13 162.392 372.921 162.398 372.727 162.463C372.533 162.529 372.363 162.651 372.239 162.814C372.115 162.977 372.043 163.174 372.031 163.378Z" fill="#263238"/>
<path d="M371.761 170.028L369.469 170.764C369.512 170.916 369.585 171.058 369.684 171.182C369.783 171.306 369.905 171.409 370.044 171.485C370.183 171.562 370.335 171.61 370.492 171.627C370.65 171.644 370.809 171.63 370.961 171.585C371.271 171.481 371.528 171.26 371.678 170.97C371.827 170.679 371.857 170.341 371.761 170.028Z" fill="#F28F8F"/>
<path d="M363.944 160.35L365.89 158.966C365.806 158.833 365.696 158.718 365.566 158.628C365.436 158.539 365.289 158.476 365.135 158.445C364.98 158.414 364.821 158.414 364.666 158.446C364.512 158.478 364.365 158.541 364.236 158.631C363.976 158.825 363.801 159.112 363.746 159.432C363.692 159.752 363.763 160.081 363.944 160.35Z" fill="#263238"/>
<path d="M364.399 162.664C364.395 162.858 364.448 163.048 364.552 163.212C364.655 163.376 364.804 163.506 364.98 163.587C365.157 163.667 365.353 163.694 365.544 163.665C365.736 163.636 365.915 163.551 366.059 163.421C366.203 163.291 366.306 163.123 366.355 162.935C366.405 162.748 366.398 162.55 366.337 162.366C366.275 162.182 366.161 162.02 366.009 161.9C365.857 161.78 365.673 161.707 365.48 161.691C365.345 161.682 365.209 161.7 365.081 161.745C364.953 161.789 364.835 161.859 364.734 161.949C364.633 162.04 364.552 162.15 364.494 162.273C364.437 162.395 364.404 162.528 364.399 162.664Z" fill="#263238"/>
<path d="M369.059 162.102L368.897 168.038L365.771 167.076L369.059 162.102Z" fill="#F28F8F"/>
<path d="M373.459 175.511C375.979 175.176 381.169 173.694 381.98 171.64C381.655 172.677 381.022 173.59 380.163 174.257C378.606 175.587 373.459 177.079 373.459 177.079V175.511Z" fill="#F28F8F"/>
<path opacity="0.1" d="M390.393 208.503C389.399 205.812 388.55 203.068 387.852 200.285C387.852 200.285 388.262 206.395 390.014 209.682L390.393 208.503Z" fill="black"/>
<path d="M332.119 199.733L360.754 207.27L369.21 242.815L341.981 234.899L332.119 199.733Z" fill="#E0E0E0"/>
<g opacity="0.1">
<path opacity="0.1" d="M344.609 223.242C344.339 223.967 342.771 225.989 339.44 225.827L339.029 224.356L344.609 223.242Z" fill="black"/>
</g>
<g opacity="0.1">
<path opacity="0.1" d="M351.01 224.355C351.129 225.307 353.075 227.059 356.417 228.151C360.158 229.405 365.911 228.746 365.911 228.746L365.392 226.972L351.01 224.355Z" fill="black"/>
</g>
<g opacity="0.1">
<path opacity="0.1" d="M340.511 204.881L340.273 203.799C340.143 203.194 341.819 203.161 344.025 203.735L348.242 204.816C350.405 205.389 352.341 206.341 352.47 206.979L352.708 208.06L340.511 204.881Z" fill="black"/>
</g>
<path d="M338.521 200.76C338.435 200.382 339.116 200.284 340.046 200.533L341.711 200.998C341.711 200.998 341.214 198.63 344.955 199.463C345.947 199.607 346.884 200.005 347.676 200.619C348.469 201.233 349.088 202.042 349.475 202.966L351.26 203.474C352.244 203.756 353.13 204.285 353.249 204.664L353.466 205.345L338.705 201.452C338.705 201.452 338.608 201.139 338.521 200.76Z" fill="#37474F"/>
<path d="M340.554 201.94C341.906 202.264 342.468 202.437 342.663 203.367C342.857 204.297 342.987 205.216 342.987 205.216L349.475 206.935C349.475 206.935 349.162 205.595 349.064 205.065C348.967 204.535 349.183 204.232 350.221 204.502L350.308 204.091L340.078 201.485L340.554 201.94Z" fill="#37474F"/>
<path d="M340.327 205.032L340.089 203.951C339.959 203.345 341.646 203.324 343.841 203.897L348.059 204.978C350.221 205.551 352.157 206.503 352.287 207.141L352.525 208.222L340.327 205.032Z" fill="#37474F"/>
<path d="M401.023 223.664L392.242 216.624C392.242 216.624 372.864 220.074 370.615 220.257C369.409 220.292 368.221 219.96 367.208 219.305C366.195 218.651 365.403 217.705 364.938 216.592C364.073 214.353 362.537 214.634 362.537 214.634C362.537 214.634 363.219 217.468 363.424 218.365C363.63 219.263 358.18 220.02 355.152 218.992C352.124 217.965 347.745 219.457 350.459 223.577C353.173 227.697 358.461 228.184 362.127 228.184C363.66 228.174 365.191 228.069 366.712 227.87C367.901 227.719 369.08 227.6 370.269 227.513C377.785 226.984 397.606 224.734 401.023 223.664Z" fill="#FFA8A7"/>
<path d="M335.038 210.125C335.038 210.125 336.066 213.78 336.304 214.656C336.542 215.532 339.883 217.111 341.981 217.684C344.079 218.257 346.393 218.949 345.398 221.89C344.479 224.605 341.018 225.232 339.245 225.134C337.471 225.037 335.071 223.372 334.119 220.647C332.908 217.186 333.557 213.488 333.038 211.455C332.519 209.422 333.979 208.914 335.038 210.125Z" fill="#FFA8A7"/>
<path d="M403.11 186.833C400.346 186.83 397.696 185.731 395.742 183.777C393.788 181.822 392.688 179.173 392.686 176.409V151.938C395.449 151.94 398.099 153.04 400.053 154.994C402.008 156.948 403.107 159.598 403.11 162.362V186.833Z" fill="#263238"/>
<path d="M392.351 152.792L396.677 150.477C396.54 150.189 396.346 149.931 396.107 149.719C395.868 149.507 395.588 149.346 395.285 149.245C394.982 149.144 394.662 149.105 394.344 149.131C394.025 149.157 393.715 149.247 393.433 149.396C392.849 149.713 392.411 150.244 392.209 150.876C392.008 151.509 392.059 152.195 392.351 152.792Z" fill="#263238"/>
<path d="M108.841 49.3164L101.413 53.6418C101.455 53.3155 101.477 52.9868 101.477 52.6578V50.495C101.477 46.667 98.7956 45.0882 95.4758 47.0347C94.0522 47.9055 92.8347 49.0751 91.9074 50.4626C91.3559 45.6614 87.5819 43.8663 82.9969 46.5156C78.0443 49.3704 74.0216 56.3344 74.0216 62.0548V65.2989C73.991 66.5811 74.2536 67.8534 74.7894 69.0188L68.6257 72.5764C67.6592 73.2021 66.8526 74.0453 66.2705 75.0387C65.6883 76.032 65.3469 77.1478 65.2734 78.2968C65.2734 80.4595 66.7657 81.2706 68.604 80.2108L108.82 56.994C109.788 56.3624 110.593 55.5112 111.17 54.5097C111.747 53.5081 112.079 52.3846 112.14 51.2304C112.161 49.1109 110.691 48.235 108.841 49.3164Z" fill="#E9E9E9"/>
</svg>
