<svg width="420" height="436" viewBox="0 0 420 436" fill="none" xmlns="http://www.w3.org/2000/svg">
<path d="M210 435.21C94.0202 435.21 0 380.928 0 313.967C0 247.007 94.0202 192.725 210 192.725C325.98 192.725 420 247.007 420 313.967C420 380.928 325.98 435.21 210 435.21Z" fill="#E9E9E9"/>
<path d="M42.534 356.445L94.3281 386.344C98.8249 388.94 106.687 388.616 111.849 385.622L161.124 357.167C166.315 354.173 166.876 349.647 162.389 347.052L110.595 317.171C106.098 314.576 98.2355 314.899 93.0732 317.894L43.7889 346.348C38.6076 349.324 38.0467 353.849 42.534 356.445Z" fill="#E0E0E0"/>
<path d="M155.306 404.027C132.755 404.027 114.474 392.68 114.474 378.682C114.474 364.684 132.755 353.336 155.306 353.336C177.857 353.336 196.139 364.684 196.139 378.682C196.139 392.68 177.857 404.027 155.306 404.027Z" fill="#E0E0E0"/>
<path d="M353.745 372.625C331.714 372.625 313.854 362.316 313.854 349.599C313.854 336.882 331.714 326.573 353.745 326.573C375.777 326.573 393.637 336.882 393.637 349.599C393.637 362.316 375.777 372.625 353.745 372.625Z" fill="#E0E0E0"/>
<path d="M192.621 220.903L365.724 320.85C366.923 321.542 367.918 322.537 368.61 323.735C369.302 324.933 369.666 326.293 369.666 327.676C369.666 329.06 369.302 330.419 368.61 331.618C367.918 332.816 366.923 333.811 365.724 334.502L271.253 389.044C267.95 390.954 264.202 391.96 260.387 391.96C256.571 391.96 252.823 390.954 249.52 389.044L83.338 293.099C82.1396 292.408 81.1445 291.413 80.4525 290.215C79.7606 289.016 79.3963 287.657 79.3963 286.273C79.3963 284.89 79.7606 283.53 80.4525 282.332C81.1445 281.134 82.1396 280.139 83.338 279.447L184.73 220.903C185.93 220.212 187.291 219.848 188.676 219.848C190.06 219.848 191.421 220.212 192.621 220.903Z" fill="#E0E0E0"/>
<path d="M243.986 384.109C244.955 384.601 246.027 384.857 247.114 384.857C248.2 384.857 249.272 384.601 250.241 384.109C251.972 383.111 251.972 381.494 250.241 380.496C249.272 380.004 248.2 379.748 247.114 379.748C246.027 379.748 244.955 380.004 243.986 380.496C242.255 381.494 242.255 383.111 243.986 384.109Z" fill="#455A64"/>
<path d="M242.674 283.069H251.525V382.199H242.674V283.069Z" fill="#455A64"/>
<path d="M347.746 324.595C348.715 325.087 349.786 325.344 350.873 325.344C351.96 325.344 353.032 325.087 354.001 324.595C355.731 323.597 355.731 321.981 354.001 320.983C353.032 320.491 351.96 320.234 350.873 320.234C349.786 320.234 348.715 320.491 347.746 320.983C346.015 321.981 346.015 323.597 347.746 324.595Z" fill="#455A64"/>
<path d="M346.444 223.556H355.295V322.685H346.444V223.556Z" fill="#455A64"/>
<path d="M89.8393 294.202C90.8085 294.694 91.8801 294.95 92.9671 294.95C94.054 294.95 95.1256 294.694 96.0949 294.202C97.8251 293.251 97.8251 291.587 96.0949 290.589C95.1256 290.097 94.054 289.841 92.9671 289.841C91.8801 289.841 90.8085 290.097 89.8393 290.589C88.109 291.587 88.109 293.203 89.8393 294.202Z" fill="#455A64"/>
<path d="M88.5377 193.171H97.3887V292.3H88.5377V193.171Z" fill="#455A64"/>
<path d="M193.599 234.688C194.568 235.18 195.64 235.436 196.727 235.436C197.814 235.436 198.885 235.18 199.855 234.688C201.585 233.69 201.585 232.074 199.855 231.075C198.885 230.584 197.814 230.327 196.727 230.327C195.64 230.327 194.568 230.584 193.599 231.075C191.869 232.074 191.869 233.69 193.599 234.688Z" fill="#455A64"/>
<path d="M192.297 133.657H201.148V232.787H192.297V133.657Z" fill="#455A64"/>
<path d="M377.551 224.677V230.533L260.387 298.185V292.319L377.551 224.677Z" fill="#E7142D"/>
<path opacity="0.3" d="M377.551 224.677V230.533L260.387 298.185V292.319L377.551 224.677Z" fill="black"/>
<path d="M71.5113 183.274L260.387 292.32V298.185L71.5113 189.131V183.274Z" fill="#E7142D"/>
<path opacity="0.3" d="M71.5113 183.274L260.387 292.32V298.185L71.5113 189.131V183.274Z" fill="white"/>
<path d="M188.675 115.632L377.551 224.677L260.387 292.319L71.5111 183.274L188.675 115.632Z" fill="#E7142D"/>
<path d="M381.602 289.077V346.319C381.602 350.616 378.749 354.875 373.045 358.212C361.637 364.781 343.222 364.781 331.842 358.212C326.138 354.923 323.286 350.606 323.286 346.319V289.077H381.602Z" fill="#37474F"/>
<path d="M352.463 305.648C336.37 305.648 323.324 298.119 323.324 288.831C323.324 279.542 336.37 272.013 352.463 272.013C368.556 272.013 381.602 279.542 381.602 288.831C381.602 298.119 368.556 305.648 352.463 305.648Z" fill="#455A64"/>
<path d="M332.498 296.749C333.392 297.484 334.346 298.143 335.35 298.717C335.541 298.831 335.74 298.946 335.949 299.05C337.269 299.757 338.642 300.358 340.056 300.847C340.617 301.037 341.207 301.227 341.796 301.379C343.143 301.786 344.515 302.103 345.903 302.33C347.092 302.53 348.308 302.672 349.516 302.758C350.01 302.758 350.467 302.824 350.989 302.834C351.94 302.834 352.891 302.834 353.765 302.834C354.916 302.834 356.066 302.729 357.198 302.596C358.644 302.439 360.079 302.191 361.495 301.855C362.065 301.722 362.616 301.588 363.168 301.417C365.419 300.803 367.585 299.909 369.614 298.755C370.49 298.253 371.329 297.687 372.123 297.063C377.647 292.671 378.179 286.843 373.749 282.166C372.536 280.902 371.142 279.826 369.614 278.971C367.919 278.003 366.124 277.222 364.261 276.642C363.909 276.519 363.529 276.404 363.168 276.309C362.176 276.021 361.17 275.784 360.154 275.596C359.051 275.387 357.939 275.216 356.798 275.102C353.169 274.719 349.505 274.821 345.903 275.406L345.57 275.454C344.287 275.664 343.017 275.949 341.768 276.309C340.035 276.782 338.351 277.419 336.738 278.211C336.254 278.439 335.788 278.696 335.322 278.962C334.589 279.382 333.881 279.846 333.202 280.35C332.197 281.098 331.287 281.967 330.492 282.936C326.937 287.347 327.574 292.652 332.498 296.749Z" fill="#263238"/>
<path d="M351.568 214.799V232.558H342.461V220.474C342.461 220.474 345.855 215.521 351.568 214.799Z" fill="#E7142D"/>
<path opacity="0.3" d="M351.568 214.799V232.558H342.461V220.474C342.461 220.474 345.855 215.521 351.568 214.799Z" fill="white"/>
<path d="M345.884 219.248V302.311C347.072 302.51 348.289 302.653 349.496 302.738C349.991 302.738 350.447 302.805 350.97 302.815C351.921 302.815 352.871 302.815 353.746 302.815C354.896 302.815 356.047 302.71 357.178 302.577C358.624 302.419 360.06 302.172 361.475 301.835C362.046 301.702 362.597 301.569 363.148 301.398V219.248H345.884Z" fill="#E7142D"/>
<path opacity="0.7" d="M345.884 219.248V302.311C347.072 302.51 348.289 302.653 349.496 302.738C349.991 302.738 350.447 302.805 350.97 302.815C351.921 302.815 352.871 302.815 353.746 302.815C354.896 302.815 356.047 302.71 357.178 302.577C358.624 302.419 360.06 302.172 361.475 301.835C362.046 301.702 362.597 301.569 363.148 301.398V219.248H345.884Z" fill="white"/>
<path d="M341.776 222.024V301.379C343.122 301.786 344.494 302.103 345.883 302.33C347.071 302.53 348.288 302.672 349.495 302.758C349.99 302.758 350.446 302.824 350.969 302.834V228.841C349.18 228.576 347.456 227.983 345.883 227.092C344.455 226.301 343.269 225.138 342.451 223.726C342.133 223.2 341.905 222.625 341.776 222.024Z" fill="#E7142D"/>
<path opacity="0.5" d="M341.776 222.024V301.379C343.122 301.786 344.494 302.103 345.883 302.33C347.071 302.53 348.288 302.672 349.495 302.758C349.99 302.758 350.446 302.824 350.969 302.834V228.841C349.18 228.576 347.456 227.983 345.883 227.092C344.455 226.301 343.269 225.138 342.451 223.726C342.133 223.2 341.905 222.625 341.776 222.024Z" fill="white"/>
<path d="M350.542 229.193C350.649 229.189 350.751 229.147 350.829 229.074C350.906 229 350.954 228.901 350.964 228.794C350.973 228.687 350.943 228.581 350.879 228.495C350.816 228.409 350.723 228.35 350.618 228.328C349.009 228.035 347.46 227.476 346.035 226.673C343.849 225.419 342.651 223.764 342.651 222.034C342.651 220.304 343.849 218.65 346.035 217.385C348.639 215.996 351.556 215.299 354.506 215.36C354.568 215.369 354.632 215.365 354.692 215.348C354.753 215.33 354.808 215.3 354.856 215.259C354.904 215.218 354.942 215.167 354.968 215.11C354.994 215.053 355.008 214.99 355.008 214.928C355.008 214.865 354.994 214.803 354.968 214.745C354.942 214.688 354.904 214.637 354.856 214.596C354.808 214.555 354.753 214.525 354.692 214.508C354.632 214.49 354.568 214.486 354.506 214.495C351.399 214.432 348.329 215.168 345.589 216.634C343.126 218.06 341.786 219.971 341.786 222.034C341.786 224.097 343.145 226.008 345.589 227.434C347.102 228.278 348.743 228.869 350.447 229.183L350.542 229.193Z" fill="#E7142D"/>
<path opacity="0.5" d="M350.542 229.193C350.649 229.189 350.751 229.147 350.829 229.074C350.906 229 350.954 228.901 350.964 228.794C350.973 228.687 350.943 228.581 350.879 228.495C350.816 228.409 350.723 228.35 350.618 228.328C349.009 228.035 347.46 227.476 346.035 226.673C343.849 225.419 342.651 223.764 342.651 222.034C342.651 220.304 343.849 218.65 346.035 217.385C348.639 215.996 351.556 215.299 354.506 215.36C354.568 215.369 354.632 215.365 354.692 215.348C354.753 215.33 354.808 215.3 354.856 215.259C354.904 215.218 354.942 215.167 354.968 215.11C354.994 215.053 355.008 214.99 355.008 214.928C355.008 214.865 354.994 214.803 354.968 214.745C354.942 214.688 354.904 214.637 354.856 214.596C354.808 214.555 354.753 214.525 354.692 214.508C354.632 214.49 354.568 214.486 354.506 214.495C351.399 214.432 348.329 215.168 345.589 216.634C343.126 218.06 341.786 219.971 341.786 222.034C341.786 224.097 343.145 226.008 345.589 227.434C347.102 228.278 348.743 228.869 350.447 229.183L350.542 229.193Z" fill="white"/>
<path d="M348.412 215.959C345.037 217.86 345.037 221.055 348.412 223.004C350.303 223.965 352.394 224.466 354.516 224.466C356.637 224.466 358.728 223.965 360.619 223.004C363.994 221.102 363.994 217.898 360.619 215.959C358.728 214.998 356.637 214.497 354.516 214.497C352.394 214.497 350.303 214.998 348.412 215.959Z" fill="#E7142D"/>
<path opacity="0.5" d="M348.412 215.959C345.037 217.86 345.037 221.055 348.412 223.004C350.303 223.965 352.394 224.466 354.516 224.466C356.637 224.466 358.728 223.965 360.619 223.004C363.994 221.102 363.994 217.898 360.619 215.959C358.728 214.998 356.637 214.497 354.516 214.497C352.394 214.497 350.303 214.998 348.412 215.959Z" fill="white"/>
<path d="M332.45 245.326L334.352 258.503L327.611 259.454L326.309 250.479C327.619 248.037 329.818 246.192 332.45 245.326Z" fill="#E7142D"/>
<path opacity="0.3" d="M332.45 245.326L334.352 258.503L327.611 259.454L326.309 250.479C327.619 248.037 329.818 246.192 332.45 245.326Z" fill="white"/>
<path d="M328.714 249.224L329.504 254.653L329.561 255.042V255.394L330.102 259.111L333.164 280.321L335.883 299.05C337.202 299.757 338.575 300.358 339.99 300.847C340.551 301.037 341.14 301.227 341.73 301.379C343.076 301.786 344.448 302.103 345.837 302.33C347.025 302.53 348.242 302.672 349.449 302.758L345.837 277.736L345.504 275.454L341.701 249.367L341.416 247.408L332.86 248.654L328.667 249.262L328.714 249.224Z" fill="#E7142D"/>
<path opacity="0.7" d="M328.714 249.224L329.504 254.653L329.561 255.042V255.394L330.102 259.111L333.164 280.321L335.883 299.05C337.202 299.757 338.575 300.358 339.99 300.847C340.551 301.037 341.14 301.227 341.73 301.379C343.076 301.786 344.448 302.103 345.837 302.33C347.025 302.53 348.242 302.672 349.449 302.758L345.837 277.736L345.504 275.454L341.701 249.367L341.416 247.408L332.86 248.654L328.667 249.262L328.714 249.224Z" fill="white"/>
<path d="M325.986 251.734L330.502 282.946L332.499 296.788C333.392 297.523 334.346 298.181 335.351 298.756C335.541 298.87 335.74 298.984 335.95 299.089C337.269 299.796 338.642 300.397 340.057 300.886L336.748 278.192L333.896 258.579L333.497 255.794C332.148 255.786 330.811 255.535 329.551 255.052C328.427 254.62 327.442 253.89 326.699 252.942C326.398 252.58 326.157 252.173 325.986 251.734Z" fill="#E7142D"/>
<path opacity="0.5" d="M325.986 251.734L330.502 282.946L332.499 296.788C333.392 297.523 334.346 298.181 335.351 298.756C335.541 298.87 335.74 298.984 335.95 299.089C337.269 299.796 338.642 300.397 340.057 300.886L336.748 278.192L333.896 258.579L333.497 255.794C332.148 255.786 330.811 255.535 329.551 255.052C328.427 254.62 327.442 253.89 326.699 252.942C326.398 252.58 326.157 252.173 325.986 251.734Z" fill="white"/>
<path d="M333.23 256.088C333.305 256.079 333.374 256.043 333.425 255.988C333.476 255.932 333.504 255.86 333.506 255.784C333.509 255.742 333.503 255.699 333.489 255.659C333.475 255.619 333.453 255.582 333.425 255.55C333.397 255.518 333.363 255.492 333.324 255.474C333.286 255.455 333.244 255.444 333.202 255.442C331.978 255.396 330.771 255.148 329.627 254.71C327.878 254.016 326.775 252.923 326.623 251.639C326.471 250.356 327.155 249.006 328.629 247.836C330.414 246.533 332.501 245.705 334.695 245.431C334.739 245.428 334.783 245.416 334.823 245.396C334.863 245.375 334.898 245.347 334.926 245.312C334.954 245.277 334.975 245.237 334.987 245.193C334.998 245.15 335.001 245.105 334.995 245.061C334.988 245.016 334.972 244.974 334.948 244.936C334.924 244.898 334.893 244.866 334.856 244.84C334.818 244.815 334.777 244.798 334.732 244.79C334.688 244.782 334.643 244.784 334.599 244.794C332.293 245.078 330.099 245.952 328.23 247.332C326.566 248.644 325.767 250.185 325.986 251.734C326.205 253.284 327.412 254.529 329.39 255.318C330.605 255.786 331.891 256.046 333.192 256.088H333.23Z" fill="#E7142D"/>
<path opacity="0.5" d="M333.23 256.088C333.305 256.079 333.374 256.043 333.425 255.988C333.476 255.932 333.504 255.86 333.506 255.784C333.509 255.742 333.503 255.699 333.489 255.659C333.475 255.619 333.453 255.582 333.425 255.55C333.397 255.518 333.363 255.492 333.324 255.474C333.286 255.455 333.244 255.444 333.202 255.442C331.978 255.396 330.771 255.148 329.627 254.71C327.878 254.016 326.775 252.923 326.623 251.639C326.471 250.356 327.155 249.006 328.629 247.836C330.414 246.533 332.501 245.705 334.695 245.431C334.739 245.428 334.783 245.416 334.823 245.396C334.863 245.375 334.898 245.347 334.926 245.312C334.954 245.277 334.975 245.237 334.987 245.193C334.998 245.15 335.001 245.105 334.995 245.061C334.988 245.016 334.972 244.974 334.948 244.936C334.924 244.898 334.893 244.866 334.856 244.84C334.818 244.815 334.777 244.798 334.732 244.79C334.688 244.782 334.643 244.784 334.599 244.794C332.293 245.078 330.099 245.952 328.23 247.332C326.566 248.644 325.767 250.185 325.986 251.734C326.205 253.284 327.412 254.529 329.39 255.318C330.605 255.786 331.891 256.046 333.192 256.088H333.23Z" fill="white"/>
<path d="M330.236 246.524C327.954 248.33 328.335 250.659 330.997 251.743C332.499 252.25 334.1 252.395 335.669 252.167C337.239 251.939 338.732 251.344 340.028 250.431C342.31 248.634 341.93 246.296 339.277 245.221C337.774 244.713 336.172 244.565 334.601 244.792C333.03 245.018 331.535 245.611 330.236 246.524Z" fill="#E7142D"/>
<path opacity="0.5" d="M330.236 246.524C327.954 248.33 328.335 250.659 330.997 251.743C332.499 252.25 334.1 252.395 335.669 252.167C337.239 251.939 338.732 251.344 340.028 250.431C342.31 248.634 341.93 246.296 339.277 245.221C337.774 244.713 336.172 244.565 334.601 244.792C333.03 245.018 331.535 245.611 330.236 246.524Z" fill="white"/>
<path d="M369.215 235.715L367.618 250.299L360.155 249.481L361.238 239.546C361.238 239.546 364.461 235.791 369.215 235.715Z" fill="#E7142D"/>
<path opacity="0.3" d="M369.215 235.715L367.618 250.299L360.155 249.481L361.238 239.546C361.238 239.546 364.461 235.791 369.215 235.715Z" fill="white"/>
<path d="M357.177 302.558C358.624 302.401 360.059 302.153 361.475 301.817C362.045 301.684 362.596 301.551 363.148 301.38C365.399 300.765 367.565 299.871 369.594 298.718C370.47 298.215 371.309 297.649 372.103 297.025L373.729 282.128L378.273 240.383L368.766 239.346L364.118 238.833L363.462 244.86V245.269V245.678L363.205 247.969L363.015 249.785L360.163 275.559L357.177 302.558Z" fill="#E7142D"/>
<path opacity="0.7" d="M357.177 302.558C358.624 302.401 360.059 302.153 361.475 301.817C362.045 301.684 362.596 301.551 363.148 301.38C365.399 300.765 367.565 299.871 369.594 298.718C370.47 298.215 371.309 297.649 372.103 297.025L373.729 282.128L378.273 240.383L368.766 239.346L364.118 238.833L363.462 244.86V245.269V245.678L363.205 247.969L363.015 249.785L360.163 275.559L357.177 302.558Z" fill="white"/>
<path d="M357.177 302.558C358.624 302.401 360.059 302.153 361.474 301.817L363.148 286.539L364.241 276.604L367.093 250.251L367.426 247.161C365.977 246.787 364.613 246.142 363.404 245.259C363.3 245.183 363.195 245.117 363.11 245.041C362.15 244.287 361.392 243.307 360.904 242.189C360.692 241.726 360.557 241.231 360.505 240.725L356.702 275.026L353.669 302.758C354.896 302.767 356.046 302.691 357.177 302.558Z" fill="#E7142D"/>
<path opacity="0.5" d="M357.177 302.558C358.624 302.401 360.059 302.153 361.474 301.817L363.148 286.539L364.241 276.604L367.093 250.251L367.426 247.161C365.977 246.787 364.613 246.142 363.404 245.259C363.3 245.183 363.195 245.117 363.11 245.041C362.15 244.287 361.392 243.307 360.904 242.189C360.692 241.726 360.557 241.231 360.505 240.725L356.702 275.026L353.669 302.758C354.896 302.767 356.046 302.691 357.177 302.558Z" fill="white"/>
<path d="M367.075 247.417C367.158 247.425 367.242 247.404 367.311 247.357C367.381 247.31 367.432 247.241 367.455 247.161C367.47 247.116 367.476 247.07 367.472 247.023C367.469 246.977 367.456 246.931 367.435 246.89C367.414 246.848 367.384 246.811 367.349 246.781C367.313 246.751 367.272 246.728 367.227 246.714C365.933 246.331 364.712 245.733 363.615 244.946C361.932 243.719 361.095 242.265 361.257 240.839C361.418 239.413 362.54 238.177 364.442 237.34C366.704 236.43 369.163 236.119 371.581 236.437C371.628 236.444 371.675 236.441 371.72 236.428C371.766 236.416 371.808 236.394 371.844 236.365C371.881 236.335 371.911 236.299 371.933 236.257C371.955 236.216 371.968 236.17 371.971 236.123C371.98 236.029 371.952 235.936 371.893 235.861C371.835 235.787 371.751 235.738 371.657 235.724C369.117 235.393 366.534 235.72 364.156 236.675C362.008 237.625 360.724 239.061 360.544 240.753C360.363 242.445 361.295 244.128 363.187 245.507C364.341 246.346 365.626 246.989 366.99 247.408L367.075 247.417Z" fill="#E7142D"/>
<path opacity="0.5" d="M367.075 247.417C367.158 247.425 367.242 247.404 367.311 247.357C367.381 247.31 367.432 247.241 367.455 247.161C367.47 247.116 367.476 247.07 367.472 247.023C367.469 246.977 367.456 246.931 367.435 246.89C367.414 246.848 367.384 246.811 367.349 246.781C367.313 246.751 367.272 246.728 367.227 246.714C365.933 246.331 364.712 245.733 363.615 244.946C361.932 243.719 361.095 242.265 361.257 240.839C361.418 239.413 362.54 238.177 364.442 237.34C366.704 236.43 369.163 236.119 371.581 236.437C371.628 236.444 371.675 236.441 371.72 236.428C371.766 236.416 371.808 236.394 371.844 236.365C371.881 236.335 371.911 236.299 371.933 236.257C371.955 236.216 371.968 236.17 371.971 236.123C371.98 236.029 371.952 235.936 371.893 235.861C371.835 235.787 371.751 235.738 371.657 235.724C369.117 235.393 366.534 235.72 364.156 236.675C362.008 237.625 360.724 239.061 360.544 240.753C360.363 242.445 361.295 244.128 363.187 245.507C364.341 246.346 365.626 246.989 366.99 247.408L367.075 247.417Z" fill="white"/>
<path d="M366.524 236.361C363.586 237.654 363.301 240.24 365.887 242.132C367.352 243.089 369.022 243.687 370.762 243.877C372.501 244.067 374.261 243.843 375.898 243.225C378.836 241.942 379.111 239.347 376.525 237.455C375.062 236.498 373.394 235.9 371.656 235.71C369.918 235.52 368.16 235.743 366.524 236.361Z" fill="#E7142D"/>
<path opacity="0.5" d="M366.524 236.361C363.586 237.654 363.301 240.24 365.887 242.132C367.352 243.089 369.022 243.687 370.762 243.877C372.501 244.067 374.261 243.843 375.898 243.225C378.836 241.942 379.111 239.347 376.525 237.455C375.062 236.498 373.394 235.9 371.656 235.71C369.918 235.52 368.16 235.743 366.524 236.361Z" fill="white"/>
<path d="M137.205 174.917L148.613 181.487C149.065 181.691 149.558 181.787 150.054 181.766C150.549 181.744 151.033 181.606 151.465 181.363L190.216 158.993C191.062 158.508 191.166 157.776 190.415 157.348L179.007 150.779C178.555 150.575 178.062 150.48 177.566 150.501C177.071 150.522 176.587 150.66 176.155 150.903L137.414 173.273C136.568 173.757 136.482 174.489 137.205 174.917Z" fill="#263238"/>
<path d="M170.259 157.339L179.025 162.397L186.25 158.233L177.485 153.175L170.259 157.339Z" fill="#E7142D"/>
<path d="M160.743 162.834L169.509 167.892L176.725 163.728L167.969 158.67L160.743 162.834Z" fill="#E7142D"/>
<path d="M151.228 168.329L159.984 173.396L167.209 169.223L158.444 164.165L151.228 168.329Z" fill="#E7142D"/>
<path d="M141.702 173.834L150.468 178.891L157.684 174.718L148.928 169.66L141.702 173.834Z" fill="#E7142D"/>
<path opacity="0.4" d="M170.259 157.339L179.025 162.397L186.25 158.233L177.485 153.175L170.259 157.339Z" fill="black"/>
<path opacity="0.5" d="M160.743 162.834L169.509 167.892L176.725 163.728L167.969 158.67L160.743 162.834Z" fill="black"/>
<path opacity="0.6" d="M151.228 168.329L159.984 173.396L167.209 169.223L158.444 164.165L151.228 168.329Z" fill="black"/>
<path opacity="0.8" d="M141.702 173.834L150.468 178.891L157.684 174.718L148.928 169.66L141.702 173.834Z" fill="black"/>
<path d="M134.999 162.844L144.649 171.761C145.05 172.065 145.518 172.27 146.013 172.359C146.509 172.448 147.018 172.419 147.501 172.275L190.225 158.965C191.176 158.68 191.404 158.014 190.786 157.406L181.137 148.488C180.736 148.183 180.268 147.978 179.772 147.888C179.276 147.799 178.767 147.829 178.284 147.975L135.56 161.285C134.638 161.57 134.381 162.264 134.999 162.844Z" fill="#37474F"/>
<path d="M171.126 152.985L178.551 159.858L186.518 157.377L179.083 150.513L171.126 152.985Z" fill="#E7142D"/>
<path d="M160.62 156.256L168.054 163.12L176.012 160.638L168.587 153.774L160.62 156.256Z" fill="#E7142D"/>
<path d="M150.124 159.516L157.549 166.381L165.516 163.899L158.081 157.035L150.124 159.516Z" fill="#E7142D"/>
<path d="M139.628 162.777L147.053 169.641L155.02 167.169L147.585 160.296L139.628 162.777Z" fill="#E7142D"/>
<path opacity="0.1" d="M171.126 152.985L178.551 159.858L186.518 157.377L179.083 150.513L171.126 152.985Z" fill="white"/>
<path opacity="0.1" d="M150.124 159.516L157.549 166.381L165.516 163.899L158.081 157.035L150.124 159.516Z" fill="black"/>
<path opacity="0.2" d="M139.628 162.777L147.053 169.641L155.02 167.169L147.585 160.296L139.628 162.777Z" fill="black"/>
<path d="M135.389 151.407L142.995 162.121C143.32 162.495 143.729 162.786 144.188 162.973C144.647 163.159 145.144 163.236 145.637 163.195L190.178 158.993C191.128 158.908 191.537 158.271 191.043 157.586L183.437 146.872C183.111 146.499 182.702 146.206 182.244 146.018C181.785 145.83 181.289 145.751 180.794 145.788L136.254 149.99C135.294 150.085 134.895 150.713 135.389 151.407Z" fill="#455A64"/>
<path d="M172.76 149.192L178.626 157.444L186.926 156.664L181.069 148.412L172.76 149.192Z" fill="#E7142D"/>
<path d="M161.819 150.228L167.675 158.47L175.984 157.691L170.119 149.438L161.819 150.228Z" fill="#E7142D"/>
<path d="M150.875 151.254L156.732 159.506L165.031 158.727L159.175 150.475L150.875 151.254Z" fill="#E7142D"/>
<path d="M139.934 152.291L145.79 160.543L154.09 159.754L148.234 151.512L139.934 152.291Z" fill="#E7142D"/>
<path opacity="0.8" d="M172.76 149.192L178.626 157.444L186.926 156.664L181.069 148.412L172.76 149.192Z" fill="white"/>
<path opacity="0.6" d="M161.819 150.228L167.675 158.47L175.984 157.691L170.119 149.438L161.819 150.228Z" fill="white"/>
<path opacity="0.4" d="M150.875 151.254L156.732 159.506L165.031 158.727L159.175 150.475L150.875 151.254Z" fill="white"/>
<path opacity="0.2" d="M139.934 152.291L145.79 160.543L154.09 159.754L148.234 151.512L139.934 152.291Z" fill="white"/>
<path d="M192.535 161.512C193.372 161.517 194.187 161.246 194.854 160.74C195.52 160.235 196.002 159.524 196.224 158.717C196.359 158.233 196.398 157.726 196.338 157.227C196.277 156.728 196.119 156.245 195.873 155.807C195.626 155.368 195.295 154.983 194.9 154.673C194.504 154.362 194.051 154.132 193.567 153.997C193.082 153.862 192.576 153.823 192.076 153.883C191.577 153.943 191.094 154.101 190.656 154.348C190.218 154.595 189.832 154.925 189.522 155.321C189.211 155.717 188.982 156.17 188.846 156.654L189.588 156.854C189.807 156.071 190.329 155.407 191.037 155.009C191.746 154.61 192.584 154.51 193.367 154.729C194.15 154.948 194.813 155.47 195.212 156.178C195.61 156.887 195.711 157.725 195.492 158.508C195.382 158.898 195.197 159.262 194.946 159.58C194.696 159.898 194.385 160.163 194.032 160.361C193.678 160.559 193.29 160.685 192.888 160.732C192.486 160.78 192.078 160.748 191.689 160.638C191.3 160.53 190.937 160.345 190.621 160.096C190.304 159.846 190.04 159.536 189.845 159.183L189.179 159.563C189.514 160.153 189.999 160.644 190.585 160.987C191.171 161.329 191.837 161.51 192.516 161.512H192.535Z" fill="#E0E0E0"/>
<path d="M246.422 251.097L278.613 269.683L319.236 246.229L287.008 227.605C286.589 227.362 286.113 227.234 285.629 227.234C285.145 227.234 284.669 227.362 284.251 227.605L246.451 249.424C246.298 249.503 246.17 249.621 246.08 249.767C245.989 249.913 245.94 250.08 245.937 250.252C245.934 250.423 245.978 250.593 246.063 250.741C246.149 250.89 246.273 251.013 246.422 251.097Z" fill="#E7142D"/>
<path opacity="0.7" d="M246.422 251.097L278.613 269.683L319.236 246.229L287.008 227.605C286.589 227.362 286.113 227.234 285.629 227.234C285.145 227.234 284.669 227.362 284.251 227.605L246.451 249.424C246.298 249.503 246.17 249.621 246.08 249.767C245.989 249.913 245.94 250.08 245.937 250.252C245.934 250.423 245.978 250.593 246.063 250.741C246.149 250.89 246.273 251.013 246.422 251.097Z" fill="black"/>
<path d="M248.647 250.412L278.613 267.734L316.422 245.868L286.399 228.537C286.008 228.312 285.566 228.194 285.115 228.194C284.665 228.194 284.222 228.312 283.832 228.537L248.656 248.853C248.517 248.93 248.401 249.042 248.32 249.179C248.239 249.316 248.195 249.471 248.195 249.63C248.194 249.789 248.235 249.945 248.314 250.082C248.394 250.22 248.508 250.334 248.647 250.412Z" fill="white"/>
<path d="M278.613 267.716V264.341L248.2 246.781V249.662L278.613 267.716Z" fill="white"/>
<path d="M278.613 267.715V264.34L316.422 242.503V245.878L278.613 267.715Z" fill="#E0E0E0"/>
<path d="M246.422 245.754L278.613 264.34L319.236 240.887L287.008 222.262C286.589 222.02 286.113 221.892 285.629 221.892C285.145 221.892 284.669 222.02 284.251 222.262L246.451 244.129C246.31 244.211 246.192 244.328 246.109 244.469C246.027 244.61 245.982 244.77 245.979 244.933C245.976 245.097 246.015 245.258 246.093 245.402C246.171 245.546 246.284 245.667 246.422 245.754Z" fill="#E7142D"/>
<path opacity="0.5" d="M246.422 245.754L278.613 264.34L319.236 240.887L287.008 222.262C286.589 222.02 286.113 221.892 285.629 221.892C285.145 221.892 284.669 222.02 284.251 222.262L246.451 244.129C246.31 244.211 246.192 244.328 246.109 244.469C246.027 244.61 245.982 244.77 245.979 244.933C245.976 245.097 246.015 245.258 246.093 245.402C246.171 245.546 246.284 245.667 246.422 245.754Z" fill="black"/>
<path d="M282.806 267.259C282.901 267.303 283.005 267.326 283.11 267.326C283.215 267.326 283.319 267.303 283.414 267.259C283.531 267.199 283.628 267.107 283.695 266.995C283.762 266.882 283.797 266.753 283.794 266.622V263.57C283.795 262.878 283.615 262.198 283.274 261.597C282.932 260.995 282.44 260.493 281.845 260.138L281.731 260.072C281.678 260.037 281.615 260.019 281.551 260.019C281.487 260.019 281.424 260.037 281.37 260.072C281.314 260.102 281.267 260.147 281.235 260.203C281.203 260.258 281.187 260.322 281.19 260.386C281.19 260.554 281.122 260.717 281.003 260.836C280.883 260.955 280.721 261.023 280.553 261.023C280.384 261.023 280.222 260.955 280.102 260.836C279.983 260.717 279.916 260.554 279.916 260.386C279.916 260.098 279.993 259.815 280.137 259.567C280.282 259.318 280.49 259.112 280.739 258.969C280.989 258.827 281.272 258.752 281.56 258.754C281.848 258.756 282.13 258.833 282.378 258.979L282.492 259.055C283.275 259.52 283.925 260.181 284.376 260.972C284.828 261.764 285.066 262.659 285.068 263.57V266.622C285.067 266.983 284.968 267.337 284.783 267.647C284.597 267.956 284.331 268.21 284.013 268.381C283.719 268.532 283.393 268.611 283.062 268.609C282.667 268.613 282.279 268.497 281.95 268.276C281.831 268.19 281.744 268.066 281.703 267.925L282.806 267.259Z" fill="white"/>
<path d="M288.823 263.789C288.931 263.825 289.046 263.835 289.158 263.818C289.27 263.802 289.377 263.759 289.47 263.693C289.562 263.627 289.638 263.54 289.691 263.44C289.744 263.339 289.772 263.228 289.774 263.114V260.062C289.777 259.375 289.604 258.699 289.271 258.098C288.939 257.497 288.457 256.992 287.873 256.63L287.749 256.564C287.694 256.533 287.632 256.517 287.568 256.517C287.505 256.517 287.443 256.533 287.388 256.564C287.334 256.597 287.289 256.643 287.258 256.698C287.226 256.753 287.209 256.814 287.207 256.878C287.218 256.967 287.21 257.058 287.183 257.144C287.156 257.23 287.112 257.31 287.052 257.377C286.992 257.445 286.919 257.499 286.836 257.536C286.754 257.573 286.665 257.592 286.575 257.592C286.485 257.592 286.395 257.573 286.313 257.536C286.231 257.499 286.158 257.445 286.098 257.377C286.038 257.31 285.993 257.23 285.967 257.144C285.94 257.058 285.932 256.967 285.943 256.878C285.943 256.591 286.019 256.31 286.163 256.062C286.307 255.814 286.515 255.609 286.764 255.467C287.013 255.325 287.295 255.252 287.581 255.254C287.868 255.256 288.149 255.334 288.395 255.48L288.51 255.547C289.294 256.014 289.943 256.676 290.395 257.469C290.846 258.262 291.085 259.159 291.086 260.072V263.124C291.086 263.485 290.987 263.839 290.801 264.149C290.616 264.459 290.349 264.712 290.031 264.882C289.737 265.034 289.411 265.112 289.08 265.111C288.688 265.109 288.305 264.993 287.977 264.778C287.853 264.697 287.764 264.571 287.73 264.426L288.823 263.789Z" fill="white"/>
<path d="M294.841 260.319C294.934 260.363 295.037 260.385 295.14 260.385C295.244 260.385 295.346 260.363 295.44 260.319C295.558 260.257 295.657 260.164 295.726 260.05C295.794 259.936 295.83 259.805 295.829 259.672V256.62C295.827 255.929 295.645 255.25 295.302 254.65C294.959 254.05 294.466 253.55 293.871 253.198L293.757 253.131C293.703 253.098 293.64 253.08 293.576 253.08C293.512 253.08 293.45 253.098 293.396 253.131C293.34 253.163 293.295 253.209 293.263 253.264C293.231 253.319 293.215 253.381 293.215 253.445C293.226 253.534 293.218 253.625 293.191 253.711C293.164 253.798 293.12 253.877 293.06 253.945C293 254.012 292.927 254.066 292.844 254.103C292.762 254.14 292.673 254.16 292.583 254.16C292.492 254.16 292.403 254.14 292.321 254.103C292.239 254.066 292.165 254.012 292.106 253.945C292.046 253.877 292.001 253.798 291.974 253.711C291.948 253.625 291.939 253.534 291.95 253.445C291.951 253.158 292.027 252.877 292.171 252.629C292.315 252.382 292.522 252.176 292.771 252.034C293.02 251.893 293.302 251.819 293.589 251.821C293.876 251.824 294.157 251.902 294.403 252.047L294.517 252.114C295.3 252.58 295.949 253.241 296.4 254.033C296.852 254.824 297.091 255.719 297.094 256.63V259.682C297.094 260.043 296.997 260.398 296.811 260.708C296.625 261.018 296.358 261.271 296.038 261.44C295.747 261.599 295.42 261.681 295.088 261.678C294.695 261.678 294.312 261.562 293.985 261.345C293.863 261.262 293.775 261.137 293.738 260.994L294.841 260.319Z" fill="white"/>
<path d="M300.848 256.839C300.943 256.884 301.047 256.907 301.152 256.907C301.257 256.907 301.361 256.884 301.456 256.839C301.572 256.776 301.669 256.682 301.736 256.568C301.803 256.455 301.838 256.325 301.837 256.193V253.141C301.841 252.455 301.669 251.78 301.336 251.18C301.002 250.58 300.52 250.077 299.935 249.718L299.821 249.642C299.766 249.611 299.704 249.594 299.641 249.594C299.577 249.594 299.515 249.611 299.46 249.642C299.404 249.673 299.357 249.718 299.325 249.773C299.293 249.829 299.277 249.892 299.279 249.956C299.279 250.125 299.212 250.287 299.093 250.407C298.973 250.526 298.811 250.593 298.642 250.593C298.559 250.593 298.477 250.577 298.4 250.544C298.323 250.512 298.254 250.465 298.195 250.406C298.137 250.347 298.091 250.276 298.06 250.199C298.029 250.122 298.014 250.039 298.015 249.956C298.012 249.668 298.087 249.385 298.23 249.136C298.373 248.886 298.581 248.68 298.831 248.537C299.081 248.395 299.364 248.322 299.652 248.325C299.94 248.329 300.222 248.41 300.468 248.559L300.582 248.625C301.365 249.091 302.013 249.752 302.465 250.544C302.916 251.335 303.155 252.23 303.158 253.141V256.193C303.159 256.554 303.061 256.909 302.875 257.219C302.689 257.529 302.422 257.782 302.103 257.952C301.811 258.11 301.484 258.192 301.152 258.189C300.757 258.189 300.37 258.073 300.04 257.856C299.923 257.768 299.836 257.645 299.793 257.505L300.848 256.839Z" fill="white"/>
<path d="M306.868 253.369C306.964 253.412 307.067 253.434 307.172 253.434C307.277 253.434 307.381 253.412 307.476 253.369C307.592 253.306 307.689 253.212 307.756 253.099C307.823 252.985 307.857 252.855 307.857 252.723V249.671C307.854 248.98 307.674 248.301 307.332 247.7C306.991 247.099 306.5 246.596 305.908 246.239L305.784 246.173C305.729 246.141 305.667 246.124 305.603 246.124C305.54 246.124 305.477 246.141 305.422 246.173C305.368 246.205 305.322 246.25 305.29 246.305C305.259 246.361 305.242 246.423 305.242 246.486C305.223 246.641 305.149 246.783 305.032 246.886C304.916 246.989 304.765 247.046 304.61 247.046C304.455 247.046 304.304 246.989 304.188 246.886C304.071 246.783 303.997 246.641 303.978 246.486C303.976 246.199 304.05 245.916 304.194 245.667C304.338 245.418 304.545 245.212 304.795 245.07C305.043 244.923 305.325 244.845 305.613 244.845C305.901 244.845 306.183 244.923 306.431 245.07L306.545 245.136C307.327 245.603 307.976 246.264 308.428 247.055C308.879 247.846 309.118 248.741 309.121 249.652V252.704C309.123 253.066 309.025 253.421 308.839 253.731C308.653 254.041 308.386 254.294 308.066 254.463C307.748 254.635 307.39 254.716 307.029 254.697C306.669 254.679 306.32 254.561 306.022 254.358C305.9 254.279 305.812 254.157 305.775 254.016L306.868 253.369Z" fill="white"/>
<path d="M312.884 249.899C312.992 249.933 313.106 249.941 313.218 249.924C313.329 249.906 313.435 249.863 313.527 249.798C313.619 249.732 313.695 249.647 313.748 249.547C313.802 249.448 313.832 249.337 313.835 249.224V246.173C313.834 245.48 313.652 244.8 313.309 244.198C312.966 243.596 312.472 243.094 311.877 242.74L311.763 242.674C311.708 242.64 311.646 242.622 311.582 242.622C311.518 242.622 311.456 242.64 311.401 242.674C311.345 242.704 311.298 242.75 311.266 242.805C311.234 242.86 311.219 242.924 311.221 242.988C311.202 243.142 311.127 243.284 311.011 243.387C310.894 243.49 310.744 243.547 310.589 243.547C310.433 243.547 310.283 243.49 310.166 243.387C310.05 243.284 309.975 243.142 309.956 242.988C309.953 242.7 310.028 242.417 310.171 242.168C310.315 241.918 310.523 241.712 310.774 241.571C311.022 241.427 311.304 241.351 311.592 241.351C311.879 241.351 312.161 241.427 312.409 241.571L312.523 241.647C313.306 242.113 313.955 242.774 314.406 243.566C314.858 244.357 315.097 245.252 315.1 246.163V249.215C315.098 249.576 314.999 249.93 314.814 250.239C314.628 250.549 314.362 250.802 314.044 250.974C313.751 251.128 313.425 251.21 313.094 251.211C312.699 251.214 312.314 251.095 311.991 250.869C311.869 250.789 311.781 250.667 311.744 250.527L312.884 249.899Z" fill="white"/>
<path d="M242.267 237.35L277.072 257.448L322.363 231.304L287.558 211.206L242.267 237.35Z" fill="#E6E6E6"/>
<path d="M240.271 236.694L276.635 253.807L319.568 223.955L283.204 206.852L240.271 236.694Z" fill="#FAFAFA"/>
<path d="M286.616 224.857C288 226.212 288.937 227.956 289.302 229.857C289.667 231.758 289.443 233.725 288.66 235.496C287.035 239.299 282.956 241.447 278.982 241.58C276.938 241.664 274.911 241.174 273.13 240.166C271.349 239.158 269.886 237.672 268.905 235.876C267.958 234.069 267.76 231.962 268.353 230.01C269.017 228.028 270.309 226.316 272.033 225.133C274.316 223.644 276.989 222.863 279.714 222.89C282.025 222.842 284.81 223.051 286.369 224.953C286.683 225.323 286.141 225.903 285.827 225.494C284.515 223.926 282.329 223.688 280.408 223.66C278.117 223.565 275.835 224.018 273.753 224.981C270.264 226.711 267.783 230.59 269.114 234.488C269.806 236.246 270.987 237.77 272.516 238.88C274.045 239.99 275.86 240.64 277.746 240.753C279.602 240.928 281.471 240.603 283.16 239.812C284.848 239.021 286.294 237.794 287.348 236.256C288.395 234.568 288.837 232.574 288.602 230.602C288.367 228.629 287.469 226.795 286.056 225.399C285.694 225.076 286.236 224.534 286.597 224.857H286.616Z" fill="#E7142D"/>
<path d="M281.254 236.124C280.365 236.384 279.43 236.447 278.514 236.309C277.598 236.172 276.723 235.836 275.95 235.325C275.206 234.815 274.607 234.122 274.209 233.312C273.811 232.503 273.628 231.605 273.677 230.705C273.727 229.685 274.104 228.709 274.752 227.919C275.065 227.539 275.607 228.081 275.294 228.461C274.706 229.253 274.404 230.221 274.436 231.207C274.469 232.193 274.835 233.139 275.474 233.89C276.173 234.634 277.065 235.169 278.051 235.434C279.037 235.699 280.077 235.685 281.055 235.392C281.149 235.373 281.247 235.391 281.329 235.441C281.411 235.492 281.471 235.572 281.496 235.665C281.522 235.758 281.511 235.857 281.466 235.942C281.421 236.027 281.345 236.092 281.254 236.124Z" fill="#E7142D"/>
<path d="M288.594 237.959C289.697 237.73 290.738 237.264 291.644 236.595C292.55 235.925 293.3 235.067 293.842 234.08C294.251 233.281 294.565 232.045 293.918 231.228C292.968 230.125 291.484 231.066 290.886 231.979C290.576 232.383 290.367 232.856 290.277 233.357C290.277 234.156 291.532 233.006 291.779 232.768C292.6 231.963 293.173 230.94 293.433 229.821C293.909 227.701 292.968 225.067 290.581 224.725C289.631 224.611 288.338 224.953 288.043 225.999C287.891 226.55 288.176 227.187 288.842 226.797C289.075 226.623 289.271 226.404 289.418 226.153C289.565 225.901 289.66 225.622 289.697 225.333C289.805 224.829 289.812 224.309 289.716 223.802C289.621 223.295 289.425 222.813 289.141 222.383C288.857 221.952 288.49 221.583 288.061 221.297C287.633 221.01 287.151 220.811 286.645 220.713C285.617 220.551 284.566 220.789 283.708 221.379C283.384 221.597 282.529 222.263 282.909 222.69C283.48 223.308 284.088 222.301 284.155 221.825C284.176 221.283 284.021 220.749 283.712 220.304C283.403 219.858 282.958 219.524 282.443 219.354C281.867 219.18 281.258 219.142 280.664 219.243C280.07 219.343 279.508 219.58 279.021 219.933C278.413 220.284 277.886 220.756 277.471 221.321C277.005 222.092 277.956 222.576 278.526 222.073C279.639 221.122 278.45 219.762 277.376 219.553C275.969 219.277 274.524 220.19 273.431 220.951C272.279 221.755 271.262 222.737 270.417 223.86C270.122 224.25 269.466 223.86 269.751 223.47C270.853 222.004 272.225 220.762 273.792 219.81C275.199 218.964 277.034 218.241 278.545 219.201C278.83 219.362 279.074 219.584 279.262 219.851C279.449 220.118 279.574 220.424 279.628 220.745C279.682 221.067 279.663 221.397 279.572 221.71C279.482 222.024 279.323 222.313 279.106 222.557C278.203 223.508 276.188 222.928 276.558 221.426C276.855 220.695 277.378 220.078 278.051 219.667C278.754 219.107 279.572 218.711 280.447 218.507C281.185 218.328 281.961 218.377 282.671 218.649C283.381 218.921 283.991 219.402 284.421 220.029C285.134 221.093 285.153 223.147 283.641 223.575C283.354 223.651 283.05 223.63 282.777 223.514C282.503 223.399 282.275 223.196 282.13 222.938C281.787 222.253 282.291 221.578 282.776 221.131C283.315 220.637 283.964 220.277 284.669 220.082C285.374 219.887 286.116 219.862 286.832 220.01C287.549 220.157 288.22 220.473 288.791 220.931C289.362 221.389 289.816 221.975 290.115 222.643C290.428 223.318 290.564 224.061 290.51 224.802C290.457 225.544 290.217 226.26 289.811 226.883C289.626 227.184 289.347 227.417 289.018 227.546C288.689 227.674 288.326 227.692 287.986 227.596C287.737 227.489 287.527 227.307 287.386 227.075C287.245 226.843 287.179 226.574 287.197 226.303C287.197 224.82 288.727 223.974 290.049 223.945C290.802 223.933 291.543 224.132 292.19 224.518C292.837 224.904 293.363 225.463 293.709 226.132C294.074 226.867 294.278 227.67 294.309 228.489C294.34 229.309 294.197 230.125 293.89 230.885C293.606 231.624 293.197 232.309 292.682 232.91C292.189 233.569 291.534 234.09 290.781 234.422C290.634 234.47 290.478 234.482 290.326 234.456C290.174 234.43 290.031 234.368 289.908 234.274C289.786 234.181 289.688 234.059 289.623 233.919C289.558 233.779 289.528 233.625 289.536 233.471C289.63 232.7 289.936 231.969 290.42 231.361C291.294 230.163 293.101 229.393 294.346 230.524C295.401 231.475 295.154 233.12 294.612 234.27C293.841 235.772 292.626 237 291.133 237.788C290.409 238.177 289.635 238.465 288.832 238.643C288.357 238.748 288.148 238.006 288.632 237.902L288.594 237.959Z" fill="#E7142D"/>
<path d="M283.48 231.608C283.506 231.656 283.538 231.701 283.575 231.741C283.508 231.694 283.575 231.741 283.575 231.741L283.632 231.798C283.662 231.835 283.697 231.867 283.737 231.893C283.737 231.893 283.803 231.969 283.737 231.893L283.832 231.95L283.965 232.036H284.022C284.072 232.062 284.127 232.078 284.183 232.083H284.355C284.355 232.083 284.26 232.083 284.355 232.083H284.668C284.668 232.083 284.592 232.083 284.668 232.083H284.83C284.83 232.083 284.887 232.083 284.906 232.083C284.925 232.083 284.906 232.083 284.906 232.083L285.02 232.007L285.077 231.96V231.912C285.144 231.836 285.077 231.96 285.077 231.912L285.144 231.817V231.751C285.144 231.751 285.144 231.655 285.144 231.617C285.148 231.573 285.148 231.529 285.144 231.484C285.144 231.57 285.144 231.532 285.144 231.484V231.294C285.144 231.294 285.144 231.247 285.144 231.228C285.144 231.209 285.144 231.285 285.144 231.228C285.148 231.174 285.148 231.12 285.144 231.066C285.144 231.066 285.144 231.018 285.144 231.066L285.087 230.952V230.895C285.087 230.847 285.039 230.895 285.087 230.895C285.134 230.895 285.02 230.828 284.992 230.8H284.944C284.992 230.866 284.992 230.8 284.944 230.8L284.83 230.733C284.83 230.733 284.925 230.733 284.83 230.733H284.754H284.659H284.507C284.412 230.733 284.583 230.733 284.507 230.733L284.288 230.8C284.193 230.8 284.355 230.8 284.288 230.8L284.174 230.866L284.003 230.971C284.003 230.971 283.908 231.047 284.003 230.971L283.898 231.066L283.746 231.209L283.575 231.389L283.518 231.465V231.513C283.465 231.598 283.381 231.66 283.284 231.686C283.188 231.713 283.084 231.702 282.995 231.655C282.952 231.63 282.914 231.596 282.884 231.556C282.854 231.516 282.832 231.47 282.82 231.422C282.807 231.373 282.805 231.323 282.812 231.273C282.819 231.223 282.836 231.176 282.862 231.133C283.221 230.543 283.799 230.119 284.469 229.954C284.758 229.901 285.056 229.944 285.319 230.076C285.581 230.208 285.794 230.422 285.923 230.686C286.041 230.922 286.102 231.182 286.102 231.446C286.102 231.71 286.041 231.971 285.923 232.207C285.782 232.451 285.575 232.651 285.327 232.786C285.079 232.92 284.798 232.983 284.516 232.967C284.188 232.957 283.867 232.864 283.583 232.698C283.299 232.532 283.061 232.298 282.891 232.017C282.861 231.974 282.84 231.925 282.83 231.873C282.82 231.822 282.821 231.769 282.833 231.718C282.844 231.666 282.866 231.618 282.897 231.576C282.928 231.534 282.968 231.498 283.013 231.472C283.058 231.446 283.109 231.429 283.161 231.423C283.213 231.417 283.266 231.422 283.316 231.438C283.366 231.453 283.412 231.479 283.452 231.513C283.492 231.547 283.524 231.589 283.547 231.636L283.48 231.608Z" fill="#E7142D"/>
<path d="M281.607 227.311C281.581 227.603 281.467 227.881 281.281 228.109C281.094 228.336 280.844 228.502 280.562 228.584C280.288 228.68 279.99 228.684 279.713 228.595C279.437 228.505 279.197 228.328 279.031 228.09C278.898 227.855 278.828 227.59 278.828 227.32C278.828 227.05 278.898 226.785 279.031 226.55C279.168 226.294 279.39 226.093 279.659 225.982C279.928 225.871 280.227 225.857 280.505 225.942C280.837 226.042 281.128 226.249 281.332 226.531C281.529 226.806 281.611 227.147 281.56 227.482C281.529 227.578 281.463 227.659 281.375 227.708C281.286 227.758 281.183 227.772 281.085 227.748C280.989 227.715 280.91 227.649 280.861 227.561C280.812 227.473 280.797 227.371 280.818 227.273C280.818 227.273 280.818 227.358 280.818 227.32V227.215C280.814 227.19 280.814 227.165 280.818 227.139C280.814 227.114 280.814 227.089 280.818 227.063C280.818 227.063 280.818 226.968 280.742 226.93C280.666 226.892 280.685 226.845 280.742 226.93C280.799 227.016 280.742 226.93 280.742 226.93L280.628 226.816C280.628 226.816 280.581 226.816 280.562 226.816L280.429 226.74H280.352H280.286C280.229 226.74 280.286 226.74 280.286 226.74C280.239 226.745 280.191 226.745 280.143 226.74C280.077 226.74 280.143 226.74 280.143 226.74H280.067H279.991C279.925 226.74 280.058 226.74 279.991 226.74C279.953 226.768 279.912 226.79 279.868 226.807C279.934 226.807 279.925 226.807 279.868 226.807V226.854V226.902C279.842 226.938 279.82 226.976 279.801 227.016C279.801 227.016 279.801 227.092 279.801 227.016C279.801 226.94 279.801 227.016 279.801 227.016C279.797 227.06 279.797 227.105 279.801 227.149C279.806 227.168 279.806 227.187 279.801 227.206C279.801 227.101 279.801 227.206 279.801 227.206V227.406C279.801 227.472 279.801 227.311 279.801 227.406V227.529C279.804 227.551 279.804 227.574 279.801 227.596C279.801 227.672 279.801 227.539 279.801 227.596C279.818 227.64 279.84 227.681 279.868 227.719V227.767C279.868 227.767 279.811 227.71 279.868 227.767V227.814C279.868 227.814 279.944 227.871 279.868 227.814C279.792 227.757 279.868 227.814 279.868 227.814H279.944H280.01H280.067H280.115C280.115 227.814 280.02 227.814 280.067 227.814H280.276H280.429C280.454 227.809 280.48 227.809 280.505 227.814L280.638 227.729C280.714 227.681 280.638 227.729 280.638 227.729L280.704 227.672L280.761 227.615C280.761 227.615 280.828 227.529 280.761 227.615C280.695 227.7 280.761 227.615 280.761 227.615L280.809 227.539C280.809 227.491 280.809 227.539 280.809 227.539C280.809 227.539 280.809 227.539 280.809 227.463C280.814 227.438 280.814 227.412 280.809 227.387C280.809 227.387 280.809 227.33 280.809 227.387C280.809 227.444 280.809 227.387 280.809 227.387C280.814 227.286 280.856 227.19 280.929 227.12C281.001 227.049 281.098 227.009 281.199 227.006C281.299 227.009 281.394 227.05 281.465 227.12C281.536 227.191 281.576 227.287 281.579 227.387L281.607 227.311Z" fill="#E7142D"/>
<path d="M223.398 190.481L238.818 199.285C240.016 199.97 241.373 200.331 242.754 200.331C244.134 200.331 245.491 199.97 246.69 199.285L256.577 193.581L257.699 192.934C258.868 192.259 259.839 191.289 260.517 190.122C261.194 188.954 261.553 187.629 261.559 186.279V157.739L238.409 144.562V173.616C238.409 174.784 238.101 175.931 237.517 176.942C236.933 177.953 236.093 178.793 235.082 179.377L223.379 186.137C222.994 186.355 222.674 186.672 222.452 187.054C222.23 187.437 222.114 187.872 222.116 188.315C222.118 188.757 222.238 189.191 222.463 189.572C222.688 189.953 223.011 190.267 223.398 190.481Z" fill="#E0E0E0"/>
<path d="M242.116 200.236C240.955 200.146 239.829 199.802 238.817 199.228L223.396 190.443C223.015 190.226 222.698 189.911 222.478 189.531C222.257 189.151 222.141 188.72 222.141 188.281C222.141 187.841 222.257 187.41 222.478 187.03C222.698 186.65 223.015 186.336 223.396 186.118L231.392 181.507H242.135L242.116 200.236Z" fill="#E6E6E6"/>
<path d="M223.672 184.244L223.244 184.586C222.898 184.862 222.618 185.212 222.426 185.61C222.233 186.008 222.133 186.445 222.132 186.887V188.323H223.682L223.672 184.244Z" fill="#E6E6E6"/>
<path d="M236.621 146.768V172.912C236.622 174.045 236.325 175.158 235.759 176.139C235.193 177.121 234.379 177.936 233.398 178.502L223.663 184.206C223.293 184.417 222.986 184.723 222.773 185.091C222.559 185.459 222.447 185.877 222.447 186.302C222.447 186.728 222.559 187.146 222.773 187.514C222.986 187.882 223.293 188.187 223.663 188.399L224.766 189.026L238.598 196.898C239.756 197.56 241.067 197.908 242.401 197.908C243.735 197.908 245.046 197.56 246.204 196.898L255.787 191.241C256.767 190.676 257.581 189.863 258.147 188.883C258.713 187.904 259.01 186.792 259.01 185.661V159.516L236.621 146.768Z" fill="#F0F0F0"/>
<path d="M236.619 172.912V146.768L259.027 159.516V185.67C259.028 186.802 258.73 187.913 258.165 188.893C257.599 189.873 256.785 190.686 255.804 191.251L233.767 178.293C234.649 177.7 235.371 176.899 235.869 175.96C236.367 175.022 236.624 173.974 236.619 172.912Z" fill="#E6E6E6"/>
<path d="M307.534 205.141L310.081 206.615V211.273C311.715 211.271 313.318 210.828 314.721 209.99L314.921 209.876C315.505 209.529 316.012 209.067 316.413 208.518C316.813 207.968 317.098 207.344 317.25 206.681C317.338 206.395 317.383 206.097 317.383 205.797V199.456L307.534 205.141Z" fill="#E0E0E0"/>
<path d="M196.872 34.053L197.072 33.939C198.474 33.0998 200.077 32.6562 201.711 32.6555C202.236 32.6487 202.753 32.7869 203.204 33.0548L312.943 96.1622C314.293 96.9394 315.414 98.0587 316.194 99.4073C316.973 100.756 317.383 102.286 317.383 103.844V199.456L307.534 205.16L203.28 145.266C201.93 144.486 200.809 143.365 200.029 142.015C199.25 140.665 198.84 139.134 198.84 137.575V38.3882H194.41C194.409 37.5141 194.636 36.6548 195.067 35.8947C195.499 35.1347 196.121 34.5 196.872 34.053Z" fill="#37474F"/>
<path d="M316.479 99.8604C317.101 101.096 317.427 102.46 317.43 103.844V199.456L307.58 205.16L303.892 203.03V107.666L316.479 99.8604Z" fill="#263238"/>
<path d="M312.953 202.013V208.354C312.953 208.865 312.819 209.367 312.563 209.809C312.308 210.251 311.941 210.618 311.499 210.874C311.056 211.129 310.555 211.263 310.044 211.263C309.533 211.263 309.032 211.129 308.589 210.874L198.85 147.766C197.5 146.989 196.379 145.87 195.6 144.521C194.82 143.173 194.41 141.642 194.41 140.085V133.572L312.953 202.013Z" fill="#F0F0F0"/>
<path d="M194.41 38.1312C194.411 37.6219 194.546 37.1218 194.801 36.6809C195.056 36.24 195.422 35.8737 195.863 35.6187C196.303 35.3636 196.803 35.2287 197.313 35.2275C197.822 35.2263 198.323 35.3589 198.765 35.6118L308.513 98.7193C309.863 99.4987 310.984 100.62 311.764 101.97C312.543 103.32 312.953 104.852 312.953 106.41V202.013L194.41 133.562" fill="#455A64"/>
<path d="M200.771 42.5332C201.272 42.5307 201.766 42.6446 202.216 42.866L305.376 102.161C306.566 102.85 307.554 103.84 308.242 105.032C308.929 106.223 309.292 107.574 309.293 108.949V190.415C309.294 190.764 309.223 191.111 309.084 191.432C308.938 191.764 308.724 192.062 308.456 192.306C308.188 192.55 307.872 192.735 307.527 192.849C307.183 192.963 306.819 193.003 306.458 192.967C306.097 192.931 305.748 192.819 305.433 192.639L202.301 133.344C201.111 132.655 200.123 131.665 199.435 130.474C198.748 129.282 198.386 127.931 198.384 126.556V45.0906C198.385 44.4417 198.632 43.8171 199.074 43.3426C199.517 42.8681 200.123 42.5789 200.771 42.5332Z" fill="#E7142D"/>
<path opacity="0.5" d="M200.771 42.5332C201.272 42.5307 201.766 42.6446 202.216 42.866L305.376 102.161C306.566 102.85 307.554 103.84 308.242 105.032C308.929 106.223 309.292 107.574 309.293 108.949V190.415C309.294 190.764 309.223 191.111 309.084 191.432C308.938 191.764 308.724 192.062 308.456 192.306C308.188 192.55 307.872 192.735 307.527 192.849C307.183 192.963 306.819 193.003 306.458 192.967C306.097 192.931 305.748 192.819 305.433 192.639L202.301 133.344C201.111 132.655 200.123 131.665 199.435 130.474C198.748 129.282 198.386 127.931 198.384 126.556V45.0906C198.385 44.4417 198.632 43.8171 199.074 43.3426C199.517 42.8681 200.123 42.5789 200.771 42.5332Z" fill="white"/>
<path d="M157.616 207.089L158.425 207.545C158.761 207.195 159.145 206.894 159.565 206.652L191.043 188.484C193.401 187.115 196.975 186.972 199.019 188.151L254.578 220.199C254.725 220.29 254.864 220.392 254.997 220.503L255.947 219.961V222.31C255.859 222.849 255.64 223.358 255.308 223.793C254.977 224.227 254.543 224.573 254.046 224.8L222.53 243.016C220.172 244.375 216.598 244.527 214.554 243.349L158.995 211.272C158.614 211.094 158.287 210.818 158.048 210.472C157.809 210.126 157.667 209.723 157.635 209.304L157.616 207.089Z" fill="#263238"/>
<path d="M158.996 209.047L214.555 241.115C216.599 242.303 220.173 242.151 222.531 240.791L254.009 222.614C256.366 221.254 256.623 219.191 254.579 218.013L199.02 185.974C196.976 184.786 193.401 184.938 191.044 186.297L159.566 204.475C157.199 205.806 156.942 207.84 158.996 209.047Z" fill="#37474F"/>
<path d="M165.707 207.925L209.297 233.09C209.912 233.37 210.585 233.502 211.26 233.474C211.936 233.446 212.595 233.259 213.185 232.929L240.423 217.223C241.573 216.567 241.696 215.559 240.698 214.989L197.071 189.776C196.455 189.498 195.782 189.368 195.107 189.396C194.432 189.424 193.773 189.61 193.182 189.938L165.983 205.644C164.832 206.347 164.709 207.345 165.707 207.925Z" fill="#455A64"/>
<path d="M232.407 230.542C230.407 230.542 228.785 229.606 228.785 228.451C228.785 227.296 230.407 226.359 232.407 226.359C234.408 226.359 236.029 227.296 236.029 228.451C236.029 229.606 234.408 230.542 232.407 230.542Z" fill="#263238"/>
<path d="M224.109 231.027L227.912 233.214C228.15 233.32 228.41 233.369 228.671 233.358C228.931 233.346 229.186 233.274 229.414 233.147C229.851 232.891 229.899 232.501 229.518 232.282L225.716 230.096C225.477 229.99 225.217 229.94 224.957 229.952C224.696 229.963 224.442 230.035 224.214 230.162C223.776 230.419 223.719 230.809 224.109 231.027Z" fill="#263238"/>
<path d="M220.515 233.1L224.318 235.286C224.556 235.392 224.816 235.442 225.077 235.43C225.338 235.419 225.592 235.347 225.82 235.22C226.257 234.963 226.305 234.583 225.925 234.355L222.122 232.178C221.885 232.068 221.625 232.016 221.364 232.026C221.103 232.036 220.848 232.107 220.62 232.235C220.182 232.491 220.135 232.881 220.515 233.1Z" fill="#263238"/>
<path d="M238.854 222.519L242.657 224.696C242.892 224.806 243.15 224.859 243.41 224.849C243.67 224.839 243.923 224.767 244.149 224.639C244.596 224.382 244.644 223.992 244.263 223.773L240.461 221.587C240.222 221.481 239.962 221.432 239.702 221.443C239.441 221.455 239.187 221.527 238.959 221.653C238.521 221.91 238.464 222.29 238.854 222.519Z" fill="#263238"/>
<path d="M235.259 224.592L239.062 226.778C239.301 226.885 239.56 226.934 239.821 226.922C240.082 226.911 240.336 226.839 240.564 226.712C241.002 226.455 241.049 226.065 240.669 225.847L236.866 223.66C236.628 223.554 236.368 223.505 236.107 223.516C235.846 223.528 235.592 223.6 235.364 223.727C234.917 224.002 234.87 224.373 235.259 224.592Z" fill="#263238"/>
<path d="M201.558 169.071L208.004 168.52L214.459 169.052L212.833 178.264V178.359C212.729 178.712 212.552 179.039 212.315 179.321C212.078 179.602 211.785 179.832 211.455 179.994C210.392 180.531 209.218 180.81 208.028 180.81C206.837 180.81 205.663 180.531 204.6 179.994C204.249 179.827 203.941 179.583 203.697 179.28C203.453 178.978 203.281 178.624 203.193 178.245L201.558 169.071Z" fill="#37474F"/>
<path d="M203.432 166.152C200.903 167.616 200.903 169.955 203.432 171.438C204.848 172.16 206.415 172.536 208.005 172.536C209.595 172.536 211.162 172.16 212.578 171.438C215.107 169.983 215.107 167.635 212.578 166.152C211.16 165.434 209.594 165.061 208.005 165.061C206.416 165.061 204.85 165.434 203.432 166.152Z" fill="#455A64"/>
<path d="M208.004 148.545C208.24 148.544 208.474 148.589 208.693 148.679C208.912 148.769 209.11 148.901 209.277 149.068C209.444 149.236 209.577 149.434 209.667 149.653C209.756 149.871 209.802 150.105 209.801 150.342V168.139C209.787 168.297 209.731 168.448 209.639 168.576C209.547 168.705 209.423 168.807 209.278 168.871C208.885 169.073 208.45 169.178 208.009 169.178C207.567 169.178 207.132 169.073 206.74 168.871C206.594 168.807 206.467 168.706 206.374 168.577C206.28 168.449 206.223 168.297 206.207 168.139V150.342C206.207 149.865 206.396 149.408 206.733 149.071C207.07 148.734 207.527 148.545 208.004 148.545Z" fill="#263238"/>
<path d="M256.013 25.3057C256.385 25.3058 256.752 25.3903 257.087 25.5528L333.257 69.3516C334.129 69.867 334.851 70.6015 335.351 71.482C335.851 72.3625 336.113 73.3585 336.109 74.3713V134.522C336.111 134.781 336.056 135.038 335.948 135.273C335.841 135.519 335.684 135.739 335.487 135.92C335.29 136.1 335.056 136.237 334.802 136.322C334.548 136.406 334.28 136.436 334.013 136.409C333.747 136.382 333.489 136.3 333.257 136.167L257.097 92.3775C256.216 91.868 255.485 91.1362 254.976 90.2552C254.467 89.3743 254.199 88.3752 254.197 87.3578V27.2071C254.197 26.7173 254.385 26.2462 254.723 25.8919C255.062 25.5377 255.524 25.3277 256.013 25.3057Z" fill="#E0E0E0"/>
<path d="M256.051 26.2568C255.811 26.2737 255.585 26.3813 255.421 26.5578C255.257 26.7342 255.166 26.9665 255.167 27.2075V87.3583C255.167 88.2135 255.392 89.0537 255.819 89.7945C256.246 90.5354 256.86 91.1509 257.601 91.5794L333.771 135.369C333.917 135.456 334.085 135.502 334.255 135.502C334.456 135.517 334.656 135.467 334.827 135.362C334.997 135.256 335.13 135.098 335.206 134.912C335.255 134.788 335.281 134.656 335.282 134.522V74.3717C335.282 73.5165 335.057 72.6763 334.63 71.9355C334.203 71.1946 333.589 70.579 332.848 70.1506L256.583 26.3614C256.401 26.2783 256.203 26.2361 256.003 26.2378L256.051 26.2568ZM256.003 25.2871C256.376 25.2873 256.743 25.3718 257.078 25.5343L333.257 69.352C334.129 69.8675 334.851 70.6019 335.351 71.4824C335.851 72.363 336.113 73.359 336.109 74.3717V134.522C336.111 134.782 336.056 135.038 335.948 135.274C335.801 135.614 335.559 135.904 335.25 136.109C334.941 136.313 334.578 136.423 334.208 136.424C333.875 136.419 333.548 136.331 333.257 136.167L257.097 92.378C256.216 91.8685 255.485 91.1366 254.976 90.2557C254.467 89.3747 254.199 88.3756 254.197 87.3583V27.2075C254.196 26.7255 254.378 26.261 254.706 25.908C255.034 25.555 255.485 25.3399 255.965 25.3061L256.003 25.2871Z" fill="#E0E0E0"/>
<path d="M335.32 136.091L332.649 137.964V133.629L335.32 136.091Z" fill="#E0E0E0"/>
<path d="M255.158 25.6006L252.448 27.4925L255.785 29.8597L255.158 25.6006Z" fill="#E0E0E0"/>
<path d="M253.409 27.1505C253.779 27.1469 254.144 27.2316 254.474 27.3977L330.654 71.1869C331.525 71.7001 332.247 72.4327 332.748 73.3118C333.248 74.1908 333.509 75.1856 333.506 76.1971V136.357C333.505 136.615 333.453 136.871 333.354 137.108C333.246 137.353 333.089 137.573 332.891 137.752C332.693 137.932 332.46 138.068 332.206 138.151C331.952 138.235 331.683 138.264 331.418 138.236C331.152 138.209 330.895 138.126 330.663 137.993L254.493 94.2604C253.621 93.7456 252.898 93.0114 252.398 92.1307C251.898 91.25 251.637 90.2536 251.641 89.2407V29.0424C251.642 28.562 251.825 28.0999 252.153 27.7489C252.481 27.3979 252.93 27.1841 253.409 27.1505Z" fill="white"/>
<path d="M253.447 28.0728C253.207 28.0897 252.982 28.1973 252.818 28.3738C252.654 28.5502 252.563 28.7825 252.563 29.0235V89.1933C252.565 90.0481 252.791 90.8876 253.218 91.6281C253.645 92.3687 254.258 92.9845 254.997 93.4144L331.167 137.204C331.314 137.291 331.481 137.337 331.652 137.337C331.852 137.352 332.052 137.303 332.223 137.197C332.394 137.091 332.527 136.933 332.603 136.747C332.652 136.623 332.677 136.491 332.679 136.357V76.1972C332.677 75.3436 332.451 74.5054 332.024 73.7664C331.597 73.0273 330.984 72.4133 330.245 71.9856L254.037 28.1584C253.853 28.072 253.651 28.0297 253.447 28.0348V28.0728ZM253.447 27.0841C253.817 27.0805 254.182 27.1652 254.512 27.3313L330.654 71.187C331.525 71.7003 332.247 72.4329 332.748 73.3119C333.248 74.1909 333.509 75.1857 333.506 76.1972V136.357C333.505 136.615 333.453 136.871 333.354 137.109C333.205 137.449 332.961 137.738 332.65 137.941C332.339 138.143 331.976 138.251 331.604 138.249C331.27 138.253 330.941 138.164 330.654 137.993L254.484 94.2605C253.611 93.7458 252.889 93.0115 252.389 92.1308C251.888 91.2501 251.627 90.2537 251.632 89.2408V29.0425C251.63 28.562 251.811 28.0988 252.137 27.7461C252.463 27.3933 252.911 27.1772 253.39 27.1411L253.447 27.0841Z" fill="#E0E0E0"/>
<path d="M295.372 92.8055C295.367 91.9851 295.309 91.1659 295.201 90.3527C300.515 92.178 304.641 89.5921 305.488 83.8594C311.449 88.6984 315.945 97.3783 315.945 104.68C315.945 113.008 310.099 116.383 302.883 112.219C298.7 109.804 294.992 105.383 292.596 100.478C294.336 98.9565 295.372 96.3421 295.372 92.8055Z" fill="#E7142D"/>
<path opacity="0.7" d="M295.372 92.8055C295.367 91.9851 295.309 91.1659 295.201 90.3527C300.515 92.178 304.641 89.5921 305.488 83.8594C311.449 88.6984 315.945 97.3783 315.945 104.68C315.945 113.008 310.099 116.383 302.883 112.219C298.7 109.804 294.992 105.383 292.596 100.478C294.336 98.9565 295.372 96.3421 295.372 92.8055Z" fill="white"/>
<path d="M279.714 69.0383C280.817 76.2003 284.47 82.7228 290 87.4059C289.884 88.1482 289.824 88.8982 289.82 89.6495C289.927 93.4388 290.876 97.1569 292.596 100.535C290.209 102.684 286.492 102.817 282.319 100.402C275.103 96.2379 269.256 86.1414 269.256 77.7753C269.256 70.4644 273.696 66.9658 279.714 69.0383Z" fill="#E7142D"/>
<path opacity="0.3" d="M279.714 69.0383C280.817 76.2003 284.47 82.7228 290 87.4059C289.884 88.1482 289.824 88.8982 289.82 89.6495C289.927 93.4388 290.876 97.1569 292.596 100.535C290.209 102.684 286.492 102.817 282.319 100.402C275.103 96.2379 269.256 86.1414 269.256 77.7753C269.256 70.4644 273.696 66.9658 279.714 69.0383Z" fill="black"/>
<path d="M290.002 87.3867C290.82 88.0506 291.688 88.6512 292.597 89.1835C293.427 89.6644 294.299 90.0685 295.202 90.3909C295.31 91.2041 295.367 92.0234 295.373 92.8437C295.373 96.3423 294.337 98.9567 292.597 100.516C290.89 97.1347 289.955 93.4168 289.859 89.6304C289.851 88.88 289.898 88.13 290.002 87.3867Z" fill="#E7142D"/>
<path opacity="0.5" d="M290.002 87.3867C290.82 88.0506 291.688 88.6512 292.597 89.1835C293.427 89.6644 294.299 90.0685 295.202 90.3909C295.31 91.2041 295.367 92.0234 295.373 92.8437C295.373 96.3423 294.337 98.9567 292.597 100.516C290.89 97.1347 289.955 93.4168 289.859 89.6304C289.851 88.88 289.898 88.13 290.002 87.3867Z" fill="black"/>
<path d="M292.596 81.9583C290.209 77.0526 286.492 72.6319 282.319 70.2171C281.49 69.7418 280.618 69.3471 279.714 69.0383C279.606 68.225 279.548 67.4058 279.542 66.5855C279.542 58.2573 285.389 54.8823 292.596 59.0464C299.802 63.2105 305.658 73.3069 305.658 81.6635C305.657 82.4178 305.6 83.1709 305.487 83.9167C304.668 83.2465 303.797 82.6425 302.882 82.1104C298.699 79.6766 294.991 79.8097 292.596 81.9583Z" fill="#E7142D"/>
<path d="M295.202 90.3909C294.797 87.4571 293.918 84.6088 292.597 81.9582C294.993 79.8096 298.7 79.6765 302.883 82.0913C303.798 82.6234 304.669 83.2274 305.488 83.8976C304.642 89.6303 300.516 92.2162 295.202 90.3909Z" fill="#E7142D"/>
<path opacity="0.3" d="M295.202 90.3909C294.797 87.4571 293.918 84.6088 292.597 81.9582C294.993 79.8096 298.7 79.6765 302.883 82.0913C303.798 82.6234 304.669 83.2274 305.488 83.8976C304.642 89.6303 300.516 92.2162 295.202 90.3909Z" fill="white"/>
<path d="M292.596 81.9581C291.122 83.408 290.203 85.3291 290 87.3866C284.474 82.7083 280.822 76.1932 279.714 69.0381C280.618 69.353 281.491 69.7541 282.319 70.236C286.492 72.6317 290.209 77.0525 292.596 81.9581Z" fill="#E7142D"/>
<path opacity="0.7" d="M292.596 81.9581C291.122 83.408 290.203 85.3291 290 87.3866C284.474 82.7083 280.822 76.1932 279.714 69.0381C280.618 69.353 281.491 69.7541 282.319 70.236C286.492 72.6317 290.209 77.0525 292.596 81.9581Z" fill="black"/>
<path d="M292.596 81.958C293.917 84.6087 294.797 87.4569 295.201 90.3907C294.298 90.0683 293.426 89.6642 292.596 89.1833C291.687 88.651 290.819 88.0504 290.001 87.3865C290.204 85.329 291.122 83.4079 292.596 81.958Z" fill="#263238"/>
<path d="M209.438 73.7921C209.744 73.7886 210.047 73.857 210.322 73.9918L273.258 110.175C273.989 110.593 274.595 111.196 275.016 111.924C275.437 112.652 275.657 113.479 275.654 114.32V164.033C275.654 164.248 275.612 164.461 275.531 164.66C275.441 164.862 275.311 165.043 275.147 165.191C274.983 165.339 274.791 165.451 274.581 165.52C274.371 165.589 274.15 165.613 273.93 165.591C273.71 165.569 273.498 165.501 273.306 165.392L210.36 129.208C209.632 128.79 209.027 128.186 208.608 127.458C208.189 126.73 207.97 125.903 207.974 125.063V75.3703C207.968 74.9695 208.117 74.5819 208.39 74.288C208.663 73.9941 209.038 73.8165 209.438 73.7921Z" fill="#E0E0E0"/>
<path d="M209.467 74.5716C209.269 74.5905 209.085 74.683 208.951 74.8307C208.818 74.9785 208.744 75.1709 208.745 75.3702V125.13C208.745 125.835 208.93 126.527 209.282 127.138C209.634 127.749 210.141 128.256 210.751 128.609L273.697 164.745C273.816 164.82 273.955 164.86 274.096 164.859C274.254 164.861 274.408 164.816 274.54 164.729C274.672 164.643 274.776 164.52 274.837 164.375C274.883 164.273 274.906 164.163 274.904 164.051V114.339C274.904 113.634 274.719 112.942 274.366 112.331C274.014 111.72 273.508 111.213 272.898 110.86L209.952 74.6666C209.8 74.5987 209.634 74.5662 209.467 74.5716ZM209.467 73.811C209.774 73.8075 210.076 73.8759 210.351 74.0107L273.288 110.194C274.018 110.611 274.625 111.215 275.046 111.943C275.467 112.671 275.687 113.498 275.684 114.339V164.051C275.683 164.267 275.641 164.48 275.56 164.679C275.472 164.882 275.342 165.064 275.178 165.213C275.015 165.362 274.822 165.474 274.612 165.543C274.402 165.613 274.179 165.637 273.959 165.614C273.739 165.591 273.527 165.522 273.335 165.411L210.39 129.227C209.661 128.809 209.056 128.205 208.637 127.477C208.218 126.749 207.999 125.922 208.003 125.082V75.3702C207.997 74.9739 208.142 74.5903 208.409 74.2971C208.676 74.004 209.044 73.8234 209.439 73.792L209.467 73.811Z" fill="#E0E0E0"/>
<path d="M274.971 165.344L272.765 166.894V163.31L274.971 165.344Z" fill="#E0E0E0"/>
<path d="M208.735 74.0488L206.491 75.608L209.248 77.5569L208.735 74.0488Z" fill="#E0E0E0"/>
<path d="M207.29 75.3223C207.597 75.3196 207.9 75.3914 208.174 75.5315L271.11 111.715C271.839 112.132 272.445 112.734 272.866 113.46C273.286 114.186 273.507 115.011 273.506 115.851V165.563C273.507 165.779 273.461 165.993 273.373 166.19C273.283 166.392 273.153 166.573 272.989 166.721C272.826 166.869 272.633 166.981 272.423 167.05C272.213 167.119 271.992 167.144 271.772 167.121C271.552 167.099 271.34 167.032 271.148 166.922L208.202 130.739C207.474 130.32 206.869 129.716 206.45 128.988C206.031 128.26 205.812 127.434 205.816 126.594V76.8815C205.815 76.4824 205.968 76.0982 206.242 75.8082C206.516 75.5181 206.891 75.3442 207.29 75.3223Z" fill="white"/>
<path d="M207.319 76.0829C207.12 76.0997 206.934 76.1915 206.8 76.3398C206.666 76.488 206.593 76.6816 206.596 76.8815V126.594C206.598 127.3 206.783 127.993 207.135 128.605C207.487 129.217 207.993 129.726 208.602 130.083L271.548 166.266C271.67 166.334 271.808 166.37 271.947 166.371C272.105 166.371 272.259 166.325 272.391 166.239C272.522 166.153 272.626 166.03 272.689 165.886C272.735 165.784 272.757 165.674 272.756 165.563V115.851C272.755 115.145 272.568 114.452 272.214 113.841C271.86 113.23 271.352 112.723 270.74 112.371L207.804 76.1875C207.652 76.1172 207.486 76.0815 207.319 76.0829ZM207.319 75.3223C207.626 75.3196 207.93 75.3914 208.203 75.5315L271.139 111.715C271.868 112.132 272.474 112.734 272.895 113.46C273.316 114.186 273.537 115.011 273.535 115.851V165.563C273.536 165.779 273.491 165.993 273.402 166.19C273.278 166.471 273.076 166.71 272.819 166.878C272.563 167.047 272.264 167.138 271.957 167.141C271.683 167.141 271.414 167.069 271.177 166.932L208.232 130.748C207.503 130.33 206.898 129.726 206.479 128.998C206.06 128.269 205.841 127.443 205.845 126.603V76.8815C205.844 76.4855 205.994 76.104 206.264 75.8144C206.535 75.5248 206.905 75.3489 207.3 75.3223H207.319Z" fill="#E0E0E0"/>
<path d="M213.698 124.996L261.176 152.405L247.143 115.908L237.437 127.449L227.502 113.303L213.698 124.996Z" fill="#E7142D"/>
<path opacity="0.4" d="M213.698 124.996L261.176 152.405L247.143 115.908L237.437 127.449L227.502 113.303L213.698 124.996Z" fill="white"/>
<path d="M230.163 102.227C230.245 103.729 230.679 105.191 231.431 106.494C232.182 107.797 233.23 108.905 234.489 109.728C236.885 111.107 238.824 109.985 238.824 107.228C238.744 105.725 238.309 104.261 237.556 102.958C236.802 101.654 235.752 100.547 234.489 99.727C232.103 98.3485 230.163 99.4608 230.163 102.227Z" fill="#E7142D"/>
<path d="M115.986 246.296L101.726 322.105C101.607 322.698 101.262 323.221 100.763 323.564C100.265 323.907 99.6535 324.043 99.0571 323.943C98.4607 323.843 97.9266 323.515 97.5677 323.028C97.2088 322.541 97.0533 321.934 97.134 321.335L107.592 251.097L115.986 246.296Z" fill="#263238"/>
<path d="M88.5968 295.447L103.105 383.967C103.21 384.612 103.542 385.198 104.04 385.621C104.538 386.044 105.17 386.277 105.824 386.277C106.212 386.278 106.596 386.197 106.951 386.039C107.306 385.882 107.623 385.651 107.883 385.362C108.142 385.073 108.337 384.732 108.456 384.362C108.575 383.992 108.614 383.602 108.571 383.216L98.3891 291.892L88.5968 295.447Z" fill="#455A64"/>
<path d="M138.698 265.671L153.206 354.191C153.31 354.838 153.641 355.426 154.139 355.851C154.637 356.276 155.27 356.51 155.925 356.511C156.314 356.51 156.698 356.428 157.053 356.269C157.408 356.111 157.725 355.879 157.985 355.589C158.244 355.299 158.439 354.958 158.558 354.588C158.676 354.218 158.715 353.826 158.673 353.44L148.491 262.173L138.698 265.671Z" fill="#455A64"/>
<path d="M65.3418 274.751L51.0813 351.026C50.9586 351.614 50.6133 352.132 50.1174 352.472C49.6215 352.812 49.0135 352.946 48.4205 352.848C47.8275 352.75 47.2955 352.426 46.9356 351.945C46.5757 351.463 46.4158 350.862 46.4894 350.265L57.0612 279.562L65.3418 274.751Z" fill="#263238"/>
<path d="M112.839 240.525C109.562 239.072 106.727 236.779 104.622 233.877C102.516 230.975 101.216 227.569 100.851 224.002C98.5409 200.777 90.3934 152.918 62.6425 168.862C28.4173 188.522 40.6814 245.631 45.6535 263.932C46.7662 268.061 48.9315 271.832 51.9376 274.874C58.1267 281.101 70.9516 291.825 92.6846 300.952C95.3573 302.07 98.3305 302.248 101.117 301.456C111.927 298.375 140.172 288.916 154.261 270.9C155.061 269.878 155.424 268.581 155.273 267.292C155.122 266.004 154.468 264.826 153.453 264.017C147.74 259.444 134.848 250.337 112.839 240.525Z" fill="#E7142D"/>
<path opacity="0.3" d="M112.839 240.525C109.562 239.072 106.727 236.779 104.622 233.877C102.516 230.975 101.216 227.569 100.851 224.002C98.5409 200.777 90.3934 152.918 62.6425 168.862C28.4173 188.522 40.6814 245.631 45.6535 263.932C46.7662 268.061 48.9315 271.832 51.9376 274.874C58.1267 281.101 70.9516 291.825 92.6846 300.952C95.3573 302.07 98.3305 302.248 101.117 301.456C111.927 298.375 140.172 288.916 154.261 270.9C155.061 269.878 155.424 268.581 155.273 267.292C155.122 266.004 154.468 264.826 153.453 264.017C147.74 259.444 134.848 250.337 112.839 240.525Z" fill="black"/>
<path d="M155.278 267.582C155.349 268.762 154.987 269.928 154.261 270.862C153.51 271.812 152.712 272.763 151.884 273.714C151.428 274.208 150.934 274.665 150.496 275.187C150.021 275.663 149.546 276.138 149.061 276.604H149.013C148.528 277.07 148.063 277.555 147.53 277.983C147.026 278.439 146.503 278.933 145.981 279.323C137.995 286.035 128.298 291.14 119.637 294.819L118.03 295.485L117.868 295.551C117.365 295.761 116.918 295.96 116.385 296.15L116.129 296.255L114.75 296.787L114.436 296.911L113.153 297.396L112.782 297.538L111.594 297.966L111.166 298.118L110.073 298.508L109.616 298.67L108.609 299.012L108.124 299.183L107.173 299.487L106.65 299.658L105.823 299.925L105.272 300.096L104.559 300.324L103.96 300.505L103.351 300.695L102.619 300.913L102.248 301.018L101.212 301.322C98.4253 302.114 95.4521 301.937 92.7794 300.818C71.0179 291.692 58.2215 280.968 52.0324 274.741C49.0114 271.746 46.8142 268.023 45.6533 263.931C40.6811 245.583 28.4171 188.474 62.6423 168.861C63.2507 168.509 63.8401 168.205 64.4296 167.911L64.8194 167.73C65.3961 167.451 65.9665 167.204 66.5306 166.988L66.6922 166.931C67.2341 166.722 67.757 166.551 68.2799 166.399L68.5176 166.332C69.088 166.171 69.6394 166.047 70.1813 165.943H70.3144C71.3961 165.747 72.4959 165.67 73.5943 165.714H73.6609C74.7121 165.758 75.755 165.921 76.7696 166.199C71.3031 163.784 64.6292 163.889 58.0124 167.692C23.7872 187.362 36.0512 244.47 41.0234 262.762L41.8695 265.909C43.5664 272.263 47.3208 277.876 52.5458 281.871L61.4254 288.649C71.0246 295.896 81.5181 301.874 92.6463 306.437C95.3268 307.563 98.3106 307.744 101.108 306.95C111.907 303.861 140.172 294.354 154.261 276.357C154.86 275.585 155.214 274.651 155.278 273.676V267.572V267.582Z" fill="#E7142D"/>
<path opacity="0.5" d="M155.278 267.582C155.349 268.762 154.987 269.928 154.261 270.862C153.51 271.812 152.712 272.763 151.884 273.714C151.428 274.208 150.934 274.665 150.496 275.187C150.021 275.663 149.546 276.138 149.061 276.604H149.013C148.528 277.07 148.063 277.555 147.53 277.983C147.026 278.439 146.503 278.933 145.981 279.323C137.995 286.035 128.298 291.14 119.637 294.819L118.03 295.485L117.868 295.551C117.365 295.761 116.918 295.96 116.385 296.15L116.129 296.255L114.75 296.787L114.436 296.911L113.153 297.396L112.782 297.538L111.594 297.966L111.166 298.118L110.073 298.508L109.616 298.67L108.609 299.012L108.124 299.183L107.173 299.487L106.65 299.658L105.823 299.925L105.272 300.096L104.559 300.324L103.96 300.505L103.351 300.695L102.619 300.913L102.248 301.018L101.212 301.322C98.4253 302.114 95.4521 301.937 92.7794 300.818C71.0179 291.692 58.2215 280.968 52.0324 274.741C49.0114 271.746 46.8142 268.023 45.6533 263.931C40.6811 245.583 28.4171 188.474 62.6423 168.861C63.2507 168.509 63.8401 168.205 64.4296 167.911L64.8194 167.73C65.3961 167.451 65.9665 167.204 66.5306 166.988L66.6922 166.931C67.2341 166.722 67.757 166.551 68.2799 166.399L68.5176 166.332C69.088 166.171 69.6394 166.047 70.1813 165.943H70.3144C71.3961 165.747 72.4959 165.67 73.5943 165.714H73.6609C74.7121 165.758 75.755 165.921 76.7696 166.199C71.3031 163.784 64.6292 163.889 58.0124 167.692C23.7872 187.362 36.0512 244.47 41.0234 262.762L41.8695 265.909C43.5664 272.263 47.3208 277.876 52.5458 281.871L61.4254 288.649C71.0246 295.896 81.5181 301.874 92.6463 306.437C95.3268 307.563 98.3106 307.744 101.108 306.95C111.907 303.861 140.172 294.354 154.261 276.357C154.86 275.585 155.214 274.651 155.278 273.676V267.572V267.582Z" fill="black"/>
<path d="M51.1289 131.11C51.1289 131.11 43.5233 123.247 34.8434 128.258C26.1635 133.268 30.2801 149.173 32.7804 153.689C35.2807 158.205 39.9106 174.443 26.3442 171.153C26.3442 171.153 30.9836 177.808 40.6047 175.992C50.2257 174.176 52.0891 162.597 49.5222 153.014C46.9553 143.431 51.0909 139.077 51.0909 139.077L51.1289 131.11Z" fill="#263238"/>
<path d="M90.858 169.68C90.858 169.68 100.926 168.634 104.928 170.431C108.931 172.227 134.314 208.23 134.314 208.23C134.314 208.23 124.807 211.235 109.416 198.486C94.0238 185.737 90.858 169.68 90.858 169.68Z" fill="#FFBDC5"/>
<path d="M57.3373 206.575L56.1394 179.005L68.8503 172.664L83.9949 169.717H90.859C90.859 169.717 104.245 181.125 108.38 192.125C112.516 203.124 103.161 211.329 103.161 211.329C103.161 220.598 108.38 230.752 108.38 230.752C108.38 230.752 99.4153 243.852 79.6883 242.407C73.337 241.803 67.1586 239.996 61.4824 237.083C62.321 232.256 63.4867 227.492 64.9715 222.823L57.3373 206.575Z" fill="#E7142D"/>
<path opacity="0.5" d="M57.3373 206.575L56.1394 179.005L68.8503 172.664L83.9949 169.717H90.859C90.859 169.717 104.245 181.125 108.38 192.125C112.516 203.124 103.161 211.329 103.161 211.329C103.161 220.598 108.38 230.752 108.38 230.752C108.38 230.752 99.4153 243.852 79.6883 242.407C73.337 241.803 67.1586 239.996 61.4824 237.083C62.321 232.256 63.4867 227.492 64.9715 222.823L57.3373 206.575Z" fill="white"/>
<path d="M82.5301 113.997C82.5301 113.997 92.8452 108.502 97.2469 119.254C101.649 130.007 95.1459 142.118 108.047 143.896C108.047 143.896 101.753 151.055 93.6152 140.797C94.7656 142.252 93.4156 147.005 92.9022 148.564C91.9785 151.391 90.3412 153.932 88.1487 155.942C85.6472 158.075 82.7353 159.673 79.5924 160.638C77.3227 161.482 74.9219 161.92 72.5002 161.931C68.8305 161.845 64.2101 160.172 61.0253 158.337C57.5908 156.319 54.7912 153.377 52.9443 149.848C49.6707 143.392 48.7303 136.002 50.2824 128.932C51.1347 124.981 53.0933 121.354 55.9295 118.475C63.2024 112.01 73.508 111.715 82.5301 113.997Z" fill="#263238"/>
<path d="M82.5215 160.306L83.9951 169.727C83.9951 169.727 95.4035 179.053 86.0676 181.402C76.7318 183.75 68.8505 172.665 68.8505 172.665L65.9223 153.983L82.5215 160.306Z" fill="#FFBDC5"/>
<path d="M65.5977 150.799L65.6833 151.341C71.1973 164.204 80.4476 165.734 83.4043 166.01L80.267 145.266L65.4931 147.462L65.5977 150.799Z" fill="#703838"/>
<path d="M75.0012 118.769C80.7054 118.351 93.0645 120.67 95.5363 135.435C98.0081 150.199 97.5328 161.893 89.9272 163.566C82.3216 165.239 64.0491 160.989 60.2368 141.871C56.4245 122.752 69.4776 119.178 75.0012 118.769Z" fill="#FFBDC5"/>
<path d="M86.1138 143.012L87.3402 151.739L92.2363 149.448L86.1138 143.012Z" fill="#703838"/>
<path d="M78.4319 143.972C78.4823 144.322 78.6351 144.648 78.8711 144.911C79.1071 145.174 79.4156 145.361 79.7578 145.449C80.1 145.536 80.4604 145.52 80.7936 145.403C81.1268 145.286 81.4179 145.073 81.63 144.79C81.8421 144.508 81.9658 144.169 81.9855 143.817C82.0052 143.464 81.9199 143.113 81.7405 142.809C81.5611 142.505 81.2955 142.261 80.9774 142.107C80.6593 141.954 80.3028 141.898 79.953 141.947C79.72 141.98 79.4957 142.058 79.293 142.177C79.0903 142.297 78.9132 142.455 78.7719 142.644C78.6306 142.832 78.5278 143.046 78.4694 143.274C78.4111 143.502 78.3983 143.739 78.4319 143.972Z" fill="#263238"/>
<path d="M89.9468 141.073C89.9957 141.426 90.1482 141.756 90.3849 142.021C90.6217 142.287 90.932 142.476 91.2765 142.566C91.621 142.655 91.9843 142.64 92.3202 142.522C92.6561 142.405 92.9495 142.19 93.1633 141.905C93.377 141.621 93.5014 141.279 93.5208 140.924C93.5401 140.568 93.4535 140.215 93.2719 139.909C93.0903 139.603 92.8219 139.358 92.5007 139.205C92.1796 139.051 91.8201 138.997 91.468 139.048C90.9984 139.116 90.575 139.368 90.29 139.747C90.005 140.126 89.8816 140.603 89.9468 141.073Z" fill="#263238"/>
<path d="M93.3586 136.813L89.5558 135.245C89.5558 135.245 90.6872 133.666 92.1417 134.294C93.5963 134.921 93.3586 136.813 93.3586 136.813Z" fill="#E7142D"/>
<path d="M86.2188 153.907C84.2976 153.29 82.4123 152.566 80.5716 151.739C80.5716 151.739 80.2389 152.918 82.7392 153.774C85.2396 154.629 86.2188 153.907 86.2188 153.907Z" fill="#703838"/>
<path d="M93.3586 136.813L89.5558 135.245C89.5558 135.245 90.6872 133.666 92.1417 134.294C93.5963 134.921 93.3586 136.813 93.3586 136.813Z" fill="#263238"/>
<path d="M69.5625 144.542C69.5625 144.542 70.8934 150.731 67.2998 151.292L60.2551 152.395L58.3537 140.492C56.2717 127.183 64.21 111.629 87.4736 119.273C87.5117 119.273 91.343 136.927 69.5625 144.542Z" fill="#263238"/>
<path d="M67.2241 150.561C67.0484 149.204 66.5708 147.905 65.8265 146.758C65.437 146.025 64.8411 145.423 64.1128 145.026C63.3845 144.629 62.5557 144.454 61.729 144.524C57.5174 145.104 57.6315 149.23 57.9262 150.656C58.7058 154.392 62.4325 157.957 68.1367 157.168L67.2241 150.561Z" fill="#FFBDC5"/>
<path d="M179.026 359.287C179.026 359.287 190.644 368.366 191.842 370.933C193.04 373.5 189.997 380.744 173.541 378.111C168.939 377.379 162.322 372.682 159.005 368.176C155.687 363.67 148.984 360.57 147.976 358.954C146.522 356.682 147.339 344.751 149.878 344.532C153.994 344.19 179.026 359.287 179.026 359.287Z" fill="#E7142D"/>
<path d="M156.437 271.67C156.437 271.67 163.738 331.783 164.946 340.634C165.507 344.779 176.982 357.157 180.946 361.33C181.109 361.503 181.233 361.709 181.309 361.934C181.385 362.159 181.412 362.398 181.388 362.635C181.363 362.871 181.288 363.099 181.168 363.304C181.047 363.509 180.884 363.685 180.689 363.821L180.347 364.059C178.022 365.664 175.236 366.464 172.414 366.337C169.592 366.21 166.889 365.163 164.718 363.355C161.485 360.684 158.129 357.461 156.437 354.476C154.984 351.673 153.112 349.108 150.885 346.87C150.329 346.359 149.989 345.655 149.934 344.902C149.725 341.965 149.05 334.578 147.367 330.442C145.228 325.194 134.333 304.051 134.333 284.923L156.437 271.67Z" fill="#FFBDC5"/>
<path d="M134.314 284.951L134.39 284.904L139.305 284.353C137.404 297.558 141.112 315.802 141.121 315.849C137.746 307.017 134.314 295.666 134.314 284.951Z" fill="#703838"/>
<path d="M157.37 371.969C157.37 371.969 168.988 381.048 170.186 383.615C171.384 386.182 168.332 393.426 151.885 390.792C147.283 390.06 140.667 385.364 137.349 380.858C134.031 376.351 127.328 373.252 126.311 371.636C124.866 369.364 125.684 357.432 128.212 357.214C132.338 356.871 157.37 371.969 157.37 371.969Z" fill="#E7142D"/>
<path d="M134.77 284.353C134.77 284.353 142.081 344.475 143.327 353.316C143.888 357.461 155.363 369.839 159.327 374.013C159.49 374.186 159.614 374.392 159.69 374.617C159.766 374.842 159.793 375.081 159.769 375.317C159.744 375.553 159.669 375.782 159.549 375.987C159.428 376.191 159.265 376.368 159.07 376.504L158.728 376.741C156.403 378.347 153.617 379.147 150.795 379.02C147.973 378.893 145.27 377.845 143.098 376.038C139.866 373.367 136.51 370.144 134.808 367.158C133.358 364.356 131.489 361.792 129.266 359.553C128.71 359.042 128.37 358.338 128.315 357.585C128.106 354.647 127.431 347.26 125.748 343.125C123.609 337.877 112.714 316.743 112.714 297.605L134.77 284.353Z" fill="#FFBDC5"/>
<path d="M108.38 230.714C108.38 230.714 143.28 249.728 150.43 258.199C157.579 266.669 160.621 286.178 160.621 286.178C148.433 301.902 111.185 303.623 111.185 303.623C108.047 293.365 100.356 291.559 88.368 285.759C76.3796 279.96 62.9843 268.238 60.7977 255.594C59.847 249.813 60.4269 242.978 61.4537 237.046C67.1299 239.958 73.3083 241.765 79.6595 242.369C99.4151 243.815 108.38 230.714 108.38 230.714Z" fill="#263238"/>
<path d="M89.2051 212.917C89.2051 212.917 73.8893 217.043 67.2724 206.081C67.2724 206.081 72.6439 220.37 89.2051 212.917Z" fill="#E7142D"/>
<path opacity="0.2" d="M67.2724 206.081C67.2724 206.081 72.6439 220.342 89.2051 212.917C89.2051 212.917 73.8893 217.043 67.2724 206.081Z" fill="white"/>
<path d="M57.8029 178.15C57.8029 178.15 69.4109 183.227 58.3923 208.82C50.9864 226.028 49.7505 230.686 49.7505 230.686C49.7505 230.686 53.6103 232.587 75.6855 249.035L69.0307 260.072C69.0307 260.072 29.8143 246.087 30.6794 235.211C31.5446 224.335 42.9625 196.337 44.7498 192.335C46.5371 188.332 47.4308 182.704 57.8029 178.15Z" fill="#FFBDC5"/>
<path d="M134.314 208.23C130.512 209.865 122.45 202.802 115.738 193.513C111.788 188.069 108.193 182.375 104.976 176.467C102.23 176.679 99.4776 176.16 96.9978 174.962C94.518 173.765 92.3996 171.932 90.8579 169.651C89.9833 168.377 96.9899 159.82 96.9899 159.82L93.2917 158.166C93.2917 158.166 87.4069 156.56 87.7682 153.945C87.9203 152.823 97.6364 154.848 101.297 155.656C102.192 155.846 103 156.323 103.597 157.016L114.445 169.375C114.445 169.375 125.568 178.882 131.557 184.501C140.751 193.142 142.224 204.827 134.314 208.23Z" fill="#FFBDC5"/>
<path d="M96.9916 160.201C97.0586 160.2 97.1241 160.18 97.1799 160.143C97.2356 160.106 97.2793 160.053 97.3053 159.992C97.3412 159.908 97.3435 159.814 97.3116 159.729C97.2797 159.644 97.2161 159.575 97.1342 159.535L93.436 157.881C91.8483 157.444 87.9409 155.98 88.1026 154.078C88.3307 153.964 89.5951 153.707 96.4402 155.029C96.5297 155.047 96.6226 155.028 96.6983 154.977C96.7741 154.926 96.8266 154.847 96.8442 154.758C96.8619 154.668 96.8433 154.576 96.7925 154.5C96.7416 154.424 96.6628 154.372 96.5733 154.354C88.6635 152.823 87.9409 153.346 87.6747 153.536C87.6078 153.58 87.5511 153.637 87.5084 153.704C87.4657 153.771 87.4382 153.847 87.4276 153.926C87.0378 156.778 92.9511 158.461 93.2078 158.528L96.868 160.163C96.9054 160.185 96.9479 160.198 96.9916 160.201Z" fill="#703838"/>
<path d="M119.94 199.179C120.024 199.178 120.105 199.148 120.169 199.094C120.202 199.063 120.228 199.025 120.246 198.983C120.264 198.942 120.273 198.897 120.273 198.851C120.273 198.806 120.264 198.761 120.246 198.719C120.228 198.677 120.202 198.64 120.169 198.609C118.743 196.964 117.316 195.177 115.986 193.313C112.052 187.89 108.467 182.222 105.252 176.343L105.138 176.125H104.9C102.223 176.326 99.5386 175.825 97.1141 174.67C97.0322 174.63 96.9376 174.624 96.8511 174.653C96.8083 174.668 96.7688 174.691 96.7348 174.72C96.7008 174.75 96.673 174.786 96.653 174.827C96.6331 174.868 96.6213 174.912 96.6183 174.957C96.6154 175.002 96.6214 175.047 96.636 175.09C96.6505 175.133 96.6734 175.172 96.7033 175.206C96.7331 175.24 96.7693 175.268 96.8099 175.288C99.2819 176.469 102.014 177.002 104.748 176.838C107.955 182.669 111.52 188.295 115.425 193.684C116.794 195.586 118.21 197.373 119.655 199.037C119.688 199.082 119.731 199.118 119.78 199.143C119.83 199.168 119.885 199.18 119.94 199.179Z" fill="#703838"/>
<path d="M74.534 249.157C74.534 249.157 80.048 248.14 84.3737 249.062C86.3597 249.457 88.3988 249.505 90.4012 249.205C92.2551 248.958 94.9931 248.501 93.7857 251.363C92.7399 253.854 89.1843 254.443 86.8551 254.672C86.8551 254.672 87.6822 257.619 94.0328 257.438C100.384 257.257 102.123 257.524 101.638 259.549C101.154 261.574 94.9835 268.865 88.5663 268.97C83.7558 269.046 75.152 265.709 69.0295 260.1L74.534 249.157Z" fill="#FFBDC5"/>
<path d="M72.7755 50.262C72.1422 45.034 73.6112 39.7685 76.8595 35.6234C80.1078 31.4783 84.8694 28.7931 90.0973 28.1582C90.392 28.1582 90.6867 28.1107 90.9909 28.0917C90.9083 27.7309 90.8448 27.3659 90.8008 26.9984C90.366 23.4006 91.3775 19.7774 93.613 16.925C95.8485 14.0727 99.1251 12.2247 102.723 11.7872C103.474 11.7036 104.23 11.6813 104.985 11.7206C106.935 8.53798 109.676 5.91421 112.941 4.10453C116.205 2.29485 119.883 1.36086 123.615 1.3934C127.348 1.42594 131.008 2.4239 134.241 4.29023C137.473 6.15655 140.168 8.8277 142.062 12.0439C145.603 11.6054 149.197 12.1303 152.464 13.563C155.731 14.9958 158.552 17.2835 160.628 20.185C162.704 23.0864 163.959 26.4942 164.26 30.0492C164.562 33.6041 163.899 37.1746 162.341 40.3842C165.758 41.3322 168.673 43.5711 170.471 46.6281C172.269 49.6851 172.808 53.321 171.975 56.7682C171.142 60.2154 169.003 63.204 166.008 65.1032C163.013 67.0024 159.397 67.6634 155.924 66.9468C155.566 70.1708 154.386 73.249 152.498 75.8866C150.61 78.5242 148.076 80.6328 145.139 82.0106C142.202 83.3883 138.961 83.989 135.726 83.7551C132.49 83.5212 129.369 82.4606 126.661 80.6749C124.11 83.8785 120.669 86.2563 116.771 87.5093C112.872 88.7622 108.69 88.8344 104.75 87.7166C100.811 86.5989 97.2898 84.3412 94.6301 81.2274C91.9703 78.1137 90.2908 74.283 89.8025 70.2172C89.6989 69.321 89.6513 68.4193 89.66 67.5172C85.3415 66.8939 81.3482 64.8665 78.2967 61.7479C75.2451 58.6293 73.3049 54.593 72.7755 50.262Z" fill="white"/>
<path d="M110.405 89.4214C111.298 89.4241 112.19 89.3701 113.076 89.2597C118.436 88.6205 123.362 85.9949 126.88 81.9013C129.667 83.5715 132.821 84.534 136.066 84.7049C139.31 84.8758 142.548 84.2499 145.495 82.8818C148.442 81.5137 151.01 79.445 152.973 76.8562C154.937 74.2675 156.237 71.2375 156.761 68.0306C158.022 68.2028 159.302 68.2028 160.563 68.0306C163.839 67.6313 166.884 66.1356 169.202 63.7867C171.52 61.4378 172.975 58.3738 173.331 55.0929C173.687 51.8121 172.922 48.5074 171.162 45.7161C169.401 42.9248 166.748 40.8111 163.634 39.7188C165.005 36.4083 165.498 32.7997 165.065 29.2428C164.631 25.6858 163.287 22.3012 161.161 19.4168C159.035 16.5324 156.2 14.2461 152.93 12.7795C149.661 11.3128 146.068 10.7156 142.5 11.0457C140.482 7.84083 137.689 5.19526 134.38 3.35251C131.071 1.50976 127.352 0.529041 123.564 0.500635C119.777 0.472229 116.043 1.39705 112.707 3.18996C109.37 4.98287 106.539 7.58626 104.472 10.7605C102.391 10.7329 100.328 11.1524 98.4228 11.9905C96.5176 12.8286 94.8144 14.0658 93.4283 15.6186C92.0423 17.1714 91.0056 19.0036 90.3884 20.9914C89.7711 22.9791 89.5876 25.0763 89.8504 27.141C89.8504 27.141 89.8504 27.2171 89.8504 27.2551C84.392 27.9488 79.4295 30.773 76.0455 35.1117C72.6615 39.4503 71.1307 44.9512 71.7871 50.4142C72.3304 54.8134 74.2623 58.9249 77.3021 62.151C80.342 65.3772 84.3313 67.5501 88.6905 68.3539C88.7036 69.0245 88.7512 69.6941 88.8331 70.3598C89.4753 75.6202 92.0174 80.4648 95.9812 83.9822C99.9451 87.4996 105.058 89.4474 110.357 89.4594L110.405 89.4214ZM126.69 79.6957C126.546 79.6949 126.403 79.727 126.273 79.7896C126.143 79.8522 126.028 79.9437 125.939 80.057C123.504 83.1108 120.221 85.3773 116.503 86.5719C112.784 87.7665 108.796 87.836 105.038 86.7716C101.28 85.7072 97.9206 83.5564 95.3809 80.5892C92.8413 77.622 91.2347 73.9707 90.7631 70.0936C90.6651 69.2384 90.6207 68.378 90.63 67.5172C90.6322 67.2865 90.5506 67.0629 90.4001 66.888C90.2497 66.7131 90.0408 66.5988 89.8124 66.5665C85.2859 65.906 81.1527 63.6262 78.1793 60.1501C75.2058 56.6739 73.594 52.2374 73.6427 47.6633C73.6915 43.0891 75.3975 38.6879 78.4444 35.276C81.4913 31.864 85.6722 29.6729 90.2117 29.109H90.706H91.0578C91.1924 29.0978 91.323 29.0581 91.441 28.9926C91.559 28.927 91.6617 28.837 91.7423 28.7287C91.8229 28.6212 91.8799 28.4979 91.9094 28.3668C91.9389 28.2357 91.9403 28.0998 91.9134 27.9681C91.8469 27.6354 91.7803 27.2931 91.7423 26.9509C91.3369 23.6015 92.2778 20.2282 94.3581 17.5721C96.4384 14.916 99.488 13.1944 102.837 12.7855C103.537 12.6995 104.243 12.6772 104.948 12.7189C105.116 12.7249 105.284 12.6858 105.432 12.6056C105.581 12.5254 105.706 12.407 105.794 12.2626C107.661 9.22577 110.282 6.72313 113.401 4.99739C116.521 3.27165 120.034 2.38139 123.599 2.41296C127.163 2.44452 130.66 3.39684 133.748 5.17755C136.837 6.95826 139.413 9.50691 141.226 12.5763C141.322 12.7377 141.463 12.8672 141.632 12.9484C141.802 13.0296 141.991 13.0589 142.177 13.0326C145.54 12.6228 148.951 13.1244 152.053 14.4849C155.156 15.8453 157.836 18.0147 159.812 20.7659C161.789 23.5171 162.99 26.749 163.289 30.1234C163.589 33.4978 162.976 36.8907 161.514 39.9469C161.455 40.0734 161.424 40.2113 161.424 40.351C161.424 40.4907 161.455 40.6286 161.514 40.755C161.572 40.8823 161.658 40.9952 161.765 41.0855C161.871 41.1759 161.997 41.2416 162.132 41.2779C164.982 42.0462 167.476 43.7814 169.186 46.1865C170.897 48.5915 171.718 51.5166 171.509 54.4606C171.3 57.4046 170.074 60.1843 168.041 62.3235C166.007 64.4627 163.293 65.8283 160.364 66.1863C158.955 66.3585 157.527 66.2877 156.143 65.9771C156.013 65.9503 155.879 65.9508 155.75 65.9787C155.621 66.0065 155.499 66.061 155.392 66.1387C155.284 66.2163 155.193 66.3155 155.126 66.4302C155.059 66.5448 155.017 66.6722 155.002 66.8042C154.66 69.8662 153.539 72.7895 151.745 75.2943C149.951 77.799 147.544 79.8016 144.755 81.1103C141.966 82.4191 138.888 82.9903 135.815 82.7692C132.741 82.5482 129.777 81.5423 127.203 79.8478C127.05 79.749 126.872 79.6962 126.69 79.6957Z" fill="#E0E0E0"/>
<path d="M127.635 62.7039L118.129 62.6226L118.084 67.8988C118.074 69.0259 118.512 70.1106 119.302 70.9143C120.093 71.718 121.17 72.175 122.297 72.1846L123.323 72.1934C124.45 72.2031 125.535 71.7646 126.339 70.9745C127.143 70.1844 127.6 69.1073 127.609 67.9803L127.654 62.7041L127.635 62.7039Z" fill="#263238"/>
<path d="M122.815 68.2533C118.709 68.2182 115.396 66.3723 115.415 64.1304C115.434 61.8885 118.778 60.0995 122.884 60.1347C126.99 60.1698 130.303 62.0157 130.284 64.2576C130.264 66.4995 126.921 68.2884 122.815 68.2533Z" fill="#37474F"/>
<path d="M122.834 65.8871C118.728 65.852 115.416 64.0061 115.435 61.7642C115.454 59.5223 118.798 57.7333 122.904 57.7685C127.009 57.8036 130.322 59.6495 130.303 61.8914C130.284 64.1333 126.94 65.9222 122.834 65.8871Z" fill="#455A64"/>
<path d="M107.219 40.9547C107.242 38.2131 107.976 35.5243 109.35 33.1517C110.724 30.7791 112.69 28.804 115.057 27.4199C117.424 26.0359 120.109 25.2902 122.851 25.2561C125.592 25.222 128.296 25.9005 130.696 27.2253C133.097 28.55 135.112 30.4755 136.544 32.8132C137.977 35.1509 138.778 37.8205 138.868 40.5608C138.959 43.301 138.336 46.0178 137.061 48.445C135.786 50.8722 133.903 52.9267 131.595 54.4071C130.741 54.9373 130.033 55.6723 129.535 56.5456C129.037 57.4189 128.764 58.4027 128.743 59.4078C128.746 59.9233 128.646 60.4343 128.45 60.9111C128.254 61.388 127.966 61.8214 127.602 62.1864C127.238 62.5514 126.805 62.8407 126.329 63.0377C125.852 63.2347 125.342 63.3355 124.826 63.3342H122.858H120.89C120.377 63.3305 119.87 63.2257 119.397 63.0259C118.924 62.8261 118.496 62.5351 118.136 62.1696C117.775 61.8041 117.491 61.3713 117.298 60.8958C117.105 60.4203 117.008 59.9114 117.011 59.3983V59.2272C117.002 58.2783 116.757 57.3467 116.297 56.5167C115.837 55.6867 115.178 54.9845 114.378 54.4737C112.139 53.0094 110.308 51.0013 109.056 48.637C107.804 46.2728 107.172 43.6296 107.219 40.9547Z" fill="#E7142D"/>
<path d="M122.06 63.3342C122.06 63.2771 122.175 61.8606 122.175 49.3113C122.175 48.4557 122.175 47.6381 122.127 46.868C122.517 46.868 122.935 46.9251 123.372 46.9251C123.81 46.9251 124.028 46.9251 124.323 46.9251C124.123 48.2659 124.018 49.6193 124.009 50.9751L123.905 63.3342H124.589L124.694 50.9751C124.694 49.5962 124.805 48.2195 125.027 46.8585C128.734 46.4402 130.465 44.5103 130.474 42.685C130.502 42.4163 130.473 42.1447 130.391 41.8875C130.309 41.6302 130.174 41.3928 129.995 41.1901C129.817 40.9874 129.598 40.8239 129.353 40.7097C129.109 40.5956 128.843 40.5333 128.573 40.5269C126.614 40.5269 125.131 42.6565 124.447 46.2311C124.104 46.2311 123.743 46.2311 123.372 46.2311C123.002 46.2311 122.488 46.2311 122.079 46.1645C121.804 41.411 120.806 38.5589 119.123 37.8934C118.652 37.7326 118.144 37.7154 117.663 37.8441C117.182 37.9728 116.75 38.2414 116.423 38.616C115.954 39.2431 115.666 39.9863 115.589 40.7655C115.511 41.5446 115.649 42.3299 115.985 43.0367C116.499 44.2631 117.887 46.2121 121.442 46.7635C121.442 47.5335 121.49 48.3797 121.49 49.2923C121.49 61.718 121.376 63.2011 121.376 63.2581L122.06 63.3342ZM128.582 41.1924C128.761 41.2024 128.936 41.2495 129.096 41.3307C129.255 41.4118 129.396 41.5253 129.51 41.6638C129.623 41.8024 129.707 41.963 129.755 42.1355C129.803 42.308 129.815 42.4886 129.79 42.666C129.79 44.1586 128.307 45.7462 125.15 46.155C125.806 43.0462 127.042 41.1448 128.582 41.1448V41.1924ZM118.343 38.4353C118.525 38.4346 118.705 38.4668 118.876 38.5304C119.722 38.8822 121.053 40.3558 121.414 46.136C118.258 45.6131 117.069 43.9209 116.66 42.8466C116.376 42.2618 116.253 41.6119 116.303 40.9635C116.353 40.3152 116.575 39.692 116.946 39.1579C117.294 38.7298 117.795 38.4537 118.343 38.3878V38.4353Z" fill="#263238"/>
<path opacity="0.4" d="M113.446 33.5112C114.026 34.5379 115.823 34.6235 117.448 33.6918C119.074 32.7601 119.939 31.1915 119.35 30.1647C118.76 29.1379 116.973 29.0619 115.347 29.9936C113.722 30.9253 112.866 32.4939 113.446 33.5112Z" fill="white"/>
<path opacity="0.4" d="M109.93 37.6656C109.683 38.7684 110.111 39.7951 110.881 39.9662C111.651 40.1374 112.478 39.3768 112.716 38.2835C112.953 37.1902 112.525 36.1539 111.765 35.9828C111.004 35.8117 110.177 36.5818 109.93 37.6656Z" fill="white"/>
<path d="M123.742 22.3683C123.916 22.3685 124.083 22.3013 124.209 22.1808C124.335 22.0603 124.409 21.8959 124.417 21.7219L124.683 14.3159C124.687 14.2272 124.673 14.1387 124.643 14.0553C124.612 13.972 124.566 13.8954 124.506 13.8301C124.446 13.7647 124.373 13.7119 124.293 13.6745C124.212 13.6372 124.125 13.6161 124.036 13.6124C123.857 13.6097 123.684 13.6764 123.553 13.7987C123.422 13.921 123.343 14.0893 123.333 14.2684L123.067 21.6743C123.063 21.7625 123.077 21.8506 123.107 21.9334C123.138 22.0162 123.185 22.0921 123.245 22.1567C123.305 22.2213 123.377 22.2733 123.458 22.3096C123.538 22.3459 123.625 22.3659 123.713 22.3683H123.742Z" fill="#E7142D"/>
<path d="M139.543 30.2118C139.656 30.2138 139.767 30.1876 139.867 30.1358L146.398 26.6562C146.557 26.5717 146.676 26.4276 146.728 26.2556C146.781 26.0835 146.763 25.8976 146.678 25.7388C146.594 25.5799 146.45 25.4611 146.278 25.4085C146.106 25.3559 145.92 25.3739 145.761 25.4583L139.23 28.9474C139.092 29.0138 138.981 29.1256 138.916 29.2639C138.851 29.4022 138.836 29.5587 138.873 29.707C138.91 29.8554 138.996 29.9865 139.119 30.0784C139.241 30.1704 139.391 30.2175 139.543 30.2118Z" fill="#E7142D"/>
<path d="M108.571 29.1089C108.685 29.1118 108.798 29.0842 108.898 29.0291C108.998 28.974 109.082 28.8933 109.141 28.7952C109.191 28.719 109.225 28.6335 109.241 28.5438C109.257 28.454 109.255 28.362 109.235 28.2731C109.214 28.1843 109.176 28.1005 109.122 28.0268C109.069 27.9532 109.001 27.8911 108.922 27.8445L102.629 23.9371C102.553 23.887 102.467 23.8529 102.377 23.8368C102.288 23.8207 102.196 23.8229 102.107 23.8433C102.018 23.8638 101.934 23.902 101.86 23.9557C101.787 24.0094 101.725 24.0775 101.678 24.1558C101.629 24.2324 101.596 24.3179 101.581 24.4073C101.565 24.4968 101.568 24.5884 101.588 24.6769C101.609 24.7654 101.646 24.8489 101.699 24.9227C101.752 24.9964 101.819 25.0589 101.897 25.1065L108.19 29.0139C108.306 29.0804 108.437 29.1134 108.571 29.1089Z" fill="#E7142D"/>
<path d="M83.2909 82.101C83.536 84.0972 84.3679 85.9758 85.6812 87.4989C86.9946 89.022 88.7303 90.1212 90.6687 90.6574C92.607 91.1935 94.6609 91.1425 96.5703 90.5108C98.4796 89.8791 100.159 88.6951 101.395 87.1086C102.631 85.5222 103.369 83.6047 103.514 81.5988C103.66 79.593 103.207 77.5889 102.214 75.8405C101.22 74.092 99.7297 72.6776 97.9318 71.7765C96.1338 70.8754 94.1089 70.528 92.1133 70.7782C89.4434 71.1131 87.0152 72.4931 85.3613 74.6157C83.7074 76.7384 82.9628 79.4302 83.2909 82.101Z" fill="white"/>
<path d="M93.3588 91.988C94.9366 91.9906 96.4969 91.6574 97.9361 91.0107C99.3753 90.364 100.66 89.4185 101.706 88.237C102.752 87.0555 103.534 85.665 104.001 84.1579C104.468 82.6509 104.61 81.0617 104.415 79.4958C103.989 76.6283 102.459 74.0406 100.153 72.2841C97.8466 70.5275 94.9455 69.7408 92.0677 70.0915C89.1899 70.4423 86.5627 71.9027 84.7457 74.1619C82.9288 76.421 82.0657 79.3002 82.3402 82.1863C82.6694 84.8787 83.971 87.358 86.0002 89.1578C88.0294 90.9577 90.6464 91.9541 93.3588 91.9595V91.988ZM93.3588 71.6526C95.6079 71.6547 97.7786 72.4795 99.4615 73.9716C101.144 75.4637 102.223 77.5199 102.495 79.7525C102.642 80.9536 102.55 82.1717 102.226 83.3375C101.902 84.5032 101.352 85.5937 100.606 86.5467C99.8607 87.4997 98.9347 88.2965 97.8813 88.8917C96.8278 89.4868 95.6674 89.8686 94.4664 90.0153C93.2653 90.162 92.0471 90.0707 90.8814 89.7466C89.7157 89.4225 88.6252 88.872 87.6722 88.1265C86.7192 87.381 85.9224 86.455 85.3272 85.4016C84.7321 84.3481 84.3503 83.1877 84.2036 81.9867C83.9109 79.5615 84.5924 77.1193 86.0986 75.1961C87.6047 73.2729 89.8124 72.0258 92.237 71.7286C92.6184 71.6787 93.0026 71.6533 93.3873 71.6526H93.3588Z" fill="#E0E0E0"/>
<path d="M78.4138 103.872C76.1981 103.872 74.4019 102.075 74.4019 99.8596C74.4019 97.6439 76.1981 95.8477 78.4138 95.8477C80.6296 95.8477 82.4258 97.6439 82.4258 99.8596C82.4258 102.075 80.6296 103.872 78.4138 103.872Z" fill="white"/>
<path d="M78.4124 104.823C79.3939 104.823 80.3534 104.532 81.1695 103.986C81.9856 103.441 82.6216 102.666 82.9973 101.759C83.3729 100.852 83.4711 99.8546 83.2796 98.8919C83.0882 97.9293 82.6155 97.045 81.9215 96.351C81.2274 95.657 80.3432 95.1843 79.3805 94.9928C78.4179 94.8013 77.4201 94.8996 76.5132 95.2752C75.6064 95.6508 74.8314 96.2869 74.2861 97.103C73.7408 97.9191 73.4497 98.8786 73.4497 99.8601C73.4497 100.512 73.5781 101.157 73.8274 101.759C74.0768 102.361 74.4424 102.908 74.9032 103.369C75.364 103.83 75.9111 104.196 76.5132 104.445C77.1153 104.694 77.7606 104.823 78.4124 104.823ZM78.4124 96.8084C79.0182 96.8084 79.6105 96.9882 80.1141 97.325C80.6177 97.6617 81.0101 98.1404 81.2415 98.7003C81.4729 99.2603 81.533 99.8763 81.4141 100.47C81.2952 101.064 81.0027 101.61 80.5736 102.038C80.1445 102.465 79.5982 102.756 79.0037 102.873C78.4093 102.99 77.7934 102.928 77.2342 102.695C76.675 102.462 76.1976 102.068 75.8624 101.563C75.5272 101.059 75.3492 100.466 75.3511 99.8601C75.3511 99.4585 75.4303 99.0609 75.5843 98.6901C75.7383 98.3192 75.9639 97.9823 76.2483 97.6988C76.5327 97.4153 76.8702 97.1907 77.2416 97.0379C77.6129 96.8851 78.0108 96.8071 78.4124 96.8084Z" fill="#E0E0E0"/>
</svg>
