<svg width="420" height="421" viewBox="0 0 420 421" fill="none" xmlns="http://www.w3.org/2000/svg">
<path d="M61.5101 387.829C143.519 431.06 276.485 431.06 358.493 387.829C440.502 344.597 440.502 274.467 358.493 231.226C276.485 187.985 143.519 187.994 61.5101 231.226C-20.4987 274.458 -20.5081 344.587 61.5101 387.829Z" fill="#F5F5F5"/>
<path d="M131.491 312.831L133.953 309.899L59.3594 266.827L54.3032 269.741L80.7967 285.041L55.3558 299.73L28.6367 284.298L23.5898 287.221L99.9409 331.299L100.74 330.34L101.144 330.566L130.429 313.696L130.664 313.828L131.087 313.311L131.716 312.954L131.491 312.831Z" fill="#E0E0E0"/>
<path d="M313.723 355.809C336.675 355.809 355.282 346.943 355.282 336.007C355.282 325.071 336.675 316.205 313.723 316.205C290.771 316.205 272.164 325.071 272.164 336.007C272.164 346.943 290.771 355.809 313.723 355.809Z" fill="#E0E0E0"/>
<path d="M188.18 396.626C211.132 396.626 229.739 387.76 229.739 376.824C229.739 365.887 211.132 357.021 188.18 357.021C165.228 357.021 146.621 365.887 146.621 376.824C146.621 387.76 165.228 396.626 188.18 396.626Z" fill="#E0E0E0"/>
<path d="M346.86 360.743C354.924 365.443 367.997 365.443 376.06 360.743C384.124 356.044 384.124 348.526 376.06 343.883C367.997 339.24 354.924 339.231 346.86 343.883C338.797 348.535 338.797 356.091 346.86 360.743Z" fill="#E0E0E0"/>
<path d="M62.2533 369.174C73.6568 369.174 82.9012 363.838 82.9012 357.257C82.9012 350.675 73.6568 345.34 62.2533 345.34C50.8498 345.34 41.6055 350.675 41.6055 357.257C41.6055 363.838 50.8498 369.174 62.2533 369.174Z" fill="#E0E0E0"/>
<path d="M100.938 155.11L59.0969 269.082C58.9592 269.427 58.6978 269.709 58.3638 269.872C57.7729 270.173 57.1192 270.33 56.456 270.33C55.7928 270.33 55.139 270.173 54.5481 269.872C54.3571 269.782 54.1882 269.651 54.0534 269.489C53.9186 269.326 53.8212 269.136 53.7681 268.932C53.7492 268.829 53.7492 268.724 53.7681 268.622C53.778 268.355 53.8287 268.092 53.9185 267.841L95.9002 153.249C96.0177 152.908 96.2021 152.594 96.4427 152.325C96.6833 152.057 96.9751 151.839 97.3011 151.684C97.6271 151.53 97.9807 151.442 98.341 151.426C98.7014 151.411 99.0612 151.467 99.3995 151.592C99.7377 151.718 100.048 151.909 100.311 152.156C100.574 152.403 100.785 152.699 100.932 153.029C101.079 153.358 101.158 153.714 101.166 154.074C101.173 154.435 101.108 154.794 100.975 155.129L100.938 155.11Z" fill="#37474F"/>
<path d="M45 233.529L86.9912 257.777" stroke="#37474F" stroke-width="6" stroke-miterlimit="10"/>
<path d="M75.5312 215.897L117.532 240.145" stroke="#37474F" stroke-width="6" stroke-miterlimit="10"/>
<path d="M66.8008 147.281L89.1967 134.349C90.0221 133.815 90.9679 133.494 91.9483 133.418C92.9288 133.341 93.9129 133.509 94.8116 133.909C95.7103 134.308 96.4952 134.926 97.0951 135.705C97.695 136.484 98.091 137.401 98.2472 138.372L135.426 312.314C135.456 312.431 135.472 312.551 135.473 312.671C135.488 312.796 135.488 312.922 135.473 313.047C135.42 313.251 135.322 313.441 135.187 313.603C135.053 313.766 134.884 313.896 134.693 313.987C134.103 314.288 133.449 314.445 132.786 314.445C132.122 314.445 131.469 314.288 130.878 313.987C130.544 313.812 130.281 313.526 130.135 313.179C130.132 313.125 130.132 313.072 130.135 313.019L92.9654 139.5C92.9398 139.243 92.815 139.007 92.6177 138.842C92.4921 138.823 92.364 138.83 92.2413 138.863C92.1185 138.895 92.0036 138.952 91.9034 139.03L69.4981 151.962" fill="#455A64"/>
<path d="M103.353 313.488L89.7161 305.613C89.4782 305.459 89.2802 305.251 89.1381 305.006C88.9959 304.761 88.9138 304.486 88.8984 304.203V303.884C88.9123 303.6 88.9938 303.325 89.136 303.079C89.2783 302.834 89.4772 302.626 89.7161 302.474L122.441 283.574C122.694 283.444 122.974 283.377 123.258 283.377C123.543 283.377 123.823 283.444 124.076 283.574L137.713 291.45C137.95 291.604 138.148 291.812 138.29 292.057C138.432 292.302 138.514 292.577 138.53 292.859V293.188C138.514 293.471 138.432 293.746 138.29 293.991C138.148 294.236 137.95 294.444 137.713 294.598L104.988 313.488C104.735 313.618 104.455 313.686 104.171 313.686C103.886 313.686 103.606 313.618 103.353 313.488Z" fill="#E7142D"/>
<path opacity="0.1" d="M89.1428 303.095C88.9924 303.338 88.9082 303.617 88.8984 303.903V304.223C88.9138 304.505 88.9959 304.78 89.1381 305.026C89.2802 305.271 89.4782 305.478 89.7161 305.632L103.353 313.489C103.604 313.624 103.886 313.691 104.171 313.687V311.76L89.1428 303.095Z" fill="black"/>
<path opacity="0.15" d="M104.168 311.779V313.705C104.453 313.71 104.734 313.642 104.986 313.508L121.348 304.11L137.71 294.664C137.947 294.51 138.145 294.302 138.287 294.057C138.429 293.812 138.512 293.537 138.528 293.255V292.926C138.518 292.643 138.434 292.367 138.283 292.127L104.168 311.779Z" fill="black"/>
<path d="M97.4388 285.849L83.7926 277.973C83.5581 277.817 83.363 277.608 83.2228 277.363C83.0825 277.119 83.0009 276.845 82.9844 276.563V276.234C83.0009 275.953 83.0825 275.679 83.2228 275.434C83.363 275.19 83.5581 274.981 83.7926 274.825L116.527 255.934C116.778 255.805 117.057 255.737 117.34 255.737C117.622 255.737 117.901 255.805 118.152 255.934L131.799 263.81C132.035 263.965 132.231 264.173 132.371 264.418C132.512 264.663 132.593 264.938 132.607 265.22V265.558C132.595 265.841 132.515 266.116 132.374 266.361C132.234 266.607 132.036 266.815 131.799 266.968L99.0553 285.849C98.8051 285.977 98.5281 286.043 98.2471 286.043C97.9661 286.043 97.689 285.977 97.4388 285.849Z" fill="#E7142D"/>
<path opacity="0.1" d="M83.2193 275.436C83.073 275.677 82.992 275.952 82.9844 276.234V276.563C83.0009 276.845 83.0825 277.119 83.2228 277.363C83.363 277.608 83.5581 277.817 83.7926 277.973L97.4388 285.849C97.6896 285.984 97.9714 286.052 98.2565 286.046V284.119L83.2193 275.436Z" fill="black"/>
<path opacity="0.15" d="M98.2578 284.119V286.046C98.5397 286.051 98.8182 285.983 99.0661 285.849L115.438 276.45L131.8 266.996C132.038 266.843 132.235 266.635 132.376 266.389C132.516 266.144 132.596 265.869 132.608 265.586V265.267C132.602 264.984 132.521 264.709 132.373 264.468L98.2578 284.119Z" fill="black"/>
<path d="M91.5381 258.19L77.8919 250.314C77.6545 250.159 77.4569 249.951 77.3148 249.707C77.1728 249.462 77.0904 249.187 77.0742 248.904V248.575C77.0904 248.293 77.1728 248.018 77.3148 247.773C77.4569 247.528 77.6545 247.32 77.8919 247.165L110.626 228.275C110.877 228.146 111.156 228.078 111.439 228.078C111.722 228.078 112 228.146 112.252 228.275L125.889 236.151C126.126 236.305 126.324 236.512 126.467 236.757C126.609 237.003 126.691 237.278 126.706 237.56V237.88C126.692 238.163 126.611 238.439 126.469 238.684C126.326 238.929 126.127 239.137 125.889 239.29L93.164 258.19C92.9125 258.319 92.6338 258.387 92.351 258.387C92.0682 258.387 91.7895 258.319 91.5381 258.19Z" fill="#E7142D"/>
<path opacity="0.1" d="M77.3108 247.776C77.1619 248.017 77.0777 248.292 77.0664 248.575V248.904C77.0826 249.187 77.165 249.462 77.307 249.707C77.4491 249.952 77.6467 250.16 77.8841 250.314L84.7072 254.252L91.5302 258.19C91.7777 258.325 92.0564 258.393 92.3385 258.387V256.451L77.3108 247.776Z" fill="black"/>
<path opacity="0.15" d="M92.3359 256.451V258.387C92.621 258.393 92.9028 258.325 93.1536 258.189L109.516 248.744L125.878 239.289C126.117 239.137 126.316 238.929 126.458 238.684C126.6 238.439 126.682 238.163 126.696 237.88V237.56C126.684 237.276 126.603 236.999 126.461 236.752L92.3359 256.451Z" fill="black"/>
<path d="M85.6068 230.53L71.97 222.655C71.7327 222.5 71.535 222.292 71.393 222.047C71.2509 221.802 71.1685 221.528 71.1523 221.245V220.916C71.1685 220.633 71.2509 220.358 71.393 220.114C71.535 219.869 71.7327 219.661 71.97 219.506L104.695 200.616C104.946 200.486 105.225 200.419 105.507 200.419C105.79 200.419 106.069 200.486 106.32 200.616L119.967 208.492C120.206 208.644 120.404 208.852 120.547 209.097C120.689 209.342 120.77 209.618 120.784 209.901V210.221C120.769 210.504 120.687 210.779 120.545 211.024C120.403 211.269 120.204 211.477 119.967 211.631L87.2327 230.53C86.9806 230.658 86.7021 230.724 86.4197 230.724C86.1373 230.724 85.8589 230.658 85.6068 230.53Z" fill="#E7142D"/>
<path opacity="0.15" d="M86.4258 228.792V230.728C86.7077 230.733 86.9861 230.665 87.234 230.531L103.606 221.086L119.968 211.631C120.206 211.477 120.404 211.27 120.546 211.025C120.688 210.78 120.77 210.504 120.786 210.222V209.902C120.776 209.616 120.692 209.337 120.541 209.094L86.4258 228.792Z" fill="black"/>
<path opacity="0.1" d="M71.3873 220.117C71.2451 220.36 71.1644 220.635 71.1523 220.916V221.245C71.1685 221.528 71.2509 221.802 71.393 222.047C71.535 222.292 71.7327 222.5 71.97 222.655L85.6068 230.53C85.8576 230.666 86.1394 230.734 86.4244 230.728V228.792L71.3873 220.117Z" fill="black"/>
<path d="M79.6971 202.871L57.0192 189.78C56.7831 189.625 56.5868 189.416 56.4464 189.172C56.306 188.927 56.2253 188.652 56.2109 188.37V188.05C56.226 187.769 56.307 187.494 56.4474 187.249C56.5878 187.005 56.7836 186.796 57.0192 186.641L89.7531 167.741C90.0046 167.611 90.2833 167.544 90.5661 167.544C90.8489 167.544 91.1276 167.611 91.379 167.741L114.094 180.833C114.331 180.987 114.527 181.196 114.667 181.441C114.808 181.686 114.888 181.96 114.903 182.242V182.562C114.886 182.843 114.805 183.117 114.664 183.362C114.524 183.606 114.329 183.815 114.094 183.972L81.3229 202.871C81.0692 202.993 80.7914 203.056 80.51 203.056C80.2286 203.056 79.9508 202.993 79.6971 202.871Z" fill="#E7142D"/>
<path opacity="0.15" d="M80.5039 201.133V203.06C80.7881 203.069 81.0698 203.004 81.3215 202.872L97.6838 193.417L114.093 183.972C114.328 183.816 114.523 183.607 114.663 183.362C114.803 183.118 114.885 182.844 114.901 182.562V182.233C114.894 181.951 114.813 181.676 114.666 181.435L80.5039 201.133Z" fill="black"/>
<path opacity="0.1" d="M56.4459 187.243C56.3036 187.49 56.223 187.767 56.2109 188.051V188.371C56.2253 188.653 56.306 188.928 56.4464 189.173C56.5868 189.417 56.7831 189.626 57.0192 189.781L79.6971 202.872C79.9457 203.004 80.2242 203.069 80.5053 203.06V201.134L56.4459 187.243Z" fill="black"/>
<path d="M70.4393 172.741L28.5703 286.581L28.4763 286.835C28.3154 287.112 28.0813 287.34 27.7997 287.493C27.2059 287.79 26.5511 287.944 25.8871 287.944C25.2232 287.944 24.5684 287.79 23.9746 287.493C23.7854 287.401 23.618 287.269 23.4835 287.107C23.349 286.945 23.2505 286.756 23.1945 286.553C23.1852 286.45 23.1852 286.346 23.1945 286.243C23.2059 285.973 23.2598 285.707 23.3543 285.454L65.3643 170.88C65.4818 170.539 65.6662 170.225 65.9067 169.956C66.1473 169.687 66.4392 169.469 66.7652 169.315C67.0912 169.161 67.4447 169.073 67.8051 169.057C68.1654 169.042 68.5253 169.098 68.8635 169.223C69.2018 169.348 69.5116 169.54 69.7747 169.787C70.0378 170.033 70.249 170.33 70.3958 170.66C70.5426 170.989 70.6221 171.345 70.6296 171.705C70.637 172.066 70.5724 172.424 70.4393 172.76V172.741Z" fill="#37474F"/>
<path d="M69.4978 151.962C68.8517 152.401 68.3412 153.012 68.024 153.726C67.7069 154.44 67.5956 155.229 67.7028 156.003L104.891 329.935C104.929 330.073 104.948 330.216 104.948 330.358C104.957 330.458 104.957 330.559 104.948 330.659C104.893 330.863 104.795 331.052 104.66 331.214C104.526 331.376 104.358 331.508 104.168 331.599C103.577 331.9 102.923 332.057 102.26 332.057C101.597 332.057 100.943 331.9 100.352 331.599C100.025 331.428 99.7638 331.154 99.6097 330.819L99.5627 330.593L62.4022 157.14C62.0664 155.247 62.3039 153.298 63.0843 151.541C63.8647 149.784 65.1522 148.301 66.7817 147.281" fill="#455A64"/>
<path d="M79.8742 327.643L45.3828 327.173L45.082 355.367C45.082 357.924 46.7173 360.489 50.0631 362.473C56.7546 366.429 67.6753 366.551 74.4514 362.736C77.8724 360.809 79.5828 358.253 79.5828 355.678L79.8742 327.643Z" fill="#37474F"/>
<path d="M50.5165 320.19C43.7404 324.006 43.6746 330.312 50.3661 334.287C57.0577 338.263 67.9784 338.366 74.8015 334.551C81.6246 330.735 81.6434 324.429 74.9518 320.453C68.2603 316.478 57.2926 316.374 50.5165 320.19Z" fill="#455A64"/>
<path d="M78.3795 327.53C78.3722 327.989 78.2897 328.443 78.1351 328.874C77.6088 330.491 76.1991 331.995 73.9999 333.235C70.4516 335.053 66.5004 335.942 62.5153 335.82C58.5343 335.865 54.6075 334.894 51.1059 333C49.2912 332.082 47.8718 330.535 47.1116 328.649C46.947 328.184 46.8643 327.694 46.8673 327.201C46.8673 325.096 48.4462 323.066 51.2374 321.516C54.771 319.675 58.7214 318.781 62.7032 318.922C66.6918 318.863 70.628 319.834 74.1315 321.741C76.9133 323.376 78.3795 325.425 78.3795 327.53Z" fill="#263238"/>
<path d="M78.1563 328.874C77.63 330.491 76.2203 331.995 74.0211 333.235C70.4728 335.053 66.5216 335.943 62.5365 335.82C58.5555 335.865 54.6287 334.894 51.1271 333C49.3124 332.082 47.893 330.535 47.1328 328.649C47.9149 326.735 49.3875 325.186 51.2586 324.307C54.7946 322.471 58.7426 321.575 62.7244 321.703C66.7119 321.654 70.6458 322.624 74.1527 324.523C75.9672 325.445 77.3887 326.989 78.1563 328.874Z" fill="#E7142D"/>
<path d="M69.9856 338.198C70.7375 337.765 71.3484 338.132 71.339 338.996C71.3037 339.471 71.1567 339.93 70.9101 340.337C70.6634 340.743 70.3241 341.086 69.9199 341.337C69.1586 341.769 68.5571 341.402 68.5665 340.538C68.6003 340.063 68.7467 339.603 68.9935 339.196C69.2402 338.789 69.5803 338.447 69.9856 338.198Z" fill="#263238"/>
<path d="M45.327 332.126C43.4473 335.885 39.6881 344.757 44.5563 348.375C44.7631 348.525 44.9511 348.657 45.1578 348.789V350.593C44.6691 350.292 44.1616 349.954 43.6729 349.597C36.3517 344.174 44.6127 330.246 44.9699 329.663C45.0609 329.507 45.2092 329.392 45.3834 329.344L45.327 332.126Z" fill="#E0E0E0"/>
<path d="M70.6286 340.124C70.4218 340.556 65.093 350.744 56.3245 352.793C55.3368 353.032 54.3239 353.152 53.3077 353.15C50.397 353.095 47.5628 352.208 45.1406 350.593V348.789C48.7589 351.308 52.4054 352.172 55.9674 351.345C64.0592 349.466 69.2376 339.522 69.2752 339.428C69.3208 339.341 69.3833 339.263 69.459 339.199C69.5347 339.136 69.6222 339.088 69.7165 339.058C69.8107 339.028 69.9099 339.018 70.0084 339.026C70.1068 339.035 70.2026 339.063 70.2902 339.109C70.3813 339.151 70.4629 339.211 70.5298 339.286C70.5967 339.36 70.6476 339.448 70.6794 339.543C70.7111 339.638 70.7229 339.739 70.7142 339.839C70.7055 339.939 70.6763 340.036 70.6286 340.124Z" fill="#E0E0E0"/>
<path d="M142.222 241.17L138.651 239.112C138.06 238.724 137.569 238.204 137.216 237.591C136.864 236.979 136.66 236.293 136.621 235.587V72.7823C136.658 72.0766 136.862 71.3896 137.214 70.7772C137.567 70.1649 138.059 69.6443 138.651 69.258L256.749 1.07396C257.38 0.754409 258.077 0.587891 258.784 0.587891C259.491 0.587891 260.188 0.754409 260.818 1.07396L264.38 3.13217C264.974 3.51749 265.468 4.03756 265.822 4.65C266.177 5.26244 266.381 5.94994 266.42 6.6565V169.471C266.381 170.178 266.177 170.865 265.822 171.478C265.468 172.09 264.974 172.61 264.38 172.995L146.292 241.17C145.661 241.49 144.964 241.656 144.257 241.656C143.55 241.656 142.853 241.49 142.222 241.17Z" fill="#E7142D"/>
<path opacity="0.4" d="M266.393 6.31779C266.252 5.26519 265.397 4.87987 264.382 5.47195L146.284 73.6559C145.685 74.0355 145.191 74.5589 144.846 75.1785L137.215 70.7707C137.557 70.149 138.052 69.6249 138.653 69.2482L256.741 1.06419C257.372 0.744643 258.069 0.578125 258.776 0.578125C259.483 0.578125 260.18 0.744643 260.811 1.06419L264.382 3.1224C264.926 3.48042 265.387 3.95086 265.734 4.50206C266.081 5.05326 266.306 5.6724 266.393 6.31779Z" fill="white"/>
<path opacity="0.1" d="M145.814 241.376C145.232 241.591 144.612 241.684 143.993 241.648C143.373 241.612 142.768 241.45 142.215 241.169L138.653 239.111C138.059 238.726 137.565 238.206 137.211 237.593C136.856 236.981 136.652 236.293 136.613 235.587V72.7723C136.641 72.0649 136.848 71.3761 137.215 70.7705L144.846 75.1783C144.482 75.7844 144.278 76.4734 144.254 77.1801V239.995C144.254 241.122 144.921 241.649 145.814 241.376Z" fill="black"/>
<path d="M275.643 134.471C275.492 134.403 275.325 134.375 275.16 134.392C274.995 134.408 274.837 134.468 274.703 134.565L269.91 137.742C269.603 137.932 269.233 137.993 268.881 137.912C268.529 137.831 268.224 137.614 268.03 137.309C267.743 136.91 267.429 136.53 267.09 136.172C266.81 135.877 266.611 135.514 266.514 135.118C266.416 134.723 266.424 134.308 266.536 133.917L274.055 129.124L268.416 125.872C268.3 125.807 268.177 125.756 268.049 125.721L264.459 124.923C264.065 124.853 263.659 124.905 263.296 125.073C262.933 125.242 262.631 125.517 262.429 125.862L259.064 132.281C258.602 133.031 257.873 133.578 257.025 133.813L256.818 133.879C256.963 133.391 257.064 132.891 257.119 132.385L251.48 129.114C251.302 129.019 251.097 128.985 250.898 129.015C250.698 129.046 250.513 129.14 250.371 129.283L245.005 133.503C244.681 133.787 244.422 134.137 244.246 134.529C244.069 134.922 243.978 135.347 243.98 135.778L244.3 140.89C244.299 141.783 244.005 142.651 243.463 143.362C242.589 144.415 241.753 145.514 240.973 146.661C240.716 146.997 240.387 147.272 240.009 147.464C239.632 147.656 239.216 147.76 238.792 147.77L235.334 147.601C234.924 147.601 234.522 147.715 234.173 147.929C233.823 148.143 233.539 148.448 233.351 148.813L230.109 156.087C229.969 156.396 229.949 156.745 230.051 157.067C230.153 157.39 230.371 157.664 230.663 157.835L234.488 160.044C234.615 160.357 234.644 160.701 234.573 161.031C234.314 162.178 234.116 163.339 233.981 164.508C233.84 165.394 233.434 166.217 232.815 166.867L228.06 171.237C227.761 171.543 227.535 171.912 227.397 172.317C227.259 172.722 227.212 173.152 227.261 173.577L228.154 178.765C228.167 178.908 228.213 179.045 228.288 179.167C228.363 179.29 228.465 179.393 228.586 179.47L234.225 182.74L234.3 176.246C234.607 176.057 234.977 175.996 235.329 176.076C235.681 176.157 235.986 176.374 236.18 176.679C236.464 177.08 236.779 177.461 237.12 177.816C237.4 178.111 237.599 178.474 237.697 178.87C237.796 179.265 237.791 179.679 237.683 180.071L235.334 186.612C235.227 186.872 235.216 187.16 235.302 187.427C235.388 187.694 235.566 187.921 235.804 188.069L241.443 191.34L242.984 187.111L245.174 181.678C245.633 180.93 246.358 180.382 247.204 180.146C247.955 179.949 248.692 179.704 249.412 179.413C249.573 179.339 249.748 179.3 249.925 179.3C250.103 179.299 250.278 179.338 250.439 179.412C250.6 179.486 250.743 179.595 250.857 179.729C250.972 179.864 251.057 180.023 251.104 180.193L252.316 184.207C252.385 184.467 252.55 184.692 252.777 184.836L258.463 188.107L257.467 181.829L259.205 180.457C259.529 180.173 259.787 179.823 259.962 179.431C260.137 179.038 260.225 178.612 260.22 178.182L259.901 173.07C259.9 172.176 260.194 171.307 260.737 170.598C261.621 169.545 262.946 168.981 263.726 167.844C264.168 167.196 264.666 166.153 265.418 166.19L268.867 166.359C269.277 166.359 269.679 166.246 270.029 166.032C270.379 165.818 270.663 165.512 270.85 165.147L274.102 157.863C274.176 157.696 274.216 157.515 274.22 157.332C274.224 157.148 274.191 156.966 274.124 156.795C274.056 156.625 273.956 156.469 273.828 156.338C273.7 156.207 273.547 156.102 273.378 156.031L270.558 154.837C270.217 154.671 269.94 154.396 269.77 154.056C269.6 153.717 269.547 153.331 269.619 152.957C269.88 151.81 270.081 150.649 270.22 149.48C270.353 148.593 270.756 147.769 271.376 147.121L276.141 142.751C276.572 142.309 276.846 141.738 276.921 141.125L281.244 137.761L275.643 134.471ZM254.027 168.032C248.2 172.6 242.636 171.359 241.584 165.213C240.531 159.066 245.287 151.332 251.104 146.755C256.922 142.178 261.602 142.525 262.655 148.634C263.707 154.743 259.863 163.455 254.046 168.032H254.027Z" fill="#263238"/>
<path d="M232.794 166.877L228.095 171.2C227.728 171.572 227.476 172.042 227.371 172.553L234.354 176.595V176.219C234.661 176.029 235.031 175.968 235.383 176.049C235.734 176.13 236.04 176.346 236.234 176.651L242.972 172.76L232.794 166.877Z" fill="#455A64"/>
<path d="M244.788 153.776C245.322 152.95 245.9 152.153 246.518 151.389L239.807 147.517C239.51 147.646 239.191 147.716 238.868 147.723L235.409 147.554C234.886 147.545 234.377 147.729 233.98 148.071L244.318 154.03L244.788 153.776Z" fill="#455A64"/>
<path d="M281.281 137.743C281.129 137.677 280.961 137.652 280.796 137.672C280.631 137.692 280.474 137.755 280.342 137.855L275.586 140.985C275.278 141.172 274.909 141.232 274.558 141.151C274.207 141.07 273.901 140.856 273.706 140.553C273.424 140.149 273.11 139.769 272.767 139.416C272.485 139.119 272.286 138.754 272.188 138.357C272.091 137.959 272.099 137.544 272.212 137.151L272.663 135.938L274.703 134.594C274.842 134.488 275.008 134.423 275.183 134.407C275.357 134.39 275.532 134.422 275.689 134.5L281.281 137.743Z" fill="#455A64"/>
<path d="M267.23 136.333C267.174 136.276 267.127 136.201 267.07 136.135C266.789 135.84 266.591 135.477 266.493 135.081C266.396 134.685 266.404 134.271 266.516 133.88L274.034 129.087L268.395 125.835C268.28 125.769 268.157 125.719 268.029 125.684L264.439 124.886C264.045 124.816 263.639 124.868 263.276 125.036C262.913 125.204 262.61 125.48 262.409 125.825L259.044 132.244C258.849 132.582 258.586 132.876 258.273 133.109L265.886 137.507L267.23 136.333Z" fill="#455A64"/>
<path d="M244.156 134.867L251.139 138.898L256.891 133.635C256.998 133.212 257.077 132.782 257.126 132.348L251.487 129.077C251.303 128.985 251.095 128.955 250.893 128.992C250.691 129.03 250.507 129.132 250.368 129.284L245.002 133.504C244.594 133.867 244.3 134.34 244.156 134.867Z" fill="#455A64"/>
<path d="M282.626 143.644L281.733 138.456C281.729 138.294 281.678 138.136 281.587 138.001C281.497 137.866 281.369 137.76 281.22 137.695C281.072 137.63 280.907 137.609 280.747 137.634C280.586 137.659 280.436 137.729 280.314 137.836L275.558 140.966C275.251 141.155 274.882 141.216 274.53 141.135C274.178 141.055 273.872 140.838 273.679 140.533C273.396 140.133 273.082 139.756 272.739 139.406C272.459 139.108 272.26 138.743 272.161 138.347C272.062 137.95 272.067 137.535 272.175 137.141L274.6 130.562C274.667 130.397 274.697 130.22 274.687 130.042C274.678 129.865 274.629 129.692 274.544 129.536C274.46 129.379 274.342 129.243 274.199 129.138C274.055 129.033 273.891 128.961 273.716 128.927L270.135 128.128C269.742 128.056 269.335 128.108 268.972 128.277C268.609 128.445 268.306 128.721 268.105 129.068L264.732 135.487C264.273 136.235 263.547 136.782 262.702 137.018C261.951 137.216 261.213 137.461 260.493 137.752C260.332 137.828 260.157 137.868 259.979 137.869C259.802 137.87 259.626 137.832 259.464 137.758C259.303 137.683 259.16 137.574 259.045 137.438C258.931 137.303 258.847 137.143 258.801 136.971L257.589 132.958C257.549 132.804 257.471 132.662 257.361 132.546C257.251 132.43 257.113 132.344 256.961 132.296C256.808 132.248 256.646 132.239 256.49 132.272C256.333 132.304 256.188 132.375 256.066 132.479L250.7 136.699C250.377 136.982 250.119 137.332 249.943 137.725C249.768 138.118 249.68 138.543 249.685 138.973L250.005 144.086C250.003 144.979 249.709 145.847 249.168 146.558C248.285 147.61 247.458 148.71 246.668 149.856C246.414 150.196 246.085 150.473 245.707 150.665C245.329 150.858 244.912 150.96 244.488 150.965L241.039 150.796C240.633 150.805 240.237 150.924 239.895 151.141C239.552 151.358 239.275 151.664 239.093 152.027L235.794 159.358C235.712 159.528 235.666 159.713 235.658 159.902C235.651 160.09 235.682 160.278 235.75 160.454C235.817 160.631 235.921 160.791 236.053 160.926C236.185 161.06 236.343 161.166 236.518 161.238L239.338 162.431C239.679 162.598 239.956 162.872 240.126 163.212C240.296 163.552 240.349 163.938 240.277 164.311C240.016 165.458 239.815 166.619 239.676 167.788C239.545 168.676 239.141 169.5 238.52 170.147L233.755 174.517C233.457 174.824 233.23 175.193 233.092 175.597C232.954 176.002 232.908 176.433 232.956 176.857L233.896 182.055C233.902 182.216 233.954 182.373 234.045 182.506C234.137 182.64 234.264 182.745 234.412 182.809C234.561 182.873 234.725 182.893 234.885 182.868C235.044 182.842 235.194 182.772 235.315 182.666L240.071 179.536C240.378 179.349 240.747 179.289 241.098 179.37C241.45 179.451 241.755 179.665 241.95 179.968C242.238 180.368 242.552 180.748 242.89 181.105C243.172 181.402 243.371 181.767 243.468 182.164C243.565 182.562 243.557 182.977 243.445 183.37L241.02 189.949C240.953 190.114 240.923 190.291 240.932 190.469C240.942 190.646 240.991 190.819 241.075 190.976C241.16 191.132 241.278 191.268 241.421 191.373C241.564 191.478 241.729 191.55 241.903 191.584L245.493 192.383C245.887 192.453 246.293 192.401 246.656 192.232C247.019 192.064 247.322 191.789 247.523 191.443L250.888 185.024C251.353 184.277 252.08 183.731 252.927 183.493C253.68 183.299 254.417 183.054 255.136 182.76C255.297 182.685 255.472 182.646 255.649 182.646C255.826 182.646 256.001 182.684 256.162 182.758C256.323 182.832 256.466 182.941 256.581 183.076C256.696 183.211 256.78 183.369 256.828 183.54L258.04 187.553C258.08 187.706 258.159 187.846 258.268 187.961C258.377 188.075 258.514 188.16 258.665 188.208C258.816 188.256 258.976 188.265 259.132 188.234C259.287 188.203 259.432 188.134 259.553 188.032L264.919 183.812C265.243 183.528 265.501 183.178 265.678 182.786C265.854 182.394 265.945 181.968 265.944 181.538L265.624 176.425C265.621 175.531 265.915 174.661 266.461 173.953C267.335 172.901 268.171 171.801 268.951 170.655C269.208 170.318 269.537 170.043 269.915 169.851C270.292 169.659 270.708 169.555 271.132 169.546L274.59 169.715C275 169.714 275.402 169.6 275.752 169.386C276.101 169.173 276.386 168.867 276.573 168.502L279.816 161.228C279.898 161.058 279.944 160.873 279.952 160.685C279.959 160.496 279.928 160.308 279.86 160.132C279.793 159.956 279.69 159.795 279.557 159.661C279.425 159.526 279.267 159.42 279.092 159.349L276.273 158.155C275.929 157.991 275.65 157.717 275.48 157.377C275.31 157.036 275.258 156.649 275.333 156.275C275.592 155.128 275.789 153.967 275.925 152.798C276.063 151.914 276.47 151.094 277.09 150.448L281.846 146.069C282.153 145.751 282.382 145.368 282.518 144.947C282.653 144.527 282.69 144.081 282.626 143.644ZM259.694 171.294C253.877 175.871 248.303 174.621 247.251 168.474C246.198 162.328 250.07 153.691 255.878 149.114C261.686 144.537 267.269 145.787 268.322 151.933C269.374 158.08 265.512 166.717 259.694 171.294Z" fill="#37474F"/>
<path d="M248.773 84.2382L243.209 81.0334C243.076 80.9642 242.927 80.9281 242.777 80.9281C242.626 80.9281 242.478 80.9642 242.345 81.0334L232.288 85.5634C232.129 85.6397 231.954 85.6799 231.777 85.6809C231.6 85.6819 231.424 85.6438 231.264 85.5693C231.103 85.4948 230.961 85.3857 230.847 85.2498C230.733 85.1139 230.651 84.9546 230.606 84.7833C230.065 83.0385 229.314 81.3659 228.369 79.8022C228.164 79.4336 228.043 79.0236 228.017 78.6023C227.991 78.181 228.06 77.7592 228.219 77.3681L234.92 63.8535C235.084 63.5087 235.113 63.1153 235.001 62.7502C234.89 62.3852 234.647 62.0748 234.318 61.8799L227.054 57.6883C226.723 57.4991 226.334 57.4414 225.963 57.5268C225.592 57.6122 225.266 57.8342 225.052 58.1488L216.687 70.733C216.428 71.0675 216.096 71.3392 215.717 71.5279C215.338 71.7167 214.921 71.8176 214.498 71.8232C213.525 71.7977 212.551 71.8416 211.584 71.9547V62.7727L206.002 59.5491C205.851 59.4791 205.685 59.45 205.52 59.4649C205.355 59.4798 205.197 59.538 205.062 59.6337L193.784 66.1561C193.422 66.3934 193.115 66.7045 192.882 67.0689C192.648 67.4332 192.495 67.8428 192.431 68.2707L191.303 80.836C191.175 81.7255 190.763 82.5497 190.128 83.1856C187.889 85.2576 185.792 87.4774 183.85 89.8301C183.576 90.1319 183.223 90.3508 182.831 90.4621C182.439 90.5734 182.024 90.5726 181.632 90.4598L174.377 87.9223C174.002 87.8056 173.599 87.8171 173.231 87.955C172.864 88.0928 172.552 88.3492 172.347 88.6836L164.039 103.063C163.854 103.41 163.79 103.809 163.856 104.197C163.922 104.585 164.115 104.939 164.405 105.206L170.223 110.224C170.519 110.505 170.73 110.865 170.83 111.261C170.929 111.657 170.915 112.073 170.787 112.461C169.717 115.315 168.844 118.238 168.174 121.211C167.941 122.078 167.434 122.847 166.727 123.401L156.389 130.665C156.049 130.934 155.771 131.271 155.571 131.655C155.372 132.039 155.257 132.461 155.233 132.893V145.937C155.222 146.1 155.253 146.262 155.324 146.409C155.395 146.556 155.503 146.681 155.637 146.774L161.2 149.988L169.461 146.069C169.772 146.714 170.117 147.341 170.495 147.949C170.701 148.317 170.821 148.727 170.847 149.149C170.873 149.57 170.804 149.992 170.646 150.383L163.945 163.897C163.779 164.239 163.747 164.631 163.857 164.995C163.967 165.359 164.209 165.668 164.537 165.862L171.811 170.063C172.143 170.251 172.533 170.307 172.904 170.22C173.275 170.133 173.6 169.909 173.813 169.593L182.168 157.037C182.424 156.7 182.753 156.427 183.131 156.238C183.509 156.049 183.926 155.949 184.348 155.947C186.177 155.986 188.005 155.803 189.79 155.401C189.96 155.353 190.138 155.344 190.312 155.374C190.486 155.404 190.651 155.472 190.795 155.574C190.939 155.675 191.059 155.808 191.145 155.962C191.231 156.116 191.282 156.287 191.293 156.463L192.402 167.431C192.406 167.585 192.447 167.736 192.522 167.87C192.598 168.005 192.705 168.119 192.835 168.202L198.389 171.397L205.062 161.604C205.422 161.366 205.728 161.055 205.96 160.691C206.191 160.326 206.343 159.917 206.406 159.49L207.534 146.924C207.604 146.517 207.773 146.133 208.025 145.806C208.277 145.478 208.605 145.217 208.981 145.045C212.296 143.612 215.283 141.517 217.759 138.889C218.046 138.597 218.405 138.388 218.8 138.282C219.195 138.176 219.611 138.178 220.005 138.287L224.46 139.857C224.835 139.977 225.239 139.968 225.609 139.832C225.978 139.695 226.292 139.44 226.499 139.105L234.798 124.726C234.984 124.379 235.05 123.981 234.985 123.593C234.92 123.206 234.729 122.85 234.441 122.583L230.634 119.312C230.341 119.025 230.128 118.665 230.019 118.268C229.91 117.872 229.909 117.454 230.014 117.057C230.839 113.647 231.187 110.139 231.048 106.634C231.056 106.207 231.157 105.786 231.343 105.402C231.53 105.017 231.798 104.678 232.129 104.407L242.467 97.1419C242.804 96.8743 243.08 96.5382 243.278 96.1559C243.475 95.7736 243.59 95.3537 243.613 94.924L248.547 89.0125L248.773 84.2382ZM199.442 135.928C188.897 142.009 182.346 137.695 182.346 125.525C182.346 113.354 191.059 98.4389 201.594 92.3583C212.129 86.2776 218.511 90.6948 218.511 102.865C218.511 115.036 209.958 129.857 199.442 135.947V135.928Z" fill="#263238"/>
<path d="M232.692 68.3362L234.91 63.872C235.074 63.5273 235.103 63.1338 234.992 62.7688C234.88 62.4037 234.637 62.0934 234.309 61.8984L227.044 57.7068C226.714 57.5176 226.324 57.46 225.953 57.5454C225.582 57.6307 225.257 57.8528 225.042 58.1673L216.687 70.7327C216.534 70.941 216.346 71.122 216.133 71.2684L225.484 76.663L232.692 68.3362Z" fill="#455A64"/>
<path d="M167.534 122.555C167.315 122.878 167.045 123.163 166.735 123.401L156.397 130.665C156.122 130.881 155.889 131.145 155.711 131.445L162.017 135.083L175.71 127.291L167.534 122.555Z" fill="#455A64"/>
<path d="M173.801 87.8379C173.508 87.8488 173.223 87.9318 172.971 88.0793C172.718 88.2269 172.506 88.4345 172.353 88.6837L164.045 103.063C163.871 103.385 163.805 103.754 163.857 104.116L171.019 108.251L182.39 92.8659L173.801 87.8379Z" fill="#455A64"/>
<path d="M192.664 67.5186L201.517 72.6312L211.583 66.8231V62.7725L206 59.5489C205.85 59.4789 205.684 59.4499 205.519 59.4647C205.354 59.4796 205.196 59.5378 205.06 59.6335L193.782 66.1559C193.282 66.4886 192.893 66.9631 192.664 67.5186Z" fill="#455A64"/>
<path d="M249.164 98.1288V85.1122C249.19 84.9527 249.169 84.7892 249.104 84.6414C249.038 84.4937 248.932 84.368 248.797 84.2795C248.661 84.191 248.504 84.1436 248.342 84.143C248.18 84.1423 248.022 84.1884 247.886 84.2758L237.83 88.8151C237.671 88.8916 237.497 88.9317 237.32 88.9327C237.144 88.9337 236.969 88.8955 236.809 88.8209C236.649 88.7463 236.508 88.6371 236.395 88.5012C236.282 88.3653 236.201 88.2061 236.157 88.0351C235.609 86.2915 234.855 84.6193 233.911 83.054C233.705 82.6854 233.585 82.2754 233.559 81.8541C233.533 81.4328 233.602 81.011 233.761 80.6199L240.462 67.1053C240.626 66.7616 240.657 66.369 240.547 66.004C240.438 65.6391 240.196 65.3281 239.87 65.1317L232.595 60.9307C232.263 60.7446 231.874 60.6896 231.503 60.7766C231.133 60.8636 230.808 61.0862 230.594 61.4006L222.239 73.966C221.981 74.3024 221.65 74.5749 221.27 74.7624C220.89 74.9498 220.472 75.0472 220.049 75.0468C218.222 75.0156 216.399 75.2017 214.617 75.6013C214.446 75.6491 214.267 75.6585 214.093 75.6287C213.919 75.5989 213.753 75.5307 213.608 75.4291C213.463 75.3275 213.343 75.1949 213.256 75.041C213.168 74.8871 213.116 74.7157 213.104 74.5393L212.004 63.4964C212.009 63.3361 211.968 63.1777 211.887 63.0396C211.805 62.9016 211.686 62.7896 211.543 62.7167C211.4 62.6438 211.24 62.613 211.08 62.6279C210.92 62.6428 210.768 62.7028 210.641 62.8009L199.363 69.3233C199.002 69.5587 198.694 69.868 198.461 70.2309C198.228 70.5937 198.074 71.0019 198.01 71.4285L196.882 84.0033C196.752 84.8921 196.341 85.7157 195.707 86.3528C193.469 88.4248 191.371 90.6446 189.429 92.9973C189.156 93.2993 188.802 93.5177 188.41 93.6275C188.017 93.7372 187.602 93.7338 187.211 93.6176L179.956 91.0895C179.582 90.972 179.18 90.982 178.812 91.1181C178.445 91.2542 178.133 91.5087 177.926 91.8414L169.618 106.23C169.433 106.577 169.369 106.976 169.435 107.364C169.502 107.752 169.695 108.107 169.985 108.373L175.802 113.382C176.098 113.665 176.309 114.026 176.408 114.424C176.508 114.821 176.494 115.239 176.366 115.628C175.296 118.482 174.423 121.405 173.753 124.378C173.521 125.245 173.013 126.014 172.306 126.568L161.968 133.833C161.628 134.101 161.35 134.438 161.151 134.822C160.951 135.206 160.836 135.628 160.812 136.06V149.105C160.791 149.264 160.816 149.425 160.883 149.571C160.951 149.716 161.058 149.84 161.193 149.926C161.328 150.013 161.485 150.06 161.646 150.061C161.806 150.062 161.963 150.017 162.099 149.932L172.156 145.402C172.314 145.325 172.488 145.285 172.664 145.283C172.84 145.282 173.014 145.319 173.174 145.393C173.334 145.466 173.475 145.574 173.588 145.709C173.702 145.844 173.784 146.002 173.828 146.172C174.371 147.921 175.125 149.597 176.075 151.163C176.28 151.531 176.401 151.942 176.427 152.363C176.453 152.784 176.384 153.206 176.225 153.597L169.543 167.149C169.377 167.491 169.345 167.883 169.455 168.247C169.565 168.611 169.808 168.92 170.135 169.113L177.409 173.314C177.741 173.503 178.131 173.559 178.502 173.472C178.873 173.385 179.198 173.161 179.411 172.845L187.747 160.298C188.006 159.965 188.336 159.694 188.713 159.505C189.091 159.316 189.506 159.215 189.928 159.208C191.757 159.248 193.585 159.062 195.369 158.653C195.539 158.607 195.718 158.599 195.891 158.63C196.065 158.66 196.23 158.728 196.374 158.83C196.519 158.931 196.639 159.063 196.727 159.216C196.815 159.369 196.868 159.539 196.882 159.715L197.982 170.692C197.975 170.853 198.014 171.013 198.095 171.153C198.176 171.292 198.295 171.405 198.438 171.48C198.581 171.554 198.743 171.585 198.903 171.571C199.064 171.556 199.217 171.496 199.345 171.397L210.622 164.818C210.985 164.585 211.292 164.276 211.524 163.912C211.756 163.549 211.907 163.14 211.966 162.713L213.104 150.138C213.233 149.252 213.645 148.432 214.278 147.798C216.514 145.726 218.609 143.507 220.547 141.154C220.819 140.85 221.172 140.63 221.565 140.519C221.957 140.407 222.373 140.409 222.765 140.524L230.02 143.052C230.395 143.172 230.8 143.163 231.169 143.027C231.539 142.891 231.852 142.635 232.06 142.3L240.368 127.912C240.552 127.566 240.616 127.168 240.549 126.782C240.483 126.396 240.29 126.043 240.001 125.778L234.202 120.825C233.906 120.545 233.695 120.185 233.596 119.789C233.496 119.393 233.511 118.977 233.639 118.589C234.701 115.73 235.574 112.803 236.251 109.83C236.486 108.963 236.994 108.195 237.699 107.64L248.037 100.375C248.374 100.102 248.649 99.761 248.843 99.3736C249.038 98.9863 249.147 98.5619 249.164 98.1288ZM204.993 139.152C194.448 145.233 185.905 140.299 185.905 128.128C185.905 115.957 194.448 101.155 204.993 95.0743C215.538 88.9937 224.052 93.9184 224.052 106.089C224.052 118.26 215.528 133.043 204.993 139.152Z" fill="#37474F"/>
<path d="M248.771 84.2384C248.634 84.1643 248.48 84.1256 248.324 84.1256C248.168 84.1256 248.015 84.1643 247.878 84.2384L237.822 88.7683C237.663 88.8448 237.49 88.8853 237.314 88.8869C237.138 88.8884 236.963 88.8511 236.804 88.7774C236.644 88.7038 236.502 88.5957 236.389 88.4608C236.276 88.326 236.194 88.1679 236.149 87.9976C235.774 86.7798 235.293 85.5973 234.711 84.4639L242.323 81.0336C242.458 80.9628 242.608 80.9258 242.761 80.9258C242.913 80.9258 243.063 80.9628 243.198 81.0336L248.771 84.2384Z" fill="#455A64"/>
<path d="M327.94 329.155V328.084C327.517 329.343 325.562 334.738 322.592 337.482C320.233 339.634 317.019 342.125 316.192 344.521C315.365 346.918 320.675 347.848 322.874 347.463C325.44 347.012 328.748 345.583 330.553 343.337C331.821 341.787 332.63 339.935 333.532 338.713C334.434 337.492 336.53 336.119 337.019 334.7C337.291 333.92 336.972 332.219 336.586 330.772C336.201 329.325 335.872 327.952 335.411 328.122V328.939C334.342 329.781 333.013 330.226 331.652 330.199C330.581 330.208 327.93 329.992 327.94 329.155Z" fill="#263238"/>
<path d="M320.461 339.342C321.195 338.685 321.928 338.045 322.595 337.463C324.672 335.583 326.251 332.369 327.153 330.179C327.671 328.931 327.939 327.593 327.942 326.241V321.946H335.414V328.882V329.07C335.057 330.621 331.655 334.756 329.681 337.453C328.365 339.258 325.922 341.56 322.914 341.955C320.067 342.359 318.629 341.476 320.461 339.342Z" fill="#FFA8A7"/>
<path d="M298.769 321.787V320.716C298.346 321.966 296.391 327.37 293.421 330.114C291.062 332.266 287.848 334.747 287.03 337.144C286.213 339.54 291.504 340.48 293.712 340.095C296.269 339.634 299.586 338.215 301.381 335.969C302.65 334.409 303.458 332.567 304.37 331.336C305.282 330.105 307.359 328.751 307.847 327.332C308.12 326.552 307.8 324.842 307.424 323.404C307.049 321.966 306.701 320.631 306.25 320.753V321.571C305.178 322.409 303.851 322.854 302.49 322.83C301.41 322.83 298.759 322.614 298.769 321.787Z" fill="#263238"/>
<path d="M291.289 331.965C292.022 331.316 292.755 330.677 293.423 330.085C295.5 328.206 297.079 324.991 297.981 322.802C298.504 321.555 298.773 320.216 298.77 318.864V314.606H306.289V321.542V321.73C305.922 323.281 302.529 327.416 300.546 330.113C299.24 331.918 296.787 334.211 293.789 334.615C290.791 335.019 289.457 334.098 291.289 331.965Z" fill="#FFA8A7"/>
<path d="M333.929 212.928C339.727 225.596 333.722 270.2 333.722 270.2C333.891 272.259 336.241 276.3 337.124 285.341C338.158 296.027 335.498 322.858 335.498 322.858C334.363 323.514 333.086 323.884 331.776 323.936C330.466 323.988 329.163 323.722 327.979 323.159C327.979 323.159 320.846 282.747 319.521 272.127C318.346 262.851 316.1 242.466 316.1 242.466L309.728 272.08C310.659 275.065 311.335 278.125 311.749 281.224C312.35 287.474 306.298 316.571 306.298 316.571C306.298 316.571 303.713 317.511 298.779 316.797C298.779 316.797 296.637 278.189 296.073 270.661C295.133 258.011 298.479 218.567 300.772 211.076L333.929 212.928Z" fill="#37474F"/>
<path d="M316.054 242.466L314.175 230.7C314.175 230.7 306.214 229.055 302.605 225.662C305.095 228.58 308.35 230.745 312.004 231.912L314.109 240.972L310.434 268.377L316.054 242.466Z" fill="#263238"/>
<path d="M303.797 204.948C308.186 190.343 313.778 168.596 311.673 168.596C309.567 168.596 306.316 168.398 303.938 170.786C299.239 175.485 298.402 184.206 297.416 189.187C296.429 194.168 295.733 198.087 294.164 205.465C292.98 211.104 291.523 217.842 289.408 222.166C289.013 222.939 288.343 223.536 287.529 223.838C285.405 224.703 284.427 225.803 282.726 227.062C281.392 228.002 280.377 228.171 280.461 228.575C280.607 229.026 280.917 229.405 281.33 229.637C281.743 229.868 282.228 229.936 282.689 229.825C283.715 229.615 284.712 229.28 285.658 228.829C284.697 230.445 283.482 231.895 282.059 233.124C278.807 235.943 278.3 237.945 283.741 238.932C287.134 239.552 290.207 237.926 294.079 230.887C295.548 228.322 296.833 225.656 297.923 222.908C300.517 215.747 302.472 209.365 303.797 204.948Z" fill="#FFA8A7"/>
<path d="M323.673 168.944C331.107 169.451 331.624 173.041 333.485 176.97C334.85 179.993 334.978 183.43 333.842 186.547L328.654 201.527C328.654 201.527 331.088 207.392 333.898 212.927C320.9 220.183 304.67 216.377 300.76 211.048C300.6 209.929 301.596 201.151 302.217 195.419C299.933 189.667 299.322 186.02 300.29 182.261C302.085 175.212 309.049 168.352 312.122 168.605L323.673 168.944Z" fill="#E7142D"/>
<path d="M316.56 162.779H319.445C323.473 162.776 327.334 161.175 330.182 158.327C333.03 155.48 334.63 151.618 334.633 147.591C334.633 143.54 333.024 139.654 330.16 136.789C327.297 133.923 323.412 132.312 319.361 132.31H316.635C312.584 132.312 308.7 133.923 305.836 136.789C302.972 139.654 301.363 143.54 301.363 147.591C301.366 151.62 302.968 155.483 305.818 158.331C308.667 161.179 312.531 162.779 316.56 162.779Z" fill="#263238"/>
<path d="M342.772 170.785C340.392 170.785 338.109 169.84 336.426 168.157C334.742 166.473 333.797 164.191 333.797 161.81V142.591C336.177 142.591 338.46 143.536 340.143 145.22C341.827 146.903 342.772 149.186 342.772 151.566V170.785Z" fill="#263238"/>
<path d="M335.439 139.18L333.184 142.798C333.413 142.958 333.673 143.069 333.948 143.125C334.222 143.181 334.504 143.181 334.779 143.125C335.053 143.069 335.313 142.958 335.542 142.798C335.772 142.638 335.967 142.434 336.116 142.197C336.413 141.703 336.509 141.114 336.383 140.552C336.257 139.99 335.919 139.499 335.439 139.18Z" fill="#263238"/>
<path d="M306.831 139.039C305.074 140.082 302.903 144.499 303.072 153.766C303.26 161.614 305.797 163.55 307.075 164.104C308.354 164.659 310.835 164.32 313.222 163.926V168.625C313.222 168.625 309.904 172.468 310.111 174.63C310.318 176.792 314.895 177.309 317.996 175.194C320.006 173.747 321.73 171.94 323.081 169.865V158.493C323.332 158.803 323.643 159.059 323.995 159.247C324.347 159.435 324.732 159.551 325.129 159.589C325.526 159.626 325.927 159.585 326.308 159.466C326.689 159.347 327.042 159.154 327.347 158.897C329.988 157.14 330.092 152.798 328.55 151.238C327.009 149.678 323.701 150.167 323.081 152.328C323.081 152.328 319.256 152.46 314.171 149.668C312.2 148.596 310.509 147.075 309.234 145.229C307.959 143.382 307.136 141.262 306.831 139.039Z" fill="#FFA8A7"/>
<path d="M312.764 151.839C312.755 151.971 312.772 152.104 312.815 152.229C312.857 152.354 312.924 152.47 313.011 152.57C313.099 152.669 313.205 152.751 313.324 152.809C313.442 152.868 313.572 152.902 313.704 152.91C313.965 152.916 314.218 152.822 314.412 152.647C314.606 152.473 314.726 152.231 314.747 151.97C314.759 151.709 314.667 151.453 314.491 151.259C314.315 151.065 314.069 150.949 313.807 150.937C313.545 150.924 313.29 151.016 313.096 151.192C312.902 151.369 312.786 151.615 312.773 151.876L312.764 151.839Z" fill="#263238"/>
<path d="M311.617 158.418L309.324 159.151C309.365 159.305 309.437 159.449 309.535 159.575C309.633 159.7 309.756 159.804 309.896 159.881C310.036 159.957 310.19 160.004 310.348 160.019C310.507 160.035 310.667 160.017 310.819 159.969C311.126 159.863 311.381 159.643 311.53 159.354C311.679 159.065 311.71 158.73 311.617 158.418Z" fill="#F28F8F"/>
<path d="M304.66 148.757L306.662 147.375C306.579 147.24 306.468 147.123 306.338 147.032C306.207 146.942 306.059 146.878 305.904 146.847C305.748 146.815 305.587 146.815 305.431 146.848C305.276 146.881 305.129 146.945 304.999 147.037C304.732 147.225 304.548 147.509 304.485 147.829C304.422 148.149 304.485 148.482 304.66 148.757Z" fill="#263238"/>
<path d="M305.122 151.077C305.11 151.339 305.202 151.595 305.378 151.789C305.554 151.983 305.8 152.099 306.062 152.111C306.324 152.123 306.58 152.031 306.774 151.855C306.967 151.679 307.083 151.433 307.096 151.171C307.106 151.039 307.09 150.906 307.048 150.78C307.006 150.654 306.939 150.537 306.851 150.438C306.764 150.338 306.657 150.257 306.538 150.199C306.418 150.14 306.289 150.107 306.156 150.1C305.89 150.095 305.633 150.194 305.439 150.377C305.246 150.56 305.132 150.811 305.122 151.077Z" fill="#263238"/>
<path d="M309.944 150.514L309.794 156.453L306.664 155.485L309.944 150.514Z" fill="#F28F8F"/>
<path d="M313.262 163.934C315.78 163.596 320.978 162.111 321.786 160.053C321.466 161.095 320.829 162.012 319.963 162.675C318.412 164.009 313.262 165.494 313.262 165.494V163.934Z" fill="#F28F8F"/>
<path opacity="0.1" d="M320.375 214.337C321.393 214.103 322.355 213.669 323.203 213.059C324.051 212.449 324.769 211.676 325.314 210.784C325.86 209.893 326.222 208.902 326.379 207.869C326.536 206.837 326.486 205.783 326.23 204.77C326.183 204.61 326.136 204.469 326.099 204.356C325.92 203.812 325.563 203.344 325.086 203.028C324.608 202.713 324.037 202.568 323.467 202.617C324.3 202.062 325.015 201.348 325.572 200.516C326.128 199.684 326.515 198.75 326.709 197.768L328.288 189.845C328.288 189.845 325.356 180.541 325.657 177.346L333.119 177.778L334.059 178.455C334.851 181.105 334.779 183.94 333.852 186.547L328.664 201.527C328.664 201.527 331.098 207.392 333.908 212.927C329.682 215.207 325.017 216.554 320.226 216.878C315.436 217.203 310.631 216.496 306.137 214.807C310.87 215.554 315.702 215.394 320.375 214.337Z" fill="black"/>
<path d="M331.117 207.081C328.373 207.814 320.018 208.801 319.397 202.937C319.078 198.265 319.078 193.577 319.397 188.905C319.777 181.976 322.274 175.33 326.549 169.865L326.888 169.451C326.888 169.451 325.675 168.464 323.128 168.925C319.542 172.571 317.003 177.116 315.779 182.082C312.02 181.537 307.321 181.142 304.182 180.898C305.643 175.865 308.87 171.528 313.27 168.68C312.205 168.269 311.03 168.249 309.952 168.624C305.485 171.34 302.208 175.643 300.779 180.672C297.791 188.952 297.904 219.807 297.96 230.765L303.12 222.551H336.013C335.6 210.728 331.117 207.081 331.117 207.081Z" fill="#37474F"/>
<path d="M347.172 199.065C347.172 199.065 343.666 191.546 338.789 180.466C335.264 172.44 334.484 170.626 328.874 169.761L326.9 169.451C324.24 178.182 326.073 182.129 329.569 188.107L336.486 201.508C339.259 200.963 347.266 199.901 347.172 199.065Z" fill="#FFA8A7"/>
<path d="M336.512 201.509C338.561 205.634 340.271 208.191 342.808 208.858C345.346 209.525 365.881 209.29 365.881 209.29V201.509L346.295 198.529L336.512 201.509Z" fill="#FFA8A7"/>
<path d="M377.649 286.947H345.291V350C345.141 352.5 346.701 355.028 349.99 356.936C356.315 360.592 366.569 360.592 372.894 356.936C376.061 355.112 377.64 352.716 377.64 350.357L377.649 286.947Z" fill="#E7142D"/>
<path d="M374.247 281.215C370.666 278.875 372.894 273.18 372.894 273.18H349.99C349.99 273.18 352.152 278.819 348.637 281.215C343.693 284.89 344.135 290.181 349.971 293.555C356.296 297.211 366.55 297.211 372.875 293.555C378.739 290.181 379.181 284.89 374.247 281.215Z" fill="#E7142D"/>
<path opacity="0.05" d="M374.247 281.215C370.666 278.875 372.894 273.18 372.894 273.18H349.99C349.99 273.18 352.152 278.819 348.637 281.215C343.693 284.89 344.135 290.181 349.971 293.555C356.296 297.211 366.55 297.211 372.875 293.555C378.739 290.181 379.181 284.89 374.247 281.215Z" fill="black"/>
<path opacity="0.05" d="M372.271 275.989C372.366 275.028 372.578 274.081 372.901 273.17H349.988C350.307 274.081 350.512 275.028 350.599 275.989C356.755 279.185 366.116 279.185 372.271 275.989Z" fill="black"/>
<path d="M377.649 262.165H375.77C374.945 261.293 373.995 260.549 372.95 259.957C366.625 256.31 356.372 256.31 350.047 259.957C349.002 260.549 348.052 261.293 347.227 262.165H345.348V266.573C345.348 268.969 346.927 271.357 350.094 273.152C356.419 276.808 366.672 276.808 372.997 273.152C376.164 271.328 377.743 268.941 377.743 266.573L377.649 262.165Z" fill="#E7142D"/>
<path d="M349.99 268.771C356.315 272.427 366.569 272.427 372.894 268.771C379.219 265.115 379.219 259.204 372.894 255.548C366.569 251.892 356.315 251.901 349.99 255.548C343.665 259.194 343.675 265.125 349.99 268.771Z" fill="#E7142D"/>
<path opacity="0.4" d="M349.99 268.771C356.315 272.427 366.569 272.427 372.894 268.771C379.219 265.115 379.219 259.204 372.894 255.548C366.569 251.892 356.315 251.901 349.99 255.548C343.665 259.194 343.675 265.125 349.99 268.771Z" fill="white"/>
<path opacity="0.2" d="M361.466 352.801C360.629 352.801 359.826 352.468 359.233 351.876C358.641 351.284 358.309 350.48 358.309 349.643V304.597C358.309 303.76 358.641 302.957 359.233 302.364C359.826 301.772 360.629 301.439 361.466 301.439C362.302 301.442 363.103 301.776 363.693 302.368C364.283 302.96 364.615 303.761 364.615 304.597V349.643C364.615 350.479 364.283 351.281 363.693 351.872C363.103 352.464 362.302 352.798 361.466 352.801Z" fill="black"/>
<path opacity="0.2" d="M372.243 350.893C370.73 351.447 369.508 350.667 369.508 349.154V303.272C369.558 302.45 369.842 301.659 370.327 300.993C370.811 300.327 371.476 299.814 372.243 299.513C373.756 298.968 374.978 299.738 374.978 301.251V347.143C374.927 347.964 374.642 348.753 374.157 349.417C373.673 350.081 373.009 350.593 372.243 350.893Z" fill="black"/>
<path opacity="0.2" d="M350.676 350.893C352.189 351.447 353.411 350.667 353.411 349.154V303.272C353.361 302.45 353.077 301.659 352.592 300.993C352.108 300.327 351.443 299.814 350.676 299.513C349.163 298.968 347.941 299.738 347.941 301.251V347.143C347.992 347.964 348.277 348.753 348.762 349.417C349.246 350.081 349.91 350.593 350.676 350.893Z" fill="black"/>
<path d="M365.88 148.747L359.302 144.932L355.129 164.564C355.129 164.564 359.302 171.378 359.302 175.786V259.543L363.672 264.655L365.918 263.358V179.611C365.918 175.203 370.081 173.201 370.081 173.201L365.88 148.747Z" fill="#E0E0E0"/>
<path d="M363.634 150.044L357.056 146.219L352.883 165.852C352.883 165.852 357.056 172.675 357.056 177.129V260.858L363.634 264.683V180.898C363.634 176.49 367.807 174.489 367.807 174.489L363.634 150.044Z" fill="#EBEBEB"/>
<path d="M357.027 146.219L359.264 144.932L365.88 148.747L363.634 150.044L357.027 146.219Z" fill="#FAFAFA"/>
<path d="M365.883 148.747L363.637 150.044L367.81 174.489L370.046 173.201L365.883 148.747Z" fill="#F5F5F5"/>
<path d="M365.881 195.334C366.219 193.858 368.55 193.031 368.315 195.494C368.08 197.956 369.255 199.676 369.602 200.823C370.307 203.238 370.147 207.796 369.198 208.698C368.709 209.272 368.099 209.731 367.412 210.041C366.724 210.351 365.977 210.506 365.223 210.493C363.393 210.397 361.649 209.688 360.27 208.482C358.747 207.298 357.122 200.494 360.655 201.452C365.909 202.89 365.881 199.112 365.881 199.112V195.334Z" fill="#FFA8A7"/>
<path d="M193.094 217.627C196.787 218.369 198.977 221.085 203.432 227.965C207.887 234.844 214.785 246.761 214.785 246.761L232.059 253.34L231.316 261.112C231.316 261.112 212.473 257.767 209.888 255.849C207.304 253.932 197.332 239.478 197.332 239.478L193.094 217.627Z" fill="#FFA8A7"/>
<path d="M190 216.227C193.834 216.903 197.631 217.834 199.99 221.49C202.349 225.145 210.939 239.111 210.939 239.111C210.939 239.111 207.81 246.461 202.095 247.57L193.881 235.737L190 216.227Z" fill="#E6E6E6"/>
<path d="M175.942 216.537C174.626 216.857 173.301 216.941 172.135 217.176C166.431 218.323 165.378 221.283 165.237 228.182C165.011 239.713 165.237 266.404 165.237 266.404C170.321 270.098 189.099 272.363 199.794 264.525C199.794 264.525 199.249 233.821 199.249 228.379C199.249 222.937 196.232 216.406 187.887 215.917L175.942 216.537Z" fill="#F5F5F5"/>
<path d="M163.884 373.121H171.262V360.49H163.884V373.121Z" fill="#FFA8A7"/>
<path d="M194.07 363.554L201.438 363.807L201.814 350.443L194.07 350.189V363.554Z" fill="#FFA8A7"/>
<path d="M200.836 264.552L199.511 234.544L176.297 238.303C176.355 243.047 176.079 247.789 175.47 252.495C175.038 256.197 171.485 261.244 165.189 262.908C164.918 267.756 164.899 272.615 165.132 277.466C165.245 280.962 163.6 319.617 163.6 319.617C163.431 321.647 161.476 325.255 161.326 332.548C161.11 343.14 163.572 366.786 163.572 366.786C164.846 367.413 166.242 367.752 167.661 367.78C169.081 367.807 170.489 367.523 171.786 366.946C171.786 366.946 176.748 332.962 178.074 322.483C179.22 313.339 184.041 287.606 184.041 287.606L189.68 318.536C188.815 322.381 188.499 326.33 188.741 330.265C189.079 335.105 193.571 359.399 193.571 359.399C194.858 360.124 196.289 360.557 197.761 360.669C199.234 360.781 200.713 360.569 202.095 360.048C202.095 360.048 202.528 321.928 202.622 317.474C202.744 312.427 200.836 264.552 200.836 264.552Z" fill="#37474F"/>
<path d="M199.514 234.544C199.269 228.614 198.442 223.135 193.33 218.003C191.932 216.621 190.042 215.85 188.076 215.86H186.977C186.977 215.86 192.108 219.93 194.119 225.841C195.224 229.581 195.772 233.464 195.745 237.364L199.514 234.544Z" fill="#37474F"/>
<path d="M171.269 369.474V368.422C171.664 368.422 171.908 368.807 172.059 369.756C172.172 370.433 172.266 370.95 172.491 371.843C172.816 373.129 173.246 374.387 173.779 375.602C174.822 378.177 175.658 379.126 178.083 382.134C178.905 382.962 179.671 383.845 180.376 384.775C180.827 385.564 180.978 387.773 180.226 388.28C177.406 390.16 173.205 390.16 170.217 389.314C169.101 389.003 168.097 388.378 167.326 387.513C166.555 386.649 166.048 385.581 165.865 384.436C165.762 383.75 165.8 383.055 165.724 382.369C165.453 380.81 164.808 379.339 163.845 378.083C163.294 377.357 162.818 376.576 162.426 375.752C161.805 374.239 162.303 372.529 162.698 371.053C163.046 369.747 163.412 368.309 163.864 368.431V369.24C164.912 370.066 166.213 370.504 167.548 370.48C168.657 370.518 171.279 370.302 171.269 369.474Z" fill="#263238"/>
<path d="M201.497 361.533C201.883 361.533 202.193 362.087 203.039 362.999C204.297 364.278 205.762 365.336 207.371 366.129C210.134 367.51 215.51 369.634 217.944 370.734C219.457 371.41 219.391 373.253 217.822 374.296C216.252 375.339 212.456 376.091 207.907 375.076C205.426 374.521 202.202 372.256 200.153 372.35C198.105 372.444 194.289 372.444 192.785 371.41C191.281 370.377 191.845 368.159 192.306 366.251C192.776 364.164 193.349 360.922 194.045 361.063V361.777C194.928 363.121 199.505 363.657 201.46 362.717L201.497 361.533Z" fill="#263238"/>
<path d="M184.043 287.625C187.857 286.441 191.364 284.432 194.315 281.742C194.315 281.742 192.332 285.445 186.44 288.904L189.259 316.412L184.043 287.625Z" fill="#263238"/>
<path d="M189.016 202.158C194.616 202.158 199.156 197.618 199.156 192.018C199.156 186.417 194.616 181.877 189.016 181.877C183.415 181.877 178.875 186.417 178.875 192.018C178.875 197.618 183.415 202.158 189.016 202.158Z" fill="#263238"/>
<path d="M171.488 199.226C171.488 199.226 173.133 206.942 173.791 208.21C174.23 208.993 174.953 209.575 175.811 209.836L175.689 204.413L171.488 199.226Z" fill="#263238"/>
<path d="M173.545 188.164C172.971 188.099 172.389 188.164 171.843 188.356C171.298 188.549 170.803 188.862 170.397 189.273C169.043 190.655 169.795 194.988 171.487 199.226L174.579 199.583L173.545 188.164Z" fill="#263238"/>
<path d="M175.511 199.583C174.89 199.949 174.007 198.756 173.236 197.957C172.466 197.158 169.975 196.077 168.725 198.69C167.475 201.303 169.825 204.902 171.798 205.522C175.182 206.584 175.689 204.413 175.689 204.413L175.943 217.016C180.163 222.42 191.854 221.96 186.986 216.311V212.552C188.495 212.796 190.027 212.875 191.553 212.787C194.044 212.402 195.613 210.438 196.365 207.74C197.587 203.408 198.048 199.902 197.014 191.378C195.886 182.036 185.022 181.98 179.157 185.636C173.293 189.292 175.511 199.583 175.511 199.583Z" fill="#FFA8A7"/>
<path d="M176.291 240.183C176.46 232.514 174.712 221.142 172.137 217.214C173.327 216.669 174.64 216.448 175.943 216.575C175.943 216.575 180.774 224.093 180.567 240.183H176.291Z" fill="#37474F"/>
<path d="M175.51 200.626C175.2 200.626 174.006 198.662 173.235 197.957C172.164 197.017 173.545 188.164 173.545 188.164C173.176 187.387 173.049 186.517 173.181 185.667C173.313 184.817 173.699 184.026 174.288 183.399C175.754 181.792 177.793 179.818 184.447 180.58C189.147 181.134 194.353 182.619 198.545 180.58C198.927 181.937 198.897 183.377 198.456 184.716C198.016 186.055 197.186 187.233 196.073 188.098C196.073 188.098 194.56 189.038 190.594 189.555C186.927 189.832 183.242 189.762 179.589 189.348C178.442 189.188 178.198 190.288 177.577 193.352C177.06 196.068 176.553 200.607 175.51 200.626Z" fill="#263238"/>
<path d="M173.556 188.85L169.797 186.839C169.917 186.589 170.086 186.365 170.294 186.182C170.502 185.999 170.744 185.859 171.007 185.771C171.27 185.683 171.548 185.65 171.825 185.672C172.101 185.693 172.37 185.771 172.616 185.899C173.122 186.176 173.501 186.637 173.676 187.186C173.851 187.736 173.808 188.331 173.556 188.85Z" fill="#263238"/>
<path d="M186.976 212.59C186.976 212.59 181.403 211.472 179.457 210.438C178.317 209.839 177.381 208.913 176.77 207.778C177.064 208.917 177.585 209.984 178.301 210.917C179.721 212.731 186.976 214.075 186.976 214.075V212.59Z" fill="#F28F8F"/>
<path d="M186.759 198.897C186.75 199.116 186.676 199.328 186.548 199.506C186.419 199.684 186.241 199.82 186.035 199.897C185.83 199.974 185.606 199.989 185.392 199.94C185.178 199.891 184.983 199.78 184.832 199.621C184.68 199.462 184.579 199.262 184.541 199.046C184.502 198.829 184.528 198.607 184.616 198.405C184.703 198.204 184.848 198.032 185.032 197.913C185.216 197.793 185.431 197.73 185.65 197.731C185.8 197.735 185.947 197.768 186.083 197.829C186.22 197.889 186.343 197.976 186.446 198.084C186.549 198.193 186.63 198.32 186.684 198.459C186.737 198.599 186.763 198.748 186.759 198.897Z" fill="#263238"/>
<path d="M185.584 194.686L183.196 196.002C183.029 195.677 182.994 195.301 183.097 194.951C183.2 194.601 183.434 194.304 183.751 194.122C183.908 194.036 184.08 193.982 184.258 193.964C184.436 193.946 184.616 193.963 184.787 194.016C184.958 194.069 185.116 194.155 185.253 194.27C185.39 194.385 185.502 194.527 185.584 194.686Z" fill="#263238"/>
<path d="M186.458 205.898L189.005 206.838C188.95 207.009 188.861 207.168 188.743 207.304C188.626 207.44 188.482 207.551 188.32 207.63C188.159 207.709 187.983 207.754 187.803 207.763C187.624 207.773 187.444 207.746 187.275 207.684C186.935 207.549 186.66 207.288 186.508 206.956C186.355 206.623 186.337 206.244 186.458 205.898Z" fill="#F28F8F"/>
<path d="M196.712 195.616L194.531 193.934C194.633 193.788 194.763 193.665 194.914 193.57C195.065 193.476 195.233 193.414 195.409 193.387C195.584 193.359 195.764 193.368 195.936 193.412C196.108 193.456 196.27 193.534 196.411 193.643C196.703 193.871 196.897 194.203 196.953 194.57C197.008 194.937 196.922 195.311 196.712 195.616Z" fill="#263238"/>
<path d="M196.037 198.578C196.027 198.797 195.954 199.009 195.825 199.186C195.696 199.364 195.518 199.5 195.312 199.577C195.107 199.655 194.883 199.67 194.669 199.621C194.455 199.571 194.26 199.461 194.109 199.301C193.958 199.142 193.856 198.942 193.818 198.726C193.78 198.51 193.806 198.287 193.893 198.086C193.98 197.884 194.125 197.713 194.309 197.593C194.493 197.473 194.708 197.41 194.928 197.412C195.228 197.422 195.513 197.55 195.721 197.768C195.928 197.986 196.042 198.277 196.037 198.578Z" fill="#263238"/>
<path d="M190.066 197.731L190.424 204.442L193.929 203.248L190.066 197.731Z" fill="#F28F8F"/>
<path d="M243.28 210.194C243.28 208.126 245.01 205.241 244.483 203.709L240.668 201.5L233.018 220.72L225.217 225.156L221.364 219.517L232.895 202.309L229.08 200.109C228.6 200.335 228.14 200.579 227.614 200.861C218.901 205.814 211.787 218.013 211.721 228.116C211.721 233.21 213.46 236.781 216.336 238.454L220.095 240.644L220.537 239.497H220.819V328.921C215.462 334.889 211.731 343.272 211.684 350.537C211.684 354.296 212.623 357.266 214.306 359.221L218.121 361.43L221.946 340.002L229.747 335.566L233.6 341.205L225.931 360.65L229.747 362.849C229.747 362.849 243.224 342.737 243.29 332.643C243.39 330.119 242.823 327.613 241.645 325.378L242.585 324.579L238.826 322.389C237.408 321.55 235.771 321.154 234.127 321.252V231.838C239.502 225.87 243.233 217.496 243.28 210.194Z" fill="#455A64"/>
<path d="M220.855 328.93L224.671 331.138V241.714L220.855 239.506V328.93Z" fill="#263238"/>
<path d="M237.96 323.47V234.046C243.317 228.078 247.048 219.695 247.095 212.43C247.095 208.671 246.155 205.701 244.482 203.746L236.832 222.965L229.031 227.401L225.178 221.762L232.894 202.346C232.412 202.571 231.923 202.825 231.428 203.107C222.716 208.06 215.601 220.259 215.536 230.362C215.489 237.768 219.238 241.959 224.671 241.743V331.167C219.314 337.125 215.583 345.509 215.536 352.783C215.536 356.542 216.475 359.512 218.158 361.476L225.798 342.247L233.599 337.821L237.452 343.46L229.736 362.867C230.225 362.642 230.676 362.397 231.202 362.115C239.915 357.162 247.029 344.963 247.095 334.86C247.142 327.445 243.392 323.254 237.96 323.47Z" fill="#37474F"/>
<path d="M231.937 338.761L233.6 337.821L237.454 343.441L229.738 362.849L225.922 360.649L233.638 341.233L231.937 338.761Z" fill="#263238"/>
<path d="M237.96 249.957C237.96 251.395 235.78 252.993 234.201 253.999C232.622 255.004 230.573 256.405 231.382 259.309C231.523 259.875 231.783 260.404 232.143 260.863C232.504 261.321 232.957 261.699 233.473 261.97C233.989 262.242 234.557 262.401 235.139 262.438C235.721 262.475 236.305 262.389 236.851 262.185C237.808 261.768 238.638 261.108 239.26 260.27C239.881 259.432 240.273 258.446 240.394 257.41C240.789 254.732 241.691 248.322 238.026 247.57L237.96 249.957Z" fill="#FFA8A7"/>
<path d="M150.398 257.645C156.751 229.121 160.736 222.872 169.57 219.61L168.367 236.753C168.367 236.753 160.078 255.22 158.828 261.799C157.728 267.541 156.497 274.759 156.695 279.656C156.732 280.524 157.091 281.348 157.7 281.967C159.326 283.659 159.787 285.078 160.858 286.958C161.685 288.433 162.578 288.969 162.334 289.307C162.017 289.675 161.569 289.906 161.086 289.952C160.602 289.998 160.12 289.854 159.74 289.552C158.868 288.93 158.076 288.204 157.381 287.39C157.613 289.296 158.149 291.152 158.969 292.888C160.849 296.864 160.445 298.922 154.994 297.587C151.573 296.76 149.355 293.978 148.706 285.83C148.399 282.83 148.308 279.812 148.434 276.798C148.998 269.045 149.373 262.231 150.398 257.645Z" fill="#FFA8A7"/>
<path d="M170.341 217.627C168.077 217.703 165.874 218.381 163.96 219.591C161.742 221.085 158.048 227.11 155.708 234.563C153.368 242.015 152.137 246.151 152.137 246.151C152.137 246.151 155.971 251.987 164.242 249.684C164.242 249.684 168.894 238.03 168.631 238.773C168.602 238.792 174.796 227.298 170.341 217.627Z" fill="#E6E6E6"/>
</svg>
