<svg width="140" height="141" viewBox="0 0 140 141" fill="none" xmlns="http://www.w3.org/2000/svg">
<path d="M45.6976 73.2876V70.2207H50.5456V73.2876L49.7516 73.9777L51.7783 85.2592L48.2127 97.2434L44.5645 85.2592L46.6273 73.9777L45.6976 73.2876Z" fill="#E7142D"/>
<path d="M41.6427 101.851H34.5722C34.3059 101.851 34.0898 101.635 34.0898 101.369V99.4404C34.0898 99.174 34.3059 98.958 34.5722 98.958H41.6427C41.9091 98.958 42.1251 99.174 42.1251 99.4404V101.369C42.1245 101.635 41.9085 101.851 41.6427 101.851Z" fill="#E7142D"/>
<path d="M54.7851 101.851H61.8556C62.122 101.851 62.338 101.635 62.338 101.369V99.4404C62.338 99.174 62.122 98.958 61.8556 98.958H54.7851C54.5188 98.958 54.3027 99.174 54.3027 99.4404V101.369C54.3027 101.635 54.5188 101.851 54.7851 101.851Z" fill="#E7142D"/>
<path d="M128.515 14.0801H11.1191C10.3639 14.0801 9.75195 14.692 9.75195 15.4473V89.5691C9.75195 90.3243 10.3639 90.9362 11.1191 90.9362H16.3145C17.0697 90.9362 17.6816 90.3243 17.6816 89.5691C17.6816 88.8138 17.0697 88.2019 16.3145 88.2019H12.4863V16.8145H127.148V88.2019H84.2735C83.5183 88.2019 82.9063 88.8138 82.9063 89.5691C82.9063 90.3243 83.5183 90.9362 84.2735 90.9362H128.515C129.27 90.9362 129.882 90.3243 129.882 89.5691V15.4473C129.882 14.692 129.27 14.0801 128.515 14.0801Z" fill="#505050"/>
<path d="M53.9526 50.0458C54.9263 50.0458 55.7157 49.2564 55.7157 48.2827C55.7157 47.3089 54.9263 46.5195 53.9526 46.5195C52.9788 46.5195 52.1895 47.3089 52.1895 48.2827C52.1895 49.2564 52.9788 50.0458 53.9526 50.0458Z" fill="#505050"/>
<path d="M42.2924 50.0458C43.2662 50.0458 44.0555 49.2564 44.0555 48.2827C44.0555 47.3089 43.2662 46.5195 42.2924 46.5195C41.3187 46.5195 40.5293 47.3089 40.5293 48.2827C40.5293 49.2564 41.3187 50.0458 42.2924 50.0458Z" fill="#505050"/>
<path d="M50.1641 55.0443C49.6178 55.5901 48.8926 55.8908 48.1221 55.8908C47.3515 55.8908 46.6263 55.5901 46.0806 55.0443C45.5463 54.51 44.6811 54.51 44.1468 55.0443C43.6125 55.578 43.6125 56.4437 44.1468 56.9775C45.2094 58.0401 46.6209 58.6252 48.1226 58.6252C49.6238 58.6252 51.0353 58.0406 52.0978 56.9775C52.6321 56.4432 52.6321 55.578 52.0978 55.0443C51.5641 54.5105 50.6978 54.5105 50.1641 55.0443Z" fill="#505050"/>
<path d="M48.1218 29.5391C39.298 29.5391 32.1191 36.5402 32.1191 45.1458C32.1191 45.551 32.2991 45.9355 32.6102 46.1952C32.9214 46.4561 33.331 46.5622 33.7308 46.4911C37.0733 45.8841 40.6181 44.6886 42.4791 40.7073C46.3428 44.4616 52.8282 46.846 59.0101 46.846C60.3669 46.8455 61.71 46.7306 63.0066 46.4905C63.6547 46.3702 64.1245 45.8053 64.1245 45.1463C64.1239 36.5396 56.9451 29.5391 48.1218 29.5391ZM43.0774 37.2347C42.8182 36.8694 42.4004 36.6588 41.9629 36.6588C41.877 36.6588 41.7906 36.667 41.7042 36.6834C41.1781 36.7852 40.7592 37.1844 40.6334 37.705C39.8798 40.8277 38.2873 42.4863 34.9733 43.41C35.8505 37.1297 41.4127 32.2734 48.1218 32.2734C55.0321 32.2734 60.7251 37.4255 61.3359 43.9777C54.4798 44.7805 46.3472 41.841 43.0774 37.2347Z" fill="#505050"/>
<path d="M35.0906 49.4873C34.9703 48.7414 34.2665 48.2306 33.5227 48.3558C32.7774 48.4761 32.2704 49.1778 32.3907 49.9232C33.7989 58.6485 40.4145 64.9819 48.1221 64.9819C55.8298 64.9819 62.4453 58.6485 63.8535 49.9232C63.9738 49.1778 63.4669 48.4761 62.7215 48.3558C61.9723 48.2306 61.2739 48.7425 61.1536 49.4873C59.9609 56.8816 54.4801 62.2475 48.1221 62.2475C41.7642 62.2475 36.2834 56.8816 35.0906 49.4873Z" fill="#505050"/>
<path d="M90.6481 78.6623L96.2301 73.0809C98.6451 70.6659 98.6451 66.736 96.2301 64.321C93.8145 61.9055 89.8852 61.9066 87.4708 64.321L81.8888 69.903L74.2391 77.5527L66.6141 69.9276C66.3576 69.6711 66.0103 69.5273 65.6472 69.5273H57.4162V66.8388C57.4162 66.3795 57.1859 65.9512 56.8026 65.698C56.4192 65.4443 55.9341 65.4011 55.5125 65.581L48.1215 68.7337L40.7305 65.581C40.3083 65.4022 39.8238 65.4448 39.4404 65.698C39.057 65.9512 38.8268 66.38 38.8268 66.8394V69.5278H28.5691C23.7259 69.5278 19.7852 73.4686 19.7852 78.3117V114.832C19.7852 118.247 22.5633 121.024 25.9774 121.024C28.405 121.024 30.5045 119.617 31.5195 117.578C35.9027 120.657 41.8291 122.397 48.1215 122.397L48.2084 122.397C48.2101 122.397 48.2112 122.397 48.2123 122.397C48.2134 122.397 48.215 122.397 48.2161 122.397L48.3031 122.397C55.402 122.397 62.0406 120.186 66.5156 116.332C66.8366 116.055 67.0051 115.651 66.9887 115.243V87.8459L70.1627 91.0506C72.3924 93.2797 76.028 93.2873 78.2674 91.0665L82.054 87.3094C82.1289 87.2351 82.1929 87.1519 82.247 87.0628L90.6465 78.6628C90.647 78.6628 90.6476 78.6628 90.6481 78.6623ZM89.404 66.2542C90.7526 64.9051 92.9472 64.9062 94.2963 66.2542C95.6455 67.6034 95.6455 69.798 94.2963 71.1471L89.6818 75.7616L84.7895 70.8693L89.404 66.2542ZM55.2686 86.3322L57.2548 87.9739L49.5795 97.8598V97.4425L57.0684 72.2622H62.1669L59.3308 82.3209L55.5721 84.0353C55.1434 84.2305 54.8453 84.633 54.7841 85.1001C54.7223 85.5666 54.9055 86.0319 55.2686 86.3322ZM41.6405 85.0995C41.5787 84.6325 41.2812 84.23 40.8524 84.0348L37.0938 82.3203L34.2577 72.2616H39.1806L46.8445 97.4458V97.8598L39.1691 87.9739L41.1554 86.3322C41.5191 86.0319 41.7023 85.5666 41.6405 85.0995ZM41.5612 68.9087L47.585 71.478C47.9279 71.6245 48.3151 71.6245 48.658 71.478L54.6818 68.9087V70.6959L48.1981 92.4977L41.5612 70.6916V68.9087ZM28.5691 72.2622H31.4166L34.6339 83.6727C34.7433 84.0594 35.0167 84.3787 35.3826 84.5455L37.7303 85.6163L36.4058 86.7112C35.8365 87.1815 35.7441 88.0198 36.1969 88.6034L46.8451 102.319V119.636C41.1297 119.404 35.8742 117.619 32.1697 114.647V88.1407C32.1697 87.3855 31.5577 86.7735 30.8025 86.7735C30.0473 86.7735 29.4353 87.3855 29.4353 88.1407V106.112H22.5195V78.3117C22.5195 74.9763 25.2337 72.2622 28.5691 72.2622ZM25.9774 118.29C24.071 118.29 22.5195 116.739 22.5195 114.833V108.846H29.4353V114.832C29.4353 116.739 27.8844 118.29 25.9774 118.29ZM80.0978 85.3456C80.0223 85.4211 79.9584 85.5031 79.9048 85.5906L76.3419 89.1256C75.1688 90.2894 73.2652 90.285 72.1014 89.1223L66.6212 83.588C66.3713 83.3205 66.0152 83.1532 65.6204 83.1532C65.0686 83.1532 64.5709 83.4846 64.3588 83.9943C64.2789 84.1857 64.245 84.388 64.2548 84.5871V114.655C60.5503 117.624 55.2921 119.403 49.5795 119.635V102.318L60.2277 88.6023C60.681 88.0187 60.5881 87.1804 60.0188 86.7101L58.6942 85.6152L61.042 84.5444C61.4078 84.3777 61.6813 84.0583 61.7906 83.6716L65.0079 72.2611H65.0801L72.4979 79.6789C72.9627 80.1443 73.5807 80.3997 74.2381 80.3997C74.8954 80.3997 75.5139 80.1437 75.9782 79.6789L82.8546 72.8025L87.747 77.6948L80.0978 85.3456Z" fill="#505050"/>
<path d="M105.148 47.588C104.363 48.1387 103.554 48.5494 102.785 48.7884L102.176 48.9771L100.639 50.5138L92.4802 58.6726L92.9013 59.0937L92.1155 59.8796C91.9667 60.0283 91.9667 60.2695 92.1155 60.4182L93.2295 61.5322C93.3782 61.681 93.6194 61.681 93.7681 61.5322L94.554 60.7464L94.9751 61.1675L103.134 53.0086L104.671 51.4719L104.86 50.8627C105.099 50.0927 105.51 49.2844 106.06 48.4991L106.184 48.3225L105.326 47.4639L105.148 47.588Z" fill="#E7142D"/>
<path d="M107.1 46.548C106.926 46.3746 106.645 46.3746 106.471 46.548L105.853 47.1665C105.778 47.2409 105.778 47.3612 105.853 47.4361L106.212 47.7954C106.286 47.8698 106.407 47.8698 106.482 47.7954L107.1 47.1769C107.273 47.003 107.273 46.7213 107.1 46.548Z" fill="#E7142D"/>
</svg>
