<svg width="140" height="141" viewBox="0 0 140 141" fill="none" xmlns="http://www.w3.org/2000/svg">
<path d="M81.6798 106.549H58.3184C57.9558 106.549 57.608 106.405 57.3516 106.148C57.0952 105.892 56.9512 105.544 56.9512 105.182C56.9512 104.819 57.0952 104.471 57.3516 104.215C57.608 103.958 57.9558 103.814 58.3184 103.814H81.6798C82.0424 103.814 82.3901 103.958 82.6465 104.215C82.9029 104.471 83.0469 104.819 83.0469 105.182C83.0469 105.544 82.9029 105.892 82.6465 106.148C82.3901 106.405 82.0424 106.549 81.6798 106.549Z" fill="#F1F1F1"/>
<path d="M89.1953 31.7295H117.607C117.97 31.7295 118.317 31.8735 118.574 32.1299C118.83 32.3863 118.974 32.7341 118.974 33.0967V92.7733C118.974 93.1359 119.118 93.4837 119.375 93.7401C119.631 93.9965 119.979 94.1405 120.341 94.1405C120.704 94.1405 121.052 93.9965 121.308 93.7401C121.565 93.4837 121.709 93.1359 121.709 92.7733V33.0967C121.707 32.0093 121.275 30.9668 120.506 30.1979C119.737 29.429 118.695 28.9964 117.607 28.9951H89.1953C88.8327 28.9951 88.485 29.1392 88.2286 29.3956C87.9722 29.652 87.8281 29.9997 87.8281 30.3623C87.8281 30.7249 87.9722 31.0727 88.2286 31.3291C88.485 31.5855 88.8327 31.7295 89.1953 31.7295Z" fill="#505050"/>
<path d="M19.6582 94.1405C20.0208 94.1405 20.3686 93.9965 20.625 93.7401C20.8813 93.4837 21.0254 93.1359 21.0254 92.7733V33.0967C21.0254 32.7341 21.1694 32.3863 21.4258 32.1299C21.6822 31.8735 22.03 31.7295 22.3926 31.7295H50.8044C51.167 31.7295 51.5147 31.5855 51.7711 31.3291C52.0275 31.0727 52.1716 30.7249 52.1716 30.3623C52.1716 29.9997 52.0275 29.652 51.7711 29.3956C51.5147 29.1392 51.167 28.9951 50.8044 28.9951H22.3926C21.3052 28.9964 20.2627 29.429 19.4938 30.1979C18.7249 30.9668 18.2923 32.0093 18.291 33.0967V92.7733C18.291 93.1359 18.4351 93.4837 18.6915 93.7401C18.9479 93.9965 19.2956 94.1405 19.6582 94.1405Z" fill="#505050"/>
<path d="M126.602 98.7217H13.3984C12.311 98.723 11.2685 99.1555 10.4996 99.9244C9.73072 100.693 9.29818 101.736 9.29688 102.823V107.904C9.29818 108.991 9.73072 110.034 10.4996 110.803C11.2685 111.571 12.311 112.004 13.3984 112.005H126.602C127.689 112.004 128.731 111.571 129.5 110.803C130.269 110.034 130.702 108.991 130.703 107.904V102.823C130.702 101.736 130.269 100.693 129.5 99.9244C128.731 99.1555 127.689 98.723 126.602 98.7217ZM127.969 107.906C127.969 108.269 127.825 108.617 127.568 108.873C127.312 109.13 126.964 109.274 126.602 109.274H13.3984C13.0358 109.274 12.6881 109.13 12.4317 108.873C12.1753 108.617 12.0312 108.269 12.0312 107.906V102.826C12.0312 102.463 12.1753 102.116 12.4317 101.859C12.6881 101.603 13.0358 101.459 13.3984 101.459H126.602C126.964 101.459 127.312 101.603 127.568 101.859C127.825 102.116 127.969 102.463 127.969 102.826V107.906Z" fill="#505050"/>
<path d="M49.7726 38.6817C48.9431 38.6853 48.1395 38.9713 47.4943 39.4927C46.8491 40.0141 46.4009 40.7398 46.2234 41.5501L35.8836 89.75C35.77 90.2792 35.7762 90.8272 35.9017 91.3537C36.0273 91.8802 36.2691 92.3719 36.6093 92.7929C36.9495 93.2139 37.3796 93.5535 37.8681 93.7867C38.3565 94.0199 38.891 94.1409 39.4323 94.1409H100.566C101.108 94.1409 101.642 94.0199 102.131 93.7867C102.619 93.5535 103.049 93.2139 103.389 92.7929C103.73 92.3719 103.971 91.8802 104.097 91.3537C104.222 90.8272 104.229 90.2792 104.115 89.75L93.7752 41.5501C93.5977 40.7398 93.1494 40.0141 92.5043 39.4927C91.8591 38.9713 91.0555 38.6853 90.226 38.6817H85.0931V27.6846C85.0912 26.0593 84.4447 24.5012 83.2954 23.352C82.1461 22.2028 80.5879 21.5564 78.9626 21.5547H61.036C59.4107 21.5564 57.8525 22.2028 56.7032 23.352C55.5539 24.5012 54.9074 26.0593 54.9055 27.6846V38.6817H49.7726ZM91.1016 42.1232L101.441 90.3231C101.469 90.4536 101.468 90.5887 101.437 90.7185C101.406 90.8483 101.346 90.9696 101.262 91.0734C101.178 91.1772 101.072 91.2609 100.952 91.3185C100.832 91.376 100.7 91.4059 100.566 91.4059H39.4323C39.2988 91.4059 39.1671 91.376 39.0466 91.3185C38.9262 91.2609 38.8202 91.1772 38.7363 91.0734C38.6524 90.9696 38.5928 90.8483 38.5618 90.7185C38.5309 90.5887 38.5293 90.4536 38.5573 90.3231L48.897 42.1232C48.9409 41.9235 49.0514 41.7446 49.2105 41.6161C49.3695 41.4876 49.5676 41.4171 49.772 41.4161H90.2255C90.4301 41.4168 90.6284 41.4872 90.7877 41.6158C90.947 41.7443 91.0577 41.9233 91.1016 42.1232ZM57.6399 27.6846C57.6411 26.7843 57.9993 25.9212 58.6359 25.2847C59.2726 24.6481 60.1357 24.2901 61.036 24.2891H78.9626C79.8629 24.2901 80.726 24.6481 81.3627 25.2847C81.9993 25.9212 82.3575 26.7843 82.3587 27.6846V38.6817H57.6399V27.6846Z" fill="#505050"/>
<path d="M71.3902 88.2986H69.3553C68.5857 88.2977 67.8479 87.9916 67.3037 87.4474C66.7595 86.9032 66.4534 86.1654 66.4525 85.3958V84.2074C66.4513 84.17 66.4377 84.134 66.4138 84.1051C66.39 84.0762 66.3572 84.056 66.3207 84.0477C64.3045 83.5705 62.4633 82.5358 61.0073 81.0618C58.9931 78.9837 57.9727 76.1995 57.9727 72.7865C57.9735 72.0168 58.2796 71.2789 58.8238 70.7346C59.368 70.1904 60.1058 69.8841 60.8755 69.8831H63.2921C64.0618 69.8841 64.7996 70.1904 65.3438 70.7346C65.888 71.2789 66.1941 72.0168 66.1949 72.7865C66.1949 74.0935 66.4984 74.998 67.1492 75.6302C67.8142 76.2761 68.8259 76.5905 70.2412 76.5905C71.2403 76.6564 72.2294 76.358 73.0254 75.7505C73.2893 75.5394 73.498 75.2675 73.6339 74.9581C73.7697 74.6486 73.8285 74.3109 73.8052 73.9737C73.8268 73.6842 73.7864 73.3934 73.6866 73.1208C73.5868 72.8481 73.43 72.5999 73.2266 72.3927C72.9308 72.1029 71.9459 71.3258 69.1913 70.3693C65.7049 69.2755 63.221 67.9133 61.634 66.213C59.8734 64.2889 58.935 61.7525 59.0194 59.1458C58.9752 57.7896 59.2049 56.4384 59.6946 55.1729C60.1843 53.9074 60.9241 52.7536 61.8697 51.7805C63.1235 50.5192 64.6791 49.5995 66.3885 49.109C66.4235 49.0996 66.4546 49.0791 66.4771 49.0506C66.4995 49.0222 66.5122 48.9872 66.5132 48.9509V47.4262C66.5141 46.6566 66.8202 45.9188 67.3644 45.3746C67.9086 44.8304 68.6464 44.5243 69.416 44.5234H71.4701C72.24 44.5239 72.9783 44.8298 73.523 45.374C74.0676 45.9182 74.3741 46.6563 74.3751 47.4262V48.9958C74.3767 49.0322 74.39 49.0671 74.4129 49.0955C74.4358 49.1238 74.4672 49.1441 74.5025 49.1533C76.3332 49.7242 77.9605 50.8107 79.1898 52.2825C80.9272 54.3606 81.8082 57.1207 81.8082 60.4796C81.8072 61.2492 81.5009 61.987 80.9566 62.5311C80.4123 63.0752 79.6745 63.3811 78.9048 63.3819H76.5079C75.7384 63.381 75.0006 63.075 74.4564 62.5309C73.9123 61.9868 73.6061 61.2491 73.6051 60.4796C73.6051 59.0895 73.3048 58.0734 72.6874 57.3706C72.356 56.9944 71.7577 56.4929 70.384 56.4929C69.2323 56.4929 68.4234 56.7264 67.9116 57.2082C67.6629 57.4516 67.4721 57.7476 67.3531 58.0745C67.2342 58.4014 67.1901 58.7509 67.2241 59.0971C67.2241 60.1312 67.5326 60.537 67.7645 60.7525C68.0691 61.033 69.0687 61.7888 71.7315 62.6939C73.7868 63.32 75.7516 64.2118 77.5759 65.3468C78.9615 66.2692 80.101 67.5159 80.8955 68.9786C81.6744 70.5124 82.0636 72.2145 82.0286 73.9344C82.0747 75.3033 81.838 76.6671 81.3332 77.9404C80.8283 79.2137 80.0663 80.3692 79.0946 81.3347C77.7896 82.5943 76.1862 83.502 74.4347 83.9728C74.3965 83.981 74.3621 84.0015 74.3367 84.0311C74.3113 84.0608 74.2964 84.0979 74.2941 84.1369V85.3947C74.2936 86.1647 73.9874 86.903 73.443 87.4474C72.8985 87.9919 72.1602 88.298 71.3902 88.2986ZM60.8755 72.6175C60.8308 72.6178 60.788 72.6357 60.7565 72.6673C60.7249 72.699 60.7072 72.7418 60.707 72.7865C60.707 75.4662 61.4683 77.6088 62.9705 79.1592C64.0759 80.2673 65.4701 81.043 66.9945 81.3981C67.6206 81.5554 68.1762 81.9171 68.5734 82.426C68.9706 82.9349 69.1865 83.5619 69.1869 84.2074V85.3958C69.1869 85.4405 69.2046 85.4833 69.2362 85.5149C69.2678 85.5465 69.3106 85.5642 69.3553 85.5642H71.3902C71.4349 85.5642 71.4778 85.5465 71.5093 85.5149C71.5409 85.4833 71.5587 85.4405 71.5587 85.3958V84.138C71.5631 83.5039 71.7736 82.8885 72.1582 82.3844C72.5429 81.8804 73.0811 81.515 73.6915 81.3434C75.0012 80.9961 76.2013 80.3221 77.1795 79.3845C77.887 78.6703 78.4399 77.8181 78.8036 76.8809C79.1674 75.9437 79.3342 74.9416 79.2937 73.9371C79.3268 72.6639 79.047 71.402 78.4788 70.2621C77.89 69.1901 77.0487 68.2778 76.0277 67.6043C74.4084 66.6128 72.6684 65.8333 70.8505 65.285C68.5284 64.4959 66.8654 63.6471 65.9067 62.7612C65.4234 62.2864 65.0469 61.714 64.8024 61.0821C64.5578 60.4503 64.4509 59.7736 64.4887 59.0971C64.4572 58.377 64.5791 57.6584 64.8464 56.989C65.1137 56.3196 65.5203 55.7147 66.0391 55.2143C67.0781 54.2348 68.5 53.7574 70.3829 53.7574C71.1971 53.7186 72.0098 53.8602 72.7628 54.1722C73.5159 54.4842 74.1906 54.9588 74.7387 55.5621C75.8155 56.7855 76.3384 58.3933 76.3384 60.478C76.3385 60.5225 76.3563 60.5652 76.3879 60.5967C76.4195 60.6282 76.4622 60.6459 76.5068 60.6459H78.9038C78.9259 60.6459 78.9478 60.6416 78.9682 60.6332C78.9887 60.6248 79.0073 60.6125 79.023 60.5969C79.0387 60.5813 79.0512 60.5628 79.0597 60.5424C79.0682 60.522 79.0727 60.5001 79.0727 60.478C79.0727 57.7775 78.405 55.6108 77.0892 54.0336C76.1903 52.9603 75.0009 52.1691 73.6636 51.7548C73.0769 51.569 72.5646 51.2013 72.2009 50.705C71.8371 50.2087 71.6407 49.6095 71.6402 48.9941V47.4246C71.64 47.3799 71.6221 47.337 71.5905 47.3055C71.5588 47.2739 71.5159 47.2562 71.4712 47.2562H69.4171C69.395 47.2562 69.3731 47.2605 69.3526 47.269C69.3322 47.2775 69.3136 47.2899 69.298 47.3055C69.2824 47.3211 69.27 47.3397 69.2615 47.3602C69.253 47.3806 69.2487 47.4025 69.2487 47.4246V48.9531C69.2505 49.5789 69.0488 50.1884 68.6739 50.6895C68.2991 51.1906 67.7714 51.5563 67.1705 51.7312C65.9036 52.0911 64.7496 52.7688 63.8182 53.7C63.1265 54.4229 62.5873 55.2775 62.2329 56.2131C61.8784 57.1487 61.7158 58.1461 61.7548 59.1458C61.6801 61.058 62.354 62.924 63.6334 64.3471C64.8912 65.6919 66.9873 66.8124 70.0488 67.7722C72.4973 68.6198 74.1946 69.508 75.1407 70.4366C75.6139 70.9395 75.9812 71.5324 76.2207 72.1801C76.4603 72.8278 76.5672 73.517 76.5351 74.2068C76.503 74.8967 76.3326 75.573 76.0339 76.1956C75.7353 76.8183 75.3146 77.3746 74.7967 77.8314C73.5128 78.8701 71.8919 79.4007 70.2423 79.3222C68.0794 79.3222 66.4448 78.7551 65.2445 77.588C64.0616 76.4396 63.4616 74.8203 63.4616 72.7827C63.4616 72.7379 63.4439 72.695 63.4123 72.6634C63.3808 72.6317 63.3379 72.6138 63.2932 72.6137L60.8755 72.6175Z" fill="#E7142D"/>
</svg>
