<svg width="140" height="141" viewBox="0 0 140 141" fill="none" xmlns="http://www.w3.org/2000/svg">
<path d="M71.5858 113.253C71.5628 113.253 71.5404 113.253 71.5174 113.253C71.3267 113.244 71.14 113.194 70.9696 113.108C70.7991 113.022 70.6485 112.901 70.5276 112.753L68.182 109.887C68.0684 109.748 67.9832 109.588 67.9313 109.416C67.8795 109.244 67.862 109.064 67.8798 108.885C67.8977 108.706 67.9506 108.533 68.0355 108.375C68.1204 108.216 68.2356 108.076 68.3745 107.963C68.5135 107.849 68.6735 107.764 68.8454 107.712C69.0173 107.66 69.1977 107.643 69.3764 107.661C69.555 107.678 69.7284 107.731 69.8866 107.816C70.0448 107.901 70.1848 108.016 70.2985 108.155L71.687 109.851L74.919 106.619C75.1768 106.37 75.5222 106.232 75.8807 106.235C76.2392 106.239 76.5821 106.382 76.8355 106.636C77.089 106.889 77.2328 107.232 77.2359 107.591C77.239 107.949 77.1012 108.294 76.8522 108.552L72.5521 112.852C72.296 113.109 71.9484 113.253 71.5858 113.253Z" fill="#E7142D"/>
<path d="M31.0244 46.0983C31.3774 47.1906 31.9838 48.1838 32.7941 48.9967L53.1876 69.3903C53.4444 69.6448 53.7915 69.7873 54.1531 69.7866C54.5146 69.7859 54.8612 69.6419 55.1169 69.3863C55.3726 69.1307 55.5166 68.7842 55.5175 68.4226C55.5183 68.061 55.3759 67.7139 55.1214 67.4571L35.6942 48.0288L44.9539 38.7669L67.6492 61.4622C67.9071 61.7113 68.2524 61.8491 68.6109 61.8459C68.9694 61.8428 69.3123 61.699 69.5658 61.4456C69.8192 61.1921 69.963 60.8492 69.9661 60.4907C69.9693 60.1322 69.8315 59.7869 69.5824 59.529L45.923 35.8668C45.1104 35.0558 44.1171 34.4491 43.0245 34.0966L30.7986 30.1591C30.282 29.9938 29.7298 29.9739 29.2027 30.1017C28.6756 30.2295 28.1938 30.5 27.8103 30.8835C27.4267 31.267 27.1562 31.7488 27.0284 32.2759C26.9007 32.8031 26.9205 33.3552 27.0858 33.8718L31.0244 46.0983ZM42.8665 36.9896L33.9174 45.9386C33.802 45.7208 33.7048 45.4938 33.627 45.2599L31.5489 38.8068L35.7341 34.6216L42.1872 36.6997C42.4212 36.7777 42.6483 36.8746 42.8665 36.9896ZM29.7415 32.8153C29.7683 32.7853 29.8034 32.764 29.8424 32.7543C29.8814 32.7445 29.9225 32.7467 29.9602 32.7606L32.8072 33.6777L30.6066 35.8832L29.6895 33.0351C29.675 32.9974 29.6723 32.9562 29.6818 32.9169C29.6913 32.8776 29.7125 32.8422 29.7426 32.8153H29.7415Z" fill="#505050"/>
<path d="M112.73 102.674L82.5575 72.5014C82.4314 72.3708 82.2806 72.2666 82.1138 72.195C81.947 72.1233 81.7676 72.0856 81.586 72.084C81.4045 72.0825 81.2245 72.117 81.0564 72.1858C80.8884 72.2545 80.7358 72.3561 80.6074 72.4844C80.479 72.6128 80.3775 72.7654 80.3088 72.9335C80.24 73.1015 80.2054 73.2815 80.207 73.463C80.2086 73.6446 80.2463 73.824 80.318 73.9908C80.3896 74.1576 80.4938 74.3085 80.6243 74.4346L105.478 99.2889L96.2163 108.551L74.8428 87.18C74.7167 87.0495 74.5658 86.9453 74.399 86.8737C74.2322 86.802 74.0528 86.7643 73.8713 86.7627C73.6897 86.7611 73.5097 86.7957 73.3417 86.8645C73.1736 86.9332 73.021 87.0347 72.8926 87.1631C72.7643 87.2915 72.6627 87.4441 72.594 87.6121C72.5253 87.7802 72.4907 87.9602 72.4922 88.1417C72.4938 88.3233 72.5315 88.5027 72.6032 88.6695C72.6748 88.8363 72.779 88.9871 72.9096 89.1132L99.6009 115.805C101.046 117.247 103.004 118.056 105.046 118.056C107.087 118.056 109.045 117.247 110.491 115.805L112.73 113.566C114.172 112.12 114.982 110.162 114.982 108.12C114.982 106.078 114.172 104.119 112.73 102.674ZM110.798 111.63L108.555 113.868C107.623 114.797 106.361 115.319 105.044 115.319C103.728 115.319 102.465 114.797 101.533 113.868L98.1479 110.483L107.41 101.221L110.795 104.605C111.726 105.536 112.249 106.8 112.249 108.117C112.249 109.434 111.726 110.697 110.795 111.628L110.798 111.63Z" fill="#505050"/>
<path d="M70.4227 84.9185L75.2636 80.0781C75.7535 79.5881 76.0287 78.9236 76.0287 78.2308C76.0287 77.5379 75.7535 76.8735 75.2636 76.3835L74.0605 75.1803L101.418 47.8185L104.212 47.1743C105.445 46.8908 106.529 46.1584 107.251 45.1197L113.933 35.5335C114.284 35.0306 114.447 34.42 114.393 33.809C114.338 33.198 114.071 32.6255 113.637 32.1921L110.298 28.8562C109.865 28.4219 109.293 28.1541 108.682 28.1C108.071 28.0459 107.46 28.2089 106.957 28.5603L97.3705 35.241C96.332 35.9639 95.5996 37.0473 95.3159 38.2805L94.6711 41.075L67.3121 68.4341L66.109 67.231C65.6188 66.7419 64.9546 66.4672 64.2622 66.4672C63.5697 66.4672 62.9055 66.7419 62.4154 67.231L57.5744 72.0719C56.8835 71.9948 56.1841 72.0741 55.5279 72.304C54.8718 72.5338 54.2758 72.9083 53.784 73.3997L26.3757 100.8C25.5049 101.671 25.0156 102.853 25.0156 104.084C25.0156 105.316 25.5049 106.497 26.3757 107.368L35.1219 116.114C35.5531 116.545 36.065 116.887 36.6284 117.121C37.1919 117.354 37.7958 117.474 38.4056 117.474C39.0155 117.474 39.6194 117.354 40.1828 117.121C40.7463 116.887 41.2582 116.545 41.6893 116.114L69.0949 88.7106C69.5864 88.2185 69.961 87.6222 70.1908 86.9658C70.4207 86.3094 70.4999 85.6097 70.4227 84.9185ZM97.9808 38.8903C98.1121 38.3179 98.4519 37.8151 98.934 37.4799L108.437 30.8572L111.631 34.051L105.008 43.5535C104.673 44.0356 104.17 44.3757 103.598 44.5078L101.16 45.0699L97.4181 41.3282L97.9808 38.8903ZM95.9153 43.6924L98.7951 46.5728L72.1251 73.2449L69.2453 70.3645L95.9153 43.6924ZM64.2578 69.2462L73.2424 78.2303L69.2059 82.2667C69.1676 82.2252 69.1332 82.182 69.0933 82.1415L60.3471 73.3953C60.3066 73.3549 60.2629 73.3204 60.2218 73.2821L64.2578 69.2462ZM67.16 86.7763L39.7578 114.181C39.394 114.528 38.9103 114.722 38.4073 114.722C37.9042 114.722 37.4205 114.528 37.0568 114.181L28.3095 105.435C28.1321 105.258 27.9914 105.047 27.8954 104.815C27.7994 104.584 27.75 104.335 27.75 104.084C27.75 103.833 27.7994 103.585 27.8954 103.353C27.9914 103.122 28.1321 102.911 28.3095 102.734L55.7145 75.3285C56.0732 74.9715 56.5587 74.7711 57.0647 74.7711C57.5708 74.7711 58.0563 74.9715 58.415 75.3285L67.1617 84.0747C67.519 84.4334 67.7196 84.9191 67.7196 85.4255C67.7196 85.9318 67.519 86.4175 67.1617 86.7763H67.16Z" fill="#505050"/>
<path d="M72.4265 99.29C70.3944 99.2901 68.4079 99.8928 66.7183 101.022C65.0287 102.151 63.7119 103.756 62.9343 105.633C62.1567 107.511 61.9533 109.576 62.3498 111.57C62.7464 113.563 63.725 115.393 65.1619 116.83C66.5989 118.267 68.4297 119.246 70.4227 119.642C72.4158 120.038 74.4817 119.835 76.3591 119.057C78.2365 118.28 79.8412 116.963 80.9702 115.273C82.0991 113.583 82.7017 111.597 82.7017 109.565C82.6985 106.841 81.6149 104.229 79.6886 102.303C77.7623 100.377 75.1506 99.2931 72.4265 99.29ZM72.4265 117.105C70.9352 117.105 69.4774 116.663 68.2375 115.834C66.9975 115.005 66.0312 113.828 65.4605 112.45C64.8899 111.072 64.7407 109.556 65.0317 108.093C65.3227 106.631 66.0409 105.287 67.0954 104.233C68.15 103.178 69.4935 102.46 70.9562 102.169C72.4189 101.878 73.9349 102.028 75.3127 102.598C76.6905 103.169 77.8681 104.136 78.6966 105.376C79.5251 106.616 79.9673 108.073 79.9673 109.565C79.9656 111.564 79.1705 113.481 77.7567 114.895C76.3429 116.309 74.4259 117.103 72.4265 117.105Z" fill="#505050"/>
<path d="M60.0441 39.3204L61.9495 39.8126L60.9487 41.5079C60.6607 41.9982 60.5435 42.5702 60.6154 43.1343C60.6872 43.6983 60.944 44.2226 61.3457 44.6251L63.2729 46.5529C63.6757 46.9551 64.2007 47.2122 64.7655 47.2839C65.3302 47.3555 65.9028 47.2377 66.3934 46.9488L68.0887 45.948L68.5809 47.855C68.7238 48.4059 69.0455 48.8939 69.4957 49.2423C69.9458 49.5907 70.4988 49.7798 71.068 49.78H73.792C74.3614 49.7797 74.9145 49.5905 75.3647 49.2418C75.8148 48.8932 76.1365 48.405 76.2792 47.8539L76.7714 45.948L78.4667 46.9493C78.957 47.2373 79.529 47.3545 80.0931 47.2827C80.6571 47.2108 81.1814 46.954 81.5839 46.5523L83.5105 44.6251C83.9128 44.2223 84.1699 43.6973 84.2416 43.1325C84.3132 42.5678 84.1954 41.9952 83.9065 41.5047L82.9068 39.8093L84.8132 39.3172C85.3641 39.1743 85.852 38.8526 86.2003 38.4026C86.5487 37.9525 86.7379 37.3996 86.7382 36.8305V34.1093C86.7379 33.5401 86.5487 32.9872 86.2003 32.5372C85.852 32.0872 85.3641 31.7655 84.8132 31.6226L82.9079 31.1304L83.9087 29.4351C84.1966 28.9448 84.3138 28.3728 84.242 27.8088C84.1702 27.2447 83.9133 26.7204 83.5116 26.3179L81.585 24.3918C81.1822 23.9893 80.6572 23.7319 80.0923 23.66C79.5274 23.5882 78.9547 23.7059 78.464 23.9948L76.7687 24.995L76.2765 23.0881C76.1336 22.5372 75.8119 22.0493 75.3619 21.7009C74.9119 21.3526 74.359 21.1634 73.7898 21.1631H71.0659C70.4969 21.1631 69.9441 21.3519 69.494 21.6999C69.0439 22.0479 68.722 22.5353 68.5787 23.0859L68.0865 24.9912L66.3912 23.9904C65.9008 23.7026 65.3288 23.5854 64.7647 23.6574C64.2007 23.7293 63.6764 23.9863 63.274 24.388L61.3479 26.3136C60.9454 26.7164 60.6881 27.2414 60.6164 27.8063C60.5446 28.3712 60.6624 28.9439 60.9514 29.4346L61.9511 31.1299L60.0447 31.6221C59.4937 31.7649 59.0057 32.0865 58.6572 32.5365C58.3087 32.9865 58.1195 33.5395 58.1191 34.1087V36.8327C58.1192 37.402 58.3083 37.9552 58.6567 38.4054C59.0051 38.8557 59.4931 39.1775 60.0441 39.3204ZM60.8519 34.2345L64.3923 33.3223C64.5975 33.2693 64.7875 33.1694 64.9474 33.0304C65.1072 32.8915 65.2327 32.7172 65.3137 32.5215C65.3947 32.3258 65.4292 32.1139 65.4143 31.9025C65.3994 31.6912 65.3356 31.4862 65.228 31.3038L63.3686 28.1554L65.1131 26.4109L68.2615 28.2703C68.444 28.378 68.6491 28.4419 68.8605 28.4568C69.0719 28.4717 69.2839 28.4372 69.4797 28.3561C69.6755 28.275 69.8498 28.1495 69.9888 27.9895C70.1278 27.8295 70.2277 27.6393 70.2805 27.4341L71.1927 23.8936H73.6597L74.5719 27.4341C74.6248 27.6393 74.7246 27.8295 74.8636 27.9895C75.0026 28.1495 75.1769 28.275 75.3727 28.3561C75.5685 28.4372 75.7805 28.4717 75.9919 28.4568C76.2034 28.4419 76.4084 28.378 76.5909 28.2703L79.7393 26.4109L81.4838 28.1554L79.6245 31.3038C79.5168 31.4862 79.453 31.6912 79.4381 31.9025C79.4233 32.1139 79.4577 32.3258 79.5387 32.5215C79.6198 32.7172 79.7452 32.8915 79.9051 33.0304C80.065 33.1694 80.255 33.2693 80.4601 33.3223L84 34.2345V36.7031L80.4606 37.6147C80.2554 37.6676 80.0652 37.7675 79.9052 37.9065C79.7452 38.0455 79.6197 38.2197 79.5386 38.4156C79.4575 38.6114 79.423 38.8234 79.4379 39.0348C79.4528 39.2462 79.5167 39.4513 79.6245 39.6338L81.4838 42.7816L79.7393 44.5267L76.5909 42.6673C76.4084 42.5596 76.2033 42.4957 75.9918 42.4809C75.7804 42.466 75.5684 42.5005 75.3725 42.5816C75.1767 42.6628 75.0024 42.7884 74.8635 42.9485C74.7245 43.1085 74.6247 43.2987 74.5719 43.504L73.6597 47.0439H71.1927L70.2805 43.504C70.2277 43.2987 70.1279 43.1085 69.9889 42.9485C69.85 42.7884 69.6757 42.6628 69.4799 42.5816C69.2841 42.5005 69.072 42.466 68.8606 42.4809C68.6491 42.4957 68.444 42.5596 68.2615 42.6673L65.1131 44.5267L63.3686 42.7816L65.228 39.6338C65.3357 39.4513 65.3996 39.2462 65.4145 39.0348C65.4294 38.8234 65.3949 38.6114 65.3138 38.4156C65.2327 38.2197 65.1072 38.0455 64.9472 37.9065C64.7872 37.7675 64.597 37.6676 64.3918 37.6147L60.8519 36.7031V34.2345Z" fill="#505050"/>
<path d="M72.4279 41.015C71.3316 41.015 70.2599 40.6899 69.3484 40.0808C68.4368 39.4718 67.7263 38.6061 67.3068 37.5932C66.8872 36.5804 66.7774 35.4659 66.9912 34.3906C67.2051 33.3154 67.733 32.3277 68.5081 31.5525C69.2833 30.7772 70.2709 30.2492 71.3461 30.0353C72.4214 29.8213 73.5359 29.931 74.5488 30.3505C75.5617 30.77 76.4274 31.4804 77.0366 32.3918C77.6457 33.3033 77.9709 34.375 77.971 35.4713C77.9696 36.941 77.3851 38.3502 76.3459 39.3895C75.3067 40.4288 73.8976 41.0134 72.4279 41.015ZM72.4279 32.6631C71.8724 32.6631 71.3293 32.8278 70.8674 33.1365C70.4055 33.4451 70.0455 33.8838 69.8329 34.3971C69.6203 34.9104 69.5647 35.4751 69.6731 36.02C69.7816 36.5649 70.0491 37.0653 70.442 37.4581C70.8349 37.8509 71.3354 38.1184 71.8803 38.2267C72.4251 38.335 72.9899 38.2793 73.5031 38.0666C74.0164 37.854 74.455 37.4939 74.7635 37.0319C75.0721 36.5699 75.2367 36.0268 75.2366 35.4713C75.2359 34.7266 74.9397 34.0127 74.4131 33.4862C73.8865 32.9597 73.1725 32.6637 72.4279 32.6631Z" fill="#E7142D"/>
</svg>
