<svg width="140" height="141" viewBox="0 0 140 141" fill="none" xmlns="http://www.w3.org/2000/svg">
<path d="M70.0004 60.492C67.7807 60.4921 65.6109 59.8339 63.7653 58.6008C61.9197 57.3677 60.4812 55.615 59.6317 53.5643C58.7822 51.5137 58.56 49.2571 58.993 47.0801C59.426 44.9031 60.4948 42.9034 62.0644 41.3339C63.6339 39.7644 65.6336 38.6955 67.8106 38.2625C69.9876 37.8295 72.2441 38.0518 74.2948 38.9012C76.3455 39.7507 78.0982 41.1892 79.3313 43.0348C80.5644 44.8804 81.2225 47.0503 81.2224 49.2699C81.219 52.2451 80.0355 55.0975 77.9317 57.2013C75.8279 59.3051 72.9756 60.4885 70.0004 60.492ZM70.0004 40.5588C68.2775 40.5587 66.5932 41.0695 65.1606 42.0266C63.728 42.9838 62.6114 44.3442 61.952 45.936C61.2926 47.5277 61.12 49.2792 61.4561 50.9691C61.7922 52.6589 62.6218 54.2111 63.84 55.4294C65.0583 56.6477 66.6104 57.4775 68.3002 57.8136C69.99 58.1498 71.7416 57.9773 73.3334 57.318C74.9251 56.6587 76.2857 55.5422 77.2429 54.1096C78.2001 52.6771 78.711 50.9928 78.711 49.2699C78.7085 46.9604 77.79 44.7463 76.157 43.1132C74.524 41.4801 72.3099 40.5615 70.0004 40.5588Z" fill="#E7142D"/>
<path d="M97.1699 103.165C95.6991 103.174 94.2289 103.101 92.7664 102.945C92.4883 102.911 92.2297 102.785 92.0316 102.586C91.8336 102.388 91.7075 102.13 91.6734 101.851C91.6141 101.37 90.2785 89.9514 94.9659 80.5692C95.0374 80.4182 95.1384 80.2831 95.2629 80.1717C95.3874 80.0602 95.5328 79.9748 95.6908 79.9203C95.8487 79.8658 96.0159 79.8433 96.1826 79.8543C96.3493 79.8652 96.5122 79.9093 96.6616 79.9839C96.8111 80.0586 96.9441 80.1623 97.053 80.289C97.1618 80.4158 97.2443 80.5629 97.2956 80.722C97.3468 80.881 97.3658 81.0486 97.3515 81.215C97.3372 81.3815 97.2898 81.5434 97.2121 81.6913C93.6278 88.8664 93.8719 97.6137 94.0773 100.54C97.0061 100.744 105.766 100.984 112.927 97.4063C113.225 97.2605 113.568 97.2383 113.882 97.3445C114.195 97.4506 114.455 97.6765 114.603 97.9729C114.751 98.2693 114.776 98.6123 114.672 98.927C114.568 99.2417 114.344 99.5026 114.049 99.653C108.154 102.596 101.455 103.165 97.1699 103.165Z" fill="#E7142D"/>
<path d="M106.543 93.7441C105.087 93.7539 103.632 93.6818 102.184 93.5281C101.906 93.494 101.647 93.3679 101.449 93.1698C101.251 92.9718 101.125 92.7131 101.091 92.4351C100.636 87.754 100.901 83.031 101.875 78.4299C101.911 78.2688 101.977 78.1163 102.072 77.981C102.166 77.8457 102.286 77.7303 102.425 77.6414C102.564 77.5525 102.719 77.4919 102.881 77.4629C103.043 77.4339 103.21 77.4372 103.371 77.4726C103.532 77.5079 103.685 77.5746 103.82 77.669C103.955 77.7633 104.071 77.8833 104.159 78.0222C104.248 78.1611 104.309 78.3161 104.338 78.4785C104.367 78.6408 104.364 78.8073 104.328 78.9684C103.498 82.9632 103.218 87.0529 103.496 91.1236C107.558 91.4001 111.64 91.1215 115.627 90.2954C115.953 90.2241 116.293 90.285 116.573 90.4647C116.854 90.6444 117.051 90.9281 117.123 91.2535C117.194 91.5789 117.133 91.9192 116.953 92.1997C116.774 92.4802 116.49 92.6778 116.165 92.749C113.002 93.4202 109.777 93.7537 106.543 93.7441Z" fill="#E7142D"/>
<path d="M83.5035 112.371C83.2552 112.371 83.0125 112.297 82.8061 112.159C82.5996 112.021 82.4387 111.825 82.3437 111.596C82.2486 111.366 82.2237 111.114 82.2721 110.87C82.3205 110.627 82.44 110.403 82.6155 110.227L115.766 77.0767C115.882 76.9568 116.021 76.8611 116.174 76.7953C116.327 76.7295 116.492 76.6949 116.659 76.6934C116.825 76.692 116.991 76.7237 117.145 76.7869C117.299 76.85 117.439 76.9432 117.557 77.0611C117.675 77.179 117.768 77.3193 117.832 77.4736C117.895 77.6279 117.927 77.7932 117.925 77.96C117.924 78.1267 117.889 78.2915 117.823 78.4447C117.757 78.5979 117.662 78.7365 117.542 78.8523L84.391 112.003C84.2746 112.12 84.1363 112.212 83.984 112.275C83.8317 112.339 83.6684 112.371 83.5035 112.371Z" fill="#E7142D"/>
<path d="M42.8302 103.165C38.5453 103.165 31.8463 102.598 25.9535 99.6529C25.6582 99.5026 25.4344 99.2416 25.3307 98.9269C25.227 98.6122 25.2518 98.2693 25.3999 97.9729C25.5479 97.6764 25.8072 97.4505 26.121 97.3444C26.4349 97.2383 26.778 97.2605 27.0756 97.4062C34.2502 100.991 42.998 100.745 45.9243 100.541C46.1252 97.6126 46.3673 88.8518 42.7906 81.6912C42.6498 81.3944 42.6309 81.0541 42.7381 80.7435C42.8453 80.4329 43.07 80.1767 43.364 80.0298C43.6579 79.883 43.9977 79.8572 44.3105 79.958C44.6232 80.0589 44.884 80.2783 45.0368 80.5691C49.7241 89.9513 48.3885 101.37 48.3292 101.851C48.2952 102.129 48.169 102.388 47.971 102.586C47.7729 102.784 47.5143 102.911 47.2363 102.945C45.7729 103.101 44.3019 103.174 42.8302 103.165Z" fill="#E7142D"/>
<path d="M33.4581 93.7436C30.2248 93.7537 26.9996 93.4203 23.8368 92.749C23.5114 92.6778 23.2277 92.4802 23.048 92.1997C22.8683 91.9192 22.8074 91.5789 22.8787 91.2535C22.95 90.9281 23.1476 90.6444 23.428 90.4647C23.7085 90.285 24.0489 90.2241 24.3742 90.2954C28.3617 91.1215 32.4432 91.4001 36.5059 91.1236C36.7837 87.0529 36.5035 82.9632 35.6731 78.9684C35.6378 78.8073 35.6345 78.6408 35.6635 78.4785C35.6925 78.3161 35.7531 78.1611 35.842 78.0222C35.9309 77.8833 36.0463 77.7633 36.1816 77.669C36.3169 77.5747 36.4694 77.5079 36.6305 77.4726C36.7916 77.4372 36.958 77.4339 37.1204 77.4629C37.2827 77.4919 37.4378 77.5525 37.5767 77.6414C37.7156 77.7303 37.8356 77.8457 37.9299 77.981C38.0242 78.1163 38.0909 78.2688 38.1263 78.4299C39.1 83.0309 39.364 87.7538 38.9093 92.4346C38.8751 92.7127 38.7489 92.9713 38.5508 93.1693C38.3526 93.3674 38.0939 93.4935 37.8159 93.5276C36.3685 93.6812 34.9136 93.7533 33.4581 93.7436Z" fill="#E7142D"/>
<path d="M56.4963 112.37C56.3314 112.37 56.1681 112.338 56.0158 112.275C55.8635 112.212 55.7251 112.119 55.6087 112.002L22.458 78.8517C22.2292 78.6149 22.1027 78.2977 22.1055 77.9684C22.1084 77.6392 22.2404 77.3242 22.4733 77.0914C22.7061 76.8586 23.021 76.7265 23.3503 76.7237C23.6795 76.7208 23.9967 76.8474 24.2335 77.0761L57.3843 110.227C57.5598 110.403 57.6793 110.626 57.7276 110.87C57.776 111.113 57.7511 111.366 57.6561 111.595C57.561 111.824 57.4001 112.021 57.1937 112.158C56.9872 112.296 56.7445 112.37 56.4963 112.37Z" fill="#E7142D"/>
<path d="M117.9 77.8115C117.866 77.5334 117.74 77.2747 117.542 77.0766C117.344 76.8784 117.085 76.7522 116.807 76.718C116.092 76.6306 99.1686 74.6727 89.6905 84.1518C81.4591 92.3832 81.8519 106.222 82.1563 110.192C77.1942 111.891 73.51 113.963 71.2567 116.272V81.4138H73.2523C74.1661 81.4137 75.0539 81.11 75.7764 80.5505C76.4989 79.9911 77.0151 79.2075 77.2439 78.3228L79.0818 71.1904L85.4256 74.9349C86.213 75.3983 87.1319 75.5872 88.0382 75.4718C88.9445 75.3564 89.7868 74.9434 90.4329 74.2975L95.0308 69.6996C95.6769 69.0533 96.0899 68.2107 96.2051 67.3042C96.3203 66.3977 96.1311 65.4786 95.6672 64.6913L91.9237 58.3485L99.0561 56.5101C99.9404 56.2813 100.724 55.7654 101.283 55.0433C101.842 54.3212 102.146 53.4338 102.146 52.5205V46.0184C102.146 45.1047 101.843 44.217 101.283 43.4945C100.724 42.772 99.9406 42.2558 99.0561 42.0267L91.9237 40.1889L95.6667 33.845C96.1302 33.0576 96.3191 32.1385 96.2036 31.2321C96.0881 30.3257 95.6749 29.4834 95.0288 28.8373L90.4319 24.2394C89.7854 23.5936 88.9428 23.1807 88.0362 23.0655C87.1297 22.9503 86.2106 23.1394 85.4231 23.603L79.0808 27.347L77.2424 20.2145C77.0133 19.3302 76.4971 18.547 75.7747 17.9879C75.0524 17.4287 74.1648 17.1252 73.2513 17.125H66.7487C65.8349 17.1252 64.9471 17.4289 64.2247 17.9884C63.5022 18.5479 62.986 19.3314 62.7571 20.2161L60.9192 27.3485L54.5754 23.6035C53.7883 23.1398 52.8695 22.9507 51.9633 23.0658C51.0571 23.1808 50.2148 23.5937 49.5686 24.2394L44.9702 28.8368C44.3239 29.483 43.9107 30.3256 43.7954 31.2323C43.6801 32.1389 43.8693 33.0581 44.3333 33.8455L48.0768 40.1884L40.9444 42.0267C40.0598 42.2557 39.2763 42.7719 38.7169 43.4944C38.1575 44.2169 37.8539 45.1047 37.8538 46.0184V52.5205C37.854 53.4343 38.1577 54.3222 38.7173 55.0447C39.2769 55.7672 40.0606 56.2834 40.9454 56.5121L48.0778 58.35L44.3333 64.6938C43.87 65.4812 43.6813 66.4002 43.7967 67.3064C43.9122 68.2127 44.3253 69.055 44.9712 69.7011L49.5691 74.299C50.2152 74.9453 51.0577 75.3585 51.9643 75.4738C52.8709 75.5891 53.7901 75.3999 54.5774 74.9359L60.9197 71.1919L62.7581 78.3243C62.9871 79.2086 63.5033 79.9919 64.2257 80.5511C64.9481 81.1103 65.8357 81.4137 66.7492 81.4138H68.7443V116.423C66.5282 114.074 62.8384 111.968 57.8407 110.239C58.1446 106.334 58.5745 92.4129 50.3094 84.1483C40.8318 74.6697 23.9084 76.6276 23.1926 76.7145C22.9146 76.7487 22.656 76.8749 22.4579 77.0731C22.2599 77.2712 22.1338 77.5299 22.0997 77.8079C22.0118 78.5237 20.0544 95.4462 29.5335 104.925C36.1415 111.536 46.368 112.586 52.1985 112.586C54.2358 112.586 55.7346 112.458 56.3559 112.394C64.0685 114.948 68.6689 118.472 68.6689 121.85C68.6689 122.183 68.8012 122.502 69.0367 122.738C69.2722 122.973 69.5916 123.105 69.9247 123.105C69.9377 123.105 69.9498 123.102 69.9623 123.102C69.9749 123.101 69.9869 123.105 70 123.105C70.333 123.105 70.6524 122.973 70.8879 122.738C71.1234 122.502 71.2557 122.183 71.2557 121.85V121.127C71.8584 117.97 76.3443 114.755 83.529 112.382C84.9486 112.524 86.3747 112.593 87.8014 112.586C93.632 112.586 103.859 111.536 110.467 104.928C119.946 95.4497 117.988 78.5272 117.9 77.8115ZM65.1891 77.6974L62.9349 68.9487C62.8863 68.7601 62.7946 68.5855 62.6669 68.4385C62.5393 68.2916 62.3792 68.1763 62.1993 68.1018C62.0195 68.0273 61.8248 67.9957 61.6306 68.0094C61.4364 68.0231 61.2481 68.0817 61.0804 68.1807L53.3016 72.7725C52.9935 72.9541 52.6338 73.028 52.2791 72.9825C51.9244 72.9371 51.5949 72.7748 51.3426 72.5214L46.7452 67.924C46.4925 67.6718 46.3307 67.3429 46.2852 66.9887C46.2398 66.6346 46.3132 66.2754 46.4941 65.9676L51.086 58.1872C51.1845 58.0198 51.2428 57.8319 51.2564 57.6382C51.2699 57.4444 51.2384 57.2502 51.1642 57.0707C51.09 56.8912 50.9752 56.7314 50.8288 56.6038C50.6824 56.4762 50.5084 56.3843 50.3205 56.3353L41.5732 54.0821C41.2273 53.9924 40.9209 53.7904 40.7023 53.5078C40.4836 53.2251 40.3651 52.8778 40.3652 52.5205V46.0184C40.3651 45.6616 40.4834 45.3148 40.7015 45.0325C40.9197 44.7501 41.2254 44.5482 41.5707 44.4583L50.3205 42.204C50.509 42.1555 50.6836 42.0637 50.8306 41.9361C50.9776 41.8084 51.0929 41.6484 51.1673 41.4685C51.2418 41.2887 51.2735 41.094 51.2598 40.8998C51.2461 40.7056 51.1875 40.5172 51.0885 40.3496L46.4971 32.5707C46.316 32.2626 46.2423 31.9029 46.2878 31.5483C46.3332 31.1938 46.4952 30.8643 46.7483 30.6118L51.3462 26.0144C51.5984 25.7619 51.9273 25.6003 52.2812 25.5549C52.6352 25.5094 52.9942 25.5827 53.3021 25.7633L61.0824 30.3557C61.2501 30.4546 61.4384 30.5133 61.6326 30.527C61.8268 30.5407 62.0215 30.509 62.2013 30.4345C62.3812 30.36 62.5413 30.2448 62.6689 30.0978C62.7966 29.9508 62.8883 29.7762 62.9369 29.5877L65.1906 20.8404C65.2801 20.4947 65.4819 20.1884 65.7642 19.9698C66.0466 19.7511 66.3936 19.6325 66.7507 19.6324H73.2533C73.6096 19.6329 73.9557 19.7515 74.2374 19.9696C74.5191 20.1877 74.7206 20.4931 74.8104 20.8379L77.0646 29.5867C77.1132 29.7752 77.2049 29.9498 77.3326 30.0968C77.4602 30.2438 77.6203 30.359 77.8002 30.4335C77.98 30.508 78.1747 30.5397 78.3689 30.526C78.5631 30.5123 78.7514 30.4536 78.9191 30.3547L86.6979 25.7633C87.0061 25.582 87.3657 25.5084 87.7203 25.5538C88.0749 25.5993 88.4044 25.7613 88.6568 26.0144L93.2537 30.6118C93.5071 30.8642 93.6693 31.1936 93.7147 31.5483C93.7602 31.9029 93.6864 32.2627 93.5049 32.5707L88.913 40.3511C88.814 40.5187 88.7554 40.7071 88.7417 40.9013C88.728 41.0955 88.7597 41.2902 88.8342 41.47C88.9086 41.6499 89.0239 41.8099 89.1709 41.9376C89.3178 42.0652 89.4925 42.157 89.681 42.2055L98.4278 44.4593C98.7732 44.5489 99.079 44.7506 99.2975 45.0328C99.5159 45.3149 99.6345 45.6616 99.6348 46.0184V52.5205C99.6348 52.8772 99.5164 53.2239 99.2983 53.5062C99.0801 53.7885 98.7745 53.9905 98.4293 54.0806L89.6795 56.3353C89.491 56.3839 89.3163 56.4756 89.1694 56.6033C89.0224 56.7309 88.9071 56.891 88.8326 57.0708C88.7582 57.2507 88.7265 57.4454 88.7402 57.6396C88.7539 57.8338 88.8125 58.0221 88.9115 58.1897L93.5029 65.9691C93.6842 66.2772 93.7579 66.6369 93.7125 66.9915C93.667 67.3461 93.5049 67.6756 93.2517 67.928L88.6543 72.5254C88.402 72.7788 88.0725 72.9409 87.7179 72.9864C87.3632 73.0319 87.0035 72.9581 86.6954 72.7766L78.915 68.1842C78.7474 68.0852 78.5591 68.0266 78.3649 68.0129C78.1707 67.9992 77.976 68.0308 77.7961 68.1053C77.6163 68.1798 77.4562 68.2951 77.3286 68.4421C77.2009 68.589 77.1092 68.7637 77.0606 68.9522L74.8069 77.6995C74.7174 78.0452 74.5156 78.3514 74.2332 78.5701C73.9509 78.7887 73.6039 78.9074 73.2468 78.9074H66.7487C66.3914 78.9072 66.0443 78.7883 65.7619 78.5692C65.4796 78.3502 65.2781 78.0435 65.1891 77.6974ZM31.3085 103.152C23.9461 95.7892 24.2509 82.8167 24.5051 79.1224C28.1979 78.8658 41.1583 78.5513 48.5339 85.9269C55.8969 93.2903 55.5915 106.263 55.3373 109.957C51.644 110.212 38.6846 110.528 31.3085 103.152ZM108.691 103.152C101.328 110.515 88.3565 110.21 84.6612 109.956C84.404 106.263 84.0901 93.3029 91.4661 85.9269C98.8296 78.5634 111.803 78.8698 115.496 79.1239C115.753 82.8167 116.067 95.7762 108.691 103.152Z" fill="#505050"/>
</svg>
