<svg width="350" height="307" viewBox="0 0 350 307" fill="none" xmlns="http://www.w3.org/2000/svg">
<path opacity="0.68" d="M166.17 151.096C166.505 151.899 166.293 152.828 165.635 153.397C161.822 156.694 157.785 160.155 154.496 162.965C153.498 163.818 151.962 163.486 151.617 162.219C149.595 154.798 153.205 145.563 157.944 137.741C158.83 136.279 161.003 136.633 161.505 138.266C162.766 142.372 164.312 146.645 166.17 151.096Z" fill="#F2C94C"/>
<path opacity="0.68" d="M195.029 122.358C195.332 120.91 197.033 120.273 198.073 121.325C202.398 125.699 205.533 132.608 203.014 142.472C202.784 143.371 201.932 143.958 201.006 143.899C198.442 143.734 195.353 143.537 192.315 143.326C191.052 143.238 190.193 142.01 190.529 140.79C192.369 134.114 193.854 127.988 195.029 122.358Z" fill="#F2994A"/>
<path opacity="0.2" d="M181.654 163.719C182.173 163.505 182.588 163.058 182.78 162.53C215.401 72.6077 190.472 61.9743 179.101 58.4561C178.356 58.2259 177.56 58.4506 177.043 59.0338C165.923 71.5918 140.289 102.47 172.5 165.48C172.971 166.4 174.085 166.83 175.041 166.437L181.654 163.719Z" fill="url(#paint0_linear_8_255)"/>
<path opacity="0.1" d="M171.728 157.963C172.249 157.75 172.665 157.304 172.858 156.776C205.494 67.5393 180.559 57.003 169.173 53.4964C168.431 53.2682 167.638 53.4907 167.122 54.0695C156.006 66.5319 130.383 97.1755 162.58 159.708C163.051 160.624 164.16 161.051 165.113 160.662L171.728 157.963Z" fill="url(#paint1_linear_8_255)"/>
<path opacity="0.15" d="M174.744 166.414C173.78 166.818 172.651 166.383 172.183 165.448C142.963 107.143 162.325 76.3578 174.015 62.1439C175.189 60.7159 177.478 61.5787 177.478 63.4275V163.937C177.478 164.743 176.995 165.47 176.252 165.781L174.744 166.414Z" fill="url(#paint2_linear_8_255)"/>
<path opacity="0.1" d="M167.565 91.7252C167.565 97.4025 172.37 100.074 178.304 97.6972C184.239 95.3202 189.043 88.7785 189.043 83.1011C189.043 77.4238 184.239 74.7521 178.304 77.1291C172.37 79.5061 167.565 86.0478 167.565 91.7252Z" fill="#DD3835"/>
<path opacity="0.1" d="M178.795 230.709C178.284 230.846 177.835 231.158 177.545 231.601C171.912 240.184 163.702 247.532 154.556 251.312C137.582 258.329 123.81 250.41 123.783 233.631C123.783 216.852 137.554 197.545 154.529 190.528C159.664 188.401 164.498 187.65 168.755 188.091C169.445 188.162 170.144 187.919 170.554 187.359C172.477 184.734 173.497 181.606 174.406 178.825C175.583 175.258 176.569 172.22 179.033 171.455C181.853 170.573 183.113 172.808 184.892 175.905C185.691 177.305 186.604 178.902 187.803 180.465C188.432 181.284 189.598 181.38 190.457 180.806C191.954 179.804 193.512 178.957 195.132 178.296C203.15 174.984 209.99 177.134 212.692 183.023C213.243 184.224 214.677 184.884 215.873 184.321C216.331 184.106 216.791 183.901 217.254 183.706C231.792 177.708 243.565 184.51 243.565 198.937C243.565 213.344 231.792 229.887 217.281 235.886C205.234 240.86 195.066 237.019 191.951 227.348C191.377 225.566 188.656 224.731 187.253 225.971C185.329 227.672 183.177 229.068 180.895 230.005C180.202 230.288 179.496 230.521 178.795 230.709Z" fill="url(#paint3_linear_8_255)"/>
<path opacity="0.3" d="M141.125 125.522C141.128 124.095 139.677 123.124 138.359 123.671L68.0425 152.835C67.2963 153.145 66.8095 153.873 66.8087 154.681L66.7856 178.176C66.7842 179.602 68.2342 180.572 69.552 180.025L133.921 153.318C134.308 153.157 134.736 153.122 135.144 153.218L138.623 154.034C139.877 154.328 141.078 153.378 141.08 152.09L141.125 125.522Z" fill="url(#paint4_linear_8_255)"/>
<path d="M87.874 159.758C88.6098 159.443 89.087 158.72 89.087 157.919V154.466C89.087 153.031 87.6196 152.063 86.3 152.628L62.213 162.938C61.4772 163.253 61 163.976 61 164.776V168.229C61 169.665 62.4674 170.633 63.787 170.068L87.874 159.758Z" fill="white"/>
<path opacity="0.1" d="M122.957 139.252C122.957 138.376 122.056 137.788 121.254 138.142L107.154 144.355C106.717 144.548 106.435 144.981 106.435 145.458C106.435 146.328 107.328 146.912 108.125 146.562L122.231 140.363C122.672 140.17 122.957 139.734 122.957 139.252Z" fill="#DD3835"/>
<path opacity="0.1" d="M122.957 144.068C122.957 143.25 122.124 142.695 121.369 143.009L93.9234 154.438C93.4959 154.617 93.2174 155.034 93.2174 155.497C93.2174 156.316 94.0498 156.871 94.8053 156.556L122.25 145.127C122.678 144.949 122.957 144.531 122.957 144.068Z" fill="#DD3835"/>
<path opacity="0.15" d="M122.957 149.816C122.957 149.013 122.141 148.468 121.399 148.775L85.6522 163.577C85.2311 163.752 84.9565 164.163 84.9565 164.618C84.9565 165.421 85.7724 165.966 86.5143 165.659L122.261 150.857C122.682 150.683 122.957 150.272 122.957 149.816Z" fill="#DD3835"/>
<path d="M127.087 138.739C127.087 141.046 128.753 142.14 130.804 141.165C132.856 140.191 134.522 137.525 134.522 135.218C134.522 132.911 132.856 131.817 130.804 132.791C128.753 133.766 127.087 136.431 127.087 138.739Z" fill="white"/>
<path opacity="0.3" d="M205.592 85.2288C205.593 84.4146 206.087 83.6821 206.842 83.3766L278.812 54.245C280.127 53.7125 281.564 54.6816 281.562 56.1009L281.539 79.5625C281.538 80.3766 281.044 81.109 280.289 81.4144L212.668 108.784C212.407 108.889 212.172 109.048 211.977 109.251L209.011 112.333C207.762 113.631 205.568 112.746 205.57 110.945L205.592 85.2288Z" fill="url(#paint5_linear_8_255)"/>
<path d="M287.787 64.7581C288.523 64.4432 289 63.7199 289 62.9195V59.4664C289 58.0309 287.533 57.0629 286.213 57.6277L262.126 67.9376C261.39 68.2526 260.913 68.9759 260.913 69.7763V73.2293C260.913 74.6648 262.38 75.6328 263.7 75.068L287.787 64.7581Z" fill="url(#paint6_linear_8_255)"/>
<path opacity="0.15" d="M225.391 84.3236C225.391 83.8451 225.674 83.4118 226.112 83.2189L240.22 77.0067C241.017 76.6554 241.913 77.2397 241.913 78.1114C241.913 78.5899 241.63 79.0233 241.192 79.2161L227.085 85.4283C226.287 85.7796 225.391 85.1953 225.391 84.3236Z" fill="#DD3835"/>
<path opacity="0.15" d="M225.391 88.5922C225.391 88.1262 225.673 87.7065 226.104 87.5297L256.025 75.2585C256.78 74.9486 257.609 75.5043 257.609 76.321C257.609 76.7869 257.327 77.2067 256.896 77.3835L226.975 89.6547C226.22 89.9646 225.391 89.4089 225.391 88.5922Z" fill="#DD3835"/>
<path opacity="0.15" d="M225.391 93.5835C225.391 93.1232 225.67 92.7089 226.097 92.536L262.663 77.7171C263.406 77.416 264.217 77.9628 264.217 78.7645C264.217 79.2248 263.938 79.6391 263.512 79.812L226.946 94.6309C226.203 94.932 225.391 94.3852 225.391 93.5835Z" fill="#DD3835"/>
<path d="M222.087 87.8728C222.087 89.9723 220.051 92.3975 217.543 93.2844C215.036 94.1712 213 93.1758 213 91.0763C213 88.9768 215.036 86.5515 217.543 85.6647C220.081 84.7959 222.116 85.7733 222.087 87.8728Z" fill="white"/>
<path opacity="0.2" d="M216.304 115.263C216.304 114.457 216.788 113.73 217.532 113.419L258.141 96.4213C259.459 95.8698 260.913 96.8377 260.913 98.2662V110.78C260.913 111.587 260.429 112.314 259.685 112.625L219.077 129.622C217.759 130.174 216.304 129.206 216.304 127.777V115.263Z" fill="url(#paint7_linear_8_255)"/>
<path opacity="0.15" d="M250.174 105.707C250.174 105.056 249.516 104.611 248.912 104.853L235.057 110.396C234.707 110.535 234.478 110.874 234.478 111.25C234.478 111.901 235.136 112.346 235.74 112.104L249.596 106.561C249.945 106.421 250.174 106.083 250.174 105.707Z" fill="#DD3835"/>
<path opacity="0.15" d="M250.174 109.792C250.174 109.16 249.539 108.726 248.951 108.956L221.832 119.547C221.487 119.681 221.261 120.013 221.261 120.382C221.261 121.014 221.896 121.448 222.484 121.218L249.603 110.627C249.947 110.493 250.174 110.161 250.174 109.792Z" fill="#DD3835"/>
<path d="M251.826 105.057C251.826 106.518 253.115 107.217 254.717 106.603C256.32 105.989 257.609 104.295 257.609 102.812C257.609 101.351 256.32 100.652 254.717 101.267C253.115 101.902 251.826 103.596 251.826 105.057Z" fill="white"/>
<path opacity="0.2" d="M84.1304 127.617C84.1304 126.803 84.6235 126.071 85.3774 125.764L125.16 109.597C126.475 109.063 127.913 110.03 127.913 111.45V123.19C127.913 124.004 127.42 124.736 126.667 125.043L86.8841 141.228C85.5688 141.763 84.1304 140.795 84.1304 139.375V127.617Z" fill="url(#paint8_linear_8_255)"/>
<path opacity="0.15" d="M116.348 118.31C116.348 117.586 115.588 117.113 114.938 117.433L102.851 123.377C102.516 123.542 102.304 123.882 102.304 124.255C102.304 124.979 103.064 125.453 103.714 125.133L115.801 119.188C116.136 119.023 116.348 118.683 116.348 118.31Z" fill="#DD3835"/>
<path opacity="0.15" d="M116.348 121.469C116.348 120.794 115.658 120.338 115.037 120.603L88.8322 131.797C88.4857 131.945 88.2609 132.285 88.2609 132.662C88.2609 133.337 88.9506 133.792 89.5714 133.527L115.777 122.334C116.123 122.186 116.348 121.845 116.348 121.469Z" fill="#DD3835"/>
<path d="M118.826 116.875C118.826 118.128 120.115 118.727 121.717 118.2C123.32 117.674 124.609 116.222 124.609 114.951C124.609 113.699 123.32 113.1 121.717 113.626C120.115 114.152 118.826 115.623 118.826 116.875Z" fill="white"/>
<defs>
<linearGradient id="paint0_linear_8_255" x1="137.827" y1="61.4231" x2="187.941" y2="183.135" gradientUnits="userSpaceOnUse">
<stop stop-color="#DD3835"/>
<stop offset="1" stop-color="#DD3835" stop-opacity="0.78"/>
</linearGradient>
<linearGradient id="paint1_linear_8_255" x1="127.925" y1="56.4428" x2="177.407" y2="177.482" gradientUnits="userSpaceOnUse">
<stop stop-color="#DD3835"/>
<stop offset="1" stop-color="#DD3835" stop-opacity="0"/>
</linearGradient>
<linearGradient id="paint2_linear_8_255" x1="153.993" y1="84.706" x2="192.904" y2="181.23" gradientUnits="userSpaceOnUse">
<stop stop-color="#DD3835" stop-opacity="0.01"/>
<stop offset="1" stop-color="#DD3835"/>
</linearGradient>
<linearGradient id="paint3_linear_8_255" x1="160.501" y1="188.061" x2="181.957" y2="239.982" gradientUnits="userSpaceOnUse">
<stop stop-color="#DD3835"/>
<stop offset="1" stop-color="#DD3835" stop-opacity="0.04"/>
</linearGradient>
<linearGradient id="paint4_linear_8_255" x1="109.2" y1="123.423" x2="104.203" y2="179.814" gradientUnits="userSpaceOnUse">
<stop stop-color="#DD3835"/>
<stop offset="1" stop-color="#DD3835" stop-opacity="0.08"/>
</linearGradient>
<linearGradient id="paint5_linear_8_255" x1="222.152" y1="72.7588" x2="250.328" y2="104.208" gradientUnits="userSpaceOnUse">
<stop stop-color="#DD3835"/>
<stop offset="1" stop-color="#DD3835" stop-opacity="0.05"/>
</linearGradient>
<linearGradient id="paint6_linear_8_255" x1="267.687" y1="60.9127" x2="271.887" y2="77.0593" gradientUnits="userSpaceOnUse">
<stop stop-color="white"/>
<stop offset="0.803835" stop-color="white" stop-opacity="0.1"/>
</linearGradient>
<linearGradient id="paint7_linear_8_255" x1="233.573" y1="106.693" x2="239.578" y2="121.034" gradientUnits="userSpaceOnUse">
<stop stop-color="#DD3835"/>
<stop offset="1" stop-color="#DD3835" stop-opacity="0.04"/>
</linearGradient>
<linearGradient id="paint8_linear_8_255" x1="101.089" y1="119.387" x2="106.693" y2="133.172" gradientUnits="userSpaceOnUse">
<stop stop-color="#DD3835"/>
<stop offset="1" stop-color="#DD3835" stop-opacity="0.04"/>
</linearGradient>
</defs>
</svg>
