<svg width="603" height="662" viewBox="0 0 603 662" fill="none" xmlns="http://www.w3.org/2000/svg">
<path opacity="0.68" d="M206.608 327.374C206.947 328.176 206.734 329.105 206.075 329.674C196.579 337.889 186.286 346.704 178.483 353.364C177.485 354.216 175.951 353.888 175.487 352.66C168.763 334.889 178.768 311.431 190.883 292.755C191.813 291.322 193.986 291.685 194.456 293.328C197.548 304.119 201.559 315.45 206.608 327.374Z" fill="#F2C94C"/>
<path opacity="0.68" d="M268.952 260.216C269.244 258.767 270.945 258.12 272.064 259.087C282.979 268.522 291.813 284.725 284.955 308.987C284.703 309.879 283.853 310.472 282.928 310.413C276.314 309.988 267.686 309.445 259.522 308.862C258.259 308.772 257.399 307.543 257.74 306.323C262.472 289.4 266.157 274.092 268.952 260.216Z" fill="#F2994A"/>
<path opacity="0.2" d="M240.298 352.647C240.817 352.434 241.233 351.985 241.425 351.457C313.741 152.777 256.226 132.806 232.418 125.616C231.673 125.391 230.915 125.6 230.398 126.182C206.886 152.646 148.617 219.669 220.589 358.738C221.064 359.656 222.181 360.091 223.137 359.699L240.298 352.647Z" fill="url(#paint0_linear_14_2326)"/>
<path opacity="0.1" d="M218.887 340.237C219.407 340.025 219.824 339.577 220.018 339.05C292.365 141.899 234.856 122.098 211.007 114.925C210.265 114.702 209.511 114.909 208.994 115.487C185.492 141.749 127.249 208.265 199.188 346.28C199.663 347.193 200.775 347.626 201.728 347.237L218.887 340.237Z" fill="url(#paint1_linear_14_2326)"/>
<path opacity="0.15" d="M222.47 359.676C221.507 360.08 220.375 359.638 219.902 358.706C151.93 224.76 202.461 157.657 226.872 129.26C228.077 127.858 230.347 128.746 230.347 130.595V355.043C230.347 355.849 229.863 356.576 229.12 356.888L222.47 359.676Z" fill="url(#paint2_linear_14_2326)"/>
<path opacity="0.1" d="M208.963 197.791C208.963 210.034 219.327 215.795 232.129 210.669C244.931 205.544 255.295 191.437 255.295 179.195C255.295 166.953 244.931 161.191 232.129 166.317C219.327 171.443 208.963 185.549 208.963 197.791Z" fill="#DD3835"/>
<path opacity="0.1" d="M232.261 497.727C231.747 497.853 231.298 498.167 231.012 498.611C218.85 517.462 200.913 533.649 180.901 541.917C144.284 557.049 114.577 539.973 114.518 503.791C114.518 467.61 144.225 425.976 180.842 410.844C192.438 406.044 203.323 404.493 212.812 405.74C213.5 405.83 214.194 405.581 214.626 405.038C219.288 399.18 221.638 391.973 223.72 385.61C226.259 377.917 228.386 371.366 233.701 369.717C239.784 367.815 242.501 372.634 246.34 379.312C248.346 382.826 250.682 386.913 253.939 390.79C254.603 391.581 255.768 391.683 256.608 391.081C260.363 388.394 264.304 386.15 268.428 384.469C286.954 376.818 302.563 382.681 307.413 397.49C307.824 398.745 309.264 399.402 310.441 398.801C312.328 397.837 314.224 396.944 316.149 396.135C347.51 383.201 372.906 397.868 372.906 428.977C372.906 460.044 347.51 495.718 316.208 508.652C287.773 520.388 264.189 509.368 260.08 484.017C259.781 482.17 257.243 481.39 255.986 482.776C250.806 488.481 244.531 493.175 237.717 495.972C235.917 496.708 234.072 497.284 232.261 497.727Z" fill="url(#paint3_linear_14_2326)"/>
<path opacity="0.3" d="M151.934 267.2C151.937 265.773 150.487 264.802 149.168 265.349L-7.14755 330.158C-7.89391 330.468 -8.38077 331.196 -8.38157 332.004L-8.4365 387.677C-8.4379 389.103 -6.98803 390.073 -5.67027 389.526L137.076 330.321C137.463 330.16 137.891 330.125 138.299 330.221L149.369 332.816C150.622 333.11 151.823 332.16 151.825 330.872L151.934 267.2Z" fill="url(#paint4_linear_14_2326)"/>
<path d="M38.4603 343.894C39.1962 343.579 39.6735 342.856 39.6735 342.055V329.578C39.6735 328.142 38.2064 327.174 36.8868 327.739L-19.7008 351.951C-20.4368 352.266 -20.9141 352.989 -20.9141 353.79V366.267C-20.9141 367.703 -19.4469 368.671 -18.1273 368.106L38.4603 343.894Z" fill="white"/>
<path opacity="0.1" d="M112.735 299.33C112.735 297.886 111.251 296.918 109.929 297.5L78.2894 311.438C77.5639 311.758 77.0957 312.476 77.0957 313.268V314.577C77.0957 316.021 78.5783 316.989 79.9 316.408L111.54 302.511C112.266 302.192 112.735 301.473 112.735 300.68V299.33Z" fill="#DD3835"/>
<path opacity="0.1" d="M112.736 309.951C112.736 308.524 111.284 307.556 109.967 308.104L49.8153 333.145C49.0697 333.455 48.584 334.184 48.584 334.991V336.017C48.584 337.444 50.0353 338.412 51.3526 337.863L111.504 312.823C112.25 312.513 112.736 311.784 112.736 310.977V309.951Z" fill="#DD3835"/>
<path opacity="0.15" d="M112.735 322.414C112.735 320.989 111.287 320.021 109.97 320.566L31.9988 352.84C31.2512 353.15 30.7637 353.879 30.7637 354.688V355.618C30.7637 357.043 32.2118 358.011 33.5286 357.466L111.5 325.192C112.248 324.882 112.735 324.153 112.735 323.344V322.414Z" fill="#DD3835"/>
<path d="M121.645 299.169C121.645 304.145 125.237 306.504 129.663 304.402C134.09 302.3 137.682 296.553 137.682 291.577C137.682 286.602 134.09 284.243 129.663 286.345C125.237 288.446 121.645 294.194 121.645 299.169Z" fill="white"/>
<path opacity="0.3" d="M290.993 182.226C290.994 181.412 291.488 180.679 292.243 180.374L452.123 115.682C453.439 115.15 454.875 116.119 454.873 117.538L454.817 173.122C454.816 173.936 454.322 174.668 453.567 174.974L305.798 234.761C305.537 234.867 305.302 235.026 305.107 235.228L294.379 246.371C293.13 247.668 290.936 246.783 290.938 244.982L290.993 182.226Z" fill="url(#paint5_linear_14_2326)"/>
<path d="M469.701 139.041C470.437 138.726 470.914 138.002 470.914 137.202V124.724C470.914 123.289 469.447 122.321 468.127 122.886L411.539 147.098C410.803 147.413 410.326 148.136 410.326 148.937V161.414C410.326 162.849 411.793 163.818 413.113 163.253L469.701 139.041Z" fill="url(#paint6_linear_14_2326)"/>
<path opacity="0.15" d="M333.701 181.438C333.701 180.645 334.17 179.927 334.895 179.607L366.535 165.68C367.857 165.098 369.341 166.066 369.341 167.511V168.828C369.341 169.621 368.872 170.339 368.147 170.659L336.507 184.586C335.185 185.168 333.701 184.2 333.701 182.756V181.438Z" fill="#DD3835"/>
<path opacity="0.15" d="M333.701 190.716C333.701 189.905 334.192 189.174 334.943 188.866L400.44 162.014C401.756 161.474 403.199 162.442 403.199 163.864V164.894C403.199 165.706 402.708 166.437 401.957 166.745L336.46 193.597C335.144 194.136 333.701 193.169 333.701 191.746V190.716Z" fill="#DD3835"/>
<path opacity="0.15" d="M333.701 201.504C333.701 200.69 334.195 199.957 334.95 199.651L414.704 167.341C416.019 166.808 417.455 167.776 417.455 169.195V170.138C417.455 170.953 416.961 171.686 416.206 171.992L336.452 204.301C335.137 204.834 333.701 203.866 333.701 202.448V201.504Z" fill="#DD3835"/>
<path d="M326.572 189.484C326.572 194.012 322.181 199.241 316.771 201.154C311.362 203.066 306.971 200.92 306.971 196.392C306.971 191.865 311.362 186.635 316.771 184.723C322.244 182.85 326.636 184.957 326.572 189.484Z" fill="white"/>
<path opacity="0.2" d="M314.1 247.009C314.1 246.203 314.584 245.475 315.328 245.164L407.555 206.576C408.873 206.024 410.327 206.992 410.327 208.421V240.42C410.327 241.226 409.843 241.954 409.099 242.265L316.872 280.853C315.554 281.405 314.1 280.437 314.1 279.008V247.009Z" fill="url(#paint7_linear_14_2326)"/>
<path opacity="0.15" d="M387.161 227.941C387.161 226.537 385.743 225.577 384.44 226.099L354.55 238.052C353.797 238.353 353.303 239.082 353.303 239.894C353.303 241.297 354.72 242.257 356.023 241.736L385.913 229.783C386.667 229.482 387.161 228.752 387.161 227.941Z" fill="#DD3835"/>
<path opacity="0.15" d="M387.161 236.749C387.161 235.387 385.791 234.452 384.523 234.947L326.022 257.785C325.28 258.075 324.791 258.79 324.791 259.587C324.791 260.949 326.16 261.884 327.429 261.389L385.93 238.551C386.672 238.261 387.161 237.546 387.161 236.749Z" fill="#DD3835"/>
<path d="M390.725 226.54C390.725 229.691 393.504 231.198 396.962 229.874C400.419 228.549 403.198 224.896 403.198 221.7C403.198 218.549 400.419 217.042 396.962 218.366C393.504 219.736 390.725 223.389 390.725 226.54Z" fill="white"/>
<path opacity="0.2" d="M28.9824 273.631C28.9824 272.817 29.4756 272.085 30.2297 271.778L120.675 235.036C121.99 234.501 123.428 235.469 123.428 236.888V267.197C123.428 268.011 122.935 268.743 122.181 269.05L31.7359 305.832C30.4206 306.367 28.9824 305.399 28.9824 303.979V273.631Z" fill="url(#paint8_linear_14_2326)"/>
<path opacity="0.15" d="M98.4793 254.943C98.4793 253.462 96.9259 252.494 95.5969 253.148L69.3031 266.075C68.619 266.411 68.1855 267.107 68.1855 267.87V268.113C68.1855 269.594 69.739 270.562 71.068 269.908L97.3617 256.981C98.0459 256.645 98.4793 255.948 98.4793 255.186V254.943Z" fill="#DD3835"/>
<path opacity="0.15" d="M98.4782 261.885C98.4782 260.45 97.0123 259.482 95.6928 260.045L39.1053 284.207C38.3686 284.522 37.8906 285.246 37.8906 286.047V286.11C37.8906 287.545 39.3566 288.513 40.676 287.949L97.2636 263.787C98.0003 263.473 98.4782 262.749 98.4782 261.948V261.885Z" fill="#DD3835"/>
<path d="M103.824 252.024C103.824 254.724 106.604 256.016 110.061 254.881C113.519 253.746 116.298 250.615 116.298 247.875C116.298 245.174 113.519 243.882 110.061 245.018C106.604 246.153 103.824 249.323 103.824 252.024Z" fill="white"/>
<defs>
<linearGradient id="paint0_linear_14_2326" x1="144.812" y1="132.45" x2="252.849" y2="394.931" gradientUnits="userSpaceOnUse">
<stop stop-color="#DD3835"/>
<stop offset="1" stop-color="#DD3835" stop-opacity="0.78"/>
</linearGradient>
<linearGradient id="paint1_linear_14_2326" x1="123.452" y1="121.71" x2="230.125" y2="382.74" gradientUnits="userSpaceOnUse">
<stop stop-color="#DD3835"/>
<stop offset="1" stop-color="#DD3835" stop-opacity="0"/>
</linearGradient>
<linearGradient id="paint2_linear_14_2326" x1="179.686" y1="182.656" x2="263.568" y2="390.817" gradientUnits="userSpaceOnUse">
<stop stop-color="#DD3835" stop-opacity="0.01"/>
<stop offset="1" stop-color="#DD3835"/>
</linearGradient>
<linearGradient id="paint3_linear_14_2326" x1="193.725" y1="405.526" x2="239.978" y2="517.496" gradientUnits="userSpaceOnUse">
<stop stop-color="#DD3835"/>
<stop offset="1" stop-color="#DD3835" stop-opacity="0.04"/>
</linearGradient>
<linearGradient id="paint4_linear_14_2326" x1="83.0603" y1="266.143" x2="72.2903" y2="387.743" gradientUnits="userSpaceOnUse">
<stop stop-color="#DD3835"/>
<stop offset="1" stop-color="#DD3835" stop-opacity="0.08"/>
</linearGradient>
<linearGradient id="paint5_linear_14_2326" x1="326.713" y1="156.893" x2="387.469" y2="224.732" gradientUnits="userSpaceOnUse">
<stop stop-color="#DD3835"/>
<stop offset="1" stop-color="#DD3835" stop-opacity="0.05"/>
</linearGradient>
<linearGradient id="paint6_linear_14_2326" x1="424.94" y1="131.349" x2="433.992" y2="166.168" gradientUnits="userSpaceOnUse">
<stop stop-color="white"/>
<stop offset="0.803835" stop-color="white" stop-opacity="0.1"/>
</linearGradient>
<linearGradient id="paint7_linear_14_2326" x1="351.351" y1="230.068" x2="364.295" y2="260.995" gradientUnits="userSpaceOnUse">
<stop stop-color="#DD3835"/>
<stop offset="1" stop-color="#DD3835" stop-opacity="0.04"/>
</linearGradient>
<linearGradient id="paint8_linear_14_2326" x1="65.5654" y1="257.441" x2="77.6464" y2="287.168" gradientUnits="userSpaceOnUse">
<stop stop-color="#DD3835"/>
<stop offset="1" stop-color="#DD3835" stop-opacity="0.04"/>
</linearGradient>
</defs>
</svg>
