<svg width="415" height="447" viewBox="0 0 415 447" fill="none" xmlns="http://www.w3.org/2000/svg">
<path opacity="0.4" d="M22.486 216.883C22.486 218.758 22.5334 220.632 22.6756 222.382C2.29101 236.005 -13.4004 265.209 -13.4004 290.913C-13.4004 318.909 5.23018 332.115 28.2221 320.45C28.2695 320.409 28.3169 320.409 28.3643 320.367L172.81 247.17C172.858 247.128 172.905 247.128 173 247.087C198.789 233.964 219.742 197.844 219.742 166.391C219.742 136.937 201.349 121.981 177.788 131.021C174.896 110.816 159.489 102.109 140.906 111.566C131.994 116.107 123.793 124.064 117.393 133.646C108.101 121.481 92.2677 118.44 74.3482 127.522C45.7149 142.019 22.486 182.055 22.486 216.883Z" fill="url(#paint0_linear_14_4479)"/>
<path opacity="0.07" d="M-0.828472 196.478C-0.828472 198.352 -0.781067 200.226 -0.638847 201.976C-20.976 215.638 -36.7148 244.836 -36.7148 270.535C-36.7148 298.526 -18.0843 311.729 4.90766 300.067C4.95506 300.025 5.00247 300.025 5.04988 299.983L149.496 226.759C149.543 226.717 149.591 226.717 149.686 226.675C175.475 213.555 196.428 177.442 196.428 145.995C196.428 116.547 178.034 101.594 154.474 110.632C151.582 90.4308 136.175 81.7254 117.592 91.1805C108.679 95.7206 100.478 103.676 94.0784 113.256C84.7868 101.094 68.9532 98.0531 51.0337 107.133C22.4005 121.628 -0.828472 161.656 -0.828472 196.478Z" fill="url(#paint1_linear_14_4479)"/>
<path opacity="0.2" d="M250.849 250.814L272.2 239.558V232.964L250.849 244.22C249.101 245.144 246.57 246.992 244.407 249.848C242.06 252.914 240.404 256.779 240.404 260.979C240.404 265.599 241.692 268.245 244.177 269.001C246.478 269.715 249.193 268.497 250.849 267.615L259.638 262.995L259.684 262.953C260.42 262.533 261.617 262.155 262.583 262.407C263.365 262.617 264.24 263.331 264.24 265.893C264.24 268.455 263.365 270.051 262.629 270.975C261.709 272.151 260.512 272.991 259.776 273.327L259.684 273.369L232.857 287.523V294.117L259.546 280.047C261.387 279.165 264.01 277.317 266.31 274.377C268.795 271.185 270.544 267.111 270.544 262.575C270.544 258.081 268.841 255.771 266.402 255.14C264.102 254.552 261.479 255.393 259.638 256.443L250.849 261.063C249.607 261.735 248.641 262.029 248.042 261.819C247.582 261.693 246.662 261.063 246.662 257.703C246.662 255.561 247.444 254.132 248.134 253.166C249.009 252.032 250.159 251.192 250.849 250.814Z" fill="#DD3835"/>
<path d="M267.828 239.347C267.828 244.901 271.76 247.528 276.571 245.246C281.382 242.921 285.314 236.548 285.314 230.95C285.314 225.395 281.382 222.768 276.571 225.051C271.76 227.376 267.828 233.792 267.828 239.347Z" fill="white"/>
<path d="M221.199 297.588C221.199 303.142 224.803 305.769 229.213 303.487C233.624 301.162 237.228 294.789 237.228 289.191C237.228 283.636 233.624 281.009 229.213 283.292C224.803 285.617 221.199 292.033 221.199 297.588Z" fill="white"/>
<path opacity="0.07" d="M184.723 158.707L41.9707 230.85V297.029L184.771 224.845L184.723 158.707Z" fill="url(#paint2_linear_14_4479)"/>
<path opacity="0.3" d="M203.666 167.443L60.9141 239.586V305.765L203.714 233.581L203.666 167.443Z" fill="url(#paint3_linear_14_4479)"/>
<path d="M189.144 206.16C189.144 211.721 185.54 218.108 181.13 220.454C176.719 222.8 173.115 220.193 173.115 214.632C173.115 209.071 176.719 202.684 181.13 200.338C185.54 197.992 189.144 200.598 189.144 206.16Z" fill="white"/>
<path opacity="0.15" d="M170.2 217.144C170.2 219.722 168.576 222.736 166.534 223.828C164.538 224.92 162.914 223.697 162.914 221.12C162.914 218.542 164.538 215.528 166.58 214.436C168.576 213.344 170.2 214.567 170.2 217.144Z" fill="#DD3835"/>
<path opacity="0.15" d="M158.544 222.968C158.544 225.546 156.595 228.56 154.144 229.652C151.75 230.744 149.801 229.521 149.801 226.944C149.801 224.366 151.75 221.352 154.2 220.26C156.595 219.168 158.544 220.391 158.544 222.968Z" fill="#DD3835"/>
<path opacity="0.15" d="M95.8848 234.363V272.277L101.713 269.422V231.508L95.8848 234.363Z" fill="#DD3835"/>
<path opacity="0.15" d="M84.2285 240.085V276.645L90.0571 273.892V237.332L84.2285 240.085Z" fill="#DD3835"/>
<path opacity="0.15" d="M71.1152 246.011V283.925L76.9438 281.07V243.156L71.1152 246.011Z" fill="#DD3835"/>
<path opacity="0.07" d="M184.771 248.98L41.9707 321.143V387.303L184.771 315.14V248.98Z" fill="url(#paint4_linear_14_4479)"/>
<path opacity="0.3" d="M203.714 257.717L60.9141 329.879V396.039L203.714 323.876V257.717Z" fill="url(#paint5_linear_14_4479)"/>
<path d="M189.144 297.444C189.144 302.634 185.54 308.595 181.13 310.785C176.719 312.975 173.115 310.542 173.115 305.351C173.115 300.161 176.719 294.2 181.13 292.01C185.54 289.82 189.144 292.253 189.144 297.444Z" fill="white"/>
<path opacity="0.15" d="M170.2 306.977C170.2 309.185 168.576 311.767 166.534 312.703C164.538 313.638 162.914 312.591 162.914 310.383C162.914 308.175 164.538 305.593 166.58 304.657C168.576 303.722 170.2 304.732 170.2 306.977Z" fill="#DD3835"/>
<path opacity="0.15" d="M158.543 314.269C158.543 316.473 156.594 319.05 154.144 319.984C151.75 320.918 149.801 319.872 149.801 317.668C149.801 315.464 151.75 312.887 154.199 311.953C156.594 310.982 158.598 312.027 158.543 314.269Z" fill="#DD3835"/>
<path opacity="0.15" d="M95.8848 326.093V364.007L101.713 361.151V323.238L95.8848 326.093Z" fill="#DD3835"/>
<path opacity="0.15" d="M84.2285 331.917V369.831L90.0571 366.976V329.062L84.2285 331.917Z" fill="#DD3835"/>
<path opacity="0.15" d="M71.1152 337.741V375.655L76.9438 372.8V334.886L71.1152 337.741Z" fill="#DD3835"/>
<path opacity="0.3" d="M328.981 69.8893L240.143 114.478V257.717L329.028 213.086L328.981 69.8893Z" fill="url(#paint6_linear_14_4479)"/>
<path d="M273.656 122.064C273.656 129.492 278.557 133.012 284.585 129.921C290.613 126.83 295.513 118.328 295.513 110.9C295.513 103.473 290.613 99.9518 284.585 103.043C278.557 106.135 273.656 114.636 273.656 122.064Z" fill="white"/>
<path d="M285.338 135.807C294.93 131.176 302.835 135.528 304.233 145.509C304.474 147.226 302.883 149.542 300.955 150.46L269.673 165.592C267.745 166.511 266.154 165.792 266.395 163.796C267.841 152.417 275.794 140.439 285.338 135.807Z" fill="white"/>
<path opacity="0.15" d="M310.086 163.075L259.086 189.515V195.108L310.086 168.667V163.075Z" fill="#DD3835"/>
<path opacity="0.15" d="M305.714 176.179L264.914 198.011V203.844L305.714 182.012V176.179Z" fill="#DD3835"/>
<path d="M295.514 200.142L356.714 170.355V185.705L295.514 215.492V200.142Z" fill="white"/>
<path opacity="0.2" d="M221.975 50.9609L209.23 73.8259C207.487 76.9667 207.763 80.1075 209.871 80.8613C211.98 81.6151 215.098 79.6468 216.84 76.506L216.977 76.2129V101.591C216.977 104.48 219.178 105.653 221.929 104.229C224.68 102.763 226.88 99.2873 226.88 96.3977V71.0201L227.018 71.1458C228.76 72.444 231.923 71.1039 233.986 68.1306C236.095 65.1573 236.37 61.7234 234.628 60.4252L221.975 50.9609Z" fill="url(#paint7_linear_14_4479)"/>
<path opacity="0.2" d="M221.883 387.303L234.628 363.82C236.37 360.594 236.095 357.369 233.986 356.594C231.877 355.82 228.76 357.842 227.018 361.067L226.88 361.368V335.305C226.88 332.337 224.68 331.133 221.929 332.595C219.178 334.101 216.977 337.67 216.977 340.638V366.702L216.84 366.573C215.098 365.239 211.934 366.616 209.871 369.669C207.763 372.723 207.487 376.25 209.23 377.583L221.883 387.303Z" fill="url(#paint8_linear_14_4479)"/>
<defs>
<linearGradient id="paint0_linear_14_4479" x1="-4.92021" y1="137.326" x2="123.793" y2="276.252" gradientUnits="userSpaceOnUse">
<stop stop-color="#DD3835"/>
<stop offset="1" stop-color="#DD3835" stop-opacity="0.05"/>
</linearGradient>
<linearGradient id="paint1_linear_14_4479" x1="-28.2398" y1="116.936" x2="100.447" y2="255.859" gradientUnits="userSpaceOnUse">
<stop stop-color="#DD3835"/>
<stop offset="1" stop-color="#DD3835" stop-opacity="0.02"/>
</linearGradient>
<linearGradient id="paint2_linear_14_4479" x1="116.26" y1="163.999" x2="112.178" y2="281.105" gradientUnits="userSpaceOnUse">
<stop stop-color="#DD3835"/>
<stop offset="1" stop-color="#DD3835" stop-opacity="0.03"/>
</linearGradient>
<linearGradient id="paint3_linear_14_4479" x1="135.205" y1="172.735" x2="131.122" y2="289.841" gradientUnits="userSpaceOnUse">
<stop stop-color="#DD3835"/>
<stop offset="1" stop-color="#DD3835" stop-opacity="0.04"/>
</linearGradient>
<linearGradient id="paint4_linear_14_4479" x1="116.271" y1="254.285" x2="112.191" y2="371.355" gradientUnits="userSpaceOnUse">
<stop stop-color="#DD3835"/>
<stop offset="1" stop-color="#DD3835" stop-opacity="0"/>
</linearGradient>
<linearGradient id="paint5_linear_14_4479" x1="135.215" y1="263.021" x2="131.135" y2="380.092" gradientUnits="userSpaceOnUse">
<stop stop-color="#DD3835"/>
<stop offset="1" stop-color="#DD3835" stop-opacity="0"/>
</linearGradient>
<linearGradient id="paint6_linear_14_4479" x1="230.611" y1="82.4778" x2="294.165" y2="209.076" gradientUnits="userSpaceOnUse">
<stop stop-color="#DD3835"/>
<stop offset="1" stop-color="#DD3835" stop-opacity="0"/>
</linearGradient>
<linearGradient id="paint7_linear_14_4479" x1="212.9" y1="74.025" x2="235.108" y2="87.5779" gradientUnits="userSpaceOnUse">
<stop stop-color="#DD3835"/>
<stop offset="1" stop-color="#DD3835" stop-opacity="0.17"/>
</linearGradient>
<linearGradient id="paint8_linear_14_4479" x1="230.972" y1="363.631" x2="208.446" y2="350.246" gradientUnits="userSpaceOnUse">
<stop stop-color="#DD3835"/>
<stop offset="1" stop-color="white" stop-opacity="0"/>
<stop offset="1" stop-color="#DD3835" stop-opacity="0.03"/>
</linearGradient>
</defs>
</svg>
