<svg width="350" height="307" viewBox="0 0 350 307" fill="none" xmlns="http://www.w3.org/2000/svg">
<path opacity="0.4" d="M80.6279 148.955C80.6279 150.243 80.6604 151.53 80.758 152.732C66.7686 162.088 56 182.146 56 199.799C56 219.027 68.7857 228.097 84.5645 220.086C84.597 220.057 84.6295 220.057 84.6621 220.028L183.792 169.756C183.824 169.728 183.857 169.728 183.922 169.699C201.62 160.686 216 135.879 216 114.277C216 94.0483 203.377 83.7764 187.208 89.9853C185.223 76.1083 174.65 70.1283 161.897 76.6233C155.78 79.7421 150.152 85.207 145.76 91.7879C139.383 83.4331 128.517 81.3444 116.22 87.5819C96.5693 97.539 80.6279 125.035 80.6279 148.955Z" fill="url(#paint0_linear_8_308)"/>
<path opacity="0.07" d="M64.6279 134.941C64.6279 136.228 64.6604 137.516 64.758 138.717C50.8011 148.1 40 168.153 40 185.804C40 205.028 52.7857 214.096 68.5645 206.086C68.597 206.058 68.6295 206.058 68.6621 206.029L167.792 155.738C167.824 155.709 167.857 155.709 167.922 155.681C185.62 146.67 200 121.868 200 100.269C200 80.0444 187.377 69.7746 171.208 75.9822C169.223 62.1079 158.65 56.1291 145.897 62.6228C139.78 65.741 134.152 71.2049 129.76 77.7845C123.383 69.4313 112.517 67.343 100.22 73.5793C80.5693 83.5344 64.6279 111.026 64.6279 134.941Z" fill="url(#paint1_linear_8_308)"/>
<path opacity="0.2" d="M237.347 172.26L252 164.529V160L237.347 167.731C236.147 168.365 234.411 169.635 232.926 171.596C231.316 173.702 230.179 176.356 230.179 179.24C230.179 182.413 231.063 184.231 232.768 184.75C234.347 185.24 236.211 184.404 237.347 183.798L243.379 180.625L243.411 180.596C243.916 180.308 244.737 180.048 245.4 180.221C245.937 180.365 246.537 180.856 246.537 182.615C246.537 184.375 245.937 185.471 245.432 186.106C244.8 186.913 243.979 187.49 243.474 187.721L243.411 187.75L225 197.471V202L243.316 192.337C244.579 191.731 246.379 190.462 247.958 188.442C249.663 186.25 250.863 183.452 250.863 180.337C250.863 177.25 249.695 175.663 248.021 175.231C246.442 174.827 244.642 175.404 243.379 176.125L237.347 179.298C236.495 179.76 235.832 179.962 235.421 179.817C235.105 179.731 234.474 179.298 234.474 176.99C234.474 175.519 235.011 174.538 235.484 173.875C236.084 173.096 236.874 172.519 237.347 172.26Z" fill="#DD3835"/>
<path d="M249 164.383C249 168.198 251.698 170.002 255 168.435C258.302 166.838 261 162.461 261 158.617C261 154.802 258.302 152.998 255 154.565C251.698 156.162 249 160.568 249 164.383Z" fill="white"/>
<path d="M217 204.383C217 208.198 219.473 210.002 222.5 208.435C225.527 206.838 228 202.461 228 198.617C228 194.802 225.527 192.998 222.5 194.565C219.473 196.162 217 200.568 217 204.383Z" fill="white"/>
<path opacity="0.07" d="M191.967 109L94 158.548V204L192 154.424L191.967 109Z" fill="url(#paint2_linear_8_308)"/>
<path opacity="0.3" d="M204.967 115L107 164.548V210L205 160.424L204.967 115Z" fill="url(#paint3_linear_8_308)"/>
<path d="M195 141.591C195 145.41 192.527 149.797 189.5 151.408C186.473 153.019 184 151.229 184 147.409C184 143.59 186.473 139.203 189.5 137.592C192.527 135.981 195 137.771 195 141.591Z" fill="white"/>
<path opacity="0.15" d="M182 149.135C182 150.905 180.885 152.975 179.484 153.725C178.115 154.475 177 153.635 177 151.865C177 150.095 178.115 148.025 179.516 147.275C180.885 146.525 182 147.365 182 149.135Z" fill="#DD3835"/>
<path opacity="0.15" d="M174 153.135C174 154.905 172.662 156.975 170.981 157.725C169.338 158.475 168 157.635 168 155.865C168 154.095 169.338 152.025 171.019 151.275C172.662 150.525 174 151.365 174 153.135Z" fill="#DD3835"/>
<path opacity="0.15" d="M131 160.961V187L135 185.039V159L131 160.961Z" fill="#DD3835"/>
<path opacity="0.15" d="M123 164.891V190L127 188.109V163L123 164.891Z" fill="#DD3835"/>
<path opacity="0.15" d="M114 168.961V195L118 193.039V167L114 168.961Z" fill="#DD3835"/>
<path opacity="0.07" d="M192 171L94 220.561V266L192 216.439V171Z" fill="url(#paint4_linear_8_308)"/>
<path opacity="0.3" d="M205 177L107 226.561V272L205 222.439V177Z" fill="url(#paint5_linear_8_308)"/>
<path d="M195 204.285C195 207.849 192.527 211.943 189.5 213.447C186.473 214.951 184 213.28 184 209.715C184 206.151 186.473 202.057 189.5 200.553C192.527 199.049 195 200.72 195 204.285Z" fill="white"/>
<path opacity="0.15" d="M182 210.832C182 212.349 180.885 214.122 179.484 214.765C178.115 215.407 177 214.688 177 213.171C177 211.655 178.115 209.881 179.516 209.239C180.885 208.596 182 209.29 182 210.832Z" fill="#DD3835"/>
<path opacity="0.15" d="M173.999 215.84C173.999 217.354 172.662 219.124 170.981 219.765C169.337 220.406 168 219.688 168 218.175C168 216.661 169.337 214.891 171.019 214.249C172.662 213.582 174.037 214.301 173.999 215.84Z" fill="#DD3835"/>
<path opacity="0.15" d="M131 223.961V250L135 248.039V222L131 223.961Z" fill="#DD3835"/>
<path opacity="0.15" d="M123 227.961V254L127 252.039V226L123 227.961Z" fill="#DD3835"/>
<path opacity="0.15" d="M114 231.961V258L118 256.039V230L114 231.961Z" fill="#DD3835"/>
<path opacity="0.3" d="M290.967 48L230 78.6236V177L291 146.348L290.967 48Z" fill="url(#paint6_linear_8_308)"/>
<path d="M253 83.8335C253 88.935 256.363 91.3531 260.5 89.2299C264.637 87.1067 268 81.268 268 76.1665C268 71.065 264.637 68.6469 260.5 70.7701C256.363 72.8933 253 78.732 253 83.8335Z" fill="white"/>
<path d="M261.017 93.2726C267.599 90.0917 273.024 93.0806 273.983 99.936C274.149 101.115 273.057 102.706 271.734 103.336L250.266 113.729C248.943 114.36 247.851 113.866 248.017 112.495C249.009 104.68 254.467 96.4534 261.017 93.2726Z" fill="white"/>
<path opacity="0.15" d="M278 112L243 130.159V134L278 115.841V112Z" fill="#DD3835"/>
<path opacity="0.15" d="M275 121L247 135.994V140L275 125.006V121Z" fill="#DD3835"/>
<path d="M268 137.458L310 117V127.542L268 148V137.458Z" fill="white"/>
<path opacity="0.2" d="M217.531 35L208.785 50.7037C207.589 52.8608 207.778 55.0179 209.225 55.5356C210.673 56.0533 212.812 54.7015 214.008 52.5444L214.102 52.3431V69.7724C214.102 71.757 215.612 72.5623 217.5 71.5844C219.388 70.5778 220.898 68.1906 220.898 66.206V48.7767L220.992 48.863C222.188 49.7546 224.359 48.8342 225.775 46.7921C227.222 44.7501 227.411 42.3917 226.215 41.5001L217.531 35Z" fill="url(#paint7_linear_8_308)"/>
<path opacity="0.2" d="M217.469 266L226.215 249.872C227.411 247.656 227.222 245.441 225.775 244.909C224.327 244.378 222.188 245.766 220.992 247.981L220.898 248.188V230.288C220.898 228.25 219.388 227.423 217.5 228.427C215.612 229.461 214.102 231.912 214.102 233.951V251.851L214.008 251.762C212.812 250.847 210.641 251.792 209.225 253.889C207.778 255.986 207.589 258.409 208.785 259.324L217.469 266Z" fill="url(#paint8_linear_8_308)"/>
<defs>
<linearGradient id="paint0_linear_8_308" x1="61.8197" y1="94.3157" x2="150.225" y2="189.662" gradientUnits="userSpaceOnUse">
<stop stop-color="#DD3835"/>
<stop offset="1" stop-color="#DD3835" stop-opacity="0.05"/>
</linearGradient>
<linearGradient id="paint1_linear_8_308" x1="45.8162" y1="80.3117" x2="134.203" y2="175.657" gradientUnits="userSpaceOnUse">
<stop stop-color="#DD3835"/>
<stop offset="1" stop-color="#DD3835" stop-opacity="0.02"/>
</linearGradient>
<linearGradient id="paint2_linear_8_308" x1="144.983" y1="112.635" x2="142.177" y2="193.063" gradientUnits="userSpaceOnUse">
<stop stop-color="#DD3835"/>
<stop offset="1" stop-color="#DD3835" stop-opacity="0.03"/>
</linearGradient>
<linearGradient id="paint3_linear_8_308" x1="157.984" y1="118.635" x2="155.178" y2="199.063" gradientUnits="userSpaceOnUse">
<stop stop-color="#DD3835"/>
<stop offset="1" stop-color="#DD3835" stop-opacity="0.04"/>
</linearGradient>
<linearGradient id="paint4_linear_8_308" x1="144.99" y1="174.643" x2="142.186" y2="255.047" gradientUnits="userSpaceOnUse">
<stop stop-color="#DD3835"/>
<stop offset="1" stop-color="#DD3835" stop-opacity="0"/>
</linearGradient>
<linearGradient id="paint5_linear_8_308" x1="157.991" y1="180.643" x2="155.187" y2="261.047" gradientUnits="userSpaceOnUse">
<stop stop-color="#DD3835"/>
<stop offset="1" stop-color="#DD3835" stop-opacity="0"/>
</linearGradient>
<linearGradient id="paint6_linear_8_308" x1="223.459" y1="56.6458" x2="267.127" y2="143.567" gradientUnits="userSpaceOnUse">
<stop stop-color="#DD3835"/>
<stop offset="1" stop-color="#DD3835" stop-opacity="0"/>
</linearGradient>
<linearGradient id="paint7_linear_8_308" x1="211.304" y1="50.8404" x2="226.551" y2="60.1382" gradientUnits="userSpaceOnUse">
<stop stop-color="#DD3835"/>
<stop offset="1" stop-color="#DD3835" stop-opacity="0.17"/>
</linearGradient>
<linearGradient id="paint8_linear_8_308" x1="223.706" y1="249.742" x2="208.241" y2="240.56" gradientUnits="userSpaceOnUse">
<stop stop-color="#DD3835"/>
<stop offset="1" stop-color="white" stop-opacity="0"/>
<stop offset="1" stop-color="#DD3835" stop-opacity="0.03"/>
</linearGradient>
</defs>
</svg>
