<svg width="350" height="307" viewBox="0 0 350 307" fill="none" xmlns="http://www.w3.org/2000/svg">
<path opacity="0.1" d="M260.973 65.987C260.972 64.5633 259.527 63.5958 258.211 64.1385L70.2381 141.634C69.4889 141.943 69.0001 142.674 69.0003 143.484L69.0271 246.013C69.0275 247.437 70.4732 248.404 71.7894 247.861L259.762 170.366C260.511 170.057 261 169.326 261 168.516L260.973 65.987Z" fill="url(#paint0_linear_8_159)"/>
<path opacity="0.2" d="M261 65.9919C261 64.5669 259.552 63.599 258.235 64.1438L70.2354 141.924C69.4876 142.233 69 142.963 69 143.772V154.008C69 155.433 70.4478 156.401 71.7646 155.856L259.765 78.0759C260.512 77.7665 261 77.0371 261 76.2278V65.9919Z" fill="url(#paint1_linear_8_159)"/>
<path opacity="0.6" d="M293 109.969C293 108.55 291.564 107.582 290.249 108.115L239.249 128.784C238.494 129.089 238 129.823 238 130.637V137.031C238 138.45 239.436 139.418 240.751 138.885L291.751 118.216C292.506 117.911 293 117.177 293 116.363V109.969Z" fill="#DD3835"/>
<path d="M140 170.982C140 169.559 138.557 168.592 137.241 169.131L85.2411 190.456C84.4903 190.764 84 191.495 84 192.307V199.018C84 200.441 85.4429 201.408 86.7589 200.869L138.759 179.544C139.51 179.236 140 178.505 140 177.693V170.982Z" fill="#EB6967"/>
<path opacity="0.15" d="M176 185.979C176 184.557 174.559 183.589 173.243 184.128L69.243 226.659C68.4912 226.966 68 227.698 68 228.51V257.021C68 258.443 69.4413 259.411 70.757 258.872L174.757 216.341C175.509 216.034 176 215.302 176 214.49V185.979Z" fill="url(#paint2_linear_8_159)"/>
<path opacity="0.07" d="M166 180.983C166 179.56 164.557 178.592 163.241 179.133L58.2406 222.231C57.4901 222.539 57 223.27 57 224.082V253.017C57 254.44 58.4434 255.408 59.7594 254.867L164.759 211.769C165.51 211.461 166 210.73 166 209.918V180.983Z" fill="url(#paint3_linear_8_159)"/>
<path opacity="0.15" d="M168 194.899C168 193.499 166.599 192.532 165.29 193.03L152.29 197.968C151.513 198.263 151 199.007 151 199.838V206.101C151 207.501 152.401 208.468 153.71 207.97L166.71 203.032C167.487 202.737 168 201.993 168 201.162V194.899Z" fill="#DD3835"/>
<path opacity="0.15" d="M148 203.899C148 202.499 146.599 201.532 145.29 202.03L132.29 206.968C131.513 207.263 131 208.007 131 208.838V215.101C131 216.501 132.401 217.468 133.71 216.97L146.71 212.032C147.487 211.737 148 210.993 148 210.162V203.899Z" fill="#DD3835"/>
<path opacity="0.15" d="M128 211.96C128 210.544 126.568 209.576 125.254 210.105L112.254 215.333C111.496 215.638 111 216.373 111 217.189V224.04C111 225.456 112.432 226.424 113.746 225.895L126.746 220.667C127.504 220.362 128 219.627 128 218.811V211.96Z" fill="#DD3835"/>
<path opacity="0.15" d="M108 219.96C108 218.544 106.568 217.576 105.254 218.105L92.2537 223.333C91.4962 223.638 91 224.373 91 225.189V232.04C91 233.456 92.4321 234.424 93.7463 233.895L106.746 228.667C107.504 228.362 108 227.627 108 226.811V219.96Z" fill="#DD3835"/>
<path opacity="0.15" d="M259 99.6099C259 98.3665 257.737 97.5217 256.588 97.9964L136.079 147.777C135.426 148.046 135 148.683 135 149.39C135 150.633 136.263 151.478 137.412 151.004L257.921 101.223C258.574 100.954 259 100.317 259 99.6099Z" fill="#DD3835"/>
<path opacity="0.15" d="M259 107.54C259 106.324 257.771 105.493 256.643 105.945L152.079 147.866C151.427 148.127 151 148.758 151 149.46C151 150.676 152.229 151.507 153.357 151.055L257.921 109.134C258.573 108.873 259 108.242 259 107.54Z" fill="#DD3835"/>
<path opacity="0.15" d="M259 114.497C259 113.299 257.792 112.477 256.678 112.918L168.074 147.923C167.426 148.18 167 148.806 167 149.503C167 150.701 168.208 151.523 169.322 151.082L257.926 116.077C258.574 115.82 259 115.194 259 114.497Z" fill="#DD3835"/>
<path opacity="0.15" d="M288 135.971C288 134.552 286.562 133.584 285.247 134.119L198.247 169.467C197.493 169.774 197 170.506 197 171.32V200.029C197 201.448 198.438 202.416 199.753 201.881L286.753 166.533C287.507 166.226 288 165.494 288 164.68V135.971Z" fill="url(#paint4_linear_8_159)"/>
<path opacity="0.07" d="M277 131.984C277 130.561 275.556 129.593 274.24 130.134L188.24 165.465C187.49 165.773 187 166.504 187 167.315V196.016C187 197.439 188.444 198.407 189.76 197.866L275.76 162.535C276.51 162.227 277 161.496 277 160.685V131.984Z" fill="url(#paint5_linear_8_159)"/>
<path opacity="0.15" d="M281.978 146.563C281.989 145.341 280.755 144.499 279.621 144.954L210.081 172.853C209.428 173.115 209 173.748 209 174.452C209 175.672 210.233 176.505 211.365 176.051L280.9 148.142C281.546 147.883 281.972 147.259 281.978 146.563Z" fill="#DD3835"/>
<path opacity="0.15" d="M282 153.544C282 152.33 280.769 151.503 279.645 151.963L226.062 173.875C225.42 174.138 225 174.762 225 175.456C225 176.67 226.231 177.497 227.355 177.037L280.938 155.125C281.58 154.862 282 154.238 282 153.544Z" fill="#DD3835"/>
<path opacity="0.2" d="M249 75.9145C249 78.475 251.254 79.6731 254 78.616C256.746 77.5589 259 74.6225 259 72.0855C259 69.525 256.746 68.3269 254 69.384C251.218 70.4411 249 73.3775 249 75.9145Z" fill="#DD3835"/>
<path opacity="0.3" d="M254.925 197.365C254.925 201.711 256.287 204.498 259.009 205.705C261.732 206.913 265.383 206.583 269.963 204.696C274.542 202.808 278.193 200.174 280.916 196.728C283.639 193.304 285 189.397 285 185.051C285 180.705 283.639 177.917 280.916 176.71C278.193 175.503 274.542 175.832 269.963 177.72C265.383 179.585 261.732 182.241 259.009 185.687C256.287 189.112 254.925 192.997 254.925 197.365ZM264.517 193.436C264.517 191.065 265.012 189.155 266.033 187.663C267.054 186.17 268.354 185.117 269.932 184.458C271.572 183.778 272.902 183.778 273.923 184.414C274.882 185.095 275.377 186.609 275.377 188.958C275.377 191.328 274.882 193.26 273.923 194.753C272.902 196.245 271.572 197.321 269.932 197.979C268.354 198.638 267.054 198.638 266.033 197.979C265.043 197.321 264.517 195.784 264.517 193.436ZM239.314 192.749C238.745 192.157 237.872 191.972 237.113 192.283L229.304 195.482C227.998 196.017 227.642 197.699 228.619 198.717L258.841 230.207C259.409 230.799 260.282 230.984 261.042 230.673L268.851 227.474C270.157 226.939 270.513 225.257 269.536 224.239L239.314 192.749ZM213 237.949C213 242.295 214.361 245.083 217.084 246.29C219.807 247.497 223.458 247.168 228.037 245.28C232.617 243.415 236.268 240.759 238.991 237.313C241.713 233.888 243.075 229.981 243.075 225.635C243.075 221.289 241.713 218.502 238.991 217.295C236.268 216.087 232.617 216.417 228.037 218.304C223.458 220.17 219.807 222.826 217.084 226.272C214.361 229.696 213 233.603 213 237.949ZM222.592 234.02C222.592 231.65 223.087 229.74 224.108 228.247C225.129 226.755 226.428 225.701 228.006 225.043C229.646 224.362 230.977 224.362 231.998 224.999C232.957 225.679 233.452 227.194 233.452 229.542C233.452 231.913 232.957 233.845 231.998 235.337C230.977 236.83 229.646 237.905 228.006 238.564C226.428 239.222 225.129 239.222 224.108 238.564C223.118 237.927 222.592 236.391 222.592 234.02Z" fill="url(#paint6_linear_8_159)"/>
<defs>
<linearGradient id="paint0_linear_8_159" x1="127.585" y1="129.346" x2="175.988" y2="196.979" gradientUnits="userSpaceOnUse">
<stop stop-color="#DD3835"/>
<stop offset="1" stop-color="#DD3835" stop-opacity="0"/>
</linearGradient>
<linearGradient id="paint1_linear_8_159" x1="213.359" y1="51.2849" x2="170.524" y2="152.52" gradientUnits="userSpaceOnUse">
<stop stop-color="#DD3835" stop-opacity="0.04"/>
<stop offset="1" stop-color="#DD3835"/>
</linearGradient>
<linearGradient id="paint2_linear_8_159" x1="111.967" y1="209.192" x2="122.563" y2="235.104" gradientUnits="userSpaceOnUse">
<stop stop-color="#DD3835"/>
<stop offset="1" stop-color="#DD3835" stop-opacity="0"/>
</linearGradient>
<linearGradient id="paint3_linear_8_159" x1="101.366" y1="204.53" x2="112.128" y2="230.75" gradientUnits="userSpaceOnUse">
<stop stop-color="#DD3835"/>
<stop offset="1" stop-color="#DD3835" stop-opacity="0"/>
</linearGradient>
<linearGradient id="paint4_linear_8_159" x1="232.351" y1="155.616" x2="242.963" y2="181.725" gradientUnits="userSpaceOnUse">
<stop stop-color="#DD3835"/>
<stop offset="1" stop-color="#DD3835" stop-opacity="0"/>
</linearGradient>
<linearGradient id="paint5_linear_8_159" x1="221.954" y1="151.612" x2="232.65" y2="177.639" gradientUnits="userSpaceOnUse">
<stop stop-color="#DD3835" stop-opacity="0.06"/>
<stop offset="1" stop-color="#DD3835"/>
</linearGradient>
<linearGradient id="paint6_linear_8_159" x1="232.195" y1="194.798" x2="258.846" y2="247.465" gradientUnits="userSpaceOnUse">
<stop stop-color="#DD3835"/>
<stop offset="1" stop-color="#DD3835" stop-opacity="0"/>
</linearGradient>
</defs>
</svg>
