<svg width="350" height="307" viewBox="0 0 350 307" fill="none" xmlns="http://www.w3.org/2000/svg">
<path opacity="0.2" d="M135 171.45C135 189.286 145.314 197.73 158 190.305C170.722 182.879 181 162.386 181 144.55C181 126.714 170.686 118.27 158 125.695C145.278 133.121 134.964 153.614 135 171.45Z" fill="url(#paint0_linear_8_447)"/>
<path opacity="0.4" d="M169.036 197.305C156.314 204.73 146.036 196.286 146 178.45C146 160.614 156.314 140.121 169 132.695C181.722 125.27 192 133.714 192 151.55C192.036 169.386 181.722 189.879 169.036 197.305ZM172.989 146.309L168.569 148.893V153.225C168.137 153.516 167.706 153.807 167.275 154.098C166.161 154.863 165.119 155.663 164.148 156.464V184.565C165.37 184.237 166.52 183.764 167.634 183.182C167.958 183.036 168.245 182.89 168.569 182.708V187.04L172.989 184.456V180.088C175.145 178.559 176.834 176.848 178.056 174.955C179.637 172.48 180.428 169.75 180.428 166.693C180.428 165.2 180.176 163.963 179.709 163.053C179.242 162.143 178.344 161.706 177.05 161.779C178.631 159.522 179.422 157.229 179.422 154.899C179.422 153.37 179.206 152.206 178.739 151.441C178.308 150.64 177.697 150.131 176.906 149.985C176.116 149.84 175.145 149.912 174.067 150.313C173.744 150.422 173.384 150.568 173.025 150.713L172.989 146.309Z" fill="#DD3835"/>
<path opacity="0.4" d="M171.172 163.665L169 165V158.582C169.345 158.323 169.724 158.026 170.172 157.766C170.621 157.469 171.034 157.21 171.414 156.95C172.586 156.208 173.483 155.911 174.103 156.023C174.724 156.134 175 156.765 175 157.952C175 159.102 174.69 160.14 174.103 161.068C173.517 161.958 172.552 162.811 171.172 163.665Z" fill="#DD3835"/>
<path opacity="0.4" d="M169 177V169.626L171.893 167.943C173.214 167.192 174.214 166.869 174.929 167.048C175.643 167.192 176 167.907 176 169.232C176 170.7 175.571 171.988 174.714 173.027C173.857 174.065 172.75 174.995 171.357 175.783C170.893 176.069 170.464 176.284 170.071 176.499C169.714 176.678 169.357 176.857 169 177Z" fill="#DD3835"/>
<path opacity="0.3" d="M200.898 29.3395C198.612 30.1073 196.797 31.984 196.797 33.5195V74.7219L176 81.7809V124.284C176 125.82 177.851 126.438 180.101 125.67C182.388 124.903 184.203 123.026 184.203 121.49V84.5533L204.999 77.4943V30.7044C205.036 29.1903 203.185 28.5505 200.898 29.3395Z" fill="url(#paint1_linear_8_447)"/>
<path opacity="0.3" d="M188.934 266.436C186.648 267.75 184.833 266.691 184.833 264.064V211.229L164 223.307V188.716C164 186.089 165.851 182.878 168.101 181.564C170.388 180.25 172.203 181.309 172.203 183.936V209.003L192.999 196.926V259.284C193.036 261.911 191.185 265.122 188.934 266.436Z" fill="url(#paint2_linear_8_447)"/>
<path opacity="0.3" d="M157 75.2937C154.77 75.9777 153 77.6497 153 79.0177V141.471C153 142.839 154.805 143.39 157 142.706C159.23 142.022 161 140.35 161 138.982V76.5287C161 75.1607 159.195 74.6097 157 75.2937Z" fill="url(#paint3_linear_8_447)"/>
<path d="M181 260.385C181 267.516 185.031 270.901 190 267.912C194.969 264.959 199 256.747 199 249.615C199 242.484 194.969 239.099 190 242.088C185.031 245.077 181 253.253 181 260.385Z" fill="white"/>
<path opacity="0.3" d="M112.101 73.5572C114.388 72.2594 116.203 73.3049 116.203 75.9005V111.085L137 99.1528V142.377C137 144.973 135.149 148.145 132.899 149.443C130.612 150.741 128.797 149.695 128.797 147.099V113.284L108 125.217V80.6231C108 78.0275 109.815 74.855 112.101 73.5572Z" fill="url(#paint4_linear_8_447)"/>
<path d="M102 85.379C102 92.5268 106.268 95.8818 111.5 92.9279C116.732 89.9376 121 81.7687 121 74.621C121 67.4732 116.732 64.1182 111.5 67.0721C106.268 70.026 102 78.2678 102 85.379Z" fill="white"/>
<path opacity="0.3" d="M72 267.044C72 264.425 73.836 261.224 76.068 259.914L108.108 241.216V214.115L139.932 195.562C142.2 194.253 144 195.308 144 197.927C144 200.546 142.164 203.747 139.932 205.057L116.244 218.88V245.982L76.104 269.445C73.836 270.755 72 269.663 72 267.044Z" fill="url(#paint5_linear_8_447)"/>
<path opacity="0.3" d="M150 278.604C152.23 277.671 154 275.389 154 273.523V212.086C154 210.219 152.195 209.467 150 210.401C147.77 211.334 146 213.615 146 215.482V276.919C146 278.759 147.805 279.537 150 278.604Z" fill="url(#paint6_linear_8_447)"/>
<path d="M67 269.385C67 276.516 71.2548 279.901 76.5 276.912C81.7452 273.959 86 265.747 86 258.615C86 251.484 81.7452 248.099 76.5 251.088C71.2548 254.077 67 262.253 67 269.385Z" fill="white"/>
<path opacity="0.3" d="M268 126L209 159.979V269L268 235.021V126Z" fill="url(#paint7_linear_8_447)"/>
<path opacity="0.15" d="M258 195L223 215.619V220L258 199.381V195Z" fill="#DD3835"/>
<path opacity="0.15" d="M255 206L227 221.773V226L255 210.227V206Z" fill="#DD3835"/>
<path d="M245 225.098L286 202V213.902L245 237V225.098Z" fill="white"/>
<path opacity="0.2" d="M225 170.877L234.319 178L240.581 170.236L248.759 177.074L252 174.795L239.955 165L233.84 172.764L227.1 167.921L225 170.877Z" fill="#DD3835"/>
<path d="M218 170.075C218 174.163 220.469 176.081 223.5 174.38C226.531 172.68 229 168.013 229 163.925C229 159.837 226.531 157.919 223.5 159.62C220.469 161.32 218 165.987 218 170.075Z" fill="white"/>
<path d="M246 178.075C246 182.163 248.245 184.081 251 182.38C253.755 180.68 256 176.013 256 171.925C256 167.837 253.755 165.919 251 167.62C248.245 169.32 246 173.987 246 178.075Z" fill="white"/>
<path opacity="0.2" d="M65 197.079L121 165V193.921L65 226V197.079Z" fill="url(#paint8_linear_8_447)"/>
<path opacity="0.15" d="M107 180L90 189.555V193L107 183.445V180Z" fill="#DD3835"/>
<path opacity="0.15" d="M107 187L71 207.49V211L107 190.51V187Z" fill="#DD3835"/>
<path d="M110 181.239C110 183.512 111.33 184.614 113 183.65C114.67 182.686 116 180.034 116 177.761C116 175.488 114.67 174.386 113 175.35C111.33 176.314 110 178.966 110 181.239Z" fill="white"/>
<path opacity="0.2" d="M209 107.605L265 75V104.395L209 137V107.605Z" fill="url(#paint9_linear_8_447)"/>
<path opacity="0.15" d="M250 91L234 100.555V104L250 94.4454V91Z" fill="#DD3835"/>
<path opacity="0.15" d="M250 98L215 118.49V122L250 101.51V98Z" fill="#DD3835"/>
<path d="M253 91.9325C253 94.4582 254.551 95.6828 256.5 94.6113C258.449 93.5398 260 90.5931 260 88.0675C260 85.5418 258.449 84.3172 256.5 85.3887C254.591 86.4602 253 89.3686 253 91.9325Z" fill="white"/>
<defs>
<linearGradient id="paint0_linear_8_447" x1="153.378" y1="131.334" x2="164.041" y2="191.285" gradientUnits="userSpaceOnUse">
<stop stop-color="#DD3835"/>
<stop offset="1" stop-color="#DD3835" stop-opacity="0"/>
</linearGradient>
<linearGradient id="paint1_linear_8_447" x1="159.675" y1="46.103" x2="184.26" y2="118.591" gradientUnits="userSpaceOnUse">
<stop stop-color="#DD3835"/>
<stop offset="1" stop-color="#DD3835" stop-opacity="0"/>
</linearGradient>
<linearGradient id="paint2_linear_8_447" x1="202.108" y1="254.008" x2="164.159" y2="188.612" gradientUnits="userSpaceOnUse">
<stop stop-color="#DD3835"/>
<stop offset="1" stop-color="#DD3835" stop-opacity="0"/>
</linearGradient>
<linearGradient id="paint3_linear_8_447" x1="131.813" y1="85.5836" x2="149.469" y2="142.573" gradientUnits="userSpaceOnUse">
<stop stop-color="#DD3835"/>
<stop offset="1" stop-color="#DD3835" stop-opacity="0"/>
</linearGradient>
<linearGradient id="paint4_linear_8_447" x1="90.0802" y1="56.3949" x2="138.791" y2="141.36" gradientUnits="userSpaceOnUse">
<stop stop-color="#DD3835"/>
<stop offset="1" stop-color="#DD3835" stop-opacity="0"/>
</linearGradient>
<linearGradient id="paint5_linear_8_447" x1="58.6048" y1="232.505" x2="139.969" y2="232.496" gradientUnits="userSpaceOnUse">
<stop stop-color="#DD3835"/>
<stop offset="1" stop-color="#DD3835" stop-opacity="0"/>
</linearGradient>
<linearGradient id="paint6_linear_8_447" x1="168.182" y1="267.514" x2="146.104" y2="215.356" gradientUnits="userSpaceOnUse">
<stop stop-color="#DD3835"/>
<stop offset="1" stop-color="#DD3835" stop-opacity="0"/>
</linearGradient>
<linearGradient id="paint7_linear_8_447" x1="202.693" y1="135.582" x2="254.869" y2="226.211" gradientUnits="userSpaceOnUse">
<stop stop-color="#DD3835"/>
<stop offset="1" stop-color="#DD3835" stop-opacity="0"/>
</linearGradient>
<linearGradient id="paint8_linear_8_447" x1="86.6699" y1="184.657" x2="99.1479" y2="206.452" gradientUnits="userSpaceOnUse">
<stop stop-color="#DD3835"/>
<stop offset="1" stop-color="white" stop-opacity="0"/>
</linearGradient>
<linearGradient id="paint9_linear_8_447" x1="230.682" y1="94.9686" x2="243.469" y2="116.942" gradientUnits="userSpaceOnUse">
<stop stop-color="#DD3835"/>
<stop offset="0.9999" stop-color="#DD3835" stop-opacity="0.015625"/>
<stop offset="1" stop-color="white" stop-opacity="0"/>
</linearGradient>
</defs>
</svg>
