<svg width="452" height="517" viewBox="0 0 452 517" fill="none" xmlns="http://www.w3.org/2000/svg">
<path opacity="0.2" d="M90.1857 288.728C90.1857 318.764 107.543 332.985 128.891 320.481C150.3 307.976 167.597 273.465 167.597 243.428C167.597 213.392 150.24 199.171 128.891 211.676C107.482 224.181 90.1252 258.692 90.1857 288.728Z" fill="url(#paint0_linear_16_1434)"/>
<path opacity="0.4" d="M147.463 332.269C126.054 344.774 108.758 330.552 108.697 300.516C108.697 270.48 126.054 235.969 147.403 223.464C168.812 210.959 186.109 225.18 186.109 255.217C186.169 285.253 168.812 319.764 147.463 332.269ZM154.116 246.39L146.677 250.742V258.036C145.951 258.527 145.226 259.017 144.5 259.508C142.625 260.795 140.871 262.143 139.238 263.492V310.814C141.295 310.263 143.23 309.466 145.105 308.485C145.649 308.24 146.133 307.995 146.677 307.688V314.983L154.116 310.63V303.275C157.745 300.7 160.587 297.819 162.643 294.632C165.304 290.463 166.635 285.866 166.635 280.717C166.635 278.204 166.211 276.119 165.425 274.587C164.639 273.054 163.127 272.319 160.95 272.442C163.611 268.641 164.941 264.779 164.941 260.856C164.941 258.282 164.579 256.32 163.792 255.033C163.067 253.684 162.038 252.826 160.708 252.581C159.377 252.336 157.745 252.458 155.93 253.132C155.386 253.316 154.781 253.562 154.176 253.807L154.116 246.39Z" fill="#DD3835"/>
<path opacity="0.4" d="M151.058 275.617L147.402 277.866V267.059C147.983 266.622 148.621 266.122 149.375 265.684C150.13 265.185 150.826 264.747 151.464 264.31C153.437 263.061 154.946 262.561 155.991 262.748C157.035 262.936 157.499 263.998 157.499 265.997C157.499 267.933 156.977 269.683 155.991 271.244C155.004 272.744 153.379 274.181 151.058 275.617Z" fill="#DD3835"/>
<path opacity="0.4" d="M147.402 298.075V285.656L152.271 282.823C154.494 281.557 156.177 281.015 157.379 281.316C158.581 281.557 159.182 282.763 159.182 284.993C159.182 287.465 158.461 289.635 157.019 291.383C155.576 293.132 153.713 294.699 151.369 296.025C150.588 296.507 149.867 296.869 149.205 297.231C148.604 297.532 148.003 297.834 147.402 298.075Z" fill="#DD3835"/>
<path opacity="0.3" d="M201.084 49.409C197.236 50.7019 194.182 53.8623 194.182 56.4482V125.835L159.184 137.722V209.299C159.184 211.885 162.299 212.927 166.086 211.634C169.933 210.341 172.987 207.18 172.987 204.595V142.391L207.986 130.503V51.7075C208.047 49.1576 204.932 48.0801 201.084 49.409Z" fill="url(#paint1_linear_16_1434)"/>
<path opacity="0.3" d="M180.949 448.689C177.101 450.901 174.048 449.119 174.048 444.694V355.718L138.988 376.057V317.805C138.988 313.38 142.103 307.973 145.89 305.761C149.738 303.549 152.792 305.331 152.792 309.755V351.97L187.79 331.63V436.645C187.851 441.069 184.736 446.476 180.949 448.689Z" fill="url(#paint2_linear_16_1434)"/>
<path opacity="0.3" d="M127.208 126.798C123.455 127.949 120.477 130.765 120.477 133.069V238.243C120.477 240.547 123.515 241.475 127.208 240.323C130.961 239.171 133.939 236.355 133.939 234.052V128.877C133.939 126.574 130.901 125.646 127.208 126.798Z" fill="url(#paint3_linear_16_1434)"/>
<path d="M167.598 438.498C167.598 450.507 174.381 456.209 182.743 451.174C191.106 446.201 197.889 432.372 197.889 420.362C197.889 408.353 191.106 402.651 182.743 407.686C174.381 412.72 167.598 426.488 167.598 438.498Z" fill="white"/>
<path opacity="0.3" d="M51.6501 123.873C55.4981 121.688 58.5521 123.448 58.5521 127.819V187.072L93.5509 166.977V239.768C93.5509 244.139 90.4358 249.482 86.6489 251.667C82.8008 253.853 79.7468 252.092 79.7468 247.721V190.775L44.748 210.87V135.772C44.748 131.401 47.802 126.059 51.6501 123.873Z" fill="url(#paint4_linear_16_1434)"/>
<path d="M34.6523 143.782C34.6523 155.819 41.8341 161.469 50.6395 156.494C59.4449 151.458 66.6266 137.702 66.6266 125.665C66.6266 113.628 59.4449 107.978 50.6395 112.952C41.8341 117.927 34.6523 131.806 34.6523 143.782Z" fill="white"/>
<path opacity="0.3" d="M-15.834 449.713C-15.834 445.302 -12.7443 439.911 -8.98812 437.706L44.9306 406.217V360.578L98.4859 329.335C102.303 327.129 105.332 328.906 105.332 333.317C105.332 337.727 102.242 343.118 98.4859 345.324L58.6223 368.603V414.243L-8.92754 453.756C-12.7443 455.962 -15.834 454.124 -15.834 449.713Z" fill="url(#paint5_linear_16_1434)"/>
<path opacity="0.3" d="M115.429 469.18C119.182 467.608 122.16 463.767 122.16 460.623V357.161C122.16 354.017 119.122 352.751 115.429 354.323C111.676 355.895 108.697 359.736 108.697 362.879V466.342C108.697 469.442 111.735 470.752 115.429 469.18Z" fill="url(#paint6_linear_16_1434)"/>
<path d="M-24.248 453.654C-24.248 465.663 -17.0878 471.365 -8.2609 466.331C0.565981 461.357 7.72625 447.528 7.72625 435.519C7.72625 423.509 0.565981 417.808 -8.2609 422.842C-17.0878 427.876 -24.248 441.645 -24.248 453.654Z" fill="white"/>
<path opacity="0.3" d="M314.005 212.189L214.717 269.411V453.007L314.005 395.785V212.189Z" fill="url(#paint7_linear_16_1434)"/>
<path opacity="0.15" d="M297.177 328.388L238.277 363.11V370.489L297.177 335.766V328.388Z" fill="#DD3835"/>
<path opacity="0.15" d="M292.128 346.912L245.008 373.474V380.593L292.128 354.031V346.912Z" fill="#DD3835"/>
<path d="M275.301 379.074L344.298 340.176V360.22L275.301 399.117V379.074Z" fill="white"/>
<path opacity="0.2" d="M241.643 287.763L257.326 299.759L267.863 286.683L281.625 298.199L287.08 294.361L266.81 277.866L256.52 290.942L245.176 282.785L241.643 287.763Z" fill="#DD3835"/>
<path d="M229.863 286.413C229.863 293.298 234.019 296.527 239.119 293.663C244.219 290.8 248.375 282.94 248.375 276.056C248.375 269.171 244.219 265.942 239.119 268.806C234.019 271.669 229.863 279.529 229.863 286.413Z" fill="white"/>
<path d="M276.982 299.885C276.982 306.77 280.76 309.999 285.397 307.136C290.033 304.272 293.811 296.413 293.811 289.528C293.811 282.644 290.033 279.414 285.397 282.278C280.76 285.141 276.982 293.001 276.982 299.885Z" fill="white"/>
<path opacity="0.2" d="M-27.6152 331.888L66.6247 277.866V326.571L-27.6152 380.593V331.888Z" fill="url(#paint8_linear_16_1434)"/>
<path opacity="0.15" d="M43.0656 303.127L14.457 319.217V325.02L43.0656 308.929V303.127Z" fill="#DD3835"/>
<path opacity="0.15" d="M43.0653 314.915L-17.5176 349.421V355.332L43.0653 320.827V314.915Z" fill="#DD3835"/>
<path d="M48.1152 305.214C48.1152 309.042 50.3527 310.898 53.1638 309.274C55.9749 307.65 58.2124 303.184 58.2124 299.356C58.2124 295.528 55.9749 293.672 53.1638 295.296C50.3527 296.92 48.1152 301.386 48.1152 305.214Z" fill="white"/>
<path opacity="0.2" d="M214.717 181.211L308.957 126.303V175.806L214.717 230.713V181.211Z" fill="url(#paint9_linear_16_1434)"/>
<path opacity="0.15" d="M283.715 153.248L256.789 169.338V175.14L283.715 159.05V153.248Z" fill="#DD3835"/>
<path opacity="0.15" d="M283.714 165.036L224.814 199.541V205.453L283.714 170.948V165.036Z" fill="#DD3835"/>
<path d="M288.764 154.818C288.764 159.071 291.374 161.133 294.654 159.329C297.933 157.525 300.544 152.562 300.544 148.309C300.544 144.056 297.933 141.994 294.654 143.798C291.441 145.602 288.764 150.5 288.764 154.818Z" fill="white"/>
<defs>
<linearGradient id="paint0_linear_16_1434" x1="121.114" y1="221.171" x2="139.083" y2="322.127" gradientUnits="userSpaceOnUse">
<stop stop-color="#DD3835"/>
<stop offset="1" stop-color="#DD3835" stop-opacity="0"/>
</linearGradient>
<linearGradient id="paint1_linear_16_1434" x1="131.711" y1="77.6393" x2="173.136" y2="199.694" gradientUnits="userSpaceOnUse">
<stop stop-color="#DD3835"/>
<stop offset="1" stop-color="#DD3835" stop-opacity="0"/>
</linearGradient>
<linearGradient id="paint2_linear_16_1434" x1="203.118" y1="427.76" x2="139.189" y2="317.669" gradientUnits="userSpaceOnUse">
<stop stop-color="#DD3835"/>
<stop offset="1" stop-color="#DD3835" stop-opacity="0"/>
</linearGradient>
<linearGradient id="paint3_linear_16_1434" x1="84.8222" y1="144.126" x2="114.573" y2="240.087" gradientUnits="userSpaceOnUse">
<stop stop-color="#DD3835"/>
<stop offset="1" stop-color="#DD3835" stop-opacity="0"/>
</linearGradient>
<linearGradient id="paint4_linear_16_1434" x1="14.5916" y1="94.9711" x2="96.6516" y2="238.006" gradientUnits="userSpaceOnUse">
<stop stop-color="#DD3835"/>
<stop offset="1" stop-color="#DD3835" stop-opacity="0"/>
</linearGradient>
<linearGradient id="paint5_linear_16_1434" x1="-38.3763" y1="391.547" x2="98.5484" y2="391.532" gradientUnits="userSpaceOnUse">
<stop stop-color="#DD3835"/>
<stop offset="1" stop-color="#DD3835" stop-opacity="0"/>
</linearGradient>
<linearGradient id="paint6_linear_16_1434" x1="146.026" y1="450.503" x2="108.828" y2="362.687" gradientUnits="userSpaceOnUse">
<stop stop-color="#DD3835"/>
<stop offset="1" stop-color="#DD3835" stop-opacity="0"/>
</linearGradient>
<linearGradient id="paint7_linear_16_1434" x1="204.103" y1="228.326" x2="292.001" y2="380.894" gradientUnits="userSpaceOnUse">
<stop stop-color="#DD3835"/>
<stop offset="1" stop-color="#DD3835" stop-opacity="0"/>
</linearGradient>
<linearGradient id="paint8_linear_16_1434" x1="8.85211" y1="310.969" x2="29.8731" y2="347.66" gradientUnits="userSpaceOnUse">
<stop stop-color="#DD3835"/>
<stop offset="1" stop-color="white" stop-opacity="0"/>
</linearGradient>
<linearGradient id="paint9_linear_16_1434" x1="251.205" y1="159.931" x2="272.745" y2="196.921" gradientUnits="userSpaceOnUse">
<stop stop-color="#DD3835"/>
<stop offset="0.9999" stop-color="#DD3835" stop-opacity="0.015625"/>
<stop offset="1" stop-color="white" stop-opacity="0"/>
</linearGradient>
</defs>
</svg>
