<svg width="320" height="415" viewBox="0 0 320 415" fill="none" xmlns="http://www.w3.org/2000/svg">
<path d="M248.031 414.362H80.8616C62.7184 414.362 47.875 399.52 47.875 381.379V42.9305C47.875 24.7892 62.7184 9.94739 80.8616 9.94739H248.031C266.174 9.94739 281.018 24.7892 281.018 42.9305V381.379C281.03 399.52 266.174 414.362 248.031 414.362Z" fill="white" stroke="#D11329" stroke-width="1.117" stroke-miterlimit="10"/>
<path d="M271.456 52.9379H56.8672V377.669H271.456V52.9379Z" fill="white" stroke="#D11329" stroke-width="1.117" stroke-miterlimit="10"/>
<path d="M185.139 347.308H82.2146C75.5303 347.308 70.0547 352.783 70.0547 359.467C70.0547 366.151 75.5303 371.626 82.2146 371.626H185.139C191.824 371.626 197.299 366.151 197.299 359.467C197.299 352.771 191.824 347.308 185.139 347.308Z" fill="#F0F3F5"/>
<path d="M167.95 384.606H160.94C159.368 384.606 157.918 385.44 157.12 386.806L153.615 392.873C152.829 394.239 152.829 395.919 153.615 397.272L157.12 403.34C157.906 404.705 159.356 405.539 160.94 405.539H167.95C169.522 405.539 170.972 404.705 171.77 403.34L175.275 397.272C176.061 395.907 176.061 394.227 175.275 392.873L171.77 386.806C170.972 385.452 169.522 384.606 167.95 384.606Z" fill="#D11329"/>
<path d="M252.938 25.0067V53.0829C252.938 56.612 255.79 59.4644 259.32 59.4644H264.324C267.056 59.4644 269.123 62.0266 268.446 64.6856C268.023 66.3655 267.358 68.1543 266.33 69.6892C265.424 71.0429 266.717 72.8437 268.301 72.4691C275.239 70.8133 278.817 66.3897 280.183 62.2683C280.702 60.7092 282.528 59.4644 284.171 59.4644H289.538C291.883 59.4644 293.781 57.5668 293.781 55.2221V25.0067C293.781 21.4776 290.928 18.6252 287.399 18.6252H259.32C255.802 18.6252 252.938 21.4776 252.938 25.0067Z" fill="#D11329"/>
<path d="M84.0777 27.5206V50.4964C84.0777 53.385 81.7328 55.7176 78.856 55.7176H74.7583C72.5221 55.7176 70.8299 57.8206 71.3738 59.984C71.7244 61.3618 72.2562 62.8242 73.1023 64.0812C73.8397 65.1931 72.7881 66.6676 71.4947 66.3534C65.8136 64.9998 62.8884 61.3739 61.7643 58.0019C61.3413 56.7328 59.8424 55.7055 58.5007 55.7055H4.44566C2.52376 55.7055 0.976562 54.1464 0.976562 52.2368V27.5206C0.976562 24.632 3.32153 22.2994 6.19834 22.2994H78.8439C81.7328 22.2994 84.0777 24.632 84.0777 27.5206Z" fill="white" stroke="#D11329" stroke-width="1.117" stroke-miterlimit="10"/>
<path d="M109.648 264.905H15.5393C8.17892 264.905 2.15039 260.279 2.15039 254.632C2.15039 248.984 8.17892 244.358 15.5393 244.358H109.636C116.996 244.358 123.025 248.984 123.025 254.632C123.025 260.288 117.008 264.905 109.648 264.905Z" fill="#D11329"/>
<path d="M61.2951 299.955H14.3322C7.63541 299.955 2.15039 295.329 2.15039 289.681C2.15039 284.034 7.63541 279.408 14.3322 279.408H61.2844C67.9813 279.408 73.4663 284.034 73.4663 289.681C73.4663 295.329 67.9919 299.955 61.2951 299.955Z" fill="#D11329"/>
<path d="M84.1334 335.004H14.4494C7.68818 335.004 2.15039 330.651 2.15039 325.336C2.15039 320.02 7.68818 315.667 14.4494 315.667H84.1334C90.8946 315.667 96.4324 320.02 96.4324 325.336C96.4324 330.651 90.9054 335.004 84.1334 335.004Z" fill="#D11329"/>
<path d="M290.763 290.962C286.532 286.732 279.594 286.732 275.363 290.962L273.925 292.401L272.486 290.962C268.256 286.732 261.318 286.732 257.087 290.962C252.856 295.193 252.856 302.13 257.087 306.36L273.925 323.196L290.763 306.36C294.993 302.13 294.993 295.193 290.763 290.962Z" fill="#D11329"/>
<path d="M280.838 43.7765L274.818 37.7576L280.838 31.7387C281.237 31.3399 281.237 30.6872 280.838 30.2763C280.439 29.8775 279.786 29.8775 279.375 30.2763L273.356 36.2952L267.336 30.2763C266.937 29.8775 266.284 29.8775 265.873 30.2763C265.474 30.6751 265.474 31.3399 265.873 31.7387L271.893 37.7576L265.873 43.7765C265.474 44.1754 265.474 44.828 265.873 45.239C266.272 45.6378 266.937 45.6378 267.336 45.239L273.356 39.2201L279.375 45.239C279.774 45.6378 280.427 45.6378 280.838 45.239C281.237 44.8401 281.237 44.1875 280.838 43.7765Z" fill="white"/>
<path d="M191.051 359.431C191.051 362.682 188.415 365.317 185.164 365.317C181.912 365.317 179.277 362.682 179.277 359.431C179.277 356.179 181.912 353.545 185.164 353.545C188.403 353.533 191.051 356.179 191.051 359.431Z" fill="#D11329"/>
<path d="M253.822 369.498L242.472 369.474C241.179 369.474 240.127 368.423 240.127 367.129L240.151 355.781C240.151 354.487 241.203 353.436 242.496 353.436L253.846 353.46C255.14 353.46 256.191 354.511 256.191 355.805L256.179 367.154C256.167 368.447 255.115 369.498 253.822 369.498Z" fill="white" stroke="#D11329" stroke-width="1.117" stroke-miterlimit="10"/>
<path d="M254.548 351.889C254.536 351.853 254.511 351.816 254.499 351.78C253.194 348.976 251.284 352.505 249.157 352.687C249.096 352.687 249.048 352.687 248.987 352.687V353.085V353.375C249.048 353.375 249.108 353.375 249.169 353.375C251.61 353.448 255.768 354.705 254.548 351.889ZM246.8 353.085L246.787 352.674C246.691 352.674 246.594 352.662 246.509 352.65C244.636 352.384 242.944 349.617 241.674 351.103C241.542 351.26 241.409 351.478 241.288 351.744C239.934 354.657 243.983 353.472 246.473 353.363C246.582 353.363 246.691 353.351 246.8 353.351V353.085Z" fill="#D11329"/>
<path d="M249.168 352.795V353.375C249.168 353.484 249.168 353.569 249.168 353.569L246.484 353.545V353.085C246.484 352.916 246.496 352.771 246.509 352.65C246.557 352.396 246.678 352.276 246.98 352.276H248.684C248.986 352.276 249.119 352.445 249.144 352.674C249.156 352.723 249.168 352.759 249.168 352.795Z" fill="#D11329"/>
<path d="M249.653 353.379L246.16 353.373L246.134 369.738L249.627 369.743L249.653 353.379Z" fill="#D11329"/>
<path d="M224.135 352.215C221.826 350.33 218.418 350.692 216.314 352.795L215.758 353.351L215.202 352.795C213.099 350.692 209.69 350.33 207.382 352.215C204.735 354.379 204.59 358.319 206.947 360.675L214.791 368.519C215.323 369.051 216.193 369.051 216.725 368.519L224.57 360.675C226.927 358.319 226.782 354.379 224.135 352.215Z" fill="#D11329"/>
<path d="M29.6109 38.507C29.6109 44.816 24.4979 49.9284 18.1883 49.9284C11.8786 49.9284 6.76562 44.816 6.76562 38.507C6.76562 32.198 11.8786 27.0856 18.1883 27.0856C24.4858 27.0856 29.6109 32.198 29.6109 38.507Z" fill="#D11329"/>
<path d="M65.7654 31.6541H35.9336V37.0687H65.7654V31.6541Z" fill="#D11329"/>
<path d="M48.7463 39.9452H35.9336V45.3598H48.7463V39.9452Z" fill="#D11329"/>
<path d="M203.259 28.5238H119.179C115.057 28.5238 111.709 25.188 111.709 21.0546V8.2674C111.709 4.14602 115.045 0.798157 119.179 0.798157H203.259C207.381 0.798157 210.729 4.13393 210.729 8.2674V21.0666C210.717 25.188 207.381 28.5238 203.259 28.5238Z" fill="white" stroke="#D11329" stroke-width="1.117" stroke-miterlimit="10"/>
<path d="M133.937 11.6516C138.047 11.8933 141.806 12.8602 144.877 14.3589C142.701 11.289 137.745 9.13763 131.979 9.13763C126.214 9.13763 121.258 11.289 119.082 14.3589C121.971 12.9569 125.464 12.0141 129.284 11.712C127.761 12.558 126.733 14.1655 126.733 16.0267C126.733 18.7461 128.945 20.9579 131.665 20.9579C134.385 20.9579 136.597 18.7461 136.597 16.0267C136.597 14.1171 135.521 12.4734 133.937 11.6516Z" fill="#D11329"/>
<path d="M158.648 9.36966V17.2611H157.532V10.3505H155.75V9.36966H158.648ZM161.129 15.7843C161.34 15.7843 161.512 15.8594 161.648 16.0097C161.791 16.1525 161.862 16.3329 161.862 16.5509C161.862 16.6636 161.847 16.7726 161.817 16.8778C161.794 16.983 161.745 17.1446 161.67 17.3626L161.14 18.9296H160.43L160.847 17.2498C160.704 17.1972 160.588 17.1108 160.498 16.9905C160.415 16.8628 160.374 16.7162 160.374 16.5509C160.374 16.3254 160.445 16.1413 160.588 15.9985C160.731 15.8557 160.911 15.7843 161.129 15.7843ZM168.585 16.2803V17.2611H162.914V16.4945L166.127 13.3943C166.518 13.0185 166.781 12.6953 166.916 12.4248C167.051 12.1467 167.119 11.8686 167.119 11.5905C167.119 11.1772 166.972 10.8578 166.679 10.6323C166.394 10.3993 165.98 10.2828 165.439 10.2828C164.567 10.2828 163.895 10.5684 163.421 11.1396L162.655 10.4745C162.963 10.0987 163.365 9.80557 163.861 9.59513C164.365 9.38469 164.924 9.27947 165.541 9.27947C166.367 9.27947 167.025 9.47864 167.514 9.87697C168.002 10.2678 168.246 10.8014 168.246 11.4778C168.246 11.8987 168.156 12.297 167.976 12.6728C167.795 13.0486 167.454 13.477 166.95 13.958L164.537 16.2803H168.585ZM172.533 12.6841C173.307 12.7592 173.897 12.9997 174.303 13.4056C174.709 13.8039 174.912 14.315 174.912 14.9388C174.912 15.3897 174.799 15.7993 174.573 16.1676C174.348 16.5283 174.01 16.8177 173.559 17.0356C173.115 17.2461 172.57 17.3513 171.924 17.3513C171.36 17.3513 170.819 17.2686 170.301 17.1033C169.782 16.9304 169.357 16.6937 169.027 16.393L169.545 15.5024C169.816 15.758 170.162 15.9647 170.582 16.1225C171.003 16.2728 171.451 16.348 171.924 16.348C172.51 16.348 172.965 16.2239 173.288 15.9759C173.619 15.7279 173.784 15.3859 173.784 14.95C173.784 14.5141 173.623 14.1759 173.299 13.9354C172.976 13.6949 172.488 13.5747 171.834 13.5747H171.203V12.7855L173.187 10.3505H169.387V9.36966H174.596V10.1363L172.533 12.6841ZM182.829 15.3221H181.329V17.2611H180.236V15.3221H175.85V14.5329L179.886 9.36966H181.104L177.237 14.3525H180.269V12.639H181.329V14.3525H182.829V15.3221Z" fill="#D11329"/>
<path d="M241.202 110.601H154.415C146.957 110.601 140.889 105.017 140.889 98.1521C140.889 91.2872 146.957 85.7034 154.415 85.7034H241.202C248.66 85.7034 254.728 91.2872 254.728 98.1521C254.728 105.017 248.66 110.601 241.202 110.601ZM154.415 86.8515C147.585 86.8515 142.037 91.9156 142.037 98.1521C142.037 104.389 147.597 109.453 154.415 109.453H241.202C248.032 109.453 253.58 104.389 253.58 98.1521C253.58 91.9156 248.02 86.8515 241.202 86.8515H154.415Z" fill="#D11329"/>
<path d="M165.112 103.905L162.054 100.847C161.764 100.557 161.353 100.485 161.002 100.618L159.673 99.2761C161.413 97.2214 161.329 94.1395 159.383 92.1936C157.34 90.151 154.028 90.151 151.985 92.1936C149.942 94.2362 149.942 97.5478 151.985 99.5903C153.919 101.524 157.014 101.621 159.056 99.8804L160.398 101.222C160.265 101.572 160.338 101.983 160.628 102.273L163.686 105.331C164.085 105.73 164.713 105.73 165.112 105.331C165.511 104.932 165.511 104.304 165.112 103.905ZM158.319 98.5388C156.869 99.9892 154.511 99.9892 153.061 98.5388C151.61 97.0885 151.61 94.7317 153.061 93.2814C154.511 91.831 156.869 91.831 158.319 93.2814C159.77 94.7196 159.77 97.0885 158.319 98.5388Z" fill="#D11329"/>
<path d="M319.009 161.206V212.173C319.009 215.327 316.447 217.902 313.28 217.902H245.808C242.641 217.902 240.078 215.339 240.078 212.173V161.206C240.078 158.039 242.641 155.477 245.808 155.477H313.28C316.447 155.477 319.009 158.039 319.009 161.206Z" fill="white" stroke="#D11329" stroke-width="1.117" stroke-miterlimit="10"/>
<path d="M319.009 161.206V166.258H240.078V161.206C240.078 158.039 242.641 155.477 245.808 155.477H313.28C316.447 155.477 319.009 158.039 319.009 161.206Z" fill="#D11329"/>
<path d="M262.142 188.123L268.98 190.887V193.028L260.044 188.888V187.293L268.98 183.164V185.305L262.142 188.123ZM272.574 196.523H270.837L277.479 179.253H279.205L272.574 196.523ZM288.545 188.058L281.324 185.228V183.153L290.653 187.282V188.877L281.324 193.017V190.92L288.545 188.058Z" fill="#D11329"/>
<path d="M248.273 161.483C248.273 162.438 247.5 163.212 246.545 163.212C245.59 163.212 244.816 162.438 244.816 161.483C244.816 160.529 245.59 159.755 246.545 159.755C247.5 159.743 248.273 160.517 248.273 161.483Z" fill="white"/>
<path d="M253.725 161.483C253.725 162.438 252.951 163.212 251.996 163.212C251.041 163.212 250.268 162.438 250.268 161.483C250.268 160.529 251.041 159.755 251.996 159.755C252.951 159.755 253.725 160.517 253.725 161.483Z" fill="white"/>
<path d="M259.176 161.483C259.176 162.438 258.402 163.212 257.447 163.212C256.492 163.212 255.719 162.438 255.719 161.483C255.719 160.529 256.492 159.755 257.447 159.755C258.39 159.743 259.176 160.517 259.176 161.483Z" fill="white"/>
<path d="M225.863 196.908C225.875 197.391 225.887 197.887 225.912 198.37C225.972 199.349 225.972 200.328 225.912 201.307C225.9 201.791 225.887 202.286 225.863 202.77C225.706 203.06 225.863 203.386 225.755 203.676C225.223 208.607 223.905 213.321 221.669 217.769C219.759 221.564 217.402 225.057 214.646 228.284C212.833 230.411 210.984 232.514 208.977 234.472C205.943 237.433 202.74 240.201 199.452 242.896C192.877 248.274 185.951 253.145 178.867 257.786C175.084 260.264 171.216 262.645 167.215 264.772C165.462 265.702 163.698 266.536 161.752 266.935C161.365 266.984 160.978 266.996 160.591 266.923C159.697 266.814 159.237 266.258 159.08 265.412C159.008 264.772 159.02 264.143 159.08 263.503C159.431 261.363 159.793 259.224 160.144 257.073C160.168 256.952 160.144 256.831 160.144 256.71C160.313 256.432 160.144 256.106 160.253 255.828C160.374 254.728 160.265 253.653 160.023 252.577C159.781 251.477 159.056 250.849 158.137 250.317C156.361 249.289 154.414 248.987 152.42 248.697C150.377 248.395 148.359 247.948 146.352 247.452C142.001 246.389 137.794 244.914 133.733 243.041C129.962 241.3 126.396 239.173 123.06 236.696C120.739 234.967 118.539 233.118 116.52 231.039C113.68 228.127 111.19 224.936 109.123 221.419C107.406 218.494 106.016 215.436 105.025 212.197C104.372 210.046 103.804 207.87 103.538 205.622C103.466 205.066 103.49 204.51 103.369 203.966C103.248 203.676 103.418 203.35 103.26 203.072C103.248 202.685 103.224 202.286 103.212 201.9C103.164 200.534 103.164 199.156 103.212 197.79C103.224 197.391 103.236 197.005 103.26 196.606C103.43 196.328 103.26 196.002 103.369 195.724C103.599 192.63 104.288 189.62 105.279 186.707C106.826 182.139 109.099 177.933 111.988 174.053C113.897 171.503 116.013 169.134 118.358 166.995C120.328 165.194 122.419 163.526 124.631 161.991C127.339 160.106 130.167 158.462 133.116 157.036C138.362 154.498 143.874 152.697 149.592 151.549C151.767 151.114 153.967 150.811 156.155 150.497C156.397 150.388 156.675 150.546 156.904 150.388C157.146 150.376 157.388 150.364 157.63 150.352C157.92 150.243 158.246 150.401 158.536 150.243C158.875 150.231 159.213 150.219 159.552 150.207C159.987 150.086 160.458 150.268 160.893 150.098C161.631 150.086 162.368 150.074 163.105 150.062C164.036 149.977 164.967 150.002 165.898 150.05C166.683 150.062 167.469 150.086 168.242 150.098C168.678 150.268 169.149 150.086 169.584 150.207C169.923 150.219 170.261 150.231 170.6 150.243C170.89 150.401 171.216 150.231 171.506 150.352C171.748 150.364 171.99 150.376 172.231 150.388C172.473 150.533 172.751 150.388 172.993 150.497C178.118 151.162 183.158 152.189 188.054 153.857C193.807 155.815 199.223 158.462 204.239 161.894C207.756 164.3 210.972 167.055 213.836 170.186C219.3 176.156 223.132 183.033 224.945 190.962C225.319 192.617 225.501 194.322 225.767 196.002C225.875 196.304 225.706 196.63 225.863 196.908Z" fill="#F0F3F5"/>
<path d="M103.212 197.778C103.212 199.144 103.212 200.522 103.212 201.888C103.031 200.522 103.031 199.156 103.212 197.778Z" fill="#FCFCFC"/>
<path d="M225.912 201.307C225.912 200.328 225.912 199.349 225.912 198.37C226.093 199.349 226.093 200.328 225.912 201.307Z" fill="#FCFCFC"/>
<path d="M165.886 150.038C164.955 150.038 164.024 150.05 163.094 150.05C164.024 149.845 164.955 149.869 165.886 150.038Z" fill="#FCFCFC"/>
<path d="M159.069 263.491C159.069 264.131 159.069 264.76 159.069 265.4C158.875 264.76 158.875 264.131 159.069 263.491Z" fill="#FCFCFC"/>
<path d="M160.892 150.086C160.457 150.243 159.998 150.195 159.551 150.195C159.974 149.953 160.445 150.123 160.892 150.086Z" fill="#FCFCFC"/>
<path d="M169.584 150.195C169.137 150.195 168.677 150.243 168.242 150.086C168.677 150.123 169.149 149.953 169.584 150.195Z" fill="#FCFCFC"/>
<path d="M160.58 266.911C160.967 266.911 161.354 266.923 161.74 266.923C161.354 267.092 160.967 267.104 160.58 266.911Z" fill="#FCFCFC"/>
<path d="M158.535 150.231C158.245 150.376 157.943 150.352 157.629 150.34C157.907 150.123 158.233 150.256 158.535 150.231Z" fill="#FCFCFC"/>
<path d="M171.506 150.34C171.204 150.352 170.89 150.376 170.6 150.231C170.902 150.256 171.228 150.123 171.506 150.34Z" fill="#FCFCFC"/>
<path d="M103.369 195.711C103.381 196.014 103.405 196.316 103.26 196.594C103.297 196.304 103.152 195.989 103.369 195.711Z" fill="#FCFCFC"/>
<path d="M225.864 196.908C225.719 196.618 225.743 196.316 225.755 196.002C225.973 196.292 225.84 196.606 225.864 196.908Z" fill="#FCFCFC"/>
<path d="M225.755 203.676C225.743 203.374 225.719 203.06 225.864 202.77C225.84 203.072 225.973 203.386 225.755 203.676Z" fill="#FCFCFC"/>
<path d="M103.26 203.072C103.405 203.362 103.381 203.664 103.369 203.966C103.152 203.688 103.297 203.374 103.26 203.072Z" fill="#FCFCFC"/>
<path d="M160.241 255.816C160.253 256.118 160.29 256.42 160.132 256.698C160.169 256.408 160.036 256.094 160.241 255.816Z" fill="#FCFCFC"/>
<path d="M156.904 150.376C156.674 150.521 156.408 150.497 156.154 150.485C156.372 150.28 156.65 150.401 156.904 150.376Z" fill="#FCFCFC"/>
<path d="M172.98 150.485C172.714 150.497 172.461 150.509 172.219 150.376C172.473 150.401 172.751 150.28 172.98 150.485Z" fill="#FCFCFC"/>
<path d="M164.145 198.854C164.145 203.882 164.145 208.825 164.145 213.768C164.145 213.986 164.145 214.215 164.145 214.433C164.121 215.243 163.722 215.654 162.912 215.666C161.558 215.678 160.205 215.678 158.851 215.666C157.86 215.666 157.461 215.267 157.449 214.288C157.437 212.644 157.449 210.988 157.449 209.345C157.449 202.311 157.449 195.276 157.449 188.23C157.449 186.877 157.787 186.55 159.153 186.55C160.313 186.55 161.462 186.574 162.622 186.538C163.311 186.514 163.77 186.78 164.169 187.324C167.929 192.436 171.712 197.524 175.495 202.625C175.689 202.879 175.882 203.132 176.112 203.435C176.281 203.181 176.208 202.939 176.208 202.721C176.208 197.851 176.208 192.98 176.208 188.109C176.208 186.913 176.559 186.562 177.731 186.562C178.989 186.562 180.246 186.55 181.503 186.562C182.482 186.562 182.905 186.985 182.905 187.952C182.905 196.739 182.905 205.513 182.905 214.3C182.905 215.279 182.494 215.678 181.515 215.678C180.234 215.678 178.952 215.654 177.671 215.69C176.994 215.714 176.571 215.436 176.184 214.916C172.389 209.768 168.581 204.631 164.774 199.494C164.617 199.277 164.508 199.023 164.145 198.854Z" fill="#FEFEFE"/>
<path d="M187.039 201.126C187.039 196.823 187.039 192.509 187.039 188.206C187.039 186.961 187.438 186.55 188.659 186.55C194.146 186.55 199.634 186.55 205.122 186.55C206.294 186.55 206.657 186.925 206.657 188.097C206.657 189.33 206.657 190.563 206.657 191.783C206.657 192.883 206.258 193.282 205.134 193.294C201.641 193.306 198.147 193.318 194.642 193.282C193.905 193.27 193.723 193.488 193.772 194.189C193.832 195.168 193.82 196.159 193.772 197.138C193.747 197.657 193.905 197.802 194.424 197.79C197.966 197.766 201.52 197.778 205.061 197.778C206.33 197.778 206.657 198.105 206.657 199.398C206.657 200.606 206.657 201.815 206.657 203.012C206.657 204.075 206.234 204.498 205.11 204.51C202.849 204.522 200.577 204.51 198.317 204.51C196.987 204.51 195.657 204.522 194.328 204.498C193.917 204.486 193.772 204.619 193.772 205.042C193.796 206.13 193.808 207.205 193.772 208.293C193.747 208.873 193.953 208.982 194.485 208.982C198.002 208.958 201.52 208.97 205.049 208.97C206.318 208.97 206.657 209.32 206.657 210.59C206.657 211.846 206.669 213.103 206.657 214.348C206.645 215.231 206.234 215.654 205.339 215.654C199.707 215.654 194.062 215.654 188.429 215.654C187.45 215.654 187.039 215.219 187.027 214.179C187.015 210.831 187.027 207.483 187.027 204.136C187.039 203.144 187.039 202.129 187.039 201.126Z" fill="#FEFEFE"/>
<path d="M123.326 201.114C123.326 196.787 123.326 192.46 123.326 188.121C123.326 186.913 123.701 186.538 124.91 186.538C126.118 186.538 127.315 186.538 128.524 186.538C129.648 186.538 130.023 186.913 130.023 188.037C130.023 194.733 130.035 201.416 130.011 208.112C130.011 208.765 130.143 208.982 130.845 208.982C134.338 208.946 137.831 208.958 141.324 208.97C142.569 208.97 142.932 209.345 142.944 210.614C142.944 211.798 142.956 212.971 142.944 214.155C142.932 215.291 142.557 215.666 141.445 215.666C135.909 215.666 130.373 215.666 124.837 215.666C123.701 215.666 123.326 215.303 123.326 214.179C123.326 209.828 123.326 205.465 123.326 201.114Z" fill="#FEFEFE"/>
<path d="M146.557 201.126C146.557 196.799 146.557 192.46 146.557 188.133C146.557 186.937 146.956 186.55 148.153 186.55C149.361 186.55 150.57 186.55 151.767 186.55C152.891 186.55 153.314 186.973 153.314 188.121C153.314 193.584 153.314 199.047 153.314 204.51C153.314 207.713 153.314 210.904 153.314 214.107C153.314 215.279 152.927 215.666 151.779 215.666C150.522 215.666 149.265 215.666 148.007 215.666C146.944 215.666 146.545 215.267 146.545 214.191C146.557 209.828 146.557 205.477 146.557 201.126Z" fill="#FEFEFE"/>
</svg>
