<svg width="40" height="40" viewBox="0 0 40 40" fill="none" xmlns="http://www.w3.org/2000/svg">
<path fill-rule="evenodd" clip-rule="evenodd" d="M4.99935 12.1663H7.16602V8.35254C7.16602 5.87201 9.18549 3.85254 11.666 3.85254H28.3327C30.8132 3.85254 32.8327 5.87201 32.8327 8.35254V12.1663H34.9993C36.5565 12.1663 37.8327 13.4425 37.8327 14.9997V33.333C37.8327 35.8135 35.8132 37.833 33.3327 37.833H25.0025C24.9996 37.8326 24.99 37.831 24.9693 37.8257L24.9393 37.8179L24.8997 37.8074C24.8708 37.7999 24.8327 37.7904 24.79 37.7826L24.6929 37.7648L24.5964 37.7852C24.4513 37.8159 24.3091 37.833 24.166 37.833C23.0622 37.833 22.166 36.9369 22.166 35.833C22.166 34.7291 23.0622 33.833 24.166 33.833C25.0307 33.833 25.7644 34.3883 26.042 35.1675L26.1604 35.4997H33.3327C34.5272 35.4997 35.4993 34.5275 35.4993 33.333V21.1663H32.8327V26.6663C32.8327 29.1469 30.8132 31.1663 28.3327 31.1663H11.666C9.18549 31.1663 7.16602 29.1469 7.16602 26.6663V21.1663H4.99935C3.44216 21.1663 2.16602 19.8902 2.16602 18.333V14.9997C2.16602 13.4425 3.44216 12.1663 4.99935 12.1663ZM28.3327 6.18587H11.666C10.4715 6.18587 9.49935 7.15806 9.49935 8.35254V26.6663C9.49935 27.8608 10.4715 28.833 11.666 28.833H28.3327C29.5272 28.833 30.4993 27.8608 30.4993 26.6663V8.35254C30.4993 7.15806 29.5272 6.18587 28.3327 6.18587ZM14.4185 12.7521C14.7935 12.3771 15.3022 12.1663 15.8327 12.1663C16.3631 12.1663 16.8718 12.3771 17.2469 12.7521C17.622 13.1272 17.8327 13.6359 17.8327 14.1663C17.8327 14.6968 17.622 15.2055 17.2469 15.5806C16.8718 15.9556 16.3631 16.1663 15.8327 16.1663C15.3022 16.1663 14.7935 15.9556 14.4185 15.5806C14.0434 15.2055 13.8327 14.6968 13.8327 14.1663C13.8327 13.6359 14.0434 13.1272 14.4185 12.7521ZM22.7518 12.7717C23.1269 12.3966 23.6356 12.1859 24.166 12.1859C24.6964 12.1859 25.2052 12.3966 25.5802 12.7717C25.9553 13.1467 26.166 13.6554 26.166 14.1859C26.166 14.7163 25.9553 15.225 25.5802 15.6001C25.2052 15.9752 24.6964 16.1859 24.166 16.1859C23.6356 16.1859 23.1269 15.9752 22.7518 15.6001C22.3767 15.225 22.166 14.7163 22.166 14.1859C22.166 13.6554 22.3767 13.1467 22.7518 12.7717ZM26.166 20.4997V24.4997H13.8327V20.4997H26.166Z" fill="#7C7C7C"/>
</svg>
