<svg width="40" height="40" viewBox="0 0 40 40" fill="none" xmlns="http://www.w3.org/2000/svg">
<path fill-rule="evenodd" clip-rule="evenodd" d="M32.1667 7.83333H7.83333V15.5H32.1667V7.83333ZM13.8333 17.8333H7.83333V32.1667H13.8333V17.8333ZM32.1667 17.8333H16.1667V32.1667H32.1667V17.8333ZM5.5 8.33333C5.5 6.7877 6.7877 5.5 8.33333 5.5H31.6667C33.2123 5.5 34.5 6.7877 34.5 8.33333V31.6667C34.5 33.2123 33.2123 34.5 31.6667 34.5H8.33333C6.7877 34.5 5.5 33.2123 5.5 31.6667V8.33333ZM10.8417 10.8417C11.0605 10.6229 11.3572 10.5 11.6667 10.5C11.9761 10.5 12.2728 10.6229 12.4916 10.8417C12.7104 11.0605 12.8333 11.3572 12.8333 11.6667C12.8333 11.9761 12.7104 12.2728 12.4916 12.4916C12.2728 12.7104 11.9761 12.8333 11.6667 12.8333C11.3572 12.8333 11.0605 12.7104 10.8417 12.4916C10.6229 12.2728 10.5 11.9761 10.5 11.6667C10.5 11.3572 10.6229 11.0605 10.8417 10.8417ZM15.8417 10.8417C16.0605 10.6229 16.3572 10.5 16.6667 10.5C16.9761 10.5 17.2728 10.6229 17.4916 10.8417C17.7104 11.0605 17.8333 11.3572 17.8333 11.6667C17.8333 11.9761 17.7104 12.2728 17.4916 12.4916C17.2728 12.7104 16.9761 12.8333 16.6667 12.8333C16.3572 12.8333 16.0605 12.7104 15.8417 12.4916C15.6229 12.2728 15.5 11.9761 15.5 11.6667C15.5 11.3572 15.6229 11.0605 15.8417 10.8417ZM27.8333 10.5V12.8333H22.1667V10.5H27.8333ZM27.8333 20.5V22.8333H20.5V20.5H27.8333ZM27.8333 25.5V27.8333H20.5V25.5H27.8333Z" fill="white"/>
</svg>
