<svg width="466" height="297" viewBox="0 0 466 297" fill="none" xmlns="http://www.w3.org/2000/svg">
<g clip-path="url(#clip0_14_502)">
<path d="M334.369 258.39H55.0391V78.9C55.0391 73.81 59.1791 69.67 64.2691 69.67H325.129C330.219 69.67 334.359 73.81 334.359 78.9V258.39H334.369ZM55.6191 257.81H333.799H55.6191Z" fill="white"/>
<path d="M334.369 258.39H55.0391V78.9C55.0391 73.81 59.1791 69.67 64.2691 69.67H325.129C330.219 69.67 334.359 73.81 334.359 78.9V258.39H334.369ZM55.6191 257.81H333.799V78.9C333.799 74.13 329.919 70.24 325.139 70.24H64.2791C59.5091 70.24 55.6191 74.12 55.6191 78.9V257.81Z" fill="#D11329"/>
<path d="M322.779 248.57H66.6292C64.3192 248.57 62.4492 246.69 62.4492 244.39V85.77C62.4492 83.46 64.3292 81.59 66.6292 81.59H322.779C325.089 81.59 326.959 83.47 326.959 85.77V244.39C326.959 246.7 325.089 248.57 322.779 248.57ZM66.6292 82.17C64.6392 82.17 63.0292 83.79 63.0292 85.77V244.39C63.0292 246.38 64.6492 248 66.6292 248H322.779C324.769 248 326.389 246.38 326.389 244.39V85.77C326.389 83.78 324.769 82.17 322.779 82.17H66.6292Z" fill="#D11329"/>
<path d="M194.709 78.49C193.549 78.49 192.609 77.55 192.609 76.39C192.609 75.23 193.549 74.29 194.709 74.29C195.869 74.29 196.809 75.23 196.809 76.39C196.809 77.54 195.869 78.49 194.709 78.49ZM194.709 74.86C193.869 74.86 193.179 75.54 193.179 76.39C193.179 77.23 193.859 77.92 194.709 77.92C195.549 77.92 196.239 77.24 196.239 76.39C196.229 75.54 195.549 74.86 194.709 74.86Z" fill="#D11329"/>
<path d="M350.53 266.85H40.0398C35.4898 266.85 24.3398 263.06 24.3398 258.1V257.81H366.24V258.1C366.24 263.06 355.09 266.85 350.53 266.85ZM24.9298 258.39C25.3898 262.72 35.9898 266.28 40.0398 266.28H350.54C354.59 266.28 365.19 262.72 365.65 258.39H24.9298Z" fill="#D11329"/>
<path d="M220.971 261.7H169.751C167.761 261.7 166.141 260.08 166.141 258.09V257.8H224.571V258.09C224.571 260.09 222.961 261.7 220.971 261.7ZM166.731 258.39C166.881 259.93 168.171 261.13 169.751 261.13H220.971C222.541 261.13 223.841 259.92 223.991 258.39H166.731Z" fill="#D11329"/>
<path d="M289.211 168.76H94.4609V129.75H289.211C299.981 129.75 308.711 138.48 308.711 149.25C308.721 160.03 299.991 168.76 289.211 168.76Z" fill="#F0F3F5"/>
<path d="M289.211 168.76H269.711V129.75H289.211C299.981 129.75 308.711 138.48 308.711 149.25C308.721 160.03 299.991 168.76 289.211 168.76Z" fill="#D11329"/>
<path d="M413.91 265.79H404.57C397.55 254.17 396.09 236.39 396.09 236.39L389.99 236.65V236.79C389.97 236.74 389.96 236.69 389.94 236.65C387.91 236.56 385.87 236.47 383.84 236.39C383.84 236.39 382.38 254.17 375.36 265.79H365.97C360.61 265.79 356.26 270.14 356.26 275.5H362.54H389.94H390H417.4H423.63C423.62 270.14 419.27 265.79 413.91 265.79Z" fill="#D11329" stroke="white" stroke-miterlimit="10"/>
<path d="M464.519 171.95C463.299 165.04 460.289 160.71 455.579 159.08C450.929 157.47 445.469 158.93 440.579 161.28C441.229 153 441.159 147.52 441.159 147.52H407.049H372.939H338.829C338.829 147.52 338.759 152.77 339.369 160.77C334.769 158.73 329.779 157.58 325.469 159.07C320.749 160.7 317.749 165.03 316.529 171.94C312.759 193.28 341.299 211.07 354.749 218.19C362.109 230.46 372.879 239.61 388.619 240.35L388.629 240.4C389.089 240.41 389.549 240.4 389.999 240.4C390.449 240.41 390.909 240.41 391.369 240.4L391.379 240.35C406.779 239.62 417.409 230.86 424.759 219C437.399 212.52 468.439 194.15 464.519 171.95ZM321.919 172.9C322.769 168.1 324.559 165.19 327.259 164.26C330.719 163.06 335.529 164.76 339.959 167.2C341.269 179.41 344.099 195.38 350.179 209.28C337.019 201.31 319.319 187.64 321.919 172.9ZM429.439 210.14C435.669 196.29 438.589 180.26 439.959 167.89C444.689 165.12 450.069 162.98 453.789 164.27C456.489 165.2 458.279 168.11 459.129 172.91C461.829 188.18 442.699 202.32 429.439 210.14Z" fill="#D11329" stroke="white" stroke-miterlimit="10"/>
<path d="M439.92 148.03H340.08C336.92 148.03 334.35 145.47 334.35 142.3C334.35 139.14 336.91 136.57 340.08 136.57H439.92C443.08 136.57 445.65 139.13 445.65 142.3C445.64 145.46 443.08 148.03 439.92 148.03Z" fill="#D11329" stroke="white" stroke-miterlimit="10"/>
<path d="M390.109 161.36L395.369 172.01L407.119 173.72C407.219 173.73 407.259 173.86 407.189 173.93L398.679 182.22L400.689 193.93C400.709 194.03 400.599 194.11 400.509 194.06L389.999 188.53L379.489 194.06C379.399 194.11 379.289 194.03 379.309 193.93L381.319 182.22L372.809 173.93C372.739 173.86 372.779 173.73 372.879 173.72L384.629 172.01L389.889 161.36C389.929 161.27 390.059 161.27 390.109 161.36Z" fill="white" stroke="#D11329" stroke-miterlimit="10"/>
<path d="M414.31 53.15C431.56 53.15 445.54 63.34 445.54 75.9C445.54 81 443.24 85.7 439.36 89.49L444.86 98.65L434.09 93.5C428.7 96.72 421.82 98.65 414.31 98.65C397.06 98.65 383.08 88.46 383.08 75.9C383.08 63.34 397.06 53.15 414.31 53.15Z" fill="#F0F3F5"/>
<path d="M406.339 46.96C389.089 46.96 375.109 57.15 375.109 69.71C375.109 74.81 377.409 79.51 381.289 83.3L375.789 92.46L386.559 87.31C391.949 90.53 398.829 92.46 406.339 92.46C423.589 92.46 437.569 82.27 437.569 69.71C437.569 57.14 423.589 46.96 406.339 46.96Z" fill="#D11329"/>
<path d="M391.5 74.14C393.947 74.14 395.93 72.1567 395.93 69.71C395.93 67.2634 393.947 65.28 391.5 65.28C389.054 65.28 387.07 67.2634 387.07 69.71C387.07 72.1567 389.054 74.14 391.5 74.14Z" fill="white"/>
<path d="M410.77 69.71C410.77 72.16 408.79 74.14 406.34 74.14C403.89 74.14 401.91 72.16 401.91 69.71C401.91 67.26 403.89 65.28 406.34 65.28C408.79 65.28 410.77 67.26 410.77 69.71Z" fill="white"/>
<path d="M425.61 69.71C425.61 72.16 423.63 74.14 421.18 74.14C418.73 74.14 416.75 72.16 416.75 69.71C416.75 67.26 418.73 65.28 421.18 65.28C423.63 65.28 425.61 67.26 425.61 69.71Z" fill="white"/>
<path d="M363.361 231.88H271.871C270.767 231.88 269.871 232.775 269.871 233.88V294.45C269.871 295.555 270.767 296.45 271.871 296.45H363.361C364.466 296.45 365.361 295.555 365.361 294.45V233.88C365.361 232.775 364.466 231.88 363.361 231.88Z" fill="white" stroke="#D11329" stroke-width="2" stroke-miterlimit="10"/>
<path d="M362.172 231.5C364.169 231.5 364.933 234.106 363.251 235.184L318.579 263.809C317.921 264.23 317.079 264.23 316.421 263.809L271.749 235.184C270.067 234.106 270.831 231.5 272.828 231.5H362.172Z" fill="white" stroke="#D11329" stroke-width="2" stroke-miterlimit="10"/>
<path d="M166.191 185.98C183.951 168.22 183.951 139.42 166.191 121.66C148.431 103.9 119.631 103.9 101.871 121.66C85.4806 138.05 84.2306 163.84 98.0906 181.68L84.4506 195.32L82.3006 193.17L29.1406 246.33L41.5106 258.7L94.6706 205.54L92.5206 203.39L106.161 189.75C124.021 203.62 149.801 202.37 166.191 185.98ZM107.961 127.74C122.361 113.34 145.711 113.34 160.121 127.74C174.521 142.14 174.521 165.49 160.121 179.9C145.721 194.3 122.371 194.3 107.961 179.9C93.5506 165.5 93.5506 142.15 107.961 127.74Z" fill="#D11329" stroke="white" stroke-miterlimit="10"/>
<path d="M329.81 49.64C343.38 49.64 354.38 38.6396 354.38 25.07C354.38 11.5004 343.38 0.5 329.81 0.5C316.241 0.5 305.24 11.5004 305.24 25.07C305.24 38.6396 316.241 49.64 329.81 49.64Z" fill="#D11329"/>
<path d="M323.16 25.07V14.5L332.32 19.79L341.47 25.07L332.32 30.36L323.16 35.64V25.07Z" fill="white"/>
<g opacity="0.5">
<path opacity="0.5" d="M30.09 77.23C29.48 75.76 29.18 75.03 28.58 73.57L29.86 70.88C28.09 69.11 28.08 69.1 26.3 67.32L23.61 68.6C22.15 67.99 21.42 67.69 19.96 67.08L18.96 64.28H13.94L12.94 67.08C11.48 67.69 10.75 67.99 9.29 68.6L6.6 67.33C4.82 69.11 4.82 69.11 3.04 70.89L4.32 73.58C3.71 75.04 3.41 75.77 2.81 77.24L0 78.22V83.25L2.8 84.24C3.41 85.71 3.71 86.44 4.31 87.9L3.03 90.59C4.8 92.36 4.81 92.37 6.59 94.15L9.28 92.87C10.74 93.48 11.47 93.78 12.93 94.39L13.93 97.19H18.95L19.95 94.39C21.41 93.78 22.14 93.48 23.6 92.87L26.29 94.15C28.07 92.37 28.07 92.37 29.85 90.59L28.57 87.9C29.18 86.44 29.48 85.71 30.08 84.24L32.88 83.25V78.22L30.09 77.23ZM16.45 87.55C12.68 87.55 9.63 84.5 9.63 80.73C9.63 76.97 12.68 73.91 16.45 73.91C20.21 73.91 23.27 76.96 23.27 80.73C23.27 84.5 20.21 87.55 16.45 87.55Z" fill="#D11329"/>
<path opacity="0.5" d="M16.4506 93.3001C9.52063 93.3001 3.89062 87.6601 3.89062 80.7401C3.89062 73.8101 9.53063 68.1801 16.4506 68.1801C23.3806 68.1801 29.0106 73.8201 29.0106 80.7401C29.0106 87.6601 23.3706 93.3001 16.4506 93.3001ZM16.4506 68.7201C9.83063 68.7201 4.44062 74.1101 4.44062 80.7301C4.44062 87.3501 9.83063 92.7401 16.4506 92.7401C23.0706 92.7401 28.4606 87.3501 28.4606 80.7301C28.4606 74.1101 23.0706 68.7201 16.4506 68.7201Z" fill="#DA4254"/>
</g>
<g opacity="0.5">
<path opacity="0.5" d="M57.4902 43.96C56.8802 42.49 56.5802 41.76 55.9802 40.3L57.2602 37.61C55.4902 35.84 55.4802 35.83 53.7002 34.05L51.0102 35.33C49.5502 34.72 48.8202 34.42 47.3602 33.81L46.3602 31.01H41.3402L40.3402 33.81C38.8802 34.42 38.1502 34.72 36.6902 35.33L34.0002 34.05C32.2202 35.83 32.2202 35.83 30.4402 37.61L31.7202 40.3C31.1102 41.76 30.8102 42.49 30.2102 43.96L27.4102 44.95V49.98L30.2102 50.97C30.8202 52.44 31.1202 53.17 31.7202 54.63L30.4402 57.32C32.2102 59.09 32.2202 59.1 34.0002 60.88L36.6902 59.6C38.1502 60.21 38.8802 60.51 40.3402 61.12L41.3402 63.92H46.3602L47.3602 61.12C48.8202 60.51 49.5502 60.21 51.0102 59.6L53.7002 60.88C55.4802 59.1 55.4802 59.1 57.2602 57.32L55.9802 54.63C56.5902 53.17 56.8902 52.44 57.4902 50.97L60.2902 49.98V44.95L57.4902 43.96ZM43.8502 54.29C40.0802 54.29 37.0302 51.24 37.0302 47.47C37.0302 43.71 40.0802 40.65 43.8502 40.65C47.6102 40.65 50.6702 43.7 50.6702 47.47C50.6602 51.23 47.6102 54.29 43.8502 54.29Z" fill="#D11329"/>
<path opacity="0.5" d="M43.8393 60.03C36.9093 60.03 31.2793 54.39 31.2793 47.47C31.2793 40.54 36.9193 34.91 43.8393 34.91C50.7693 34.91 56.3993 40.55 56.3993 47.47C56.4093 54.4 50.7693 60.03 43.8393 60.03ZM43.8393 35.45C37.2193 35.45 31.8293 40.84 31.8293 47.46C31.8293 54.08 37.2193 59.47 43.8393 59.47C50.4593 59.47 55.8493 54.08 55.8493 47.46C55.8493 40.84 50.4693 35.45 43.8393 35.45Z" fill="#DA4254"/>
</g>
</g>
<defs>
<clipPath id="clip0_14_502">
<rect width="465.36" height="296.45" fill="white" transform="translate(0 0.5)"/>
</clipPath>
</defs>
</svg>
