<svg width="40" height="40" viewBox="0 0 40 40" fill="none" xmlns="http://www.w3.org/2000/svg">
<path fill-rule="evenodd" clip-rule="evenodd" d="M30.3852 16.6586L30.3027 16.6699C30.3303 16.6663 30.3577 16.6624 30.3852 16.6586ZM10.4481 10.4573L10.697 10.4482L10.8396 10.2439C12.919 7.26617 16.3471 5.45117 20 5.45117C25.0249 5.45117 29.3142 8.72997 30.6954 13.4319L30.7969 13.7774L31.1568 13.7907C35.7857 13.9608 39.5 17.7812 39.5 22.4512C39.5 26.4058 36.8348 29.7435 33.2053 30.7781L32.1667 28.7034V28.6177C35.0154 28.0038 37.1667 25.4881 37.1667 22.4512C37.1667 18.9584 34.3261 16.1178 30.8333 16.1178C30.6424 16.1178 30.4554 16.1439 30.3092 16.1643L30.3092 16.1643L30.2367 16.1743L28.8886 16.3491L28.7132 15.231C28.0298 10.9185 24.3664 7.78451 20 7.78451C16.8537 7.78451 13.922 9.48578 12.3465 12.2247L11.9865 12.8467L10.847 12.7845H10.8333C6.42219 12.7845 2.83333 16.3734 2.83333 20.7845C2.83333 24.1342 4.91411 26.9782 7.83333 28.1665V28.7034L7.00068 30.3662C3.19536 28.8396 0.5 25.1244 0.5 20.7845C0.5 15.2162 4.92753 10.6608 10.4481 10.4573ZM10.1164 33.8247L12.1667 29.7242V25.5H14.5V30.2758L12.2034 34.8655L12.363 35.1066C12.6691 35.5694 12.8327 36.1118 12.8333 36.6667C12.8333 37.4181 12.5348 38.1388 12.0035 38.6701C11.4721 39.2015 10.7514 39.5 10 39.5C9.24855 39.5 8.52788 39.2015 7.99653 38.6701C7.46518 38.1388 7.16667 37.4181 7.16667 36.6667C7.1676 35.9456 7.44337 35.2521 7.93783 34.7273C8.43242 34.2024 9.10856 33.8858 9.82845 33.8422L10.1164 33.8247ZM18.5833 34.2188L18.8333 34.0745V25.5H21.1667V34.0712L21.4167 34.2156C21.8471 34.4641 22.2045 34.8214 22.4532 35.2517C22.7018 35.682 22.8329 36.1701 22.8333 36.6671C22.8332 37.4184 22.5347 38.1389 22.0035 38.6701C21.4721 39.2015 20.7514 39.5 20 39.5C19.2486 39.5 18.5279 39.2015 17.9965 38.6701C17.4652 38.1388 17.1667 37.4181 17.1667 36.6667C17.1677 36.1705 17.299 35.6832 17.5475 35.2537C17.7961 34.824 18.1533 34.4671 18.5833 34.2188ZM27.637 35.1099L27.7965 34.8689L25.5 30.2758V25.5H27.8333V29.7242L29.8836 33.8247L30.1715 33.8422C30.8914 33.8858 31.5676 34.2024 32.0622 34.7273C32.5568 35.2522 32.8325 35.946 32.8333 36.6672C32.8332 37.4185 32.5347 38.1389 32.0035 38.6701C31.4721 39.2015 30.7514 39.5 30 39.5C29.2486 39.5 28.5279 39.2015 27.9965 38.6701C27.4654 38.139 27.1669 37.4187 27.1667 36.6676C27.1678 36.1135 27.3313 35.572 27.637 35.1099Z" fill="#fff"/>
</svg>
