<svg width="603" height="701" viewBox="0 0 603 701" fill="none" xmlns="http://www.w3.org/2000/svg">
<path opacity="0.1" d="M399.508 146.839C399.508 145.416 398.063 144.448 396.746 144.99L-38.0474 324.061C-38.7969 324.37 -39.286 325.1 -39.2858 325.911L-39.2231 565.578C-39.2227 567.001 -37.7776 567.969 -36.4615 567.426L398.332 388.356C399.082 388.047 399.571 387.316 399.571 386.506L399.508 146.839Z" fill="url(#paint0_linear_14_1714)"/>
<path opacity="0.2" d="M399.571 146.844C399.571 145.419 398.124 144.452 396.807 144.996L-38.0501 324.724C-38.7982 325.033 -39.2861 325.763 -39.2861 326.572V355.501C-39.2861 356.926 -37.8389 357.894 -36.5222 357.349L398.335 177.621C399.083 177.312 399.571 176.582 399.571 175.773V146.844Z" fill="url(#paint1_linear_14_1714)"/>
<path opacity="0.6" d="M472.714 247.29C472.714 245.871 471.279 244.904 469.964 245.436L348.249 294.713C347.494 295.018 347 295.752 347 296.566V316.707C347 318.125 348.436 319.093 349.751 318.561L471.465 269.284C472.22 268.978 472.714 268.245 472.714 267.43V247.29Z" fill="#DD3835"/>
<path d="M123 386.59C123 385.168 121.558 384.2 120.242 384.739L-3.75819 435.539C-4.50935 435.846 -5 436.578 -5 437.389V458.264C-5 459.686 -3.5577 460.653 -2.24181 460.114L121.758 409.315C122.509 409.007 123 408.276 123 407.464V386.59Z" fill="#EB6967"/>
<path opacity="0.15" d="M205.286 420.837C205.286 419.416 203.845 418.448 202.529 418.986L-40.3277 518.202C-41.0798 518.509 -41.5713 519.241 -41.5713 520.054V590.703C-41.5713 592.124 -40.1305 593.092 -38.8149 592.555L204.042 493.338C204.794 493.031 205.286 492.299 205.286 491.487V420.837Z" fill="url(#paint2_linear_14_1714)"/>
<path opacity="0.07" d="M182.429 409.425C182.429 408.002 180.986 407.035 179.67 407.574L-65.4726 508.094C-66.2235 508.402 -66.7139 509.133 -66.7139 509.945V581.566C-66.7139 582.988 -65.2711 583.956 -63.9551 583.416L181.188 482.896C181.939 482.588 182.429 481.857 182.429 481.046V409.425Z" fill="url(#paint3_linear_14_1714)"/>
<path opacity="0.15" d="M187 441.309C187 439.909 185.599 438.942 184.29 439.439L149.433 452.667C148.656 452.961 148.143 453.706 148.143 454.536V474.33C148.143 475.73 149.543 476.696 150.852 476.2L185.709 462.972C186.486 462.677 187 461.933 187 461.102V441.309Z" fill="#DD3835"/>
<path opacity="0.15" d="M141.286 461.859C141.286 460.459 139.885 459.493 138.576 459.989L103.719 473.217C102.942 473.512 102.429 474.256 102.429 475.087V494.88C102.429 496.28 103.83 497.247 105.138 496.75L139.995 483.522C140.772 483.228 141.286 482.483 141.286 481.653V461.859Z" fill="#DD3835"/>
<path opacity="0.15" d="M95.571 480.187C95.571 478.771 94.1395 477.803 92.8253 478.331L57.9682 492.337C57.2104 492.642 56.7139 493.376 56.7139 494.193V515.37C56.7139 516.786 58.1454 517.754 59.4595 517.226L94.3167 503.22C95.0744 502.915 95.571 502.181 95.571 501.364V480.187Z" fill="#DD3835"/>
<path opacity="0.15" d="M49.8571 498.454C49.8571 497.038 48.4256 496.07 47.1115 496.598L12.2543 510.604C11.4965 510.909 11 511.643 11 512.46V533.637C11 535.053 12.4315 536.021 13.7457 535.493L48.6028 521.487C49.3606 521.182 49.8571 520.448 49.8571 519.631V498.454Z" fill="#DD3835"/>
<path opacity="0.15" d="M395 224.478C395 223.053 393.553 222.086 392.237 222.629L112.808 337.939C112.06 338.248 111.571 338.978 111.571 339.788V344.086C111.571 345.51 113.018 346.478 114.334 345.935L393.763 230.625C394.511 230.316 395 229.586 395 228.776V224.478Z" fill="#DD3835"/>
<path opacity="0.15" d="M395 242.711C395 241.296 393.57 240.328 392.256 240.855L149.399 338.119C148.64 338.423 148.143 339.158 148.143 339.976V344.12C148.143 345.535 149.572 346.502 150.886 345.976L393.743 248.712C394.502 248.408 395 247.673 395 246.855V242.711Z" fill="#DD3835"/>
<path opacity="0.15" d="M395 258.679C395 257.268 393.578 256.301 392.265 256.819L185.98 338.236C185.216 338.537 184.714 339.275 184.714 340.096V344.135C184.714 345.546 186.136 346.514 187.448 345.996L393.734 264.578C394.498 264.277 395 263.539 395 262.718V258.679Z" fill="#DD3835"/>
<path opacity="0.15" d="M461.286 306.661C461.286 305.242 459.849 304.274 458.534 304.808L254.534 387.61C253.78 387.916 253.286 388.649 253.286 389.463V460.557C253.286 461.977 254.723 462.944 256.038 462.411L460.038 379.608C460.793 379.302 461.286 378.569 461.286 377.755V306.661Z" fill="url(#paint4_linear_14_1714)"/>
<path opacity="0.07" d="M436.143 297.54C436.143 296.117 434.7 295.149 433.384 295.689L231.669 378.474C230.919 378.782 230.429 379.513 230.429 380.324V451.411C230.429 452.834 231.872 453.802 233.188 453.262L434.902 370.477C435.653 370.169 436.143 369.438 436.143 368.627V297.54Z" fill="url(#paint5_linear_14_1714)"/>
<path opacity="0.15" d="M447.545 331.791C447.558 330.369 446.122 329.389 444.802 329.918L281.97 395.177C281.211 395.481 280.714 396.216 280.714 397.034V401.203C280.714 402.619 282.144 403.586 283.458 403.059L446.254 337.786C447.007 337.484 447.503 336.757 447.51 335.946L447.545 331.791Z" fill="#DD3835"/>
<path opacity="0.15" d="M447.571 347.769C447.571 346.348 446.13 345.38 444.815 345.918L318.529 397.507C317.777 397.815 317.285 398.546 317.285 399.359V403.465C317.285 404.887 318.726 405.854 320.042 405.317L446.327 353.727C447.079 353.42 447.571 352.688 447.571 351.876V347.769Z" fill="#DD3835"/>
<path opacity="0.2" d="M372.143 173.342C372.143 179.189 377.293 181.925 383.571 179.511C389.849 177.097 395 170.392 395 164.599C395 158.752 389.849 156.017 383.571 158.431C377.213 160.844 372.143 167.549 372.143 173.342Z" fill="#DD3835"/>
<path opacity="0.3" d="M385.686 450.66C385.686 460.583 388.798 466.948 395.022 469.705C401.245 472.462 409.591 471.71 420.058 467.4C430.525 463.089 438.87 457.075 445.093 449.206C451.317 441.388 454.429 432.466 454.429 422.543C454.429 412.619 451.317 406.254 445.093 403.498C438.87 400.741 430.525 401.493 420.058 405.803C409.591 410.063 401.245 416.128 395.022 423.996C388.798 431.815 385.686 440.686 385.686 450.66ZM407.61 441.688C407.61 436.276 408.742 431.915 411.076 428.507C413.41 425.099 416.38 422.693 419.987 421.19C423.735 419.636 426.776 419.636 429.11 421.089C431.303 422.643 432.434 426.101 432.434 431.464C432.434 436.877 431.303 441.287 429.11 444.696C426.776 448.104 423.735 450.559 419.987 452.063C416.38 453.567 413.41 453.567 411.076 452.063C408.813 450.559 407.61 447.051 407.61 441.688ZM348.792 438.86C348.223 438.268 347.351 438.083 346.592 438.394L323.628 447.791C322.321 448.326 321.965 450.01 322.943 451.028L395.848 526.913C396.417 527.505 397.289 527.689 398.048 527.379L421.012 517.982C422.318 517.447 422.675 515.763 421.696 514.745L348.792 438.86ZM289.857 543.33C289.857 553.254 292.969 559.619 299.193 562.375C305.416 565.132 313.762 564.38 324.229 560.07C334.696 555.81 343.041 549.745 349.264 541.877C355.488 534.058 358.6 525.137 358.6 515.213C358.6 505.29 355.488 498.924 349.264 496.168C343.041 493.411 334.696 494.163 324.229 498.473C313.762 502.734 305.416 508.798 299.193 516.667C292.969 524.485 289.857 533.406 289.857 543.33ZM311.781 534.359C311.781 528.946 312.913 524.585 315.247 521.177C317.581 517.769 320.551 515.364 324.158 513.86C327.906 512.306 330.947 512.306 333.281 513.76C335.473 515.313 336.605 518.772 336.605 524.134C336.605 529.547 335.473 533.958 333.281 537.366C330.947 540.774 327.906 543.23 324.158 544.733C320.551 546.237 317.581 546.237 315.247 544.733C312.984 543.28 311.781 539.772 311.781 534.359Z" fill="url(#paint6_linear_14_1714)"/>
<defs>
<linearGradient id="paint0_linear_14_1714" x1="94.6228" y1="295.347" x2="205.109" y2="449.885" gradientUnits="userSpaceOnUse">
<stop stop-color="#DD3835"/>
<stop offset="1" stop-color="#DD3835" stop-opacity="0"/>
</linearGradient>
<linearGradient id="paint1_linear_14_1714" x1="290.677" y1="117.103" x2="192.937" y2="348.334" gradientUnits="userSpaceOnUse">
<stop stop-color="#DD3835" stop-opacity="0.04"/>
<stop offset="1" stop-color="#DD3835"/>
</linearGradient>
<linearGradient id="paint2_linear_14_1714" x1="58.9257" y1="477.667" x2="83.1029" y2="536.851" gradientUnits="userSpaceOnUse">
<stop stop-color="#DD3835"/>
<stop offset="1" stop-color="#DD3835" stop-opacity="0"/>
</linearGradient>
<linearGradient id="paint3_linear_14_1714" x1="34.6931" y1="467.02" x2="59.2493" y2="526.91" gradientUnits="userSpaceOnUse">
<stop stop-color="#DD3835"/>
<stop offset="1" stop-color="#DD3835" stop-opacity="0"/>
</linearGradient>
<linearGradient id="paint4_linear_14_1714" x1="334.088" y1="355.331" x2="358.302" y2="414.966" gradientUnits="userSpaceOnUse">
<stop stop-color="#DD3835"/>
<stop offset="1" stop-color="#DD3835" stop-opacity="0"/>
</linearGradient>
<linearGradient id="paint5_linear_14_1714" x1="310.323" y1="346.19" x2="334.729" y2="405.637" gradientUnits="userSpaceOnUse">
<stop stop-color="#DD3835" stop-opacity="0.06"/>
<stop offset="1" stop-color="#DD3835"/>
</linearGradient>
<linearGradient id="paint6_linear_14_1714" x1="333.733" y1="444.799" x2="394.549" y2="565.108" gradientUnits="userSpaceOnUse">
<stop stop-color="#DD3835"/>
<stop offset="1" stop-color="#DD3835" stop-opacity="0"/>
</linearGradient>
</defs>
</svg>
