<svg width="40" height="40" viewBox="0 0 40 40" fill="none" xmlns="http://www.w3.org/2000/svg">
<path fill-rule="evenodd" clip-rule="evenodd" d="M32.166 8.21315L32.1667 8.21488C32.612 9.36009 32.8327 10.5154 32.8327 11.667C32.8327 16.9075 28.5732 21.167 23.3327 21.167C22.5123 21.167 21.706 21.0567 20.8793 20.8342L20.6002 20.759L12.6827 28.6766L12.6486 28.8086C12.0528 31.1152 9.97726 32.8337 7.49935 32.8337C4.55882 32.8337 2.16602 30.4408 2.16602 27.5003C2.16602 25.0224 3.88452 22.9468 6.19105 22.3511L6.32312 22.317L14.2406 14.3995L14.1655 14.1203C13.943 13.2941 13.8327 12.4711 13.8327 11.667C13.8327 6.42647 18.0922 2.16699 23.3327 2.16699C24.4842 2.16699 25.6396 2.38763 26.7848 2.833L28.4518 3.47414L25.1291 6.79677C24.2839 7.64203 24.2838 9.02531 25.1291 9.87058L25.1339 9.87523C25.9613 10.6809 27.3707 10.6809 28.1982 9.87526L31.5255 6.54791L32.166 8.21315ZM20.0049 18.0524L20.7163 18.3323L20.7197 18.3336C25.4695 20.1618 30.2132 16.699 30.4818 12.0961L30.5524 10.8863L29.6493 11.6944C27.9475 13.217 25.1157 13.1429 23.4862 11.5134C21.7907 9.81794 21.7323 7.10322 23.3048 5.35095L24.1146 4.44864L22.9042 4.51781C19.1394 4.73293 16.166 7.86871 16.166 11.667C16.166 12.5364 16.347 13.4118 16.6632 14.2728L16.9473 14.9948L9.4243 22.5005L10.0084 22.8218C10.9253 23.3261 11.6736 24.0744 12.1779 24.9913L12.4992 25.5754L20.0049 18.0524ZM32.4993 24.7665L27.8327 26.8404V30.0003C27.8327 34.0779 30.7414 36.2388 32.2904 36.9512L32.4993 37.0473L32.7083 36.9512C34.2572 36.2388 37.166 34.0779 37.166 30.0003V26.8404L32.4993 24.7665ZM4.49935 27.5003C4.49935 29.1598 5.83987 30.5003 7.49935 30.5003C9.15882 30.5003 10.4993 29.1598 10.4993 27.5003C10.4993 25.8408 9.15882 24.5003 7.49935 24.5003C5.83987 24.5003 4.49935 25.8408 4.49935 27.5003ZM32.1564 39.3974L32.4993 39.5024L32.8423 39.3974C35.5045 38.5783 39.4993 35.3913 39.4993 30.0003V25.3221L32.4993 22.2141L25.4993 25.3221V30.0003C25.4993 35.3913 29.4942 38.5783 32.1564 39.3974Z" fill="#fff"/>
</svg>
