<svg width="40" height="40" viewBox="0 0 40 40" fill="none" xmlns="http://www.w3.org/2000/svg">
<path fill-rule="evenodd" clip-rule="evenodd" d="M11.1673 11.167V28.8337H28.1269L31.1673 31.8741V35.0003C31.1673 36.5658 29.8995 37.8337 28.334 37.8337H11.6673C10.1018 37.8337 8.83398 36.5658 8.83398 35.0003V5.00033C8.83398 3.4348 10.1018 2.16699 11.6673 2.16699H28.334C29.8995 2.16699 31.1673 3.4348 31.1673 5.00033V8.12655L28.1269 11.167H11.1673ZM28.834 4.50033H11.1673V8.83366H28.834V4.50033ZM28.834 31.167H11.1673V35.5003H28.834V31.167ZM32.7697 27.0623C36.4031 23.0684 36.4031 16.9323 32.7697 12.9384L34.4209 11.2871C38.9617 16.1916 38.9617 23.8091 34.4209 28.7135L32.7697 27.0623ZM29.7004 23.993L28.0418 22.3344C28.5554 21.6678 28.834 20.8546 28.834 20.0003C28.834 19.1461 28.5554 18.3328 28.0418 17.6663L29.7004 16.0077C30.6505 17.121 31.1673 18.5205 31.1673 20.0003C31.1673 21.4802 30.6505 22.8796 29.7004 23.993Z" fill="#7C7C7C"/>
</svg>
