<svg width="40" height="40" viewBox="0 0 40 40" fill="none" xmlns="http://www.w3.org/2000/svg">
<path fill-rule="evenodd" clip-rule="evenodd" d="M27.6268 18.333L35.9601 26.6663L26.6672 35.9592L18.3339 27.6259L11.4601 34.4997H5.50058V28.5401L12.3743 21.6663L4.04102 13.333L13.3339 4.04011L21.6672 12.3734L29.8658 4.17484C30.0935 3.9472 30.3915 3.83301 30.6907 3.83301C30.9899 3.83301 31.2879 3.9472 31.5155 4.17484L35.8259 8.48519C36.2814 8.93958 36.2821 9.67775 35.8254 10.1344L27.6268 18.333ZM33.3509 9.30957L30.6907 6.64934L27.8286 9.51139L30.4889 12.1716L33.3509 9.30957ZM20.0176 14.0231L13.3339 7.33944L7.34034 13.333L14.024 20.0167L20.0176 14.0231ZM28.8392 13.8213L26.179 11.1611L7.83391 29.5061V32.1663H10.4941L28.8392 13.8213ZM32.6608 26.6663L25.9771 19.9827L19.9836 25.9762L26.6672 32.6599L32.6608 26.6663Z" fill="#7C7C7C"/>
</svg>
