<svg width="491" height="356" viewBox="0 0 491 356" fill="none" xmlns="http://www.w3.org/2000/svg">
<path d="M311.363 348.047H16.8203V348.485H311.363V348.047Z" fill="black"/>
<path d="M94.3432 216.058L94.293 214.742C94.8953 214.723 95.5076 214.684 96.1099 214.637L96.2303 215.953C95.5979 216 94.9656 216.039 94.3432 216.058ZM90.579 216.029C89.9566 216 89.3242 215.953 88.7019 215.886L88.8424 214.57C89.4447 214.627 90.047 214.675 90.6593 214.704L90.579 216.029ZM99.9544 215.466L99.7035 214.17C100.296 214.065 100.898 213.941 101.48 213.817L101.801 215.104C101.189 215.238 100.577 215.362 99.9544 215.466ZM84.9778 215.352C84.3655 215.238 83.7432 215.104 83.1409 214.951L83.4822 213.674C84.0644 213.817 84.6667 213.941 85.2589 214.055L84.9778 215.352ZM105.425 214.112L104.983 212.863C105.556 212.682 106.128 212.482 106.69 212.272L107.202 213.502C106.61 213.712 106.017 213.922 105.425 214.112ZM79.5373 213.912C78.945 213.712 78.3528 213.492 77.7806 213.264L78.3126 212.043C78.8748 212.262 79.4369 212.472 80.0091 212.663L79.5373 213.912ZM110.635 212.014L110.002 210.841C110.534 210.584 111.076 210.298 111.598 210.021L112.291 211.166C111.749 211.461 111.187 211.747 110.635 212.014ZM74.3677 211.738C73.8157 211.461 73.2636 211.166 72.7316 210.86L73.4443 209.726C73.9662 210.021 74.4982 210.307 75.0302 210.574L74.3677 211.738ZM115.463 209.23L114.66 208.152C115.152 207.818 115.644 207.475 116.115 207.122L116.969 208.162C116.477 208.534 115.975 208.887 115.463 209.23ZM69.5897 208.887C69.0878 208.534 68.5859 208.171 68.094 207.799L68.9673 206.769C69.4391 207.132 69.9209 207.485 70.4028 207.818L69.5897 208.887ZM119.829 205.825L118.876 204.872C119.308 204.481 119.749 204.061 120.161 203.651L121.165 204.567C120.733 204.986 120.281 205.415 119.829 205.825ZM65.2834 205.406C64.8418 204.986 64.4001 204.557 63.9685 204.118L64.9923 203.222C65.4039 203.642 65.8255 204.061 66.2571 204.462L65.2834 205.406ZM123.634 201.858L122.54 201.038C122.911 200.59 123.283 200.123 123.634 199.656L124.768 200.418C124.397 200.905 124.015 201.391 123.634 201.858ZM61.5493 201.382C61.1679 200.905 60.7965 200.418 60.4452 199.932L61.5895 199.188C61.9308 199.665 62.2921 200.132 62.6535 200.59L61.5493 201.382ZM126.796 197.415L125.591 196.757C125.892 196.261 126.183 195.755 126.465 195.24L127.699 195.841C127.418 196.375 127.107 196.9 126.796 197.415ZM58.4476 196.89C58.1465 196.375 57.8453 195.841 57.5743 195.307L58.819 194.725C59.09 195.24 59.3711 195.755 59.6622 196.251L58.4476 196.89ZM129.265 192.589L127.98 192.103C128.201 191.569 128.412 191.025 128.613 190.482L129.928 190.911C129.717 191.474 129.496 192.036 129.265 192.589ZM56.0686 192.027C55.8478 191.474 55.637 190.901 55.4463 190.329L56.7713 189.919C56.962 190.463 57.1628 191.016 57.3735 191.55L56.0686 192.027ZM130.972 187.468L129.616 187.163C129.757 186.61 129.887 186.038 129.998 185.475L131.363 185.723C131.243 186.305 131.112 186.896 130.972 187.468ZM54.4525 186.877C54.312 186.295 54.1915 185.704 54.0911 185.123L55.4563 184.903C55.5567 185.466 55.6771 186.038 55.8076 186.601L54.4525 186.877ZM131.875 182.176L130.49 182.061C130.54 181.489 130.58 180.917 130.61 180.335L131.995 180.393C131.975 180.984 131.935 181.585 131.875 182.176ZM53.6294 181.566C53.5792 180.974 53.5491 180.374 53.5391 179.782L54.9243 179.744C54.9444 180.316 54.9745 180.898 55.0146 181.47L53.6294 181.566ZM132.036 178.791H130.65C130.65 178.218 130.64 177.637 130.61 177.065L131.995 176.998C132.016 177.599 132.036 178.199 132.036 178.791ZM55.0046 176.292L53.6194 176.197C53.6595 175.606 53.7197 175.005 53.79 174.413L55.1652 174.566C55.105 175.148 55.0447 175.72 55.0046 176.292ZM130.259 173.632C130.169 173.059 130.068 172.487 129.958 171.925L131.323 171.677C131.443 172.258 131.544 172.85 131.634 173.441L130.259 173.632ZM55.7675 171.171L54.4124 170.895C54.5429 170.313 54.6934 169.731 54.854 169.15L56.1991 169.493C56.0385 170.046 55.898 170.609 55.7675 171.171ZM129.094 168.577C128.924 168.024 128.733 167.471 128.542 166.937L129.857 166.499C130.068 167.061 130.259 167.633 130.44 168.205L129.094 168.577ZM57.3033 166.203L56.0084 165.736C56.2292 165.183 56.4601 164.62 56.711 164.076L57.9859 164.601C57.7349 165.125 57.5141 165.669 57.3033 166.203ZM127.177 163.733C126.926 163.209 126.655 162.694 126.374 162.179L127.609 161.568C127.9 162.093 128.181 162.636 128.442 163.18L127.177 163.733ZM59.5719 161.502L58.3573 160.863C58.6584 160.348 58.9796 159.823 59.3008 159.318L60.4853 160.004C60.1641 160.5 59.8629 160.996 59.5719 161.502ZM124.537 159.194C124.206 158.717 123.865 158.231 123.503 157.773L124.628 157.001C124.999 157.487 125.35 157.983 125.692 158.479L124.537 159.194ZM62.523 157.153L61.4188 156.362C61.7902 155.885 62.1917 155.418 62.5933 154.96L63.6573 155.799C63.2658 156.247 62.8944 156.695 62.523 157.153ZM121.245 155.074C120.843 154.645 120.432 154.216 120.01 153.806L121.014 152.891C121.446 153.32 121.877 153.758 122.289 154.206L121.245 155.074ZM66.1166 153.253L65.1429 152.318C65.5846 151.899 66.0463 151.489 66.5081 151.088L67.4416 152.07C66.9798 152.452 66.5382 152.852 66.1166 153.253ZM117.37 151.431C116.908 151.06 116.437 150.697 115.965 150.344L116.818 149.305C117.31 149.667 117.802 150.049 118.284 150.43L117.37 151.431ZM70.2422 149.887L69.4191 148.828C69.9209 148.475 70.4429 148.122 70.9649 147.798L71.7378 148.895C71.2259 149.21 70.734 149.543 70.2422 149.887ZM112.984 148.361C112.472 148.056 111.95 147.76 111.428 147.474L112.11 146.33C112.652 146.625 113.194 146.93 113.726 147.245L112.984 148.361ZM74.8496 147.102L74.1871 145.939C74.7392 145.653 75.3013 145.386 75.8734 145.128L76.4757 146.32C75.9236 146.568 75.3816 146.835 74.8496 147.102ZM108.175 145.92C107.623 145.691 107.061 145.462 106.499 145.262L107.001 144.031C107.583 144.241 108.165 144.48 108.738 144.718L108.175 145.92ZM79.8183 144.985L79.3466 143.745C79.9388 143.545 80.5411 143.345 81.1333 143.173L81.5449 144.432C80.9627 144.604 80.3905 144.785 79.8183 144.985ZM103.056 144.165C102.474 144.012 101.882 143.869 101.299 143.736L101.611 142.448C102.223 142.582 102.835 142.735 103.438 142.897L103.056 144.165ZM85.0682 143.564L84.7871 142.277C85.3994 142.153 86.0218 142.048 86.6441 141.953L86.8549 143.259C86.2526 143.345 85.6504 143.45 85.0682 143.564ZM97.726 143.126C97.1237 143.049 96.5214 142.992 95.9192 142.944L96.0296 141.628C96.6519 141.676 97.2843 141.743 97.9067 141.819L97.726 143.126ZM90.4686 142.887L90.3883 141.571C91.0106 141.533 91.643 141.514 92.2754 141.504L92.2955 142.82C91.6731 142.83 91.0608 142.849 90.4686 142.887Z" fill="#D11329"/>
<path d="M240.946 86.2905H235.436V106.192H240.946V86.2905Z" fill="white"/>
<path d="M240.946 86.2905H235.436V106.192H240.946V86.2905Z" stroke="#D11329" stroke-miterlimit="10"/>
<path d="M243.856 86.2905H232.523V97.0567H243.856V86.2905Z" fill="#D11329"/>
<path d="M278.759 86.2905H273.248V106.192H278.759V86.2905Z" fill="white"/>
<path d="M278.759 86.2905H273.248V106.192H278.759V86.2905Z" stroke="#D11329" stroke-miterlimit="10"/>
<path d="M281.669 86.2905H270.336V97.0567H281.669V86.2905Z" fill="#D11329"/>
<path d="M316.581 86.2905H311.07V106.192H316.581V86.2905Z" fill="white"/>
<path d="M316.581 86.2905H311.07V106.192H316.581V86.2905Z" stroke="#D11329" stroke-miterlimit="10"/>
<path d="M319.493 86.2905H308.16V97.0567H319.493V86.2905Z" fill="#D11329"/>
<path d="M425.181 356L425.131 354.684C425.733 354.665 426.345 354.627 426.948 354.579L427.068 355.895C426.436 355.943 425.803 355.981 425.181 356ZM421.417 355.981C420.794 355.952 420.162 355.905 419.54 355.838L419.68 354.522C420.283 354.579 420.885 354.627 421.487 354.655L421.417 355.981ZM430.792 355.409L430.541 354.112C431.134 354.007 431.736 353.893 432.318 353.759L432.639 355.046C432.027 355.18 431.405 355.304 430.792 355.409ZM415.816 355.294C415.203 355.18 414.581 355.046 413.979 354.903L414.32 353.626C414.902 353.769 415.505 353.893 416.087 354.007L415.816 355.294ZM436.263 354.055L435.811 352.805C436.383 352.624 436.956 352.424 437.518 352.205L438.03 353.435C437.447 353.654 436.855 353.864 436.263 354.055ZM410.365 353.854C409.773 353.654 409.181 353.435 408.608 353.206L409.14 351.985C409.693 352.205 410.265 352.414 410.837 352.605L410.365 353.854ZM441.463 351.966L440.83 350.793C441.362 350.536 441.904 350.25 442.426 349.964L443.119 351.108C442.577 351.404 442.025 351.699 441.463 351.966ZM405.206 351.69C404.654 351.413 404.101 351.118 403.569 350.812L404.282 349.678C404.804 349.973 405.336 350.259 405.868 350.526L405.206 351.69ZM446.301 349.182L445.498 348.104C445.99 347.77 446.481 347.427 446.953 347.074L447.807 348.114C447.315 348.476 446.813 348.838 446.301 349.182ZM400.418 348.829C399.916 348.476 399.414 348.114 398.922 347.742L399.795 346.712C400.267 347.074 400.749 347.427 401.231 347.761L400.418 348.829ZM450.657 345.768L449.704 344.814C450.135 344.423 450.577 344.004 450.989 343.594L451.992 344.509C451.561 344.938 451.119 345.358 450.657 345.768ZM396.121 345.358C395.67 344.938 395.228 344.509 394.806 344.07L395.83 343.174C396.242 343.594 396.663 344.013 397.095 344.414L396.121 345.358ZM454.472 341.801L453.378 340.981C453.749 340.532 454.12 340.065 454.472 339.598L455.606 340.361C455.235 340.857 454.853 341.334 454.472 341.801ZM392.377 341.334C391.996 340.857 391.624 340.37 391.273 339.884L392.417 339.14C392.759 339.607 393.12 340.084 393.481 340.542L392.377 341.334ZM457.634 337.366L456.429 336.708C456.73 336.213 457.021 335.707 457.302 335.192L458.537 335.793C458.256 336.318 457.945 336.852 457.634 337.366ZM389.286 336.842C388.984 336.318 388.683 335.793 388.412 335.249L389.657 334.668C389.928 335.183 390.209 335.698 390.5 336.203L389.286 336.842ZM460.103 332.532L458.808 332.045C459.029 331.511 459.24 330.968 459.44 330.424L460.755 330.853C460.555 331.416 460.334 331.988 460.103 332.532ZM386.907 331.969C386.686 331.416 386.475 330.844 386.284 330.272L387.609 329.862C387.8 330.405 388.001 330.958 388.211 331.492L386.907 331.969ZM461.799 327.42L460.444 327.115C460.585 326.562 460.715 325.99 460.826 325.427L462.191 325.675C462.08 326.257 461.95 326.839 461.799 327.42ZM385.29 326.829C385.16 326.247 385.029 325.656 384.929 325.074L386.294 324.855C386.395 325.418 386.515 325.99 386.646 326.553L385.29 326.829ZM462.713 322.128L461.328 322.013C461.378 321.441 461.418 320.869 461.448 320.287L462.833 320.345C462.813 320.936 462.773 321.537 462.713 322.128ZM384.467 321.517C384.417 320.926 384.387 320.325 384.377 319.734L385.762 319.696C385.782 320.268 385.812 320.85 385.853 321.422L384.467 321.517ZM462.873 318.742H461.488C461.488 318.17 461.478 317.589 461.448 317.016L462.833 316.95C462.853 317.55 462.873 318.151 462.873 318.742ZM385.843 316.244L384.457 316.158C384.497 315.567 384.558 314.966 384.628 314.375L386.003 314.528C385.943 315.09 385.883 315.672 385.843 316.244ZM461.097 313.574C461.006 313.002 460.906 312.43 460.796 311.867L462.161 311.619C462.281 312.201 462.382 312.792 462.472 313.383L461.097 313.574ZM386.605 311.114L385.25 310.837C385.381 310.255 385.531 309.674 385.692 309.101L387.037 309.445C386.876 309.988 386.736 310.551 386.605 311.114ZM459.932 308.52C459.762 307.967 459.571 307.414 459.37 306.88L460.685 306.441C460.896 307.004 461.087 307.576 461.267 308.148L459.932 308.52ZM388.131 306.145L386.826 305.688C387.047 305.134 387.278 304.572 387.529 304.028L388.804 304.553C388.573 305.077 388.342 305.611 388.131 306.145ZM458.015 303.675C457.764 303.151 457.493 302.636 457.212 302.121L458.447 301.511C458.738 302.035 459.019 302.579 459.28 303.122L458.015 303.675ZM390.41 301.454L389.195 300.815C389.496 300.3 389.818 299.775 390.139 299.27L391.323 299.956C391.002 300.443 390.691 300.948 390.41 301.454ZM455.375 299.146C455.044 298.669 454.703 298.183 454.351 297.725L455.475 296.952C455.837 297.439 456.198 297.935 456.539 298.431L455.375 299.146ZM393.361 297.105L392.247 296.314C392.618 295.837 393.02 295.369 393.411 294.912L394.475 295.76C394.104 296.19 393.722 296.647 393.361 297.105ZM452.083 295.017C451.681 294.588 451.27 294.158 450.848 293.748L451.842 292.833C452.273 293.262 452.705 293.701 453.117 294.149L452.083 295.017ZM396.944 293.205L395.971 292.27C396.412 291.851 396.874 291.441 397.336 291.04L398.269 292.022C397.818 292.404 397.376 292.804 396.944 293.205ZM448.198 291.383C447.736 291.011 447.264 290.64 446.793 290.296L447.646 289.257C448.138 289.619 448.63 290.001 449.111 290.382L448.198 291.383ZM401.08 289.829L400.257 288.771C400.759 288.418 401.281 288.065 401.803 287.741L402.576 288.837C402.064 289.152 401.562 289.486 401.08 289.829ZM443.821 288.313C443.31 288.008 442.788 287.712 442.266 287.426L442.948 286.282C443.49 286.577 444.032 286.882 444.564 287.197L443.821 288.313ZM405.677 287.054L405.015 285.891C405.567 285.604 406.129 285.338 406.701 285.08L407.304 286.272C406.761 286.52 406.209 286.777 405.677 287.054ZM439.013 285.872C438.461 285.643 437.899 285.414 437.337 285.204L437.839 283.974C438.421 284.193 439.003 284.422 439.575 284.66L439.013 285.872ZM410.656 284.927L410.174 283.688C410.767 283.487 411.369 283.287 411.961 283.116L412.373 284.374C411.801 284.546 411.218 284.737 410.656 284.927ZM433.894 284.107C433.312 283.955 432.72 283.812 432.127 283.678L432.438 282.391C433.051 282.524 433.663 282.677 434.265 282.83L433.894 284.107ZM415.896 283.516L415.615 282.219C416.227 282.095 416.85 281.99 417.472 281.895L417.683 283.201C417.09 283.297 416.488 283.402 415.896 283.516ZM428.554 283.068C427.952 282.992 427.349 282.934 426.747 282.887L426.857 281.571C427.48 281.618 428.112 281.685 428.734 281.761L428.554 283.068ZM421.296 282.839L421.216 281.523C421.838 281.485 422.471 281.466 423.103 281.456L423.123 282.772C422.511 282.782 421.899 282.801 421.296 282.839Z" fill="#D11329"/>
<path d="M417.021 288.58C416.619 288.58 416.228 288.608 415.847 288.656C415.957 287.846 416.017 287.025 416.017 286.196C416.017 275.382 406.792 266.628 395.419 266.628C384.869 266.628 376.187 274.161 374.972 283.869C373.276 283.02 371.348 282.543 369.291 282.543C362.535 282.543 357.064 287.741 357.064 294.158C357.064 300.519 362.445 305.678 369.12 305.773H417.021C422.02 305.773 426.065 301.93 426.065 297.181C426.065 292.432 422.02 288.58 417.021 288.58Z" fill="white"/>
<path d="M417.02 306.431H369.661C369.44 306.431 369.26 306.431 369.109 306.422V306.431C362.083 306.336 356.371 300.834 356.371 294.158C356.371 287.388 362.163 281.885 369.29 281.885C371.047 281.885 372.803 282.229 374.409 282.887C376.096 273.179 384.959 265.97 395.419 265.97C407.163 265.97 416.709 275.048 416.709 286.196C416.709 286.758 416.679 287.34 416.629 287.931C416.759 287.922 416.89 287.922 417.02 287.922C422.39 287.922 426.757 292.07 426.757 297.172C426.767 302.274 422.39 306.431 417.02 306.431ZM369.139 305.106C369.711 305.106 416.558 305.106 417.03 305.106C421.638 305.106 425.382 301.549 425.382 297.172C425.382 292.795 421.638 289.238 417.03 289.238C416.679 289.238 416.318 289.266 415.946 289.305C415.735 289.333 415.514 289.266 415.364 289.123C415.213 288.98 415.133 288.771 415.163 288.57C415.274 287.76 415.324 286.959 415.324 286.196C415.324 275.773 406.39 267.286 395.419 267.286C385.341 267.286 376.848 274.447 375.654 283.945C375.624 284.165 375.493 284.346 375.283 284.451C375.082 284.556 374.841 284.556 374.64 284.451C372.974 283.621 371.177 283.201 369.29 283.201C362.936 283.201 357.756 288.113 357.756 294.158C357.756 300.109 362.866 305.02 369.139 305.106Z" fill="#D11329"/>
<path d="M396.723 336.68C396.723 339.388 394.415 341.581 391.564 341.581C388.713 341.581 386.404 339.388 386.404 336.68C386.404 333.972 388.713 331.778 391.564 331.778C394.415 331.778 396.723 333.972 396.723 336.68Z" fill="#D11329"/>
<path d="M367.393 336.708C367.393 339.417 365.084 341.61 362.234 341.61C359.383 341.61 357.074 339.417 357.074 336.708C357.074 334 359.383 331.807 362.234 331.807C365.084 331.807 367.393 334 367.393 336.708Z" fill="#D11329"/>
<path d="M426.055 336.708C426.055 339.417 423.747 341.61 420.896 341.61C418.045 341.61 415.736 339.417 415.736 336.708C415.736 334 418.045 331.807 420.896 331.807C423.747 331.807 426.055 334 426.055 336.708Z" fill="#D11329"/>
<path d="M391.564 332.379C391.182 332.379 390.871 332.083 390.871 331.721V305.773C390.871 305.411 391.182 305.115 391.564 305.115C391.945 305.115 392.256 305.411 392.256 305.773V331.721C392.256 332.083 391.945 332.379 391.564 332.379Z" fill="#D11329"/>
<path d="M415.737 337.271H409.152C406.542 337.271 404.414 335.25 404.414 332.77V305.764C404.414 305.402 404.725 305.106 405.107 305.106C405.488 305.106 405.799 305.402 405.799 305.764V332.77C405.799 334.525 407.305 335.955 409.152 335.955H415.737C416.118 335.955 416.429 336.251 416.429 336.613C416.429 336.976 416.118 337.271 415.737 337.271Z" fill="#D11329"/>
<path d="M374.068 337.271H367.484C367.102 337.271 366.791 336.976 366.791 336.613C366.791 336.251 367.102 335.955 367.484 335.955H374.068C375.915 335.955 377.421 334.525 377.421 332.77V305.764C377.421 305.402 377.732 305.106 378.114 305.106C378.495 305.106 378.806 305.402 378.806 305.764V332.77C378.806 335.25 376.688 337.271 374.068 337.271Z" fill="#D11329"/>
<path d="M395.029 287.95C394.697 287.95 394.406 287.721 394.346 287.397L392.218 275.515C392.158 275.153 392.409 274.819 392.79 274.752C393.172 274.695 393.523 274.934 393.593 275.296L395.611 286.539L407.445 284.861C407.827 284.803 408.178 285.051 408.238 285.414C408.299 285.776 408.038 286.11 407.656 286.167L395.149 287.941C395.089 287.941 395.059 287.95 395.029 287.95Z" fill="white"/>
<path d="M395.029 287.95C394.697 287.95 394.406 287.721 394.346 287.397L392.218 275.515C392.158 275.153 392.409 274.819 392.79 274.752C393.172 274.695 393.523 274.934 393.593 275.296L395.611 286.539L407.445 284.861C407.827 284.803 408.178 285.051 408.238 285.414C408.299 285.776 408.038 286.11 407.656 286.167L395.149 287.941C395.089 287.941 395.059 287.95 395.029 287.95Z" stroke="#D11329" stroke-miterlimit="10"/>
<path d="M397.015 300.719C396.674 300.719 396.383 300.481 396.333 300.157L394.496 288.437L387.559 293.014C387.248 293.224 386.817 293.148 386.596 292.852C386.375 292.556 386.455 292.137 386.767 291.936L394.616 286.749C394.817 286.615 395.068 286.596 395.289 286.682C395.509 286.768 395.67 286.968 395.7 287.187L397.698 299.956C397.758 300.319 397.487 300.652 397.116 300.71C397.085 300.71 397.055 300.719 397.015 300.719Z" fill="white"/>
<path d="M397.015 300.719C396.674 300.719 396.383 300.481 396.333 300.157L394.496 288.437L387.559 293.014C387.248 293.224 386.817 293.148 386.596 292.852C386.375 292.556 386.455 292.137 386.767 291.936L394.616 286.749C394.817 286.615 395.068 286.596 395.289 286.682C395.509 286.768 395.67 286.968 395.7 287.187L397.698 299.956C397.758 300.319 397.487 300.652 397.116 300.71C397.085 300.71 397.055 300.719 397.015 300.719Z" stroke="#D11329" stroke-miterlimit="10"/>
<path d="M395.028 287.95C394.978 287.95 394.928 287.95 394.887 287.941L381.708 285.29C381.336 285.214 381.095 284.861 381.176 284.508C381.256 284.155 381.627 283.926 381.999 284.002L395.179 286.653C395.55 286.73 395.791 287.083 395.711 287.435C395.63 287.731 395.349 287.95 395.028 287.95Z" fill="white"/>
<path d="M395.028 287.95C394.978 287.95 394.928 287.95 394.887 287.941L381.708 285.29C381.336 285.214 381.095 284.861 381.176 284.508C381.256 284.155 381.627 283.926 381.999 284.002L395.179 286.653C395.55 286.73 395.791 287.083 395.711 287.435C395.63 287.731 395.349 287.95 395.028 287.95Z" stroke="#D11329" stroke-miterlimit="10"/>
<path d="M380.824 285.671C380.272 285.147 380.272 284.289 380.824 283.764C381.376 283.24 382.28 283.24 382.832 283.764C383.384 284.289 383.384 285.137 382.832 285.671C382.27 286.196 381.376 286.196 380.824 285.671ZM398.391 298.726C399.174 299.47 399.174 300.681 398.391 301.425C397.608 302.169 396.333 302.169 395.55 301.425C394.767 300.681 394.767 299.47 395.55 298.726C396.333 297.982 397.608 297.982 398.391 298.726ZM408.579 284.556C409.181 285.128 409.181 286.053 408.579 286.625C407.977 287.197 407.003 287.197 406.401 286.625C405.799 286.053 405.799 285.128 406.401 284.556C407.003 283.983 407.977 283.983 408.579 284.556ZM385.693 293.93C384.849 293.129 384.849 291.832 385.693 291.031C386.536 290.23 387.901 290.23 388.744 291.031C389.587 291.832 389.587 293.129 388.744 293.93C387.901 294.731 386.536 294.721 385.693 293.93ZM397.276 285.042C398.581 286.282 398.581 288.303 397.276 289.552C395.961 290.792 393.843 290.792 392.528 289.552C391.213 288.313 391.213 286.291 392.528 285.042C393.843 283.802 395.961 283.802 397.276 285.042ZM390.962 277.26C389.888 276.24 389.888 274.59 390.962 273.579C392.037 272.559 393.773 272.559 394.837 273.579C395.911 274.6 395.911 276.25 394.837 277.26C393.763 278.271 392.037 278.271 390.962 277.26Z" fill="white"/>
<path d="M403.008 310.055C403.008 301.396 410.396 294.378 419.51 294.378C428.625 294.378 436.012 301.396 436.012 310.055C436.012 318.714 428.625 325.732 419.51 325.732C410.396 325.732 403.008 318.714 403.008 310.055Z" fill="#D11329"/>
<path d="M419.57 319.181C414.21 319.181 409.854 315.042 409.854 309.95C409.854 309.588 410.165 309.292 410.546 309.292C410.928 309.292 411.239 309.588 411.239 309.95C411.239 314.318 414.973 317.865 419.57 317.865C424.168 317.865 427.902 314.318 427.902 309.95C427.902 305.583 424.168 302.035 419.57 302.035C417.342 302.035 415.254 302.855 413.678 304.353C413.407 304.61 412.965 304.61 412.694 304.353C412.423 304.095 412.423 303.675 412.694 303.418C414.531 301.673 416.97 300.71 419.57 300.71C424.93 300.71 429.287 304.858 429.287 309.941C429.297 315.042 424.93 319.181 419.57 319.181Z" fill="white"/>
<path d="M412.403 305.325C412.202 305.325 412.012 305.249 411.881 305.106C411.72 304.925 411.66 304.686 411.74 304.457L412.754 301.606C412.835 301.377 413.035 301.215 413.286 301.167C413.527 301.12 413.788 301.215 413.949 301.396L415.936 303.666C416.097 303.847 416.137 304.085 416.057 304.305C415.976 304.524 415.776 304.686 415.545 304.734L412.544 305.316C412.493 305.325 412.443 305.325 412.403 305.325ZM413.668 303.151L413.437 303.799L414.119 303.666L413.668 303.151Z" fill="white"/>
<path d="M139.05 129.832H78.0293V186.181C84.1926 192.017 97.4627 192.017 108.535 192.017C119.606 192.017 130.929 191.006 139.05 186.181V129.832Z" fill="white"/>
<path d="M139.05 129.031C139.05 125.808 125.388 123.195 108.535 123.195C91.6809 123.195 78.0293 125.808 78.0293 129.031C78.0293 132.254 91.6909 134.867 108.535 134.867C125.388 134.867 139.05 132.254 139.05 129.031Z" fill="#D11329"/>
<path d="M108.546 135.525C93.0372 135.525 77.3379 133.294 77.3379 129.031C77.3379 124.769 93.0372 122.537 108.546 122.537C124.054 122.537 139.754 124.769 139.754 129.031C139.744 133.294 124.054 135.525 108.546 135.525ZM108.546 123.853C100.445 123.853 92.8264 124.454 87.1048 125.551C80.9214 126.733 78.7231 128.163 78.7231 129.031C78.7231 129.899 80.9214 131.329 87.1048 132.512C92.8264 133.609 100.435 134.209 108.546 134.209C116.656 134.209 124.265 133.609 129.987 132.512C136.17 131.329 138.368 129.899 138.368 129.031C138.368 128.163 136.17 126.733 129.987 125.551C124.265 124.454 116.646 123.853 108.546 123.853Z" fill="#D11329"/>
<path d="M108.546 154.578C93.0372 154.578 77.3379 152.347 77.3379 148.084V128.926H78.7231V148.075C78.7231 148.943 80.9214 150.373 87.1048 151.556C92.8264 152.652 100.435 153.253 108.546 153.253C116.656 153.253 124.265 152.652 129.987 151.556C136.17 150.373 138.368 148.943 138.368 148.075V128.926H139.754V148.075C139.744 152.347 124.054 154.578 108.546 154.578Z" fill="#D11329"/>
<path d="M108.546 173.422C93.0372 173.422 77.3379 171.19 77.3379 166.928V147.779H78.7231V166.928C78.7231 167.795 80.9214 169.226 87.1048 170.408C92.8264 171.505 100.435 172.106 108.546 172.106C116.656 172.106 124.265 171.505 129.987 170.408C136.17 169.226 138.368 167.795 138.368 166.928V147.779H139.754V166.928C139.744 171.19 124.054 173.422 108.546 173.422Z" fill="#D11329"/>
<path d="M108.546 192.675C93.0372 192.675 77.3379 190.444 77.3379 186.181V167.033H78.7231V186.181C78.7231 187.049 80.9214 188.479 87.1048 189.662C92.8264 190.759 100.435 191.359 108.546 191.359C116.656 191.359 124.265 190.759 129.987 189.662C136.17 188.479 138.368 187.049 138.368 186.181V167.033H139.754V186.181C139.744 190.444 124.054 192.675 108.546 192.675Z" fill="#D11329"/>
<path d="M112.159 146.902H104.932C103.466 146.902 102.271 145.777 102.271 144.375C102.271 142.983 103.466 141.857 104.932 141.857H112.159C113.624 141.857 114.819 142.983 114.819 144.375C114.809 145.777 113.624 146.902 112.159 146.902Z" fill="white"/>
<path d="M112.159 146.902H104.932C103.466 146.902 102.271 145.777 102.271 144.375C102.271 142.983 103.466 141.857 104.932 141.857H112.159C113.624 141.857 114.819 142.983 114.819 144.375C114.809 145.777 113.624 146.902 112.159 146.902Z" stroke="#D11329" stroke-miterlimit="10"/>
<path d="M112.159 165.879H104.932C103.466 165.879 102.271 164.753 102.271 163.352C102.271 161.95 103.466 160.834 104.932 160.834H112.159C113.624 160.834 114.819 161.959 114.819 163.352C114.819 164.744 113.624 165.879 112.159 165.879Z" fill="white"/>
<path d="M112.159 165.879H104.932C103.466 165.879 102.271 164.753 102.271 163.352C102.271 161.95 103.466 160.834 104.932 160.834H112.159C113.624 160.834 114.819 161.959 114.819 163.352C114.819 164.744 113.624 165.879 112.159 165.879Z" stroke="#D11329" stroke-miterlimit="10"/>
<path d="M112.159 184.846H104.932C103.466 184.846 102.271 183.711 102.271 182.319C102.271 180.927 103.466 179.792 104.932 179.792H112.159C113.624 179.792 114.819 180.917 114.819 182.319C114.819 183.721 113.624 184.846 112.159 184.846Z" fill="white"/>
<path d="M112.159 184.846H104.932C103.466 184.846 102.271 183.711 102.271 182.319C102.271 180.927 103.466 179.792 104.932 179.792H112.159C113.624 179.792 114.819 180.917 114.819 182.319C114.819 183.721 113.624 184.846 112.159 184.846Z" stroke="#D11329" stroke-miterlimit="10"/>
<path d="M150.735 182.5C150.735 191.159 143.347 198.177 134.233 198.177C125.118 198.177 117.74 191.159 117.74 182.5C117.74 173.841 125.128 166.823 134.233 166.823C143.347 166.823 150.735 173.841 150.735 182.5Z" fill="#D11329"/>
<path d="M132.455 187.278C132.445 187.278 132.445 187.278 132.435 187.278C131.793 187.259 131.201 187.001 130.759 186.563L126.222 182.166C125.951 181.909 125.961 181.489 126.232 181.232C126.503 180.974 126.944 180.984 127.216 181.241L131.763 185.647C131.953 185.838 132.194 185.943 132.465 185.962C132.726 185.952 132.977 185.847 133.158 185.657L141.289 177.913C141.56 177.656 142.001 177.656 142.272 177.913C142.543 178.171 142.543 178.59 142.272 178.848L134.152 186.582C133.72 187.011 133.128 187.259 132.485 187.278C132.465 187.278 132.455 187.278 132.455 187.278Z" fill="white"/>
<path d="M453.308 221.369L453.258 220.053C453.86 220.034 454.472 219.996 455.075 219.948L455.195 221.264C454.563 221.303 453.93 221.341 453.308 221.369ZM449.534 221.341C448.911 221.303 448.279 221.255 447.657 221.198L447.797 219.882C448.399 219.939 449.002 219.987 449.604 220.015L449.534 221.341ZM458.919 220.778L458.668 219.481C459.26 219.376 459.863 219.252 460.445 219.128L460.766 220.416C460.154 220.54 459.532 220.664 458.919 220.778ZM443.933 220.664C443.32 220.549 442.698 220.416 442.096 220.263L442.437 218.985C443.019 219.128 443.621 219.252 444.204 219.367L443.933 220.664ZM464.38 219.424L463.928 218.175C464.5 217.993 465.072 217.793 465.635 217.583L466.147 218.814C465.574 219.023 464.972 219.233 464.38 219.424ZM438.492 219.224C437.9 219.023 437.308 218.804 436.735 218.575L437.267 217.355C437.82 217.574 438.392 217.784 438.964 217.974L438.492 219.224ZM469.59 217.326L468.957 216.153C469.489 215.896 470.031 215.619 470.553 215.333L471.246 216.477C470.704 216.773 470.142 217.059 469.59 217.326ZM433.323 217.049C432.77 216.773 432.218 216.477 431.686 216.172L432.399 215.037C432.921 215.333 433.453 215.619 433.985 215.886L433.323 217.049ZM474.428 214.541L473.625 213.464C474.117 213.13 474.608 212.787 475.08 212.434L475.933 213.473C475.442 213.845 474.93 214.198 474.428 214.541ZM428.544 214.198C428.043 213.845 427.541 213.483 427.049 213.101L427.922 212.081C428.394 212.443 428.876 212.796 429.358 213.13L428.544 214.198ZM478.784 211.137L477.831 210.183C478.262 209.792 478.704 209.382 479.115 208.963L480.119 209.878C479.688 210.298 479.236 210.727 478.784 211.137ZM424.238 210.717C423.797 210.298 423.355 209.869 422.923 209.43L423.947 208.534C424.359 208.953 424.78 209.373 425.212 209.773L424.238 210.717ZM482.589 207.17L481.494 206.35C481.866 205.902 482.237 205.434 482.589 204.967L483.723 205.73C483.362 206.216 482.98 206.703 482.589 207.17ZM420.504 206.693C420.123 206.216 419.751 205.73 419.4 205.244L420.544 204.5C420.886 204.977 421.247 205.444 421.608 205.902L420.504 206.693ZM485.761 202.726L484.556 202.068C484.857 201.572 485.148 201.067 485.429 200.552L486.664 201.153C486.373 201.687 486.072 202.211 485.761 202.726ZM417.412 202.202C417.111 201.677 416.81 201.143 416.539 200.609L417.784 200.027C418.055 200.542 418.336 201.057 418.627 201.553L417.412 202.202ZM488.22 197.901L486.935 197.415C487.156 196.881 487.367 196.337 487.567 195.793L488.882 196.223C488.672 196.785 488.451 197.348 488.22 197.901ZM415.023 197.338C414.803 196.785 414.592 196.213 414.401 195.641L415.726 195.231C415.917 195.774 416.118 196.327 416.328 196.861L415.023 197.338ZM489.926 192.78L488.571 192.475C488.712 191.922 488.842 191.35 488.953 190.787L490.318 191.035C490.207 191.617 490.067 192.208 489.926 192.78ZM413.407 192.189C413.277 191.607 413.146 191.016 413.046 190.434L414.411 190.215C414.511 190.777 414.632 191.35 414.762 191.912L413.407 192.189ZM490.84 187.488L489.455 187.373C489.505 186.801 489.545 186.219 489.575 185.647L490.96 185.704C490.93 186.295 490.89 186.896 490.84 187.488ZM412.594 186.877C412.554 186.286 412.514 185.685 412.504 185.084L413.889 185.046C413.909 185.618 413.939 186.2 413.979 186.772L412.594 186.877ZM491 184.102H489.615C489.615 183.53 489.605 182.948 489.575 182.376L490.96 182.319C490.98 182.91 491 183.511 491 184.102ZM413.969 181.604L412.584 181.518C412.624 180.927 412.685 180.326 412.755 179.735L414.13 179.887C414.06 180.45 414.01 181.032 413.969 181.604ZM489.224 178.943C489.133 178.371 489.033 177.799 488.923 177.246L490.288 176.998C490.408 177.579 490.509 178.171 490.599 178.762L489.224 178.943ZM414.722 176.483L413.367 176.206C413.498 175.625 413.648 175.043 413.809 174.461L415.154 174.804C414.993 175.358 414.853 175.92 414.722 176.483ZM488.059 173.889C487.889 173.336 487.698 172.783 487.497 172.249L488.812 171.81C489.013 172.373 489.214 172.945 489.394 173.517L488.059 173.889ZM416.258 171.515L414.963 171.047C415.184 170.494 415.415 169.932 415.666 169.388L416.941 169.912C416.7 170.437 416.469 170.981 416.258 171.515ZM486.132 169.045C485.881 168.52 485.61 168.005 485.329 167.49L486.564 166.88C486.855 167.404 487.136 167.948 487.397 168.492L486.132 169.045ZM418.527 166.813L417.312 166.174C417.613 165.659 417.934 165.135 418.256 164.629L419.44 165.316C419.129 165.812 418.818 166.308 418.527 166.813ZM483.502 164.505C483.171 164.029 482.83 163.542 482.478 163.075L483.602 162.303C483.974 162.789 484.325 163.285 484.666 163.781L483.502 164.505ZM421.488 162.465L420.384 161.673C420.755 161.196 421.157 160.729 421.548 160.271L422.612 161.111C422.231 161.559 421.849 162.007 421.488 162.465ZM480.21 160.376C479.808 159.947 479.397 159.518 478.975 159.108L479.979 158.193C480.41 158.622 480.842 159.06 481.254 159.509L480.21 160.376ZM425.071 158.565L424.088 157.63C424.529 157.21 424.991 156.8 425.453 156.4L426.386 157.382C425.945 157.763 425.503 158.164 425.071 158.565ZM476.325 156.743C475.863 156.371 475.391 156.009 474.92 155.656L475.773 154.617C476.265 154.979 476.757 155.36 477.238 155.742L476.325 156.743ZM429.207 155.189L428.384 154.13C428.886 153.777 429.408 153.425 429.93 153.1L430.703 154.197C430.191 154.512 429.689 154.855 429.207 155.189ZM471.938 153.672C471.426 153.367 470.904 153.072 470.382 152.786L471.065 151.641C471.607 151.937 472.149 152.242 472.681 152.557L471.938 153.672ZM433.804 152.414L433.142 151.25C433.694 150.974 434.256 150.697 434.828 150.44L435.43 151.632C434.878 151.88 434.336 152.147 433.804 152.414ZM467.14 151.231C466.588 151.002 466.026 150.774 465.464 150.564L465.966 149.334C466.548 149.553 467.13 149.782 467.702 150.02L467.14 151.231ZM438.783 150.297L438.311 149.057C438.904 148.857 439.506 148.657 440.098 148.485L440.51 149.744C439.927 149.915 439.345 150.096 438.783 150.297ZM462.021 149.477C461.439 149.324 460.846 149.181 460.254 149.047L460.565 147.76C461.178 147.894 461.79 148.046 462.392 148.208L462.021 149.477ZM444.023 148.876L443.742 147.579C444.354 147.455 444.977 147.35 445.599 147.255L445.81 148.561C445.217 148.656 444.615 148.761 444.023 148.876ZM456.681 148.437C456.078 148.361 455.476 148.304 454.874 148.256L454.984 146.94C455.607 146.988 456.239 147.054 456.861 147.131L456.681 148.437ZM449.423 148.199L449.343 146.883C449.965 146.845 450.598 146.826 451.23 146.816L451.25 148.132C450.638 148.142 450.026 148.161 449.423 148.199Z" fill="#D11329"/>
<path d="M447.577 186.362H399.666C397.367 186.362 395.5 184.588 395.5 182.405V171.19C395.5 169.007 397.367 167.233 399.666 167.233H447.577C449.875 167.233 451.742 169.007 451.742 171.19V182.405C451.742 184.588 449.875 186.362 447.577 186.362Z" fill="#FCFCFC"/>
<path d="M447.576 187.02H399.665C396.985 187.02 394.807 184.951 394.807 182.405V171.19C394.807 168.644 396.985 166.575 399.665 166.575H447.576C450.256 166.575 452.434 168.644 452.434 171.19V182.405C452.434 184.951 450.256 187.02 447.576 187.02ZM399.665 167.891C397.748 167.891 396.192 169.369 396.192 171.19V182.405C396.192 184.226 397.748 185.704 399.665 185.704H447.576C449.493 185.704 451.049 184.226 451.049 182.405V171.19C451.049 169.369 449.493 167.891 447.576 167.891H399.665Z" fill="#D11329"/>
<path d="M410.767 176.683C410.767 174.251 408.689 172.287 406.139 172.287C403.58 172.287 401.512 174.251 401.512 176.683C401.512 179.115 403.58 181.079 406.139 181.079C408.699 181.079 410.767 179.115 410.767 176.683Z" fill="#D11329"/>
<path d="M433.453 181.079C432.429 181.079 431.596 180.288 431.596 179.325V174.051C431.596 173.078 432.429 172.287 433.453 172.287C434.477 172.287 435.31 173.078 435.31 174.051V179.325C435.31 180.297 434.477 181.079 433.453 181.079Z" fill="white"/>
<path d="M433.453 181.079C432.429 181.079 431.596 180.288 431.596 179.325V174.051C431.596 173.078 432.429 172.287 433.453 172.287C434.477 172.287 435.31 173.078 435.31 174.051V179.325C435.31 180.297 434.477 181.079 433.453 181.079Z" stroke="#D11329" stroke-miterlimit="10"/>
<path d="M442.949 181.079C441.925 181.079 441.092 180.288 441.092 179.325V174.051C441.092 173.078 441.925 172.287 442.949 172.287C443.973 172.287 444.796 173.078 444.796 174.051V179.325C444.796 180.297 443.973 181.079 442.949 181.079Z" fill="white"/>
<path d="M442.949 181.079C441.925 181.079 441.092 180.288 441.092 179.325V174.051C441.092 173.078 441.925 172.287 442.949 172.287C443.973 172.287 444.796 173.078 444.796 174.051V179.325C444.796 180.297 443.973 181.079 442.949 181.079Z" stroke="#D11329" stroke-miterlimit="10"/>
<path d="M447.577 210.107H399.666C397.367 210.107 395.5 208.333 395.5 206.15V194.935C395.5 192.751 397.367 190.978 399.666 190.978H447.577C449.875 190.978 451.742 192.751 451.742 194.935V206.15C451.742 208.333 449.875 210.107 447.577 210.107Z" fill="#FCFCFC"/>
<path d="M447.576 210.765H399.665C396.985 210.765 394.807 208.696 394.807 206.15V194.935C394.807 192.389 396.985 190.32 399.665 190.32H447.576C450.256 190.32 452.434 192.389 452.434 194.935V206.15C452.434 208.696 450.256 210.765 447.576 210.765ZM399.665 191.636C397.748 191.636 396.192 193.114 396.192 194.935V206.15C396.192 207.971 397.748 209.449 399.665 209.449H447.576C449.493 209.449 451.049 207.971 451.049 206.15V194.935C451.049 193.114 449.493 191.636 447.576 191.636H399.665Z" fill="#D11329"/>
<path d="M410.767 200.438C410.767 198.006 408.689 196.041 406.139 196.041C403.58 196.041 401.512 198.006 401.512 200.438C401.512 202.869 403.58 204.834 406.139 204.834C408.699 204.834 410.767 202.86 410.767 200.438Z" fill="#D11329"/>
<path d="M433.453 204.834C432.429 204.834 431.596 204.042 431.596 203.07V197.796C431.596 196.823 432.429 196.032 433.453 196.032C434.477 196.032 435.31 196.823 435.31 197.796V203.07C435.31 204.042 434.477 204.834 433.453 204.834Z" fill="white"/>
<path d="M433.453 204.834C432.429 204.834 431.596 204.042 431.596 203.07V197.796C431.596 196.823 432.429 196.032 433.453 196.032C434.477 196.032 435.31 196.823 435.31 197.796V203.07C435.31 204.042 434.477 204.834 433.453 204.834Z" stroke="#D11329" stroke-miterlimit="10"/>
<path d="M442.949 204.834C441.925 204.834 441.092 204.042 441.092 203.07V197.796C441.092 196.823 441.925 196.032 442.949 196.032C443.973 196.032 444.796 196.823 444.796 197.796V203.07C444.796 204.042 443.973 204.834 442.949 204.834Z" fill="white"/>
<path d="M442.949 204.834C441.925 204.834 441.092 204.042 441.092 203.07V197.796C441.092 196.823 441.925 196.032 442.949 196.032C443.973 196.032 444.796 196.823 444.796 197.796V203.07C444.796 204.042 443.973 204.834 442.949 204.834Z" stroke="#D11329" stroke-miterlimit="10"/>
<path d="M473.263 218.137C473.263 227.758 467.191 236.436 457.855 240.155C457.845 240.155 457.845 240.165 457.845 240.165L455.727 241.033L453.92 240.298C444.746 236.494 438.803 227.901 438.783 218.394V205.52L455.767 196.69L473.273 205.53V218.137H473.263Z" fill="#D11329"/>
<path d="M423.615 191.636C423.233 191.636 422.922 191.34 422.922 190.978V186.362C422.922 186 423.233 185.704 423.615 185.704C423.996 185.704 424.307 186 424.307 186.362V190.978C424.307 191.34 423.996 191.636 423.615 191.636Z" fill="#D11329"/>
<path d="M401.973 227.482C401.973 228.998 400.678 230.228 399.082 230.228C397.486 230.228 396.191 228.998 396.191 227.482C396.191 225.966 397.486 224.736 399.082 224.736C400.678 224.736 401.973 225.966 401.973 227.482Z" fill="white"/>
<path d="M399.084 230.886C397.106 230.886 395.5 229.361 395.5 227.482C395.5 225.603 397.106 224.078 399.084 224.078C401.061 224.078 402.667 225.603 402.667 227.482C402.667 229.361 401.061 230.886 399.084 230.886ZM399.084 225.393C397.869 225.393 396.885 226.328 396.885 227.482C396.885 228.636 397.869 229.57 399.084 229.57C400.298 229.57 401.282 228.636 401.282 227.482C401.282 226.328 400.298 225.393 399.084 225.393Z" fill="#D11329"/>
<path d="M403.199 232.155C403.018 232.155 402.838 232.088 402.697 231.954C402.426 231.687 402.436 231.277 402.717 231.02C403.731 230.085 404.293 228.827 404.293 227.472C404.293 226.118 403.731 224.86 402.717 223.925C402.446 223.677 402.436 223.257 402.697 222.99C402.968 222.733 403.4 222.723 403.681 222.981C404.976 224.163 405.678 225.765 405.678 227.472C405.678 229.179 404.966 230.772 403.681 231.964C403.54 232.097 403.37 232.155 403.199 232.155Z" fill="#D11329"/>
<path d="M429.517 227.587C429.517 230.686 426.878 233.194 423.615 233.194C420.353 233.194 417.713 230.686 417.713 227.587C417.713 224.488 420.353 221.98 423.615 221.98C426.878 221.98 429.517 224.497 429.517 227.587Z" fill="white"/>
<path d="M423.616 233.862C419.983 233.862 417.021 231.048 417.021 227.596C417.021 224.144 419.983 221.331 423.616 221.331C427.25 221.331 430.211 224.144 430.211 227.596C430.211 231.048 427.26 233.862 423.616 233.862ZM423.616 222.647C420.746 222.647 418.407 224.869 418.407 227.596C418.407 230.324 420.746 232.546 423.616 232.546C426.487 232.546 428.826 230.324 428.826 227.596C428.826 224.86 426.487 222.647 423.616 222.647Z" fill="#D11329"/>
<path d="M417.322 234.234C417.141 234.234 416.971 234.167 416.83 234.043C415.013 232.317 414.02 230.028 414.02 227.587C414.02 222.552 418.326 218.461 423.626 218.461C428.926 218.461 433.232 222.552 433.232 227.587C433.232 229.961 432.278 232.212 430.542 233.919C430.271 234.186 429.839 234.186 429.558 233.938C429.277 233.69 429.277 233.27 429.538 233.003C431.024 231.544 431.837 229.618 431.837 227.587C431.837 223.286 428.153 219.777 423.616 219.777C419.089 219.777 415.405 223.277 415.405 227.587C415.405 229.675 416.258 231.63 417.814 233.108C418.085 233.366 418.085 233.785 417.814 234.043C417.673 234.176 417.493 234.234 417.322 234.234Z" fill="#D11329"/>
<path d="M423.615 219.786C423.233 219.786 422.922 219.491 422.922 219.128V210.117C422.922 209.754 423.233 209.459 423.615 209.459C423.996 209.459 424.307 209.754 424.307 210.117V219.128C424.307 219.491 423.996 219.786 423.615 219.786Z" fill="#D11329"/>
<path d="M414.703 228.14H404.976C404.594 228.14 404.283 227.844 404.283 227.482C404.283 227.12 404.594 226.824 404.976 226.824H414.703C415.084 226.824 415.395 227.12 415.395 227.482C415.405 227.844 415.094 228.14 414.703 228.14Z" fill="#D11329"/>
<path d="M440.629 228.14H432.529C432.147 228.14 431.836 227.844 431.836 227.482C431.836 227.12 432.147 226.824 432.529 226.824H440.629C441.011 226.824 441.322 227.12 441.322 227.482C441.322 227.844 441.011 228.14 440.629 228.14Z" fill="#D11329"/>
<path d="M456.018 233.156C455.807 233.156 455.596 233.061 455.466 232.899L453.157 230.038C453.067 229.923 453.016 229.78 453.016 229.637V219.643C449.884 218.48 447.807 215.619 447.807 212.377C447.807 208.076 451.491 204.567 456.028 204.567C460.555 204.567 464.249 208.067 464.249 212.377C464.249 215.619 462.181 218.48 459.039 219.643V229.637C459.039 229.78 458.989 229.923 458.899 230.038L456.58 232.899C456.439 233.061 456.238 233.156 456.018 233.156ZM454.402 229.418L456.018 231.42L457.634 229.418V219.186C457.634 218.9 457.825 218.642 458.116 218.556C460.946 217.688 462.843 215.209 462.843 212.386C462.843 208.81 459.782 205.902 456.018 205.902C452.253 205.902 449.192 208.81 449.192 212.386C449.192 215.209 451.089 217.698 453.92 218.556C454.201 218.642 454.402 218.9 454.402 219.186V229.418Z" fill="white"/>
<path d="M229.372 129.031C229.342 128.059 229.241 127.105 229.101 126.161L223.841 125.331L222.054 120.601L225.557 116.787C224.493 115.108 223.228 113.564 221.803 112.171L217.035 114.45L212.659 111.628L213.13 106.574C211.313 105.849 209.396 105.305 207.409 104.972L204.929 109.473L199.639 109.587L196.919 105.21C194.881 105.649 192.944 106.307 191.117 107.155L191.9 112.171L187.694 115.223L182.796 113.211C181.451 114.67 180.276 116.281 179.313 118.027L183.037 121.65L181.531 126.466L176.321 127.582C176.231 128.583 176.191 129.594 176.221 130.633C176.261 131.577 176.351 132.502 176.482 133.418L181.742 134.257L183.508 138.996L179.975 142.801C181.039 144.48 182.304 146.044 183.729 147.445L188.507 145.185L192.874 148.027L192.382 153.081C194.259 153.835 196.226 154.397 198.284 154.731L200.754 150.22L206.044 150.087L208.764 154.454C210.791 154.006 212.739 153.339 214.556 152.48L213.763 147.464L217.948 144.394L222.857 146.387C224.202 144.918 225.377 143.297 226.33 141.562L222.576 137.957L224.062 133.132L229.271 132.006C229.382 131.024 229.412 130.032 229.372 129.031ZM210.008 137.623C205.481 141.4 198.585 140.999 194.59 136.679C190.615 132.359 191.057 125.818 195.604 122.041C200.121 118.246 207.027 118.665 211.002 122.976C215.007 127.286 214.546 133.847 210.008 137.623Z" fill="#D11329"/>
<path d="M214.666 119.934C208.915 113.716 198.927 113.096 192.372 118.561C185.827 124.034 185.175 133.504 190.947 139.731C196.698 145.948 206.676 146.568 213.221 141.094C219.776 135.64 220.418 126.151 214.666 119.934ZM212.207 139.998C206.305 144.928 197.301 144.375 192.111 138.768C186.911 133.151 187.494 124.606 193.396 119.667C199.308 114.737 208.312 115.299 213.502 120.906C218.691 126.514 218.109 135.068 212.207 139.998Z" fill="white"/>
<path d="M375.665 169.779C375.635 168.806 375.544 167.853 375.394 166.909L370.134 166.079L368.347 161.349L371.85 157.535C370.786 155.856 369.521 154.302 368.096 152.919L363.328 155.198L358.951 152.376L359.423 147.321C357.606 146.597 355.689 146.044 353.702 145.719L351.222 150.22L345.932 150.335L343.212 145.958C341.184 146.396 339.237 147.054 337.41 147.903L338.193 152.919L333.987 155.971L329.089 153.959C327.744 155.418 326.569 157.029 325.605 158.774L329.33 162.398L327.824 167.214L322.614 168.329C322.524 169.331 322.484 170.342 322.514 171.381C322.554 172.325 322.634 173.25 322.775 174.166L328.035 175.005L329.801 179.735L326.268 183.54C327.332 185.218 328.597 186.782 330.022 188.184L334.8 185.924L339.167 188.765L338.675 193.819C340.542 194.573 342.519 195.135 344.577 195.469L347.046 190.959L352.336 190.816L355.067 195.183C357.094 194.735 359.042 194.067 360.859 193.209L360.066 188.193L364.252 185.123L369.16 187.116C370.505 185.647 371.68 184.026 372.633 182.29L368.889 178.686L370.375 173.851L375.584 172.726C375.665 171.772 375.695 170.78 375.665 169.779ZM356.291 178.371C351.764 182.147 344.868 181.747 340.873 177.427C336.898 173.107 337.34 166.565 341.887 162.789C346.404 158.994 353.31 159.413 357.285 163.724C361.29 168.034 360.829 174.595 356.291 178.371Z" fill="#D11329"/>
<path d="M360.95 160.682C355.198 154.464 345.21 153.835 338.655 159.308C332.111 164.782 331.458 174.251 337.23 180.478C342.982 186.696 352.959 187.316 359.504 181.852C366.059 176.378 366.701 166.899 360.95 160.682ZM358.49 180.746C352.588 185.676 343.584 185.123 338.394 179.515C333.195 173.899 333.777 165.345 339.679 160.415C345.591 155.484 354.596 156.047 359.785 161.654C364.975 167.261 364.403 175.815 358.49 180.746Z" fill="white"/>
<path d="M337.932 270.051C337.902 269.078 337.802 268.125 337.661 267.181L332.401 266.351L330.614 261.621L334.118 257.797C333.054 256.119 331.789 254.564 330.364 253.182L325.596 255.451L321.219 252.629L321.691 247.574C319.874 246.85 317.957 246.306 315.969 245.972L313.49 250.473L308.2 250.588L305.48 246.211C303.442 246.649 301.505 247.307 299.678 248.156L300.461 253.172L296.255 256.224L291.356 254.212C290.011 255.671 288.837 257.282 287.873 259.027L291.597 262.651L290.091 267.467L284.882 268.582C284.791 269.584 284.751 270.595 284.781 271.634C284.822 272.578 284.912 273.503 285.042 274.419L290.312 275.258L292.079 279.988L288.546 283.793C289.61 285.471 290.874 287.035 292.3 288.437L297.078 286.177L301.444 289.018L300.952 294.073C302.83 294.826 304.797 295.388 306.855 295.722L309.324 291.212L314.614 291.069L317.344 295.436C319.372 294.988 321.319 294.32 323.136 293.462L322.343 288.446L326.539 285.376L331.448 287.369C332.793 285.9 333.967 284.279 334.921 282.543L331.167 278.939L332.652 274.104L337.862 272.979C337.932 272.044 337.972 271.052 337.932 270.051ZM318.569 278.643C314.042 282.419 307.146 282.019 303.151 277.699C299.186 273.379 299.617 266.837 304.165 263.061C308.682 259.266 315.588 259.685 319.563 263.996C323.558 268.306 323.106 274.867 318.569 278.643Z" fill="#D11329"/>
<path d="M323.227 260.954C317.475 254.736 307.487 254.116 300.933 259.58C294.388 265.054 293.735 274.524 299.507 280.751C305.259 286.968 315.237 287.588 321.781 282.124C328.336 276.66 328.978 267.171 323.227 260.954ZM320.757 281.018C314.855 285.948 305.851 285.395 300.662 279.787C295.462 274.171 296.044 265.617 301.946 260.687C307.859 255.757 316.863 256.319 322.052 261.926C327.252 267.534 326.67 276.087 320.757 281.018Z" fill="white"/>
<path d="M208.09 163.743H207.809V162.427H208.09C208.602 162.427 209.114 162.417 209.626 162.389L209.696 163.704C209.164 163.733 208.632 163.743 208.09 163.743ZM204.105 163.743H202.248V162.427H204.105V163.743ZM198.554 163.743H196.707V162.427H198.554V163.743ZM193.003 163.743H191.156V162.427H193.003V163.743ZM187.442 163.743H185.595V162.427H187.442V163.743ZM181.891 163.743H180.044V162.427H181.891V163.743ZM176.33 163.743H174.473V162.427H176.33V163.743ZM170.779 163.743H168.922V162.427H170.779V163.743ZM165.218 163.743H163.361V162.427H165.218V163.743ZM159.667 163.743H157.81V162.427H159.667V163.743ZM154.117 163.743H152.27V162.427H154.117V163.743ZM213.461 163.304L213.22 162.007C213.812 161.912 214.404 161.788 214.986 161.654L215.308 162.932C214.705 163.075 214.083 163.199 213.461 163.304ZM218.931 161.883L218.439 160.643C219.002 160.443 219.564 160.224 220.106 159.995L220.678 161.196C220.106 161.444 219.524 161.673 218.931 161.883ZM224.031 159.528L223.308 158.402C223.82 158.107 224.332 157.792 224.824 157.468L225.617 158.555C225.105 158.889 224.573 159.213 224.031 159.528ZM228.588 156.324L227.664 155.341C228.116 154.96 228.558 154.569 228.979 154.159L229.963 155.084C229.521 155.503 229.06 155.923 228.588 156.324ZM232.462 152.376L231.368 151.565C231.74 151.117 232.091 150.65 232.432 150.173L233.577 150.917C233.215 151.412 232.844 151.908 232.462 152.376ZM235.504 147.827L234.269 147.226C234.54 146.721 234.801 146.196 235.042 145.672L236.317 146.196C236.066 146.749 235.795 147.293 235.504 147.827ZM237.612 142.82L236.277 142.449C236.447 141.905 236.598 141.342 236.739 140.789L238.094 141.085C237.953 141.667 237.793 142.248 237.612 142.82ZM238.716 137.528L237.331 137.394C237.391 136.832 237.431 136.25 237.461 135.678L238.847 135.735C238.826 136.336 238.776 136.937 238.716 137.528ZM238.877 132.197H237.491V130.443H238.877V132.197ZM238.877 126.914H237.491V125.15H238.877V126.914ZM238.877 121.641H237.491V119.877H238.877V121.641ZM238.877 116.358H237.491V114.594H238.877V116.358ZM238.877 111.084H237.491V109.33H238.877V111.084Z" fill="#D11329"/>
<path d="M346.916 304.667H345.069V303.351H346.916V304.667ZM341.365 304.667H339.508V303.351H341.365V304.667ZM335.804 304.667H333.947V303.351H335.804V304.667ZM330.253 304.667H328.396V303.351H330.253V304.667ZM324.692 304.667H322.835V303.351H324.692V304.667ZM319.141 304.667H317.294V303.351H319.141V304.667ZM313.59 304.667H311.733V303.351H313.59V304.667ZM308.029 304.667H306.182V303.351H308.029V304.667ZM302.397 304.457C301.775 304.381 301.143 304.295 300.53 304.181L300.781 302.884C301.373 302.989 301.976 303.075 302.568 303.141L302.397 304.457ZM296.856 303.313C296.254 303.132 295.652 302.932 295.07 302.722L295.572 301.492C296.134 301.692 296.706 301.892 297.278 302.064L296.856 303.313ZM291.627 301.215C291.075 300.929 290.523 300.633 289.99 300.319L290.723 299.193C291.235 299.499 291.757 299.785 292.289 300.052L291.627 301.215ZM286.899 298.249C286.407 297.877 285.925 297.486 285.463 297.086L286.397 296.113C286.839 296.495 287.3 296.876 287.772 297.229L286.899 298.249ZM282.823 294.502C282.412 294.044 282.01 293.577 281.629 293.1L282.733 292.299C283.094 292.757 283.476 293.205 283.867 293.634L282.823 294.502ZM279.521 290.115C279.2 289.6 278.899 289.066 278.618 288.532L279.862 287.941C280.133 288.446 280.424 288.961 280.726 289.457L279.521 290.115ZM277.132 285.223C276.921 284.66 276.73 284.079 276.55 283.506L277.885 283.144C278.045 283.688 278.236 284.241 278.437 284.775L277.132 285.223ZM275.737 279.997C275.636 279.406 275.556 278.805 275.506 278.214L276.891 278.09C276.951 278.662 277.021 279.234 277.122 279.797L275.737 279.997ZM276.75 274.638H275.365V272.874H276.75V274.638ZM276.75 269.355H275.365V267.6H276.75V269.355ZM276.75 264.081H275.365V262.317H276.75V264.081ZM276.75 258.798H275.365V257.034H276.75V258.798ZM276.75 253.525H275.365V251.761H276.75V253.525ZM276.75 248.252H275.365V246.487H276.75V248.252ZM276.75 242.969H275.365V241.214H276.75V242.969ZM276.75 237.695H275.365V235.931H276.75V237.695ZM276.75 232.412H275.365V230.657H276.75V232.412ZM276.75 227.139H275.365V225.374H276.75V227.139ZM276.75 221.865H275.365V220.111H276.75V221.865ZM276.75 216.582H275.365V214.827H276.75V216.582ZM276.75 211.309H275.365V209.545H276.75V211.309ZM276.75 206.026H275.365V204.261H276.75V206.026ZM276.75 200.752H275.365V198.988H276.75V200.752ZM276.75 195.469H275.365V193.715H276.75V195.469ZM276.75 190.196H275.365V188.432H276.75V190.196ZM276.75 184.922H275.365V183.158H276.75V184.922ZM276.75 179.639H275.365V177.875H276.75V179.639ZM276.75 174.366H275.365V172.602H276.75V174.366ZM276.75 169.083H275.365V167.319H276.75V169.083ZM276.75 163.809H275.365V162.055H276.75V163.809ZM276.75 158.536H275.365V156.781H276.75V158.536ZM276.75 153.253H275.365V151.489H276.75V153.253ZM276.75 147.979H275.365V146.225H276.75V147.979ZM276.75 142.696H275.365V140.932H276.75V142.696ZM276.75 137.423H275.365V135.668H276.75V137.423ZM276.75 132.15H275.365V130.385H276.75V132.15ZM276.75 126.867H275.365V125.102H276.75V126.867ZM276.75 121.593H275.365V119.829H276.75V121.593ZM276.75 116.31H275.365V114.555H276.75V116.31ZM276.75 111.037H275.365V109.272H276.75V111.037Z" fill="#D11329"/>
<path d="M384.65 204.395H382.793V203.079H384.65V204.395ZM379.099 204.395H377.252V203.079H379.099V204.395ZM373.538 204.395H371.681V203.079H373.538V204.395ZM367.987 204.395H366.13V203.079H367.987V204.395ZM362.436 204.395H360.579V203.079H362.436V204.395ZM356.875 204.395H355.028V203.079H356.875V204.395ZM351.324 204.395H349.477V203.079H351.324V204.395ZM345.763 204.395H343.906V203.079H345.763V204.395ZM340.142 204.176C339.519 204.099 338.887 204.014 338.265 203.909L338.516 202.612C339.108 202.717 339.71 202.802 340.302 202.869L340.142 204.176ZM334.591 203.041C333.988 202.86 333.396 202.659 332.804 202.45L333.306 201.219C333.868 201.42 334.44 201.62 335.012 201.792L334.591 203.041ZM329.371 200.943C328.819 200.657 328.267 200.361 327.735 200.047L328.468 198.921C328.98 199.217 329.502 199.513 330.034 199.78L329.371 200.943ZM324.633 197.977C324.141 197.605 323.66 197.214 323.198 196.814L324.131 195.841C324.573 196.223 325.035 196.604 325.506 196.957L324.633 197.977ZM320.558 194.23C320.146 193.772 319.745 193.305 319.363 192.828L320.467 192.027C320.829 192.484 321.21 192.933 321.602 193.362L320.558 194.23ZM317.255 189.843C316.934 189.328 316.633 188.794 316.352 188.26L317.597 187.669C317.868 188.184 318.159 188.689 318.46 189.185L317.255 189.843ZM314.866 184.951C314.655 184.388 314.465 183.816 314.284 183.234L315.619 182.872C315.79 183.416 315.97 183.969 316.171 184.503L314.866 184.951ZM313.471 179.725C313.371 179.134 313.29 178.533 313.23 177.942L314.615 177.818C314.676 178.39 314.746 178.962 314.836 179.525L313.471 179.725ZM314.485 174.366H313.1V172.602H314.485V174.366ZM314.485 169.083H313.1V167.319H314.485V169.083ZM314.485 163.809H313.1V162.055H314.485V163.809ZM314.485 158.536H313.1V156.781H314.485V158.536ZM314.485 153.253H313.1V151.489H314.485V153.253ZM314.485 147.979H313.1V146.225H314.485V147.979ZM314.485 142.696H313.1V140.932H314.485V142.696ZM314.485 137.423H313.1V135.668H314.485V137.423ZM314.485 132.15H313.1V130.385H314.485V132.15ZM314.485 126.867H313.1V125.102H314.485V126.867ZM314.485 121.593H313.1V119.829H314.485V121.593ZM314.485 116.31H313.1V114.555H314.485V116.31ZM314.485 111.037H313.1V109.272H314.485V111.037Z" fill="#D11329"/>
<path d="M184.252 342.926H42.225L0.166149 268.573C-0.124951 268.068 -0.0245714 267.438 0.397021 267.028L1.55138 265.903H140.687L184.252 342.926Z" fill="#D11329"/>
<path d="M48.1478 338.444L9.65234 270.385H137.857L176.362 338.444H48.1478Z" fill="white"/>
<path d="M197.11 348.266H55.0832L42.2246 344.967V342.926H209.968V344.967L197.11 348.266Z" fill="#D11329"/>
<path d="M224.553 348.266H82.5265L69.668 344.967V342.926H237.412V344.967L224.553 348.266Z" fill="#D11329"/>
<path d="M146.689 266.532L179.583 324.588C180.265 325.79 179.773 326.772 178.489 326.772L58.9973 326.943C57.7124 326.943 56.1164 325.971 55.4338 324.76L18.8858 260.267C18.2032 259.066 18.695 258.083 19.9799 258.083L37.4157 258.055C38.7006 258.055 40.2966 259.027 40.9792 260.238L42.1536 262.308C42.8362 263.509 44.4323 264.492 45.7171 264.492L143.115 264.358C144.41 264.358 146.006 265.331 146.689 266.532Z" fill="white"/>
<path d="M146.689 266.532L179.583 324.588C180.265 325.79 179.773 326.772 178.489 326.772L58.9973 326.943C57.7124 326.943 56.1164 325.971 55.4338 324.76L18.8858 260.267C18.2032 259.066 18.695 258.083 19.9799 258.083L37.4157 258.055C38.7006 258.055 40.2966 259.027 40.9792 260.238L42.1536 262.308C42.8362 263.509 44.4323 264.492 45.7171 264.492L143.115 264.358C144.41 264.358 146.006 265.331 146.689 266.532Z" stroke="#D11329" stroke-miterlimit="10"/>
<path d="M204.889 286.854H203.032V285.538H204.889V286.854ZM199.338 286.854H197.481V285.538H199.338V286.854ZM193.777 286.854H191.93V285.538H193.777V286.854ZM188.226 286.854H186.369V285.538H188.226V286.854ZM182.675 286.854H180.828V285.538H182.675V286.854ZM177.114 286.854H175.267V285.538H177.114V286.854ZM171.563 286.854H169.706V285.538H171.563V286.854ZM208.603 286.854L208.583 285.538C209.185 285.528 209.788 285.5 210.39 285.461L210.5 286.777C209.868 286.816 209.236 286.844 208.603 286.854ZM214.244 286.272L213.973 284.975C214.556 284.861 215.148 284.727 215.73 284.584L216.091 285.862C215.479 286.015 214.857 286.158 214.244 286.272ZM219.675 284.718L219.153 283.497C219.705 283.278 220.257 283.049 220.799 282.801L221.401 283.993C220.839 284.25 220.257 284.489 219.675 284.718ZM224.714 282.238L223.961 281.132C224.463 280.827 224.965 280.493 225.447 280.159L226.27 281.227C225.768 281.571 225.236 281.914 224.714 282.238ZM229.181 278.92L228.227 277.957C228.669 277.566 229.101 277.156 229.502 276.745L230.516 277.651C230.094 278.081 229.643 278.51 229.181 278.92ZM232.945 274.886L231.831 274.104C232.182 273.646 232.533 273.169 232.855 272.683L234.019 273.398C233.678 273.904 233.316 274.4 232.945 274.886ZM235.856 270.261L234.601 269.689C234.862 269.174 235.113 268.64 235.334 268.115L236.619 268.611C236.388 269.164 236.137 269.717 235.856 270.261ZM237.834 265.197L236.488 264.854C236.639 264.301 236.78 263.738 236.9 263.185L238.265 263.443C238.145 264.034 237.994 264.625 237.834 265.197ZM238.787 259.886L237.402 259.781C237.452 259.209 237.472 258.636 237.482 258.064L238.867 258.083C238.867 258.684 238.837 259.294 238.787 259.886ZM238.877 254.565H237.492V252.81H238.877V254.565ZM238.877 249.282H237.492V247.517H238.877V249.282ZM238.877 244.008H237.492V242.244H238.877V244.008ZM238.877 238.725H237.492V236.961H238.877V238.725ZM238.877 233.452H237.492V231.687H238.877V233.452ZM238.877 228.178H237.492V226.423H238.877V228.178ZM238.877 222.895H237.492V221.14H238.877V222.895ZM238.877 217.622H237.492V215.857H238.877V217.622ZM238.877 212.339H237.492V210.575H238.877V212.339ZM238.877 207.065H237.492V205.301H238.877V207.065ZM238.877 201.792H237.492V200.028H238.877V201.792ZM237.462 196.537C237.442 195.965 237.392 195.393 237.332 194.821L238.717 194.687C238.777 195.279 238.827 195.879 238.857 196.48L237.462 196.537ZM236.739 191.436C236.599 190.882 236.448 190.32 236.278 189.776L237.613 189.404C237.793 189.977 237.954 190.558 238.094 191.14L236.739 191.436ZM235.043 186.553C234.802 186.029 234.541 185.514 234.27 185.008L235.505 184.407C235.796 184.941 236.067 185.485 236.318 186.029L235.043 186.553ZM232.423 182.052C232.082 181.585 231.73 181.117 231.359 180.66L232.463 179.849C232.845 180.326 233.226 180.812 233.577 181.308L232.423 182.052ZM228.97 178.085C228.548 177.675 228.107 177.284 227.655 176.903L228.579 175.92C229.05 176.321 229.512 176.731 229.954 177.16L228.97 178.085ZM224.824 174.776C224.333 174.452 223.821 174.137 223.309 173.841L224.031 172.716C224.563 173.021 225.105 173.355 225.617 173.698L224.824 174.776ZM220.107 172.239C219.554 172.011 218.992 171.782 218.43 171.581L218.922 170.342C219.514 170.551 220.097 170.78 220.679 171.028L220.107 172.239ZM214.967 170.58C214.385 170.447 213.783 170.332 213.2 170.227L213.441 168.93C214.064 169.035 214.686 169.159 215.298 169.293L214.967 170.58ZM209.607 169.846C209.105 169.817 208.603 169.808 208.091 169.808H207.79V168.492H208.091C208.613 168.492 209.155 168.501 209.677 168.53L209.607 169.846ZM204.086 169.817H202.229V168.501H204.086V169.817ZM198.535 169.817H196.678V168.501H198.535V169.817ZM192.974 169.817H191.127V168.501H192.974V169.817ZM187.423 169.817H185.576V168.501H187.423V169.817ZM181.872 169.817H180.025V168.501H181.872V169.817ZM176.311 169.817H174.454V168.501H176.311V169.817ZM170.76 169.817H168.903V168.501H170.76V169.817ZM165.199 169.817H163.342V168.501H165.199V169.817ZM159.648 169.817H157.791V168.501H159.648V169.817ZM154.097 169.817H152.24V168.501H154.097V169.817Z" fill="#D11329"/>
<path d="M223.992 298.736H222.135V297.42H223.992V298.736ZM218.441 298.736H216.584V297.42H218.441V298.736ZM212.88 298.736H211.023V297.42H212.88V298.736ZM207.329 298.736H205.472V297.42H207.329V298.736ZM201.778 298.736H199.921V297.42H201.778V298.736ZM196.217 298.736H194.36V297.42H196.217V298.736ZM190.666 298.736H188.809V297.42H190.666V298.736ZM185.105 298.736H183.248V297.42H185.105V298.736ZM179.554 298.736H177.707V297.42H179.554V298.736ZM227.716 298.726L227.686 297.41C228.288 297.401 228.9 297.372 229.493 297.324L229.613 298.64C228.981 298.679 228.338 298.707 227.716 298.726ZM233.347 298.106L233.066 296.819C233.658 296.705 234.241 296.571 234.823 296.418L235.194 297.687C234.582 297.849 233.96 297.992 233.347 298.106ZM238.768 296.523L238.236 295.303C238.788 295.083 239.34 294.845 239.882 294.597L240.494 295.78C239.932 296.047 239.35 296.295 238.768 296.523ZM243.787 294.015L243.034 292.909C243.536 292.595 244.038 292.27 244.519 291.927L245.343 292.985C244.841 293.338 244.319 293.682 243.787 294.015ZM248.233 290.668L247.28 289.715C247.711 289.324 248.143 288.914 248.555 288.494L249.569 289.39C249.137 289.829 248.695 290.258 248.233 290.668ZM251.968 286.606L250.843 285.833C251.195 285.366 251.536 284.889 251.857 284.413L253.032 285.118C252.7 285.624 252.339 286.129 251.968 286.606ZM254.858 281.971L253.604 281.409C253.865 280.894 254.106 280.36 254.326 279.835L255.621 280.322C255.38 280.875 255.13 281.428 254.858 281.971ZM256.796 276.898L255.451 276.564C255.601 276.011 255.742 275.449 255.852 274.886L257.217 275.143C257.097 275.725 256.956 276.316 256.796 276.898ZM257.719 271.577L256.334 271.482C256.374 270.909 256.404 270.337 256.404 269.765L257.79 269.775C257.79 270.385 257.759 270.986 257.719 271.577ZM257.8 266.256H256.414V264.492H257.8V266.256ZM257.8 260.982H256.414V259.228H257.8V260.982ZM257.8 255.699H256.414V253.935H257.8V255.699ZM257.8 250.426H256.414V248.662H257.8V250.426ZM257.8 245.152H256.414V243.398H257.8V245.152ZM257.8 239.869H256.414V238.382C256.414 238.286 256.414 238.191 256.414 238.096L257.8 238.105C257.8 238.191 257.8 238.286 257.8 238.372V239.869ZM258.051 234.691L256.675 234.52C256.756 233.928 256.866 233.328 256.976 232.746L258.342 232.994C258.231 233.556 258.131 234.129 258.051 234.691ZM259.255 229.675L257.94 229.265C258.141 228.693 258.352 228.13 258.583 227.577L259.877 228.064C259.647 228.588 259.446 229.132 259.255 229.675ZM261.413 224.955L260.199 224.316C260.5 223.791 260.821 223.267 261.162 222.771L262.337 223.477C262.005 223.963 261.704 224.459 261.413 224.955ZM264.445 220.692L263.371 219.853C263.772 219.395 264.184 218.938 264.615 218.499L265.629 219.395C265.228 219.815 264.826 220.254 264.445 220.692ZM268.249 217.03L267.356 216.02C267.838 215.638 268.339 215.257 268.841 214.904L269.674 215.962C269.183 216.306 268.711 216.658 268.249 217.03ZM272.696 214.084L272.013 212.939C272.565 212.644 273.128 212.358 273.69 212.1L274.302 213.283C273.76 213.531 273.218 213.807 272.696 214.084ZM277.635 211.967L277.183 210.717C277.775 210.527 278.387 210.346 278.99 210.183L279.361 211.452C278.789 211.614 278.207 211.786 277.635 211.967ZM282.904 210.756L282.704 209.449C283.326 209.363 283.958 209.297 284.581 209.239L284.701 210.555C284.099 210.603 283.497 210.67 282.904 210.756ZM384.629 210.46H382.772V209.144H384.629V210.46ZM379.078 210.46H377.221V209.144H379.078V210.46ZM373.517 210.46H371.67V209.144H373.517V210.46ZM367.966 210.46H366.109V209.144H367.966V210.46ZM362.405 210.46H360.548V209.144H362.405V210.46ZM356.854 210.46H354.997V209.144H356.854V210.46ZM351.293 210.46H349.436V209.144H351.293V210.46ZM345.742 210.46H343.885V209.144H345.742V210.46ZM340.191 210.46H338.344V209.144H340.191V210.46ZM334.63 210.46H332.773V209.144H334.63V210.46ZM329.079 210.46H327.222V209.144H329.079V210.46ZM323.518 210.46H321.671V209.144H323.518V210.46ZM317.967 210.46H316.11V209.144H317.967V210.46ZM312.416 210.46H310.569V209.144H312.416V210.46ZM306.855 210.46H304.998V209.144H306.855V210.46ZM301.304 210.46H299.447V209.144H301.304V210.46ZM295.743 210.46H293.886V209.144H295.743V210.46ZM290.192 210.46H288.335V209.144H290.192V210.46Z" fill="#D11329"/>
<path d="M347.157 310.732H345.3V309.416H347.157V310.732ZM341.596 310.732H339.739V309.416H341.596V310.732ZM336.045 310.732H334.188V309.416H336.045V310.732ZM330.484 310.732H328.627V309.416H330.484V310.732ZM324.933 310.732H323.086V309.416H324.933V310.732ZM319.382 310.732H317.525V309.416H319.382V310.732ZM313.821 310.732H311.964V309.416H313.821V310.732ZM308.27 310.732H306.413V309.416H308.27V310.732ZM302.709 310.732H300.852V309.416H302.709V310.732ZM297.158 310.732H295.301V309.416H297.158V310.732ZM291.607 310.732H289.76V309.416H291.607V310.732ZM286.046 310.732H284.189V309.416H286.046V310.732ZM280.495 310.732H278.638V309.416H280.495V310.732ZM274.934 310.732H273.087V309.416H274.934V310.732ZM269.383 310.732H267.526V309.416H269.383V310.732ZM263.822 310.732H261.965V309.416H263.822V310.732ZM258.271 310.732H256.414V309.416H258.271V310.732ZM252.72 310.732H250.863V309.416H252.72V310.732ZM247.159 310.732H245.302V309.416H247.159V310.732ZM241.608 310.732H239.751V309.416H241.608V310.732ZM236.047 310.732H234.19V309.416H236.047V310.732ZM230.496 310.732H228.639V309.416H230.496V310.732ZM224.945 310.732H223.088V309.416H224.945V310.732ZM219.384 310.732H217.527V309.416H219.384V310.732ZM213.833 310.732H211.976V309.416H213.833V310.732ZM208.272 310.732H206.415V309.416H208.272V310.732ZM202.721 310.732H200.874V309.416H202.721V310.732ZM197.17 310.732H195.313V309.416H197.17V310.732ZM191.609 310.732H189.752V309.416H191.609V310.732ZM186.058 310.732H184.201V309.416H186.058V310.732Z" fill="#D11329"/>
<path d="M346.404 55.7368C344.919 55.7368 343.493 55.9466 342.148 56.3375C343.925 41.8617 329.55 29.4457 314.564 32.4496C313.189 26.6517 310.549 21.321 306.935 16.715C286.628 -9.94791 241.739 -3.38708 230.356 26.9854C221.081 24.2009 210.23 26.0795 202.611 31.9156C180.086 48.0316 193.035 84.0781 221.422 83.525H346.404C351.805 83.525 356.522 80.7404 359.052 76.6018C364.774 67.7141 357.426 55.4698 346.404 55.7368Z" fill="#D11329"/>
<path d="M130.711 279.234H163.966L148.257 251.465H95.9492L111.659 279.234H118.213L123.734 289.009L130.711 279.234Z" fill="#F0F3F5"/>
<path d="M136.552 262.05H119.689C119.307 262.05 118.996 261.755 118.996 261.392C118.996 261.03 119.307 260.734 119.689 260.734H136.552C136.934 260.734 137.245 261.03 137.245 261.392C137.245 261.755 136.934 262.05 136.552 262.05Z" fill="white"/>
<path d="M145.505 268.478H118.062C117.68 268.478 117.369 268.182 117.369 267.82C117.369 267.457 117.68 267.162 118.062 267.162H145.505C145.887 267.162 146.198 267.457 146.198 267.82C146.208 268.182 145.897 268.478 145.505 268.478Z" fill="white"/>
</svg>
