<svg width="550" height="645" viewBox="0 0 550 645" fill="none" xmlns="http://www.w3.org/2000/svg">
<path opacity="0.4" d="M174.136 228.176C174.14 229.565 175.526 230.512 176.884 230.217C179.371 229.675 181.246 229.913 182.509 230.919C184.245 232.266 185.068 234.549 185.068 237.74V255.012C185.068 258.291 185.525 261.013 186.485 263.179C187.445 265.434 189.044 267.014 191.238 267.951C193.386 268.917 196.311 269.151 200.013 268.712C203.623 268.302 208.148 267.073 213.54 265.082L214.806 264.605C215.584 264.311 216.1 263.565 216.1 262.733V253.376C216.1 251.983 214.712 251.017 213.406 251.5L212.855 251.704C208.97 253.138 206.411 253.314 205.131 252.289C203.76 251.265 203.075 249.157 203.075 245.966V230.743C203.075 226.762 202.48 223.63 201.247 221.346C200.547 219.984 199.418 218.916 197.871 218.137C196.392 217.392 195.771 215.29 196.871 214.051C198.939 211.72 200.404 209.412 201.247 207.148C202.435 203.957 203.029 200.386 203.029 196.405V181.182C203.029 177.991 203.714 175.356 205.085 173.336C206.365 171.346 208.97 169.619 212.809 168.184L214.748 167.467C215.533 167.177 216.054 166.428 216.054 165.591V156.107C216.054 154.785 214.732 153.87 213.495 154.337C208.102 156.328 203.577 158.465 199.967 160.719C196.265 163.003 193.34 165.403 191.192 167.979C188.953 170.555 187.353 173.307 186.439 176.264C185.479 179.133 185.022 182.207 185.022 185.485V202.757C185.022 205.948 184.154 208.875 182.463 211.481C180.929 213.782 178.576 215.649 175.403 217.022C174.63 217.356 174.102 218.102 174.104 218.943L174.136 228.176Z" fill="url(#paint0_linear_14_2839)"/>
<path opacity="0.4" d="M272.801 182.219C272.801 180.822 271.404 179.87 270.039 180.17C267.564 180.714 265.696 180.47 264.437 179.45C262.701 178.08 261.878 175.756 261.878 172.509V154.934C261.878 151.597 261.421 148.827 260.461 146.623C259.502 144.329 257.948 142.72 255.8 141.737C253.56 140.784 250.635 140.546 247.025 140.963C243.323 141.41 238.753 142.661 233.36 144.716L232.084 145.206C231.311 145.503 230.801 146.245 230.801 147.073V156.661C230.801 158.059 232.197 159.025 233.505 158.533L234.046 158.33C237.93 156.87 240.535 156.661 241.906 157.704C243.186 158.776 243.826 160.921 243.826 164.198V179.688C243.826 183.739 244.42 186.927 245.654 189.25C246.363 190.654 247.511 191.751 249.088 192.546C250.557 193.287 251.178 195.365 250.093 196.602C247.991 198.999 246.505 201.371 245.654 203.698C244.466 206.945 243.872 210.579 243.872 214.631V230.121C243.872 233.368 243.232 236.019 241.952 238.074C240.581 240.13 237.976 241.917 234.091 243.347L232.142 244.081C231.363 244.374 230.846 245.12 230.846 245.953V255.679C230.846 257 232.172 257.911 233.406 257.437C238.799 255.412 243.369 253.207 247.071 250.913C250.681 248.62 253.606 246.177 255.845 243.526C257.993 240.934 259.547 238.134 260.461 235.155C261.421 232.236 261.878 229.108 261.878 225.772V208.196C261.878 204.949 262.746 201.97 264.437 199.319C265.973 196.974 268.332 195.072 271.513 193.674C272.278 193.338 272.801 192.599 272.801 191.763V182.219Z" fill="url(#paint1_linear_14_2839)"/>
<path opacity="0.15" d="M121.6 139.425C121.6 138.035 120.218 137.069 118.913 137.546L-3.08737 182.167C-3.87593 182.455 -4.40039 183.205 -4.40039 184.045V371.113C-4.40039 372.502 -3.01838 373.468 -1.71341 372.991L120.287 328.371C121.075 328.082 121.6 327.332 121.6 326.492V139.425Z" fill="url(#paint2_linear_14_2839)"/>
<path opacity="0.6" d="M144.7 166.701C144.7 165.322 143.337 164.356 142.036 164.814L45.2362 198.898C44.4358 199.18 43.9004 199.936 43.9004 200.785V213.576C43.9004 214.955 45.2636 215.921 46.5646 215.463L143.365 181.379C144.165 181.097 144.7 180.341 144.7 179.492V166.701Z" fill="#DD3835"/>
<path opacity="0.2" d="M104.8 248.705C104.8 247.307 103.403 246.341 102.095 246.833L15.7951 279.338C15.0159 279.631 14.5 280.377 14.5 281.21V329.063C14.5 330.461 15.8976 331.427 17.2056 330.934L103.506 298.394C104.284 298.1 104.8 297.355 104.8 296.523V248.705Z" fill="url(#paint3_linear_14_2839)"/>
<path opacity="0.15" d="M104.8 206.718C104.8 205.311 103.387 204.344 102.076 204.853L13.6761 239.2C12.907 239.499 12.4004 240.24 12.4004 241.065V242.892C12.4004 244.298 13.8137 245.265 15.1247 244.756L103.525 210.409C104.294 210.11 104.8 209.369 104.8 208.544V206.718Z" fill="#DD3835"/>
<path opacity="0.15" d="M104.8 231.746C104.8 230.391 103.481 229.428 102.191 229.841L36.8908 250.723C36.0623 250.988 35.5 251.758 35.5 252.628V253.58C35.5 254.935 36.8187 255.897 38.1092 255.485L103.409 234.603C104.238 234.338 104.8 233.568 104.8 232.698V231.746Z" fill="#DD3835"/>
<path opacity="0.2" d="M121.6 126.836C121.6 125.442 120.209 124.475 118.903 124.962L3.20275 168.025C2.41974 168.317 1.90039 169.064 1.90039 169.9V190.412C1.90039 191.806 3.29087 192.773 4.59753 192.287L120.298 149.259C121.081 148.967 121.6 148.22 121.6 147.384V126.836Z" fill="url(#paint4_linear_14_2839)"/>
<path opacity="0.2" d="M94.3008 145.457C94.3008 150.296 98.5321 152.55 103.751 150.53C108.969 148.51 113.201 143.014 113.201 138.175C113.201 133.336 108.969 131.081 103.751 133.102C98.5321 135.122 94.3008 140.665 94.3008 145.457Z" fill="#DD3835"/>
<path opacity="0.15" d="M342.047 231.87C342.047 230.48 340.663 229.514 339.358 229.993L-7.28838 357.244C-8.07599 357.533 -8.59944 358.283 -8.59918 359.122L-8.54654 528.683C-8.5461 530.074 -7.16242 531.039 -5.85733 530.56L340.789 403.31C341.577 403.021 342.1 402.271 342.1 401.432L342.047 231.87Z" fill="url(#paint5_linear_14_2839)"/>
<path opacity="0.7" d="M419.8 244.466C419.8 243.079 418.422 242.113 417.118 242.586L307.718 282.305C306.927 282.592 306.4 283.344 306.4 284.185V299.687C306.4 301.074 307.779 302.04 309.083 301.567L418.483 261.848C419.274 261.561 419.8 260.809 419.8 259.968V244.466Z" fill="#EB6967"/>
<path opacity="0.15" d="M360.96 299.092C360.946 297.704 359.558 296.752 358.259 297.238L106.1 391.617C105.318 391.909 104.801 392.656 104.801 393.49V396.302C104.801 397.698 106.194 398.664 107.502 398.175L359.688 303.812C360.476 303.517 360.995 302.761 360.987 301.919L360.96 299.092Z" fill="#DD3835"/>
<path opacity="0.15" d="M360.971 315.912C360.986 314.521 359.61 313.541 358.3 314.008L139.729 391.918C138.932 392.202 138.4 392.957 138.4 393.802V396.35C138.4 397.732 139.77 398.698 141.072 398.234L359.617 320.351C360.407 320.069 360.937 319.325 360.945 318.487L360.971 315.912Z" fill="#DD3835"/>
<path opacity="0.15" d="M361 326.444C361 325.046 359.601 324.079 358.293 324.573L175.393 393.691C174.614 393.985 174.1 394.73 174.1 395.561V398.393C174.1 399.791 175.498 400.758 176.807 400.264L359.707 331.147C360.485 330.853 361 330.108 361 329.276V326.444Z" fill="#DD3835"/>
<path opacity="0.2" d="M186.7 416.785C186.7 415.387 185.301 414.42 183.993 414.914L28.3933 473.65C27.6148 473.944 27.0996 474.69 27.0996 475.522V516.049C27.0996 517.447 28.4978 518.414 29.8059 517.92L185.406 459.183C186.184 458.89 186.7 458.144 186.7 457.312V416.785Z" fill="url(#paint6_linear_14_2839)"/>
<path opacity="0.15" d="M176.2 429.493C176.2 428.067 174.75 427.099 173.433 427.646L154.333 435.567C153.587 435.877 153.1 436.606 153.1 437.414V448.715C153.1 450.141 154.549 451.109 155.866 450.563L174.966 442.641C175.713 442.331 176.2 441.602 176.2 440.794V429.493Z" fill="#DD3835"/>
<path opacity="0.15" d="M144.7 441.912C144.7 440.537 143.345 439.572 142.046 440.021L122.946 446.623C122.14 446.901 121.6 447.66 121.6 448.513V457.307C121.6 458.681 122.954 459.646 124.253 459.197L143.353 452.596C144.159 452.317 144.7 451.558 144.7 450.705V441.912Z" fill="#DD3835"/>
<path opacity="0.15" d="M115.3 454.442C115.3 453.089 113.985 452.127 112.696 452.535L91.4956 459.252C90.6644 459.515 90.0996 460.286 90.0996 461.158V469.988C90.0996 471.341 91.4142 472.303 92.7036 471.895L113.904 465.178C114.735 464.915 115.3 464.144 115.3 463.272V454.442Z" fill="#DD3835"/>
<path opacity="0.15" d="M85.8992 463.101C85.8992 461.677 84.4539 460.709 83.1376 461.251L61.9376 469.983C61.1882 470.291 60.6992 471.022 60.6992 471.832V484.44C60.6992 485.864 62.1445 486.831 63.4609 486.289L84.6608 477.558C85.4102 477.249 85.8992 476.519 85.8992 475.709V463.101Z" fill="#DD3835"/>
<path opacity="0.2" d="M405.1 334.8C405.1 333.415 403.726 332.449 402.423 332.918L215.323 400.278C214.529 400.563 214 401.316 214 402.16V459.369C214 460.754 215.374 461.72 216.677 461.251L403.778 393.891C404.571 393.606 405.1 392.853 405.1 392.01V334.8Z" fill="url(#paint7_linear_14_2839)"/>
<path opacity="0.15" d="M384.1 360.033C384.1 358.642 382.715 357.675 381.409 358.155L238.409 410.742C237.622 411.032 237.1 411.781 237.1 412.619V415.228C237.1 416.619 238.484 417.585 239.79 417.105L382.79 364.518C383.577 364.229 384.1 363.48 384.1 362.641V360.033Z" fill="#DD3835"/>
<path opacity="0.15" d="M384.072 372.658C384.086 371.261 382.701 370.281 381.388 370.758L265.717 412.811C264.927 413.099 264.4 413.85 264.4 414.691V417.34C264.4 418.728 265.78 419.694 267.084 419.219L382.729 377.151C383.513 376.866 384.037 376.125 384.045 375.292L384.072 372.658Z" fill="#DD3835"/>
<path opacity="0.2" d="M342.093 208.779C342.096 207.383 340.705 206.414 339.396 206.899L-53.497 352.801C-54.2808 353.092 -54.8008 353.84 -54.8008 354.676V377.401C-54.8008 378.794 -53.411 379.761 -52.1044 379.275L340.738 233.37C341.52 233.08 342.039 232.334 342.041 231.5L342.093 208.779Z" fill="url(#paint8_linear_14_2839)"/>
<path opacity="0.2" d="M321.1 227.395C321.1 232.234 324.391 234.489 328.45 232.469C332.509 230.448 335.8 224.952 335.8 220.113C335.8 215.275 332.509 213.02 328.45 215.04C324.391 217.06 321.1 222.603 321.1 227.395Z" fill="#DD3835"/>
<defs>
<linearGradient id="paint0_linear_14_2839" x1="147.829" y1="149.263" x2="183.843" y2="246.731" gradientUnits="userSpaceOnUse">
<stop stop-color="#DD3835"/>
<stop offset="0.903" stop-color="#DD3835" stop-opacity="0.2"/>
</linearGradient>
<linearGradient id="paint1_linear_14_2839" x1="191.804" y1="141.295" x2="228.944" y2="240.05" gradientUnits="userSpaceOnUse">
<stop stop-color="#DD3835"/>
<stop offset="0.903" stop-color="#DD3835"/>
</linearGradient>
<linearGradient id="paint2_linear_14_2839" x1="-6.78264" y1="183.516" x2="50.056" y2="338.99" gradientUnits="userSpaceOnUse">
<stop stop-color="#DD3835"/>
<stop offset="1" stop-color="#DD3835" stop-opacity="0.01"/>
</linearGradient>
<linearGradient id="paint3_linear_14_2839" x1="42.4043" y1="269.329" x2="58.2518" y2="311.362" gradientUnits="userSpaceOnUse">
<stop stop-color="#DD3835"/>
<stop offset="1" stop-color="#DD3835" stop-opacity="0.01"/>
</linearGradient>
<linearGradient id="paint4_linear_14_2839" x1="80.5477" y1="124.342" x2="64.3336" y2="195.56" gradientUnits="userSpaceOnUse">
<stop stop-color="#DD3835"/>
<stop offset="1" stop-color="#DD3835" stop-opacity="0.03"/>
</linearGradient>
<linearGradient id="paint5_linear_14_2839" x1="107.577" y1="315.071" x2="135.001" y2="389.781" gradientUnits="userSpaceOnUse">
<stop stop-color="#DD3835"/>
<stop offset="1" stop-color="#DD3835" stop-opacity="0.03"/>
</linearGradient>
<linearGradient id="paint6_linear_14_2839" x1="92.0906" y1="449.613" x2="105.724" y2="485.728" gradientUnits="userSpaceOnUse">
<stop stop-color="#DD3835"/>
<stop offset="1" stop-color="#DD3835" stop-opacity="0.21"/>
</linearGradient>
<linearGradient id="paint7_linear_14_2839" x1="288.214" y1="374.014" x2="306.256" y2="424.12" gradientUnits="userSpaceOnUse">
<stop stop-color="#DD3835"/>
<stop offset="1" stop-color="#DD3835" stop-opacity="0.44"/>
</linearGradient>
<linearGradient id="paint8_linear_14_2839" x1="243.622" y1="184.148" x2="170.116" y2="377.681" gradientUnits="userSpaceOnUse">
<stop stop-color="#DD3835"/>
<stop offset="1" stop-color="#DD3835" stop-opacity="0"/>
</linearGradient>
</defs>
</svg>
