<svg width="350" height="307" viewBox="0 0 350 307" fill="none" xmlns="http://www.w3.org/2000/svg">
<path opacity="0.4" d="M171.012 107.106C171.017 108.495 172.431 109.318 173.813 109.459C174.291 109.508 174.688 109.658 175.004 109.91C175.831 110.551 176.223 111.638 176.223 113.157V121.378C176.223 122.938 176.441 124.234 176.898 125.265C177.355 126.338 178.116 127.091 179.161 127.536C180.184 127.996 181.577 128.108 183.34 127.899C185.059 127.704 187.213 127.118 189.781 126.171C190.515 125.894 191 125.192 191 124.409V120.879C191 120.081 190.204 119.526 189.455 119.803C187.605 120.486 186.386 120.57 185.777 120.082C185.124 119.594 184.798 118.591 184.798 117.072V109.827C184.798 107.932 184.515 106.441 183.927 105.354C183.907 105.314 183.885 105.274 183.863 105.235C183.045 103.795 182.242 101.597 183.125 100.194C183.463 99.6574 183.73 99.1243 183.927 98.5962C184.493 97.0774 184.776 95.3775 184.776 93.4825V86.237C184.776 84.7182 185.102 83.4642 185.755 82.5028C186.365 81.5553 187.605 80.7332 189.433 80.0504L189.672 79.9622C190.457 79.6719 190.978 78.9234 190.978 78.0863V74.3026C190.978 73.6729 190.349 73.2375 189.76 73.4598C187.192 74.4073 185.037 75.4245 183.318 76.4974C181.555 77.5842 180.162 78.7267 179.139 79.9529C178.073 81.1791 177.311 82.4888 176.876 83.8961C176.419 85.2616 176.201 86.7247 176.201 88.2853V96.5061C176.201 98.0249 175.788 99.4183 174.983 100.658C174.364 101.587 173.464 102.366 172.284 102.98C171.537 103.369 171.002 104.104 171.005 104.946L171.012 107.106Z" fill="url(#paint0_linear_9_77)"/>
<path opacity="0.4" d="M218 88.2434C218 86.8466 216.572 86.0249 215.184 85.8692C214.717 85.8168 214.328 85.6644 214.017 85.4126C213.19 84.7604 212.799 83.6544 212.799 82.109V73.7436C212.799 72.1556 212.581 70.837 212.124 69.7878C211.667 68.696 210.927 67.9304 209.904 67.4625C208.838 67.0088 207.445 66.8953 205.726 67.0938C203.963 67.3065 201.787 67.902 199.219 68.8803C198.485 69.1622 198 69.8673 198 70.6537V74.2904C198 75.0888 198.798 75.6411 199.545 75.36C201.395 74.6652 202.635 74.566 203.288 75.0622C203.898 75.5726 204.202 76.5935 204.202 78.1531V85.526C204.202 87.4543 204.485 88.9714 205.073 90.0773C205.105 90.1419 205.14 90.205 205.177 90.2668C206.013 91.6841 206.807 93.8511 205.928 95.243C205.565 95.8181 205.28 96.3888 205.073 96.9539C204.507 98.4994 204.224 100.229 204.224 102.157V109.53C204.224 111.076 203.919 112.338 203.31 113.316C202.657 114.294 201.417 115.145 199.567 115.826L199.318 115.919C198.538 116.213 198.022 116.958 198.022 117.791V121.695C198.022 122.324 198.653 122.758 199.24 122.532C201.808 121.568 203.985 120.519 205.748 119.427C207.467 118.335 208.86 117.173 209.926 115.911C210.949 114.677 211.689 113.344 212.124 111.927C212.581 110.537 212.799 109.048 212.799 107.46V99.0949C212.799 97.5494 213.212 96.1316 214.017 94.8697C214.639 93.9211 215.544 93.1247 216.731 92.4986C217.47 92.109 218 91.3806 218 90.5452V88.2434Z" fill="url(#paint1_linear_9_77)"/>
<path opacity="0.15" d="M146 67.8606C146 66.4712 144.618 65.5051 143.313 65.9822L87.3133 86.4541C86.5246 86.7425 86 87.4928 86 88.3325V175.139C86 176.529 87.3818 177.495 88.6867 177.018L144.687 156.546C145.475 156.258 146 155.507 146 154.667V67.8606Z" fill="url(#paint2_linear_9_77)"/>
<path opacity="0.6" d="M157 80.8241C157 79.445 155.637 78.4797 154.336 78.9376L110.336 94.4231C109.536 94.7048 109 95.4611 109 96.3097V100.176C109 101.555 110.363 102.52 111.664 102.062L155.664 86.5769C156.464 86.2952 157 85.5389 157 84.6903V80.8241Z" fill="#DD3835"/>
<path opacity="0.2" d="M138 119.89C138 118.492 136.603 117.526 135.295 118.018L96.2953 132.701C95.516 132.994 95 133.74 95 134.572V155.109C95 156.507 96.3973 157.473 97.7053 156.98L136.705 142.282C137.484 141.988 138 141.243 138 140.41V119.89Z" fill="url(#paint3_linear_9_77)"/>
<path opacity="0.15" d="M138 98.9832C138 98.0288 137.041 97.3724 136.151 97.7179L94.8659 113.752C94.3439 113.954 94 114.457 94 115.017C94 115.971 94.959 116.628 95.8486 116.282L137.134 100.248C137.656 100.046 138 99.5431 138 98.9832Z" fill="#DD3835"/>
<path opacity="0.15" d="M138 110.599C138 109.808 137.23 109.246 136.477 109.487L105.812 119.288C105.328 119.443 105 119.893 105 120.401C105 121.192 105.77 121.754 106.523 121.513L137.188 111.712C137.672 111.557 138 111.107 138 110.599Z" fill="#DD3835"/>
<path opacity="0.2" d="M146 61.878C146 60.4838 144.609 59.5174 143.303 60.0035L90.3026 79.721C89.5195 80.0123 89 80.7599 89 81.5955V89.1228C89 90.5168 90.3902 91.4832 91.6969 90.9975L144.697 71.2962C145.48 71.005 146 70.2573 146 69.4215V61.878Z" fill="url(#paint4_linear_9_77)"/>
<path opacity="0.2" d="M133 69.2329C133 71.536 135.015 72.6093 137.5 71.6478C139.985 70.6863 142 68.0702 142 65.7671C142 63.464 139.985 62.3907 137.5 63.3522C135.015 64.3137 133 66.9522 133 69.2329Z" fill="#DD3835"/>
<path opacity="0.15" d="M250.975 111.863C250.975 110.473 249.591 109.507 248.286 109.986L85.3115 169.785C84.5237 170.074 84.0002 170.824 84.0004 171.663L84.0248 250.137C84.0252 251.527 85.4087 252.493 86.7137 252.014L249.688 192.215C250.476 191.926 251 191.176 251 190.337L250.975 111.863Z" fill="url(#paint5_linear_9_77)"/>
<path opacity="0.7" d="M288 117.853C288 116.466 286.622 115.5 285.318 115.973L235.318 134.118C234.527 134.405 234 135.157 234 135.998V141.147C234 142.534 235.378 143.5 236.682 143.027L286.682 124.882C287.473 124.595 288 123.843 288 123.002V117.853Z" fill="#EB6967"/>
<path opacity="0.15" d="M259.989 143.261C259.979 142.162 258.879 141.407 257.85 141.792L139.026 186.245C138.409 186.476 138 187.065 138 187.724C138 188.826 139.1 189.589 140.132 189.203L258.96 144.76C259.584 144.527 259.996 143.927 259.989 143.261Z" fill="#DD3835"/>
<path opacity="0.15" d="M259.978 151.188C259.989 150.126 258.939 149.378 257.938 149.735L155.012 186.406C154.405 186.622 154 187.196 154 187.841C154 188.893 155.042 189.629 156.034 189.275L258.963 152.612C259.566 152.397 259.971 151.829 259.978 151.188Z" fill="#DD3835"/>
<path opacity="0.15" d="M260 156.289C260 155.183 258.894 154.418 257.858 154.809L172.023 187.231C171.407 187.463 171 188.053 171 188.711C171 189.817 172.106 190.582 173.142 190.191L258.977 157.769C259.593 157.537 260 156.947 260 156.289Z" fill="#DD3835"/>
<path opacity="0.2" d="M177 199.892C177 198.494 175.602 197.527 174.294 198.021L102.294 225.187C101.515 225.481 101 226.226 101 227.058V244.108C101 245.506 102.398 246.473 103.706 245.979L175.706 218.813C176.485 218.519 177 217.774 177 216.942V199.892Z" fill="url(#paint6_linear_9_77)"/>
<path opacity="0.15" d="M172 205.994C172 204.569 170.551 203.601 169.234 204.147L162.234 207.048C161.487 207.358 161 208.087 161 208.896V212.006C161 213.431 162.449 214.399 163.766 213.853L170.766 210.952C171.513 210.642 172 209.913 172 209.104V205.994Z" fill="#DD3835"/>
<path opacity="0.15" d="M157 211.807C157 210.433 155.646 209.468 154.347 209.917L147.347 212.335C146.541 212.613 146 213.372 146 214.225V216.193C146 217.567 147.354 218.532 148.653 218.083L155.653 215.665C156.459 215.387 157 214.628 157 213.775V211.807Z" fill="#DD3835"/>
<path opacity="0.15" d="M143 217.731C143 216.379 141.686 215.416 140.396 215.825L132.396 218.358C131.565 218.621 131 219.393 131 220.265V222.269C131 223.621 132.314 224.584 133.604 224.175L141.604 221.642C142.435 221.379 143 220.607 143 219.735V217.731Z" fill="#DD3835"/>
<path opacity="0.15" d="M129 221.986C129 220.563 127.555 219.595 126.239 220.137L118.239 223.43C117.489 223.739 117 224.469 117 225.28V229.014C117 230.437 118.445 231.405 119.761 230.863L127.761 227.57C128.511 227.261 129 226.531 129 225.72V221.986Z" fill="#DD3835"/>
<path opacity="0.2" d="M281 160.845C281 159.46 279.626 158.494 278.323 158.963L191.323 190.27C190.529 190.556 190 191.309 190 192.152V217.155C190 218.54 191.374 219.506 192.677 219.037L279.677 187.73C280.471 187.444 281 186.691 281 185.848V160.845Z" fill="url(#paint7_linear_9_77)"/>
<path opacity="0.15" d="M271 172.199C271 171.132 269.938 170.391 268.936 170.759L202.005 195.36C201.401 195.582 201 196.157 201 196.801C201 197.868 202.062 198.609 203.064 198.241L269.995 173.64C270.599 173.418 271 172.843 271 172.199Z" fill="#DD3835"/>
<path opacity="0.15" d="M270.978 178.22C270.989 177.146 269.923 176.391 268.913 176.758L215.017 196.344C214.406 196.565 214 197.146 214 197.795C214 198.867 215.065 199.613 216.072 199.247L269.965 179.651C270.568 179.432 270.971 178.862 270.978 178.22Z" fill="#DD3835"/>
<path opacity="0.2" d="M250.993 100.883C250.997 99.4872 249.606 98.5175 248.298 99.0031L63.304 167.669C62.5202 167.96 62 168.708 62 169.544V178.124C62 179.518 63.3896 180.484 64.6961 179.999L249.67 111.33C250.452 111.04 250.972 110.294 250.974 109.459L250.993 100.883Z" fill="url(#paint8_linear_9_77)"/>
<path opacity="0.2" d="M241 108.233C241 110.536 242.567 111.609 244.5 110.648C246.433 109.686 248 107.07 248 104.767C248 102.464 246.433 101.391 244.5 102.352C242.567 103.314 241 105.952 241 108.233Z" fill="#DD3835"/>
<defs>
<linearGradient id="paint0_linear_9_77" x1="158.49" y1="71.0444" x2="175.626" y2="117.441" gradientUnits="userSpaceOnUse">
<stop stop-color="#DD3835"/>
<stop offset="0.903" stop-color="#DD3835" stop-opacity="0.2"/>
</linearGradient>
<linearGradient id="paint1_linear_9_77" x1="179.43" y1="67.2522" x2="197.101" y2="114.262" gradientUnits="userSpaceOnUse">
<stop stop-color="#DD3835"/>
<stop offset="0.903" stop-color="#DD3835"/>
</linearGradient>
<linearGradient id="paint2_linear_9_77" x1="84.8656" y1="87.348" x2="111.909" y2="161.357" gradientUnits="userSpaceOnUse">
<stop stop-color="#DD3835"/>
<stop offset="1" stop-color="#DD3835" stop-opacity="0.01"/>
</linearGradient>
<linearGradient id="paint3_linear_9_77" x1="108.288" y1="128.192" x2="115.828" y2="148.201" gradientUnits="userSpaceOnUse">
<stop stop-color="#DD3835"/>
<stop offset="1" stop-color="#DD3835" stop-opacity="0.01"/>
</linearGradient>
<linearGradient id="paint4_linear_9_77" x1="126.451" y1="59.1829" x2="118.737" y2="93.082" gradientUnits="userSpaceOnUse">
<stop stop-color="#DD3835"/>
<stop offset="1" stop-color="#DD3835" stop-opacity="0.03"/>
</linearGradient>
<linearGradient id="paint5_linear_9_77" x1="139.322" y1="149.964" x2="152.371" y2="185.528" gradientUnits="userSpaceOnUse">
<stop stop-color="#DD3835"/>
<stop offset="1" stop-color="#DD3835" stop-opacity="0.03"/>
</linearGradient>
<linearGradient id="paint6_linear_9_77" x1="131.948" y1="214.002" x2="138.435" y2="231.193" gradientUnits="userSpaceOnUse">
<stop stop-color="#DD3835"/>
<stop offset="1" stop-color="#DD3835" stop-opacity="0.21"/>
</linearGradient>
<linearGradient id="paint7_linear_9_77" x1="225.34" y1="178.019" x2="233.924" y2="201.871" gradientUnits="userSpaceOnUse">
<stop stop-color="#DD3835"/>
<stop offset="1" stop-color="#DD3835" stop-opacity="0.44"/>
</linearGradient>
<linearGradient id="paint8_linear_9_77" x1="204.106" y1="87.6487" x2="169.132" y2="179.775" gradientUnits="userSpaceOnUse">
<stop stop-color="#DD3835"/>
<stop offset="1" stop-color="#DD3835" stop-opacity="0"/>
</linearGradient>
</defs>
</svg>
