<svg width="518" height="512" viewBox="0 0 518 512" fill="none" xmlns="http://www.w3.org/2000/svg">
<path opacity="0.2" d="M213.578 213.407L105.121 163.44V208.534L213.578 258.502V213.407Z" fill="url(#paint0_linear_14_3981)"/>
<path d="M128.48 188.88C128.48 192.711 125.899 194.467 122.64 192.871C119.444 191.275 116.8 186.859 116.8 183.028C116.8 179.198 119.382 177.442 122.64 179.038C125.899 180.634 128.48 185.05 128.48 188.88Z" fill="white"/>
<path opacity="0.15" d="M133.486 185.12L171.863 204.353V211.805L133.486 192.572V185.12Z" fill="#DD3835"/>
<path opacity="0.15" d="M133.485 200.13L201.896 231.561V238.489L133.485 207.058V200.13Z" fill="#DD3835"/>
<path opacity="0.07" d="M298.674 70.0457L417.143 124.699V328.547L298.737 273.894L298.674 70.0457Z" fill="url(#paint1_linear_14_3981)"/>
<path opacity="0.3" d="M270.309 90.0586L388.777 144.711V348.56L270.372 293.907L270.309 90.0586Z" fill="url(#paint2_linear_14_3981)"/>
<path opacity="0.15" d="M281.989 203.466L377.098 245.279V251.831L281.989 210.017V203.466Z" fill="#DD3835"/>
<path opacity="0.15" d="M286.995 220.143L370.424 256.826V263.505L286.995 226.822V220.143Z" fill="#DD3835"/>
<path d="M238.605 246.242V223.479L310.354 255.752V278.515L238.605 246.242Z" fill="white"/>
<path opacity="0.2" d="M485.651 243.058C480.155 236.126 472.548 235.216 472.229 235.165C471.462 235.064 471.014 235.62 471.014 236.43V254.746C471.014 260.97 468.33 264.967 463.025 266.687C462.513 266.839 462.194 267.294 462.194 267.901C462.194 276.705 462.386 314.501 462.45 326.291C462.45 328.264 464.175 330.591 466.285 331.553C477.598 336.764 510.26 351.69 510.26 351.69C518.952 355.687 524.513 353.208 525.472 345.011L525.6 308.733C525.6 303.218 524.385 297.551 520.55 292.846C518.377 290.164 515.82 288.09 513.136 286.875L490.829 276.705V259.705C490.893 253.026 489.103 247.46 485.651 243.058Z" fill="url(#paint3_linear_14_3981)"/>
<path d="M432.161 250.163L457.189 261.663V326.879L432.161 315.38V250.163Z" fill="white"/>
<path opacity="0.3" d="M248.553 128.32L58.4001 41.6938L58.464 119.899L231.813 198.861L248.617 218.476L248.553 128.32Z" fill="url(#paint4_linear_14_3981)"/>
<path opacity="0.15" d="M200.229 124.626L158.514 105.068V112.142L200.229 131.752V124.626Z" fill="#DD3835"/>
<path opacity="0.15" d="M200.229 139.754L96.7771 91.7264V98.7347L200.229 146.762V139.754Z" fill="#DD3835"/>
<path opacity="0.15" d="M200.229 153.089L75.0857 95.0619V102.077L200.229 160.104V153.089Z" fill="#DD3835"/>
<path d="M210.24 136.583C210.24 143.378 215.118 151.181 221.086 154.048C227.054 156.914 231.932 153.729 231.932 146.935C231.932 140.14 227.054 132.337 221.086 129.47C215.118 126.604 210.24 129.789 210.24 136.583Z" fill="white"/>
<path opacity="0.3" d="M332.047 306.866L522.2 393.638L522.264 471.974L348.857 392.88L332.11 397.224L332.047 306.866Z" fill="url(#paint5_linear_14_3981)"/>
<path opacity="0.15" d="M380.434 350.228L422.148 368.599V375.244L380.434 356.873V350.228Z" fill="#DD3835"/>
<path opacity="0.15" d="M380.434 361.902L455.52 398.028V405.264L380.434 369.138V361.902Z" fill="#DD3835"/>
<path opacity="0.15" d="M380.435 376.912L478.881 420.241V426.945L380.435 383.616V376.912Z" fill="#DD3835"/>
<path d="M370.424 350.911C370.424 357.281 365.546 360.267 359.578 357.579C353.61 354.892 348.732 347.577 348.732 341.207C348.732 334.837 353.61 331.851 359.578 334.538C365.546 337.225 370.424 344.541 370.424 350.911Z" fill="white"/>
<path opacity="0.2" d="M265.303 294.287C269.135 296.029 272.201 300.333 272.201 303.868V319.494L285.102 325.437C288.934 327.179 292 331.482 292 335.017C292 338.552 288.934 339.987 285.102 338.245L272.201 332.302V347.928C272.201 351.463 269.135 352.897 265.303 351.155C261.471 349.414 258.405 345.11 258.405 341.575V325.949L245.504 320.006C241.671 318.264 238.606 313.961 238.606 310.425C238.606 306.89 241.671 305.456 245.504 307.198L258.405 313.141V297.515C258.341 293.98 261.471 292.494 265.303 294.287Z" fill="url(#paint6_linear_14_3981)"/>
<path opacity="0.05" d="M328.686 195.127C273.373 138.358 313.407 117.807 328.686 151.075C344.029 131.948 384.062 189.277 328.686 195.127Z" fill="url(#paint7_linear_14_3981)"/>
<path opacity="0.3" d="M317.006 205.134C261.694 149.941 301.727 129.961 317.006 162.305C332.349 143.71 372.383 199.446 317.006 205.134Z" fill="#DD3835"/>
<defs>
<linearGradient id="paint0_linear_14_3981" x1="171.56" y1="194.076" x2="154.424" y2="231.274" gradientUnits="userSpaceOnUse">
<stop stop-color="#DD3835"/>
<stop offset="1" stop-color="#DD3835" stop-opacity="0"/>
</linearGradient>
<linearGradient id="paint1_linear_14_3981" x1="426.654" y1="104.088" x2="342.789" y2="285.863" gradientUnits="userSpaceOnUse">
<stop stop-color="#DD3835"/>
<stop offset="1" stop-color="#DD3835" stop-opacity="0"/>
</linearGradient>
<linearGradient id="paint2_linear_14_3981" x1="398.307" y1="124.102" x2="314.442" y2="305.876" gradientUnits="userSpaceOnUse">
<stop stop-color="#DD3835"/>
<stop offset="1" stop-color="#DD3835" stop-opacity="0"/>
</linearGradient>
<linearGradient id="paint3_linear_14_3981" x1="470.299" y1="287.11" x2="544.726" y2="323.092" gradientUnits="userSpaceOnUse">
<stop stop-color="#DD3835"/>
<stop offset="1" stop-color="#DD3835" stop-opacity="0"/>
</linearGradient>
<linearGradient id="paint4_linear_14_3981" x1="207.078" y1="96.9782" x2="127.275" y2="176.157" gradientUnits="userSpaceOnUse">
<stop stop-color="#DD3835"/>
<stop offset="1" stop-color="#DD3835" stop-opacity="0"/>
</linearGradient>
<linearGradient id="paint5_linear_14_3981" x1="413.737" y1="309.423" x2="429.178" y2="467.912" gradientUnits="userSpaceOnUse">
<stop stop-color="#DD3835"/>
<stop offset="1" stop-color="#DD3835" stop-opacity="0"/>
</linearGradient>
<linearGradient id="paint6_linear_14_3981" x1="278.626" y1="314.256" x2="251.05" y2="341.386" gradientUnits="userSpaceOnUse">
<stop stop-color="#DD3835"/>
<stop offset="1" stop-color="#DD3835" stop-opacity="0"/>
</linearGradient>
<linearGradient id="paint7_linear_14_3981" x1="340.514" y1="153.367" x2="307.612" y2="189.02" gradientUnits="userSpaceOnUse">
<stop stop-color="#DD3835"/>
<stop offset="1" stop-color="#DD3835" stop-opacity="0"/>
</linearGradient>
</defs>
</svg>
