<svg width="464" height="267" viewBox="0 0 464 267" fill="none" xmlns="http://www.w3.org/2000/svg">
<g clip-path="url(#clip0_152_6628)">
<path d="M59.5207 221.665C59.5029 221.647 59.6811 221.407 60.0197 220.998C60.4118 220.535 60.9019 219.957 61.4811 219.281C62.7196 217.849 64.4483 215.884 66.3819 213.74L66.4264 213.696V213.989C64.4839 211.881 62.7464 209.96 61.4989 208.555C60.9197 207.888 60.4296 207.327 60.0287 206.874C59.6901 206.473 59.5029 206.242 59.5207 206.216C59.5386 206.189 59.7435 206.393 60.1178 206.758C60.5366 207.185 61.0534 207.719 61.6593 208.341C62.9513 209.693 64.7156 211.588 66.6581 213.696L66.7918 213.838L66.6581 213.98L66.6136 214.034C64.6889 216.186 62.9335 218.116 61.6504 219.495C61.0445 220.135 60.5366 220.678 60.1178 221.114C59.7435 221.487 59.5297 221.683 59.5207 221.665Z" fill="#E1E1E1"/>
<path d="M44.5425 206.207C44.5603 206.224 44.3821 206.465 44.0435 206.874C43.6514 207.336 43.1614 207.914 42.5822 208.59C41.3436 210.022 39.615 211.988 37.6814 214.131L37.6368 214.176V213.882C39.5793 215.99 41.3169 217.912 42.5644 219.317C43.1435 219.984 43.6336 220.544 44.0346 220.998C44.3732 221.398 44.5603 221.629 44.5425 221.656C44.5247 221.674 44.3197 221.478 43.9455 221.114C43.5267 220.687 43.0099 220.153 42.404 219.53C41.1119 218.178 39.3476 216.284 37.4051 214.176L37.2715 214.034L37.4051 213.891L37.4497 213.847C39.3744 211.694 41.1298 209.764 42.4129 208.386C43.0188 207.745 43.5267 207.203 43.9455 206.767C44.3197 206.393 44.5247 206.189 44.5425 206.207Z" fill="#E1E1E1"/>
<path d="M48.3825 225.312C48.2934 225.276 49.8706 220.1 51.8933 213.767C53.916 207.425 55.6357 202.32 55.7248 202.364C55.8139 202.4 54.2367 207.567 52.214 213.909C50.1913 220.242 48.4716 225.347 48.3825 225.312Z" fill="#E1E1E1"/>
<path d="M76.5318 236.367C76.5318 236.367 76.5229 236.065 76.514 235.505C76.514 234.927 76.5051 234.099 76.4962 233.014C76.4873 230.835 76.4784 227.651 76.4605 223.595C76.4427 215.483 76.416 203.894 76.3893 189.93L76.5318 190.099C62.5957 190.108 45.8438 190.117 27.8266 190.134L27.9959 189.939C27.987 206.722 27.987 222.581 27.9781 236.376L27.8266 236.198C42.2885 236.234 54.4425 236.27 62.9967 236.287C67.2737 236.305 70.6508 236.323 72.9676 236.332C74.1171 236.341 74.9992 236.35 75.614 236.35C75.9081 236.35 76.1308 236.359 76.3001 236.359C76.4516 236.359 76.5318 236.367 76.5318 236.367C76.5318 236.367 76.4605 236.376 76.3091 236.376C76.1487 236.376 75.9259 236.385 75.6408 236.385C75.0348 236.394 74.1616 236.394 73.0211 236.403C70.7132 236.412 67.345 236.43 63.0858 236.447C54.5049 236.465 42.3152 236.501 27.8177 236.536H27.6663V236.359C27.6573 222.563 27.6573 206.705 27.6484 189.921V189.725H27.8177C45.8349 189.734 62.5957 189.752 76.5229 189.761H76.6655V189.93C76.6388 203.947 76.612 215.572 76.5942 223.702C76.5764 227.74 76.5675 230.906 76.5586 233.085C76.5496 234.153 76.5496 234.971 76.5407 235.54C76.5496 236.092 76.5318 236.367 76.5318 236.367Z" fill="#E1E1E1"/>
<path d="M76.9158 196.823C76.9158 196.93 65.9202 197.019 52.3583 197.019C38.7964 197.019 27.8008 196.93 27.8008 196.823C27.8008 196.716 38.7964 196.627 52.3583 196.627C65.9202 196.618 76.9158 196.707 76.9158 196.823Z" fill="#E1E1E1"/>
<path d="M31.8012 193.434C31.8012 193.861 31.5071 194.208 31.1418 194.208C30.7765 194.208 30.4824 193.861 30.4824 193.434C30.4824 193.007 30.7765 192.66 31.1418 192.66C31.5071 192.66 31.8012 193.007 31.8012 193.434Z" fill="#E1E1E1"/>
<path d="M34.1899 193.434C34.1899 193.861 33.8958 194.208 33.5305 194.208C33.1651 194.208 32.8711 193.861 32.8711 193.434C32.8711 193.007 33.1651 192.66 33.5305 192.66C33.8958 192.66 34.1899 193.007 34.1899 193.434Z" fill="#E1E1E1"/>
<path d="M36.5766 193.434C36.5766 193.861 36.2825 194.208 35.9172 194.208C35.5519 194.208 35.2578 193.861 35.2578 193.434C35.2578 193.007 35.5519 192.66 35.9172 192.66C36.2825 192.66 36.5766 193.007 36.5766 193.434Z" fill="#E1E1E1"/>
<path d="M464 266.795C464 266.911 362.045 267 236.317 267C110.535 267 8.60742 266.911 8.60742 266.795C8.60742 266.68 110.535 266.591 236.317 266.591C362.054 266.591 464 266.68 464 266.795Z" fill="#1A2E35"/>
<path d="M393.61 265.441H446.396V76.2492H393.61V265.441Z" fill="#ECECEC"/>
<path d="M351.967 265.443H393.615L393.686 76.251H351.967V265.443Z" fill="#E1E1E1"/>
<path d="M398.705 121.279H443.48V106.532H398.705V121.279Z" fill="#1A2E35"/>
<path d="M439.725 119.667H442.229V108.38H439.725V119.667Z" fill="#375A64"/>
<path d="M436.768 110.761C436.768 111.277 437.124 111.695 437.561 111.695C437.997 111.695 438.354 111.277 438.354 110.761C438.354 110.245 437.997 109.827 437.561 109.827C437.124 109.827 436.768 110.245 436.768 110.761Z" fill="white"/>
<path d="M436.768 114.746C436.768 115.262 437.124 115.68 437.561 115.68C437.997 115.68 438.354 115.262 438.354 114.746C438.354 114.23 437.997 113.812 437.561 113.812C437.124 113.812 436.768 114.23 436.768 114.746Z" fill="white"/>
<path d="M431.108 118.493H433.576V109.821H431.108V118.493Z" fill="#375A64"/>
<path d="M427.555 118.493H430.023V109.821H427.555V118.493Z" fill="#375A64"/>
<path d="M423.991 118.493H426.459V109.821H423.991V118.493Z" fill="#375A64"/>
<path d="M420.438 118.493H422.906V109.821H420.438V118.493Z" fill="#375A64"/>
<path d="M416.874 118.493H419.342V109.821H416.874V118.493Z" fill="#375A64"/>
<path d="M413.321 118.493H415.789V109.821H413.321V118.493Z" fill="#375A64"/>
<path d="M409.758 118.493H412.227V109.821H409.758V118.493Z" fill="#375A64"/>
<path d="M406.194 118.493H408.662V109.821H406.194V118.493Z" fill="#375A64"/>
<path d="M402.641 118.493H405.109V109.821H402.641V118.493Z" fill="#375A64"/>
<path d="M399.077 118.493H401.545V109.821H399.077V118.493Z" fill="#375A64"/>
<path d="M398.705 142.472H443.48V127.725H398.705V142.472Z" fill="#1A2E35"/>
<path d="M439.725 140.86H442.229V129.573H439.725V140.86Z" fill="#375A64"/>
<path d="M436.768 131.948C436.768 132.463 437.124 132.881 437.561 132.881C437.997 132.881 438.354 132.463 438.354 131.948C438.354 131.432 437.997 131.014 437.561 131.014C437.124 131.014 436.768 131.432 436.768 131.948Z" fill="white"/>
<path d="M436.768 135.932C436.768 136.448 437.124 136.866 437.561 136.866C437.997 136.866 438.354 136.448 438.354 135.932C438.354 135.416 437.997 134.998 437.561 134.998C437.124 135.007 436.768 135.416 436.768 135.932Z" fill="white"/>
<path d="M431.108 139.686H433.576V131.014H431.108V139.686Z" fill="#375A64"/>
<path d="M427.555 139.686H430.023V131.014H427.555V139.686Z" fill="#375A64"/>
<path d="M423.991 139.686H426.459V131.014H423.991V139.686Z" fill="#375A64"/>
<path d="M420.438 139.686H422.906V131.014H420.438V139.686Z" fill="#375A64"/>
<path d="M416.874 139.686H419.342V131.014H416.874V139.686Z" fill="#375A64"/>
<path d="M413.321 139.686H415.789V131.014H413.321V139.686Z" fill="#375A64"/>
<path d="M409.758 139.686H412.227V131.014H409.758V139.686Z" fill="#375A64"/>
<path d="M406.194 139.686H408.662V131.014H406.194V139.686Z" fill="#375A64"/>
<path d="M402.641 139.686H405.109V131.014H402.641V139.686Z" fill="#375A64"/>
<path d="M399.077 139.686H401.545V131.014H399.077V139.686Z" fill="#375A64"/>
<path d="M398.705 163.826H443.48V149.079H398.705V163.826Z" fill="#1A2E35"/>
<path d="M439.725 162.223H442.229V150.936H439.725V162.223Z" fill="#375A64"/>
<path d="M437.561 154.237C437.999 154.237 438.354 153.819 438.354 153.303C438.354 152.787 437.999 152.369 437.561 152.369C437.123 152.369 436.768 152.787 436.768 153.303C436.768 153.819 437.123 154.237 437.561 154.237Z" fill="white"/>
<path d="M436.768 157.296C436.768 157.812 437.124 158.23 437.561 158.23C437.997 158.23 438.354 157.812 438.354 157.296C438.354 156.781 437.997 156.363 437.561 156.363C437.124 156.363 436.768 156.781 436.768 157.296Z" fill="white"/>
<path d="M431.108 161.04H433.576V152.368H431.108V161.04Z" fill="#375A64"/>
<path d="M427.555 161.04H430.023V152.368H427.555V161.04Z" fill="#375A64"/>
<path d="M423.991 161.04H426.459V152.368H423.991V161.04Z" fill="#375A64"/>
<path d="M420.438 161.04H422.906V152.368H420.438V161.04Z" fill="#375A64"/>
<path d="M416.874 161.04H419.342V152.368H416.874V161.04Z" fill="#375A64"/>
<path d="M413.321 161.04H415.789V152.368H413.321V161.04Z" fill="#375A64"/>
<path d="M409.758 161.04H412.227V152.368H409.758V161.04Z" fill="#375A64"/>
<path d="M406.194 161.04H408.662V152.368H406.194V161.04Z" fill="#375A64"/>
<path d="M402.641 161.04H405.109V152.368H402.641V161.04Z" fill="#375A64"/>
<path d="M399.077 161.04H401.545V152.368H399.077V161.04Z" fill="#375A64"/>
<path d="M398.705 186.9H443.48V172.153H398.705V186.9Z" fill="#1A2E35"/>
<path d="M439.725 185.297H442.229V174.01H439.725V185.297Z" fill="#375A64"/>
<path d="M436.768 176.375C436.768 176.891 437.124 177.309 437.561 177.309C437.997 177.309 438.354 176.891 438.354 176.375C438.354 175.859 437.997 175.441 437.561 175.441C437.124 175.45 436.768 175.868 436.768 176.375Z" fill="white"/>
<path d="M437.561 181.302C437.999 181.302 438.354 180.884 438.354 180.368C438.354 179.853 437.999 179.435 437.561 179.435C437.123 179.435 436.768 179.853 436.768 180.368C436.768 180.884 437.123 181.302 437.561 181.302Z" fill="white"/>
<path d="M431.108 184.115H433.576V175.443H431.108V184.115Z" fill="#375A64"/>
<path d="M427.555 184.115H430.023V175.443H427.555V184.115Z" fill="#375A64"/>
<path d="M423.991 184.115H426.459V175.443H423.991V184.115Z" fill="#375A64"/>
<path d="M420.438 184.115H422.906V175.443H420.438V184.115Z" fill="#375A64"/>
<path d="M416.874 184.115H419.342V175.443H416.874V184.115Z" fill="#375A64"/>
<path d="M413.321 184.115H415.789V175.443H413.321V184.115Z" fill="#375A64"/>
<path d="M409.758 184.115H412.227V175.443H409.758V184.115Z" fill="#375A64"/>
<path d="M406.194 184.115H408.662V175.443H406.194V184.115Z" fill="#375A64"/>
<path d="M402.641 184.115H405.109V175.443H402.641V184.115Z" fill="#375A64"/>
<path d="M399.077 184.115H401.545V175.443H399.077V184.115Z" fill="#375A64"/>
<path d="M398.705 210.199H443.48V195.453H398.705V210.199Z" fill="#1A2E35"/>
<path d="M439.725 208.597H442.229V197.31H439.725V208.597Z" fill="#375A64"/>
<path d="M436.768 199.678C436.768 200.194 437.124 200.612 437.561 200.612C437.997 200.612 438.354 200.194 438.354 199.678C438.354 199.162 437.997 198.744 437.561 198.744C437.124 198.744 436.768 199.162 436.768 199.678Z" fill="white"/>
<path d="M437.561 204.606C437.999 204.606 438.354 204.187 438.354 203.672C438.354 203.156 437.999 202.738 437.561 202.738C437.123 202.738 436.768 203.156 436.768 203.672C436.768 204.187 437.123 204.606 437.561 204.606Z" fill="white"/>
<path d="M431.108 207.423H433.576V198.751H431.108V207.423Z" fill="#375A64"/>
<path d="M427.555 207.423H430.023V198.751H427.555V207.423Z" fill="#375A64"/>
<path d="M423.991 207.423H426.459V198.751H423.991V207.423Z" fill="#375A64"/>
<path d="M420.438 207.423H422.906V198.751H420.438V207.423Z" fill="#375A64"/>
<path d="M416.874 207.423H419.342V198.751H416.874V207.423Z" fill="#375A64"/>
<path d="M413.321 207.423H415.789V198.751H413.321V207.423Z" fill="#375A64"/>
<path d="M409.758 207.423H412.227V198.751H409.758V207.423Z" fill="#375A64"/>
<path d="M406.194 207.423H408.662V198.751H406.194V207.423Z" fill="#375A64"/>
<path d="M402.641 207.423H405.109V198.751H402.641V207.423Z" fill="#375A64"/>
<path d="M399.077 207.423H401.545V198.751H399.077V207.423Z" fill="#375A64"/>
<path d="M398.705 256.573H443.48V241.826H398.705V256.573Z" fill="#1A2E35"/>
<path d="M439.725 254.971H442.229V243.684H439.725V254.971Z" fill="#375A64"/>
<path d="M436.768 246.053C436.768 246.569 437.124 246.987 437.561 246.987C437.997 246.987 438.354 246.569 438.354 246.053C438.354 245.537 437.997 245.119 437.561 245.119C437.124 245.119 436.768 245.537 436.768 246.053Z" fill="white"/>
<path d="M436.768 250.047C436.768 250.563 437.124 250.981 437.561 250.981C437.997 250.981 438.354 250.563 438.354 250.047C438.354 249.531 437.997 249.113 437.561 249.113C437.124 249.113 436.768 249.531 436.768 250.047Z" fill="white"/>
<path d="M431.108 253.797H433.576V245.125H431.108V253.797Z" fill="#375A64"/>
<path d="M427.555 253.797H430.023V245.125H427.555V253.797Z" fill="#375A64"/>
<path d="M423.991 253.797H426.459V245.125H423.991V253.797Z" fill="#375A64"/>
<path d="M420.438 253.797H422.906V245.125H420.438V253.797Z" fill="#375A64"/>
<path d="M416.874 253.797H419.342V245.125H416.874V253.797Z" fill="#375A64"/>
<path d="M413.321 253.797H415.789V245.125H413.321V253.797Z" fill="#375A64"/>
<path d="M409.758 253.797H412.227V245.125H409.758V253.797Z" fill="#375A64"/>
<path d="M406.194 253.797H408.662V245.125H406.194V253.797Z" fill="#375A64"/>
<path d="M402.641 253.797H405.109V245.125H402.641V253.797Z" fill="#375A64"/>
<path d="M399.077 253.797H401.545V245.125H399.077V253.797Z" fill="#375A64"/>
<path d="M398.705 233.408H443.48V218.662H398.705V233.408Z" fill="#1A2E35"/>
<path d="M439.725 231.806H442.229V220.519H439.725V231.806Z" fill="#375A64"/>
<path d="M436.768 222.883C436.768 223.399 437.124 223.817 437.561 223.817C437.997 223.817 438.354 223.399 438.354 222.883C438.354 222.368 437.997 221.95 437.561 221.95C437.124 221.958 436.768 222.377 436.768 222.883Z" fill="white"/>
<path d="M436.768 226.877C436.768 227.393 437.124 227.811 437.561 227.811C437.997 227.811 438.354 227.393 438.354 226.877C438.354 226.361 437.997 225.943 437.561 225.943C437.124 225.943 436.768 226.361 436.768 226.877Z" fill="white"/>
<path d="M431.108 230.623H433.576V221.951H431.108V230.623Z" fill="#375A64"/>
<path d="M427.555 230.623H430.023V221.951H427.555V230.623Z" fill="#375A64"/>
<path d="M423.991 230.623H426.459V221.951H423.991V230.623Z" fill="#375A64"/>
<path d="M420.438 230.623H422.906V221.951H420.438V230.623Z" fill="#375A64"/>
<path d="M416.874 230.623H419.342V221.951H416.874V230.623Z" fill="#375A64"/>
<path d="M413.321 230.623H415.789V221.951H413.321V230.623Z" fill="#375A64"/>
<path d="M409.758 230.623H412.227V221.951H409.758V230.623Z" fill="#375A64"/>
<path d="M406.194 230.623H408.662V221.951H406.194V230.623Z" fill="#375A64"/>
<path d="M402.641 230.623H405.109V221.951H402.641V230.623Z" fill="#375A64"/>
<path d="M399.077 230.623H401.545V221.951H399.077V230.623Z" fill="#375A64"/>
<path d="M415.785 106.527C415.793 106.527 415.811 106.367 415.829 106.074C415.847 105.771 415.865 105.336 415.874 104.766C415.883 104.197 415.892 103.503 415.927 102.694C415.972 101.893 416.016 100.968 416.23 99.9989C416.471 99.0383 416.836 98.0066 417.424 97.046C418.003 96.0854 418.832 95.2315 419.883 94.7335C420.926 94.2265 422.129 94.0397 423.367 93.9063C424.615 93.7818 425.907 93.6483 427.226 93.5149C432.51 92.9813 437.304 92.6344 440.779 92.5632C442.516 92.5188 443.924 92.5366 444.895 92.5366C445.359 92.5454 445.733 92.5454 446.018 92.5543C446.277 92.5543 446.41 92.5454 446.41 92.5366C446.41 92.5277 446.277 92.5099 446.018 92.4832C445.733 92.4654 445.359 92.4387 444.895 92.4031C443.924 92.3587 442.516 92.3053 440.779 92.3231C437.295 92.332 432.492 92.6433 427.208 93.1769C425.889 93.3104 424.597 93.4438 423.35 93.5772C422.102 93.7106 420.881 93.9063 419.794 94.4488C418.698 94.9736 417.834 95.8808 417.246 96.8859C416.649 97.8821 416.275 98.9405 416.052 99.9367C415.838 100.942 415.811 101.876 415.785 102.685C415.767 103.494 415.776 104.188 415.776 104.757C415.776 105.3 415.785 105.736 415.785 106.065C415.776 106.367 415.776 106.527 415.785 106.527Z" fill="#1A2E35"/>
<path d="M429.373 106.527C429.382 106.527 429.391 106.376 429.4 106.1C429.4 105.78 429.409 105.371 429.409 104.864C429.409 104.33 429.409 103.672 429.462 102.925C429.525 102.178 429.623 101.306 430.015 100.497C430.407 99.6876 431.173 99.0828 432.038 98.6737C432.911 98.2734 433.945 98.1133 434.987 98.3179C435.504 98.4246 436.03 98.6203 436.511 98.9227C436.983 99.234 437.437 99.6609 437.696 100.23C437.972 100.799 437.981 101.502 437.696 102.08C437.42 102.658 436.921 103.112 436.35 103.263C435.78 103.423 435.183 103.192 434.782 102.729C434.372 102.276 434.114 101.627 434.078 100.977C434.025 100.328 434.23 99.7054 434.55 99.1895C434.862 98.6648 435.272 98.2467 435.736 97.9621C436.19 97.6597 436.707 97.6152 437.215 97.5174C437.723 97.4285 438.213 97.3484 438.685 97.2861C439.638 97.1616 440.529 97.0905 441.34 97.0549C442.971 96.9837 444.299 97.0104 445.207 97.0104C445.644 97.0104 445.992 97.0104 446.259 97.0104C446.5 97.0104 446.624 97.0015 446.624 96.9837C446.624 96.9748 446.5 96.957 446.259 96.9393C445.992 96.9215 445.644 96.9037 445.207 96.877C444.29 96.8325 442.971 96.7703 441.331 96.8147C440.512 96.8414 439.612 96.8948 438.649 97.0104C438.168 97.0638 437.678 97.1438 437.161 97.2239C436.903 97.2684 436.653 97.3128 436.386 97.3662C436.119 97.4285 435.851 97.5352 435.602 97.6864C435.103 97.9888 434.657 98.4424 434.31 99.0028C433.971 99.5453 433.722 100.266 433.784 101.004C433.829 101.733 434.105 102.445 434.577 102.97C435.04 103.494 435.744 103.779 436.404 103.583C437.054 103.405 437.616 102.898 437.928 102.24C438.257 101.582 438.248 100.71 437.928 100.079C437.625 99.4297 437.134 98.9672 436.627 98.647C436.11 98.3268 435.566 98.1222 435.014 98.0155C433.918 97.802 432.84 97.9799 431.931 98.4157C431.031 98.8516 430.238 99.4919 429.819 100.381C429.418 101.262 429.329 102.16 429.284 102.916C429.249 103.681 429.266 104.339 429.284 104.873C429.302 105.38 429.32 105.789 429.329 106.109C429.347 106.376 429.356 106.527 429.373 106.527Z" fill="#1A2E35"/>
<path d="M412.13 106.527C412.139 106.527 412.175 106.358 412.219 106.038C412.264 105.718 412.344 105.247 412.451 104.642C412.674 103.432 413.03 101.68 413.77 99.6432C414.501 97.6241 415.668 95.276 417.664 93.5238C418.635 92.6344 419.9 92.1452 421.237 91.9318C422.573 91.7094 423.99 91.7183 425.434 91.6649C431.217 91.5404 436.465 91.5671 440.261 91.3892C442.159 91.3091 443.692 91.2113 444.752 91.1224C445.26 91.069 445.661 91.0334 445.973 91.0067C446.249 90.9712 446.4 90.9534 446.4 90.9445C446.4 90.9356 446.249 90.9356 445.973 90.9445C445.67 90.9623 445.26 90.9801 444.752 90.9978C443.692 91.0423 442.159 91.1135 440.261 91.1579C436.465 91.2736 431.226 91.2024 425.434 91.3358C423.99 91.3803 422.565 91.3714 421.201 91.6116C419.838 91.825 418.519 92.3498 417.512 93.2837C416.514 94.1998 415.677 95.2316 415.044 96.3345C414.411 97.4285 413.948 98.5314 413.583 99.5631C412.861 101.636 412.531 103.405 412.344 104.624C412.246 105.238 412.193 105.718 412.157 106.038C412.13 106.358 412.121 106.527 412.13 106.527Z" fill="#1A2E35"/>
<path d="M399.311 85.9997H442.857V78.5996H399.311V85.9997Z" fill="#1A2E35"/>
<path d="M409.574 85.9976H433.285V82.2976H409.574V85.9976Z" fill="#375A64"/>
<path d="M381.551 232C381.542 232.036 382.032 232.089 382.87 232.374C383.698 232.667 384.892 233.21 386.158 234.259C386.79 234.784 387.441 235.442 388.002 236.27C388.296 236.679 388.546 237.141 388.76 237.639C388.956 238.146 389.116 238.698 389.232 239.285C389.731 241.624 389.579 244.292 389.481 247.085C389.383 249.869 389.535 252.644 390.479 254.877C390.925 255.988 391.557 256.931 392.252 257.661C392.956 258.381 393.714 258.906 394.436 259.279C395.157 259.653 395.852 259.875 396.476 259.991C397.1 260.089 397.643 260.115 398.08 260.071C398.517 260.026 398.855 259.964 399.078 259.884C399.301 259.813 399.417 259.777 399.417 259.76C399.408 259.715 398.944 259.893 398.071 259.937C397.634 259.964 397.109 259.92 396.503 259.804C395.897 259.671 395.22 259.439 394.516 259.057C393.812 258.674 393.081 258.159 392.413 257.447C391.745 256.736 391.148 255.828 390.72 254.743C389.82 252.582 389.668 249.869 389.766 247.103C389.864 244.328 390.016 241.615 389.49 239.214C389.357 238.618 389.205 238.048 388.982 237.515C388.751 236.999 388.483 236.519 388.18 236.101C387.583 235.256 386.915 234.597 386.265 234.073C384.955 233.032 383.734 232.516 382.887 232.258C382.46 232.134 382.121 232.063 381.889 232.036C381.667 232 381.551 231.982 381.551 232Z" fill="#1A2E35"/>
<path d="M398.05 262.556H401.623V257.468H398.05V262.556Z" fill="#1A2E35"/>
<path d="M361.5 244.848H381.549V219.152H361.5V244.848Z" fill="#375A64"/>
<path d="M371.527 239.818C375.173 239.818 378.129 236.362 378.129 232.098C378.129 227.834 375.173 224.378 371.527 224.378C367.88 224.378 364.924 227.834 364.924 232.098C364.924 236.362 367.88 239.818 371.527 239.818Z" fill="#1A2E35"/>
<path d="M371.525 235.958C373.346 235.958 374.822 234.23 374.822 232.098C374.822 229.966 373.346 228.238 371.525 228.238C369.705 228.238 368.229 229.966 368.229 232.098C368.229 234.23 369.705 235.958 371.525 235.958Z" fill="#375A64"/>
<path d="M378.227 223.141C378.227 223.542 378.503 223.862 378.841 223.862C379.18 223.862 379.456 223.542 379.456 223.141C379.456 222.741 379.18 222.421 378.841 222.421C378.494 222.421 378.227 222.741 378.227 223.141Z" fill="#1A2E35"/>
<path d="M363.953 223.141C363.953 223.542 364.229 223.862 364.568 223.862C364.907 223.862 365.183 223.542 365.183 223.141C365.183 222.741 364.907 222.421 364.568 222.421C364.229 222.421 363.953 222.741 363.953 223.141Z" fill="#1A2E35"/>
<path d="M364.433 242.834C364.773 242.834 365.048 242.511 365.048 242.113C365.048 241.715 364.773 241.393 364.433 241.393C364.094 241.393 363.818 241.715 363.818 242.113C363.818 242.511 364.094 242.834 364.433 242.834Z" fill="#1A2E35"/>
<path d="M378.227 242.407C378.227 242.807 378.503 243.127 378.841 243.127C379.18 243.127 379.456 242.807 379.456 242.407C379.456 242.006 379.18 241.686 378.841 241.686C378.494 241.695 378.227 242.015 378.227 242.407Z" fill="#1A2E35"/>
<path d="M359.885 244.848H361.498V219.152H359.885V244.848Z" fill="#1A2E35"/>
<path d="M338.378 263.789H77.2718C70.0988 263.789 64.2891 257.99 64.2891 250.83V48.5807C64.2891 44.7739 67.381 41.6876 71.1948 41.6876H345.346C348.661 41.6876 351.352 44.3737 351.352 47.6824V250.839C351.352 257.99 345.542 263.789 338.378 263.789Z" fill="#375A64"/>
<path d="M351.067 266.795H64.5124C57.7582 266.795 52.2871 261.334 52.2871 254.592V247.361H363.302V254.592C363.302 261.334 357.822 266.795 351.067 266.795Z" fill="#375A64"/>
<path d="M342.844 50.5108H71.998V238.075H342.844V50.5108Z" fill="#E1E1E1"/>
<path d="M179.521 247.361L183.389 254.539H237.69L241.272 247.361H179.521Z" fill="#1A2E35"/>
<path d="M335.465 61.3708H80.0352V238.066H335.465V61.3708Z" fill="#1A2E35"/>
<path d="M99.6293 232.881C99.4956 232.881 99.3887 195.249 99.3887 148.838C99.3887 102.409 99.4956 64.7863 99.6293 64.7863C99.7629 64.7863 99.8698 102.409 99.8698 148.838C99.8698 195.249 99.7629 232.881 99.6293 232.881Z" fill="#E1E1E1"/>
<path d="M94.4785 80.0223C94.4785 80.1735 92.6162 80.3069 90.3262 80.3069C88.0361 80.3069 86.1738 80.1824 86.1738 80.0223C86.1738 79.8711 88.0272 79.7377 90.3262 79.7377C92.6162 79.7466 94.4785 79.8711 94.4785 80.0223Z" fill="#E1E1E1"/>
<path d="M94.8007 70.4875C94.8007 70.6387 92.9473 70.7721 90.6484 70.7721C88.3584 70.7721 86.4961 70.6476 86.4961 70.4875C86.4961 70.3363 88.3495 70.2029 90.6484 70.2029C92.9384 70.2029 94.8007 70.3274 94.8007 70.4875Z" fill="#E1E1E1"/>
<path d="M94.4785 90.3041C94.4785 90.4553 92.6162 90.5888 90.3262 90.5888C88.0361 90.5888 86.1738 90.4642 86.1738 90.3041C86.1738 90.1529 88.0272 90.0195 90.3262 90.0195C92.6162 90.0284 94.4785 90.1529 94.4785 90.3041Z" fill="#E1E1E1"/>
<path d="M94.4785 100.586C94.4785 100.737 92.6162 100.871 90.3262 100.871C88.0361 100.871 86.1738 100.746 86.1738 100.586C86.1738 100.435 88.0272 100.31 90.3262 100.31C92.6162 100.301 94.4785 100.435 94.4785 100.586Z" fill="#E1E1E1"/>
<path d="M94.4785 110.868C94.4785 111.019 92.6162 111.153 90.3262 111.153C88.0361 111.153 86.1738 111.028 86.1738 110.868C86.1738 110.717 88.0272 110.583 90.3262 110.583C92.6162 110.583 94.4785 110.717 94.4785 110.868Z" fill="#E1E1E1"/>
<path d="M94.4785 121.15C94.4785 121.301 92.6162 121.434 90.3262 121.434C88.0361 121.434 86.1738 121.31 86.1738 121.15C86.1738 120.999 88.0272 120.865 90.3262 120.865C92.6162 120.865 94.4785 120.99 94.4785 121.15Z" fill="#E1E1E1"/>
<path d="M94.4785 131.432C94.4785 131.583 92.6162 131.716 90.3262 131.716C88.0361 131.716 86.1738 131.592 86.1738 131.432C86.1738 131.281 88.0272 131.147 90.3262 131.147C92.6162 131.147 94.4785 131.272 94.4785 131.432Z" fill="#E1E1E1"/>
<path d="M94.4785 141.714C94.4785 141.865 92.6162 141.998 90.3262 141.998C88.0361 141.998 86.1738 141.874 86.1738 141.714C86.1738 141.554 88.0272 141.429 90.3262 141.429C92.6162 141.429 94.4785 141.554 94.4785 141.714Z" fill="#E1E1E1"/>
<path d="M94.4785 151.996C94.4785 152.147 92.6162 152.28 90.3262 152.28C88.0361 152.28 86.1738 152.156 86.1738 151.996C86.1738 151.844 88.0272 151.72 90.3262 151.72C92.6162 151.711 94.4785 151.835 94.4785 151.996Z" fill="#E1E1E1"/>
<path d="M94.4785 162.277C94.4785 162.429 92.6162 162.562 90.3262 162.562C88.0361 162.562 86.1738 162.438 86.1738 162.277C86.1738 162.126 88.0272 161.993 90.3262 161.993C92.6162 161.993 94.4785 162.117 94.4785 162.277Z" fill="#E1E1E1"/>
<path d="M94.4785 172.55C94.4785 172.702 92.6162 172.826 90.3262 172.826C88.0361 172.826 86.1738 172.702 86.1738 172.55C86.1738 172.399 88.0272 172.266 90.3262 172.266C92.6162 172.275 94.4785 172.399 94.4785 172.55Z" fill="#E1E1E1"/>
<path d="M94.4785 182.832C94.4785 182.983 92.6162 183.117 90.3262 183.117C88.0361 183.117 86.1738 182.992 86.1738 182.832C86.1738 182.672 88.0272 182.548 90.3262 182.548C92.6162 182.557 94.4785 182.681 94.4785 182.832Z" fill="#E1E1E1"/>
<path d="M94.4785 193.114C94.4785 193.265 92.6162 193.399 90.3262 193.399C88.0361 193.399 86.1738 193.274 86.1738 193.114C86.1738 192.963 88.0272 192.83 90.3262 192.83C92.6162 192.838 94.4785 192.963 94.4785 193.114Z" fill="#E1E1E1"/>
<path d="M94.4785 203.396C94.4785 203.547 92.6162 203.681 90.3262 203.681C88.0361 203.681 86.1738 203.556 86.1738 203.396C86.1738 203.245 88.0272 203.111 90.3262 203.111C92.6162 203.12 94.4785 203.245 94.4785 203.396Z" fill="#E1E1E1"/>
<path d="M94.4785 213.678C94.4785 213.829 92.6162 213.963 90.3262 213.963C88.0361 213.963 86.1738 213.838 86.1738 213.678C86.1738 213.518 88.0272 213.393 90.3262 213.393C92.6162 213.402 94.4785 213.527 94.4785 213.678Z" fill="#E1E1E1"/>
<path d="M94.4785 223.96C94.4785 224.111 92.6162 224.244 90.3262 224.244C88.0361 224.244 86.1738 224.12 86.1738 223.96C86.1738 223.809 88.0272 223.675 90.3262 223.675C92.6162 223.684 94.4785 223.809 94.4785 223.96Z" fill="#E1E1E1"/>
<path d="M127.742 223.96C127.742 224.111 122.921 224.244 116.978 224.244C111.026 224.244 106.205 224.12 106.205 223.96C106.205 223.809 111.026 223.675 116.978 223.675C122.921 223.684 127.742 223.809 127.742 223.96Z" fill="#FF735D"/>
<path d="M135.183 78.4835C135.183 78.6347 130.363 78.7682 124.419 78.7682C118.467 78.7682 113.646 78.6436 113.646 78.4835C113.646 78.3323 118.467 78.1989 124.419 78.1989C130.363 78.2078 135.183 78.3323 135.183 78.4835Z" fill="#FF735D"/>
<path d="M157.735 100.586C157.735 100.737 148.718 100.871 137.588 100.871C126.459 100.871 117.441 100.746 117.441 100.586C117.441 100.435 126.459 100.31 137.588 100.31C148.709 100.301 157.735 100.435 157.735 100.586Z" fill="#FF735D"/>
<path d="M204.329 100.586C204.329 100.737 195.311 100.871 184.182 100.871C173.053 100.871 164.035 100.746 164.035 100.586C164.035 100.435 173.053 100.31 184.182 100.31C195.302 100.301 204.329 100.435 204.329 100.586Z" fill="#E1E1E1"/>
<path d="M186.517 110.868C186.517 111.019 173.222 111.153 156.827 111.153C140.422 111.153 127.137 111.028 127.137 110.868C127.137 110.717 140.431 110.583 156.827 110.583C173.222 110.583 186.517 110.717 186.517 110.868Z" fill="#E1E1E1"/>
<path d="M186.517 121.15C186.517 121.301 173.222 121.434 156.827 121.434C140.422 121.434 127.137 121.31 127.137 121.15C127.137 120.999 140.431 120.865 156.827 120.865C173.222 120.865 186.517 120.99 186.517 121.15Z" fill="#E1E1E1"/>
<path d="M227.39 151.996C227.39 152.147 214.095 152.28 197.7 152.28C181.295 152.28 168.01 152.156 168.01 151.996C168.01 151.844 181.304 151.72 197.7 151.72C214.095 151.711 227.39 151.835 227.39 151.996Z" fill="#E1E1E1"/>
<path d="M209.755 131.432C209.755 131.583 196.46 131.716 180.065 131.716C163.661 131.716 150.375 131.592 150.375 131.432C150.375 131.281 163.67 131.147 180.065 131.147C196.46 131.147 209.755 131.272 209.755 131.432Z" fill="#E1E1E1"/>
<path d="M282.323 131.432C282.323 131.583 269.029 131.716 252.633 131.716C236.229 131.716 222.943 131.592 222.943 131.432C222.943 131.281 236.238 131.147 252.633 131.147C269.029 131.147 282.323 131.272 282.323 131.432Z" fill="#E1E1E1"/>
<path d="M257.089 110.868C257.089 111.019 243.794 111.153 227.399 111.153C210.995 111.153 197.709 111.028 197.709 110.868C197.709 110.717 211.004 110.583 227.399 110.583C243.794 110.583 257.089 110.717 257.089 110.868Z" fill="#FAFAFA"/>
<path d="M298.103 151.996C298.103 152.147 284.808 152.28 268.413 152.28C252.008 152.28 238.723 152.156 238.723 151.996C238.723 151.844 252.017 151.72 268.413 151.72C284.808 151.711 298.103 151.835 298.103 151.996Z" fill="#FAFAFA"/>
<path d="M289.916 121.15C289.916 121.301 269.27 121.434 243.812 121.434C218.346 121.434 197.709 121.31 197.709 121.15C197.709 120.999 218.346 120.865 243.812 120.865C269.27 120.865 289.916 120.99 289.916 121.15Z" fill="#375A64"/>
<path d="M127.742 213.678C127.742 213.829 122.921 213.963 116.978 213.963C111.026 213.963 106.205 213.838 106.205 213.678C106.205 213.518 111.026 213.393 116.978 213.393C122.921 213.402 127.742 213.527 127.742 213.678Z" fill="#FAFAFA"/>
<path d="M138.408 131.432C138.408 131.583 133.587 131.716 127.644 131.716C121.692 131.716 116.871 131.592 116.871 131.432C116.871 131.281 121.692 131.147 127.644 131.147C133.587 131.147 138.408 131.272 138.408 131.432Z" fill="#FAFAFA"/>
<path d="M311.015 131.432C311.015 131.583 306.195 131.716 300.251 131.716C294.299 131.716 289.479 131.592 289.479 131.432C289.479 131.281 294.299 131.147 300.251 131.147C306.195 131.147 311.015 131.272 311.015 131.432Z" fill="#FF735D"/>
<path d="M157.735 172.497C157.735 172.648 148.718 172.782 137.588 172.782C126.459 172.782 117.441 172.657 117.441 172.497C117.441 172.346 126.459 172.212 137.588 172.212C148.709 172.212 157.735 172.337 157.735 172.497Z" fill="#FF735D"/>
<path d="M204.329 172.497C204.329 172.648 195.311 172.782 184.182 172.782C173.053 172.782 164.035 172.657 164.035 172.497C164.035 172.346 173.053 172.212 184.182 172.212C195.302 172.212 204.329 172.337 204.329 172.497Z" fill="#E1E1E1"/>
<path d="M186.517 182.779C186.517 182.93 173.222 183.064 156.827 183.064C140.422 183.064 127.137 182.939 127.137 182.779C127.137 182.628 140.431 182.494 156.827 182.494C173.222 182.494 186.517 182.619 186.517 182.779Z" fill="#E1E1E1"/>
<path d="M186.517 193.061C186.517 193.212 173.222 193.345 156.827 193.345C140.422 193.345 127.137 193.221 127.137 193.061C127.137 192.91 140.431 192.776 156.827 192.776C173.222 192.776 186.517 192.901 186.517 193.061Z" fill="#E1E1E1"/>
<path d="M209.755 203.334C209.755 203.485 196.46 203.618 180.065 203.618C163.661 203.618 150.375 203.494 150.375 203.334C150.375 203.183 163.67 203.049 180.065 203.049C196.46 203.058 209.755 203.183 209.755 203.334Z" fill="#E1E1E1"/>
<path d="M282.323 203.334C282.323 203.485 269.029 203.618 252.633 203.618C236.229 203.618 222.943 203.494 222.943 203.334C222.943 203.183 236.238 203.049 252.633 203.049C269.029 203.058 282.323 203.183 282.323 203.334Z" fill="#E1E1E1"/>
<path d="M197.183 213.42C197.183 213.571 183.888 213.705 167.493 213.705C151.088 213.705 137.803 213.58 137.803 213.42C137.803 213.269 151.097 213.135 167.493 213.135C183.888 213.135 197.183 213.269 197.183 213.42Z" fill="#E1E1E1"/>
<path d="M176.634 87.618C176.634 87.7693 163.339 87.9027 146.944 87.9027C130.54 87.9027 117.254 87.7781 117.254 87.618C117.254 87.4668 130.548 87.3334 146.944 87.3334C163.339 87.3423 176.634 87.4668 176.634 87.618Z" fill="#E1E1E1"/>
<path d="M257.089 182.779C257.089 182.93 243.794 183.064 227.399 183.064C210.995 183.064 197.709 182.939 197.709 182.779C197.709 182.628 211.004 182.494 227.399 182.494C243.794 182.494 257.089 182.619 257.089 182.779Z" fill="#FAFAFA"/>
<path d="M289.916 193.061C289.916 193.212 269.27 193.345 243.812 193.345C218.346 193.345 197.709 193.221 197.709 193.061C197.709 192.91 218.346 192.776 243.812 192.776C269.27 192.776 289.916 192.901 289.916 193.061Z" fill="#375A64"/>
<path d="M138.408 203.334C138.408 203.485 133.587 203.618 127.644 203.618C121.692 203.618 116.871 203.494 116.871 203.334C116.871 203.183 121.692 203.049 127.644 203.049C133.587 203.058 138.408 203.183 138.408 203.334Z" fill="#FAFAFA"/>
<path d="M311.015 203.334C311.015 203.485 306.195 203.618 300.251 203.618C294.299 203.618 289.479 203.494 289.479 203.334C289.479 203.183 294.299 203.049 300.251 203.049C306.195 203.058 311.015 203.183 311.015 203.334Z" fill="#FF735D"/>
<path d="M229.279 12.1317C229.279 12.1317 229.27 11.8738 229.261 11.3757C229.261 10.8687 229.252 10.1216 229.243 9.15208C229.234 8.1737 229.234 6.96406 229.225 5.54096C229.207 4.82941 229.279 4.02892 229.555 3.26401C229.84 2.49909 230.286 1.74307 230.927 1.18272C231.56 0.60459 232.38 0.213237 233.28 0.142082C234.171 0.106505 235.088 0.124294 236.051 0.115399C237.984 0.106505 240.078 0.106505 242.324 0.0976107C246.833 0.0887163 251.956 0.0798219 257.623 0.0709276C280.31 0.0531388 311.63 0.0353501 346.23 0.00866699C363.534 0.0175614 380.019 0.0175614 395.015 0.0264557C398.767 0.0264557 402.42 0.0353501 405.966 0.0353501C406.412 0.0353501 406.849 0.0353501 407.294 0.0353501C407.731 0.0442445 408.185 0.0175614 408.631 0.124294C409.522 0.31997 410.341 0.844738 410.974 1.58297C411.598 2.3301 412.026 3.28179 412.177 4.29575C412.266 4.80273 412.248 5.3186 412.257 5.7989C412.257 6.28809 412.257 6.77728 412.257 7.26647C412.248 15.0668 412.239 22.3335 412.239 28.9687C412.213 42.2302 412.195 52.9568 412.186 60.3925C412.168 64.0926 412.159 66.9744 412.15 68.9311C412.141 69.9006 412.132 70.6388 412.132 71.1547C412.124 71.6528 412.115 71.9107 412.115 71.9107C412.115 71.9107 412.106 71.6528 412.097 71.1547C412.097 70.6477 412.088 69.9006 412.079 68.9311C412.07 66.9655 412.061 64.0926 412.043 60.3925C412.034 52.9657 412.008 42.2302 411.99 28.9687C411.981 22.3335 411.972 15.0668 411.972 7.26647C411.972 6.77728 411.972 6.28809 411.972 5.7989C411.972 5.30082 411.981 4.82052 411.901 4.35801C411.749 3.41521 411.357 2.52577 410.769 1.83201C410.181 1.14715 409.415 0.657956 408.586 0.480068C408.176 0.38223 407.748 0.400019 407.303 0.400019C406.866 0.400019 406.421 0.400019 405.975 0.400019C402.42 0.400019 398.767 0.408914 395.024 0.408914C380.028 0.417808 363.543 0.417808 346.239 0.426702C311.639 0.400019 280.318 0.38223 257.632 0.364442C251.965 0.355547 246.833 0.346653 242.333 0.337759C240.078 0.328864 237.984 0.328864 236.06 0.31997C235.097 0.328864 234.171 0.293287 233.297 0.328864C232.433 0.391125 231.64 0.764688 231.016 1.31614C230.384 1.8587 229.947 2.58803 229.671 3.32627C229.403 4.08229 229.323 4.83831 229.332 5.54986C229.323 6.97296 229.323 8.18259 229.314 9.16097C229.305 10.1305 229.296 10.8687 229.296 11.3846C229.296 11.8738 229.279 12.1317 229.279 12.1317Z" fill="#1A2E35"/>
<path d="M413.844 71.9018C413.844 73.0136 413.077 73.912 412.124 73.912C411.18 73.912 410.404 73.0136 410.404 71.9018C410.404 70.79 411.171 69.8917 412.124 69.8917C413.077 69.8917 413.844 70.79 413.844 71.9018Z" fill="#1A2E35"/>
<path d="M230.998 12.1317C230.998 13.2435 230.232 14.1418 229.278 14.1418C228.334 14.1418 227.559 13.2435 227.559 12.1317C227.559 11.0199 228.325 10.1216 229.278 10.1216C230.232 10.1216 230.998 11.0199 230.998 12.1317Z" fill="#1A2E35"/>
<path d="M140.742 20.6612V192.589H272.806H289.237H384.188V20.6612H140.742Z" fill="#FAFAFA"/>
<path d="M384.179 20.6612H140.742V33.3712H384.179V20.6612Z" fill="#E1E1E1"/>
<path d="M146.988 28.8885C147.765 28.8885 148.396 28.1478 148.396 27.2341C148.396 26.3205 147.765 25.5798 146.988 25.5798C146.21 25.5798 145.58 26.3205 145.58 27.2341C145.58 28.1478 146.21 28.8885 146.988 28.8885Z" fill="#1A2E35"/>
<path d="M153.654 27.2341C153.654 28.1502 153.021 28.8885 152.246 28.8885C151.471 28.8885 150.838 28.1502 150.838 27.2341C150.838 26.318 151.471 25.5798 152.246 25.5798C153.021 25.5887 153.654 26.3269 153.654 27.2341Z" fill="#1A2E35"/>
<path d="M158.902 27.2341C158.902 28.1502 158.269 28.8885 157.494 28.8885C156.719 28.8885 156.086 28.1502 156.086 27.2341C156.086 26.318 156.719 25.5798 157.494 25.5798C158.269 25.5798 158.902 26.3269 158.902 27.2341Z" fill="#1A2E35"/>
<path d="M258.744 48.0203C258.744 48.1181 253.772 48.1892 247.65 48.1892C241.52 48.1892 236.557 48.1092 236.557 48.0203C236.557 47.9313 241.52 47.8513 247.65 47.8513C253.781 47.8424 258.744 47.9224 258.744 48.0203Z" fill="#1A2E35"/>
<path d="M288.266 48.0203C288.266 48.1181 283.293 48.1892 277.172 48.1892C271.041 48.1892 266.078 48.1092 266.078 48.0203C266.078 47.9313 271.041 47.8513 277.172 47.8513C283.293 47.8424 288.266 47.9224 288.266 48.0203Z" fill="#FF735D"/>
<path d="M317.777 48.0203C317.777 48.1181 312.805 48.1892 306.683 48.1892C300.553 48.1892 295.59 48.1092 295.59 48.0203C295.59 47.9313 300.553 47.8513 306.683 47.8513C312.814 47.8424 317.777 47.9224 317.777 48.0203Z" fill="#1A2E35"/>
<path d="M347.556 48.0203C347.556 48.1181 342.584 48.1892 336.463 48.1892C330.332 48.1892 325.369 48.1092 325.369 48.0203C325.369 47.9313 330.332 47.8513 336.463 47.8513C342.584 47.8424 347.556 47.9224 347.556 48.0203Z" fill="#1A2E35"/>
<path d="M373.424 52.1472C373.424 52.1294 373.611 52.1383 373.95 52.0405C374.28 51.9427 374.788 51.7114 375.224 51.1244C375.438 50.8309 375.634 50.4573 375.732 50.0037C375.848 49.559 375.812 49.0431 375.812 48.4739C375.75 47.3887 376.035 45.9745 375.189 44.9339C374.805 44.4269 374.235 44.0711 373.611 44.0267C372.97 44.0089 372.275 44.0267 371.571 44.0267C370.154 44.0356 368.639 44.0356 367.053 44.0445C363.872 44.0445 360.37 44.0534 356.699 44.0623C355.826 44.0534 355.006 44.6671 354.623 45.5476C354.427 45.9923 354.356 46.4726 354.365 46.9796C354.365 47.4955 354.365 48.0025 354.365 48.5094C354.373 49.0253 354.338 49.5145 354.445 49.9592C354.543 50.4128 354.757 50.822 355.024 51.16C355.3 51.4891 355.639 51.7292 356.004 51.8626C356.369 52.0049 356.753 51.9871 357.162 51.9871C360.335 52.0049 363.204 52.0138 365.619 52.0227C368.007 52.0494 369.949 52.0672 371.321 52.0761C371.972 52.0939 372.489 52.1028 372.872 52.1117C373.032 52.1206 373.166 52.1206 373.273 52.1294C373.38 52.1294 373.424 52.1383 373.424 52.1472C373.424 52.1561 373.38 52.1561 373.291 52.165C373.184 52.1739 373.05 52.1739 372.89 52.1828C372.515 52.1917 371.99 52.2006 371.339 52.2184C369.967 52.2273 368.024 52.254 365.636 52.2718C363.222 52.2807 360.361 52.2984 357.18 52.3073C356.797 52.3073 356.361 52.334 355.942 52.1739C355.532 52.0227 355.149 51.7559 354.837 51.3912C354.534 51.0176 354.293 50.564 354.177 50.0482C354.115 49.7991 354.097 49.5323 354.088 49.2655C354.088 49.0164 354.088 48.7585 354.088 48.5094C354.088 48.0025 354.088 47.4955 354.088 46.9796C354.071 46.4548 354.151 45.8856 354.373 45.3964C354.801 44.4002 355.728 43.7154 356.708 43.7243C360.379 43.7332 363.872 43.7332 367.062 43.7421C368.648 43.751 370.163 43.751 371.58 43.7598C372.293 43.7687 372.961 43.751 373.638 43.7776C374.324 43.8399 374.948 44.2401 375.358 44.7916C375.768 45.343 375.991 46.0368 375.999 46.695C375.999 47.3265 375.991 47.9313 375.991 48.4916C375.982 49.0431 376.008 49.5857 375.884 50.066C375.768 50.5462 375.554 50.9287 375.331 51.2311C374.859 51.827 374.324 52.0494 373.986 52.1294C373.611 52.1828 373.424 52.1472 373.424 52.1472Z" fill="#1A2E35"/>
<path d="M190.25 54.193H165.559C162.672 54.193 160.328 51.8537 160.328 48.972V48.6162C160.328 45.7344 162.672 43.3952 165.559 43.3952H190.25C193.137 43.3952 195.48 45.7344 195.48 48.6162V48.972C195.48 51.8626 193.137 54.193 190.25 54.193Z" fill="#E1E1E1"/>
<path d="M213.176 79.2039H161.396V137.818H213.176V79.2039Z" fill="#FF735D"/>
<g opacity="0.3">
<g opacity="0.3">
<g opacity="0.3">
<g opacity="0.3">
<path opacity="0.3" d="M165.416 132.792L179.735 102.641L191.453 121.915L198.572 111.677L209.167 132.792H165.416Z" fill="black"/>
</g>
</g>
</g>
</g>
<g opacity="0.3">
<g opacity="0.3">
<g opacity="0.3">
<g opacity="0.3">
<path opacity="0.3" d="M196.441 96.7703C196.441 99.1807 194.775 101.129 192.717 101.129C190.658 101.129 188.992 99.1807 188.992 96.7703C188.992 94.3599 190.658 92.412 192.717 92.412C194.775 92.412 196.441 94.3599 196.441 96.7703Z" fill="black"/>
</g>
</g>
</g>
</g>
<path opacity="0.3" d="M209.167 83.8112C196.496 83.8023 181.473 83.7845 165.425 83.7667C165.469 83.7045 164.952 84.3182 165.175 84.0602V84.0691V84.0958V84.1492V84.2559V84.4694V84.8874V85.7235V87.3867C165.175 88.4985 165.175 89.6014 165.175 90.6954C165.175 92.8924 165.175 95.0715 165.175 97.2239C165.175 101.529 165.175 105.745 165.184 109.854C165.193 118.063 165.202 125.819 165.211 132.961V133.211H165.425C178.541 133.157 189.492 133.113 197.191 133.086C200.996 133.059 203.99 133.033 206.066 133.024C207.064 133.015 207.839 132.997 208.391 132.997C208.641 132.988 208.828 132.988 208.979 132.979C209.113 132.97 209.176 132.97 209.167 132.961C209.167 132.953 209.086 132.953 208.953 132.944C208.792 132.944 208.596 132.935 208.338 132.926C207.777 132.917 206.992 132.908 205.968 132.899C203.883 132.881 200.871 132.864 197.048 132.837C189.421 132.81 178.594 132.766 165.63 132.712C165.638 125.641 165.647 117.966 165.656 109.854C165.656 105.745 165.656 101.529 165.665 97.2239C165.665 95.0715 165.665 92.8924 165.665 90.6954C165.665 89.6014 165.665 88.4985 165.665 87.3867V85.7235V84.8874V84.4694V84.3449C181.544 84.3271 196.398 84.3182 208.953 84.3004C208.997 98.8249 209.033 110.93 209.06 119.442C209.086 123.711 209.104 127.073 209.113 129.395C209.122 130.524 209.131 131.405 209.14 132.036C209.149 132.321 209.149 132.543 209.149 132.721C209.149 132.873 209.158 132.961 209.158 132.961C209.167 132.97 209.167 132.89 209.167 132.748C209.167 132.579 209.176 132.366 209.176 132.09C209.184 131.476 209.193 130.613 209.202 129.502C209.211 127.189 209.238 123.845 209.256 119.602C209.282 111.001 209.318 98.7626 209.363 84.0602V83.8112H209.167Z" fill="black"/>
<path d="M206.688 146.81C206.688 146.926 197.983 147.015 187.246 147.015C176.508 147.015 167.803 146.926 167.803 146.81C167.803 146.694 176.508 146.605 187.246 146.605C197.983 146.605 206.688 146.703 206.688 146.81Z" fill="#1A2E35"/>
<path d="M214.477 153.605C214.477 153.721 202.6 153.81 187.951 153.81C173.302 153.81 161.424 153.721 161.424 153.605C161.424 153.49 173.302 153.401 187.951 153.401C202.6 153.401 214.477 153.49 214.477 153.605Z" fill="#1A2E35"/>
<path d="M214.477 160.178C214.477 160.294 202.6 160.383 187.951 160.383C173.302 160.383 161.424 160.294 161.424 160.178C161.424 160.063 173.302 159.974 187.951 159.974C202.6 159.974 214.477 160.063 214.477 160.178Z" fill="#1A2E35"/>
<path d="M214.477 166.742C214.477 166.858 202.6 166.947 187.951 166.947C173.302 166.947 161.424 166.858 161.424 166.742C161.424 166.627 173.302 166.538 187.951 166.538C202.6 166.538 214.477 166.636 214.477 166.742Z" fill="#1A2E35"/>
<path d="M183.317 173.315C183.317 173.431 178.416 173.52 172.375 173.52C166.325 173.52 161.424 173.431 161.424 173.315C161.424 173.2 166.325 173.111 172.375 173.111C178.416 173.111 183.317 173.208 183.317 173.315Z" fill="#1A2E35"/>
<path d="M288.506 79.2039H236.727V137.818H288.506V79.2039Z" fill="#FF735D"/>
<g opacity="0.3">
<g opacity="0.3">
<g opacity="0.3">
<g opacity="0.3">
<path opacity="0.3" d="M240.746 132.792L255.065 102.641L266.783 121.915L273.902 111.677L284.497 132.792H240.746Z" fill="black"/>
</g>
</g>
</g>
</g>
<g opacity="0.3">
<g opacity="0.3">
<g opacity="0.3">
<g opacity="0.3">
<path opacity="0.3" d="M271.771 96.7703C271.771 99.1807 270.105 101.129 268.047 101.129C265.989 101.129 264.322 99.1807 264.322 96.7703C264.322 94.3599 265.989 92.412 268.047 92.412C270.105 92.412 271.771 94.3599 271.771 96.7703Z" fill="black"/>
</g>
</g>
</g>
</g>
<path opacity="0.3" d="M284.497 83.8112C271.826 83.8023 256.803 83.7845 240.755 83.7667C240.799 83.7045 240.282 84.3182 240.505 84.0602V84.0691V84.0958V84.1492V84.2559V84.4694V84.8874V85.7235V87.3867C240.505 88.4985 240.505 89.6014 240.505 90.6954C240.505 92.8924 240.505 95.0715 240.505 97.2239C240.505 101.529 240.505 105.745 240.514 109.854C240.523 118.063 240.532 125.819 240.541 132.961V133.211H240.755C253.871 133.157 264.822 133.113 272.521 133.086C276.326 133.059 279.32 133.033 281.396 133.024C282.394 133.015 283.169 132.997 283.721 132.997C283.971 132.988 284.158 132.988 284.31 132.979C284.443 132.97 284.506 132.97 284.497 132.961C284.497 132.953 284.416 132.953 284.283 132.944C284.122 132.944 283.926 132.935 283.668 132.926C283.107 132.917 282.323 132.908 281.298 132.899C279.213 132.881 276.201 132.864 272.378 132.837C264.751 132.81 253.925 132.766 240.96 132.712C240.969 125.641 240.977 117.966 240.986 109.854C240.986 105.745 240.986 101.529 240.995 97.2239C240.995 95.0715 240.995 92.8924 240.995 90.6954C240.995 89.6014 240.995 88.4985 240.995 87.3867V85.7235V84.8874V84.4694V84.3449C256.874 84.3271 271.728 84.3182 284.283 84.3004C284.327 98.8249 284.363 110.93 284.39 119.442C284.416 123.711 284.434 127.073 284.443 129.395C284.452 130.524 284.461 131.405 284.47 132.036C284.479 132.321 284.479 132.543 284.479 132.721C284.479 132.873 284.488 132.961 284.488 132.961C284.497 132.97 284.497 132.89 284.497 132.748C284.497 132.579 284.506 132.366 284.506 132.09C284.515 131.476 284.523 130.613 284.532 129.502C284.541 127.189 284.568 123.845 284.586 119.602C284.613 111.001 284.648 98.7626 284.693 84.0602V83.8112H284.497Z" fill="black"/>
<path d="M282.019 146.81C282.019 146.926 273.313 147.015 262.576 147.015C251.838 147.015 243.133 146.926 243.133 146.81C243.133 146.694 251.838 146.605 262.576 146.605C273.313 146.605 282.019 146.703 282.019 146.81Z" fill="#1A2E35"/>
<path d="M289.807 153.605C289.807 153.721 277.93 153.81 263.281 153.81C248.632 153.81 236.754 153.721 236.754 153.605C236.754 153.49 248.632 153.401 263.281 153.401C277.93 153.401 289.807 153.49 289.807 153.605Z" fill="#1A2E35"/>
<path d="M289.807 160.178C289.807 160.294 277.93 160.383 263.281 160.383C248.632 160.383 236.754 160.294 236.754 160.178C236.754 160.063 248.632 159.974 263.281 159.974C277.93 159.974 289.807 160.063 289.807 160.178Z" fill="#1A2E35"/>
<path d="M289.807 166.742C289.807 166.858 277.93 166.947 263.281 166.947C248.632 166.947 236.754 166.858 236.754 166.742C236.754 166.627 248.632 166.538 263.281 166.538C277.93 166.538 289.807 166.636 289.807 166.742Z" fill="#1A2E35"/>
<path d="M258.647 173.315C258.647 173.431 253.746 173.52 247.705 173.52C241.655 173.52 236.754 173.431 236.754 173.315C236.754 173.2 241.655 173.111 247.705 173.111C253.746 173.111 258.647 173.208 258.647 173.315Z" fill="#1A2E35"/>
<path d="M362.438 79.2039H310.658V137.818H362.438V79.2039Z" fill="#FF735D"/>
<g opacity="0.3">
<g opacity="0.3">
<g opacity="0.3">
<g opacity="0.3">
<path opacity="0.3" d="M314.678 132.792L328.997 102.641L340.714 121.915L347.834 111.677L358.429 132.792H314.678Z" fill="black"/>
</g>
</g>
</g>
</g>
<g opacity="0.3">
<g opacity="0.3">
<g opacity="0.3">
<g opacity="0.3">
<path opacity="0.3" d="M345.703 96.7703C345.703 99.1807 344.037 101.129 341.979 101.129C339.92 101.129 338.254 99.1807 338.254 96.7703C338.254 94.3599 339.92 92.412 341.979 92.412C344.037 92.412 345.703 94.3599 345.703 96.7703Z" fill="black"/>
</g>
</g>
</g>
</g>
<path opacity="0.3" d="M358.428 83.8112C345.757 83.8023 330.734 83.7845 314.686 83.7667C314.731 83.7045 314.214 84.3182 314.437 84.0602V84.0691V84.0958V84.1492V84.2559V84.4694V84.8874V85.7235V87.3867C314.437 88.4985 314.437 89.6014 314.437 90.6954C314.437 92.8924 314.437 95.0715 314.437 97.2239C314.437 101.529 314.437 105.745 314.446 109.854C314.455 118.063 314.464 125.819 314.473 132.961V133.211H314.686C327.803 133.157 338.754 133.113 346.453 133.086C350.257 133.059 353.251 133.033 355.327 133.024C356.325 133.015 357.101 132.997 357.653 132.997C357.903 132.988 358.09 132.988 358.241 132.979C358.375 132.97 358.437 132.97 358.428 132.961C358.428 132.953 358.348 132.953 358.214 132.944C358.054 132.944 357.858 132.935 357.6 132.926C357.038 132.917 356.254 132.908 355.229 132.899C353.144 132.881 350.133 132.864 346.31 132.837C338.683 132.81 327.856 132.766 314.891 132.712C314.9 125.641 314.909 117.966 314.918 109.854C314.918 105.745 314.918 101.529 314.927 97.2239C314.927 95.0715 314.927 92.8924 314.927 90.6954C314.927 89.6014 314.927 88.4985 314.927 87.3867V85.7235V84.8874V84.4694V84.3449C330.806 84.3271 345.659 84.3182 358.214 84.3004C358.259 98.8249 358.295 110.93 358.321 119.442C358.348 123.711 358.366 127.073 358.375 129.395C358.384 130.524 358.393 131.405 358.402 132.036C358.411 132.321 358.411 132.543 358.411 132.721C358.411 132.873 358.419 132.961 358.419 132.961C358.419 132.97 358.428 132.89 358.428 132.748C358.428 132.579 358.437 132.366 358.437 132.09C358.446 131.476 358.455 130.613 358.464 129.502C358.473 127.189 358.5 123.845 358.517 119.602C358.544 111.001 358.58 98.7626 358.624 84.0602V83.8112H358.428Z" fill="black"/>
<path d="M355.95 146.81C355.95 146.926 347.245 147.015 336.507 147.015C325.77 147.015 317.064 146.926 317.064 146.81C317.064 146.694 325.77 146.605 336.507 146.605C347.245 146.605 355.95 146.703 355.95 146.81Z" fill="#1A2E35"/>
<path d="M363.739 153.605C363.739 153.721 351.861 153.81 337.212 153.81C322.563 153.81 310.686 153.721 310.686 153.605C310.686 153.49 322.563 153.401 337.212 153.401C351.861 153.401 363.739 153.49 363.739 153.605Z" fill="#1A2E35"/>
<path d="M363.739 160.178C363.739 160.294 351.861 160.383 337.212 160.383C322.563 160.383 310.686 160.294 310.686 160.178C310.686 160.063 322.563 159.974 337.212 159.974C351.861 159.974 363.739 160.063 363.739 160.178Z" fill="#1A2E35"/>
<path d="M363.739 166.742C363.739 166.858 351.861 166.947 337.212 166.947C322.563 166.947 310.686 166.858 310.686 166.742C310.686 166.627 322.563 166.538 337.212 166.538C351.861 166.538 363.739 166.636 363.739 166.742Z" fill="#1A2E35"/>
<path d="M332.579 173.315C332.579 173.431 327.678 173.52 321.637 173.52C315.586 173.52 310.686 173.431 310.686 173.315C310.686 173.2 315.586 173.111 321.637 173.111C327.678 173.111 332.579 173.208 332.579 173.315Z" fill="#1A2E35"/>
<path d="M384.189 61.5486C384.189 61.6642 329.736 61.7532 262.577 61.7532C195.401 61.7532 140.957 61.6642 140.957 61.5486C140.957 61.433 195.401 61.3441 262.577 61.3441C329.736 61.3441 384.189 61.4419 384.189 61.5486Z" fill="#E1E1E1"/>
<path d="M140.742 20.6612C142.204 20.6612 241.351 20.5812 384.179 20.4744H384.339V20.6612C384.339 73.556 384.348 131.672 384.348 192.572V192.589V192.794H384.17C291.571 192.776 206.511 192.758 140.733 192.749H140.6V192.589C140.698 87.2622 140.742 21.942 140.742 20.6612C140.742 21.942 140.796 87.2622 140.876 192.598L140.742 192.438C206.52 192.429 291.58 192.411 384.179 192.394L384.001 192.598V192.58C384.01 131.681 384.01 73.5649 384.01 20.6701L384.17 20.8569C241.351 20.7324 142.204 20.6612 140.742 20.6612Z" fill="#1A2E35"/>
<path d="M180.59 110.29L165.736 133.416H209.398L196.345 115.182L188.693 122.742L180.59 110.29Z" fill="#B35041"/>
<path d="M256.331 110.29L241.477 133.416H285.138L272.085 115.182L264.433 122.742L256.331 110.29Z" fill="#B35041"/>
<path d="M329.397 111.18L314.543 134.305H358.205L345.151 116.071L337.499 123.632L329.397 111.18Z" fill="#B35041"/>
<path d="M34.8136 108.689H3.86719C1.72865 108.689 0 106.661 0 104.162V54.0508C0 51.5515 1.73756 49.5236 3.86719 49.5236H23.4883L38.6808 67.846V104.171C38.6897 106.661 36.9521 108.689 34.8136 108.689Z" fill="#FF735D"/>
<g opacity="0.2">
<g opacity="0.2">
<path opacity="0.2" d="M30.6524 108.689H8.15317C3.65333 108.689 0 105.042 0 100.551V90.7401H38.6897V100.675C38.6897 105.096 35.0898 108.689 30.6524 108.689Z" fill="black"/>
</g>
</g>
<g opacity="0.2">
<g opacity="0.2">
<path opacity="0.2" d="M23.498 49.5236V63.63C23.498 65.9603 25.1109 67.846 27.0979 67.846H38.6906L23.498 49.5236Z" fill="white"/>
</g>
</g>
<g opacity="0.2">
<g opacity="0.2">
<path opacity="0.2" d="M23.6573 64.8574C23.6573 64.8574 23.5058 68.2818 26.8295 69.4024C26.9542 69.4469 27.079 69.4736 27.2126 69.5003C28.7274 69.8205 38.6894 71.8929 38.6894 71.626C38.6894 71.3325 38.6894 67.837 38.6894 67.837H27.0968C27.0968 67.837 24.2009 67.7214 23.6573 64.8574Z" fill="black"/>
</g>
</g>
<path d="M11.0762 98.5582C11.0762 96.4324 12.4662 94.9204 14.3464 94.9204C15.3889 94.9204 16.2532 95.3651 16.8235 96.1656L15.9324 97.1351C15.5315 96.5925 15.0236 96.3079 14.4176 96.3079C13.2949 96.3079 12.493 97.2329 12.493 98.5582C12.493 99.8835 13.2949 100.808 14.4176 100.808C15.0236 100.808 15.5225 100.524 15.9324 99.9724L16.8235 100.942C16.2532 101.76 15.3889 102.196 14.3374 102.196C12.4662 102.196 11.0762 100.684 11.0762 98.5582Z" fill="#FAFAFA"/>
<path d="M17.2246 101.387L17.6969 100.159C18.2048 100.595 18.9622 100.897 19.6839 100.897C20.5126 100.897 20.8423 100.577 20.8423 100.141C20.8423 98.825 17.3404 99.7323 17.3404 97.1173C17.3404 95.9166 18.1691 94.9204 19.88 94.9204C20.6374 94.9204 21.4126 95.1339 21.965 95.543L21.5373 96.7793C20.976 96.4058 20.4057 96.2279 19.871 96.2279C19.0424 96.2279 18.7305 96.5925 18.7305 97.0284C18.7305 98.3269 22.2324 97.4286 22.2324 100.017C22.2324 101.191 21.3948 102.196 19.6839 102.196C18.7216 102.196 17.7592 101.867 17.2246 101.387Z" fill="#FAFAFA"/>
<path d="M22.7051 101.387L23.1773 100.159C23.6852 100.595 24.4426 100.897 25.1644 100.897C25.9931 100.897 26.3228 100.577 26.3228 100.141C26.3228 98.825 22.8209 99.7323 22.8209 97.1173C22.8209 95.9166 23.6496 94.9204 25.3604 94.9204C26.1178 94.9204 26.893 95.1339 27.4455 95.543L27.0178 96.7793C26.4564 96.4058 25.8862 96.2279 25.3515 96.2279C24.5228 96.2279 24.211 96.5925 24.211 97.0284C24.211 98.3269 27.7128 97.4286 27.7128 100.017C27.7128 101.191 26.8752 102.196 25.1644 102.196C24.2021 102.196 23.2397 101.867 22.7051 101.387Z" fill="#FAFAFA"/>
<path d="M13.0361 75.7797C13.6688 76.0021 13.9628 76.4735 13.9628 77.5942V80.1824C13.9628 80.9384 14.2925 81.3832 14.9697 81.3832H15.2192V83.3577H14.4172C12.6886 83.3577 11.8065 82.326 11.8065 80.467V77.5408C11.8065 77.0249 11.5748 76.7759 11.2005 76.7759H10.7461V74.8013H11.2005C11.5748 74.8013 11.8065 74.5612 11.8065 74.0453V71.1191C11.8065 69.2601 12.6886 68.2284 14.4172 68.2284H15.2192V70.2029H14.9697C14.2925 70.2029 13.9628 70.6388 13.9628 71.4037V73.9919C13.9628 75.0771 13.6777 75.5485 13.0361 75.7797Z" fill="#FAFAFA"/>
<path d="M27.9438 74.7924V76.767H27.4894C27.1151 76.767 26.8835 77.0071 26.8835 77.5319V80.4581C26.8835 82.3171 26.0013 83.3488 24.2727 83.3488H23.4707V81.3743H23.7202C24.3974 81.3743 24.7271 80.9384 24.7271 80.1735V77.5853C24.7271 76.4735 25.0211 76.0021 25.6538 75.7708C25.0211 75.5485 24.7271 75.0771 24.7271 73.9564V71.3681C24.7271 70.6032 24.3974 70.1674 23.7202 70.1674H23.4707V68.1928H24.2727C26.0013 68.1928 26.8835 69.2246 26.8835 71.0835V74.0097C26.8835 74.5256 27.1151 74.7657 27.4894 74.7657H27.9438V74.7924Z" fill="#FAFAFA"/>
<path d="M58.9881 120.296C58.9881 120.314 58.7564 120.332 58.3198 120.34C57.8475 120.349 57.2149 120.367 56.4308 120.385C54.7556 120.403 52.4121 120.429 49.5785 120.456H49.436V120.287C49.4271 115.849 49.4181 110.334 49.4003 104.357C49.4092 100.639 49.4092 97.0995 49.4181 93.8708C49.4271 92.261 49.4271 90.7311 49.436 89.2903C49.4805 88.5965 49.2488 87.965 48.8479 87.5559C48.4469 87.1289 47.9301 87.0133 47.4133 87.0489C45.3638 87.0222 43.6887 87.0044 42.4768 86.9866C41.9244 86.9688 41.4788 86.9599 41.1313 86.951C40.8284 86.9421 40.668 86.9243 40.668 86.9066C40.668 86.8888 40.8284 86.8799 41.1313 86.8621C41.4699 86.8532 41.9154 86.8354 42.4768 86.8265C43.6797 86.8087 45.3549 86.7909 47.4133 86.7643C47.9212 86.7198 48.5716 86.8354 49.0261 87.3246C49.4983 87.7782 49.7657 88.552 49.73 89.2991C49.7389 90.7311 49.7389 92.2699 49.7478 93.8797C49.7478 97.1084 49.7567 100.648 49.7657 104.366C49.7567 110.343 49.7389 115.858 49.73 120.296L49.5874 120.136C52.421 120.163 54.7645 120.189 56.4397 120.207C57.2327 120.225 57.8565 120.243 58.3287 120.252C58.7564 120.26 58.9881 120.278 58.9881 120.296Z" fill="#1A2E35"/>
<path d="M40.1602 153.187C40.1602 153.17 40.2849 153.161 40.5344 153.143C40.8195 153.134 41.176 153.116 41.6037 153.107C42.5838 153.09 43.9204 153.072 45.551 153.045C46.3797 152.983 47.3332 153.214 48.144 152.645C48.9638 152.111 49.5073 150.982 49.4093 149.719C49.4093 147.139 49.4004 144.311 49.3915 141.34C49.4093 135.416 49.4271 130.062 49.445 126.113C49.4717 124.21 49.4895 122.644 49.4984 121.497C49.5073 120.99 49.5252 120.572 49.5341 120.243C49.543 119.958 49.5608 119.807 49.5697 119.807C49.5786 119.807 49.5964 119.958 49.6054 120.243C49.6143 120.572 49.6232 120.99 49.641 121.497C49.6588 122.644 49.6766 124.201 49.6945 126.113C49.7034 130.062 49.7301 135.416 49.7479 141.34C49.739 144.311 49.739 147.139 49.7301 149.719C49.7301 150.03 49.7301 150.377 49.6766 150.706C49.6143 151.035 49.5252 151.346 49.3915 151.631C49.1242 152.2 48.7321 152.654 48.2777 152.947C47.8232 153.241 47.3243 153.374 46.852 153.356C46.3976 153.347 45.9609 153.347 45.5421 153.347C43.9115 153.321 42.5749 153.303 41.5948 153.285C41.1581 153.267 40.8106 153.259 40.5255 153.25C40.2849 153.214 40.1602 153.196 40.1602 153.187Z" fill="#1A2E35"/>
<path d="M61.7144 120.296C61.7144 121.168 61.1085 121.87 60.3689 121.87C59.6294 121.87 59.0234 121.168 59.0234 120.296C59.0234 119.424 59.6294 118.722 60.3689 118.722C61.1174 118.722 61.7144 119.424 61.7144 120.296Z" fill="#1A2E35"/>
<path d="M34.7059 181.836H4.73963C2.67238 181.836 0.988281 179.871 0.988281 177.451V128.924C0.988281 126.504 2.66347 124.539 4.73963 124.539H23.7459L38.4572 142.283V177.46C38.4572 179.871 36.782 181.836 34.7059 181.836Z" fill="#FF735D"/>
<g opacity="0.2">
<g opacity="0.2">
<path opacity="0.2" d="M31.1416 181.836H8.19693C4.21391 181.836 0.988281 178.616 0.988281 174.641V164.448H38.4572V174.534C38.4572 178.563 35.1781 181.836 31.1416 181.836Z" fill="black"/>
</g>
</g>
<path d="M14.2734 175.664L15.218 174.338C15.6189 174.961 16.0556 175.281 16.5813 175.281C17.2585 175.281 17.6149 174.801 17.6149 173.858V169.775H15.0397V168.183H19.299V173.751C19.299 175.868 18.3901 176.918 16.6615 176.918C15.6724 176.918 14.8081 176.473 14.2734 175.664Z" fill="#FAFAFA"/>
<path d="M20.3145 176.153L20.858 174.783C21.357 175.165 22.1233 175.423 22.8183 175.423C23.5757 175.423 23.852 175.192 23.852 174.819C23.852 173.742 20.4481 174.845 20.4481 172.213C20.4481 170.958 21.4105 170.078 23.0589 170.078C23.8341 170.078 24.6895 170.282 25.2242 170.656L24.6806 172.017C24.1282 171.652 23.5668 171.528 23.0589 171.528C22.3282 171.528 22.0075 171.794 22.0075 172.141C22.0075 173.271 25.4113 172.177 25.4113 174.774C25.4113 176.002 24.44 176.873 22.747 176.873C21.8025 176.864 20.8313 176.562 20.3145 176.153Z" fill="#FAFAFA"/>
<path d="M8.92773 155.322L10.1039 153.712C10.8702 154.993 11.8682 155.678 13.0622 155.678C14.6661 155.678 15.4948 154.539 15.4948 152.316V143.003H10.3712V140.94H17.4997V152.2C17.4997 155.9 15.9582 157.724 13.0622 157.724C11.3781 157.715 9.84552 156.861 8.92773 155.322Z" fill="#FAFAFA"/>
<path d="M19.9941 156.203L20.805 154.406C21.7139 155.162 23.1752 155.713 24.5742 155.713C26.3741 155.713 27.1226 155.073 27.1226 154.006C27.1226 151.186 20.3327 153.623 20.3327 148.625C20.3327 146.374 22.0525 144.853 24.8058 144.853C26.2048 144.853 27.782 145.28 28.7176 145.992L27.8889 147.789C26.9177 147.05 25.8395 146.792 24.788 146.792C23.0861 146.792 22.2574 147.531 22.2574 148.518C22.2574 151.48 29.0651 149.06 29.0651 153.943C29.0651 156.22 27.283 157.661 24.4227 157.661C22.6406 157.67 20.8852 157.03 19.9941 156.203Z" fill="#FAFAFA"/>
<g opacity="0.3">
<g opacity="0.3">
<path opacity="0.3" d="M23.7461 124.53V138.192C23.7461 140.442 25.3054 142.274 27.2301 142.274H38.4574L23.7461 124.53Z" fill="white"/>
</g>
</g>
<g opacity="0.2">
<g opacity="0.2">
<path opacity="0.2" d="M23.8976 139.392C23.8976 139.392 23.7461 142.701 26.9717 143.795C27.0965 143.839 27.2212 143.866 27.3371 143.893C28.7984 144.195 38.4486 146.205 38.4486 145.947C38.4486 145.663 38.4486 142.274 38.4486 142.274H27.2212C27.2302 142.274 24.4322 142.158 23.8976 139.392Z" fill="black"/>
</g>
</g>
<ellipse cx="196.033" cy="103.175" rx="3.56422" ry="3.55775" fill="#B35041"/>
<ellipse cx="271.773" cy="103.175" rx="3.56422" ry="3.55775" fill="#B35041"/>
<ellipse cx="345.73" cy="104.064" rx="3.56422" ry="3.55775" fill="#B35041"/>
</g>
<defs>
<clipPath id="clip0_152_6628">
<rect width="464" height="267" fill="white"/>
</clipPath>
</defs>
</svg>
