<svg width="88" height="83" viewBox="0 0 88 83" fill="none" xmlns="http://www.w3.org/2000/svg">
<path d="M86.615 44.1878L72.1638 25.6924C71.4437 24.7714 70.391 24.1695 69.232 24.0161C68.0729 23.8628 66.8999 24.1701 65.965 24.8721L56.5123 32.0799C55.9829 32.4841 55.5527 33.0039 55.2547 33.5995C54.9566 34.1952 54.7985 34.851 54.7924 35.517V36.2417L54.0732 36.187C50.9424 35.9491 47.2373 36.0284 43.5513 38.4292L43.1713 38.6753L33.1607 37.144L33.199 36.5288C33.213 36.255 33.203 35.9805 33.1689 35.7085C33.0963 35.1353 32.9099 34.5825 32.6206 34.0824C32.3314 33.5823 31.9451 33.1451 31.4846 32.7963L22.0264 25.594C21.095 24.8899 19.9245 24.5797 18.7667 24.7301C17.6089 24.8804 16.5564 25.4793 15.8357 26.3979L12.3904 30.8085C12.3006 30.9235 12.2348 31.0553 12.1968 31.1962C12.1587 31.3371 12.1493 31.4842 12.1689 31.6288C12.1865 31.7713 12.232 31.909 12.3028 32.034C12.3736 32.159 12.4684 32.2688 12.5816 32.3571C12.6949 32.4455 12.8244 32.5107 12.9628 32.549C13.1013 32.5873 13.2459 32.5979 13.3885 32.5803C13.5312 32.5609 13.6687 32.5134 13.793 32.4407C13.9174 32.368 14.0262 32.2714 14.1131 32.1565L17.5556 27.746C17.9215 27.2798 18.456 26.9762 19.0437 26.9005C19.6314 26.8248 20.2254 26.9831 20.6974 27.3413L30.1556 34.5409C30.3833 34.7161 30.5743 34.9344 30.7175 35.1835C30.8608 35.4325 30.9537 35.7073 30.9907 35.9922C31.0278 36.2771 31.0084 36.5665 30.9336 36.8439C30.8588 37.1213 30.7301 37.3812 30.5549 37.6088L16.1092 56.1178C15.7397 56.5767 15.2075 56.8755 14.6233 56.9519C14.0391 57.0283 13.4479 56.8765 12.9728 56.528L3.51737 49.3174C3.28796 49.1438 3.0954 48.9263 2.9509 48.6775C2.80639 48.4288 2.71284 48.1537 2.67568 47.8684C2.63853 47.5832 2.65852 47.2933 2.73448 47.0159C2.81045 46.7384 2.94087 46.4788 3.11815 46.2522L11.015 36.3045C11.1037 36.1913 11.1691 36.0617 11.2076 35.9231C11.2461 35.7846 11.2569 35.6398 11.2394 35.4971C11.2219 35.3543 11.1764 35.2164 11.1055 35.0913C11.0346 34.9662 10.9398 34.8563 10.8264 34.7678C10.7111 34.6784 10.5793 34.6125 10.4385 34.5741C10.2978 34.5356 10.1508 34.5252 10.006 34.5436C9.71846 34.5794 9.45687 34.728 9.2787 34.9565L1.38456 44.9014C1.02861 45.3563 0.766563 45.8774 0.613638 46.4344C0.460714 46.9914 0.419953 47.5732 0.493726 48.1461C0.567498 48.719 0.754332 49.2715 1.04338 49.7716C1.33243 50.2717 1.71794 50.7094 2.17753 51.0592L11.6357 58.2698C12.4049 58.8554 13.3459 59.1707 14.3127 59.1667C14.8574 59.1665 15.3976 59.0674 15.9068 58.8741L16.3908 58.6909L18.1709 61.1327L17.9658 61.51C17.6766 62.0447 17.5089 62.6366 17.4749 63.2435C17.4409 63.8504 17.5413 64.4573 17.7689 65.021C18.4307 66.7627 20.0002 67.9713 21.6763 68.0288L22.2068 68.0452L22.3189 68.5674C22.3713 68.8204 22.4454 69.0683 22.5404 69.3084C23.2213 70.9928 24.7935 72.1713 26.456 72.2479L27.0029 72.2725L27.1178 72.9424C27.2886 73.7186 27.6578 74.4372 28.1893 75.0281C28.7208 75.6191 29.3964 76.0621 30.1502 76.3139C30.5223 76.4357 30.91 76.5039 31.3013 76.5163H31.8209L31.9412 77.0221C32.0966 77.6657 32.4128 78.2593 32.8599 78.7475C33.234 79.1644 33.6912 79.4983 34.2022 79.7277C34.7132 79.9571 35.2666 80.0768 35.8267 80.0792C36.7931 80.0638 37.7285 79.7357 38.4928 79.144L38.9467 78.8131L41.3638 81.0745C42.2086 81.8717 43.325 82.3175 44.4865 82.3213C45.0558 82.3246 45.6202 82.2149 46.1468 81.9985C46.6734 81.7821 47.1519 81.4634 47.5545 81.0608C48.0631 80.5528 48.464 79.9473 48.733 79.2807L48.9627 78.7038L49.5588 78.8842C50.2645 79.1135 51.0205 79.1402 51.7406 78.9613C52.4608 78.7825 53.1164 78.4053 53.633 77.8725C54.2396 77.232 54.6569 76.4361 54.8389 75.5729L54.9619 75.0096L55.5361 75.0397H55.7303H55.7713C56.9686 75.0486 58.1212 74.5848 58.9787 73.7491C59.5438 73.1829 59.9429 72.4727 60.1326 71.6956L60.2857 71.0694L60.9201 71.1924C61.5791 71.3247 62.2595 71.307 62.9107 71.1405C63.6304 70.9602 64.2871 70.5864 64.8096 70.0596C65.3321 69.5327 65.7004 68.873 65.8748 68.1518C66.2111 66.771 65.8748 65.3163 64.8931 63.9436L64.524 63.4241L65.0217 63.0221C67.7068 60.8647 68.8088 59.8038 70.0529 57.7885L70.4385 57.1624L71.0318 57.5971C71.7966 58.1611 72.723 58.4632 73.6732 58.4585C74.6417 58.4626 75.5842 58.1452 76.3529 57.5561L85.8166 50.351C86.2758 50.0004 86.6611 49.5622 86.9501 49.0619C87.2391 48.5615 87.4261 48.0088 87.5003 47.4358C87.5746 46.8628 87.5346 46.2807 87.3826 45.7232C87.2306 45.1657 86.9698 44.6439 86.615 44.1878ZM51.5111 60.594C51.2939 60.5943 51.0817 60.6594 50.9016 60.7808C50.7215 60.9022 50.5816 61.0745 50.4997 61.2757C50.4179 61.4769 50.3978 61.6979 50.4421 61.9106C50.4863 62.1232 50.5929 62.3179 50.7482 62.4698L57.472 69.1198C57.8634 69.5236 58.0822 70.064 58.0818 70.6264C58.0842 70.9201 58.0281 71.2113 57.9168 71.4831C57.8056 71.7549 57.6414 72.0019 57.4338 72.2096C56.9928 72.6321 56.4038 72.8648 55.7931 72.8577H55.7576C55.21 72.8629 54.6793 72.6685 54.2646 72.3108L54.1853 72.2233C54.0897 72.0995 53.9865 71.9817 53.8763 71.8706L48.9846 66.9733C48.8831 66.8713 48.7626 66.7902 48.6298 66.7349C48.497 66.6795 48.3546 66.6509 48.2107 66.6506C47.9935 66.6494 47.7808 66.7128 47.5997 66.8329C47.4187 66.953 47.2775 67.1243 47.1942 67.325C47.1109 67.5256 47.0893 67.7465 47.132 67.9595C47.1747 68.1725 47.2799 68.368 47.4342 68.5209L52.1181 73.2104L52.1564 73.2651C52.1899 73.3162 52.2284 73.3638 52.2713 73.4073L52.5447 73.6807L52.5912 73.7682C52.9849 74.5202 52.7635 75.6577 52.0853 76.3577C51.574 76.8854 50.4447 77.5088 48.5744 75.7643L46.4607 73.7792C46.3581 73.6781 46.2356 73.5994 46.101 73.5481C45.9664 73.4968 45.8226 73.474 45.6787 73.4811C45.5346 73.485 45.3926 73.5173 45.2611 73.5763C45.1295 73.6352 45.0108 73.7196 44.912 73.8245C44.8131 73.9295 44.736 74.053 44.6851 74.1878C44.6341 74.3227 44.6103 74.4663 44.615 74.6104C44.6242 74.9003 44.7481 75.1747 44.9596 75.3733L46.6002 76.9127C46.6923 77.0094 46.764 77.1236 46.811 77.2486C46.858 77.3735 46.8793 77.5067 46.8736 77.6401C46.8289 78.3508 46.5197 79.0191 46.0068 79.5131C45.8078 79.7134 45.5708 79.8719 45.3098 79.9795C45.0487 80.087 44.7688 80.1413 44.4865 80.1393C43.8756 80.1396 43.2881 79.9046 42.8459 79.4831L40.5517 77.3393L41.3146 76.653C42.0323 76.0503 42.4922 75.1959 42.6 74.2649C42.7078 73.334 42.4553 72.3971 41.8943 71.6463C41.5395 71.1356 41.0717 70.7135 40.5271 70.4131L39.9529 70.0987L40.2482 69.5135C40.6185 68.7761 40.7529 67.9425 40.633 67.126C40.5132 66.3096 40.1449 65.5498 39.5783 64.9499C38.8808 64.1703 37.9194 63.6765 36.8795 63.5635L36.3326 63.5034L36.2889 62.9428C36.2577 62.5498 36.1712 62.1632 36.0318 61.7944C35.7808 61.124 35.3727 60.5236 34.8418 60.0436C34.3108 59.5635 33.6724 59.2178 32.9803 59.0354L32.4334 58.8905L32.4881 58.3163C32.5401 57.6909 32.4465 57.0619 32.2146 56.4788C31.9043 55.6621 31.3556 54.9577 30.6398 54.4569C29.924 53.9561 29.0741 53.6821 28.2006 53.6706C26.9521 53.7112 25.7625 54.2107 24.8592 55.0733L19.776 59.5905L18.0396 57.2116L32.0943 39.2112L40.415 40.4827L37.9842 42.0577C33.3713 45.0655 32.9885 48.4506 34.1697 50.6327C35.0803 52.3143 36.9287 53.3671 38.9959 53.3671C39.8617 53.3631 40.717 53.1768 41.506 52.8202L46.633 50.2799L49.7037 53.0772L62.1478 64.1487C63.4275 65.2862 64.0099 66.5549 63.7474 67.6323C63.6695 67.9666 63.5005 68.2729 63.2592 68.5171C63.0179 68.7613 62.7137 68.934 62.3803 69.0159C61.3904 69.2702 60.2201 68.7999 59.1783 67.7307L59.1537 67.7034C59.0963 67.6405 59.0388 67.5803 58.9787 67.5202L52.2877 60.9057C52.0824 60.705 51.8064 60.593 51.5193 60.594H51.5111ZM34.4924 77.2956C34.3428 77.1461 34.2256 76.9675 34.148 76.7708C34.0704 76.5742 34.034 76.3637 34.0412 76.1524C34.0484 75.9411 34.099 75.7335 34.1897 75.5426C34.2805 75.3516 34.4096 75.1814 34.5689 75.0424L36.9724 72.8713C37.1717 72.6977 37.39 72.5472 37.6232 72.4229C37.9431 72.2459 38.3022 72.1519 38.6678 72.1495C38.9533 72.1515 39.2342 72.2224 39.4865 72.3562C39.7388 72.4899 39.9551 72.6826 40.117 72.9178C40.3619 73.2325 40.4731 73.631 40.4265 74.027C40.38 74.4231 40.1794 74.7849 39.8681 75.0342L37.5166 77.1479C37.0631 77.6029 36.4572 77.8737 35.8158 77.9081C35.564 77.9063 35.3156 77.8504 35.0872 77.7442C34.8589 77.6381 34.656 77.4842 34.4924 77.2928V77.2956ZM24.9002 66.6096C24.9631 66.5495 25.0369 66.4784 25.0971 66.4127L25.1681 66.3444C25.5264 66.0245 28.6326 63.2163 29.9506 62.0268L30.0572 61.9311C30.5641 61.4387 31.2327 61.1471 31.9385 61.1108C32.3892 61.1219 32.8261 61.2687 33.192 61.5322C33.5579 61.7956 33.8358 62.1634 33.9892 62.5874C34.1361 62.9376 34.1649 63.3262 34.0711 63.6943C33.9774 64.0624 33.7663 64.3899 33.4697 64.6272L27.8642 69.5491C27.533 69.8693 27.0943 70.0546 26.6338 70.0686C25.8271 70.0686 24.9439 69.3932 24.583 68.4936C24.2822 67.7553 24.3971 67.0854 24.9002 66.6096ZM20.301 62.0432L26.3029 56.7112C26.8156 56.2034 27.4965 55.9009 28.217 55.8608C28.6481 55.8711 29.0662 56.0106 29.4172 56.2612C29.7682 56.5118 30.0359 56.8619 30.1857 57.2663C30.3333 57.6208 30.3625 58.0136 30.2689 58.386C30.1753 58.7585 29.9639 59.0908 29.6662 59.3335L23.0408 65.2971C22.7126 65.6289 22.2711 65.8243 21.8049 65.844C21.0201 65.844 20.1642 65.1577 19.8224 64.2471C19.6556 63.877 19.612 63.463 19.6981 63.0662C19.7843 62.6695 19.9956 62.3108 20.301 62.0432ZM30.0545 70.5389L34.5662 66.5741C35.0969 66.0688 35.7897 65.7684 36.5213 65.7264C36.7995 65.728 37.074 65.7903 37.3257 65.9088C37.5774 66.0273 37.8002 66.1993 37.9787 66.4127C38.5994 67.1073 38.8264 68.2557 37.8529 69.1471L32.6767 73.8147C32.4421 74.0496 32.1464 74.214 31.823 74.2894C31.4997 74.3648 31.1618 74.3481 30.8474 74.2413C30.4595 74.1105 30.1115 73.8825 29.8367 73.579C29.562 73.2755 29.3696 72.9067 29.2779 72.5077C29.1193 71.7831 29.3818 71.1241 30.0545 70.5389ZM62.9299 61.9038L51.1447 51.4338L47.549 48.1526C47.3872 48.0015 47.1829 47.9039 46.9637 47.8731C46.7445 47.8423 46.5212 47.8797 46.324 47.9803L40.5681 50.8323C38.6541 51.6526 36.7756 50.8487 36.092 49.5827C35.1787 47.8928 36.3654 45.7108 39.1709 43.887L44.7408 40.2721C47.992 38.1612 51.3498 38.0491 55.7111 38.5549L55.9845 38.5878L68.9865 55.2483L68.7677 55.6393C67.4006 58.0838 66.6486 58.9206 63.3564 61.5401L62.9299 61.9038ZM85.3381 47.16C85.3026 47.4453 85.2103 47.7205 85.0665 47.9694C84.9228 48.2183 84.7306 48.4359 84.5013 48.6092L75.0377 55.8143C74.65 56.1108 74.175 56.2705 73.6869 56.2682C73.3408 56.271 72.9987 56.194 72.6871 56.0432C72.3756 55.8924 72.1029 55.6719 71.8904 55.3987L57.4474 36.8924C57.2702 36.6659 57.1397 36.4063 57.0638 36.1288C56.9878 35.8513 56.9678 35.5615 57.005 35.2762C57.0421 34.9909 57.1357 34.7159 57.2802 34.4671C57.4247 34.2183 57.6173 34.0008 57.8467 33.8272L67.2967 26.6221C67.7705 26.2668 68.3644 26.1106 68.9517 26.1867C69.5391 26.2628 70.0735 26.5652 70.4412 27.0296L84.8842 45.5549C85.0606 45.7798 85.1907 46.0375 85.2667 46.313C85.3428 46.5886 85.3633 46.8765 85.3271 47.16H85.3381Z" fill="#E7142D"/>
<path d="M44.1498 25.5033C46.5749 25.5039 48.9457 24.7852 50.9624 23.4383C52.979 22.0914 54.551 20.1767 55.4794 17.9363C56.4078 15.696 56.651 13.2306 56.1782 10.8521C55.7054 8.47351 54.5379 6.28856 52.8233 4.57356C51.1087 2.85857 48.924 1.69055 46.5455 1.21724C44.1671 0.743929 41.7017 0.986576 39.4611 1.9145C37.2206 2.84242 35.3055 4.41393 33.9581 6.43029C32.6108 8.44665 31.8916 10.8173 31.8916 13.2424C31.8952 16.4926 33.1878 19.6087 35.4858 21.9072C37.7838 24.2057 40.8996 25.499 44.1498 25.5033ZM44.1498 3.17169C46.1424 3.17114 48.0903 3.76155 49.7473 4.86823C51.4043 5.9749 52.6959 7.54813 53.4587 9.38892C54.2214 11.2297 54.4212 13.2554 54.0326 15.2097C53.644 17.164 52.6845 18.9592 51.2755 20.3681C49.8666 21.7771 48.0714 22.7365 46.1171 23.1251C44.1628 23.5137 42.1371 23.314 40.2963 22.5512C38.4555 21.7885 36.8823 20.4969 35.7756 18.8399C34.669 17.1829 34.0786 15.235 34.0791 13.2424C34.0827 10.5726 35.1449 8.01316 37.0327 6.12532C38.9206 4.23748 41.48 3.1753 44.1498 3.17169Z" fill="#E7142D"/>
<path d="M40.4098 17.5574L40.4754 17.6421C40.6551 17.8499 40.8774 18.0166 41.1272 18.1309C41.377 18.2451 41.6485 18.3042 41.9232 18.3042C42.198 18.3042 42.4694 18.2451 42.7193 18.1309C42.9691 18.0166 43.1914 17.8499 43.3711 17.6421L49.9555 9.98588C50.0512 9.87722 50.1245 9.75062 50.1709 9.61343C50.2174 9.47624 50.2361 9.33119 50.226 9.1867C50.216 9.04221 50.1773 8.90116 50.1123 8.77173C50.0473 8.6423 49.9572 8.52708 49.8473 8.43274C49.7374 8.3384 49.6098 8.26684 49.472 8.2222C49.3343 8.17755 49.189 8.16072 49.0446 8.17268C48.9003 8.18464 48.7598 8.22514 48.6312 8.29185C48.5026 8.35856 48.3886 8.45014 48.2957 8.56127L41.9492 15.9441L40.0734 13.2617C39.9495 13.0841 39.7756 12.9473 39.5738 12.8686C39.372 12.79 39.1514 12.773 38.94 12.8199C38.7285 12.8667 38.5357 12.9753 38.3861 13.1319C38.2364 13.2884 38.1366 13.4858 38.0992 13.6992C38.0738 13.841 38.0766 13.9866 38.1076 14.1273C38.1385 14.2681 38.197 14.4014 38.2797 14.5195L40.4098 17.5574Z" fill="#E7142D"/>
</svg>
