<svg width="94" height="85" viewBox="0 0 94 85" fill="none" xmlns="http://www.w3.org/2000/svg">
<path d="M68.2283 74.9045H22.9746C22.4947 74.9045 22.1055 74.4498 22.1055 73.8893C22.1055 73.3287 22.4947 72.874 22.9746 72.874H68.2283C68.7082 72.874 69.0975 73.3287 69.0975 73.8893C69.0975 74.4498 68.7082 74.9045 68.2283 74.9045Z" fill="#E7142D"/>
<path d="M68.2288 14.167H23.0312C22.5519 14.167 22.1631 13.6804 22.1631 13.0806C22.1631 12.4807 22.5519 11.9941 23.0312 11.9941H68.2288C68.7081 11.9941 69.0969 12.4807 69.0969 13.0806C69.0969 13.6804 68.7082 14.167 68.2288 14.167Z" fill="#E7142D"/>
<path d="M47.3692 8.12228H40.416C39.9361 8.12228 39.5469 7.6676 39.5469 7.10704C39.5469 6.54647 39.9361 6.0918 40.416 6.0918H47.3692C47.8491 6.0918 48.2384 6.54647 48.2384 7.10704C48.2384 7.6676 47.8491 8.12228 47.3692 8.12228Z" fill="#E7142D"/>
<path d="M49.1075 79.9953H42.1543C41.6744 79.9953 41.2852 79.5406 41.2852 78.9801C41.2852 78.4195 41.6744 77.9648 42.1543 77.9648H49.1075C49.5874 77.9648 49.9767 78.4195 49.9767 78.9801C49.9767 79.5406 49.5874 79.9953 49.1075 79.9953Z" fill="#E7142D"/>
<path d="M4.43264 59.9278C1.9884 59.9278 0 57.9394 0 55.4951C0 53.0509 1.9884 51.0625 4.43264 51.0625C6.87688 51.0625 8.86528 53.0509 8.86528 55.4951C8.86528 57.9394 6.87688 59.9278 4.43264 59.9278ZM4.43264 52.8356C2.96608 52.8356 1.77312 54.0286 1.77312 55.4951C1.77312 56.9617 2.96613 58.1547 4.43264 58.1547C5.89915 58.1547 7.09216 56.9617 7.09216 55.4951C7.09216 54.0286 5.89915 52.8356 4.43264 52.8356Z" fill="#E7142D"/>
<path d="M84.5244 53.8868C81.6487 53.8868 79.3096 51.5475 79.3096 48.6719C79.3096 45.7963 81.6489 43.457 84.5244 43.457C87.4 43.457 89.7393 45.7963 89.7393 48.6719C89.7393 51.5475 87.4 53.8868 84.5244 53.8868ZM84.5244 45.1951C82.6074 45.1951 81.0478 46.7546 81.0478 48.6717C81.0478 50.5889 82.6073 52.1484 84.5244 52.1484C86.4416 52.1484 88.0011 50.5889 88.0011 48.6717C88.0011 46.7546 86.4416 45.1951 84.5244 45.1951Z" fill="#E7142D"/>
<path d="M12.4287 34.7656C13.2925 34.7656 13.9932 35.4662 13.9932 36.3301C13.9932 37.1939 13.2926 37.8945 12.4287 37.8945C11.5649 37.8945 10.8643 37.1939 10.8643 36.3301C10.8643 35.4662 11.5649 34.7656 12.4287 34.7656Z" fill="#E7142D"/>
<path d="M52.4092 5.21484C53.273 5.21484 53.9736 5.91546 53.9736 6.7793C53.9736 7.64315 53.273 8.34377 52.4092 8.34377C51.5453 8.34377 50.8447 7.64315 50.8447 6.7793C50.8447 5.91546 51.5453 5.21484 52.4092 5.21484Z" fill="#E7142D"/>
<path d="M85.5022 72.791C86.5219 72.791 87.3491 73.6181 87.3491 74.6379C87.3491 75.6578 86.522 76.4849 85.5022 76.4849C84.4824 76.4849 83.6553 75.6578 83.6553 74.6379C83.6553 73.6181 84.4824 72.791 85.5022 72.791Z" fill="#E7142D"/>
<path d="M61.0026 85H29.1555C24.7247 85 21.1201 80.8709 21.1201 75.7955V9.20453C21.1201 4.12906 24.7247 0 29.1555 0H61.0026C65.4334 0 69.0381 4.12906 69.0381 9.20453V13.2233L69.0969 47.9775L69.0381 75.797C69.0381 80.8709 65.4334 85 61.0026 85ZM29.2144 2.08651C25.761 2.08651 22.9515 5.3048 22.9515 9.26066V75.8516C22.9515 79.8074 25.761 83.0257 29.2144 83.0257H61.0615C64.5149 83.0257 67.3244 79.8074 67.3244 75.851V47.9786V13.2811V9.2601C67.3244 5.30425 64.5149 2.08595 61.0615 2.08595L29.2144 2.08651Z" fill="#E7142D"/>
<path d="M61.2754 24.3668C60.7955 24.3668 60.4062 23.9121 60.4062 23.3516V19.2906C60.4062 18.7301 60.7955 18.2754 61.2754 18.2754C61.7553 18.2754 62.1446 18.7301 62.1446 19.2906V23.3516C62.1446 23.9121 61.7553 24.3668 61.2754 24.3668Z" fill="#E7142D"/>
<path d="M56.0596 24.3667C55.5797 24.3667 55.1904 23.912 55.1904 23.3515V21.3209C55.1904 20.7604 55.5797 20.3057 56.0596 20.3057C56.5395 20.3057 56.9287 20.7603 56.9287 21.3209V23.3515C56.9287 23.912 56.5395 24.3667 56.0596 24.3667Z" fill="#E7142D"/>
<path d="M28.247 24.3664H23.0322C22.5524 24.3664 22.1631 23.9117 22.1631 23.3512C22.1631 22.7906 22.5523 22.3359 23.0322 22.3359H28.247C28.7269 22.3359 29.1162 22.7906 29.1162 23.3512C29.1162 23.9117 28.727 24.3664 28.247 24.3664Z" fill="#E7142D"/>
<path fill-rule="evenodd" clip-rule="evenodd" d="M61.2755 67.8688H29.9854C29.5055 67.8688 29.1162 67.4142 29.1162 66.8536V30.3043C29.1162 29.7438 29.5055 29.2891 29.9854 29.2891H61.2755C61.7554 29.2891 62.1446 29.7437 62.1446 30.3043V66.8536C62.1446 67.4142 61.7554 67.8688 61.2755 67.8688ZM30.8547 65.8383H38.0251V57.9263H30.8547V65.8383ZM30.8547 55.7535V50.3213H38.0251V55.7535H30.8547ZM40.198 55.7535V50.3213H60.4061V55.7535H40.198ZM40.198 57.9263H60.4061V65.8383H40.198V57.9263ZM30.8547 48.1484H38.0251V42.7163H30.8547V48.1484ZM40.198 42.7163V48.1484H60.4061V42.7163H40.198ZM30.8547 40.5434V31.3199H38.0251V40.5434H30.8547ZM40.198 40.5434V31.3199H60.4061V40.5434H40.198Z" fill="#E7142D"/>
<path d="M6.43043 11.5612H8.15475C8.49938 11.5612 8.78049 11.2768 8.78049 10.9281C8.78049 10.5794 8.49937 10.2949 8.15475 10.2949H6.43043C6.08579 10.2949 5.80469 10.5794 5.80469 10.9281C5.8041 11.2768 6.08522 11.5612 6.43043 11.5612Z" fill="#E7142D"/>
<path d="M1.62574 11.5612H3.35006C3.6947 11.5612 3.9758 11.2768 3.9758 10.9281C3.9758 10.5794 3.69468 10.2949 3.35006 10.2949H1.62574C1.2811 10.2949 1 10.5794 1 10.9281C1 11.2768 1.28112 11.5612 1.62574 11.5612Z" fill="#E7142D"/>
<path d="M4.88356 11.8594C4.53892 11.8594 4.25781 12.1438 4.25781 12.4925V14.2373C4.25781 14.586 4.53893 14.8704 4.88356 14.8704C5.22819 14.8704 5.5093 14.586 5.5093 14.2373V12.4925C5.50988 12.1307 5.22877 11.8594 4.88356 11.8594Z" fill="#E7142D"/>
<path d="M4.88356 10.011C5.22819 10.011 5.5093 9.7266 5.5093 9.37789V7.63315C5.5093 7.28443 5.22818 7 4.88356 7C4.53892 7 4.25781 7.28445 4.25781 7.63315V9.37789C4.27075 9.72661 4.53893 10.011 4.88356 10.011Z" fill="#E7142D"/>
<path d="M91.4304 27.5612H93.1547C93.4994 27.5612 93.7805 27.2768 93.7805 26.9281C93.7805 26.5794 93.4994 26.2949 93.1547 26.2949H91.4304C91.0858 26.2949 90.8047 26.5794 90.8047 26.9281C90.8041 27.2768 91.0852 27.5612 91.4304 27.5612Z" fill="#E7142D"/>
<path d="M86.6257 27.5612H88.3501C88.6947 27.5612 88.9758 27.2768 88.9758 26.9281C88.9758 26.5794 88.6947 26.2949 88.3501 26.2949H86.6257C86.2811 26.2949 86 26.5794 86 26.9281C86 27.2768 86.2811 27.5612 86.6257 27.5612Z" fill="#E7142D"/>
<path d="M89.8836 27.8594C89.5389 27.8594 89.2578 28.1438 89.2578 28.4925V30.2373C89.2578 30.586 89.5389 30.8704 89.8836 30.8704C90.2282 30.8704 90.5093 30.586 90.5093 30.2373V28.4925C90.5099 28.1307 90.2288 27.8594 89.8836 27.8594Z" fill="#E7142D"/>
<path d="M89.8836 26.011C90.2282 26.011 90.5093 25.7266 90.5093 25.3779V23.6332C90.5093 23.2844 90.2282 23 89.8836 23C89.5389 23 89.2578 23.2844 89.2578 23.6332V25.3779C89.2708 25.7266 89.5389 26.011 89.8836 26.011Z" fill="#E7142D"/>
</svg>
