<svg width="103" height="80" viewBox="0 0 103 80" fill="none" xmlns="http://www.w3.org/2000/svg">
<path d="M88.4181 68.5968H87.3337V17.7046C87.3337 15.1213 85.2609 13.0098 82.7076 13.0098H18.4655C15.9125 13.0098 13.8395 15.1211 13.8395 17.7046V25.58H4.9852C3.11839 25.58 1.59473 27.1217 1.59473 29.0106V54.6098C1.59473 56.4987 3.11839 58.0404 4.9852 58.0404H13.8251V68.5823L12.7274 68.5829C12.1782 68.5829 11.7251 69.0414 11.7251 69.5971C11.7251 75.3335 16.3372 80.0002 22.0066 80.0002H79.1383C84.8077 80.0002 89.4198 75.3335 89.4198 69.5971C89.4198 69.0414 88.9666 68.597 88.4181 68.597V68.5968ZM15.8296 17.7046C15.8296 16.2326 17.0101 15.0382 18.4516 15.0382H82.6938C84.1353 15.0382 85.3158 16.2326 85.3158 17.7046V68.5968H15.8303V58.055H18.5345V64.8331C18.5345 65.3887 18.9876 65.8472 19.5368 65.8472L81.6094 65.8466C82.1585 65.8466 82.6117 65.3881 82.6117 64.8324L82.611 18.8021C82.611 18.2464 82.1579 17.7879 81.6087 17.7879H19.5361C18.987 17.7879 18.5338 18.2464 18.5338 18.8021V25.5802H15.8297L15.8296 17.7046ZM4.98521 27.6077H50.8052C51.5736 27.6077 52.1917 28.2325 52.1917 29.0107V31.3165H3.59879V29.0107C3.59879 28.2472 4.23011 27.6077 4.98531 27.6077H4.98521ZM52.1787 33.3442V37.4136L3.61168 37.4142V33.3449L52.1787 33.3442ZM3.59874 54.6086V39.4557H52.1787V54.6093C52.1787 55.3869 51.5613 56.0122 50.7922 56.0122L4.98517 56.0116C4.22997 56.0116 3.59864 55.3869 3.59864 54.6086L3.59874 54.6086ZM50.8052 58.0533C52.672 58.0533 54.1957 56.5116 54.1957 54.6227L54.1963 29.0105C54.1963 27.1215 52.6726 25.5798 50.8058 25.5798H20.538V19.8159H80.6077V63.8032H20.538V58.0393H50.8058L50.8052 58.0533ZM79.1381 77.9705H22.0063C17.7924 77.9705 14.3052 74.7617 13.7978 70.6226H87.3473C86.8531 74.7624 83.3666 77.9705 79.1388 77.9705H79.1381Z" fill="#E7142D"/>
<path d="M44.8752 42.9971C42.0473 42.9971 39.7412 45.3163 39.7412 48.1778C39.7412 51.0392 42.0473 53.3726 44.8752 53.3726C47.7032 53.3726 49.9953 51.0392 49.9953 48.1778C50.0092 45.3168 47.7025 42.9971 44.8752 42.9971ZM44.8752 51.345C43.1456 51.345 41.7457 49.928 41.7457 48.1784C41.7457 46.4424 43.1461 45.0253 44.8752 45.0253C46.5909 45.0253 47.9915 46.4423 47.9915 48.1784C47.9915 49.9281 46.591 51.345 44.8752 51.345Z" fill="#E7142D"/>
<path d="M14.5654 50.1514H8.69077C8.1416 50.1514 7.68848 50.6099 7.68848 51.1655C7.68848 51.7212 8.1416 52.1797 8.69077 52.1797H14.566C15.1152 52.1797 15.5683 51.7212 15.5683 51.1655C15.5677 50.6099 15.1146 50.1514 14.5654 50.1514H14.5654Z" fill="#E7142D"/>
<path d="M26.1379 50.1514H19.9749C19.4258 50.1514 18.9727 50.6099 18.9727 51.1655C18.9727 51.7212 19.4258 52.1797 19.9749 52.1797H26.1385C26.6877 52.1797 27.1408 51.7212 27.1408 51.1655C27.1402 50.6099 26.701 50.1514 26.1379 50.1514H26.1379Z" fill="#E7142D"/>
<path d="M50.5716 76.1515C51.5872 76.1515 52.4113 75.3183 52.4113 74.2901C52.4113 73.2625 51.5878 72.4287 50.5716 72.4287C49.5422 72.4287 48.7188 73.2619 48.7188 74.2901C48.732 75.3183 49.5561 76.1515 50.5716 76.1515Z" fill="#E7142D"/>
<path d="M17.6682 5.58375C19.2058 5.58375 20.4546 4.33364 20.4546 2.79188C20.4546 1.25012 19.2052 0 17.6682 0C16.1306 0 14.8818 1.25012 14.8818 2.79188C14.8812 4.33423 16.1306 5.58375 17.6682 5.58375ZM17.6682 1.36148C18.4645 1.36148 19.1097 2.00028 19.1097 2.79192C19.1097 3.58355 18.4645 4.22237 17.6682 4.22237C16.858 4.22237 16.2134 3.59763 16.2134 2.79192C16.2128 1.98686 16.858 1.36148 17.6682 1.36148Z" fill="#E7142D"/>
<path d="M2.58091 70.4004C1.15331 70.4004 0 71.5533 0 72.9837C0 74.4007 1.16659 75.567 2.58091 75.567C3.99461 75.567 5.16182 74.4141 5.16182 72.9837C5.16119 71.5533 4.00849 70.4004 2.58091 70.4004ZM2.58091 74.2064C1.8807 74.2064 1.33152 73.6648 1.33152 72.9844C1.33152 72.304 1.88069 71.7624 2.58091 71.7624C3.26722 71.7624 3.81639 72.304 3.81639 72.9844C3.81576 73.6648 3.26722 74.2064 2.58091 74.2064Z" fill="#E7142D"/>
<path d="M84.4839 7.06067C86.1315 7.06067 87.4763 5.72743 87.4763 4.07448C87.4763 2.42154 86.1308 1.07422 84.4839 1.07422C82.8363 1.07422 81.5049 2.42154 81.5049 4.07448C81.5049 5.71343 82.8503 7.06067 84.4839 7.06067ZM84.4839 2.43553C85.3902 2.43553 86.1315 3.17154 86.1315 4.07448C86.1315 4.96331 85.3902 5.69932 84.4839 5.69932C83.5777 5.69932 82.8503 4.97674 82.8503 4.07448C82.8503 3.17159 83.5915 2.43553 84.4839 2.43553Z" fill="#E7142D"/>
<path d="M8.89603 8.12537H10.7489C11.1193 8.12537 11.4213 7.81972 11.4213 7.44501C11.4213 7.07031 11.1192 6.76465 10.7489 6.76465H8.89603C8.5257 6.76465 8.22363 7.07031 8.22363 7.44501C8.223 7.81973 8.52508 8.12537 8.89603 8.12537Z" fill="#E7142D"/>
<path d="M3.73392 8.12537H5.58681C5.95715 8.12537 6.25921 7.81972 6.25921 7.44501C6.25921 7.07031 5.95713 6.76465 5.58681 6.76465H3.73392C3.36359 6.76465 3.06152 7.07031 3.06152 7.44501C3.06152 7.81972 3.3636 8.12537 3.73392 8.12537Z" fill="#E7142D"/>
<path d="M7.2349 8.44531C6.86457 8.44531 6.5625 8.75097 6.5625 9.12568V11.0005C6.5625 11.3752 6.86458 11.6809 7.2349 11.6809C7.60524 11.6809 7.9073 11.3752 7.9073 11.0005V9.12568C7.90793 8.73689 7.60585 8.44531 7.2349 8.44531Z" fill="#E7142D"/>
<path d="M7.2349 6.4592C7.60524 6.4592 7.9073 6.15354 7.9073 5.77883V3.904C7.9073 3.52927 7.60522 3.22363 7.2349 3.22363C6.86457 3.22363 6.5625 3.52929 6.5625 3.904V5.77883C6.5764 6.15356 6.86458 6.4592 7.2349 6.4592Z" fill="#E7142D"/>
<path d="M100.235 61.8539H102.088C102.458 61.8539 102.76 61.5482 102.76 61.1735C102.76 60.7988 102.458 60.4932 102.088 60.4932H100.235C99.8646 60.4932 99.5625 60.7988 99.5625 61.1735C99.5619 61.5482 99.8639 61.8539 100.235 61.8539Z" fill="#E7142D"/>
<path d="M95.0718 61.8539H96.9247C97.295 61.8539 97.5971 61.5482 97.5971 61.1735C97.5971 60.7988 97.295 60.4932 96.9247 60.4932H95.0718C94.7015 60.4932 94.3994 60.7988 94.3994 61.1735C94.3994 61.5482 94.7015 61.8539 95.0718 61.8539Z" fill="#E7142D"/>
<path d="M98.5728 62.1738C98.2025 62.1738 97.9004 62.4795 97.9004 62.8542V64.729C97.9004 65.1038 98.2025 65.4094 98.5728 65.4094C98.9431 65.4094 99.2452 65.1037 99.2452 64.729V62.8542C99.2458 62.4654 98.9437 62.1738 98.5728 62.1738Z" fill="#E7142D"/>
<path d="M98.5728 60.1877C98.9431 60.1877 99.2452 59.8821 99.2452 59.5073V57.6325C99.2452 57.2578 98.9431 56.9521 98.5728 56.9521C98.2025 56.9521 97.9004 57.2578 97.9004 57.6325V59.5073C97.9143 59.8821 98.2025 60.1877 98.5728 60.1877Z" fill="#E7142D"/>
</svg>
