<svg width="80" height="80" viewBox="0 0 80 80" fill="none" xmlns="http://www.w3.org/2000/svg">
<g clip-path="url(#clip0_1509_7238)">
<path d="M71.0852 49.8338C71.17 49.5986 71.1874 49.3444 71.1355 49.0999C71.0835 48.8553 70.9642 48.6301 70.7911 48.4498C70.6179 48.2694 70.3978 48.141 70.1556 48.0791C69.9133 48.0172 69.6586 48.0243 69.4202 48.0995H57.5225V36.0977C57.5541 35.866 57.5397 35.6303 57.4802 35.4042C57.4207 35.178 57.3172 34.9658 57.1756 34.7796C56.7831 34.5127 56.3021 34.409 55.8344 34.4906C54.0468 34.5477 52.2858 34.9399 50.6429 35.6468C47.5271 36.9765 44.9664 39.3418 43.3941 42.3424C41.8218 45.343 41.3344 48.7947 42.0145 52.1133C42.6945 55.432 44.5003 58.4138 47.1261 60.5542C49.7518 62.6945 53.0365 63.862 56.4241 63.859H56.8056C57.6976 63.8159 58.5859 63.7155 59.465 63.5584L60.7253 63.3734L61.2456 63.3155V63.8359C61.2456 64.5527 61.2456 65.2811 61.2456 66.0096C61.2456 67.7324 61.2456 69.4783 61.2456 71.282C61.2127 72.1675 60.9952 73.0363 60.6069 73.8327C60.2186 74.6291 59.6682 75.3357 58.9909 75.907C58.0172 76.8354 56.7899 77.454 55.4644 77.6845C54.1389 77.915 52.7748 77.7471 51.5448 77.2019C50.2806 76.7017 49.1914 75.841 48.4123 74.7268C47.6332 73.6127 47.1987 72.2942 47.1626 70.9351C47.047 69.432 46.8389 69.2355 45.3126 69.2355H14.233V35.6468C14.2898 35.0896 14.1327 34.5317 13.7936 34.0859C13.6031 33.9172 13.354 33.83 13.0999 33.8431C12.8224 33.8431 11.9437 33.8431 11.9437 35.6121V69.2355H4.92531C4.50947 69.1965 4.09477 69.3209 3.76907 69.5824C3.52723 69.9163 3.41991 70.3291 3.46845 70.7386C3.56368 72.7965 4.31391 74.7702 5.60971 76.3717C6.90551 77.9733 8.6791 79.1189 10.6718 79.6416L11.8974 79.9654H55.3025C55.3868 79.9016 55.4866 79.8617 55.5916 79.8497C57.8834 79.4906 59.9621 78.2988 61.4299 76.5025C62.8977 74.7062 63.6513 72.4316 63.5465 70.1142C63.5465 68.7499 63.5465 67.3855 63.5465 66.0211C63.5465 65.0152 63.5465 64.0093 63.5465 62.9918C63.526 62.686 63.5922 62.3805 63.7374 62.1106C63.8826 61.8406 64.1009 61.6171 64.3674 61.4656C66.3356 60.2052 67.9729 58.4911 69.1418 56.4672C70.3106 54.4433 70.9771 52.1685 71.0852 49.8338ZM46.7464 77.7223C46.5965 77.7376 46.4454 77.7376 46.2954 77.7223H13.389C11.7758 77.781 10.188 77.3081 8.86984 76.3764C7.55165 75.4447 6.57605 74.1057 6.09311 72.5654C6.0569 72.4482 6.02984 72.3284 6.01217 72.207L5.8503 71.467H44.8964V71.8601C45.1617 73.7259 45.9653 75.4738 47.2089 76.8898L47.787 77.5488L46.7464 77.7223ZM56.401 61.639H56.2391C53.0946 61.6004 50.0815 60.3713 47.8072 58.1994C45.533 56.0275 44.1665 53.0743 43.9832 49.9348C43.7999 46.7954 44.8134 43.7032 46.8195 41.2814C48.8256 38.8596 51.6751 37.2882 54.7938 36.884H55.291V48.7123C55.291 49.9379 55.6494 50.2963 56.8866 50.2963H68.7496V50.7935C68.3783 53.8006 66.9155 56.5666 64.639 58.566C62.3624 60.5654 59.4308 61.659 56.401 61.639Z" fill="#E7142D"/>
<path d="M73.5136 0.473894C72.1668 0.0626937 70.7553 -0.0941442 69.3511 0.0113989H22.1536C21.7951 0.0113989 21.4367 0.0113989 21.0783 0.0113989C18.889 0.12843 16.8074 0.99779 15.1852 2.47252C13.563 3.94724 12.4998 5.93687 12.1752 8.10505C12.0133 9.87302 11.9554 11.649 12.0018 13.4237C12.0018 14.129 12.0018 14.8459 12.0018 15.5512C11.9862 15.7605 12.013 15.9707 12.0806 16.1694C12.1481 16.368 12.255 16.551 12.3949 16.7075C12.4923 16.8024 12.6084 16.8761 12.7358 16.9239C12.8632 16.9716 12.9991 16.9924 13.1349 16.9849C13.8171 16.9849 14.2218 16.4184 14.2333 15.5281C14.2333 14.8459 14.2333 14.1522 14.2333 13.47C14.2333 12.3138 14.2333 11.0997 14.2333 9.90878C14.2509 9.1934 14.3557 8.48283 14.5455 7.79287C14.9562 6.13077 15.9365 4.66522 17.316 3.6512C18.6955 2.63718 20.3868 2.13886 22.0957 2.24294H62.5987H63.0843L64.1365 2.30075L63.6856 3.00605C63.5468 3.22188 63.4081 3.43 63.2693 3.63042C62.9918 4.0351 62.7259 4.41666 62.4946 4.78665C61.7366 6.11434 61.3381 7.61682 61.3384 9.14567C61.3384 12.7994 61.3384 16.4646 61.3384 20.1183C61.3384 20.6849 61.4887 21.3671 62.2171 21.5058C62.3743 21.5448 62.5383 21.5473 62.6966 21.5132C62.8549 21.4791 63.0033 21.4094 63.1306 21.3093C63.2855 21.162 63.4045 20.9812 63.4787 20.7808C63.5529 20.5804 63.5801 20.3656 63.5584 20.153C63.5584 18.2684 63.5584 16.3953 63.5584 14.5222V10.4638H68.4724C71.7253 10.4638 74.9743 10.4638 78.2195 10.4638C78.5583 10.5102 78.9033 10.4613 79.2159 10.3224C79.5284 10.1835 79.7959 9.96016 79.9885 9.67754V8.17443C79.9261 8.06184 79.8794 7.94124 79.8498 7.81599C79.5856 6.12223 78.8518 4.53645 77.7318 3.23866C76.6118 1.94086 75.1505 0.983034 73.5136 0.473894ZM63.7549 8.19755L63.8243 7.66568C64.2406 4.72884 67.3508 2.2545 70.623 2.2545C73.8951 2.2545 76.9823 4.72884 77.4332 7.631L77.5026 8.16287L63.7549 8.19755Z" fill="#E7142D"/>
<path d="M60.6672 43.2316C60.6672 44.6075 60.9794 44.9197 62.3206 44.9197H78.2304C78.5645 44.9691 78.9057 44.9212 79.2133 44.7818C79.5209 44.6424 79.7818 44.4173 79.9648 44.1334V42.2256L79.8607 41.6013C79.7798 41.1156 79.6988 40.63 79.5948 40.156C78.7745 36.157 76.6327 32.5503 73.5141 29.9161C70.3955 27.282 66.4814 25.7736 62.4015 25.6336C61.9176 25.5528 61.4211 25.6604 61.0141 25.9343C60.8698 26.1257 60.7649 26.3438 60.7053 26.576C60.6458 26.8082 60.6328 27.0498 60.6672 27.2871V43.2316ZM62.9797 28.0039H63.4653C70.6339 28.4086 77.0973 34.872 77.5945 42.1216V42.6188H62.9565L62.9797 28.0039Z" fill="#E7142D"/>
<path d="M52.6317 8.54425H43.1506C42.9411 8.52522 42.7299 8.55037 42.5307 8.61809C42.3316 8.68581 42.1488 8.79458 41.9943 8.93737C41.9016 9.03634 41.8293 9.15267 41.7817 9.27966C41.7341 9.40666 41.712 9.54182 41.7168 9.67736C41.7168 10.3595 42.2603 10.7642 43.1043 10.7758C44.2027 10.7758 45.3127 10.7758 46.4112 10.7758H48.3883H48.8855L50.0417 10.8683L31.2298 29.8074L30.7326 29.2409C30.6187 29.094 30.4951 28.9549 30.3626 28.8246L20.9739 19.436C20.4652 18.9157 20.0952 18.6613 19.7368 18.6613C19.3783 18.6613 19.0199 18.9157 18.5112 19.4244L5.22601 32.7327C4.81244 33.0583 4.53935 33.53 4.46289 34.0508C4.46727 34.1818 4.49943 34.3103 4.55723 34.428C4.61504 34.5456 4.69718 34.6495 4.7982 34.733C5.02945 34.9758 5.58444 35.5192 6.81005 34.3052L18.7655 22.3497L19.1933 21.945L19.7483 21.4247L20.3033 21.9335L20.7311 22.3381L30.062 31.669C31.2182 32.8252 31.5535 32.8252 32.6982 31.669L50.2499 14.1173C50.3886 13.967 50.5389 13.8282 50.7239 13.6548L51.8108 12.6489V15.5164C51.8108 16.8576 51.8108 18.141 51.8108 19.4244C51.8108 19.9332 51.9611 20.7772 52.8861 20.7888C53.1709 20.8027 53.4495 20.7028 53.6608 20.5113C53.7932 20.3625 53.8942 20.1886 53.9578 19.9998C54.0213 19.8111 54.0462 19.6114 54.0308 19.4129C54.0308 16.2525 54.0308 13.0921 54.0308 9.93173C54.0308 8.97206 53.6145 8.55581 52.6317 8.54425Z" fill="#E7142D"/>
<path d="M32.618 51.221C30.953 51.221 29.2881 51.221 27.6115 51.221H23.7034C22.316 51.221 20.9054 51.221 19.5063 51.221C19.2912 51.2062 19.0755 51.2401 18.8754 51.3201C18.6752 51.4002 18.4956 51.5244 18.3501 51.6835C18.2566 51.794 18.1893 51.9241 18.1533 52.0643C18.1172 52.2045 18.1134 52.351 18.1419 52.4928C18.1658 52.6445 18.2195 52.7899 18.3001 52.9206C18.3807 53.0512 18.4865 53.1645 18.6114 53.2538C18.7362 53.3432 18.8776 53.4068 19.0273 53.4409C19.177 53.475 19.332 53.4789 19.4832 53.4525H32.6296C32.8443 53.4641 33.059 53.4287 33.2587 53.3488C33.4584 53.2689 33.6383 53.1465 33.7858 52.99C33.8782 52.8768 33.9439 52.7442 33.978 52.602C34.012 52.4599 34.0135 52.3119 33.9824 52.1691C33.9574 52.0161 33.9019 51.8697 33.8192 51.7386C33.7366 51.6075 33.6284 51.4944 33.5011 51.406C33.3738 51.3175 33.23 51.2556 33.0783 51.2238C32.9266 51.192 32.7701 51.191 32.618 51.221Z" fill="#E7142D"/>
<path d="M32.6286 58.8057H22.2225H19.4359C19.2794 58.7898 19.1213 58.806 18.9713 58.8534C18.8212 58.9007 18.6825 58.9782 18.5634 59.081C18.4443 59.1838 18.3475 59.3098 18.2788 59.4514C18.2102 59.5929 18.1711 59.747 18.1641 59.9041C18.1641 60.2108 18.2859 60.5049 18.5027 60.7217C18.7196 60.9386 19.0136 61.0604 19.3203 61.0604C23.7988 61.0604 28.2734 61.0604 32.7442 61.0604C32.9915 61.0918 33.242 61.0363 33.4529 60.9035C33.6638 60.7706 33.822 60.5686 33.9004 60.332C33.9662 60.1795 33.9933 60.0132 33.9792 59.8477C33.965 59.6823 33.9102 59.5229 33.8195 59.3838C33.6827 59.1981 33.5029 59.0485 33.2954 58.9478C33.0879 58.847 32.8591 58.7983 32.6286 58.8057Z" fill="#E7142D"/>
<path d="M24.4542 43.6366H19.5749C19.3648 43.6219 19.1539 43.6502 18.9551 43.7198C18.7563 43.7894 18.5737 43.8988 18.4186 44.0413C18.3258 44.1349 18.254 44.2473 18.2081 44.3709C18.1623 44.4946 18.1434 44.6266 18.1527 44.7581C18.1527 45.4287 18.6961 45.9144 19.5055 45.9144C21.1705 45.9144 22.8239 45.9144 24.4658 45.9144C25.3098 45.9144 25.7839 45.4981 25.7723 44.7581C25.7839 43.7985 24.9514 43.6481 24.4542 43.6366Z" fill="#E7142D"/>
<path d="M39.0914 61.0265C39.3717 61.0292 39.6418 60.9212 39.8429 60.7258C40.0526 60.5209 40.1766 60.244 40.1898 59.9512C40.1908 59.6599 40.0817 59.379 39.8845 59.1646C39.6873 58.9503 39.4164 58.8182 39.1261 58.7949C38.9909 58.7947 38.8569 58.8212 38.7319 58.8727C38.607 58.9243 38.4934 59 38.3977 59.0955C38.1853 59.3033 38.0611 59.5849 38.0508 59.8818C38.0522 60.1674 38.1593 60.4424 38.3515 60.6538C38.5436 60.8651 38.8072 60.9979 39.0914 61.0265Z" fill="#E7142D"/>
<path d="M1.07501 39.5317C1.31065 39.4585 1.5167 39.3118 1.66303 39.1131C1.80936 38.9145 1.8883 38.6742 1.8883 38.4274C1.8883 38.1807 1.80936 37.9404 1.66303 37.7418C1.5167 37.5431 1.31065 37.3964 1.07501 37.3232C0.839366 37.3964 0.633316 37.5431 0.486985 37.7418C0.340654 37.9404 0.261719 38.1807 0.261719 38.4274C0.261719 38.6742 0.340654 38.9145 0.486985 39.1131C0.633316 39.3118 0.839366 39.4585 1.07501 39.5317Z" fill="#E7142D"/>
</g>
<defs>
<clipPath id="clip0_1509_7238">
<rect width="79.9653" height="80" fill="white"/>
</clipPath>
</defs>
</svg>
