<svg width="81" height="80" viewBox="0 0 81 80" fill="none" xmlns="http://www.w3.org/2000/svg">
<g clip-path="url(#clip0_1509_895)">
<path d="M50.7247 77.9607H48.807L47.377 73.2496C47.3407 73.1219 47.2788 73.0029 47.1949 72.9C47.111 72.797 47.007 72.7123 46.8893 72.651C46.7718 72.5866 46.6425 72.5466 46.5092 72.5332C46.3759 72.5199 46.2413 72.5336 46.1133 72.5734C45.8616 72.6551 45.6515 72.8314 45.5274 73.0651C45.4033 73.2989 45.3749 73.5717 45.4482 73.826L46.6676 77.9274H27.9119L31.3371 66.521H39.9279C40.059 66.521 40.1887 66.4952 40.3097 66.4451C40.4308 66.3949 40.5408 66.3214 40.6334 66.2288C40.726 66.1362 40.7995 66.0262 40.8497 65.9051C40.8998 65.7841 40.9256 65.6544 40.9256 65.5234C40.9256 65.3924 40.8998 65.2626 40.8497 65.1416C40.7995 65.0205 40.726 64.9106 40.6334 64.8179C40.5408 64.7253 40.4308 64.6518 40.3097 64.6017C40.1887 64.5515 40.059 64.5257 39.9279 64.5257H6.60662C5.90817 64.5466 5.21438 64.4053 4.57971 64.1129C3.94503 63.8206 3.38673 63.3852 2.94859 62.8408C2.51377 62.2601 2.21692 61.5879 2.08055 60.8754C1.94419 60.1628 1.97189 59.4286 2.16156 58.7283L2.22807 58.4733H38.5756C38.8461 58.4733 39.1054 58.3659 39.2967 58.1747C39.488 57.9834 39.5954 57.724 39.5954 57.4535C39.5954 57.1831 39.488 56.9237 39.2967 56.7324C39.1054 56.5412 38.8461 56.4337 38.5756 56.4337H1.99529V29.2867C1.99529 29.1557 1.96948 29.026 1.91935 28.9049C1.86921 28.7839 1.79573 28.6739 1.70309 28.5813C1.61045 28.4886 1.50047 28.4151 1.37943 28.365C1.25839 28.3149 1.12866 28.2891 0.997645 28.2891C0.866632 28.2891 0.736902 28.3149 0.615862 28.365C0.494823 28.4151 0.384843 28.4886 0.292203 28.5813C0.199563 28.6739 0.126077 28.7839 0.0759409 28.9049C0.0258045 29.026 -3.90448e-09 29.1557 0 29.2867V59.6594C0 63.905 2.6493 66.5986 6.92809 66.5986H29.2088L25.7725 78.0493H23.8437C23.7127 78.0493 23.583 78.0751 23.4619 78.1253C23.3409 78.1754 23.2309 78.2489 23.1383 78.3416C23.0456 78.4342 22.9721 78.5442 22.922 78.6652C22.8719 78.7862 22.8461 78.916 22.8461 79.047C22.8461 79.178 22.8719 79.3077 22.922 79.4288C22.9721 79.5498 23.0456 79.6598 23.1383 79.7524C23.2309 79.8451 23.3409 79.9186 23.4619 79.9687C23.583 80.0188 23.7127 80.0446 23.8437 80.0446H50.7247C50.8668 80.0595 51.0104 80.0444 51.1463 80.0002C51.2822 79.956 51.4072 79.8837 51.5134 79.7881C51.6196 79.6925 51.7044 79.5756 51.7626 79.4451C51.8206 79.3145 51.8507 79.1732 51.8507 79.0304C51.8507 78.8875 51.8206 78.7462 51.7626 78.6157C51.7044 78.4851 51.6196 78.3683 51.5134 78.2726C51.4072 78.177 51.2822 78.1048 51.1463 78.0606C51.0104 78.0164 50.8668 78.0012 50.7247 78.0161V77.9607Z" fill="#E7142D"/>
<path d="M79.9225 75.4658C79.8159 75.1211 79.655 74.7955 79.4458 74.5015C78.9673 73.8103 78.4133 73.1745 77.7942 72.6059C77.1291 71.963 76.4751 71.2979 75.81 70.6439L75.5107 70.3335C74.6682 69.4911 73.8258 68.6486 72.9722 67.8172C72.721 67.6312 72.5525 67.3542 72.5028 67.0456C72.4531 66.737 72.5261 66.4211 72.7062 66.1656C74.4229 63.093 75.0148 59.5181 74.38 56.0561C73.6835 51.9951 71.4214 48.3695 68.08 45.9588C64.7385 43.548 60.5845 42.5446 56.5111 43.1643C54.404 43.4693 52.3801 44.1962 50.5605 45.3015C48.7409 46.4068 47.163 47.8678 45.9211 49.5971C44.6793 51.3264 43.799 53.2884 43.333 55.3658C42.867 57.4432 42.8249 59.5932 43.2092 61.6873C43.6601 64.1414 44.6864 66.4536 46.2039 68.4343C47.7214 70.415 49.6868 72.0077 51.9389 73.0819C54.1911 74.156 56.6658 74.681 59.16 74.6136C61.6543 74.5463 64.0971 73.8887 66.288 72.6946C66.5016 72.5417 66.7669 72.4792 67.0264 72.5207C67.2858 72.5622 67.5184 72.7043 67.6736 72.9163C68.4274 73.6812 69.1812 74.4349 69.8906 75.1333C70.6 75.8316 71.6642 76.9069 72.5288 77.8048L72.7394 78.0154C73.4326 78.9312 74.3933 79.6091 75.4885 79.9552H75.6991H76.0982C76.6183 79.9724 77.1364 79.8829 77.6206 79.6922C78.1048 79.5016 78.5449 79.2139 78.9137 78.8468C79.3604 78.4189 79.6882 77.8823 79.8651 77.2896C80.0419 76.697 80.0617 76.0685 79.9225 75.4658ZM58.8611 72.5838C57.0364 72.5905 55.2284 72.2366 53.5411 71.5422C51.8537 70.8479 50.3202 69.8268 49.0288 68.5378C47.7527 67.2665 46.7419 65.7545 46.055 64.0895C45.368 62.4245 45.0186 60.6396 45.0271 58.8384C45.0227 56.1174 45.8248 53.4561 47.332 51.1906C48.8392 48.9251 50.984 47.157 53.4954 46.1096C56.0068 45.0623 58.7722 44.7826 61.4425 45.306C64.1128 45.8293 66.5681 47.1322 68.4983 49.0501C70.4286 50.968 71.7472 53.4148 72.2877 56.0817C72.8282 58.7485 72.5663 61.5157 71.5352 64.0338C70.504 66.5519 68.7498 68.708 66.494 70.2297C64.2382 71.7514 61.5821 72.5706 58.8611 72.5838ZM77.4284 77.4944C77.2662 77.6503 77.0746 77.7724 76.8648 77.8536C76.655 77.9348 76.4311 77.9734 76.2062 77.9672C75.9813 77.961 75.7599 77.9102 75.5548 77.8176C75.3498 77.725 75.1652 77.5925 75.0118 77.4279L70.722 73.1602L68.8375 71.2092L71.1654 68.8149L73.1163 70.7769C74.5574 72.2069 75.9984 73.6479 77.4173 75.089C77.7568 75.4228 77.9519 75.8765 77.9604 76.3526C77.9548 76.5672 77.9069 76.7784 77.8194 76.9744C77.7319 77.1703 77.6065 77.347 77.4505 77.4944H77.4284Z" fill="#E7142D"/>
<path d="M49.0518 42.6329V21.3941C49.0518 20.5074 48.697 20.1748 47.7548 20.1748H40.6161C40.18 20.1748 39.7616 20.3473 39.4521 20.6546C39.1427 20.962 38.9674 21.3793 38.9645 21.8154V51.0796H35.5836V31.0048C35.6327 30.6104 35.5252 30.2124 35.2843 29.8963C35.0404 29.6635 34.6192 29.5859 33.7656 29.6192C32.1472 29.6857 30.0078 29.7522 27.8795 29.6192C26.6934 29.5637 26.1059 29.6192 25.8066 29.863C25.5073 30.1069 25.4963 30.4284 25.4963 31.1156V51.0796H22.1708V40.4381C22.1708 39.4515 20.9958 39.0746 20.2863 38.997H14.0788C13.8792 38.997 12.0835 39.1855 12.0835 40.4713V51.0796H7.7271C7.48774 51.1052 7.2663 51.2185 7.10539 51.3975C6.94448 51.5766 6.85547 51.8088 6.85547 52.0495C6.85547 52.2903 6.94448 52.5225 7.10539 52.7016C7.2663 52.8806 7.48774 52.9939 7.7271 53.0195H40.9819V22.2588H47.001V42.6551C47.0023 42.7855 47.0294 42.9143 47.0808 43.0342C47.1321 43.1541 47.2068 43.2626 47.3003 43.3534C47.4331 43.4941 47.6083 43.5876 47.7992 43.6195V43.7303H48.2315V43.6527C48.4682 43.6101 48.6815 43.4835 48.8322 43.2961C48.9829 43.1087 49.0609 42.8732 49.0518 42.6329ZM20.0646 51.0796H14.1896V41.1032H20.0646V51.0796ZM33.5107 51.0796H27.6135V31.6366H33.5439L33.5107 51.0796Z" fill="#E7142D"/>
<path d="M66.6203 2.18361C67.7207 2.38855 68.7332 2.92183 69.5246 3.71327C70.3161 4.50472 70.8494 5.51724 71.0543 6.61759C71.1175 6.83497 71.2506 7.02548 71.4329 7.15971C71.6152 7.29394 71.8367 7.36443 72.063 7.36028C72.2174 7.36133 72.3701 7.32806 72.51 7.26288C72.65 7.1977 72.7737 7.10224 72.8722 6.98339C72.9654 6.87719 73.0329 6.75095 73.0694 6.61446C73.1059 6.47797 73.1105 6.33491 73.0828 6.19636C72.8205 4.81851 72.1617 3.54719 71.1873 2.53833C70.0816 1.36235 68.6493 0.543942 67.0748 0.188325C66.9353 0.160672 66.7914 0.16422 66.6534 0.198716C66.5154 0.233211 66.3868 0.2978 66.2767 0.387854C66.1592 0.488237 66.064 0.612082 65.9972 0.751438C65.9303 0.890794 65.8934 1.04258 65.8887 1.19705C65.8869 1.41866 65.9573 1.63482 66.0893 1.81282C66.2213 1.99083 66.4077 2.12099 66.6203 2.18361Z" fill="#E7142D"/>
<path d="M8.02545 21.4053C8.27585 21.4053 8.52061 21.3309 8.72865 21.1915C8.9367 21.0522 9.09865 20.8542 9.19396 20.6226C9.28927 20.3911 9.31364 20.1364 9.26398 19.891C9.21431 19.6455 9.09286 19.4204 8.91502 19.2441C8.73718 19.0678 8.51097 18.9484 8.26512 18.9009C8.01926 18.8534 7.76484 18.88 7.53413 18.9773C7.30342 19.0747 7.10684 19.2384 6.96933 19.4476C6.83181 19.6569 6.75957 19.9023 6.76177 20.1527C6.76469 20.4859 6.89912 20.8045 7.13579 21.0391C7.37246 21.2737 7.69221 21.4053 8.02545 21.4053Z" fill="#E7142D"/>
<path d="M15.097 20.152C15.097 19.9043 15.0235 19.6621 14.8859 19.4561C14.7483 19.2501 14.5526 19.0896 14.3237 18.9948C14.0949 18.9 13.843 18.8752 13.6 18.9235C13.357 18.9718 13.1339 19.0911 12.9587 19.2663C12.7835 19.4415 12.6642 19.6647 12.6159 19.9076C12.5675 20.1506 12.5923 20.4025 12.6871 20.6314C12.782 20.8602 12.9425 21.0559 13.1485 21.1935C13.3545 21.3311 13.5967 21.4046 13.8444 21.4046C14.1766 21.4046 14.4952 21.2726 14.7301 21.0377C14.965 20.8028 15.097 20.4842 15.097 20.152Z" fill="#E7142D"/>
<path d="M20.9388 20.1195C20.9273 19.799 20.7911 19.4956 20.5592 19.2741C20.3273 19.0526 20.018 18.9303 19.6973 18.9334C19.531 18.9275 19.3651 18.9548 19.2095 19.0137C19.0538 19.0726 18.9114 19.1619 18.7907 19.2765C18.6699 19.3911 18.5732 19.5285 18.5062 19.6809C18.4392 19.8332 18.4032 19.9974 18.4004 20.1638C18.4033 20.4912 18.5354 20.8041 18.7679 21.0346C19.0004 21.265 19.3145 21.3943 19.6419 21.3943C19.812 21.4003 19.9815 21.3717 20.1401 21.31C20.2987 21.2484 20.4431 21.1551 20.5645 21.0358C20.6859 20.9165 20.7817 20.7737 20.846 20.6162C20.9104 20.4586 20.942 20.2896 20.9388 20.1195Z" fill="#E7142D"/>
<path d="M58.8605 48.3966C56.7955 48.3878 54.7743 48.9929 53.0538 50.1349C51.3333 51.277 49.9909 52.9046 49.1971 54.811C48.4033 56.7174 48.1938 58.8167 48.5954 60.8424C48.9969 62.8681 49.9913 64.7287 51.4523 66.1882C52.9133 67.6477 54.7751 68.6401 56.8012 69.0394C58.8273 69.4388 60.9264 69.2272 62.8319 68.4313C64.7375 67.6355 66.3636 66.2913 67.5039 64.5696C68.6441 62.8478 69.247 60.8261 69.236 58.761C69.2272 56.013 68.1309 53.3802 66.1867 51.438C64.2425 49.4959 61.6086 48.4024 58.8605 48.3966ZM58.8605 67.241C57.7525 67.2483 56.6539 67.0363 55.628 66.6174C54.6022 66.1984 53.6694 65.5806 52.8833 64.7997C52.0972 64.0187 51.4733 63.0899 51.0476 62.0669C50.6219 61.0438 50.4027 59.9467 50.4027 58.8386C50.3998 57.7286 50.6168 56.6291 51.0412 55.6035C51.4656 54.5778 52.089 53.6465 52.8754 52.8632C53.6618 52.0798 54.5956 51.4601 55.6229 51.0397C56.6502 50.6194 57.7506 50.4067 58.8605 50.414C61.0775 50.4403 63.1948 51.3395 64.7532 52.9165C66.3116 54.4936 67.1855 56.6214 67.1853 58.8386C67.1678 61.0605 66.2744 63.1857 64.6991 64.7527C63.1237 66.3197 60.9938 67.2019 58.7718 67.2077L58.8605 67.241Z" fill="#E7142D"/>
<path d="M0.32087 23.8218C0.410941 23.9164 0.519285 23.9917 0.639329 24.0432C0.759373 24.0946 0.888617 24.1211 1.01922 24.1211C1.15117 24.1211 1.28181 24.095 1.40358 24.0442C1.52535 23.9933 1.63582 23.9188 1.72861 23.825C1.8214 23.7312 1.89465 23.6199 1.94413 23.4976C1.99361 23.3753 2.01833 23.2444 2.01687 23.1124V20.3412C2.01687 17.2485 3.77937 15.4749 6.8499 15.4749H52.4201V39.9948C52.4462 40.2427 52.5631 40.4721 52.7484 40.6389C52.9336 40.8056 53.174 40.8979 53.4233 40.8979C53.6725 40.8979 53.9129 40.8056 54.0982 40.6389C54.2834 40.4721 54.4004 40.2427 54.4265 39.9948V8.48029H51.234L57.4416 2.30598L63.7489 8.45812H60.4234V38.5759C60.4498 38.8295 60.5692 39.0642 60.7586 39.2349C60.948 39.4056 61.1938 39.5 61.4488 39.5C61.7037 39.5 61.9496 39.4056 62.1389 39.2349C62.3283 39.0642 62.4477 38.8295 62.4741 38.5759V15.4749H67.7284C70.8211 15.4749 72.6058 17.2706 72.6058 20.3855V46.3354H74.6343V20.3412C74.6343 16.0956 71.985 13.4574 67.7173 13.4463H62.5406V10.0654H65.1788C65.4327 10.122 65.6985 10.0875 65.9295 9.96795C66.1605 9.84838 66.3421 9.65138 66.4425 9.41142C66.6199 8.95694 66.509 8.61331 66.0213 8.12557L62.7845 4.89985C61.3065 3.42186 59.8285 1.94387 58.3505 0.465878C57.6854 -0.199218 57.242 -0.210303 56.5769 0.465878C54.7073 2.32076 52.8598 4.16825 51.0345 6.00835L48.8175 8.22534C48.6314 8.36029 48.497 8.55473 48.4366 8.77647C48.3761 8.99821 48.3932 9.23396 48.4849 9.44468C48.5821 9.65136 48.7407 9.82298 48.9392 9.93608C49.1376 10.0492 49.3661 10.0982 49.5934 10.0765H52.3647V13.402H6.76122C5.85942 13.3673 4.95998 13.5164 4.11767 13.8404C3.27535 14.1644 2.50778 14.6564 1.86168 15.2864C1.22054 15.9626 0.724569 16.7628 0.4043 17.6378C0.0840312 18.5128 -0.0537607 19.4442 -0.000593618 20.3744C-0.000593618 21.2834 -0.000593618 22.1924 -0.000593618 23.1013C-0.000142653 23.2372 0.0286848 23.3715 0.0840417 23.4955C0.139399 23.6196 0.220064 23.7308 0.32087 23.8218Z" fill="#E7142D"/>
</g>
<defs>
<clipPath id="clip0_1509_895">
<rect width="80.0333" height="80" fill="white"/>
</clipPath>
</defs>
</svg>
