<svg width="77" height="76" viewBox="0 0 77 76" fill="none" xmlns="http://www.w3.org/2000/svg">
<g clip-path="url(#clip0_1509_12967)">
<path d="M75.0607 52.1899C75.4308 51.2456 75.6645 50.2533 75.7547 49.243C75.8401 47.492 75.8187 45.6982 75.7547 43.9685V42.5912C75.7632 41.2121 75.3497 39.8633 74.5695 38.726C74.2018 38.2207 73.8024 37.7393 73.3737 37.2846C73.1601 37.0391 72.9573 36.8148 72.7651 36.5799L72.4554 36.2276L72.7651 35.8752C72.8274 35.7925 72.899 35.7173 72.9786 35.651C73.9186 34.9059 74.6655 33.9455 75.1561 32.8509C75.6467 31.7563 75.8667 30.5597 75.7974 29.3622C75.7974 27.7499 75.7974 25.8601 75.7974 24.0236C75.8183 21.7967 75.0377 19.6366 73.5979 17.9376C70.5558 14.11 67.9488 9.95597 65.8249 5.55212C64.6718 3.12841 63.54 1.78309 62.1733 1.06772C61.5459 0.771224 60.9004 0.514467 60.2408 0.298961L59.4186 0H16.5605L15.9519 0.170834C15.4769 0.291487 15.0098 0.44125 14.5532 0.619275C13.0353 1.264 11.7711 2.38938 10.955 3.82242L7.87998 8.76595C5.79794 12.1079 3.60912 15.5673 1.53775 19.0267C1.10328 19.7902 0.745622 20.5949 0.470036 21.4291C0.190808 22.1549 0.0460862 22.9256 0.0429503 23.7033V29.9815C0.0406454 30.6225 0.137898 31.2601 0.331234 31.8713C0.56736 32.8277 1.0041 33.7231 1.61249 34.4979C1.90078 34.8075 2.22109 35.0851 2.55208 35.3948L3.06458 35.8646L3.53438 36.3023L3.02188 36.6867C2.14193 37.3162 1.4126 38.133 0.886446 39.0784C0.238945 40.3675 -0.0662267 41.8014 0.000241217 43.2425V48.7305C-0.00236084 49.7728 0.182073 50.8071 0.544776 51.7842C0.775327 52.4869 1.1377 53.1391 1.61249 53.7061C1.90641 54.0175 2.21647 54.3134 2.5414 54.5923L3.06458 55.0621L3.53438 55.4999L3.02188 55.8842C2.14145 56.5176 1.41218 57.338 0.886446 58.2866C0.234842 59.5781 -0.070509 61.0165 0.000241217 62.4614V69.2414C0.0599153 69.3267 0.096679 69.426 0.107013 69.5296C0.420925 71.3079 1.35675 72.9168 2.74737 74.0688C4.13798 75.2208 5.89281 75.8409 7.69847 75.8185H7.89066C12.3324 75.7544 16.8488 75.8185 21.2264 75.8185H23.1483C24.6965 75.8185 26.2874 75.8185 27.8569 75.8185C28.1397 75.8316 28.4229 75.8101 28.7004 75.7544C28.9067 75.6695 29.0812 75.522 29.1993 75.3328C29.3175 75.1436 29.3735 74.9222 29.3593 74.6995C29.3452 74.4769 29.2617 74.2643 29.1205 74.0916C28.9794 73.9188 28.7877 73.7946 28.5723 73.7364C28.3163 73.72 28.0595 73.72 27.8036 73.7364H7.94405C4.59142 73.7364 2.39192 71.7719 2.18906 68.6114C2.09296 66.9031 2.18906 65.184 2.18906 63.5184C2.18906 62.8564 2.18906 62.1944 2.18906 61.5218C2.19785 61.1991 2.25176 60.8792 2.34922 60.5715C2.67315 59.3885 3.39453 58.3532 4.39205 57.6396C5.38958 56.9259 6.60241 56.5776 7.8266 56.653H33.644C34.0044 56.6662 34.3646 56.623 34.7117 56.5249C34.9244 56.4496 35.103 56.3004 35.2147 56.1043C35.3265 55.9083 35.364 55.6785 35.3203 55.4571C35.3092 55.2376 35.2239 55.0283 35.0785 54.8635C34.933 54.6986 34.736 54.588 34.5195 54.5496C34.26 54.5326 33.9996 54.5326 33.7401 54.5496H7.94405C4.59142 54.5496 2.39192 52.5743 2.18906 49.4139C2.09296 47.7162 2.18906 45.9972 2.18906 44.3316C2.18906 43.6696 2.18906 42.9969 2.18906 42.3349C2.19699 42.0122 2.25092 41.6922 2.34922 41.3847C2.67555 40.1883 3.40816 39.1429 4.42127 38.4279C5.43439 37.7129 6.66482 37.3728 7.90134 37.4661H68.5903C69.8534 37.5056 71.0583 38.0065 71.977 38.8741C72.8958 39.7418 73.4649 40.916 73.5765 42.1748C73.6726 43.4026 73.6726 44.6519 73.6619 45.8584V46.0292C73.6619 46.5844 73.6619 47.0969 73.6619 47.6842C73.7303 48.9545 73.5415 50.2256 73.1067 51.4212C73.0462 51.5499 73.012 51.6895 73.0061 51.8316C73.0002 51.9737 73.0228 52.1156 73.0726 52.2489C73.1223 52.3822 73.1982 52.5042 73.2957 52.6077C73.3932 52.7113 73.5105 52.7943 73.6406 52.8519C73.7723 52.9077 73.9139 52.9365 74.057 52.9365C74.2001 52.9365 74.3417 52.9077 74.4734 52.8519C74.6107 52.7867 74.7335 52.6944 74.8344 52.5807C74.9353 52.467 75.0123 52.3341 75.0607 52.1899ZM6.50263 15.0014C6.58805 14.8306 6.67346 14.6811 6.75888 14.5423L8.62738 11.5527L8.74483 11.3605C10.0368 9.2998 11.3714 7.16437 12.642 5.06097C13.1674 4.11986 13.9462 3.34489 14.8898 2.824C15.8335 2.30311 16.9042 2.05717 17.9806 2.11408C31.0174 2.11408 44.4492 2.11408 57.9025 2.11408C58.9792 2.05464 60.051 2.29951 60.9951 2.82065C61.9392 3.3418 62.7175 4.11818 63.241 5.06097C64.6184 7.32453 66.0491 9.62012 67.3197 11.6488L69.1348 14.553L69.3804 14.9587L69.9997 16.0264H5.93674L6.50263 15.0014ZM68.2379 35.2239H8.01879C6.92559 35.3161 5.83013 35.0747 4.87701 34.5314C3.92389 33.9881 3.15792 33.1686 2.68021 32.181C2.35375 31.5147 2.17182 30.787 2.14635 30.0455C2.14635 27.7072 2.06093 25.3262 2.19974 22.9559C2.27349 21.773 2.75921 20.6532 3.57255 19.7911C4.38589 18.929 5.47548 18.379 6.65211 18.2366C7.12645 18.1755 7.60473 18.1506 8.08285 18.1618H67.9817C69.2084 18.0907 70.422 18.4448 71.4179 19.1645C72.4138 19.8842 73.131 20.9254 73.4484 22.1124C73.5512 22.4591 73.6051 22.8185 73.6086 23.1801C73.6086 23.8741 73.6086 24.5681 73.6086 25.2622C73.6086 27.0773 73.6086 28.9458 73.5231 30.7716C73.3843 33.1953 71.1528 35.0851 68.2379 35.2239Z" fill="#E7142D"/>
<path d="M75.8716 64.2122C75.6461 61.551 74.4373 59.0693 72.481 57.2511C70.5246 55.433 67.9611 54.4088 65.2905 54.3786C64.8863 54.3893 64.486 54.297 64.1273 54.1101C63.7686 53.9233 63.4634 53.6483 63.2405 53.3108C62.1669 51.8671 60.8122 50.6555 59.258 49.749C57.7038 48.8426 55.9822 48.26 54.197 48.0363C53.5491 47.9518 52.8964 47.909 52.2431 47.9082C48.9409 47.9105 45.7478 49.0899 43.2371 51.2347C40.7263 53.3795 39.0624 56.3492 38.5443 59.6104C38.5282 59.9786 38.3874 60.3304 38.1448 60.6079C37.9022 60.8854 37.5724 61.0721 37.2096 61.1372C35.4786 61.6843 34.0026 62.8368 33.0524 64.3837C32.1021 65.9305 31.7411 67.7681 32.0355 69.5595C32.33 71.3509 33.2602 72.9761 34.6556 74.1374C36.051 75.2987 37.8183 75.9182 39.6333 75.8824H64.7567C65.5766 75.8885 66.3953 75.817 67.2018 75.6688C69.8021 75.158 72.1233 73.7077 73.7224 71.5946C75.3215 69.4814 76.0866 66.8535 75.8716 64.2122ZM73.4692 66.1555C73.2346 68.0393 72.3675 69.7876 71.0097 71.1144C69.6519 72.4411 67.884 73.2676 65.9952 73.4586C65.0663 73.5441 64.1161 73.5547 63.1871 73.5547H39.9216C38.8748 73.6241 37.8311 73.3798 36.9239 72.853C36.0167 72.3262 35.2872 71.5407 34.8286 70.5972C34.4576 69.8486 34.2744 69.0209 34.2948 68.1856C34.3153 67.3504 34.5388 66.5326 34.9461 65.8031C35.3301 65.0773 35.8842 64.4554 36.561 63.9905C37.2379 63.5257 38.0173 63.2317 38.8326 63.1338C40.4662 62.9737 40.5943 62.8455 40.7224 61.1692C40.8664 58.7558 41.7632 56.4483 43.2868 54.571C44.8103 52.6938 46.8839 51.3413 49.216 50.7038C51.5482 50.0662 54.0215 50.1757 56.2881 51.0168C58.5548 51.8579 60.5008 53.3884 61.8525 55.3929L61.9379 55.5103C62.0082 55.6096 62.0724 55.713 62.1301 55.82C62.5145 56.6101 63.1017 56.8877 64.2655 56.813C65.4561 56.6946 66.6583 56.7996 67.8104 57.1226C69.668 57.7181 71.2551 58.9516 72.2907 60.6048C73.3264 62.2579 73.7438 64.2241 73.4692 66.1555Z" fill="#E7142D" stroke="white" stroke-width="0.2" stroke-miterlimit="10"/>
<path d="M64.4582 41.5123H40.1677C39.6114 41.4558 39.0543 41.6122 38.6088 41.9501C38.5158 42.05 38.4442 42.1678 38.3983 42.2963C38.3524 42.4248 38.3332 42.5613 38.3419 42.6975C38.3419 42.9858 38.3419 43.872 40.1677 43.872H64.4582C65.0145 43.9285 65.5715 43.772 66.0171 43.4342C66.11 43.3343 66.1816 43.2165 66.2275 43.088C66.2734 42.9595 66.2926 42.823 66.284 42.6868C66.284 42.3985 66.2733 41.5123 64.4582 41.5123Z" fill="#E7142D" stroke="white" stroke-width="0.2" stroke-miterlimit="10"/>
<path d="M7.66659 48.891C8.06011 49.2891 8.52912 49.6046 9.04614 49.8191C9.56316 50.0336 10.1178 50.1428 10.6775 50.1402C11.8102 50.1402 12.8966 49.6903 13.6975 48.8893C14.4984 48.0884 14.9484 47.0021 14.9484 45.8694C14.9515 45.3121 14.8436 44.7597 14.631 44.2446C14.4183 43.7295 14.1052 43.2619 13.7099 42.8691C13.3165 42.4649 12.8469 42.1426 12.3283 41.9209C11.8096 41.6991 11.2522 41.5823 10.6882 41.5771C9.55552 41.5771 8.46921 42.0271 7.66826 42.8281C6.86732 43.629 6.41736 44.7153 6.41736 45.848C6.40989 46.4132 6.51669 46.9741 6.73136 47.497C6.94603 48.0199 7.26414 48.4941 7.66659 48.891ZM10.6882 43.7873C11.2546 43.7873 11.7977 44.0123 12.1982 44.4128C12.5987 44.8132 12.8237 45.3564 12.8237 45.9228C12.824 46.4764 12.6093 47.0085 12.2249 47.4069C11.8404 47.8053 11.3163 48.0388 10.763 48.0582H10.7096C10.1568 48.0503 9.6286 47.8283 9.23613 47.4389C8.95104 47.1402 8.75867 46.7652 8.68233 46.3594C8.60599 45.9536 8.64895 45.5343 8.806 45.1524C8.96306 44.7705 9.22747 44.4423 9.56722 44.2076C9.90697 43.9729 10.3075 43.8418 10.7203 43.83L10.6882 43.7873Z" fill="#E7142D"/>
<path d="M6.43877 65.0876C6.43217 65.6486 6.53842 66.2051 6.75119 66.7242C6.96395 67.2433 7.2789 67.7143 7.67732 68.1092C8.48723 68.8975 9.56887 69.3446 10.699 69.3585C11.8317 69.3585 12.918 68.9085 13.7189 68.1076C14.5198 67.3066 14.9698 66.2203 14.9698 65.0876C14.9698 63.9549 14.5198 62.8686 13.7189 62.0676C12.918 61.2667 11.8317 60.8167 10.699 60.8167V60.71V60.8167C9.5681 60.8196 8.48453 61.2708 7.68589 62.0714C6.88726 62.872 6.43876 63.9567 6.43877 65.0876ZM10.7096 63.0056C11.2651 63.0053 11.7987 63.2215 12.1974 63.6082C12.5961 63.9949 12.8284 64.5217 12.8451 65.0769C12.8482 65.3648 12.793 65.6504 12.6829 65.9165C12.5728 66.1825 12.4101 66.4236 12.2044 66.6251C11.8129 67.008 11.2892 67.2259 10.7417 67.2337H10.6883C10.1375 67.2043 9.61808 66.9679 9.23403 66.572C8.84998 66.1761 8.62957 65.6497 8.61691 65.0983C8.63084 64.5412 8.86195 64.0117 9.26092 63.6227C9.65989 63.2337 10.1951 63.016 10.7523 63.0162L10.7096 63.0056Z" fill="#E7142D"/>
<path d="M64.4477 22.2939H40.1571C39.6043 22.2391 39.0512 22.3955 38.6089 22.7317C38.4246 22.94 38.3289 23.212 38.342 23.4898C38.342 23.7781 38.342 24.6643 40.1785 24.6643H64.4583C65.0146 24.7208 65.5717 24.5644 66.0172 24.2265C66.1102 24.1266 66.1818 24.0088 66.2277 23.8803C66.2736 23.7518 66.2928 23.6153 66.2841 23.4791C66.2841 23.1802 66.2735 22.2939 64.4477 22.2939Z" fill="#E7142D" stroke="white" stroke-width="0.2" stroke-miterlimit="10"/>
<path d="M65.0454 28.7217C63.9777 28.7217 62.9099 28.7217 61.9276 28.7217H39.9113C39.3348 28.7217 38.3738 28.8712 38.3418 29.8748C38.3312 30.0112 38.3495 30.1482 38.3955 30.277C38.4415 30.4058 38.5141 30.5234 38.6087 30.6222C38.9721 30.9349 39.4438 31.0921 39.922 31.06H64.4795C64.8168 31.071 65.1541 31.0387 65.4831 30.9639C65.7178 30.8783 65.918 30.7181 66.053 30.5079C66.1879 30.2977 66.2503 30.0491 66.2305 29.8001C66.2038 29.5046 66.0672 29.2299 65.8478 29.0302C65.6284 28.8306 65.342 28.7205 65.0454 28.7217Z" fill="#E7142D" stroke="white" stroke-width="0.2" stroke-miterlimit="10"/>
<path d="M7.66594 29.6716C8.05821 30.0721 8.52675 30.3899 9.0439 30.6063C9.56104 30.8227 10.1163 30.9333 10.6769 30.9315C11.8004 30.9316 12.8787 30.489 13.6781 29.6995C14.4776 28.9101 14.9337 27.8375 14.9478 26.714C14.9547 26.1597 14.8505 25.6096 14.6415 25.0961C14.4324 24.5827 14.1227 24.1163 13.7306 23.7244C13.3364 23.3138 12.8642 22.9861 12.3417 22.7606C11.8191 22.535 11.2567 22.4162 10.6876 22.4111C9.56415 22.4252 8.4915 22.8813 7.70207 23.6808C6.91264 24.4802 6.47001 25.5585 6.4701 26.682C6.46277 27.2345 6.56463 27.783 6.76985 28.2961C6.97506 28.8091 7.27959 29.2766 7.66594 29.6716ZM10.6876 24.5786C11.2448 24.5784 11.78 24.7961 12.179 25.1851C12.578 25.5741 12.8091 26.1036 12.823 26.6606C12.8233 27.2143 12.6086 27.7464 12.2242 28.1448C11.8398 28.5432 11.3156 28.7767 10.7623 28.7961H10.7089C10.1546 28.7853 9.62623 28.5594 9.23548 28.1661C8.9538 27.867 8.7644 27.4929 8.69 27.0888C8.6156 26.6848 8.65937 26.2678 8.81604 25.8879C8.97271 25.5081 9.23563 25.1815 9.57328 24.9474C9.91092 24.7132 10.3089 24.5815 10.7196 24.5679L10.6876 24.5786Z" fill="#E7142D"/>
</g>
<defs>
<clipPath id="clip0_1509_12967">
<rect width="76.0107" height="76" fill="white"/>
</clipPath>
</defs>
</svg>
