<svg width="48" height="50" viewBox="0 0 48 50" fill="none" xmlns="http://www.w3.org/2000/svg">
<g clip-path="url(#clip0_152_1849)">
<path d="M22.2899 49.7698C22.1499 49.7698 22.0099 49.7398 21.8799 49.6698C21.5999 49.5198 21.4199 49.2298 21.4199 48.9098V41.6398C21.4199 39.2298 23.3799 37.2598 25.7999 37.2598H38.4599C38.8399 37.2598 39.1799 37.5098 39.2899 37.8698C39.3999 38.2298 39.2599 38.6298 38.9399 38.8398L22.7599 49.6298C22.6199 49.7198 22.4499 49.7698 22.2899 49.7698ZM25.7999 38.9898C24.3399 38.9898 23.1499 40.1798 23.1499 41.6398V47.2998L35.6099 38.9898H25.7999Z" fill="#636262"/>
<path d="M31.21 10.9502H8.12001C7.64001 10.9502 7.26001 10.5602 7.26001 10.0902V6.35023C7.26001 5.87023 7.65001 5.49023 8.12001 5.49023H31.21C31.69 5.49023 32.07 5.88023 32.07 6.35023V10.0802C32.07 10.5602 31.69 10.9502 31.21 10.9502ZM8.98001 9.22023H30.34V7.21023H8.98001V9.22023Z" fill="#636262"/>
<path d="M23.17 15.6302H16.15C15.67 15.6302 15.29 15.2402 15.29 14.7702C15.29 14.2902 15.68 13.9102 16.15 13.9102H23.17C23.65 13.9102 24.03 14.3002 24.03 14.7702C24.04 15.2402 23.65 15.6302 23.17 15.6302Z" fill="#636262"/>
<path d="M31.42 20.3098H8.12001C7.64001 20.3098 7.26001 19.9198 7.26001 19.4498C7.26001 18.9698 7.65001 18.5898 8.12001 18.5898H31.42C31.9 18.5898 32.28 18.9798 32.28 19.4498C32.28 19.9298 31.89 20.3098 31.42 20.3098Z" fill="#636262"/>
<path d="M26.86 24.9998H8.12001C7.64001 24.9998 7.26001 24.6098 7.26001 24.1398C7.26001 23.6598 7.65001 23.2798 8.12001 23.2798H26.86C27.34 23.2798 27.72 23.6698 27.72 24.1398C27.72 24.6098 27.34 24.9998 26.86 24.9998Z" fill="#636262"/>
<path d="M21.97 29.68H8.12001C7.64001 29.68 7.26001 29.29 7.26001 28.82C7.26001 28.35 7.65001 27.96 8.12001 27.96H21.97C22.45 27.96 22.83 28.35 22.83 28.82C22.83 29.29 22.45 29.68 21.97 29.68Z" fill="#636262"/>
<path d="M17.29 34.3699H8.12001C7.64001 34.3699 7.26001 33.9799 7.26001 33.5099C7.26001 33.0299 7.65001 32.6499 8.12001 32.6499H17.3C17.78 32.6499 18.16 33.0399 18.16 33.5099C18.16 33.9799 17.77 34.3699 17.29 34.3699Z" fill="#636262"/>
<path d="M18.55 40.48C18.33 40.48 18.11 40.4 17.94 40.23L14.35 36.64C14.01 36.3 14.01 35.76 14.35 35.42L38.18 11.59C38.52 11.25 39.06 11.25 39.4 11.59L42.99 15.18C43.33 15.52 43.33 16.06 42.99 16.4L34.84 24.55C34.5 24.89 33.96 24.89 33.62 24.55C33.28 24.21 33.28 23.67 33.62 23.33L41.16 15.79L38.79 13.42L16.18 36.03L18.55 38.4L30.15 26.8C30.49 26.46 31.03 26.46 31.37 26.8C31.71 27.14 31.71 27.68 31.37 28.02L19.16 40.23C18.99 40.4 18.77 40.48 18.55 40.48Z" fill="#636262"/>
<path d="M42.38 16.6499C42.15 16.6499 41.93 16.5599 41.77 16.3999L38.18 12.8099C37.84 12.4699 37.84 11.9299 38.18 11.5899L40.45 9.31994C40.79 8.97994 41.33 8.97994 41.67 9.31994L45.26 12.9099C45.6 13.2499 45.6 13.7899 45.26 14.1299L42.9901 16.3999C42.8301 16.5599 42.61 16.6499 42.38 16.6499ZM40.02 12.1999L42.39 14.5699L43.44 13.5199L41.07 11.1499L40.02 12.1999Z" fill="#636262"/>
<path d="M44.21 13.9402C43.99 13.9402 43.77 13.8602 43.6 13.6902L40.9 10.9902C40.56 10.6502 40.56 10.1102 40.9 9.77017L42.16 8.51017C42.66 8.01017 43.34 7.75017 44.08 7.78017C44.78 7.81017 45.45 8.11017 45.97 8.63017C46.48 9.14017 46.78 9.81017 46.82 10.5202C46.85 11.2502 46.6 11.9302 46.09 12.4402L44.82 13.7102C44.65 13.8502 44.43 13.9402 44.21 13.9402ZM42.73 10.3702L44.21 11.8502L44.86 11.2002C45.01 11.0502 45.09 10.8302 45.08 10.5902C45.07 10.3202 44.94 10.0502 44.74 9.84017C44.53 9.63017 44.27 9.51017 44 9.49017C43.76 9.47017 43.54 9.56017 43.39 9.71017L42.73 10.3702Z" fill="#636262"/>
<path d="M13.3101 42.1299C13.0801 42.1299 12.8601 42.0399 12.7001 41.8799C12.4701 41.6499 12.3901 41.3199 12.4901 41.0099L14.1401 35.7799C14.2301 35.4899 14.4701 35.2699 14.7601 35.1999C15.0501 35.1299 15.3601 35.2099 15.5801 35.4299L19.1701 39.0199C19.3801 39.2299 19.4701 39.5399 19.4001 39.8399C19.3301 40.1299 19.1101 40.3699 18.8201 40.4599L13.5901 42.1099C13.4901 42.1199 13.4001 42.1299 13.3101 42.1299ZM15.3601 37.6499L14.6401 39.9399L16.9301 39.2199L15.3601 37.6499Z" fill="#636262"/>
<path d="M22.29 49.7701H4.38C1.96 49.7701 0 47.8101 0 45.3901V43.6701C0 43.1901 0.39 42.8101 0.86 42.8101C1.34 42.8101 1.72 43.2001 1.72 43.6701V45.3901C1.72 46.8501 2.91 48.0401 4.37 48.0401H22.02L37.6 37.6601V19.7101C37.6 19.2301 37.99 18.8501 38.46 18.8501C38.94 18.8501 39.32 19.2401 39.32 19.7101V38.1301C39.32 38.4201 39.18 38.6901 38.94 38.8501L22.76 49.6301C22.62 49.7201 22.46 49.7701 22.29 49.7701Z" fill="#636262"/>
<path d="M0.86 39.1C0.39 39.1 0 38.72 0 38.24V4.38C0 1.96 1.96 0 4.38 0H34.95C37.36 0 39.33 1.96 39.33 4.38V8.22C39.33 8.7 38.94 9.08 38.47 9.08C37.99 9.08 37.61 8.69 37.61 8.22V4.38C37.61 2.92 36.42 1.73 34.96 1.73H4.38C2.92 1.73 1.73 2.92 1.73 4.38V38.24C1.73 38.72 1.34 39.1 0.86 39.1Z" fill="#636262"/>
<path d="M44.65 20.07C44.17 20.07 43.79 19.68 43.79 19.21V18.61C43.79 18.13 44.18 17.75 44.65 17.75C45.13 17.75 45.51 18.14 45.51 18.61V19.21C45.52 19.69 45.13 20.07 44.65 20.07Z" fill="#636262"/>
<path d="M46.44 21.26H45.84C45.36 21.26 44.98 20.87 44.98 20.4C44.98 19.92 45.37 19.54 45.84 19.54H46.44C46.92 19.54 47.3 19.93 47.3 20.4C47.31 20.87 46.92 21.26 46.44 21.26Z" fill="#636262"/>
<path d="M44.65 23.05C44.17 23.05 43.79 22.66 43.79 22.19V21.59C43.79 21.11 44.18 20.73 44.65 20.73C45.13 20.73 45.51 21.12 45.51 21.59V22.19C45.52 22.67 45.13 23.05 44.65 23.05Z" fill="#636262"/>
<path d="M43.47 21.26H42.87C42.39 21.26 42.01 20.87 42.01 20.4C42.01 19.92 42.4 19.54 42.87 19.54H43.47C43.95 19.54 44.33 19.93 44.33 20.4C44.33 20.87 43.94 21.26 43.47 21.26Z" fill="#636262"/>
<path d="M39.39 43.1901C38.91 43.1901 38.53 42.8001 38.53 42.3301V41.7301C38.53 41.2501 38.92 40.8701 39.39 40.8701C39.86 40.8701 40.25 41.2601 40.25 41.7301V42.3301C40.25 42.8001 39.87 43.1901 39.39 43.1901Z" fill="#636262"/>
<path d="M41.18 44.3802H40.58C40.1 44.3802 39.72 43.9902 39.72 43.5202C39.72 43.0402 40.11 42.6602 40.58 42.6602H41.18C41.66 42.6602 42.04 43.0502 42.04 43.5202C42.04 43.9902 41.66 44.3802 41.18 44.3802Z" fill="#636262"/>
<path d="M39.39 46.1701C38.91 46.1701 38.53 45.7801 38.53 45.3101V44.7101C38.53 44.2301 38.92 43.8501 39.39 43.8501C39.86 43.8501 40.25 44.2401 40.25 44.7101V45.3101C40.25 45.7801 39.87 46.1701 39.39 46.1701Z" fill="#636262"/>
<path d="M38.2 44.3802H37.6C37.12 44.3802 36.74 43.9902 36.74 43.5202C36.74 43.0402 37.13 42.6602 37.6 42.6602H38.2C38.68 42.6602 39.06 43.0502 39.06 43.5202C39.06 43.9902 38.68 44.3802 38.2 44.3802Z" fill="#636262"/>
</g>
<defs>
<clipPath id="clip0_152_1849">
<rect width="47.31" height="49.77" fill="white"/>
</clipPath>
</defs>
</svg>
