<svg width="47" height="43" viewBox="0 0 47 43" fill="none" xmlns="http://www.w3.org/2000/svg">
<g clip-path="url(#clip0_152_1873)">
<path d="M44.08 32.22H2.73C1.22 32.22 0 31 0 29.49V2.72C0 1.22 1.22 0 2.73 0H44.09C45.59 0 46.82 1.22 46.82 2.72V29.49C46.81 31 45.58 32.22 44.08 32.22ZM2.73 1.6C2.11 1.6 1.61 2.1 1.61 2.72V29.49C1.61 30.11 2.11 30.61 2.73 30.61H44.09C44.71 30.61 45.21 30.11 45.21 29.49V2.72C45.21 2.1 44.71 1.6 44.09 1.6H2.73Z" fill="#636262"/>
<path d="M42.8199 28.9598H3.98994C3.54994 28.9598 3.18994 28.5998 3.18994 28.1598V4.05977C3.18994 3.61977 3.54994 3.25977 3.98994 3.25977H42.8199C43.2599 3.25977 43.6199 3.61977 43.6199 4.05977V28.1598C43.6199 28.5998 43.2599 28.9598 42.8199 28.9598ZM4.78994 27.3598H42.0099V4.85977H4.78994V27.3598Z" fill="#636262"/>
<path d="M31.81 37.8801H15C14.56 37.8801 14.2 37.5201 14.2 37.0801V31.4201C14.2 30.9801 14.56 30.6201 15 30.6201H31.81C32.25 30.6201 32.61 30.9801 32.61 31.4201V37.0801C32.61 37.5201 32.25 37.8801 31.81 37.8801ZM15.8 36.2801H31.01V32.2201H15.8V36.2801Z" fill="#636262"/>
<path d="M41.1601 42.5898H5.6501C5.2101 42.5898 4.8501 42.2298 4.8501 41.7898C4.8501 38.7498 7.3201 36.2798 10.3601 36.2798H36.4501C39.4901 36.2798 41.9601 38.7498 41.9601 41.7898C41.9601 42.2398 41.6001 42.5898 41.1601 42.5898ZM6.5301 40.9898H40.2801C39.9101 39.2198 38.3301 37.8798 36.4501 37.8798H10.3601C8.4801 37.8798 6.9001 39.2198 6.5301 40.9898Z" fill="#636262"/>
<path d="M22.94 24.5802H10.84C10.4 24.5802 10.04 24.2202 10.04 23.7802V12.4802C10.04 12.0402 10.4 11.6802 10.84 11.6802C11.28 11.6802 11.64 12.0402 11.64 12.4802V22.9802H22.14V12.4802C22.14 12.0402 22.5 11.6802 22.94 11.6802C23.38 11.6802 23.74 12.0402 23.74 12.4802V23.7802C23.74 24.2202 23.38 24.5802 22.94 24.5802Z" fill="#636262"/>
<path d="M24.5401 11.1099C24.4401 11.1099 24.3301 11.0899 24.2301 11.0499L16.8901 7.91994L9.55009 11.0499C9.14009 11.2299 8.67009 11.0299 8.50009 10.6299C8.33009 10.2199 8.52009 9.74994 8.92009 9.57994L16.5701 6.31994C16.7701 6.22994 17.0001 6.22994 17.2001 6.31994L24.8501 9.57994C25.2601 9.74994 25.4501 10.2199 25.2701 10.6299C25.1501 10.9299 24.8501 11.1099 24.5401 11.1099Z" fill="#636262"/>
<path d="M25.76 24.58H8.01997C7.57997 24.58 7.21997 24.22 7.21997 23.78C7.21997 23.34 7.57997 22.98 8.01997 22.98H25.76C26.2 22.98 26.56 23.34 26.56 23.78C26.56 24.22 26.2 24.58 25.76 24.58Z" fill="#636262"/>
<path d="M38.49 12.56H30.26C29.82 12.56 29.46 12.2 29.46 11.76C29.46 11.32 29.82 10.96 30.26 10.96H38.49C38.93 10.96 39.29 11.32 39.29 11.76C39.29 12.2 38.93 12.56 38.49 12.56Z" fill="#636262"/>
<path d="M38.49 16.9101H30.26C29.82 16.9101 29.46 16.5501 29.46 16.1101C29.46 15.6701 29.82 15.3101 30.26 15.3101H38.49C38.93 15.3101 39.29 15.6701 39.29 16.1101C39.29 16.5501 38.93 16.9101 38.49 16.9101Z" fill="#636262"/>
<path d="M38.49 21.2699H30.26C29.82 21.2699 29.46 20.9099 29.46 20.4699C29.46 20.0299 29.82 19.6699 30.26 19.6699H38.49C38.93 19.6699 39.29 20.0299 39.29 20.4699C39.29 20.9099 38.93 21.2699 38.49 21.2699Z" fill="#636262"/>
</g>
<defs>
<clipPath id="clip0_152_1873">
<rect width="46.81" height="42.59" fill="white"/>
</clipPath>
</defs>
</svg>
