<svg width="41" height="49" viewBox="0 0 41 49" fill="none" xmlns="http://www.w3.org/2000/svg">
<g clip-path="url(#clip0_152_1886)">
<path d="M16.5 13.1902C14.49 13.1902 12.86 11.5602 12.86 9.55016C12.86 7.54016 14.49 5.91016 16.5 5.91016C18.51 5.91016 20.14 7.54016 20.14 9.55016C20.14 11.5502 18.5 13.1902 16.5 13.1902ZM16.5 7.56016C15.41 7.56016 14.52 8.45016 14.52 9.54016C14.52 10.6402 15.41 11.5302 16.5 11.5302C17.59 11.5302 18.48 10.6402 18.48 9.54016C18.48 8.45016 17.59 7.56016 16.5 7.56016Z" fill="#636262"/>
<path d="M22.52 21.8299C22.06 21.8299 21.69 21.4599 21.69 20.9999V17.7499C21.69 16.5299 20.7 15.5299 19.47 15.5299H13.52C12.3 15.5299 11.3 16.5199 11.3 17.7499V20.9999C11.3 21.4599 10.93 21.8299 10.47 21.8299C10.01 21.8299 9.64001 21.4599 9.64001 20.9999V17.7499C9.64001 15.6099 11.38 13.8799 13.51 13.8799H19.46C21.6 13.8799 23.33 15.6199 23.33 17.7499V20.9999C23.34 21.4599 22.97 21.8299 22.52 21.8299Z" fill="#636262"/>
<path d="M13.8999 21.83C13.4399 21.83 13.0699 21.46 13.0699 21V19.83C13.0699 19.37 13.4399 19 13.8999 19C14.3599 19 14.7299 19.37 14.7299 19.83V21C14.7299 21.46 14.3599 21.83 13.8999 21.83Z" fill="#636262"/>
<path d="M19.09 21.83C18.63 21.83 18.26 21.46 18.26 21V19.83C18.26 19.37 18.63 19 19.09 19C19.55 19 19.92 19.37 19.92 19.83V21C19.92 21.46 19.55 21.83 19.09 21.83Z" fill="#636262"/>
<path d="M27.4699 24.93H5.51994C5.05994 24.93 4.68994 24.56 4.68994 24.1C4.68994 23.64 5.05994 23.27 5.51994 23.27H27.4699C27.9299 23.27 28.2999 23.64 28.2999 24.1C28.2999 24.56 27.9299 24.93 27.4699 24.93Z" fill="#636262"/>
<path d="M27.4699 29.2801H5.51994C5.05994 29.2801 4.68994 28.9101 4.68994 28.4501C4.68994 27.9901 5.05994 27.6201 5.51994 27.6201H27.4699C27.9299 27.6201 28.2999 27.9901 28.2999 28.4501C28.2999 28.9101 27.9299 29.2801 27.4699 29.2801Z" fill="#636262"/>
<path d="M29.8999 33.6302H5.51994C5.05994 33.6302 4.68994 33.2602 4.68994 32.8002C4.68994 32.3402 5.05994 31.9702 5.51994 31.9702H29.8999C30.3599 31.9702 30.7299 32.3402 30.7299 32.8002C30.7299 33.2602 30.3599 33.6302 29.8999 33.6302Z" fill="#636262"/>
<path d="M25.1499 37.9798H5.51994C5.05994 37.9798 4.68994 37.6098 4.68994 37.1498C4.68994 36.6898 5.05994 36.3198 5.51994 36.3198H25.1499C25.6099 36.3198 25.9799 36.6898 25.9799 37.1498C25.9699 37.6098 25.5999 37.9798 25.1499 37.9798Z" fill="#636262"/>
<path d="M24.7099 42.3299H5.51994C5.05994 42.3299 4.68994 41.9599 4.68994 41.4999C4.68994 41.0399 5.05994 40.6699 5.51994 40.6699H24.7099C25.1699 40.6699 25.5399 41.0399 25.5399 41.4999C25.5399 41.9599 25.1699 42.3299 24.7099 42.3299Z" fill="#636262"/>
<path d="M29.38 47.9398H0.83C0.37 47.9398 0 47.5598 0 47.1098V3.89982C0 3.43982 0.37 3.06982 0.83 3.06982H32.17C32.63 3.06982 33 3.43982 33 3.89982V32.4598C33 32.9198 32.63 33.2898 32.17 33.2898C28.44 33.2898 25.41 36.3198 25.41 40.0498C25.41 42.8398 27.09 45.3098 29.69 46.3398C30.06 46.4898 30.27 46.8698 30.2 47.2598C30.12 47.6498 29.78 47.9398 29.38 47.9398ZM1.66 46.2798H26.5C24.77 44.7198 23.75 42.4798 23.75 40.0498C23.75 35.6898 27.09 32.0898 31.34 31.6698V4.72982H1.66V46.2798Z" fill="#636262"/>
<path d="M32.16 48.4699C27.52 48.4699 23.74 44.6899 23.74 40.0499C23.74 35.4099 27.52 31.6299 32.16 31.6299C36.8 31.6299 40.58 35.4099 40.58 40.0499C40.58 44.6899 36.81 48.4699 32.16 48.4699ZM32.16 33.2899C28.43 33.2899 25.4 36.3199 25.4 40.0499C25.4 43.7799 28.43 46.8099 32.16 46.8099C35.89 46.8099 38.92 43.7799 38.92 40.0499C38.93 36.3199 35.89 33.2899 32.16 33.2899Z" fill="#636262"/>
<path d="M31.4 44.04C31.13 44.04 30.89 43.91 30.73 43.7L27.78 39.66C27.51 39.29 27.59 38.77 27.96 38.5C28.33 38.23 28.85 38.31 29.12 38.68L31.42 41.82L34.97 37.2C35.25 36.84 35.77 36.77 36.13 37.05C36.49 37.33 36.56 37.85 36.28 38.21L32.06 43.7C31.9 43.92 31.66 44.04 31.4 44.04Z" fill="#636262"/>
<path d="M35.62 34.12C35.49 34.12 35.36 34.09 35.24 34.03C34.27 33.54 33.24 33.28 32.16 33.28C31.7 33.28 31.33 32.91 31.33 32.45V4.73H4.28996C3.82996 4.73 3.45996 4.36 3.45996 3.9V0.83C3.45996 0.37 3.82996 0 4.28996 0H35.63C36.09 0 36.46 0.37 36.46 0.83V33.3C36.46 33.59 36.31 33.86 36.06 34.01C35.92 34.08 35.77 34.12 35.62 34.12ZM32.99 31.67C33.6 31.73 34.21 31.86 34.79 32.05V1.66H5.10996V3.07H32.16C32.62 3.07 32.99 3.44 32.99 3.9V31.67Z" fill="#636262"/>
</g>
<defs>
<clipPath id="clip0_152_1886">
<rect width="40.58" height="48.47" fill="white"/>
</clipPath>
</defs>
</svg>
