<svg width="55" height="50" viewBox="0 0 55 50" fill="none" xmlns="http://www.w3.org/2000/svg">
<path d="M53.35 23.92C52.84 23.92 52.43 23.51 52.43 23C52.43 19.36 49.99 16.08 46.51 15.04C46.02 14.89 45.74 14.38 45.89 13.89C46.04 13.4 46.55 13.12 47.04 13.27C51.31 14.54 54.28 18.54 54.28 23C54.28 23.5 53.86 23.92 53.35 23.92Z" fill="#636262"/>
<path d="M10.15 33.14C7.29 33.14 4.55 31.93 2.63 29.81C0.93 27.94 0 25.52 0 22.99C0 17.39 4.55 12.84 10.15 12.84C11.29 12.84 12.41 13.03 13.49 13.41C14.54 8.87 18.6 5.57 23.37 5.57C25.04 5.57 26.66 5.97 28.12 6.75C30.09 2.67 34.28 0 38.86 0C45.44 0 50.8 5.35 50.8 11.94C50.8 12.97 50.66 14 50.39 15.01C52.84 16.93 54.28 19.87 54.28 23C54.28 26.74 52.23 30.17 48.92 31.94C48.47 32.18 47.91 32.01 47.67 31.56C47.43 31.11 47.6 30.55 48.05 30.31C50.75 28.86 52.43 26.06 52.43 23C52.43 20.25 51.07 17.69 48.8 16.14C48.46 15.91 48.31 15.48 48.44 15.09C48.78 14.07 48.95 13.01 48.95 11.95C48.95 6.39 44.42 1.86 38.86 1.86C34.68 1.86 30.88 4.5 29.42 8.43C29.32 8.7 29.1 8.9 28.83 8.99C28.56 9.08 28.27 9.03 28.03 8.87C26.65 7.93 25.04 7.44 23.37 7.44C19.13 7.44 15.58 10.62 15.12 14.83C15.09 15.13 14.91 15.39 14.65 15.54C14.39 15.69 14.07 15.69 13.8 15.56C12.65 14.99 11.42 14.71 10.15 14.71C5.57 14.71 1.85 18.43 1.85 23.01C1.85 25.08 2.61 27.06 4 28.59C5.57 30.32 7.81 31.31 10.15 31.31C10.66 31.31 11.07 31.72 11.07 32.23C11.07 32.74 10.66 33.14 10.15 33.14Z" fill="#636262"/>
<path d="M43.64 33.1398H39.66C39.15 33.1398 38.74 32.7298 38.74 32.2198C38.74 31.7098 39.15 31.2998 39.66 31.2998H43.64C44.15 31.2998 44.56 31.7098 44.56 32.2198C44.56 32.7298 44.15 33.1398 43.64 33.1398Z" fill="#636262"/>
<path d="M29.97 49.1898H14.21C13.7 49.1898 13.29 48.7798 13.29 48.2698V27.7398C13.29 27.2298 13.7 26.8198 14.21 26.8198H29.97C30.48 26.8198 30.89 27.2298 30.89 27.7398V48.2598C30.89 48.7698 30.48 49.1898 29.97 49.1898ZM15.13 47.3398H29.04V28.6598H15.13V47.3398Z" fill="#636262"/>
<path d="M36.8701 42.9501H33.4201C32.9101 42.9501 32.5001 42.5401 32.5001 42.0301V25.5401H21.1001C20.5901 25.5401 20.1801 25.1301 20.1801 24.6201V21.5001C20.1801 20.9901 20.5901 20.5801 21.1001 20.5801H36.8601C37.3701 20.5801 37.7801 20.9901 37.7801 21.5001V42.0201C37.7901 42.5301 37.3801 42.9501 36.8701 42.9501ZM34.3401 41.1001H35.9401V22.4201H22.0301V23.6901H33.4201C33.9301 23.6901 34.3401 24.1001 34.3401 24.6101V41.1001Z" fill="#636262"/>
<path d="M33.42 46.0702H29.97C29.46 46.0702 29.05 45.6602 29.05 45.1502V28.6602H17.66C17.15 28.6602 16.74 28.2502 16.74 27.7402V24.6202C16.74 24.1102 17.15 23.7002 17.66 23.7002H33.42C33.93 23.7002 34.34 24.1102 34.34 24.6202V45.1402C34.34 45.6502 33.93 46.0702 33.42 46.0702ZM30.89 44.2202H32.49V25.5402H18.58V26.8102H29.97C30.48 26.8102 30.89 27.2202 30.89 27.7302V44.2202Z" fill="#636262"/>
<path d="M26.63 33.7502H17.56C17.05 33.7502 16.64 33.3402 16.64 32.8302C16.64 32.3202 17.05 31.9102 17.56 31.9102H26.63C27.14 31.9102 27.55 32.3202 27.55 32.8302C27.55 33.3402 27.14 33.7502 26.63 33.7502Z" fill="#636262"/>
<path d="M26.63 37.2799H17.56C17.05 37.2799 16.64 36.8699 16.64 36.3599C16.64 35.8499 17.05 35.4399 17.56 35.4399H26.63C27.14 35.4399 27.55 35.8499 27.55 36.3599C27.55 36.8699 27.14 37.2799 26.63 37.2799Z" fill="#636262"/>
<path d="M26.63 40.8102H17.56C17.05 40.8102 16.64 40.4002 16.64 39.8902C16.64 39.3802 17.05 38.9702 17.56 38.9702H26.63C27.14 38.9702 27.55 39.3802 27.55 39.8902C27.55 40.4002 27.14 40.8102 26.63 40.8102Z" fill="#636262"/>
<path d="M46.22 39.6998H36.8699C36.3599 39.6998 35.95 39.2898 35.95 38.7798C35.95 38.2698 36.3599 37.8598 36.8699 37.8598H45.29V23.4498C45.29 22.9398 45.6999 22.5298 46.2099 22.5298C46.7199 22.5298 47.13 22.9398 47.13 23.4498V38.7798C47.14 39.2898 46.73 39.6998 46.22 39.6998Z" fill="#636262"/>
<path d="M44.45 25.7901C44.21 25.7901 43.98 25.7001 43.8 25.5201C43.44 25.1601 43.44 24.5701 43.8 24.2101L45.62 22.3901C45.98 22.0301 46.57 22.0301 46.93 22.3901L48.75 24.2101C49.11 24.5701 49.11 25.1601 48.75 25.5201C48.39 25.8801 47.8 25.8801 47.44 25.5201L46.28 24.3601L45.12 25.5201C44.92 25.7001 44.69 25.7901 44.45 25.7901Z" fill="#636262"/>
</svg>
