<svg width="36" height="54" viewBox="0 0 36 54" fill="none" xmlns="http://www.w3.org/2000/svg">
<g clip-path="url(#clip0_152_1916)">
<path d="M31.64 53.5H3.66002C1.66002 53.5 0.0300195 51.87 0.0300195 49.87V13.61C0.0300195 13.13 0.42002 12.74 0.90002 12.74C1.38002 12.74 1.77002 13.13 1.77002 13.61V49.87C1.77002 50.92 2.62002 51.77 3.67002 51.77H31.65C32.7 51.77 33.55 50.92 33.55 49.87V3.63C33.55 2.58 32.7 1.73 31.65 1.73H3.66002C2.61002 1.73 1.76002 2.58 1.76002 3.63V6.93C1.76002 7.41 1.37002 7.8 0.89002 7.8C0.41002 7.8 0.0200195 7.41 0.0200195 6.93V3.63C0.0200195 1.63 1.65002 0 3.65002 0H31.63C33.63 0 35.26 1.63 35.26 3.63V49.86C35.27 51.87 33.64 53.5 31.64 53.5Z" fill="#636262"/>
<path d="M30.46 47.4401H4.83997C4.35997 47.4401 3.96997 47.0501 3.96997 46.5701V29.5301C3.96997 29.0501 4.35997 28.6601 4.83997 28.6601C5.31997 28.6601 5.70997 29.0501 5.70997 29.5301V45.7001H29.6V7.80006H6.91997C6.43997 7.80006 6.04997 7.41006 6.04997 6.93006C6.04997 6.45006 6.43997 6.06006 6.91997 6.06006H30.46C30.94 6.06006 31.33 6.45006 31.33 6.93006V46.5701C31.32 47.0501 30.94 47.4401 30.46 47.4401Z" fill="#636262"/>
<path d="M23.62 28.31H6.9C6.44 28.31 6.07 27.96 6.04 27.5L5.18 14.67C5.16 14.43 5.25 14.2 5.41 14.02C5.57 13.84 5.8 13.75 6.04 13.75H24.48C24.72 13.75 24.95 13.85 25.11 14.02C25.27 14.19 25.36 14.43 25.34 14.67L24.48 27.5C24.45 27.95 24.08 28.31 23.62 28.31ZM7.71 26.58H22.81L23.56 15.48H6.97L7.71 26.58Z" fill="#636262"/>
<path d="M23.92 24.22H6.60999C6.12999 24.22 5.73999 23.83 5.73999 23.35C5.73999 22.87 6.12999 22.48 6.60999 22.48H23.92C24.4 22.48 24.79 22.87 24.79 23.35C24.78 23.83 24.39 24.22 23.92 24.22Z" fill="#636262"/>
<path d="M24.2301 19.5598H6.30005C5.82005 19.5598 5.43005 19.1698 5.43005 18.6898C5.43005 18.2098 5.82005 17.8198 6.30005 17.8198H24.2301C24.7101 17.8198 25.1001 18.2098 25.1001 18.6898C25.1001 19.1698 24.7101 19.5598 24.2301 19.5598Z" fill="#636262"/>
<path d="M6.04 15.4701C5.59 15.4701 5.22 15.1301 5.18 14.6701L4.87 10.8301H0.87C0.39 10.8401 0 10.4501 0 9.9701C0 9.4901 0.39 9.1001 0.87 9.1001H5.67C6.12 9.1001 6.5 9.4501 6.53 9.9001L6.91 14.5401C6.95 15.0201 6.59 15.4301 6.12 15.4701C6.09 15.4701 6.06 15.4701 6.04 15.4701Z" fill="#636262"/>
<path d="M9.91999 35.37C8.36999 35.37 7.10999 34.11 7.10999 32.56C7.10999 31.01 8.36999 29.75 9.91999 29.75C11.47 29.75 12.73 31.01 12.73 32.56C12.73 34.11 11.47 35.37 9.91999 35.37ZM9.91999 31.49C9.32999 31.49 8.83999 31.97 8.83999 32.57C8.83999 33.17 9.31999 33.65 9.91999 33.65C10.51 33.65 11 33.17 11 32.57C11 31.97 10.52 31.49 9.91999 31.49Z" fill="#636262"/>
<path d="M19.67 35.37C18.12 35.37 16.86 34.11 16.86 32.56C16.86 31.01 18.12 29.75 19.67 29.75C21.22 29.75 22.48 31.01 22.48 32.56C22.48 34.11 21.22 35.37 19.67 35.37ZM19.67 31.49C19.08 31.49 18.59 31.97 18.59 32.57C18.59 33.17 19.07 33.65 19.67 33.65C20.26 33.65 20.75 33.17 20.75 32.57C20.75 31.97 20.27 31.49 19.67 31.49Z" fill="#636262"/>
<path d="M22.87 43.3198H12.26C10.32 43.3198 8.73999 41.7398 8.73999 39.7998C8.73999 37.8598 10.32 36.2798 12.26 36.2798H22.88C24.82 36.2798 26.4 37.8598 26.4 39.7998C26.39 41.7398 24.81 43.3198 22.87 43.3198ZM12.26 38.0098C11.27 38.0098 10.47 38.8098 10.47 39.7998C10.47 40.7898 11.27 41.5898 12.26 41.5898H22.88C23.87 41.5898 24.67 40.7898 24.67 39.7998C24.67 38.8098 23.87 38.0098 22.88 38.0098H12.26Z" fill="#636262"/>
</g>
<defs>
<clipPath id="clip0_152_1916">
<rect width="35.27" height="53.5" fill="white"/>
</clipPath>
</defs>
</svg>
