<svg width="55" height="47" viewBox="0 0 55 47" fill="none" xmlns="http://www.w3.org/2000/svg">
<path d="M44.0677 34.1971H35.8535C35.3458 34.1971 34.9375 33.7367 34.9375 33.1639C34.9375 32.5912 35.3458 32.1307 35.8535 32.1307H44.0677C49.0758 32.1307 53.158 27.5262 53.158 21.8772C53.158 16.2282 49.0758 11.6237 44.0677 11.6237C42.5742 11.6237 41.1504 12.028 39.8262 12.8141C39.5673 12.9713 39.2686 12.9713 39.0098 12.8366C38.7509 12.7018 38.5617 12.4323 38.502 12.1178C37.3968 6.31159 32.777 2.08889 27.5 2.08889C22.223 2.08889 17.6032 6.30036 16.498 12.1178C16.4383 12.4323 16.2491 12.7018 15.9902 12.8366C15.7314 12.9713 15.4227 12.9601 15.1738 12.8141C13.8496 12.028 12.4258 11.6237 10.9323 11.6237C5.92415 11.6237 1.84196 16.2282 1.84196 21.8772C1.84196 27.5374 5.92415 32.1307 10.9323 32.1307H19.0967C19.6045 32.1307 20.0127 32.5912 20.0127 33.1639C20.0127 33.7367 19.6045 34.1971 19.0967 34.1971H10.9323C4.89862 34.1971 0 28.6717 0 21.866C0 15.0714 4.89862 9.53477 10.9323 9.53477C12.3163 9.53477 13.7002 9.83799 14.9846 10.422C16.6573 4.31254 21.7451 0 27.5 0C33.2549 0 38.3427 4.31254 40.0154 10.422C41.2998 9.83799 42.6837 9.53477 44.0677 9.53477C50.0914 9.53477 55 15.0714 55 21.866C55 28.6717 50.0914 34.1971 44.0677 34.1971Z" fill="#636262"/>
<path d="M23.5274 27.7397C24.0352 27.7397 24.4434 28.2002 24.4434 28.773V31.8838C24.4434 32.4566 24.0352 32.917 23.5274 32.917C23.0196 32.917 22.6114 32.4566 22.6114 31.8838V28.773C22.6014 28.2114 23.0196 27.7397 23.5274 27.7397Z" fill="#636262"/>
<path d="M23.5274 34.5117C24.0352 34.5117 24.4434 34.9722 24.4434 35.5449V39.1949C24.4434 39.7676 24.0352 40.2281 23.5274 40.2281C23.0196 40.2281 22.6114 39.7676 22.6114 39.1949V35.5449C22.6014 34.9722 23.0196 34.5117 23.5274 34.5117Z" fill="#636262"/>
<path d="M23.5274 41.8115C24.0352 41.8115 24.4434 42.272 24.4434 42.8447V45.9556C24.4434 46.5284 24.0352 46.9888 23.5274 46.9888C23.0196 46.9888 22.6114 46.5284 22.6114 45.9556V42.8447C22.6014 42.272 23.0196 41.8115 23.5274 41.8115Z" fill="#636262"/>
<path d="M27.5 13.8809C27.729 13.8809 27.968 13.9819 28.1472 14.1729L37.0384 23.9659C37.3072 24.2579 37.3869 24.7071 37.2475 25.1002C37.1081 25.4933 36.7695 25.7516 36.3912 25.7516H32.3887V28.7838C32.3887 29.3566 31.9804 29.8171 31.4727 29.8171C30.9649 29.8171 30.5567 29.3566 30.5567 28.7838V24.7071C30.5567 24.1344 30.9649 23.6739 31.4727 23.6739H34.1311L27.49 16.3628L20.859 23.6739H23.5174C24.0252 23.6739 24.4334 24.1344 24.4334 24.7071V28.7838C24.4334 29.3566 24.0252 29.8171 23.5174 29.8171C23.0096 29.8171 22.6014 29.3566 22.6014 28.7838V25.7516H18.5988C18.2205 25.7516 17.8919 25.4933 17.7426 25.1002C17.6032 24.7071 17.6828 24.2579 17.9517 23.9659L26.8429 14.1729C27.032 13.9707 27.271 13.8809 27.5 13.8809Z" fill="#636262"/>
<path d="M31.4726 41.8115C31.9804 41.8115 32.3886 42.272 32.3886 42.8447V45.9556C32.3886 46.5284 31.9804 46.9888 31.4726 46.9888C30.9649 46.9888 30.5566 46.5284 30.5566 45.9556V42.8447C30.5566 42.272 30.9649 41.8115 31.4726 41.8115Z" fill="#636262"/>
<path d="M31.4726 34.5117C31.9804 34.5117 32.3886 34.9722 32.3886 35.5449V39.1949C32.3886 39.7676 31.9804 40.2281 31.4726 40.2281C30.9649 40.2281 30.5566 39.7676 30.5566 39.1949V35.5449C30.5566 34.9722 30.9649 34.5117 31.4726 34.5117Z" fill="#636262"/>
<path d="M31.4726 27.7397C31.9804 27.7397 32.3886 28.2002 32.3886 28.773V31.8838C32.3886 32.4566 31.9804 32.917 31.4726 32.917C30.9649 32.917 30.5566 32.4566 30.5566 31.8838V28.773C30.5566 28.2114 30.9649 27.7397 31.4726 27.7397Z" fill="#636262"/>
</svg>
