<svg width="55" height="52" viewBox="0 0 55 52" fill="none" xmlns="http://www.w3.org/2000/svg">
<path d="M8.05 37.97C7.99 37.97 7.93 37.96 7.86 37.95C3.31 37.02 0 32.96 0 28.31C0 23.44 3.48 19.38 8.21 18.6C9.35 13.72 13.68 10.24 18.76 10.24C19.33 10.24 19.9 10.29 20.48 10.38C21.24 4.48 26.24 0 32.3 0C38.88 0 44.24 5.36 44.24 11.94C44.24 12.24 44.23 12.56 44.2 12.88C45.2 13.04 46.18 13.31 47.11 13.7C47.58 13.9 47.8 14.44 47.61 14.91C47.41 15.38 46.87 15.6 46.4 15.41C45.35 14.97 44.23 14.7 43.09 14.61C42.83 14.59 42.6 14.46 42.44 14.26C42.28 14.06 42.21 13.8 42.25 13.54C42.34 12.95 42.39 12.42 42.39 11.93C42.39 6.37 37.86 1.84 32.3 1.84C26.86 1.84 22.44 6.1 22.23 11.54C22.22 11.82 22.08 12.08 21.86 12.25C21.63 12.42 21.35 12.47 21.07 12.4C15.75 10.99 10.75 14.5 9.9 19.59C9.83 20 9.49 20.31 9.07 20.35C4.95 20.74 1.84 24.16 1.84 28.31C1.84 32.09 4.52 35.39 8.22 36.14C8.72 36.24 9.04 36.73 8.94 37.23C8.86 37.67 8.48 37.97 8.05 37.97Z" fill="#636262"/>
<path d="M52.62 31.9301C52.47 31.9301 52.32 31.8901 52.18 31.8201C51.73 31.5801 51.56 31.0201 51.8 30.5701C52.2 29.8201 52.52 29.0201 52.73 28.2001C52.86 27.7101 53.36 27.4101 53.86 27.5401C54.35 27.6701 54.65 28.1701 54.52 28.6701C54.27 29.6301 53.9 30.5701 53.43 31.4501C53.27 31.7501 52.95 31.9301 52.62 31.9301Z" fill="#636262"/>
<path d="M53.9 24.69C53.45 24.69 53.05 24.36 52.99 23.9C52.79 22.46 52.3 21.09 51.55 19.85C51.29 19.41 51.43 18.85 51.86 18.58C52.3 18.32 52.86 18.46 53.13 18.89C54.01 20.35 54.58 21.95 54.82 23.64C54.89 24.15 54.54 24.61 54.04 24.68C53.98 24.68 53.94 24.69 53.9 24.69Z" fill="#636262"/>
<path d="M49.17 16.84C48.98 16.84 48.79 16.78 48.63 16.66C47.94 16.16 47.19 15.74 46.41 15.41C45.94 15.21 45.72 14.67 45.91 14.2C46.11 13.73 46.65 13.51 47.12 13.7C48.04 14.08 48.91 14.57 49.72 15.16C50.13 15.46 50.22 16.04 49.92 16.45C49.73 16.7 49.45 16.84 49.17 16.84Z" fill="#636262"/>
<path d="M45.51 37.6899C45.11 37.6899 44.74 37.4299 44.62 37.0199C44.48 36.5299 44.76 36.0199 45.25 35.8799C48.04 35.0699 50.42 33.1399 51.8 30.5699C52.04 30.1199 52.6 29.9499 53.05 30.1899C53.5 30.4299 53.67 30.9899 53.43 31.4399C51.82 34.4399 49.02 36.6999 45.76 37.6499C45.68 37.6699 45.6 37.6899 45.51 37.6899Z" fill="#636262"/>
<path d="M9.43003 25.4C9.05003 25.4 8.70003 25.17 8.56003 24.79C8.13003 23.6 7.91003 22.36 7.91003 21.08C7.91003 15.1 12.78 10.23 18.76 10.23C19.27 10.23 19.68 10.64 19.68 11.15C19.68 11.66 19.27 12.07 18.76 12.07C13.8 12.07 9.76003 16.11 9.76003 21.07C9.76003 22.13 9.94003 23.16 10.3 24.14C10.47 24.62 10.23 25.15 9.75003 25.32C9.64003 25.38 9.54003 25.4 9.43003 25.4Z" fill="#636262"/>
<path d="M41.62 18.75C41.45 18.75 41.28 18.7 41.13 18.61C40.7 18.34 40.57 17.77 40.84 17.34C41.86 15.73 42.4 13.87 42.4 11.95C42.4 6.39 37.87 1.86 32.31 1.86C31.8 1.86 31.39 1.45 31.39 0.94C31.39 0.43 31.79 0 32.3 0C38.88 0 44.24 5.36 44.24 11.94C44.24 14.21 43.6 16.41 42.4 18.32C42.22 18.59 41.92 18.75 41.62 18.75Z" fill="#636262"/>
<path d="M21.76 16.07C21.36 16.07 21 15.81 20.88 15.41C20.54 14.29 20.37 13.12 20.37 11.94C20.36 5.36 25.72 0 32.3 0C32.81 0 33.22 0.41 33.22 0.92C33.22 1.43 32.81 1.84 32.3 1.84C26.74 1.84 22.21 6.37 22.21 11.93C22.21 12.93 22.36 13.92 22.64 14.86C22.79 15.35 22.51 15.86 22.02 16.01C21.94 16.05 21.85 16.07 21.76 16.07Z" fill="#636262"/>
<path d="M29.55 51.7301H24.04C23.53 51.7301 23.12 51.3201 23.12 50.8101V48.2401C22.4 48.0201 21.71 47.7301 21.05 47.3801L19.23 49.2001C18.87 49.5601 18.28 49.5601 17.92 49.2001L14.02 45.3001C13.66 44.9401 13.66 44.3501 14.02 43.9901L15.84 42.1701C15.49 41.5101 15.2 40.8101 14.98 40.0901H12.41C11.9 40.0901 11.49 39.6801 11.49 39.1701V33.6601C11.49 33.1501 11.9 32.7401 12.41 32.7401H14.98C15.2 32.0201 15.49 31.3301 15.84 30.6601L14.02 28.8401C13.66 28.4801 13.66 27.8901 14.02 27.5301L17.92 23.6301C18.28 23.2701 18.87 23.2701 19.23 23.6301L21.05 25.4501C21.71 25.1001 22.41 24.8101 23.12 24.5901V22.0201C23.12 21.5101 23.53 21.1001 24.04 21.1001H29.55C30.06 21.1001 30.47 21.5101 30.47 22.0201V24.5901C31.19 24.8101 31.88 25.1001 32.55 25.4501L34.37 23.6301C34.72 23.2801 35.33 23.2801 35.68 23.6301L39.58 27.5301C39.94 27.8901 39.94 28.4801 39.58 28.8401L37.76 30.6601C38.11 31.3201 38.4 32.0201 38.62 32.7401H41.19C41.7 32.7401 42.11 33.1501 42.11 33.6601V39.1701C42.11 39.6801 41.7 40.0901 41.19 40.0901H38.62C38.4 40.8101 38.11 41.5001 37.76 42.1701L39.58 43.9901C39.94 44.3501 39.94 44.9401 39.58 45.3001L35.68 49.2001C35.32 49.5601 34.73 49.5601 34.37 49.2001L32.55 47.3801C31.89 47.7301 31.19 48.0201 30.47 48.2401V50.8101C30.48 51.3201 30.06 51.7301 29.55 51.7301ZM24.96 49.8801H28.63V47.5301C28.63 47.1101 28.92 46.7401 29.33 46.6301C30.35 46.3801 31.33 45.9701 32.23 45.4301C32.6 45.2101 33.06 45.2701 33.36 45.5701L35.02 47.2301L37.61 44.6401L35.95 42.9801C35.65 42.6801 35.59 42.2101 35.81 41.8501C36.35 40.9501 36.76 39.9701 37.01 38.9501C37.11 38.5401 37.48 38.2501 37.91 38.2501H40.26V34.5901H37.91C37.49 34.5901 37.12 34.3001 37.01 33.8901C36.76 32.8701 36.35 31.8901 35.81 30.9901C35.59 30.6301 35.65 30.1601 35.95 29.8601L37.61 28.2001L35.02 25.6101L33.36 27.2701C33.06 27.5701 32.59 27.6301 32.23 27.4101C31.33 26.8601 30.35 26.4601 29.33 26.2101C28.92 26.1101 28.63 25.7401 28.63 25.3101V22.9601H24.96V25.3101C24.96 25.7301 24.67 26.1001 24.26 26.2101C23.24 26.4601 22.26 26.8701 21.36 27.4101C21 27.6301 20.53 27.5701 20.23 27.2701L18.57 25.6101L15.98 28.2001L17.64 29.8601C17.94 30.1601 18 30.6301 17.78 30.9901C17.24 31.8901 16.83 32.8701 16.58 33.8901C16.48 34.3001 16.11 34.5901 15.68 34.5901H13.33V38.2501H15.68C16.1 38.2501 16.47 38.5401 16.58 38.9501C16.83 39.9701 17.24 40.9501 17.78 41.8501C18 42.2101 17.94 42.6801 17.64 42.9801L15.98 44.6401L18.57 47.2301L20.23 45.5701C20.53 45.2701 21 45.2101 21.36 45.4301C22.26 45.9701 23.24 46.3801 24.26 46.6301C24.67 46.7301 24.96 47.1001 24.96 47.5301V49.8801Z" fill="#636262"/>
<path d="M26.8 44.9501C22.1 44.9501 18.27 41.1201 18.27 36.4201C18.27 31.7201 22.1 27.8901 26.8 27.8901C31.5 27.8901 35.33 31.7201 35.33 36.4201C35.33 41.1201 31.5 44.9501 26.8 44.9501ZM26.8 29.7401C23.11 29.7401 20.12 32.7401 20.12 36.4201C20.12 40.1101 23.12 43.1001 26.8 43.1001C30.48 43.1001 33.48 40.1001 33.48 36.4201C33.48 32.7301 30.48 29.7401 26.8 29.7401Z" fill="#636262"/>
</svg>
