<svg width="62" height="44" viewBox="0 0 62 44" fill="none" xmlns="http://www.w3.org/2000/svg">
<path d="M48.8893 36.795H46.2382C45.6701 36.795 45.2134 36.344 45.2134 35.783C45.2134 35.222 45.6701 34.771 46.2382 34.771H48.8893C54.9824 34.771 59.9504 29.876 59.9504 23.848C59.9504 18.436 56.0183 13.904 50.6047 13.068C50.2037 13.002 49.8807 12.716 49.7693 12.331C48.622 8.261 44.8347 5.412 40.5685 5.412C38.6637 5.412 36.8146 5.962 35.2328 7.018C34.765 7.326 34.1301 7.205 33.807 6.754C31.7352 3.795 28.3378 2.035 24.7064 2.035C18.6134 2.035 13.6453 6.93 13.6453 12.958C13.6453 13.519 13.701 14.102 13.8124 14.762C13.8681 15.081 13.7679 15.4 13.5451 15.631C13.3223 15.862 13.0104 15.972 12.6874 15.939C12.3421 15.895 11.9856 15.873 11.6292 15.873C6.3604 15.873 2.07187 20.108 2.07187 25.311C2.07187 30.514 6.3604 34.749 11.6292 34.749H15.1157C15.6838 34.749 16.1405 35.2 16.1405 35.761C16.1405 36.322 15.6838 36.773 15.1157 36.773H11.6292C5.21308 36.795 0 31.647 0 25.311C0 18.986 5.21308 13.838 11.618 13.838C11.5958 13.541 11.5846 13.244 11.5846 12.958C11.5846 5.808 17.4772 0 24.7064 0C28.6831 0 32.4258 1.782 34.9098 4.818C36.6252 3.872 38.5634 3.377 40.5573 3.377C45.5365 3.377 49.9698 6.545 51.5516 11.165C57.6446 12.397 62 17.633 62 23.837C62 30.976 56.1186 36.795 48.8893 36.795Z" fill="#636262"/>
<path d="M16.6528 14.2228C16.0848 14.2228 15.6281 13.7718 15.6281 13.2108C15.6281 8.28281 19.6827 4.27881 24.673 4.27881C25.2411 4.27881 25.6978 4.72981 25.6978 5.29081C25.6978 5.85181 25.2411 6.30281 24.673 6.30281C20.8189 6.30281 17.6888 9.39381 17.6888 13.1998C17.6888 13.7718 17.2209 14.2228 16.6528 14.2228Z" fill="#636262"/>
<path d="M30.2425 44.0001C29.0061 44.0001 27.8476 43.5271 26.9676 42.6581L18.2235 34.0231C17.3435 33.1651 16.8645 32.0101 16.8645 30.7891C16.8645 29.5681 17.3435 28.4241 18.2235 27.5551C19.1035 26.6861 20.2619 26.2131 21.4983 26.2131C22.7348 26.2131 23.8932 26.6861 24.7732 27.5551L30.2648 32.9781L41.5932 22.2861C43.3866 20.5151 46.3162 20.5261 48.1207 22.2971C49.0007 23.1661 49.4797 24.3101 49.4797 25.5311C49.4797 26.7521 49.0007 27.8961 48.1207 28.7651L33.5063 42.6801C32.6486 43.5271 31.4789 44.0001 30.2425 44.0001ZM21.4983 28.2481C20.8411 28.2481 20.1839 28.4901 19.6827 28.9851C19.1926 29.4691 18.9252 30.1071 18.9252 30.7781C18.9252 31.4601 19.1926 32.0981 19.6827 32.5711L28.4268 41.2061C29.3959 42.1631 31.0891 42.1631 32.0693 41.2061L46.6838 27.3021C47.1516 26.8401 47.4189 26.2021 47.4189 25.5201C47.4189 24.8381 47.1516 24.2001 46.6615 23.7271C45.6924 22.7701 43.9993 22.7701 43.019 23.7271L30.9554 35.1341C30.5544 35.5191 29.9083 35.5081 29.5185 35.1231L23.314 28.9961C22.8128 28.5011 22.1556 28.2481 21.4983 28.2481Z" fill="#636262"/>
</svg>
