<svg width="80" height="80" viewBox="0 0 80 80" fill="none" xmlns="http://www.w3.org/2000/svg">
<path d="M13.5446 63.3784C21.025 63.3784 27.0891 56.971 27.0891 49.0671C27.0891 41.1632 21.025 34.7559 13.5446 34.7559C6.06411 34.7559 0 41.1632 0 49.0671C0 56.971 6.06411 63.3784 13.5446 63.3784Z" fill="#ECE8E8"/>
<path d="M50.5503 24.5336C56.9621 24.5336 62.1599 19.0416 62.1599 12.2668C62.1599 5.49203 56.9621 0 50.5503 0C44.1385 0 38.9407 5.49203 38.9407 12.2668C38.9407 19.0416 44.1385 24.5336 50.5503 24.5336Z" fill="#ECE8E8"/>
<path d="M60.6506 80.0002C71.337 80.0002 80 70.8468 80 59.5555C80 48.2642 71.337 39.1108 60.6506 39.1108C49.9643 39.1108 41.3013 48.2642 41.3013 59.5555C41.3013 70.8468 49.9643 80.0002 60.6506 80.0002Z" fill="#ECE8E8"/>
<path d="M63.8529 72.5787H17.4144C13.1382 72.5787 9.67468 68.9191 9.67468 64.4008V15.3336C9.67468 10.8154 13.1382 7.15576 17.4144 7.15576H63.8529C68.1292 7.15576 71.5927 10.8154 71.5927 15.3336V64.4008C71.5927 68.9191 68.1292 72.5787 63.8529 72.5787Z" fill="#D8BDCB"/>
<path d="M62.8855 69.512H13.5446C11.4065 69.512 9.67468 67.6822 9.67468 65.4231V15.3336C9.67468 10.8154 13.1382 7.15576 17.4144 7.15576H64.8204C66.9585 7.15576 68.6903 8.98556 68.6903 11.2447V63.3786C68.6903 66.7724 66.0878 69.512 62.8855 69.512Z" fill="white"/>
<path d="M63.853 73.3455H17.4144C12.7416 73.3455 8.9491 69.3383 8.9491 64.4009V15.3337C8.9491 10.3963 12.7416 6.38916 17.4144 6.38916H63.853C68.5258 6.38916 72.3183 10.3963 72.3183 15.3337V64.4009C72.3183 69.3383 68.5258 73.3455 63.853 73.3455ZM17.4144 7.92251C13.5446 7.92251 10.4003 11.2448 10.4003 15.3337V64.4009C10.4003 68.4898 13.5446 71.8121 17.4144 71.8121H63.853C67.7228 71.8121 70.8671 68.4898 70.8671 64.4009V15.3337C70.8671 11.2448 67.7228 7.92251 63.853 7.92251H17.4144Z" fill="#292929"/>
<path d="M62.8854 67.4675H18.3818C16.2437 67.4675 14.512 65.6377 14.512 63.3785V61.3341C14.512 59.0749 16.2437 57.2451 18.3818 57.2451H62.8854C65.0235 57.2451 66.7553 59.0749 66.7553 61.3341V63.3785C66.7553 65.6377 65.0235 67.4675 62.8854 67.4675Z" fill="#D8BDCB"/>
<path d="M61.9179 65.423H16.4469C15.373 65.423 14.512 64.503 14.512 63.3785V61.334C14.512 59.0749 16.2437 57.2451 18.3818 57.2451H62.8854C63.9496 57.2451 64.8203 58.1651 64.8203 59.2896V62.3563C64.8203 64.0532 63.5239 65.423 61.9179 65.423Z" fill="white"/>
<path d="M62.8854 68.2445H18.3819C15.8471 68.2445 13.7864 66.0671 13.7864 63.3888V61.3444C13.7864 58.6661 15.8471 56.4888 18.3819 56.4888H62.8854C65.4202 56.4888 67.4809 58.6661 67.4809 61.3444V63.3888C67.4809 66.0569 65.4202 68.2445 62.8854 68.2445ZM18.3819 58.0221C16.6501 58.0221 15.2376 59.5146 15.2376 61.3444V63.3888C15.2376 65.2186 16.6501 66.7111 18.3819 66.7111H62.8854C64.6172 66.7111 66.0297 65.2186 66.0297 63.3888V61.3444C66.0297 59.5146 64.6172 58.0221 62.8854 58.0221H18.3819Z" fill="#292929"/>
<path d="M61.918 63.1334H19.3494C18.9527 63.1334 18.6238 62.7859 18.6238 62.3668C18.6238 61.9477 18.9527 61.6001 19.3494 61.6001H61.918C62.3147 61.6001 62.6436 61.9477 62.6436 62.3668C62.6436 62.7859 62.3147 63.1334 61.918 63.1334Z" fill="#292929"/>
<path d="M66.7552 46.0005H60.9504V52.1339H66.7552V46.0005Z" fill="#D8BDCB"/>
<path d="M64.8203 46.0005H60.9504V50.0894H63.8528C64.385 50.0894 64.8203 49.6294 64.8203 49.0672V46.0005Z" fill="white"/>
<path d="M66.7553 52.9006H60.9505C60.5538 52.9006 60.2249 52.5531 60.2249 52.134V46.0006C60.2249 45.5814 60.5538 45.2339 60.9505 45.2339H66.7553C67.1519 45.2339 67.4809 45.5814 67.4809 46.0006V52.134C67.4809 52.5633 67.1519 52.9006 66.7553 52.9006ZM61.6761 51.3673H66.0297V46.7672H61.6761V51.3673Z" fill="#292929"/>
<path d="M60.9504 46.0005H55.1456V52.1339H60.9504V46.0005Z" fill="#D8BDCB"/>
<path d="M59.0155 46.0005H55.1456V50.0894H58.048C58.5801 50.0894 59.0155 49.6294 59.0155 49.0672V46.0005Z" fill="white"/>
<path d="M60.9505 52.9006H55.1456C54.749 52.9006 54.42 52.5531 54.42 52.134V46.0006C54.42 45.5814 54.749 45.2339 55.1456 45.2339H60.9505C61.3471 45.2339 61.6761 45.5814 61.6761 46.0006V52.134C61.6761 52.5633 61.3471 52.9006 60.9505 52.9006ZM55.8712 51.3673H60.2249V46.7672H55.8712V51.3673Z" fill="#292929"/>
<path d="M55.1456 46.0005H49.3408V52.1339H55.1456V46.0005Z" fill="#D8BDCB"/>
<path d="M53.2107 46.0005H49.3408V50.0894H52.2432C52.7753 50.0894 53.2107 49.6294 53.2107 49.0672V46.0005Z" fill="white"/>
<path d="M55.1456 52.9006H49.3408C48.9442 52.9006 48.6152 52.5531 48.6152 52.134V46.0006C48.6152 45.5814 48.9442 45.2339 49.3408 45.2339H55.1456C55.5423 45.2339 55.8713 45.5814 55.8713 46.0006V52.134C55.8713 52.5633 55.5423 52.9006 55.1456 52.9006ZM50.0664 51.3673H54.42V46.7672H50.0664V51.3673Z" fill="#292929"/>
<path d="M66.7552 39.8672H60.9504V46.0006H66.7552V39.8672Z" fill="#D8BDCB"/>
<path d="M64.8203 39.8672H60.9504V43.9561H63.8528C64.385 43.9561 64.8203 43.4961 64.8203 42.9339V39.8672Z" fill="white"/>
<path d="M66.7553 46.7673H60.9505C60.5538 46.7673 60.2249 46.4198 60.2249 46.0007V39.8673C60.2249 39.4481 60.5538 39.1006 60.9505 39.1006H66.7553C67.1519 39.1006 67.4809 39.4481 67.4809 39.8673V46.0007C67.4809 46.43 67.1519 46.7673 66.7553 46.7673ZM61.6761 45.234H66.0297V40.6339H61.6761V45.234Z" fill="#292929"/>
<path d="M60.9504 39.8672H55.1456V46.0006H60.9504V39.8672Z" fill="#D8BDCB"/>
<path d="M59.0155 39.8672H55.1456V43.9561H58.048C58.5801 43.9561 59.0155 43.4961 59.0155 42.9339V39.8672Z" fill="white"/>
<path d="M60.9505 46.7673H55.1456C54.749 46.7673 54.42 46.4198 54.42 46.0007V39.8673C54.42 39.4481 54.749 39.1006 55.1456 39.1006H60.9505C61.3471 39.1006 61.6761 39.4481 61.6761 39.8673V46.0007C61.6761 46.43 61.3471 46.7673 60.9505 46.7673ZM55.8712 45.234H60.2249V40.6339H55.8712V45.234Z" fill="#292929"/>
<path d="M55.1456 39.8672H49.3408V46.0006H55.1456V39.8672Z" fill="#D8BDCB"/>
<path d="M53.2107 39.8672H49.3408V43.9561H52.2432C52.7753 43.9561 53.2107 43.4961 53.2107 42.9339V39.8672Z" fill="white"/>
<path d="M55.1456 46.7673H49.3408C48.9442 46.7673 48.6152 46.4198 48.6152 46.0007V39.8673C48.6152 39.4481 48.9442 39.1006 49.3408 39.1006H55.1456C55.5423 39.1006 55.8713 39.4481 55.8713 39.8673V46.0007C55.8713 46.43 55.5423 46.7673 55.1456 46.7673ZM50.0664 45.234H54.42V40.6339H50.0664V45.234Z" fill="#292929"/>
<path d="M66.7552 33.7339H60.9504V39.8673H66.7552V33.7339Z" fill="#D8BDCB"/>
<path d="M64.8203 33.7339H60.9504V37.8228H63.8528C64.385 37.8228 64.8203 37.3628 64.8203 36.8006V33.7339Z" fill="white"/>
<path d="M66.7553 40.634H60.9505C60.5538 40.634 60.2249 40.2865 60.2249 39.8674V33.734C60.2249 33.3148 60.5538 32.9673 60.9505 32.9673H66.7553C67.1519 32.9673 67.4809 33.3148 67.4809 33.734V39.8674C67.4809 40.2967 67.1519 40.634 66.7553 40.634ZM61.6761 39.1007H66.0297V34.5006H61.6761V39.1007Z" fill="#292929"/>
<path d="M60.9504 33.7339H55.1456V39.8673H60.9504V33.7339Z" fill="#D8BDCB"/>
<path d="M59.0155 33.7339H55.1456V37.8228H58.048C58.5801 37.8228 59.0155 37.3628 59.0155 36.8006V33.7339Z" fill="white"/>
<path d="M60.9505 40.634H55.1456C54.749 40.634 54.42 40.2865 54.42 39.8674V33.734C54.42 33.3148 54.749 32.9673 55.1456 32.9673H60.9505C61.3471 32.9673 61.6761 33.3148 61.6761 33.734V39.8674C61.6761 40.2967 61.3471 40.634 60.9505 40.634ZM55.8712 39.1007H60.2249V34.5006H55.8712V39.1007Z" fill="#292929"/>
<path d="M55.1456 33.7339H49.3408V39.8673H55.1456V33.7339Z" fill="#D8BDCB"/>
<path d="M53.2107 33.7339H49.3408V37.8228H52.2432C52.7753 37.8228 53.2107 37.3628 53.2107 36.8006V33.7339Z" fill="white"/>
<path d="M55.1456 40.634H49.3408C48.9442 40.634 48.6152 40.2865 48.6152 39.8674V33.734C48.6152 33.3148 48.9442 32.9673 49.3408 32.9673H55.1456C55.5423 32.9673 55.8713 33.3148 55.8713 33.734V39.8674C55.8713 40.2967 55.5423 40.634 55.1456 40.634ZM50.0664 39.1007H54.42V34.5006H50.0664V39.1007Z" fill="#292929"/>
<path d="M66.7552 27.6006H60.9504V33.734H66.7552V27.6006Z" fill="#D8BDCB"/>
<path d="M64.8203 27.6006H60.9504V31.6895H63.8528C64.385 31.6895 64.8203 31.2295 64.8203 30.6673V27.6006Z" fill="white"/>
<path d="M66.7553 34.5007H60.9505C60.5538 34.5007 60.2249 34.1532 60.2249 33.7341V27.6007C60.2249 27.1815 60.5538 26.834 60.9505 26.834H66.7553C67.1519 26.834 67.4809 27.1815 67.4809 27.6007V33.7341C67.4809 34.1634 67.1519 34.5007 66.7553 34.5007ZM61.6761 32.9674H66.0297V28.3673H61.6761V32.9674Z" fill="#292929"/>
<path d="M60.9504 27.6006H55.1456V33.734H60.9504V27.6006Z" fill="#D8BDCB"/>
<path d="M59.0155 27.6006H55.1456V31.6895H58.048C58.5801 31.6895 59.0155 31.2295 59.0155 30.6673V27.6006Z" fill="white"/>
<path d="M60.9505 34.5007H55.1456C54.749 34.5007 54.42 34.1532 54.42 33.7341V27.6007C54.42 27.1815 54.749 26.834 55.1456 26.834H60.9505C61.3471 26.834 61.6761 27.1815 61.6761 27.6007V33.7341C61.6761 34.1634 61.3471 34.5007 60.9505 34.5007ZM55.8712 32.9674H60.2249V28.3673H55.8712V32.9674Z" fill="#292929"/>
<path d="M55.1456 27.6006H49.3408V33.734H55.1456V27.6006Z" fill="#D8BDCB"/>
<path d="M53.2107 27.6006H49.3408V31.6895H52.2432C52.7753 31.6895 53.2107 31.2295 53.2107 30.6673V27.6006Z" fill="white"/>
<path d="M55.1456 34.5007H49.3408C48.9442 34.5007 48.6152 34.1532 48.6152 33.7341V27.6007C48.6152 27.1815 48.9442 26.834 49.3408 26.834H55.1456C55.5423 26.834 55.8713 27.1815 55.8713 27.6007V33.7341C55.8713 34.1634 55.5423 34.5007 55.1456 34.5007ZM50.0664 32.9674H54.42V28.3673H50.0664V32.9674Z" fill="#292929"/>
<path d="M63.8529 22.4894H52.2432C50.6372 22.4894 49.3408 21.1196 49.3408 19.4227V15.3338C49.3408 13.6369 50.6372 12.2671 52.2432 12.2671H63.8529C65.4588 12.2671 66.7553 13.6369 66.7553 15.3338V19.4227C66.7553 21.1196 65.4588 22.4894 63.8529 22.4894Z" fill="#D8BDCB"/>
<path d="M62.8854 20.445H49.3408V15.3338C49.3408 13.6369 50.6372 12.2671 52.2432 12.2671H64.8203V18.4005C64.8203 19.5352 63.9496 20.445 62.8854 20.445Z" fill="white"/>
<path d="M63.8529 23.2562H52.2432C50.2406 23.2562 48.6152 21.5388 48.6152 19.4228V15.3339C48.6152 13.2178 50.2406 11.5005 52.2432 11.5005H63.8529C65.8555 11.5005 67.4809 13.2178 67.4809 15.3339V19.4228C67.4809 21.5388 65.8555 23.2562 63.8529 23.2562ZM52.2432 13.0338C51.0436 13.0338 50.0664 14.0663 50.0664 15.3339V19.4228C50.0664 20.6904 51.0436 21.7228 52.2432 21.7228H63.8529C65.0525 21.7228 66.0297 20.6904 66.0297 19.4228V15.3339C66.0297 14.0663 65.0525 13.0338 63.8529 13.0338H52.2432Z" fill="#292929"/>
<path d="M62.8854 18.1447H53.2107C52.814 18.1447 52.4851 17.7971 52.4851 17.378C52.4851 16.9589 52.814 16.6113 53.2107 16.6113H62.8854C63.2821 16.6113 63.611 16.9589 63.611 17.378C63.611 17.8073 63.2821 18.1447 62.8854 18.1447Z" fill="#292929"/>
<path d="M6.77223 21.4669H2.90236C2.5057 21.4669 2.17676 21.1194 2.17676 20.7003C2.17676 20.2812 2.5057 19.9336 2.90236 19.9336H6.77223C7.1689 19.9336 7.49784 20.2812 7.49784 20.7003C7.49784 21.1194 7.1689 21.4669 6.77223 21.4669Z" fill="#292929"/>
<path d="M4.8373 23.5114C4.44063 23.5114 4.11169 23.1639 4.11169 22.7448V18.6558C4.11169 18.2367 4.44063 17.8892 4.8373 17.8892C5.23396 17.8892 5.5629 18.2367 5.5629 18.6558V22.7448C5.5629 23.1741 5.23396 23.5114 4.8373 23.5114Z" fill="#292929"/>
<path d="M4.8373 27.6007C5.23803 27.6007 5.5629 27.2575 5.5629 26.8341C5.5629 26.4106 5.23803 26.0674 4.8373 26.0674C4.43656 26.0674 4.11169 26.4106 4.11169 26.8341C4.11169 27.2575 4.43656 27.6007 4.8373 27.6007Z" fill="#292929"/>
<path d="M4.8373 30.6671C5.23803 30.6671 5.5629 30.3239 5.5629 29.9005C5.5629 29.477 5.23803 29.1338 4.8373 29.1338C4.43656 29.1338 4.11169 29.477 4.11169 29.9005C4.11169 30.3239 4.43656 30.6671 4.8373 30.6671Z" fill="#292929"/>
<path d="M4.8373 35.7785C5.23803 35.7785 5.5629 35.4352 5.5629 35.0118C5.5629 34.5884 5.23803 34.2451 4.8373 34.2451C4.43656 34.2451 4.11169 34.5884 4.11169 35.0118C4.11169 35.4352 4.43656 35.7785 4.8373 35.7785Z" fill="#292929"/>
<path d="M4.8373 41.9118C5.23803 41.9118 5.5629 41.5685 5.5629 41.1451C5.5629 40.7217 5.23803 40.3784 4.8373 40.3784C4.43656 40.3784 4.11169 40.7217 4.11169 41.1451C4.11169 41.5685 4.43656 41.9118 4.8373 41.9118Z" fill="#292929"/>
<path d="M78.3649 60.0666H74.495C74.0983 60.0666 73.7694 59.719 73.7694 59.2999C73.7694 58.8808 74.0983 58.5332 74.495 58.5332H78.3649C78.7615 58.5332 79.0905 58.8808 79.0905 59.2999C79.0905 59.719 78.7615 60.0666 78.3649 60.0666Z" fill="#292929"/>
<path d="M76.4299 62.1111C76.0333 62.1111 75.7043 61.7635 75.7043 61.3444V57.2554C75.7043 56.8363 76.0333 56.4888 76.4299 56.4888C76.8266 56.4888 77.1555 56.8363 77.1555 57.2554V61.3444C77.1555 61.7635 76.8266 62.1111 76.4299 62.1111Z" fill="#292929"/>
<path d="M76.4299 53.923C76.8307 53.923 77.1555 53.5797 77.1555 53.1563C77.1555 52.7329 76.8307 52.3896 76.4299 52.3896C76.0292 52.3896 75.7043 52.7329 75.7043 53.1563C75.7043 53.5797 76.0292 53.923 76.4299 53.923Z" fill="#292929"/>
<path d="M76.4299 50.8561C76.8307 50.8561 77.1555 50.5129 77.1555 50.0894C77.1555 49.666 76.8307 49.3228 76.4299 49.3228C76.0292 49.3228 75.7043 49.666 75.7043 50.0894C75.7043 50.5129 76.0292 50.8561 76.4299 50.8561Z" fill="#292929"/>
<path d="M76.4299 45.7453C76.8307 45.7453 77.1555 45.402 77.1555 44.9786C77.1555 44.5552 76.8307 44.2119 76.4299 44.2119C76.0292 44.2119 75.7043 44.5552 75.7043 44.9786C75.7043 45.402 76.0292 45.7453 76.4299 45.7453Z" fill="#292929"/>
<path d="M76.4299 39.612C76.8307 39.612 77.1555 39.2687 77.1555 38.8453C77.1555 38.4219 76.8307 38.0786 76.4299 38.0786C76.0292 38.0786 75.7043 38.4219 75.7043 38.8453C75.7043 39.2687 76.0292 39.612 76.4299 39.612Z" fill="#292929"/>
<path d="M40.6336 52.1342H18.3818C16.2437 52.1342 14.512 50.3044 14.512 48.0453V16.356C14.512 14.0969 16.2437 12.2671 18.3818 12.2671H40.6336C42.7717 12.2671 44.5035 14.0969 44.5035 16.356V48.0453C44.5035 50.3044 42.7717 52.1342 40.6336 52.1342Z" fill="#D8BDCB"/>
<path d="M37.7312 48.0453H14.512V16.356C14.512 14.0969 16.2437 12.2671 18.3818 12.2671H40.6336V44.9786C40.6336 46.6755 39.3372 48.0453 37.7312 48.0453Z" fill="white"/>
<path d="M40.6336 52.9009H18.3819C15.8471 52.9009 13.7864 50.7236 13.7864 48.0453V16.3561C13.7864 13.6778 15.8471 11.5005 18.3819 11.5005H40.6336C43.1684 11.5005 45.2291 13.6778 45.2291 16.3561V48.0453C45.2291 50.7236 43.1684 52.9009 40.6336 52.9009ZM18.3819 13.0338C16.6501 13.0338 15.2376 14.5263 15.2376 16.3561V48.0453C15.2376 49.8751 16.6501 51.3676 18.3819 51.3676H40.6336C42.3654 51.3676 43.7779 49.8751 43.7779 48.0453V16.3561C43.7779 14.5263 42.3654 13.0338 40.6336 13.0338H18.3819Z" fill="#292929"/>
<path d="M18.3819 39.1414C17.9852 39.1414 17.6562 38.7938 17.6562 38.3747V27.3448C17.6562 26.9257 17.9852 26.5781 18.3819 26.5781C18.7785 26.5781 19.1075 26.9257 19.1075 27.3448V38.3645C19.1075 38.7938 18.7785 39.1414 18.3819 39.1414Z" fill="#292929"/>
<path d="M18.3819 45.4898C17.9852 45.4898 17.6562 45.1422 17.6562 44.7231V42.4639C17.6562 42.0448 17.9852 41.6973 18.3819 41.6973C18.7785 41.6973 19.1075 42.0448 19.1075 42.4639V44.7231C19.1075 45.1524 18.7785 45.4898 18.3819 45.4898Z" fill="#292929"/>
</svg>
