<svg width="80" height="80" viewBox="0 0 80 80" fill="none" xmlns="http://www.w3.org/2000/svg">
<path d="M14.5304 79.9999C22.5553 79.9999 29.0607 73.4927 29.0607 65.4658C29.0607 57.4388 22.5553 50.9316 14.5304 50.9316C6.50546 50.9316 0 57.4388 0 65.4658C0 73.4927 6.50546 79.9999 14.5304 79.9999Z" fill="#ECE8E8"/>
<path d="M32.9631 24.9156C39.8416 24.9156 45.4177 19.3381 45.4177 12.4578C45.4177 5.57756 39.8416 0 32.9631 0C26.0847 0 20.5085 5.57756 20.5085 12.4578C20.5085 19.3381 26.0847 24.9156 32.9631 24.9156Z" fill="#ECE8E8"/>
<path d="M59.2424 77.1452C70.7065 77.1452 80 67.8493 80 56.3822C80 44.9151 70.7065 35.6191 59.2424 35.6191C47.7783 35.6191 38.4847 44.9151 38.4847 56.3822C38.4847 67.8493 47.7783 77.1452 59.2424 77.1452Z" fill="#ECE8E8"/>
<path d="M39.5225 74.0306C57.8652 74.0306 72.7348 59.1571 72.7348 40.8097C72.7348 22.4624 57.8652 7.58887 39.5225 7.58887C21.1799 7.58887 6.3103 22.4624 6.3103 40.8097C6.3103 59.1571 21.1799 74.0306 39.5225 74.0306Z" fill="white"/>
<path d="M53.5859 10.7134C59.6367 16.7347 63.3939 25.0606 63.3939 34.2794C63.3939 52.6236 48.521 67.5003 30.1816 67.5003C25.1479 67.5003 20.384 66.3791 16.1183 64.3755C22.1276 70.3448 30.3892 74.0303 39.5225 74.0303C57.8619 74.0303 72.7348 59.1536 72.7348 40.8094C72.7348 27.4899 64.8988 16.008 53.5859 10.7134Z" fill="#D8BDCB"/>
<path d="M39.5225 74.809C20.7784 74.809 5.53186 59.5586 5.53186 40.8095C5.53186 22.0605 20.7784 6.81006 39.5225 6.81006C58.2667 6.81006 73.5132 22.0605 73.5132 40.8095C73.5132 59.5586 58.2667 74.809 39.5225 74.809ZM39.5225 8.36729C21.6398 8.36729 7.08868 22.9222 7.08868 40.8095C7.08868 58.6969 21.6398 73.2518 39.5225 73.2518C57.4052 73.2518 71.9564 58.6969 71.9564 40.8095C71.9564 22.9222 57.4052 8.36729 39.5225 8.36729Z" fill="#292929"/>
<path d="M57.1666 60.5343V31.466C57.1666 29.7427 55.7758 28.3516 54.0529 28.3516H8.72857C7.17175 32.2031 6.29993 36.3972 6.29993 40.8094C6.29993 49.6544 9.76646 57.6897 15.4125 63.6487H54.0425C55.7654 63.6487 57.1666 62.2472 57.1666 60.5343Z" fill="white"/>
<path d="M54.0529 28.3516H53.015V58.458C53.015 59.029 52.548 59.4961 51.9771 59.4961H12.0809C13.0877 60.9703 14.1982 62.3614 15.4229 63.6487H54.0529C55.7758 63.6487 57.1666 62.2576 57.1666 60.5343V31.466C57.1666 29.7427 55.7654 28.3516 54.0529 28.3516Z" fill="#D8BDCB"/>
<path d="M54.0529 64.4273H15.4125C15.1945 64.4273 14.9974 64.3339 14.852 64.1781C8.84271 57.835 5.53186 49.5298 5.53186 40.7989C5.53186 36.4076 6.36217 32.12 8.0124 28.0504C8.12657 27.7598 8.41717 27.5625 8.73892 27.5625H54.0633C56.2117 27.5625 57.9553 29.3066 57.9553 31.4556V60.5238C57.9449 62.6832 56.1909 64.4273 54.0529 64.4273ZM15.755 62.8701H54.0529C55.3399 62.8701 56.3881 61.8215 56.3881 60.5342V31.466C56.3881 30.1786 55.3399 29.1301 54.0529 29.1301H9.25786C7.8152 32.8675 7.08868 36.7917 7.08868 40.8093C7.08868 49.0211 10.1608 56.8488 15.755 62.8701Z" fill="#292929"/>
<path d="M20.8406 42.8858H12.5375C11.9667 42.8858 11.4996 42.4186 11.4996 41.8476V35.6187C11.4996 35.0477 11.9667 34.5806 12.5375 34.5806H20.8406C21.4114 34.5806 21.8785 35.0477 21.8785 35.6187V41.8476C21.8785 42.4186 21.4114 42.8858 20.8406 42.8858Z" fill="#D8BDCB"/>
<path d="M17.7269 39.7713H11.4996V34.5806H18.7648V38.7332C18.7648 39.3042 18.2978 39.7713 17.7269 39.7713Z" fill="white"/>
<path d="M20.8407 43.6647H12.5376C11.5412 43.6647 10.7213 42.8446 10.7213 41.8479V35.619C10.7213 34.612 11.5412 33.8022 12.5376 33.8022H20.8407C21.837 33.8022 22.657 34.612 22.657 35.619V41.8479C22.657 42.8446 21.837 43.6647 20.8407 43.6647ZM12.5376 35.3595C12.3923 35.3595 12.2781 35.4737 12.2781 35.619V41.8479C12.2781 41.9933 12.3923 42.1075 12.5376 42.1075H20.8407C20.986 42.1075 21.1001 41.9933 21.1001 41.8479V35.619C21.1001 35.4737 20.986 35.3595 20.8407 35.3595H12.5376Z" fill="#292929"/>
<path d="M46.7878 42.8858C49.0806 42.8858 50.9393 41.0266 50.9393 38.7332C50.9393 36.4398 49.0806 34.5806 46.7878 34.5806C44.4949 34.5806 42.6362 36.4398 42.6362 38.7332C42.6362 41.0266 44.4949 42.8858 46.7878 42.8858Z" fill="white"/>
<path d="M50.9392 38.7332C50.9392 36.4389 49.0814 34.5806 46.7877 34.5806C45.5423 34.5806 44.4421 35.1412 43.6844 36.0028C43.7986 35.9925 43.9024 35.9717 44.0166 35.9717C46.3103 35.9717 48.1681 37.83 48.1681 40.1243C48.1681 41.1728 47.7633 42.1279 47.1198 42.8546C49.2475 42.6782 50.9392 40.9133 50.9392 38.7332Z" fill="#D8BDCB"/>
<path d="M46.7877 43.6647C44.0685 43.6647 41.8578 41.4534 41.8578 38.7335C41.8578 36.0135 44.0685 33.8022 46.7877 33.8022C49.507 33.8022 51.7177 36.0135 51.7177 38.7335C51.7177 41.4534 49.507 43.6647 46.7877 43.6647ZM46.7877 35.3595C44.9299 35.3595 43.4146 36.8752 43.4146 38.7335C43.4146 40.5918 44.9299 42.1075 46.7877 42.1075C48.6455 42.1075 50.1609 40.5918 50.1609 38.7335C50.1609 36.8752 48.6455 35.3595 46.7877 35.3595Z" fill="#292929"/>
<path d="M40.5605 42.8858C42.8533 42.8858 44.712 41.0266 44.712 38.7332C44.712 36.4398 42.8533 34.5806 40.5605 34.5806C38.2676 34.5806 36.4089 36.4398 36.4089 38.7332C36.4089 41.0266 38.2676 42.8858 40.5605 42.8858Z" fill="white"/>
<path d="M44.712 38.7332C44.712 36.4389 42.8541 34.5806 40.5604 34.5806C39.315 34.5806 38.2252 35.1412 37.4572 36.0028C37.5713 35.9925 37.6751 35.9717 37.7893 35.9717C40.083 35.9717 41.9408 37.83 41.9408 40.1243C41.9408 41.1728 41.536 42.1279 40.8925 42.8546C43.0202 42.6782 44.712 40.9133 44.712 38.7332Z" fill="#D8BDCB"/>
<path d="M40.5604 43.6647C37.8412 43.6647 35.6305 41.4534 35.6305 38.7335C35.6305 36.0135 37.8412 33.8022 40.5604 33.8022C43.2797 33.8022 45.4904 36.0135 45.4904 38.7335C45.4904 41.4534 43.2797 43.6647 40.5604 43.6647ZM40.5604 35.3595C38.7026 35.3595 37.1873 36.8752 37.1873 38.7335C37.1873 40.5918 38.7026 42.1075 40.5604 42.1075C42.4182 42.1075 43.9336 40.5918 43.9336 38.7335C43.9336 36.8752 42.4182 35.3595 40.5604 35.3595Z" fill="#292929"/>
<path d="M36.9278 57.1603H25.3451C24.9195 57.1603 24.5667 56.8177 24.5667 56.3816C24.5667 55.956 24.9195 55.603 25.3451 55.603H36.9175C37.343 55.603 37.6959 55.956 37.6959 56.3816C37.7062 56.8073 37.3534 57.1603 36.9278 57.1603Z" fill="#292929"/>
<path d="M20.1556 57.1603H14.084C13.6584 57.1603 13.3055 56.8177 13.3055 56.3816C13.3055 55.956 13.6584 55.603 14.084 55.603H20.1556C20.5811 55.603 20.934 55.956 20.934 56.3816C20.934 56.8073 20.5915 57.1603 20.1556 57.1603Z" fill="#292929"/>
<path d="M17.561 51.9698H11.4893C11.0638 51.9698 10.7109 51.6272 10.7109 51.1912C10.7109 50.7656 11.0638 50.4126 11.4893 50.4126H17.561C17.9865 50.4126 18.3394 50.7656 18.3394 51.1912C18.3394 51.6169 17.9969 51.9698 17.561 51.9698Z" fill="#292929"/>
<path d="M28.6871 51.9698H22.6154C22.1899 51.9698 21.837 51.6272 21.837 51.1912C21.837 50.7656 22.1899 50.4126 22.6154 50.4126H28.6871C29.1126 50.4126 29.4655 50.7656 29.4655 51.1912C29.4655 51.6169 29.1126 51.9698 28.6871 51.9698Z" fill="#292929"/>
<path d="M39.8132 51.9698H33.7415C33.316 51.9698 32.9631 51.6272 32.9631 51.1912C32.9631 50.7656 33.316 50.4126 33.7415 50.4126H39.8132C40.2387 50.4126 40.5916 50.7656 40.5916 51.1912C40.5916 51.6169 40.2387 51.9698 39.8132 51.9698Z" fill="#292929"/>
<path d="M50.9393 51.9698H44.8676C44.4421 51.9698 44.0892 51.6272 44.0892 51.1912C44.0892 50.7656 44.4421 50.4126 44.8676 50.4126H50.9393C51.3648 50.4126 51.7177 50.7656 51.7177 51.1912C51.7177 51.6169 51.3648 51.9698 50.9393 51.9698Z" fill="#292929"/>
<path d="M25.345 22.9117H21.1935C20.7679 22.9117 20.415 22.5587 20.415 22.1331C20.415 21.7075 20.7679 21.3545 21.1935 21.3545H25.345C25.7705 21.3545 26.1234 21.7075 26.1234 22.1331C26.1234 22.5691 25.7809 22.9117 25.345 22.9117Z" fill="#292929"/>
<path d="M23.2693 24.9882C22.8437 24.9882 22.4908 24.6352 22.4908 24.2095V20.0569C22.4908 19.6313 22.8437 19.2783 23.2693 19.2783C23.6948 19.2783 24.0477 19.6313 24.0477 20.0569V24.2095C24.0477 24.6456 23.7052 24.9882 23.2693 24.9882Z" fill="#292929"/>
<path d="M37.8931 15.5201H33.7415C33.316 15.5201 32.9631 15.1671 32.9631 14.7415C32.9631 14.3159 33.316 13.9629 33.7415 13.9629H37.8931C38.3186 13.9629 38.6715 14.3159 38.6715 14.7415C38.6715 15.1671 38.329 15.5201 37.8931 15.5201Z" fill="#292929"/>
<path d="M35.8172 17.5966C35.3917 17.5966 35.0388 17.2436 35.0388 16.8179V12.6653C35.0388 12.2397 35.3917 11.8867 35.8172 11.8867C36.2428 11.8867 36.5956 12.2397 36.5956 12.6653V16.8179C36.5956 17.2436 36.2531 17.5966 35.8172 17.5966Z" fill="#292929"/>
<path d="M53.015 20.8355H48.8635C48.438 20.8355 48.0851 20.4826 48.0851 20.0569C48.0851 19.6313 48.438 19.2783 48.8635 19.2783H53.015C53.4406 19.2783 53.7934 19.6313 53.7934 20.0569C53.7934 20.493 53.4406 20.8355 53.015 20.8355Z" fill="#292929"/>
<path d="M50.9392 22.912C50.5136 22.912 50.1608 22.559 50.1608 22.1334V17.9808C50.1608 17.5551 50.5136 17.2021 50.9392 17.2021C51.3647 17.2021 51.7176 17.5551 51.7176 17.9808V22.1334C51.7176 22.5694 51.3647 22.912 50.9392 22.912Z" fill="#292929"/>
<path d="M68.3237 47.817H64.1722C63.7467 47.817 63.3938 47.464 63.3938 47.0384C63.3938 46.6024 63.7467 46.2598 64.1722 46.2598H68.3237C68.7493 46.2598 69.1022 46.6024 69.1022 47.0384C69.1022 47.464 68.7493 47.817 68.3237 47.817Z" fill="#292929"/>
<path d="M66.248 49.8934C65.8225 49.8934 65.4696 49.5405 65.4696 49.1148V44.9622C65.4696 44.5262 65.8225 44.1836 66.248 44.1836C66.6735 44.1836 67.0264 44.5262 67.0264 44.9622V49.1148C67.0264 49.5405 66.6735 49.8934 66.248 49.8934Z" fill="#292929"/>
<path d="M11.4997 14.8557C12.6461 14.8557 13.5755 13.9261 13.5755 12.7794C13.5755 11.6327 12.6461 10.7031 11.4997 10.7031C10.3533 10.7031 9.42395 11.6327 9.42395 12.7794C9.42395 13.9261 10.3533 14.8557 11.4997 14.8557Z" fill="white"/>
<path d="M11.4997 15.6342C9.9221 15.6342 8.64551 14.3572 8.64551 12.7792C8.64551 11.2012 9.9221 9.92432 11.4997 9.92432C13.0773 9.92432 14.3539 11.2012 14.3539 12.7792C14.3539 14.3572 13.0669 15.6342 11.4997 15.6342ZM11.4997 11.4815C10.7835 11.4815 10.2023 12.0629 10.2023 12.7792C10.2023 13.4956 10.7835 14.0769 11.4997 14.0769C12.2158 14.0769 12.797 13.4956 12.797 12.7792C12.797 12.0629 12.2158 11.4815 11.4997 11.4815Z" fill="#292929"/>
<path d="M64.4317 11.7415C65.5781 11.7415 66.5075 10.8119 66.5075 9.66517C66.5075 8.51846 65.5781 7.58887 64.4317 7.58887C63.2853 7.58887 62.356 8.51846 62.356 9.66517C62.356 10.8119 63.2853 11.7415 64.4317 11.7415Z" fill="white"/>
<path d="M64.4317 12.5199C62.8541 12.5199 61.5775 11.243 61.5775 9.66498C61.5775 8.08699 62.8541 6.81006 64.4317 6.81006C66.0093 6.81006 67.2859 8.08699 67.2859 9.66498C67.2859 11.243 65.9989 12.5199 64.4317 12.5199ZM64.4317 8.36729C63.7156 8.36729 63.1343 8.94865 63.1343 9.66498C63.1343 10.3813 63.7156 10.9627 64.4317 10.9627C65.1478 10.9627 65.729 10.3813 65.729 9.66498C65.729 8.94865 65.1478 8.36729 64.4317 8.36729Z" fill="#292929"/>
<path d="M70.659 19.0086C71.8054 19.0086 72.7348 18.079 72.7348 16.9323C72.7348 15.7855 71.8054 14.856 70.659 14.856C69.5126 14.856 68.5833 15.7855 68.5833 16.9323C68.5833 18.079 69.5126 19.0086 70.659 19.0086Z" fill="white"/>
<path d="M70.659 19.787C69.0814 19.787 67.8048 18.5101 67.8048 16.9321C67.8048 15.3541 69.0814 14.0771 70.659 14.0771C72.2366 14.0771 73.5132 15.3541 73.5132 16.9321C73.5132 18.4997 72.2262 19.787 70.659 19.787ZM70.659 15.6344C69.9428 15.6344 69.3616 16.2157 69.3616 16.9321C69.3616 17.6484 69.9428 18.2298 70.659 18.2298C71.3751 18.2298 71.9563 17.6484 71.9563 16.9321C71.9563 16.2157 71.3751 15.6344 70.659 15.6344Z" fill="#292929"/>
<path d="M8.38607 67.8015C9.53248 67.8015 10.4618 66.8719 10.4618 65.7252C10.4618 64.5785 9.53248 63.6489 8.38607 63.6489C7.23965 63.6489 6.3103 64.5785 6.3103 65.7252C6.3103 66.8719 7.23965 67.8015 8.38607 67.8015Z" fill="white"/>
<path d="M8.38604 68.58C6.80846 68.58 5.53186 67.303 5.53186 65.725C5.53186 64.147 6.80846 62.8701 8.38604 62.8701C9.96362 62.8701 11.2402 64.147 11.2402 65.725C11.2402 67.303 9.95324 68.58 8.38604 68.58ZM8.38604 64.4273C7.6699 64.4273 7.08868 65.0087 7.08868 65.725C7.08868 66.4414 7.6699 67.0227 8.38604 67.0227C9.10218 67.0227 9.68339 66.4414 9.68339 65.725C9.68339 65.0087 9.10218 64.4273 8.38604 64.4273Z" fill="#292929"/>
<path d="M16.689 74.0305C17.8355 74.0305 18.7648 73.1009 18.7648 71.9542C18.7648 70.8075 17.8355 69.8779 16.689 69.8779C15.5426 69.8779 14.6133 70.8075 14.6133 71.9542C14.6133 73.1009 15.5426 74.0305 16.689 74.0305Z" fill="white"/>
<path d="M16.6891 74.809C15.1116 74.809 13.835 73.532 13.835 71.954C13.835 70.376 15.1116 69.0991 16.6891 69.0991C18.2667 69.0991 19.5433 70.376 19.5433 71.954C19.5433 73.5216 18.2667 74.809 16.6891 74.809ZM16.6891 70.6563C15.973 70.6563 15.3918 71.2377 15.3918 71.954C15.3918 72.6704 15.973 73.2517 16.6891 73.2517C17.4053 73.2517 17.9865 72.6704 17.9865 71.954C17.9865 71.2377 17.4053 70.6563 16.6891 70.6563Z" fill="#292929"/>
<path d="M69.6212 68.8396C70.7676 68.8396 71.6969 67.91 71.6969 66.7633C71.6969 65.6166 70.7676 64.687 69.6212 64.687C68.4748 64.687 67.5454 65.6166 67.5454 66.7633C67.5454 67.91 68.4748 68.8396 69.6212 68.8396Z" fill="white"/>
<path d="M69.6211 69.618C68.0436 69.618 66.767 68.3411 66.767 66.7631C66.767 65.1851 68.0436 63.9082 69.6211 63.9082C71.1987 63.9082 72.4753 65.1851 72.4753 66.7631C72.4753 68.3307 71.1883 69.618 69.6211 69.618ZM69.6211 65.4654C68.905 65.4654 68.3238 66.0468 68.3238 66.7631C68.3238 67.4794 68.905 68.0608 69.6211 68.0608C70.3373 68.0608 70.9185 67.4794 70.9185 66.7631C70.9185 66.0468 70.3373 65.4654 69.6211 65.4654Z" fill="#292929"/>
</svg>
