<svg width="84" height="158" viewBox="0 0 84 158" fill="none" xmlns="http://www.w3.org/2000/svg">
<g clip-path="url(#clip0_290_437)">
<path d="M81.8327 125.019C87.0464 102.94 73.3737 80.8139 51.2938 75.6002C29.214 70.3866 7.08827 84.0593 1.8746 106.139C-3.33907 128.219 10.3337 150.345 32.4135 155.558C54.4933 160.772 76.619 147.099 81.8327 125.019Z" stroke="#EEEEEE" stroke-width="2" stroke-miterlimit="10"/>
<path d="M41.37 83.6499V27.3999" stroke="#EEEEEE" stroke-width="2" stroke-miterlimit="10" stroke-linecap="round"/>
<path d="M27.6867 4.73794H24.0604V3.42342H32.8088V4.73794H29.1825V14H27.6867V4.73794ZM39.8369 14.1209C38.7692 14.1209 37.8072 13.8892 36.951 13.4258C36.0948 12.9524 35.4199 12.3027 34.9263 11.4767C34.4428 10.6507 34.2011 9.72908 34.2011 8.71171C34.2011 7.69434 34.4428 6.77267 34.9263 5.94669C35.4199 5.12071 36.0948 4.47604 36.951 4.01269C37.8072 3.53926 38.7692 3.30254 39.8369 3.30254C40.8946 3.30254 41.8515 3.53926 42.7077 4.01269C43.5639 4.47604 44.2337 5.12071 44.7172 5.94669C45.2007 6.7626 45.4425 7.68427 45.4425 8.71171C45.4425 9.73915 45.2007 10.6659 44.7172 11.4918C44.2337 12.3077 43.5639 12.9524 42.7077 13.4258C41.8515 13.8892 40.8946 14.1209 39.8369 14.1209ZM39.8369 12.7761C40.6125 12.7761 41.3075 12.5999 41.922 12.2473C42.5465 11.8948 43.0351 11.4113 43.3876 10.7968C43.7502 10.1723 43.9315 9.47725 43.9315 8.71171C43.9315 7.94617 43.7502 7.25617 43.3876 6.64172C43.0351 6.0172 42.5465 5.52866 41.922 5.17611C41.3075 4.82356 40.6125 4.64728 39.8369 4.64728C39.0613 4.64728 38.3562 4.82356 37.7216 5.17611C37.0971 5.52866 36.6035 6.0172 36.2409 6.64172C35.8883 7.25617 35.712 7.94617 35.712 8.71171C35.712 9.47725 35.8883 10.1723 36.2409 10.7968C36.6035 11.4113 37.0971 11.8948 37.7216 12.2473C38.3562 12.5999 39.0613 12.7761 39.8369 12.7761ZM52.6322 3.42342C54.0021 3.42342 55.0799 3.75079 55.8656 4.40553C56.6513 5.06027 57.0441 5.9618 57.0441 7.11011C57.0441 8.25843 56.6513 9.15996 55.8656 9.8147C55.0799 10.4694 54.0021 10.7968 52.6322 10.7968H50.0183V14H48.5073V3.42342H52.6322ZM52.5869 9.48229C53.5438 9.48229 54.2741 9.28083 54.7777 8.87791C55.2814 8.46492 55.5332 7.87566 55.5332 7.11011C55.5332 6.34457 55.2814 5.76034 54.7777 5.35742C54.2741 4.94443 53.5438 4.73794 52.5869 4.73794H50.0183V9.48229H52.5869Z" fill="white"/>
<path d="M29.3 119.93L42.44 106.79L55.57 119.93" stroke="#EEEEEE" stroke-width="2" stroke-miterlimit="10" stroke-linecap="round"/>
</g>
<defs>
<clipPath id="clip0_290_437">
<rect width="83.72" height="157.43" fill="white"/>
</clipPath>
</defs>
</svg>
