<svg width="281" height="242" viewBox="0 0 281 242" fill="none" xmlns="http://www.w3.org/2000/svg">
<path d="M63.4407 221.74C111.643 247.466 189.795 247.466 237.997 221.74C286.2 196.014 286.206 154.291 237.997 128.565C189.788 102.839 111.643 102.832 63.4407 128.565C15.2385 154.297 15.2385 196.007 63.4407 221.74Z" fill="#EBEBEB"/>
<path d="M252.182 157.909L245.151 153.821C245.151 153.821 243.427 138.757 244.572 127.093C246.187 110.694 256.774 90.9842 269.399 95.6035C282.023 100.223 263.601 116.962 259.513 130.861C255.425 144.76 252.182 157.909 252.182 157.909Z" fill="#E7142D"/>
<path opacity="0.1" d="M252.182 157.909L245.151 153.821C245.151 153.821 243.427 138.757 244.572 127.093C246.187 110.694 256.774 90.9842 269.399 95.6035C282.023 100.223 263.601 116.962 259.513 130.861C255.425 144.76 252.182 157.909 252.182 157.909Z" fill="black"/>
<path d="M248.524 156.062C248.458 156.063 248.394 156.04 248.344 155.997C248.294 155.954 248.261 155.895 248.251 155.83C245.86 137.435 252.407 109.631 265.624 99.0845C265.651 99.0624 265.683 99.046 265.716 99.0362C265.75 99.0263 265.785 99.0232 265.82 99.027C265.855 99.0308 265.889 99.0414 265.919 99.0583C265.95 99.0752 265.977 99.098 265.999 99.1253C266.044 99.1815 266.065 99.2531 266.057 99.3245C266.049 99.396 266.014 99.4615 265.958 99.5069C252.884 109.944 246.418 137.53 248.789 155.755C248.799 155.827 248.78 155.899 248.737 155.956C248.693 156.014 248.629 156.052 248.558 156.062H248.524Z" fill="white"/>
<path d="M255.93 160.818L250.929 157.922C250.929 157.922 250.077 147.587 255.146 135.03C259.554 124.129 270.503 115.027 276.008 116.935C281.513 118.843 281.376 122.746 278.692 126.841C276.008 130.936 259.677 140.699 255.93 160.818Z" fill="#E7142D"/>
<path d="M252.831 161.084C252.796 161.082 252.761 161.073 252.729 161.058C252.697 161.043 252.668 161.021 252.644 160.994C252.621 160.968 252.603 160.936 252.592 160.903C252.581 160.869 252.576 160.833 252.579 160.798C254.228 135.072 267.241 122.42 275.062 120.492C275.132 120.475 275.206 120.486 275.269 120.523C275.331 120.56 275.377 120.62 275.396 120.69C275.412 120.759 275.401 120.832 275.364 120.893C275.327 120.955 275.267 120.999 275.198 121.017C266.961 123.06 254.671 136.755 253.131 160.832C253.128 160.868 253.118 160.904 253.102 160.936C253.085 160.969 253.062 160.998 253.034 161.021C253.006 161.045 252.974 161.063 252.939 161.073C252.904 161.084 252.867 161.088 252.831 161.084Z" fill="white"/>
<path d="M49.6701 159.912C49.6701 159.912 50.6035 144.807 41.8283 134.451C33.0531 124.096 21.6276 124.136 17.8464 126.064C14.0652 127.993 11.5239 133.504 18.0304 137.449C24.5368 141.394 38.3741 149.29 40.6769 156.335L49.6701 159.912Z" fill="#E7142D"/>
<path opacity="0.1" d="M49.6701 159.912C49.6701 159.912 50.6035 144.807 41.8283 134.451C33.0531 124.096 21.6276 124.136 17.8464 126.064C14.0652 127.993 11.5239 133.504 18.0304 137.449C24.5368 141.394 38.3741 149.29 40.6769 156.335L49.6701 159.912Z" fill="black"/>
<path d="M45.5435 156.13C45.4592 156.129 45.3782 156.098 45.3155 156.041C45.2528 155.985 45.2128 155.908 45.2029 155.824C43.3974 139.111 26.6919 129.852 20.0356 128.803C19.9908 128.797 19.9478 128.781 19.9091 128.758C19.8703 128.734 19.8365 128.704 19.8096 128.667C19.7828 128.631 19.7633 128.59 19.7524 128.546C19.7415 128.502 19.7393 128.456 19.746 128.412C19.7527 128.367 19.7682 128.324 19.7915 128.285C19.8148 128.246 19.8455 128.213 19.8819 128.186C19.9183 128.159 19.9596 128.139 20.0035 128.128C20.0474 128.117 20.093 128.115 20.1378 128.122C26.9508 129.192 44.0311 138.662 45.8842 155.749C45.8889 155.794 45.8847 155.839 45.8718 155.882C45.8589 155.925 45.8376 155.965 45.8091 156C45.7805 156.035 45.7454 156.064 45.7057 156.085C45.666 156.106 45.6224 156.119 45.5776 156.124L45.5435 156.13Z" fill="white"/>
<path d="M42.2899 152.295C40.0893 147.28 37.6026 145.032 30.4489 146.231C23.2952 147.43 24.3171 147.246 15.5624 145.005C11.8697 144.065 7.7206 143.915 4.17783 145.509C1.18691 146.872 -1.04777 149.597 1.84777 152.499C5.1044 155.742 9.96209 156.853 13.5594 159.707C14.3754 160.284 15.0242 161.067 15.4398 161.976C16.3868 164.388 14.4928 167.106 15.0446 169.634C15.5965 172.162 18.2536 173.511 20.7471 173.674C23.2407 173.838 25.7002 173.088 28.187 172.802C30.6737 172.516 33.4671 172.802 35.1839 174.648C37.0235 176.604 37.0711 179.731 38.7812 181.809C41.3429 184.922 47.6382 185.788 51.0447 183.853L59.9629 178.709C65.8562 170.765 56.5564 164.47 51.6851 158.304C49.321 155.299 43.6117 155.313 42.2899 152.295Z" fill="#E7142D"/>
<path d="M54.4361 173.913C54.378 173.914 54.3208 173.899 54.2704 173.871C54.2199 173.842 54.1783 173.8 54.1499 173.749C43.9781 157.268 16.2831 148.929 6.48595 148.248C6.39676 148.241 6.3139 148.199 6.25526 148.132C6.19662 148.064 6.16691 147.976 6.17255 147.887C6.17953 147.797 6.22108 147.714 6.28843 147.654C6.35579 147.594 6.4437 147.563 6.53364 147.567C16.4602 148.248 44.4209 156.71 54.729 173.409C54.7747 173.487 54.7881 173.579 54.7665 173.667C54.7449 173.755 54.6899 173.831 54.6132 173.879C54.5575 173.903 54.4969 173.915 54.4361 173.913Z" fill="white"/>
<path d="M22.2157 166.146C22.1626 166.147 22.11 166.135 22.0626 166.111C22.0151 166.088 21.9741 166.053 21.9431 166.01C21.8889 165.937 21.8656 165.846 21.8784 165.757C21.8912 165.668 21.939 165.587 22.0113 165.533C22.3655 165.267 30.8137 159.067 39.0438 158.944C39.0883 158.943 39.1324 158.951 39.1737 158.968C39.215 158.984 39.2526 159.009 39.2843 159.04C39.316 159.071 39.3412 159.108 39.3584 159.149C39.3756 159.19 39.3845 159.234 39.3845 159.278C39.3854 159.323 39.3775 159.367 39.3612 159.409C39.3449 159.451 39.3206 159.489 39.2896 159.521C39.2586 159.553 39.2215 159.579 39.1805 159.597C39.1395 159.615 39.0954 159.625 39.0507 159.626C31.059 159.742 22.5222 166.016 22.4337 166.078C22.3722 166.127 22.2943 166.151 22.2157 166.146Z" fill="white"/>
<path d="M53.8047 179.703C53.8775 180.694 54.1825 181.653 54.695 182.504C55.2075 183.355 55.9131 184.074 56.7547 184.602L139.417 232.327C140.331 232.791 141.342 233.032 142.367 233.032C143.392 233.032 144.403 232.791 145.317 232.327L258.414 167.024C259.305 166.554 260.051 165.849 260.572 164.985C261.092 164.122 261.367 163.133 261.367 162.125C261.367 161.117 261.092 160.129 260.572 159.265C260.051 158.402 259.305 157.697 258.414 157.227L175.758 109.536C174.844 109.072 173.833 108.83 172.808 108.83C171.783 108.83 170.772 109.072 169.858 109.536L56.7547 174.818C55.9148 175.344 55.2103 176.061 54.6979 176.909C54.1855 177.758 53.8796 178.715 53.8047 179.703Z" fill="#37474F"/>
<path d="M87.9142 156.818L56.7582 174.818C55.8668 175.289 55.1207 175.994 54.6002 176.857C54.0797 177.72 53.8047 178.709 53.8047 179.717C53.8047 180.725 54.0797 181.714 54.6002 182.577C55.1207 183.44 55.8668 184.145 56.7582 184.616L139.421 232.341C140.33 232.816 141.345 233.05 142.371 233.022V156.818H87.9142Z" fill="#263238"/>
<path d="M51.0317 174.914C50.2106 174.354 49.5325 173.609 49.0521 172.74C48.5716 171.87 48.3022 170.899 48.2656 169.906V71.2604C48.3205 70.2366 48.6162 69.2402 49.1289 68.3523C49.6415 67.4644 50.3565 66.7101 51.2157 66.1506L164.312 0.847721C165.166 0.312248 166.149 0.0195032 167.157 0.000941147C168.164 -0.0176209 169.158 0.238699 170.031 0.742364C170.904 1.24603 171.623 1.978 172.111 2.85963C172.599 3.74126 172.837 4.73922 172.801 5.74629V104.399C172.745 105.423 172.449 106.419 171.936 107.306C171.424 108.194 170.709 108.949 169.851 109.509L56.7547 174.818C55.8751 175.282 54.8988 175.533 53.9046 175.549C52.9104 175.566 51.9262 175.348 51.0317 174.914Z" fill="#455A64"/>
<path d="M62.1079 75.8459L49.1291 68.3516C48.6122 69.2358 48.3285 70.2368 48.3047 71.2607V169.907C48.3413 170.9 48.6107 171.87 49.0911 172.74C49.5716 173.61 50.2497 174.355 51.0708 174.914C51.9654 175.345 52.9489 175.56 53.9418 175.541C54.9348 175.522 55.9093 175.27 56.7869 174.805L69.6908 167.359L62.1079 75.8459Z" fill="#263238"/>
<path d="M53.8047 74.4627V173.102C53.8047 174.982 55.1264 175.745 56.7547 174.805L169.851 109.509C170.709 108.949 171.424 108.194 171.936 107.306C172.449 106.419 172.745 105.423 172.801 104.399V5.75325C172.801 3.87285 171.479 3.10979 169.851 4.04999L56.7547 69.3529C55.8955 69.9123 55.1805 70.6667 54.6679 71.5546C54.1553 72.4425 53.8595 73.4389 53.8047 74.4627Z" fill="#37474F"/>
<path d="M56.7576 178.225L139.42 225.916C140.334 226.38 141.345 226.621 142.37 226.621C143.395 226.621 144.406 226.38 145.32 225.916L258.417 160.613C260.052 159.673 260.052 158.147 258.417 157.206L175.761 109.515C174.847 109.051 173.836 108.81 172.811 108.81C171.786 108.81 170.775 109.051 169.861 109.515L56.7576 174.818C55.1225 175.745 55.1225 177.271 56.7576 178.225Z" fill="#455A64"/>
<path d="M58.3417 74.8232L168.27 11.3598C169.244 10.7943 170.041 11.2508 170.041 12.3817V97.7695C170.007 98.3836 169.829 98.981 169.521 99.5136C169.213 100.046 168.785 100.499 168.27 100.835L58.3417 164.299C57.3606 164.864 56.5703 164.408 56.5703 163.277V77.8891C56.6031 77.2746 56.7806 76.6766 57.0884 76.1437C57.3963 75.6109 57.8257 75.1584 58.3417 74.8232Z" fill="white"/>
<path d="M66.3447 175.656L171.327 115.02C171.784 114.789 172.289 114.668 172.802 114.668C173.314 114.668 173.82 114.789 174.277 115.02L179.652 118.12C179.83 118.181 179.985 118.295 180.094 118.448C180.204 118.601 180.263 118.784 180.263 118.972C180.263 119.16 180.204 119.343 180.094 119.496C179.985 119.649 179.83 119.763 179.652 119.824L74.6498 180.453C74.1926 180.684 73.6873 180.805 73.1748 180.805C72.6623 180.805 72.1569 180.684 71.6998 180.453L66.3447 177.36C66.1668 177.299 66.0122 177.185 65.9027 177.032C65.7932 176.879 65.7344 176.696 65.7344 176.508C65.7344 176.32 65.7932 176.137 65.9027 175.984C66.0122 175.831 66.1668 175.717 66.3447 175.656Z" fill="#263238"/>
<path d="M80.1934 183.675L185.169 123.039C185.627 122.807 186.133 122.687 186.647 122.687C187.161 122.687 187.667 122.807 188.125 123.039L221.148 142.115C221.326 142.176 221.481 142.29 221.59 142.443C221.7 142.596 221.759 142.779 221.759 142.967C221.759 143.155 221.7 143.338 221.59 143.491C221.481 143.644 221.326 143.758 221.148 143.819L116.289 204.332C115.831 204.564 115.324 204.685 114.81 204.685C114.297 204.685 113.79 204.564 113.332 204.332L80.1934 185.344C80.024 185.28 79.8782 185.166 79.7752 185.017C79.6723 184.868 79.6172 184.691 79.6172 184.51C79.6172 184.328 79.6723 184.152 79.7752 184.002C79.8782 183.853 80.024 183.739 80.1934 183.675Z" fill="#263238"/>
<path d="M174.294 150.291L177.585 148.39C177.721 148.309 177.714 148.179 177.585 148.091L173.783 145.897C173.702 145.855 173.612 145.833 173.521 145.833C173.43 145.833 173.34 145.855 173.259 145.897L169.975 147.798C169.832 147.879 169.839 148.009 169.975 148.097L173.776 150.291C173.857 150.332 173.945 150.353 174.035 150.353C174.125 150.353 174.214 150.332 174.294 150.291ZM167.808 142.797L164.524 144.698C164.381 144.773 164.388 144.909 164.524 144.997L168.326 147.191C168.407 147.233 168.497 147.255 168.588 147.255C168.68 147.255 168.77 147.233 168.851 147.191L172.141 145.29C172.278 145.209 172.271 145.072 172.141 144.991L168.333 142.797C168.252 142.755 168.162 142.733 168.071 142.733C167.979 142.733 167.889 142.755 167.808 142.797ZM157.194 148.929L151.627 152.138C151.491 152.219 151.498 152.356 151.627 152.444L155.429 154.638C155.51 154.68 155.6 154.702 155.691 154.702C155.783 154.702 155.872 154.68 155.954 154.638L161.513 151.429C161.656 151.347 161.642 151.211 161.513 151.129L157.711 148.929C157.631 148.887 157.543 148.865 157.452 148.865C157.362 148.865 157.273 148.887 157.194 148.929ZM163.005 145.57L159.721 147.471C159.578 147.552 159.585 147.689 159.721 147.77L163.523 149.964C163.604 150.006 163.694 150.028 163.785 150.028C163.876 150.028 163.966 150.006 164.047 149.964L167.338 148.063C167.474 147.982 167.468 147.852 167.338 147.764L163.53 145.522C163.449 145.48 163.359 145.458 163.267 145.458C163.176 145.458 163.086 145.48 163.005 145.522V145.57ZM150.108 153.016L146.824 154.91C146.681 154.992 146.695 155.128 146.824 155.217L150.626 157.411C150.706 157.451 150.795 157.472 150.885 157.472C150.975 157.472 151.063 157.451 151.144 157.411L154.434 155.51C154.571 155.428 154.564 155.292 154.434 155.21L150.633 153.016C150.551 152.975 150.462 152.953 150.37 152.953C150.279 152.953 150.189 152.975 150.108 153.016ZM145.339 155.789L142.055 157.69C141.912 157.765 141.926 157.901 142.055 157.99L145.857 160.184C145.938 160.226 146.028 160.247 146.119 160.247C146.21 160.247 146.3 160.226 146.381 160.184L149.672 158.283C149.808 158.201 149.801 158.065 149.672 157.983L145.829 155.742C145.748 155.7 145.658 155.678 145.567 155.678C145.476 155.678 145.386 155.7 145.305 155.742L145.339 155.789ZM160.293 164.714L163.577 162.814C163.72 162.732 163.707 162.602 163.577 162.514L159.776 160.32C159.696 160.278 159.607 160.256 159.517 160.256C159.427 160.256 159.338 160.278 159.258 160.32L155.967 162.221C155.831 162.303 155.838 162.432 155.967 162.521L159.769 164.714C159.848 164.746 159.933 164.759 160.018 164.753C160.103 164.747 160.185 164.722 160.259 164.68L160.293 164.714ZM155.483 167.487L158.774 165.586C158.91 165.512 158.904 165.375 158.774 165.287L154.972 163.093C154.891 163.051 154.801 163.029 154.71 163.029C154.619 163.029 154.529 163.051 154.448 163.093L151.164 164.994C151.021 165.075 151.035 165.212 151.164 165.293L154.966 167.487C155.044 167.518 155.128 167.531 155.211 167.525C155.295 167.52 155.377 167.495 155.449 167.453L155.483 167.487ZM150.68 170.26L153.971 168.366C154.107 168.284 154.1 168.148 153.971 168.06L150.169 165.866C150.088 165.826 149.998 165.805 149.907 165.805C149.816 165.805 149.726 165.826 149.645 165.866L146.361 167.767C146.218 167.848 146.231 167.985 146.361 168.066L150.156 170.26C150.235 170.291 150.32 170.304 150.405 170.299C150.49 170.293 150.572 170.268 150.646 170.226L150.68 170.26ZM145.911 173.033L149.202 171.139C149.338 171.057 149.331 170.921 149.202 170.832L145.4 168.639C145.319 168.597 145.229 168.575 145.138 168.575C145.047 168.575 144.957 168.597 144.876 168.639L141.592 170.533C141.449 170.614 141.455 170.751 141.592 170.839L145.393 173.033C145.542 173.081 145.703 173.069 145.843 172.999L145.911 173.033ZM169.559 153.112L172.85 151.211C172.986 151.136 172.979 151 172.85 150.911L169.048 148.717C168.967 148.677 168.877 148.656 168.786 148.656C168.695 148.656 168.605 148.677 168.524 148.717L165.24 150.618C165.097 150.7 165.103 150.836 165.24 150.918L169.041 153.112C169.115 153.137 169.192 153.147 169.27 153.141C169.347 153.135 169.422 153.114 169.491 153.078L169.559 153.112ZM165.131 161.969L172.462 157.731C172.598 157.656 172.591 157.52 172.462 157.431L163.23 152.103C163.149 152.062 163.059 152.04 162.968 152.04C162.876 152.04 162.786 152.062 162.705 152.103L158.917 154.297C158.774 154.372 158.788 154.508 158.917 154.597L163.809 157.418C163.959 157.506 163.966 157.642 163.809 157.724L160.723 159.4C160.586 159.475 160.593 159.611 160.723 159.7L164.538 161.873C164.616 161.921 164.705 161.948 164.796 161.954C164.887 161.96 164.979 161.944 165.063 161.907L165.131 161.969ZM140.57 158.562L137.286 160.463C137.143 160.545 137.15 160.674 137.286 160.763L141.088 162.957C141.169 162.998 141.259 163.02 141.35 163.02C141.441 163.02 141.531 162.998 141.612 162.957L144.903 161.056C145.039 160.974 145.032 160.845 144.903 160.756L141.101 158.562C141.014 158.502 140.912 158.466 140.806 158.46C140.7 158.454 140.595 158.478 140.502 158.528L140.57 158.562ZM135.801 161.335L132.408 163.236C132.271 163.318 132.278 163.454 132.408 163.536L136.209 165.73C136.291 165.771 136.38 165.793 136.472 165.793C136.563 165.793 136.653 165.771 136.734 165.73L140.025 163.829C140.161 163.754 140.154 163.617 140.025 163.529L136.196 161.315C136.119 161.275 136.035 161.253 135.949 161.251C135.863 161.249 135.777 161.266 135.698 161.301L135.801 161.335ZM111.669 192.403C111.75 192.444 111.84 192.466 111.931 192.466C112.022 192.466 112.112 192.444 112.193 192.403L115.484 190.502C115.62 190.427 115.614 190.29 115.484 190.202L111.669 188.022C111.588 187.98 111.498 187.958 111.407 187.958C111.315 187.958 111.225 187.98 111.144 188.022L107.86 189.923C107.717 190.004 107.724 190.141 107.86 190.222L111.669 192.403ZM97.2457 183.491L93.955 185.392C93.8187 185.474 93.8255 185.603 93.955 185.692L97.7567 187.885C97.8378 187.927 97.9277 187.949 98.019 187.949C98.1102 187.949 98.2002 187.927 98.2813 187.885L101.572 185.985C101.708 185.903 101.701 185.773 101.572 185.685L97.7703 183.491C97.6918 183.453 97.6056 183.433 97.5182 183.433C97.4308 183.433 97.3446 183.453 97.2661 183.491H97.2457ZM104.978 189.998C105.06 190.039 105.15 190.061 105.241 190.061C105.332 190.061 105.422 190.039 105.503 189.998L108.787 188.097C108.93 188.022 108.916 187.885 108.787 187.797L104.992 185.603C104.911 185.561 104.821 185.539 104.73 185.539C104.639 185.539 104.549 185.561 104.467 185.603L101.177 187.504C101.041 187.586 101.047 187.722 101.177 187.804L104.978 189.998ZM120.151 194.085L123.442 192.185C123.578 192.103 123.571 191.973 123.442 191.885L119.64 189.691C119.559 189.649 119.469 189.627 119.378 189.627C119.287 189.627 119.197 189.649 119.116 189.691L115.832 191.592C115.689 191.667 115.702 191.803 115.832 191.892L119.626 194.085C119.71 194.132 119.803 194.157 119.898 194.158C119.993 194.159 120.087 194.136 120.172 194.092L120.151 194.085ZM114.823 196.811C114.904 196.852 114.994 196.874 115.086 196.874C115.177 196.874 115.267 196.852 115.348 196.811L118.639 194.91C118.775 194.835 118.768 194.699 118.639 194.61L114.837 192.416C114.756 192.374 114.666 192.353 114.575 192.353C114.483 192.353 114.393 192.374 114.312 192.416L111.028 194.317C110.885 194.399 110.892 194.535 111.028 194.617L114.823 196.811ZM102.049 180.677L98.765 182.578C98.6219 182.653 98.6287 182.789 98.765 182.878L102.567 185.072C102.648 185.114 102.738 185.135 102.829 185.135C102.92 185.135 103.01 185.114 103.091 185.072L106.382 183.171C106.518 183.089 106.511 182.953 106.382 182.871L102.58 180.677C102.498 180.644 102.409 180.63 102.32 180.637C102.231 180.644 102.145 180.672 102.069 180.718L102.049 180.677ZM126.072 166.813L122.781 168.707C122.645 168.789 122.651 168.925 122.781 169.007L126.583 171.207C126.664 171.247 126.754 171.268 126.845 171.268C126.936 171.268 127.026 171.247 127.107 171.207L130.391 169.313C130.534 169.231 130.527 169.095 130.391 169.007L126.589 166.813C126.509 166.782 126.422 166.769 126.336 166.776C126.25 166.783 126.166 166.81 126.092 166.854L126.072 166.813ZM106.9 177.945L103.616 179.839C103.473 179.921 103.48 180.057 103.616 180.146L107.418 182.34C107.499 182.38 107.589 182.401 107.68 182.401C107.771 182.401 107.861 182.38 107.942 182.34L111.233 180.439C111.369 180.357 111.362 180.221 111.233 180.139L107.431 177.938C107.348 177.898 107.257 177.878 107.165 177.879C107.072 177.88 106.982 177.903 106.9 177.945ZM130.922 164.074L127.605 165.961C127.468 166.043 127.475 166.179 127.605 166.261L131.406 168.455C131.487 168.497 131.577 168.518 131.669 168.518C131.76 168.518 131.85 168.497 131.931 168.455L135.215 166.561C135.358 166.479 135.351 166.343 135.215 166.254L131.427 164.088C131.345 164.044 131.255 164.02 131.163 164.018C131.07 164.015 130.979 164.035 130.895 164.074H130.922ZM121.316 169.627L118.025 171.521C117.889 171.602 117.896 171.739 118.025 171.827L121.827 174.021C121.909 174.061 121.998 174.082 122.089 174.082C122.18 174.082 122.27 174.061 122.352 174.021L125.636 172.127C125.779 172.045 125.765 171.909 125.636 171.82L121.841 169.627C121.756 169.582 121.661 169.558 121.565 169.558C121.469 169.558 121.374 169.582 121.289 169.627H121.316ZM116.506 172.399L113.222 174.294C113.079 174.375 113.093 174.512 113.222 174.6L117.024 176.794C117.105 176.834 117.195 176.855 117.286 176.855C117.377 176.855 117.467 176.834 117.549 176.794L120.832 174.9C120.969 174.818 120.962 174.682 120.832 174.593L117.031 172.399C116.946 172.355 116.851 172.331 116.755 172.331C116.659 172.331 116.564 172.355 116.479 172.399H116.506ZM111.669 175.172L108.385 177.066C108.242 177.148 108.256 177.284 108.385 177.373L112.18 179.567C112.261 179.609 112.351 179.63 112.442 179.63C112.533 179.63 112.623 179.609 112.704 179.567L115.995 177.673C116.131 177.591 116.125 177.455 115.995 177.366L112.193 175.172C112.112 175.132 112.022 175.111 111.931 175.111C111.84 175.111 111.75 175.132 111.669 175.172ZM136.23 178.579L139.514 176.685C139.657 176.603 139.65 176.467 139.514 176.378L135.705 174.137C135.624 174.097 135.534 174.076 135.443 174.076C135.352 174.076 135.262 174.097 135.181 174.137L131.89 176.031C131.754 176.113 131.76 176.249 131.89 176.337L135.692 178.531C135.774 178.579 135.867 178.605 135.962 178.607C136.058 178.609 136.152 178.588 136.237 178.545L136.23 178.579ZM178.437 136.665L175.146 138.566C175.01 138.648 175.016 138.777 175.146 138.866L178.948 141.06C179.029 141.101 179.119 141.123 179.21 141.123C179.301 141.123 179.391 141.101 179.472 141.06L182.756 139.159C182.899 139.077 182.892 138.947 182.756 138.859L178.954 136.665C178.874 136.624 178.785 136.603 178.695 136.603C178.606 136.603 178.517 136.624 178.437 136.665ZM172.618 140.024L169.334 141.925C169.191 142 169.205 142.136 169.334 142.225L173.129 144.418C173.211 144.459 173.301 144.48 173.392 144.48C173.482 144.48 173.572 144.459 173.654 144.418L176.945 142.518C177.081 142.436 177.074 142.299 176.945 142.218L173.143 140.024C173.064 139.976 172.974 139.947 172.881 139.941C172.789 139.935 172.696 139.952 172.611 139.99L172.618 140.024ZM183.24 133.892L179.956 135.793C179.813 135.868 179.82 136.004 179.956 136.093L183.758 138.287C183.839 138.328 183.929 138.35 184.02 138.35C184.111 138.35 184.201 138.328 184.282 138.287L187.573 136.386C187.709 136.304 187.702 136.168 187.573 136.086L183.771 133.892C183.688 133.838 183.592 133.806 183.493 133.8C183.394 133.794 183.295 133.814 183.206 133.858L183.24 133.892ZM158.372 159.536L161.663 157.636C161.799 157.554 161.792 157.418 161.663 157.336L157.861 155.142C157.78 155.1 157.69 155.078 157.599 155.078C157.508 155.078 157.418 155.1 157.337 155.142L154.053 157.043C153.91 157.118 153.916 157.254 154.053 157.343L157.854 159.536C157.936 159.571 158.025 159.586 158.114 159.58C158.203 159.574 158.289 159.547 158.365 159.502L158.372 159.536ZM188.568 131.133C188.486 131.091 188.397 131.069 188.305 131.069C188.214 131.069 188.124 131.091 188.043 131.133L184.759 133.034C184.616 133.109 184.623 133.245 184.759 133.334L188.561 135.527C188.642 135.568 188.732 135.589 188.823 135.589C188.914 135.589 189.004 135.568 189.085 135.527L192.376 133.627C192.512 133.545 192.505 133.408 192.376 133.327L188.568 131.133ZM141.04 175.772L144.331 173.878C144.467 173.796 144.46 173.66 144.331 173.571L140.508 171.412C140.427 171.37 140.337 171.348 140.246 171.348C140.155 171.348 140.065 171.37 139.984 171.412L136.7 173.306C136.557 173.387 136.564 173.524 136.7 173.612L140.502 175.806C140.588 175.843 140.681 175.86 140.775 175.854C140.868 175.848 140.959 175.82 141.04 175.772ZM199.952 141.761L203.243 139.86C203.379 139.785 203.372 139.649 203.243 139.561L199.421 137.346C199.34 137.305 199.25 137.283 199.158 137.283C199.067 137.283 198.977 137.305 198.896 137.346L195.612 139.247C195.469 139.329 195.476 139.465 195.612 139.547L199.414 141.741C199.495 141.788 199.587 141.815 199.68 141.818C199.774 141.822 199.868 141.802 199.952 141.761ZM189.733 141.4L193.023 139.499C193.16 139.418 193.153 139.288 193.023 139.2L189.222 137.006C189.14 136.964 189.051 136.942 188.959 136.942C188.868 136.942 188.778 136.964 188.697 137.006L185.413 138.907C185.27 138.988 185.277 139.118 185.413 139.206L189.215 141.4C189.291 141.444 189.375 141.47 189.463 141.476C189.55 141.482 189.638 141.468 189.719 141.434L189.733 141.4ZM194.004 134.233C193.923 134.191 193.833 134.169 193.742 134.169C193.651 134.169 193.561 134.191 193.48 134.233L190.196 136.134C190.053 136.209 190.06 136.345 190.196 136.433L193.998 138.627C194.079 138.669 194.169 138.691 194.26 138.691C194.351 138.691 194.441 138.669 194.522 138.627L197.813 136.726C197.949 136.645 197.942 136.508 197.813 136.427L194.004 134.233ZM195.019 133.647L204.244 138.975C204.325 139.017 204.415 139.038 204.507 139.038C204.598 139.038 204.688 139.017 204.769 138.975L208.06 137.074C208.196 136.992 208.189 136.863 208.06 136.774L198.828 131.446C198.747 131.405 198.657 131.383 198.566 131.383C198.474 131.383 198.384 131.405 198.303 131.446L195.019 133.347C194.842 133.422 194.856 133.558 195.006 133.647H195.019ZM183.873 139.779L180.583 141.68C180.446 141.761 180.453 141.898 180.583 141.979L184.384 144.173C184.465 144.215 184.555 144.237 184.647 144.237C184.738 144.237 184.828 144.215 184.909 144.173L188.193 142.272C188.336 142.197 188.329 142.061 188.193 141.972L184.391 139.779C184.314 139.738 184.228 139.716 184.141 139.713C184.053 139.711 183.966 139.729 183.887 139.765L183.873 139.779ZM147.717 160.654L144.412 162.555C144.276 162.636 144.283 162.773 144.412 162.854L148.214 165.048C148.295 165.09 148.385 165.112 148.476 165.112C148.568 165.112 148.657 165.09 148.739 165.048L152.022 163.147C152.166 163.072 152.159 162.936 152.022 162.848L148.221 160.654C148.142 160.611 148.053 160.587 147.964 160.585C147.874 160.583 147.784 160.602 147.703 160.64L147.717 160.654ZM194.638 144.534C194.719 144.576 194.809 144.598 194.9 144.598C194.992 144.598 195.081 144.576 195.163 144.534L198.453 142.633C198.59 142.558 198.583 142.422 198.453 142.334L194.652 140.14C194.57 140.1 194.48 140.079 194.389 140.079C194.298 140.079 194.209 140.1 194.127 140.14L190.843 142.041C190.7 142.122 190.707 142.259 190.843 142.34L194.638 144.534ZM152.52 157.881L149.236 159.782C149.093 159.863 149.1 159.993 149.236 160.082L153.038 162.275C153.119 162.317 153.209 162.339 153.3 162.339C153.391 162.339 153.481 162.317 153.562 162.275L156.853 160.374C156.989 160.293 156.982 160.163 156.853 160.075L153.051 157.881C152.969 157.833 152.876 157.807 152.78 157.805C152.685 157.803 152.591 157.824 152.506 157.867L152.52 157.881ZM116.506 189.643C116.587 189.685 116.677 189.707 116.768 189.707C116.86 189.707 116.95 189.685 117.031 189.643L120.321 187.742C120.458 187.661 120.451 187.531 120.321 187.443L116.52 185.249C116.439 185.207 116.349 185.185 116.257 185.185C116.166 185.185 116.076 185.207 115.995 185.249L112.711 187.15C112.568 187.231 112.582 187.361 112.711 187.449L116.506 189.643ZM109.284 182.83L105.994 184.731C105.857 184.813 105.864 184.942 105.994 185.031L109.795 187.225C109.876 187.266 109.966 187.288 110.058 187.288C110.149 187.288 110.239 187.266 110.32 187.225L113.604 185.324C113.747 185.242 113.74 185.113 113.604 185.024L109.802 182.83C109.72 182.787 109.629 182.765 109.536 182.765C109.444 182.765 109.353 182.787 109.271 182.83H109.284ZM121.841 186.87L125.125 184.97C125.261 184.888 125.254 184.751 125.125 184.67L121.323 182.476C121.242 182.434 121.152 182.412 121.061 182.412C120.969 182.412 120.879 182.434 120.798 182.476L117.48 184.356C117.344 184.431 117.351 184.568 117.48 184.656L121.282 186.85C121.364 186.898 121.457 186.926 121.552 186.929C121.647 186.933 121.742 186.913 121.827 186.87H121.841ZM126.644 184.097L129.928 182.197C130.071 182.115 130.057 181.979 129.928 181.897L126.133 179.703C126.052 179.661 125.962 179.639 125.871 179.639C125.779 179.639 125.689 179.661 125.608 179.703L122.318 181.597C122.181 181.679 122.188 181.815 122.318 181.904L126.119 184.097C126.203 184.14 126.295 184.162 126.388 184.162C126.482 184.162 126.574 184.14 126.658 184.097H126.644ZM131.413 181.318L134.697 179.424C134.84 179.342 134.833 179.206 134.697 179.124L130.895 176.923C130.814 176.883 130.724 176.862 130.633 176.862C130.542 176.862 130.452 176.883 130.371 176.923L127.08 178.817C126.944 178.899 126.95 179.035 127.08 179.124L130.882 181.318C130.965 181.363 131.059 181.387 131.154 181.387C131.249 181.387 131.343 181.363 131.427 181.318H131.413ZM114.053 180.057L110.763 181.958C110.626 182.033 110.633 182.169 110.763 182.258L114.564 184.452C114.646 184.494 114.735 184.515 114.827 184.515C114.918 184.515 115.008 184.494 115.089 184.452L118.38 182.551C118.516 182.469 118.509 182.333 118.38 182.251L114.578 180.057C114.5 180.019 114.413 179.999 114.326 179.999C114.239 179.999 114.152 180.019 114.074 180.057H114.053ZM118.857 177.284L115.573 179.178C115.43 179.26 115.436 179.396 115.573 179.485L119.374 181.679C119.456 181.719 119.546 181.74 119.637 181.74C119.728 181.74 119.817 181.719 119.899 181.679L123.251 179.792C123.387 179.71 123.38 179.574 123.251 179.492L119.449 177.298C119.364 177.246 119.265 177.217 119.165 177.215C119.065 177.212 118.965 177.236 118.877 177.284H118.857ZM138.076 166.193L134.833 168.087C134.697 168.169 134.704 168.305 134.833 168.393L138.635 170.587C138.716 170.627 138.806 170.648 138.897 170.648C138.988 170.648 139.078 170.627 139.159 170.587L142.443 168.693C142.586 168.611 142.573 168.475 142.443 168.387L138.648 166.193C138.564 166.146 138.469 166.122 138.373 166.122C138.276 166.122 138.181 166.146 138.097 166.193H138.076ZM133.266 168.966L129.982 170.86C129.846 170.941 129.853 171.078 129.982 171.166L133.784 173.36C133.866 173.4 133.955 173.421 134.046 173.421C134.137 173.421 134.227 173.4 134.309 173.36L137.592 171.466C137.736 171.384 137.722 171.248 137.592 171.16L133.791 168.966C133.712 168.929 133.626 168.909 133.539 168.909C133.452 168.909 133.365 168.929 133.287 168.966H133.266ZM142.879 163.413L139.602 165.314C139.466 165.396 139.473 165.532 139.602 165.614L143.404 167.814C143.486 167.855 143.575 167.875 143.666 167.875C143.757 167.875 143.847 167.855 143.929 167.814L147.212 165.913C147.356 165.839 147.349 165.702 147.212 165.614L143.411 163.42C143.332 163.381 143.244 163.36 143.156 163.359C143.068 163.357 142.98 163.376 142.9 163.413H142.879ZM123.66 174.512L120.376 176.406C120.233 176.487 120.24 176.624 120.376 176.712L124.178 178.906C124.259 178.946 124.349 178.967 124.44 178.967C124.531 178.967 124.621 178.946 124.702 178.906L127.993 177.005C128.129 176.923 128.122 176.787 127.993 176.705L124.191 174.505C124.111 174.468 124.023 174.449 123.935 174.45C123.847 174.451 123.76 174.472 123.68 174.512H123.66ZM128.463 171.739L125.179 173.633C125.036 173.714 125.05 173.851 125.179 173.939L128.981 176.133C129.061 176.175 129.15 176.197 129.24 176.197C129.33 176.197 129.419 176.175 129.499 176.133L132.789 174.239C132.926 174.157 132.919 174.021 132.789 173.932L128.988 171.739C128.909 171.702 128.823 171.682 128.736 171.682C128.648 171.682 128.562 171.702 128.483 171.739H128.463ZM124.961 191.319L128.245 189.418C128.381 189.337 128.374 189.2 128.245 189.119L124.443 186.925C124.362 186.883 124.272 186.861 124.181 186.861C124.09 186.861 124 186.883 123.919 186.925L120.635 188.826C120.492 188.901 120.505 189.037 120.635 189.125L124.436 191.319C124.52 191.365 124.614 191.388 124.709 191.388C124.804 191.388 124.898 191.365 124.982 191.319H124.961ZM96.7892 188.444L92.9875 186.25C92.9064 186.209 92.8165 186.187 92.7252 186.187C92.634 186.187 92.544 186.209 92.4629 186.25L89.1859 188.165C89.0496 188.247 89.0564 188.376 89.1859 188.465L92.9875 190.658C93.0686 190.7 93.1586 190.722 93.2498 190.722C93.3411 190.722 93.431 190.7 93.5121 190.658L96.796 188.758C96.9459 188.696 96.9391 188.56 96.7892 188.444ZM103.984 190.556L100.182 188.362C100.102 188.322 100.013 188.301 99.9232 188.301C99.8333 188.301 99.7447 188.322 99.6643 188.362L94.6363 191.299C94.5 191.381 94.5068 191.517 94.6363 191.599L98.438 193.792C98.5191 193.834 98.609 193.856 98.7003 193.856C98.7915 193.856 98.8815 193.834 98.9626 193.792L104.018 190.876C104.175 190.808 104.134 190.672 103.984 190.583V190.556ZM90.9573 184.2L87.142 182.033C87.0608 181.991 86.9709 181.969 86.8797 181.969C86.7884 181.969 86.6985 181.991 86.6173 182.033L82.584 184.356C82.4478 184.438 82.4546 184.574 82.584 184.663L86.3857 186.857C86.4668 186.899 86.5567 186.92 86.648 186.92C86.7393 186.92 86.8292 186.899 86.9103 186.857L90.9504 184.527C91.1139 184.452 91.1071 184.315 90.9573 184.227V184.2ZM94.0572 182.408C94.1383 182.45 94.2282 182.471 94.3195 182.471C94.4107 182.471 94.5007 182.45 94.5818 182.408L97.8657 180.507C98.0087 180.432 98.0019 180.296 97.8657 180.207L94.064 178.013C93.9829 177.972 93.8929 177.95 93.8017 177.95C93.7104 177.95 93.6205 177.972 93.5394 178.013L90.2487 179.914C90.1124 179.996 90.1192 180.132 90.2487 180.214L94.0572 182.408ZM110.681 192.961L106.9 190.795C106.818 190.754 106.728 190.733 106.637 190.733C106.546 190.733 106.457 190.754 106.375 190.795L100.053 194.446C99.9164 194.528 99.9232 194.664 100.053 194.746L103.854 196.947C103.936 196.987 104.026 197.008 104.117 197.008C104.208 197.008 104.297 196.987 104.379 196.947L110.701 193.295C110.838 193.213 110.831 193.077 110.681 192.988V192.961ZM113.835 197.41L110.034 195.257C109.953 195.215 109.863 195.194 109.771 195.194C109.68 195.194 109.59 195.215 109.509 195.257L105.462 197.594C105.326 197.676 105.333 197.812 105.462 197.901L109.264 200.094C109.345 200.135 109.435 200.156 109.526 200.156C109.617 200.156 109.707 200.135 109.788 200.094L113.835 197.758C113.992 197.662 113.985 197.526 113.835 197.437V197.41ZM129.778 161.785C129.859 161.827 129.949 161.848 130.04 161.848C130.131 161.848 130.221 161.827 130.303 161.785L133.586 159.891C133.729 159.809 133.716 159.673 133.586 159.584L129.785 157.39C129.703 157.35 129.613 157.329 129.522 157.329C129.431 157.329 129.342 157.35 129.26 157.39L125.976 159.318C125.84 159.4 125.847 159.536 125.976 159.618L129.778 161.785ZM120.165 167.337C120.246 167.378 120.336 167.399 120.427 167.399C120.518 167.399 120.608 167.378 120.689 167.337L123.98 165.443C124.116 165.362 124.109 165.225 123.98 165.137L120.178 162.943C120.097 162.903 120.007 162.882 119.916 162.882C119.825 162.882 119.735 162.903 119.654 162.943L116.37 164.837C116.227 164.919 116.24 165.055 116.37 165.144L120.165 167.337ZM98.8604 179.662C98.9415 179.704 99.0314 179.726 99.1227 179.726C99.2139 179.726 99.3039 179.704 99.385 179.662L102.669 177.761C102.812 177.68 102.805 177.55 102.669 177.462L98.8672 175.268C98.7861 175.226 98.6961 175.204 98.6049 175.204C98.5136 175.204 98.4237 175.226 98.3426 175.268L95.0519 177.169C94.9156 177.25 94.9224 177.38 95.0519 177.468L98.8604 179.662ZM124.975 164.599C125.055 164.639 125.144 164.66 125.234 164.66C125.323 164.66 125.412 164.639 125.493 164.599L128.783 162.705C128.919 162.623 128.913 162.487 128.783 162.398L124.982 160.204C124.9 160.162 124.81 160.14 124.719 160.14C124.628 160.14 124.538 160.162 124.457 160.204L121.173 162.098C121.03 162.18 121.044 162.316 121.173 162.405L124.975 164.599ZM115.362 170.144C115.443 170.186 115.533 170.208 115.624 170.208C115.715 170.208 115.805 170.186 115.886 170.144L119.177 168.25C119.313 168.169 119.306 168.032 119.177 167.944L115.375 165.75C115.294 165.71 115.204 165.689 115.113 165.689C115.022 165.689 114.932 165.71 114.851 165.75L111.567 167.644C111.424 167.726 111.43 167.862 111.567 167.951L115.362 170.144ZM116.472 197.798C116.39 197.758 116.301 197.737 116.21 197.737C116.119 197.737 116.029 197.758 115.947 197.798L110.892 200.708C110.756 200.789 110.763 200.926 110.892 201.014L114.694 203.208C114.775 203.25 114.865 203.272 114.956 203.272C115.047 203.272 115.137 203.25 115.218 203.208L120.274 200.292C120.417 200.21 120.403 200.074 120.274 199.985L116.472 197.798ZM108.467 174.137C108.548 174.177 108.638 174.198 108.729 174.198C108.82 174.198 108.91 174.177 108.991 174.137L112.282 172.236C112.418 172.154 112.411 172.018 112.282 171.936L108.48 169.742C108.399 169.701 108.309 169.679 108.218 169.679C108.127 169.679 108.037 169.701 107.956 169.742L104.672 171.643C104.529 171.718 104.536 171.854 104.672 171.943L108.467 174.137ZM103.664 176.862C103.745 176.904 103.835 176.926 103.926 176.926C104.017 176.926 104.107 176.904 104.188 176.862L107.479 174.961C107.615 174.879 107.608 174.743 107.479 174.661L103.677 172.468C103.596 172.426 103.506 172.404 103.415 172.404C103.324 172.404 103.234 172.426 103.153 172.468L99.8687 174.368C99.7256 174.443 99.7324 174.58 99.8687 174.668L103.664 176.862ZM205.478 146.408C205.396 146.366 205.306 146.344 205.215 146.344C205.124 146.344 205.034 146.366 204.953 146.408L196.832 151.068C196.696 151.15 196.702 151.286 196.832 151.374L200.633 153.568C200.715 153.609 200.805 153.629 200.896 153.629C200.987 153.629 201.076 153.609 201.158 153.568L209.293 148.929C209.436 148.847 209.429 148.711 209.293 148.622L205.478 146.408ZM194.856 152.539C194.775 152.498 194.685 152.476 194.594 152.476C194.502 152.476 194.412 152.498 194.331 152.539L191.048 154.433C190.904 154.515 190.911 154.652 191.048 154.74L194.849 156.934C194.931 156.974 195.021 156.995 195.111 156.995C195.202 156.995 195.292 156.974 195.374 156.934L198.664 155.04C198.801 154.958 198.794 154.822 198.664 154.733L194.856 152.539ZM129.785 188.546L133.069 186.646C133.212 186.564 133.198 186.428 133.069 186.346L129.274 184.145C129.192 184.105 129.102 184.084 129.011 184.084C128.92 184.084 128.831 184.105 128.749 184.145L125.458 186.039C125.322 186.121 125.329 186.257 125.458 186.346L129.26 188.54C129.341 188.581 129.431 188.603 129.522 188.604C129.613 188.605 129.703 188.586 129.785 188.546ZM185.25 158.085C185.168 158.045 185.078 158.024 184.987 158.024C184.896 158.024 184.807 158.045 184.725 158.085L181.434 159.979C181.298 160.061 181.305 160.197 181.434 160.286L185.236 162.48C185.317 162.522 185.407 162.543 185.498 162.543C185.59 162.543 185.679 162.522 185.761 162.48L189.044 160.586C189.188 160.504 189.181 160.368 189.044 160.279L185.25 158.085ZM210.281 143.635C210.199 143.595 210.109 143.574 210.018 143.574C209.927 143.574 209.838 143.595 209.756 143.635L206.472 145.522C206.329 145.604 206.336 145.74 206.472 145.822L210.274 148.022C210.355 148.063 210.445 148.084 210.536 148.084C210.627 148.084 210.717 148.063 210.798 148.022L214.089 146.128C214.225 146.047 214.219 145.91 214.089 145.822L210.281 143.635ZM218.886 143.056L209.654 137.728C209.573 137.686 209.483 137.664 209.392 137.664C209.3 137.664 209.21 137.686 209.129 137.728L205.845 139.629C205.702 139.711 205.709 139.847 205.845 139.929L215.077 145.256C215.158 145.298 215.248 145.32 215.339 145.32C215.431 145.32 215.521 145.298 215.602 145.256L218.892 143.356C219.042 143.281 219.035 143.144 218.886 143.056ZM167.297 168.455C167.216 168.413 167.126 168.391 167.035 168.391C166.944 168.391 166.854 168.413 166.773 168.455L162.726 170.792C162.589 170.873 162.596 171.01 162.726 171.091L166.527 173.285C166.608 173.327 166.698 173.349 166.79 173.349C166.881 173.349 166.971 173.327 167.052 173.285L171.099 170.948C171.235 170.867 171.228 170.73 171.099 170.649L167.297 168.455ZM179.431 161.444C179.35 161.402 179.26 161.38 179.169 161.38C179.078 161.38 178.988 161.402 178.907 161.444L173.851 164.36C173.715 164.442 173.722 164.578 173.851 164.66L177.653 166.86C177.735 166.901 177.824 166.922 177.915 166.922C178.006 166.922 178.096 166.901 178.178 166.86L183.233 163.945C183.369 163.863 183.362 163.726 183.233 163.638L179.431 161.444ZM156.172 174.873C156.09 174.832 156 174.811 155.909 174.811C155.818 174.811 155.729 174.832 155.647 174.873L128.592 190.488C128.456 190.57 128.463 190.706 128.592 190.795L132.394 192.988C132.476 193.029 132.565 193.05 132.656 193.05C132.747 193.05 132.837 193.029 132.919 192.988L159.973 177.366C160.11 177.284 160.103 177.148 159.973 177.06L156.172 174.873ZM127.598 191.374C127.517 191.332 127.427 191.31 127.335 191.31C127.244 191.31 127.154 191.332 127.073 191.374L123.033 193.711C122.89 193.792 122.897 193.929 123.033 194.01L126.835 196.204C126.916 196.246 127.006 196.268 127.097 196.268C127.188 196.268 127.278 196.246 127.359 196.204L131.427 193.895C131.563 193.813 131.556 193.677 131.427 193.595L127.598 191.374ZM161.731 171.664C161.649 171.623 161.56 171.602 161.469 171.602C161.378 171.602 161.288 171.623 161.206 171.664L157.166 174.001C157.023 174.082 157.03 174.219 157.166 174.307L160.968 176.501C161.05 176.541 161.139 176.562 161.23 176.562C161.321 176.562 161.411 176.541 161.493 176.501L165.54 174.164C165.683 174.089 165.669 173.953 165.54 173.864L161.731 171.664ZM122.038 194.576C121.957 194.536 121.867 194.515 121.776 194.515C121.685 194.515 121.595 194.536 121.514 194.576L117.467 196.913C117.33 196.995 117.337 197.131 117.467 197.219L121.268 199.413C121.35 199.453 121.44 199.474 121.531 199.474C121.622 199.474 121.711 199.453 121.793 199.413L125.833 197.083C125.976 197.001 125.969 196.865 125.833 196.777L122.038 194.576ZM172.857 165.232C172.775 165.192 172.685 165.171 172.594 165.171C172.503 165.171 172.414 165.192 172.332 165.232L168.292 167.562C168.149 167.644 168.156 167.78 168.292 167.869L172.094 170.063C172.175 170.103 172.265 170.124 172.356 170.124C172.447 170.124 172.537 170.103 172.618 170.063L176.665 167.726C176.808 167.644 176.795 167.508 176.665 167.419L172.857 165.232ZM190.053 155.306C189.972 155.264 189.882 155.242 189.791 155.242C189.699 155.242 189.609 155.264 189.528 155.306L186.244 157.2C186.101 157.281 186.108 157.418 186.244 157.506L190.046 159.7C190.128 159.74 190.217 159.761 190.308 159.761C190.399 159.761 190.489 159.74 190.571 159.7L193.861 157.806C193.998 157.724 193.991 157.588 193.861 157.499L190.053 155.306ZM200.579 147.661L203.863 145.767C204.006 145.686 203.999 145.549 203.863 145.461L200.061 143.267C199.98 143.227 199.89 143.206 199.799 143.206C199.708 143.206 199.618 143.227 199.537 143.267L196.246 145.168C196.11 145.25 196.116 145.386 196.246 145.468L200.048 147.668C200.13 147.71 200.221 147.731 200.313 147.731C200.405 147.731 200.496 147.71 200.579 147.668V147.661ZM179.118 147.566L182.409 145.665C182.545 145.583 182.538 145.447 182.409 145.365L178.607 143.172C178.526 143.13 178.436 143.108 178.345 143.108C178.253 143.108 178.163 143.13 178.082 143.172L174.798 145.072C174.655 145.154 174.669 145.284 174.798 145.372L178.593 147.566C178.674 147.608 178.764 147.63 178.856 147.63C178.947 147.63 179.037 147.608 179.118 147.566ZM168.217 166.39L177.823 160.845C177.96 160.763 177.953 160.627 177.823 160.538L174.022 158.344C173.94 158.304 173.85 158.283 173.759 158.283C173.668 158.283 173.579 158.304 173.497 158.344L163.891 163.897C163.754 163.972 163.761 164.108 163.891 164.197L167.692 166.39C167.776 166.427 167.868 166.443 167.959 166.437C168.05 166.431 168.139 166.403 168.217 166.356V166.39ZM195.251 150.468C195.333 150.509 195.422 150.53 195.513 150.53C195.604 150.53 195.694 150.509 195.776 150.468L199.06 148.574C199.203 148.493 199.196 148.356 199.06 148.268L195.258 146.074C195.177 146.032 195.087 146.01 194.996 146.01C194.904 146.01 194.814 146.032 194.733 146.074L191.443 147.968C191.306 148.05 191.313 148.186 191.443 148.275L195.251 150.468ZM190.346 147.341L193.63 145.447C193.773 145.365 193.766 145.229 193.63 145.141L189.828 142.947C189.746 142.906 189.657 142.886 189.566 142.886C189.475 142.886 189.385 142.906 189.303 142.947L186.013 144.848C185.876 144.929 185.883 145.066 186.013 145.147L189.814 147.348C189.9 147.383 189.993 147.398 190.085 147.391C190.177 147.384 190.267 147.355 190.346 147.307V147.341ZM163.414 169.143L166.698 167.242C166.841 167.16 166.827 167.031 166.698 166.942L162.896 164.748C162.815 164.707 162.725 164.685 162.634 164.685C162.542 164.685 162.453 164.707 162.371 164.748L159.067 166.642C158.924 166.724 158.938 166.854 159.067 166.942L162.869 169.136C162.957 169.187 163.057 169.212 163.159 169.211C163.261 169.21 163.361 169.182 163.448 169.129L163.414 169.143ZM184.63 156.58C184.711 156.62 184.801 156.641 184.892 156.641C184.983 156.641 185.073 156.62 185.154 156.58L188.445 154.686C188.581 154.604 188.574 154.468 188.445 154.379L184.643 152.185C184.562 152.145 184.472 152.124 184.381 152.124C184.29 152.124 184.2 152.145 184.119 152.185L180.835 154.086C180.692 154.168 180.699 154.304 180.835 154.386L184.63 156.58ZM139.391 182.994L142.675 181.1C142.818 181.018 142.811 180.882 142.675 180.793L138.873 178.599C138.792 178.559 138.702 178.538 138.611 178.538C138.52 178.538 138.43 178.559 138.349 178.599L135.058 180.493C134.922 180.575 134.929 180.711 135.058 180.8L138.86 182.994C138.942 183.035 139.033 183.057 139.125 183.057C139.218 183.057 139.309 183.035 139.391 182.994ZM144.194 180.221L147.485 178.327C147.621 178.245 147.614 178.109 147.485 178.02L143.69 175.826C143.609 175.785 143.519 175.763 143.428 175.763C143.337 175.763 143.247 175.785 143.166 175.826L139.875 177.72C139.739 177.802 139.745 177.938 139.875 178.027L143.676 180.221C143.757 180.26 143.846 180.28 143.935 180.28C144.025 180.28 144.114 180.26 144.194 180.221ZM134.588 185.767L137.872 183.873C138.015 183.791 138.008 183.655 137.872 183.566L134.077 181.372C133.995 181.332 133.906 181.311 133.815 181.311C133.724 181.311 133.634 181.332 133.552 181.372L130.262 183.266C130.125 183.348 130.132 183.484 130.262 183.573L134.063 185.767C134.144 185.808 134.234 185.83 134.326 185.83C134.417 185.83 134.507 185.808 134.588 185.767ZM153.801 174.675L157.091 172.781C157.228 172.699 157.221 172.563 157.091 172.474L153.29 170.281C153.208 170.24 153.118 170.219 153.027 170.219C152.936 170.219 152.847 170.24 152.765 170.281L149.481 172.181C149.338 172.263 149.345 172.399 149.481 172.481L153.283 174.675C153.363 174.716 153.452 174.737 153.542 174.737C153.632 174.737 153.72 174.716 153.801 174.675ZM149.032 177.448L152.322 175.554C152.458 175.472 152.452 175.336 152.322 175.247L148.459 173.054C148.378 173.012 148.288 172.99 148.197 172.99C148.106 172.99 148.016 173.012 147.935 173.054L144.651 174.948C144.508 175.029 144.514 175.166 144.651 175.247L148.452 177.448C148.537 177.492 148.63 177.514 148.725 177.514C148.82 177.514 148.913 177.492 148.997 177.448H149.032ZM158.638 171.902L161.929 170.001C162.065 169.926 162.058 169.79 161.929 169.702L158.127 167.508C158.046 167.466 157.956 167.444 157.865 167.444C157.773 167.444 157.683 167.466 157.602 167.508L154.264 169.368C154.121 169.449 154.134 169.586 154.264 169.667L158.059 171.861C158.139 171.913 158.231 171.944 158.326 171.951C158.421 171.958 158.517 171.941 158.604 171.902H158.638ZM180.617 130.867C180.698 130.909 180.788 130.931 180.879 130.931C180.97 130.931 181.06 130.909 181.141 130.867L184.432 128.966C184.568 128.891 184.561 128.755 184.432 128.667L183.424 128.081C183.342 128.04 183.252 128.02 183.161 128.02C183.07 128.02 182.981 128.04 182.899 128.081L179.608 129.975C179.472 130.056 179.479 130.193 179.608 130.281L180.617 130.867ZM156.982 146.128C157.063 146.17 157.153 146.192 157.245 146.192C157.336 146.192 157.426 146.17 157.507 146.128L160.791 144.234C160.934 144.153 160.927 144.016 160.791 143.928L156.989 141.734C156.908 141.694 156.818 141.673 156.727 141.673C156.636 141.673 156.546 141.694 156.465 141.734L153.174 143.628C153.038 143.71 153.044 143.846 153.174 143.935L156.982 146.128ZM166.589 140.583C166.67 140.623 166.76 140.644 166.851 140.644C166.942 140.644 167.032 140.623 167.113 140.583L170.404 138.689C170.54 138.607 170.533 138.471 170.404 138.382L166.602 136.188C166.521 136.146 166.431 136.125 166.34 136.125C166.249 136.125 166.159 136.146 166.078 136.188L162.767 138.082C162.624 138.164 162.63 138.3 162.767 138.389L166.589 140.583ZM151.116 149.514C151.198 149.555 151.288 149.576 151.379 149.576C151.47 149.576 151.559 149.555 151.641 149.514L154.925 147.614C155.068 147.532 155.061 147.396 154.925 147.314L151.123 145.113C151.042 145.073 150.952 145.052 150.861 145.052C150.77 145.052 150.68 145.073 150.599 145.113L147.308 147.007C147.172 147.089 147.178 147.225 147.308 147.314L151.116 149.514ZM161.786 143.383C161.867 143.423 161.957 143.444 162.048 143.444C162.139 143.444 162.229 143.423 162.31 143.383L165.601 141.489C165.737 141.407 165.73 141.271 165.601 141.182L161.799 138.988C161.718 138.948 161.628 138.927 161.537 138.927C161.446 138.927 161.356 138.948 161.275 138.988L157.991 140.882C157.848 140.964 157.854 141.1 157.991 141.189L161.786 143.383ZM141.476 155.06C141.557 155.102 141.647 155.124 141.738 155.124C141.829 155.124 141.919 155.102 142 155.06L145.284 153.159C145.427 153.078 145.414 152.941 145.284 152.86L141.49 150.666C141.408 150.624 141.318 150.602 141.227 150.602C141.136 150.602 141.046 150.624 140.965 150.666L137.674 152.567C137.538 152.642 137.545 152.778 137.674 152.867L141.476 155.06ZM146.279 152.287C146.361 152.328 146.45 152.349 146.541 152.349C146.632 152.349 146.722 152.328 146.804 152.287L150.088 150.387C150.231 150.305 150.224 150.169 150.088 150.087L146.293 147.893C146.212 147.851 146.122 147.829 146.03 147.829C145.939 147.829 145.849 147.851 145.768 147.893L142.477 149.794C142.341 149.869 142.348 150.005 142.477 150.094L146.279 152.287ZM170.976 136.42C171.058 136.46 171.148 136.481 171.239 136.481C171.33 136.481 171.419 136.46 171.501 136.42L174.792 134.526C174.928 134.444 174.921 134.308 174.792 134.219L173.776 133.633C173.695 133.593 173.605 133.572 173.514 133.572C173.423 133.572 173.333 133.593 173.252 133.633L169.968 135.527C169.825 135.609 169.839 135.745 169.968 135.834L170.976 136.42ZM185.393 128.094C185.473 128.136 185.561 128.158 185.652 128.158C185.742 128.158 185.831 128.136 185.91 128.094L189.201 126.193C189.337 126.112 189.331 125.982 189.201 125.894L188.193 125.308C188.112 125.266 188.022 125.244 187.931 125.244C187.839 125.244 187.749 125.266 187.668 125.308L184.378 127.202C184.241 127.284 184.248 127.42 184.378 127.508L185.393 128.094ZM193.371 132.707C193.452 132.747 193.542 132.768 193.633 132.768C193.724 132.768 193.814 132.747 193.895 132.707L197.186 130.806C197.322 130.724 197.315 130.588 197.186 130.506L193.384 128.306C193.303 128.265 193.213 128.244 193.122 128.244C193.031 128.244 192.941 128.265 192.86 128.306L189.576 130.2C189.433 130.281 189.446 130.418 189.576 130.506L193.371 132.707ZM205.382 144.895L208.673 142.994C208.809 142.919 208.802 142.783 208.673 142.695L204.871 140.501C204.79 140.461 204.7 140.44 204.609 140.44C204.518 140.44 204.428 140.461 204.347 140.501L201.063 142.402C200.92 142.483 200.926 142.62 201.063 142.701L204.864 144.895C204.945 144.936 205.033 144.957 205.123 144.957C205.213 144.957 205.302 144.936 205.382 144.895ZM175.78 133.647C175.861 133.687 175.951 133.708 176.042 133.708C176.133 133.708 176.223 133.687 176.304 133.647L179.595 131.753C179.731 131.671 179.724 131.535 179.595 131.446L178.58 130.86C178.498 130.82 178.408 130.799 178.317 130.799C178.226 130.799 178.137 130.82 178.055 130.86L174.771 132.754C174.635 132.836 174.642 132.972 174.771 133.061L175.78 133.647ZM136.673 157.833C136.754 157.875 136.844 157.897 136.935 157.897C137.026 157.897 137.116 157.875 137.197 157.833L140.481 155.932C140.617 155.851 140.611 155.721 140.481 155.633L136.68 153.439C136.598 153.397 136.508 153.375 136.417 153.375C136.326 153.375 136.236 153.397 136.155 153.439L132.871 155.34C132.735 155.421 132.742 155.551 132.871 155.639L136.673 157.833Z" fill="#455A64"/>
<path d="M156.203 187.695L192.176 166.922L214.318 179.703L178.339 200.476L156.203 187.695Z" fill="#263238"/>
<path d="M76.2418 83.0201L183.452 21.1237C185.543 19.911 187.26 20.9057 187.26 23.3243V106.355C187.226 106.969 187.048 107.566 186.74 108.099C186.432 108.631 186.004 109.084 185.489 109.421L75.5605 172.891C74.5862 173.449 73.7891 172.993 73.7891 171.869V87.2646C73.838 86.4147 74.0854 85.5881 74.5113 84.851C74.9372 84.114 75.5299 83.4869 76.2418 83.0201Z" fill="#F5F5F5"/>
<path d="M187.294 25.3136V23.3242C187.294 20.9056 185.577 19.9177 183.486 21.1236L76.2418 83.02C75.5299 83.4868 74.9372 84.1139 74.5113 84.851C74.0854 85.5881 73.838 86.4147 73.7891 87.2646V90.8278L187.294 25.3136Z" fill="#E7142D"/>
<path d="M171.299 29.8441C170.917 30.0932 170.598 30.4291 170.37 30.8245C170.141 31.2199 170.009 31.6636 169.984 32.1196C169.984 32.9576 170.57 33.2983 171.299 32.8759C171.681 32.6275 171.998 32.2925 172.225 31.8983C172.453 31.504 172.583 31.0616 172.607 30.6071C172.607 29.7691 172.021 29.4285 171.299 29.8441Z" fill="white"/>
<path d="M176.503 26.8397C176.122 27.0895 175.805 27.4258 175.577 27.8211C175.35 28.2165 175.219 28.6598 175.195 29.1152C175.195 29.9532 175.781 30.2871 176.503 29.8715C176.886 29.6224 177.205 29.2864 177.433 28.891C177.662 28.4956 177.794 28.0519 177.818 27.5959C177.818 26.7579 177.232 26.4173 176.503 26.8397Z" fill="white"/>
<path d="M181.713 23.8284C181.332 24.0788 181.014 24.4149 180.786 24.8101C180.557 25.2053 180.425 25.6484 180.398 26.104C180.398 26.942 180.991 27.2827 181.713 26.8603C182.096 26.6122 182.414 26.2775 182.642 25.8833C182.871 25.489 183.003 25.0465 183.028 24.5915C183.028 23.7535 182.436 23.4129 181.713 23.8284Z" fill="white"/>
<path d="M100.257 131.479L96.0859 129.07L85.8698 146.765L90.0413 149.174L100.257 131.479Z" fill="#37474F"/>
<path d="M100.27 131.474L98.1875 130.271L87.9714 147.966L90.0541 149.169L100.27 131.474Z" fill="#263238"/>
<path d="M74.6734 181.319C72.7725 184.623 63.7725 179.377 65.6665 176.12L89.1374 139.514C89.2006 139.415 89.2997 139.344 89.4139 139.316C89.5282 139.288 89.6488 139.305 89.7506 139.364L94.4652 142.089C94.5667 142.147 94.642 142.241 94.675 142.353C94.7081 142.465 94.6964 142.585 94.6424 142.689L74.6734 181.319Z" fill="#E7142D"/>
<path opacity="0.1" d="M74.6757 181.319L94.6379 142.689C94.6919 142.586 94.7036 142.465 94.6706 142.354C94.6375 142.242 94.5623 142.147 94.4608 142.09L92.3147 140.85L69.4297 181.53C71.5145 182.559 73.8173 182.811 74.6757 181.319Z" fill="black"/>
<path d="M143.69 95.1405C143.69 94.8612 143.69 94.5886 143.65 94.3161C143.609 94.0436 143.65 93.7779 143.588 93.5122C143.527 93.2465 143.588 93.1579 143.534 92.9808C143.486 92.5175 143.418 92.061 143.343 91.6182C143.309 91.4206 143.275 91.2162 143.234 91.0186C143.193 90.821 143.159 90.6439 143.118 90.4599C143.002 89.9558 142.88 89.4652 142.737 88.9951C142.662 88.7703 142.594 88.5455 142.519 88.3138C142.504 88.2809 142.493 88.2467 142.485 88.2117C142.403 87.9936 142.328 87.7824 142.246 87.578C142.164 87.3736 142.055 87.1011 141.946 86.8967C141.837 86.6923 141.796 86.5629 141.708 86.3994C141.658 86.2767 141.599 86.1582 141.531 86.0451C141.463 85.902 141.388 85.759 141.306 85.6227C141.224 85.4864 141.272 85.5546 141.251 85.5273C141.231 85.5001 141.108 85.282 141.033 85.1594C140.958 85.0368 140.931 85.0027 140.883 84.9278C140.534 84.3778 140.143 83.8561 139.712 83.3676L139.494 83.1223L139.31 82.9316C139.235 82.8498 139.153 82.7748 139.071 82.6931C138.857 82.4682 138.63 82.2566 138.39 82.0595C138.274 81.9573 138.151 81.8619 138.029 81.7733L137.654 81.5008C137.459 81.3581 137.257 81.2262 137.048 81.1057L136.884 81.0035H136.85L127.196 75.4304L127.142 75.3963C125.289 74.3634 123.199 73.8348 121.078 73.8634C117.917 73.8634 114.347 74.899 110.565 77.0791C97.5798 84.5735 87.0469 102.819 87.0469 117.821C87.0469 125.315 89.6631 130.561 93.894 133.028H93.9349L103.596 138.594H103.637L103.752 138.655C103.934 138.762 104.12 138.86 104.311 138.948C104.543 139.064 104.781 139.166 104.992 139.262C105.204 139.357 105.422 139.432 105.64 139.5L105.987 139.602C106.109 139.649 106.234 139.685 106.362 139.711C106.487 139.75 106.615 139.781 106.743 139.807C106.835 139.834 106.928 139.854 107.023 139.868C107.186 139.902 107.363 139.936 107.534 139.957C107.572 139.963 107.611 139.963 107.649 139.957C107.854 139.993 108.058 140.02 108.263 140.038C111.765 140.406 115.839 139.418 120.199 136.904C133.192 129.41 143.724 111.158 143.724 96.1625C143.69 95.8491 143.69 95.4948 143.69 95.1405ZM127.932 84.5326C128.442 86.3969 128.692 88.3228 128.675 90.2556C128.675 103.486 118.993 120.233 107.554 126.869C105.882 127.863 104.076 128.613 102.192 129.097C101.685 127.229 101.435 125.302 101.45 123.367C101.45 110.136 111.131 93.3896 122.57 86.7537C124.236 85.7633 126.034 85.0155 127.911 84.5326H127.932Z" fill="#E7142D"/>
<path opacity="0.1" d="M103.197 138.403L93.8158 132.993C89.585 130.52 86.9688 125.261 86.9688 117.794C86.9688 111.103 89.0672 103.772 92.535 97.041L102.196 102.6C98.7212 109.332 96.6296 116.663 96.6296 123.353C96.6296 130.684 99.1232 135.868 103.197 138.403Z" fill="black"/>
<path opacity="0.4" d="M143.691 95.1409C143.691 94.8615 143.691 94.589 143.65 94.3165C143.609 94.044 143.65 93.7782 143.588 93.5125C143.527 93.2468 143.588 93.1583 143.534 92.9811C143.486 92.5178 143.418 92.0614 143.343 91.6185C143.309 91.4209 143.275 91.2165 143.234 91.019C143.193 90.8214 143.159 90.6442 143.118 90.4603C143.002 89.9561 142.88 89.4656 142.737 88.9955C142.662 88.7707 142.594 88.5458 142.519 88.3142C142.504 88.2812 142.493 88.247 142.485 88.212C142.403 87.994 142.328 87.7828 142.246 87.5784C142.164 87.374 142.055 87.1015 141.946 86.8971C141.837 86.6927 141.797 86.5632 141.708 86.3997C141.659 86.2771 141.599 86.1586 141.531 86.0455C141.463 85.9024 141.388 85.7593 141.306 85.623C141.224 85.4868 141.272 85.5549 141.252 85.5277C141.231 85.5004 141.108 85.2824 141.034 85.1598C140.959 85.0371 140.931 85.0031 140.884 84.9281C140.535 84.3782 140.143 83.8565 139.712 83.3679L139.494 83.1227L139.31 82.9319C139.235 82.8501 139.153 82.7752 139.071 82.6934C138.857 82.4686 138.63 82.257 138.39 82.0598C138.274 81.9576 138.152 81.8622 138.029 81.7737L137.654 81.5012C137.46 81.3584 137.257 81.2265 137.048 81.106C132.776 78.5102 126.828 78.8168 120.213 82.6253C107.22 90.1196 96.6875 108.365 96.6875 123.367C96.6875 130.964 99.4127 136.271 103.739 138.683C103.92 138.79 104.107 138.888 104.298 138.976C104.529 139.092 104.768 139.194 104.979 139.289C105.19 139.385 105.408 139.46 105.626 139.528L105.974 139.63C106.095 139.677 106.221 139.713 106.348 139.739C106.474 139.777 106.601 139.809 106.73 139.834C106.821 139.861 106.915 139.882 107.009 139.896C107.173 139.93 107.35 139.964 107.52 139.984C107.559 139.991 107.598 139.991 107.636 139.984C107.84 140.021 108.045 140.048 108.249 140.066C111.751 140.434 115.825 139.446 120.186 136.932C133.178 129.438 143.711 111.186 143.711 96.1901C143.691 95.8494 143.691 95.4951 143.691 95.1409ZM117.801 132.824C114.885 134.507 112.078 135.392 109.68 135.392C105.177 135.392 103.105 132.32 102.186 129.097C101.678 127.23 101.428 125.302 101.443 123.367C101.443 110.136 111.124 93.3899 122.563 86.754C124.236 85.7619 126.041 85.014 127.925 84.533C128.817 84.312 129.732 84.1954 130.65 84.1855C138.097 84.1855 138.894 92.5928 138.894 96.2105C138.921 109.414 129.24 126.208 117.801 132.824Z" fill="white"/>
<path opacity="0.1" d="M138.923 96.2105C138.923 109.441 129.249 126.188 117.803 132.824C114.887 134.507 112.08 135.392 109.682 135.392C105.178 135.392 103.107 132.32 102.188 129.097C104.072 128.613 105.877 127.863 107.549 126.869C119.009 120.254 128.67 103.487 128.67 90.256C128.687 88.3232 128.437 86.3973 127.927 84.533C128.819 84.312 129.734 84.1954 130.652 84.1855C138.119 84.206 138.923 92.5928 138.923 96.2105Z" fill="black"/>
<path opacity="0.7" d="M134.831 93.901C134.831 107.132 125.156 123.878 113.71 130.514C110.794 132.197 107.987 133.083 105.589 133.083C105.112 133.084 104.636 133.045 104.165 132.967C103.245 131.829 102.574 130.511 102.196 129.097C101.689 127.23 101.439 125.302 101.454 123.367C101.454 110.136 111.135 93.39 122.574 86.7541C124.246 85.762 126.052 85.014 127.936 84.533C128.828 84.312 129.742 84.1954 130.661 84.1856C131.141 84.1844 131.619 84.2231 132.092 84.3014C134.449 87.0743 134.831 91.5232 134.831 93.901Z" fill="white"/>
<path d="M151.297 80.1175V95.2016C151.297 96.3325 152.094 96.789 153.068 96.2235L251.925 39.1507C252.44 38.8143 252.869 38.3615 253.176 37.8289C253.484 37.2964 253.662 36.699 253.697 36.0849V20.9804C253.697 19.8494 252.9 19.3929 251.925 19.9584L153.068 77.0312C152.551 77.3701 152.121 77.8262 151.813 78.3624C151.506 78.8987 151.329 79.5 151.297 80.1175Z" fill="#E6E6E6"/>
<path d="M153.068 77.0313L170.673 66.873V86.0449L153.068 96.2032C152.094 96.7686 151.297 96.3122 151.297 95.1812V80.1176C151.329 79.5001 151.506 78.8988 151.813 78.3625C152.121 77.8263 152.551 77.3702 153.068 77.0313Z" fill="#E7142D"/>
<path d="M164.848 75.2395C163.737 74.5991 162.334 74.7013 160.896 75.5325C159.53 76.4077 158.394 77.5974 157.582 79.002C156.77 80.4067 156.306 81.9853 156.23 83.6059C156.181 84.6562 156.513 85.6888 157.163 86.5151L155.269 89.7581C155.146 89.9901 155.116 90.2606 155.185 90.5139C155.255 90.7673 155.419 90.9844 155.644 91.1207C155.8 91.2085 155.975 91.2553 156.155 91.257C156.334 91.2571 156.51 91.2099 156.666 91.1202C156.821 91.0305 156.951 90.9015 157.04 90.746L158.914 87.503C159.116 87.5409 159.321 87.5614 159.527 87.5643C160.363 87.5491 161.181 87.3141 161.898 86.883C163.262 86.0058 164.396 84.8154 165.207 83.4111C166.017 82.0068 166.481 80.4292 166.558 78.8096C166.579 77.154 165.965 75.8868 164.848 75.2395ZM160.896 85.1184C160.657 85.3759 160.338 85.5446 159.99 85.5969C159.642 85.6492 159.287 85.5821 158.983 85.4065C158.678 85.2309 158.442 84.9572 158.313 84.6302C158.185 84.3031 158.17 83.942 158.273 83.6059C158.353 82.3453 158.723 81.1202 159.356 80.0268C159.988 78.9334 160.865 78.0014 161.918 77.3039C162.327 77.0437 162.797 76.8956 163.281 76.8747C163.481 76.8671 163.679 76.9142 163.853 77.0109C164.11 77.2301 164.307 77.5106 164.426 77.8262C164.545 78.1418 164.582 78.4824 164.535 78.8164C164.456 80.0764 164.087 81.3011 163.455 82.3945C162.824 83.4879 161.948 84.4202 160.896 85.1184Z" fill="white"/>
</svg>
