<svg width="683" height="111" viewBox="0 0 683 111" fill="none" xmlns="http://www.w3.org/2000/svg">
<path d="M60.2041 81.0215C60.2041 76.8711 58.7393 73.6973 55.8096 71.5C52.8799 69.2539 47.6064 66.9102 39.9893 64.4688C32.3721 61.9785 26.3418 59.5371 21.8984 57.1445C9.78906 50.6016 3.73438 41.7881 3.73438 30.7041C3.73438 24.9424 5.3457 19.8154 8.56836 15.3232C11.8398 10.7822 16.5029 7.24219 22.5576 4.70312C28.6611 2.16406 35.4971 0.894531 43.0654 0.894531C50.6826 0.894531 57.4697 2.28613 63.4268 5.06934C69.3838 7.80371 73.998 11.6855 77.2695 16.7148C80.5898 21.7441 82.25 27.457 82.25 33.8535H60.2773C60.2773 28.9707 58.7393 25.1865 55.6631 22.501C52.5869 19.7666 48.2656 18.3994 42.6992 18.3994C37.3281 18.3994 33.1533 19.5469 30.1748 21.8418C27.1963 24.0879 25.707 27.0664 25.707 30.7773C25.707 34.2441 27.4404 37.1494 30.9072 39.4932C34.4229 41.8369 39.5742 44.0342 46.3613 46.085C58.8613 49.8447 67.9678 54.5078 73.6807 60.0742C79.3936 65.6406 82.25 72.5742 82.25 80.875C82.25 90.1035 78.7588 97.3545 71.7764 102.628C64.7939 107.853 55.3945 110.465 43.5781 110.465C35.375 110.465 27.9043 108.976 21.166 105.997C14.4277 102.97 9.27637 98.8438 5.71191 93.6191C2.19629 88.3945 0.438477 82.3398 0.438477 75.4551H22.4844C22.4844 87.2227 29.5156 93.1064 43.5781 93.1064C48.8027 93.1064 52.8799 92.0566 55.8096 89.957C58.7393 87.8086 60.2041 84.8301 60.2041 81.0215ZM136.004 68.6436C136.004 60.7822 137.518 53.7754 140.545 47.623C143.572 41.4707 147.918 36.71 153.582 33.3408C159.295 29.9717 165.911 28.2871 173.431 28.2871C184.124 28.2871 192.84 31.5586 199.578 38.1016C206.365 44.6445 210.149 53.5312 210.931 64.7617L211.077 70.1816C211.077 82.3398 207.684 92.1055 200.896 99.4785C194.109 106.803 185.003 110.465 173.577 110.465C162.151 110.465 153.021 106.803 146.185 99.4785C139.397 92.1543 136.004 82.1934 136.004 69.5957V68.6436ZM157.171 70.1816C157.171 77.7012 158.587 83.4629 161.419 87.4668C164.251 91.4219 168.304 93.3994 173.577 93.3994C178.704 93.3994 182.708 91.4463 185.589 87.54C188.47 83.585 189.91 77.2861 189.91 68.6436C189.91 61.2705 188.47 55.5576 185.589 51.5049C182.708 47.4521 178.655 45.4258 173.431 45.4258C168.255 45.4258 164.251 47.4521 161.419 51.5049C158.587 55.5088 157.171 61.7344 157.171 70.1816ZM315.075 100.943C309.851 107.291 302.624 110.465 293.396 110.465C284.899 110.465 278.405 108.023 273.913 103.141C269.47 98.2578 267.199 91.1045 267.102 81.6807V29.752H288.269V80.9482C288.269 89.2002 292.028 93.3262 299.548 93.3262C306.726 93.3262 311.657 90.8359 314.343 85.8555V29.752H335.583V109H315.661L315.075 100.943ZM439.581 49.6006C436.7 49.21 434.161 49.0146 431.964 49.0146C423.956 49.0146 418.707 51.7246 416.217 57.1445V109H395.05V29.752H415.045L415.631 39.2002C419.879 31.9248 425.763 28.2871 433.282 28.2871C435.626 28.2871 437.823 28.6045 439.874 29.2393L439.581 49.6006ZM524.829 93.3994C528.735 93.3994 531.909 92.3252 534.351 90.1768C536.792 88.0283 538.062 85.1719 538.159 81.6074H558.008C557.959 86.9785 556.494 91.9102 553.613 96.4023C550.732 100.846 546.777 104.312 541.748 106.803C536.768 109.244 531.25 110.465 525.195 110.465C513.867 110.465 504.932 106.876 498.389 99.6982C491.846 92.4717 488.574 82.5107 488.574 69.8154V68.4238C488.574 56.2168 491.821 46.4756 498.315 39.2002C504.81 31.9248 513.721 28.2871 525.049 28.2871C534.961 28.2871 542.896 31.1191 548.853 36.7832C554.858 42.3984 557.91 49.8936 558.008 59.2686H538.159C538.062 55.167 536.792 51.8467 534.351 49.3076C531.909 46.7197 528.687 45.4258 524.683 45.4258C519.751 45.4258 516.016 47.2324 513.477 50.8457C510.986 54.4102 509.741 60.2207 509.741 68.2773V70.4746C509.741 78.6289 510.986 84.4883 513.477 88.0527C515.967 91.6172 519.751 93.3994 524.829 93.3994ZM650.067 110.465C638.446 110.465 628.974 106.9 621.649 99.7715C614.374 92.6426 610.736 83.1455 610.736 71.2803V69.2295C610.736 61.2705 612.274 54.166 615.351 47.916C618.427 41.6172 622.772 36.7832 628.388 33.4141C634.052 29.9961 640.497 28.2871 647.724 28.2871C658.563 28.2871 667.084 31.7051 673.285 38.541C679.535 45.377 682.66 55.0693 682.66 67.6182V76.2607H632.196C632.88 81.4365 634.931 85.5869 638.349 88.7119C641.815 91.8369 646.186 93.3994 651.459 93.3994C659.613 93.3994 665.985 90.4453 670.575 84.5371L680.976 96.1826C677.802 100.675 673.505 104.19 668.085 106.729C662.665 109.22 656.659 110.465 650.067 110.465ZM647.65 45.4258C643.451 45.4258 640.033 46.8418 637.396 49.6738C634.809 52.5059 633.148 56.5586 632.416 61.832H661.859V60.1475C661.762 55.46 660.492 51.8467 658.051 49.3076C655.609 46.7197 652.143 45.4258 647.65 45.4258Z" fill="url(#paint0_linear_2_45)"/>
<defs>
<linearGradient id="paint0_linear_2_45" x1="348.5" y1="-51" x2="348.5" y2="216" gradientUnits="userSpaceOnUse">
<stop offset="0.143274" stop-color="white"/>
<stop offset="0.645058" stop-color="white" stop-opacity="0"/>
</linearGradient>
</defs>
</svg>
