<svg width="240" height="56" viewBox="0 0 240 56" fill="none" xmlns="http://www.w3.org/2000/svg">
<g clip-path="url(#clip0_1202_6386)">
<path d="M34.0623 10.5H41.1011C41.1011 10.5 45.3582 11.5338 45.7555 15.0733V27.7023L26.2337 15.0733H16.13C16.13 15.0733 13.9145 15.2353 13.8002 17.1932V20.5279C13.9531 21.2189 14.3808 21.8255 14.9924 22.2191L37.5842 37.0775H29.4625L11.8083 25.4299C11.8083 25.4299 9.25507 24.0007 9.25507 22.2715V15.6688C9.25507 15.6688 9.14082 10.9335 14.5354 10.5H27.5053L41.3246 19.6466L41.2104 15.7783C41.2104 15.7783 39.7202 13.2773 34.0573 10.7191" fill="white"/>
<path d="M20.7841 45.4999H13.7453C13.7453 45.4999 9.48821 44.4661 9.09082 40.9266V28.2976L28.6127 40.9266H38.7164C38.7164 40.9266 40.9319 40.7646 41.0461 38.8067V35.472C40.8932 34.781 40.4656 34.1744 39.854 33.7808L17.2622 18.9224H25.3789L43.0331 30.57C43.0331 30.57 45.5863 31.9991 45.5863 33.7284V40.3168C45.5863 40.3168 45.7006 45.0521 40.306 45.4856H27.3361L13.5168 36.3581L13.631 40.2215C13.631 40.2215 15.1213 42.7226 20.7841 45.2807" fill="white"/>
<path d="M59.6091 23.6959H61.7948L60.543 25.8253C60.4151 26.0541 60.2208 26.2424 59.9837 26.3675C59.7466 26.4926 59.4767 26.5492 59.2068 26.5304H56.584V25.1012H58.3623C58.4833 25.1063 58.6034 25.0786 58.7089 25.0213C58.8143 24.964 58.9007 24.8795 58.9584 24.7773L59.6091 23.6959ZM72.2859 12.4389V13.9919H65.5948V15.1876H72.2114V18.1793H70.2592V16.7502H58.8342V18.1793H56.882V15.1876H63.5036V13.9919H56.882V12.4389H63.5036V11.2241H65.5948V12.4389H72.2859ZM63.5731 23.0194H58.3623V21.5903L59.6638 20.0372H58.9087V18.3651L60.6821 17.1313H62.9373L61.159 18.5604H68.2077C68.3369 18.5604 68.4014 18.5223 68.4014 18.4413L68.0686 17.4886H69.8817L70.2493 18.3651C70.2858 18.4217 70.3095 18.485 70.3189 18.5509V19.3084C70.3189 19.7848 69.9364 20.0372 69.1764 20.0372H61.9686L60.6821 21.4664H68.8535C68.9926 21.4664 69.0621 21.4283 69.0621 21.3521L68.7094 20.2516H70.5424L70.8951 21.2663C70.8951 21.2663 70.9298 21.3568 70.9646 21.4664V22.262C70.9646 22.7669 70.5821 23.0194 69.8171 23.0194H65.4558V26.9543H63.5731V23.0194ZM67.2341 23.6959H69.3949L69.9264 24.7916C69.9819 24.8998 70.0708 24.9889 70.181 25.0469C70.2912 25.1049 70.4174 25.1288 70.5424 25.1155H72.6784V26.5447H69.4198C69.192 26.5282 68.9728 26.4543 68.7844 26.3305C68.596 26.2067 68.445 26.0374 68.3468 25.8396L67.2341 23.6959Z" fill="white"/>
<path d="M92.4791 11.6099V13.1819H85.2813V14.6873H89.2056L88.679 13.6583H90.6312L91.0385 14.3872C91.0759 14.4657 91.1385 14.5307 91.2172 14.5727C91.2958 14.6147 91.3864 14.6315 91.4757 14.6206H92.4692V15.9545H91.6247V26.2349C91.6247 26.7303 91.267 26.978 90.5517 26.978H88.7386V25.6966H89.5136C89.6874 25.6966 89.7768 25.6251 89.7768 25.4917V25.2726H88.5995L87.8594 24.4484L86.6772 25.8776H85.2714V26.9733H83.5278V25.9443H82.0376L81.2627 24.8295L80.3437 25.9443H79.077V26.9733H77.249V16.0164H76.1016V14.6873H76.7523C76.8415 14.6904 76.9297 14.6681 77.0058 14.6231C77.0818 14.5782 77.1422 14.5127 77.1795 14.4348L77.6514 13.6583H79.6384L79.0522 14.6873H83.5229V13.2058H76.2705V11.6337L92.4791 11.6099ZM83.5378 17.0311V16.1498H79.1019V20.8803L80.6368 18.9748L79.226 17.0359H80.915L81.516 17.86L82.1817 17.0359L83.5378 17.0311ZM79.1019 25.4012L80.5126 23.6815L79.1019 21.6521V25.4012ZM81.4813 22.5143L82.4747 21.2852H82.3356L81.4713 20.099L80.8256 20.8803C80.7236 20.9666 80.6567 21.0847 80.6368 21.2138C80.6679 21.3629 80.7459 21.4992 80.8603 21.6044L81.4813 22.5143ZM83.5378 25.5346V22.0427L82.2363 23.6291L83.5378 25.5346ZM83.5378 20.6231V17.5456L82.3406 19.0129L83.5378 20.6231ZM85.2813 16.1498V20.8803L86.9007 18.9176L85.49 17.0121H87.1292L87.7451 17.8553L88.4505 17.0121H89.7868V16.1308L85.2813 16.1498ZM85.2813 21.5377V25.4536L86.9355 23.4099L85.3161 21.5854C85.3069 21.568 85.2952 21.5519 85.2813 21.5377ZM87.7253 20.0181L87.0398 20.8803C86.9304 20.9636 86.8563 21.0821 86.8311 21.2138C86.8311 21.2948 86.9206 21.4043 87.0944 21.552L87.7998 22.3476L88.679 21.2852L87.7253 20.0181ZM89.7868 17.5504L88.5896 18.9795L89.7868 20.585V17.5504ZM89.7868 22.057L88.7138 23.3909L89.7868 24.6104V22.057Z" fill="white"/>
<path d="M97.5154 23.6958H99.5024L98.5089 25.9253C98.4454 26.1416 98.3092 26.3317 98.1215 26.4661C97.9337 26.6005 97.7049 26.6716 97.4707 26.6685H95.9805V25.2393H96.7504C96.9293 25.2393 97.0584 25.1202 97.1379 24.8868L97.5154 23.6958ZM104.276 12.2626V13.7489H103.377V21.3711H104.718V22.9908H96.0947V21.3711H97.2372V13.7489H96.3033V12.3055H97.2372V11.2908H99.0056V12.3055H101.628V11.2908H103.387V12.3055L104.276 12.2626ZM99.0056 15.4067H101.628V13.7727H99.0056V15.4067ZM99.0056 18.4461H101.628V16.8264H99.0056V18.4461ZM99.0056 21.3997H101.628V19.799H99.0056V21.3997ZM100.923 23.6958H102.88L103.377 25.0631C103.437 25.2441 103.526 25.3346 103.655 25.3346H104.097V24.5057H104.733C105.096 24.5057 105.274 24.439 105.274 24.3056V12.2197H109.641C109.984 12.2197 110.138 11.9482 110.138 11.4099H112.02V12.3626C112.02 13.2868 111.48 13.7489 110.401 13.7489H107.038V16.2642H112.318V17.7982H110.768V26.9305H108.921V17.822H107.038V24.7248C107.038 25.6776 106.41 26.154 105.155 26.154H104.415V26.678H102.925C102.671 26.704 102.416 26.6464 102.201 26.5148C101.986 26.3832 101.825 26.1854 101.743 25.9539L100.923 23.6958Z" fill="white"/>
<path d="M116.625 18.0221H118.03L117.628 25.1679C117.634 25.5481 117.503 25.9186 117.256 26.2159C117.138 26.3298 116.998 26.4201 116.844 26.4814C116.689 26.5428 116.524 26.574 116.356 26.5732H115.726V25.0869H115.85C116.093 25.0869 116.227 24.9011 116.237 24.5295L116.625 18.0221ZM121.2 11.5385H122.819C122.834 12.1181 122.681 12.6904 122.377 13.1915C122.252 13.3381 122.093 13.4543 121.913 13.5305C121.732 13.6067 121.536 13.6407 121.339 13.6298H120.231V15.2686H122.978V16.7549H120.231V26.9495H118.542V16.7549H115.989V15.2686H118.542V13.6298H116.217V12.2007H120.728C120.946 12.2197 121.105 11.9958 121.2 11.5433V11.5385ZM120.494 18.0888H121.905L122.536 24.7201C122.586 25.0249 122.7 25.1964 122.889 25.1964H123.261V26.5446H122.044C121.518 26.5446 121.21 26.1683 121.13 25.4156L120.494 18.0888ZM132.133 22.2047V23.8245L130.643 23.9102V26.8829H128.656V23.996L123.192 24.2294V22.6287L128.656 22.3572V11.4766H130.643V22.281L132.133 22.2047ZM123.38 12.2007H125.367L125.998 13.9061C126.048 14.1634 126.182 14.292 126.406 14.292H127.692V15.9117H125.437C125.167 15.9269 124.901 15.8457 124.69 15.6838C124.479 15.522 124.338 15.2909 124.294 15.0352L123.38 12.2007ZM123.524 16.874H125.511L126.078 18.5461C126.122 18.8272 126.256 18.9701 126.48 18.9701H127.623V20.5898H125.511C125.241 20.6038 124.975 20.5215 124.764 20.3589C124.553 20.1962 124.413 19.9646 124.369 19.7085L123.524 16.874Z" fill="white"/>
<path d="M142.172 12.9629V14.5969H140.394V16.8931H141.884V18.4985H140.394V25.1155C140.406 25.5463 140.24 25.9643 139.932 26.2779C139.79 26.4131 139.619 26.5178 139.432 26.5851C139.244 26.6525 139.044 26.6809 138.844 26.6685H136.45V25.1155H138.208C138.457 25.1155 138.581 24.8678 138.581 24.3724V21.4664L138.084 22.7669C137.872 23.2624 137.614 23.5101 137.309 23.5101H135.903V21.9571H136.465C136.783 21.9571 137.011 21.7427 137.15 21.3187L138.596 17.6029V14.5969H136.201V12.9629H138.596V11.5338H140.409V12.9629H142.172ZM151.61 13.3822V14.9876H148.083V17.0694H151.585V18.7558L148.108 23.4529L149.231 24.7154C149.317 24.8286 149.428 24.9224 149.555 24.9899C149.683 25.0574 149.825 25.097 149.971 25.106H151.734V26.659H148.863C148.658 26.6577 148.456 26.6111 148.272 26.5227C148.089 26.4343 147.929 26.3065 147.805 26.1493L146.911 25.0393L146.206 25.9921C146.019 26.2206 145.778 26.4017 145.501 26.5197C145.225 26.6376 144.923 26.6887 144.621 26.6685H141.874V25.1155H143.712C143.914 25.1298 144.117 25.0975 144.304 25.0213C144.491 24.945 144.656 24.8271 144.785 24.6772L145.669 23.5625L142.798 20.0515H145.053L146.846 22.0571L149.469 18.7224H142.719V17.0694H146.196V14.978H142.902V13.3726H146.196V11.4004H148.113V13.3726L151.61 13.3822Z" fill="white"/>
<path d="M171.713 12.7818V14.4015H161.282L160.487 15.7544H171.068V25.425C171.068 26.3174 170.475 26.7621 169.289 26.7589H163.542V25.1678H168.614C168.932 25.1678 169.11 25.063 169.11 24.8486V23.6815H159.513V26.9399H157.561V19.3178H155.574V17.5123H157.064C157.323 17.5123 157.531 17.336 157.695 16.9882L159.141 14.3872H155.887V12.7818H160.04L160.795 11.4336H163.05L162.24 12.7818H171.713ZM159.513 18.9748H169.091V17.336H159.533L159.513 18.9748ZM159.513 22.1284H169.091V20.523H159.513V22.1284Z" fill="white"/>
<path d="M177.65 25.9254V26.821H175.768V11.8291H181.262V17.7554C181.257 17.9574 181.184 18.1526 181.053 18.3109C180.922 18.4692 180.74 18.582 180.536 18.6319C180.746 18.7206 180.925 18.8642 181.053 19.0462C181.182 19.2283 181.254 19.4413 181.262 19.6609V24.9297C181.262 25.5586 180.854 25.8825 180.045 25.9254H177.65ZM177.65 13.3822V17.8888H178.981C179.27 17.8888 179.419 17.784 179.419 17.5696V13.3822H177.65ZM177.65 19.4418V24.3724H179.2C179.354 24.3724 179.429 24.2437 179.429 23.9817V19.7276C179.429 19.5371 179.22 19.4418 178.798 19.4418H177.65ZM190.834 11.7625V18.7653C190.834 19.3656 190.451 19.6609 189.691 19.6609H184.55V24.6582C184.55 24.8392 184.674 24.9297 184.923 24.9297H186.736V26.5304H183.705C182.965 26.5304 182.598 26.2207 182.598 25.5776V11.7625H190.834ZM184.55 14.8018V14.9876H188.847V13.3155H184.55V14.8018ZM184.55 16.4739V18.0936H188.583C188.757 18.0936 188.847 18.0031 188.847 17.8221V16.4739H184.55ZM189.552 20.3374H191.4L190.451 22.8527C190.262 23.4148 189.925 23.6959 189.458 23.6959H188.822L189.155 24.9297C189.181 25.0197 189.237 25.0991 189.314 25.1565C189.391 25.214 189.485 25.2463 189.582 25.2489H191.638V26.6781H188.683C188.383 26.673 188.094 26.5723 187.861 26.392C187.628 26.2116 187.465 25.962 187.396 25.6824L185.906 20.6184H187.968L188.464 22.4239H188.728C188.9 22.4239 189.029 22.2652 189.115 21.9476L189.552 20.3374Z" fill="white"/>
<path d="M198.394 11.8958H200.381L199.452 17.098C199.204 18.3112 198.599 18.9178 197.639 18.9178H195.453V17.1456H197.023C197.256 17.1456 197.45 16.855 197.604 16.2691L198.394 11.8958ZM201.787 16.3357H203.972L199.348 24.7916H208.135C207.991 24.7916 207.921 24.6963 207.921 24.5057L207.122 20.8805H209.109L210.142 25.0012C210.15 25.4022 210.023 25.795 209.779 26.1207C209.56 26.325 209.274 26.4497 208.969 26.4732H197.003V25.2584C197.024 24.8444 197.143 24.4404 197.351 24.077L201.787 16.3357ZM201.419 11.7625H207.842C208.006 11.7625 208.17 12.034 208.339 12.5723L209.461 16.3834C209.625 16.9932 209.769 17.298 209.883 17.298H211.433V18.932H208.339C208.15 18.932 207.971 18.6224 207.807 18.0079L206.506 13.8681C206.401 13.5108 206.282 13.3298 206.153 13.3298H201.419V11.7625Z" fill="white"/>
<path d="M215.188 11.8958H230.682V25.1678C230.682 26.1587 230.077 26.6542 228.869 26.6542H226.614V25.0344H228.158C228.471 25.0344 228.655 24.9249 228.655 24.7105V13.6346H215.188V11.8958ZM227.229 15.1876V16.9597H215.491V15.1876H227.229ZM215.804 18.6318H226.296V24.0531C226.296 24.9058 225.824 25.3346 224.885 25.3346H215.824L215.804 18.6318ZM223.847 23.6291C223.915 23.641 223.985 23.6368 224.05 23.6171C224.116 23.5973 224.176 23.5626 224.225 23.5157C224.274 23.4689 224.31 23.4114 224.331 23.3482C224.351 23.285 224.356 23.2179 224.343 23.1527V20.2944H217.811V23.5862L223.847 23.6291Z" fill="white"/>
<path d="M57.6768 44.2234V42.3178C57.8715 42.4824 58.0868 42.6232 58.3176 42.7371C58.57 42.8665 58.8344 42.9734 59.1074 43.0562C59.379 43.1402 59.6562 43.2071 59.9369 43.2563C60.1909 43.3017 60.4485 43.3256 60.7069 43.3278C61.3418 43.3698 61.9756 43.2323 62.5299 42.9324C62.7247 42.8103 62.8827 42.6413 62.9881 42.4424C63.0936 42.2434 63.1429 42.0215 63.131 41.7986C63.1381 41.5545 63.0689 41.3139 62.9323 41.1078C62.7848 40.894 62.5939 40.7109 62.371 40.5695C62.1041 40.388 61.8216 40.2286 61.5265 40.0931L60.4883 39.6167C60.0909 39.4167 59.7184 39.207 59.3756 38.9974C59.049 38.8035 58.7486 38.5715 58.4815 38.3067C58.2303 38.0578 58.0283 37.7673 57.8854 37.4492C57.7331 37.0944 57.6587 36.7133 57.6668 36.3297C57.6544 35.8464 57.7835 35.3694 58.0394 34.9529C58.2918 34.5678 58.6313 34.2422 59.0329 34.0002C59.456 33.7379 59.9232 33.5478 60.4138 33.438C60.9321 33.3141 61.4643 33.2518 61.9984 33.2522C62.9105 33.1996 63.8237 33.3361 64.6758 33.6524V35.4912C63.9193 35.007 63.0214 34.7667 62.1127 34.8052C61.8243 34.8044 61.5366 34.8299 61.2533 34.8815C60.9842 34.9281 60.7244 35.0149 60.4834 35.1387C60.2658 35.2574 60.0776 35.4199 59.932 35.6151C59.7877 35.8149 59.7129 36.0533 59.7184 36.2963C59.7123 36.5239 59.7688 36.749 59.8823 36.949C60.0099 37.147 60.179 37.3173 60.379 37.4492C60.6186 37.6201 60.8747 37.7685 61.144 37.8922C61.447 38.0351 61.7948 38.1923 62.1921 38.3686C62.5892 38.562 62.9755 38.7751 63.3495 39.007C63.6954 39.2216 64.0153 39.4725 64.3033 39.7549C64.5755 40.0174 64.7974 40.3238 64.959 40.66C65.1237 41.0151 65.2051 41.4005 65.1974 41.7891C65.2118 42.2874 65.0884 42.7804 64.8398 43.2182C64.6036 43.6074 64.2709 43.9347 63.8711 44.171C63.4336 44.4293 62.9504 44.6086 62.4455 44.6998C61.8953 44.8126 61.3341 44.8685 60.7715 44.8665C60.5308 44.8639 60.2904 44.8496 60.0512 44.8236C59.7631 44.7903 59.47 44.7522 59.172 44.695C58.8848 44.6452 58.6011 44.5783 58.3225 44.4949C58.0953 44.4334 57.8779 44.342 57.6768 44.2234Z" fill="white"/>
<path d="M72.4902 44.8712C71.9224 44.8972 71.355 44.8108 70.8234 44.6174C70.2919 44.4239 69.8075 44.1277 69.4005 43.747C69.0088 43.3498 68.7044 42.8811 68.5056 42.3688C68.3067 41.8564 68.2175 41.3109 68.2431 40.7648C68.1908 40.1892 68.2706 39.6095 68.4767 39.0665C68.6829 38.5236 69.0105 38.0305 69.4366 37.6219C69.8626 37.2133 70.3768 36.8991 70.9429 36.7014C71.5091 36.5037 72.1135 36.4272 72.7138 36.4773C73.2754 36.4457 73.8376 36.5277 74.3639 36.7181C74.8902 36.9086 75.3689 37.2031 75.7687 37.5826C76.5382 38.4267 76.9323 39.5263 76.8665 40.6457C76.8932 41.2076 76.8023 41.7689 76.5993 42.2966C76.3962 42.8244 76.0851 43.3078 75.6843 43.7184C75.2645 44.1127 74.7637 44.4188 74.2138 44.6173C73.6639 44.8157 73.0769 44.9022 72.4902 44.8712ZM72.5797 37.9208C72.2474 37.9066 71.9162 37.9662 71.612 38.0952C71.3078 38.2241 71.0389 38.4188 70.8262 38.664C70.3643 39.2535 70.1355 39.981 70.1804 40.7172C70.1377 41.4333 70.3691 42.1396 70.8311 42.7037C71.0476 42.942 71.3171 43.1308 71.6197 43.2561C71.9223 43.3814 72.2503 43.4401 72.5797 43.4278C72.9045 43.4462 73.2293 43.3911 73.5278 43.267C73.8264 43.1428 74.0903 42.9532 74.2984 42.7132C74.7369 42.1253 74.9493 41.4098 74.8994 40.6886C74.9489 39.96 74.7368 39.2371 74.2984 38.6401C74.0906 38.3996 73.8268 38.2092 73.5283 38.0843C73.2298 37.9594 72.9048 37.9034 72.5797 37.9208Z" fill="white"/>
<path d="M87.7346 44.6997H85.8421V43.4135H85.8073C85.5746 43.8695 85.208 44.2504 84.7527 44.5094C84.2973 44.7683 83.773 44.8941 83.2441 44.8712C81.2572 44.8712 80.2637 43.7326 80.2637 41.4555V36.6631H82.1612V41.265C82.1612 42.6941 82.7374 43.4277 83.8998 43.4277C84.1624 43.4334 84.4231 43.383 84.6628 43.2799C84.9025 43.1769 85.1153 43.024 85.2857 42.8323C85.6603 42.3948 85.8531 41.84 85.8272 41.2745V36.6631H87.7197L87.7346 44.6997Z" fill="white"/>
<path d="M96.7262 38.3924C96.4344 38.2024 96.0846 38.1118 95.7327 38.1352C95.4539 38.1364 95.1798 38.2035 94.9346 38.3307C94.6893 38.4578 94.4806 38.641 94.3269 38.8641C93.923 39.448 93.7262 40.1413 93.7656 40.8411V44.6998H91.873V36.6632H93.7656V38.3115H93.8004C93.9491 37.804 94.2435 37.3468 94.6498 36.9919C95.0035 36.6875 95.4612 36.518 95.9364 36.5155C96.2068 36.4998 96.477 36.5506 96.7212 36.6632L96.7262 38.3924Z" fill="white"/>
<path d="M105.727 44.3138C105 44.6989 104.178 44.8913 103.348 44.8712C102.797 44.8895 102.249 44.7997 101.737 44.6071C101.224 44.4146 100.758 44.1235 100.367 43.7517C99.9839 43.368 99.6852 42.9143 99.4889 42.4174C99.2926 41.9206 99.2028 41.3909 99.2247 40.86C99.1963 40.2771 99.2903 39.6946 99.501 39.1472C99.7118 38.5997 100.035 38.0984 100.452 37.673C100.884 37.2668 101.399 36.9505 101.965 36.7439C102.531 36.5373 103.135 36.445 103.74 36.4725C104.434 36.4587 105.122 36.5903 105.757 36.8584V38.5496C105.226 38.1473 104.571 37.9261 103.894 37.9208C103.524 37.907 103.155 37.9696 102.812 38.1044C102.469 38.2392 102.161 38.443 101.907 38.702C101.383 39.259 101.108 39.9914 101.142 40.7409C101.101 41.4624 101.36 42.1701 101.862 42.7084C102.116 42.952 102.419 43.1418 102.754 43.2657C103.088 43.3896 103.446 43.4448 103.805 43.4278C104.512 43.4172 105.193 43.1714 105.732 42.7322L105.727 44.3138Z" fill="white"/>
<path d="M116.357 41.1649H110.654C110.645 41.4824 110.703 41.7984 110.826 42.0934C110.95 42.3884 111.134 42.656 111.369 42.8798C111.892 43.3039 112.564 43.5203 113.247 43.4848C114.13 43.4869 114.991 43.2163 115.701 42.7131V44.1804C114.782 44.6777 113.735 44.917 112.681 44.8711C112.144 44.8987 111.608 44.815 111.108 44.626C110.609 44.4369 110.157 44.1468 109.785 43.7754C109.038 42.9177 108.663 41.8179 108.737 40.7028C108.691 39.5803 109.107 38.4855 109.894 37.6539C110.257 37.2719 110.701 36.9688 111.196 36.765C111.691 36.5612 112.226 36.4615 112.765 36.4725C113.261 36.451 113.755 36.5371 114.211 36.7243C114.666 36.9116 115.072 37.1951 115.398 37.5539C116.069 38.3934 116.403 39.437 116.337 40.4932L116.357 41.1649ZM114.529 39.8786C114.551 39.3308 114.375 38.7924 114.032 38.3542C113.872 38.1742 113.671 38.0317 113.444 37.9376C113.218 37.8434 112.972 37.8002 112.725 37.8111C112.465 37.8069 112.207 37.8557 111.969 37.9543C111.73 38.0528 111.515 38.1989 111.34 38.3828C110.946 38.7974 110.701 39.3213 110.639 39.8786H114.529Z" fill="white"/>
<path d="M125.78 44.2233V42.3178C125.975 42.4823 126.19 42.6231 126.421 42.737C126.672 42.8664 126.935 42.9733 127.206 43.0562C127.479 43.1407 127.758 43.2076 128.04 43.2562C128.294 43.3018 128.552 43.3257 128.81 43.3277C129.445 43.3689 130.079 43.2315 130.633 42.9323C130.828 42.8102 130.986 42.6412 131.092 42.4423C131.197 42.2434 131.246 42.0214 131.235 41.7985C131.239 41.5547 131.17 41.3148 131.036 41.1077C130.887 40.8954 130.696 40.7126 130.474 40.5694C130.208 40.3879 129.925 40.2285 129.63 40.093L128.587 39.6167C128.189 39.4166 127.822 39.207 127.479 38.9974C127.151 38.8059 126.85 38.5736 126.585 38.3066C126.334 38.0565 126.131 37.7663 125.984 37.4491C125.833 37.0939 125.761 36.7129 125.77 36.3296C125.758 35.8463 125.887 35.3694 126.143 34.9528C126.395 34.5675 126.735 34.2417 127.136 34.0001C127.562 33.739 128.031 33.5489 128.522 33.4379C129.041 33.3138 129.573 33.2514 130.107 33.2522C131.019 33.2004 131.932 33.3368 132.784 33.6523V35.4912C132.027 35.0081 131.13 34.7679 130.221 34.8052C129.931 34.8045 129.642 34.8301 129.357 34.8814C129.089 34.9279 128.831 35.0147 128.592 35.1386C128.372 35.2546 128.184 35.4177 128.04 35.615C127.894 35.8138 127.819 36.0529 127.827 36.2963C127.821 36.5238 127.877 36.7489 127.991 36.9489C128.119 37.1461 128.288 37.3163 128.488 37.4491C128.729 37.62 128.987 37.7684 129.257 37.8921C129.556 38.0351 129.908 38.1923 130.306 38.3685C130.701 38.5619 131.086 38.775 131.458 39.0069C131.804 39.2228 132.126 39.4735 132.417 39.7548C132.686 40.0188 132.906 40.3249 133.067 40.6599C133.236 41.0139 133.319 41.3999 133.311 41.789C133.334 42.2637 133.223 42.7357 132.989 43.1549C132.756 43.5742 132.409 43.9252 131.985 44.1709C131.543 44.4287 131.057 44.6079 130.549 44.6997C129.999 44.8119 129.438 44.8678 128.875 44.8664C128.633 44.8639 128.391 44.8495 128.15 44.8235C127.867 44.7902 127.574 44.7521 127.271 44.6949C126.983 44.6451 126.7 44.5783 126.421 44.4948C126.195 44.4334 125.98 44.342 125.78 44.2233Z" fill="white"/>
<path d="M140.593 44.8712C140.025 44.897 139.457 44.8105 138.924 44.6171C138.392 44.4237 137.907 44.1276 137.499 43.747C137.108 43.3496 136.804 42.8807 136.606 42.3684C136.408 41.856 136.32 41.3106 136.346 40.7648C136.293 40.189 136.372 39.6089 136.578 39.0656C136.784 38.5222 137.111 38.0288 137.538 37.62C137.964 37.2112 138.478 36.8971 139.045 36.6996C139.612 36.5022 140.216 36.4263 140.817 36.4773C141.378 36.4457 141.941 36.5277 142.467 36.7181C142.993 36.9086 143.472 37.2031 143.872 37.5825C144.642 38.4258 145.035 39.5265 144.965 40.6457C144.992 41.2077 144.902 41.7693 144.699 42.2972C144.496 42.8251 144.184 43.3084 143.782 43.7184C143.363 44.1123 142.863 44.4182 142.314 44.6167C141.765 44.8152 141.179 44.9019 140.593 44.8712ZM140.683 37.9208C140.35 37.9069 140.018 37.9667 139.713 38.0956C139.408 38.2245 139.138 38.4189 138.924 38.6639C138.465 39.2546 138.236 39.9813 138.278 40.7172C138.235 41.4341 138.468 42.1414 138.934 42.7037C139.151 42.942 139.42 43.1308 139.723 43.2561C140.025 43.3814 140.353 43.4401 140.683 43.4278C141.008 43.4458 141.332 43.3905 141.631 43.2664C141.929 43.1423 142.193 42.9529 142.401 42.7132C142.838 42.1243 143.05 41.4096 143.002 40.6886C143.05 39.9602 142.838 39.2381 142.401 38.6401C142.193 38.3999 141.93 38.2097 141.631 38.0848C141.333 37.9599 141.008 37.9037 140.683 37.9208Z" fill="white"/>
<path d="M150.448 44.6997H148.546V32.79H150.448V44.6997Z" fill="white"/>
<path d="M161.878 44.6997H159.986V43.4135H159.951C159.717 43.8687 159.35 44.2489 158.895 44.5078C158.44 44.7666 157.916 44.8929 157.388 44.8712C155.401 44.8712 154.407 43.7326 154.407 41.4555V36.6631H156.305V41.265C156.305 42.6941 156.881 43.4277 158.043 43.4277C158.305 43.4341 158.565 43.3839 158.805 43.2808C159.044 43.1777 159.255 43.0244 159.424 42.8323C159.803 42.3966 159.998 41.8409 159.971 41.2745V36.6631H161.863L161.878 44.6997Z" fill="white"/>
<path d="M170.427 44.595C169.968 44.7898 169.468 44.8811 168.967 44.8618C167.344 44.8618 166.533 44.1154 166.533 42.6227V38.0876H165.137V36.6584H166.533V34.8005L168.425 34.2812V36.6632H170.412V38.0923H168.425V42.1035C168.393 42.4617 168.489 42.8199 168.698 43.1182C168.815 43.2297 168.957 43.315 169.112 43.3677C169.268 43.4204 169.433 43.4393 169.597 43.4231C169.898 43.4306 170.192 43.3362 170.427 43.1563V44.595Z" fill="white"/>
<path d="M174.689 34.9767C174.395 34.9831 174.109 34.8788 173.894 34.6862C173.786 34.5943 173.701 34.4811 173.643 34.3545C173.586 34.2278 173.558 34.0906 173.561 33.9525C173.556 33.812 173.583 33.6721 173.64 33.5428C173.698 33.4135 173.784 33.298 173.894 33.2046C174.109 33.0106 174.394 32.9047 174.689 32.9092C174.992 32.9025 175.285 33.0083 175.508 33.2046C175.616 33.2998 175.701 33.4156 175.758 33.5445C175.815 33.6734 175.844 33.8124 175.841 33.9525C175.845 34.0926 175.817 34.2318 175.759 34.3603C175.701 34.4887 175.613 34.6033 175.503 34.6957C175.28 34.8869 174.988 34.9877 174.689 34.9767ZM175.628 44.6998H173.735V36.6632H175.628V44.6998Z" fill="white"/>
<path d="M183.486 44.8711C182.918 44.8969 182.35 44.8104 181.817 44.617C181.285 44.4236 180.8 44.1274 180.392 43.7468C180.001 43.3495 179.697 42.8806 179.499 42.3682C179.301 41.8559 179.213 41.3105 179.239 40.7647C179.203 40.1873 179.291 39.609 179.498 39.0657C179.705 38.5224 180.026 38.0256 180.441 37.6062C180.877 37.2199 181.389 36.9207 181.947 36.726C182.505 36.5313 183.097 36.4451 183.69 36.4724C184.252 36.4408 184.814 36.5228 185.34 36.7133C185.867 36.9037 186.345 37.1982 186.745 37.5777C187.513 38.4225 187.905 39.522 187.838 40.6408C187.866 41.2028 187.775 41.7645 187.572 42.2923C187.369 42.8202 187.057 43.3035 186.656 43.7135C186.239 44.1058 185.743 44.4112 185.197 44.6105C184.652 44.8097 184.069 44.8984 183.486 44.8711ZM183.576 37.9207C183.243 37.9068 182.911 37.9666 182.606 38.0955C182.301 38.2243 182.031 38.4188 181.817 38.6638C181.358 39.2545 181.129 39.9812 181.172 40.717C181.128 41.434 181.361 42.1412 181.827 42.7036C182.043 42.9424 182.313 43.1315 182.615 43.2569C182.918 43.3823 183.246 43.4406 183.576 43.4277C183.901 43.4457 184.225 43.3904 184.524 43.2663C184.822 43.1422 185.086 42.9527 185.295 42.7131C185.731 42.1242 185.943 41.4094 185.896 40.6885C185.943 39.9601 185.731 39.2379 185.295 38.64C185.086 38.3998 184.823 38.2096 184.524 38.0847C184.226 37.9598 183.901 37.9036 183.576 37.9207Z" fill="white"/>
<path d="M198.886 44.6997H196.988V40.1788C196.988 38.683 196.437 37.935 195.334 37.935C195.062 37.9292 194.793 37.9818 194.545 38.089C194.298 38.1962 194.078 38.3552 193.903 38.5543C193.519 38.993 193.318 39.5536 193.342 40.1264V44.6997H191.435V36.6631H193.342V37.9922H193.387C193.646 37.5218 194.038 37.1304 194.517 36.8619C194.996 36.5934 195.544 36.4585 196.099 36.4725C196.491 36.4496 196.883 36.5143 197.244 36.6614C197.605 36.8086 197.926 37.0342 198.18 37.3205C198.708 38.0361 198.962 38.9042 198.901 39.7786L198.886 44.6997Z" fill="white"/>
</g>
<defs>
<clipPath id="clip0_1202_6386">
<rect width="221.591" height="35" fill="white" transform="translate(9.09082 10.5)"/>
</clipPath>
</defs>
</svg>
