<svg width="334" height="50" viewBox="0 0 334 50" fill="none" xmlns="http://www.w3.org/2000/svg">
<g clip-path="url(#clip0_1488_42199)">
<path d="M38.0939 0H48.6521C48.6521 0 55.0377 1.47679 55.6338 6.53328V24.5747L26.351 6.53328H11.1954C11.1954 6.53328 7.87223 6.76467 7.70085 9.56173V14.3256C7.93021 15.3127 8.57167 16.1793 9.48911 16.7415L43.3767 37.9679H31.1942L4.71295 21.3284C4.71295 21.3284 0.883095 19.2868 0.883095 16.8164V7.38397C0.883095 7.38397 0.711724 0.6193 8.80362 0H28.2584L48.9874 13.0666L48.816 7.54049C48.816 7.54049 46.5807 3.9676 38.0865 0.313052" fill="#B72222"/>
<path d="M18.1766 50.0001H7.6184C7.6184 50.0001 1.23281 48.5233 0.636719 43.4668V25.4255L29.9196 43.4668H45.0751C45.0751 43.4668 48.3983 43.2354 48.5697 40.4384V35.6745C48.3403 34.6874 47.6989 33.8208 46.7814 33.2586L12.8938 12.0322H25.0689L51.5501 28.6717C51.5501 28.6717 55.38 30.7133 55.38 33.1837V42.5957C55.38 42.5957 55.5514 49.3604 47.4595 49.9797H28.0046L7.27566 36.9404L7.44704 42.4596C7.44704 42.4596 9.68237 46.0325 18.1766 49.687" fill="#B72222"/>
<path d="M76.4147 18.851H79.6932L77.8155 21.893C77.6236 22.2198 77.3322 22.4889 76.9765 22.6676C76.6208 22.8464 76.2161 22.9272 75.8111 22.9002H71.877V20.8586H74.5444C74.726 20.8658 74.9061 20.8263 75.0643 20.7444C75.2224 20.6626 75.3521 20.5418 75.4386 20.3958L76.4147 18.851ZM95.4299 2.76958V4.98817H85.3932V6.69635H95.3181V10.9702H92.3898V8.92856H75.2523V10.9702H72.324V6.69635H82.2563V4.98817H72.324V2.76958H82.2563V1.03418H85.3932V2.76958H95.4299ZM82.3607 17.8846H74.5444V15.8429L76.4966 13.6244H75.3641V11.2356L78.0241 9.47299H81.4069L78.7394 11.5146H89.3125C89.5063 11.5146 89.6031 11.4602 89.6031 11.3445L89.1039 9.98341H91.8235L92.3749 11.2356C92.4296 11.3165 92.4651 11.4069 92.4792 11.501V12.5831C92.4792 13.2637 91.9055 13.6244 90.7655 13.6244H79.9539L78.0241 15.666H90.2812C90.4898 15.666 90.5941 15.6116 90.5941 15.5027L90.0651 13.9306H92.8146L93.3436 15.3802C93.3436 15.3802 93.3957 15.5095 93.4479 15.666V16.8025C93.4479 17.5239 92.8742 17.8846 91.7267 17.8846H85.1846V23.5059H82.3607V17.8846ZM87.8521 18.851H91.0934L91.8906 20.4162C91.9738 20.5708 92.1071 20.6982 92.2725 20.781C92.4378 20.8639 92.6271 20.8981 92.8146 20.879H96.0185V22.9207H91.1306C90.789 22.8971 90.4602 22.7916 90.1776 22.6147C89.895 22.4379 89.6685 22.1959 89.5212 21.9135L87.8521 18.851Z" fill="white"/>
<path d="M125.719 1.58594V3.83175H114.922V5.98229H120.808L120.019 4.5123H122.947L123.558 5.55354C123.614 5.6657 123.708 5.75855 123.826 5.81854C123.944 5.87853 124.08 5.90252 124.214 5.88701H125.704V7.79255H124.437V22.4788C124.437 23.1866 123.901 23.5405 122.828 23.5405H120.108V21.7098H121.27C121.531 21.7098 121.665 21.6077 121.665 21.4172V21.1041H119.899L118.789 19.9268L117.016 21.9684H114.907V23.5337H112.292V22.0637H110.056L108.894 20.4712L107.516 22.0637H105.616V23.5337H102.874V7.88102H101.152V5.98229H102.128C102.262 5.98671 102.395 5.95481 102.509 5.89062C102.623 5.82642 102.713 5.73281 102.769 5.6216L103.477 4.5123H106.458L105.578 5.98229H112.284V3.86578H101.406V1.61996L125.719 1.58594ZM112.307 9.33059V8.07158H105.653V14.8294L107.955 12.1072L105.839 9.3374H108.372L109.274 10.5148L110.272 9.3374L112.307 9.33059ZM105.653 21.2879L107.769 18.8311L105.653 15.9319V21.2879ZM109.222 17.1637L110.712 15.4079H110.503L109.207 13.7133L108.238 14.8294C108.085 14.9527 107.985 15.1215 107.955 15.3058C108.002 15.5188 108.119 15.7136 108.29 15.8639L109.222 17.1637ZM112.307 21.4784V16.49L110.354 18.7562L112.307 21.4784ZM112.307 14.4619V10.0656L110.511 12.1617L112.307 14.4619ZM114.922 8.07158V14.8294L117.351 12.0256L115.235 9.30337H117.694L118.618 10.5079L119.676 9.30337H121.68V8.04435L114.922 8.07158ZM114.922 15.7686V21.3627L117.403 18.4432L114.974 15.8366C114.96 15.8118 114.943 15.7889 114.922 15.7686ZM118.588 13.5976L117.56 14.8294C117.396 14.9484 117.284 15.1176 117.247 15.3058C117.247 15.4215 117.381 15.578 117.642 15.789L118.7 16.9255L120.019 15.4079L118.588 13.5976ZM121.68 10.0724L119.884 12.114L121.68 14.4075V10.0724ZM121.68 16.5104L120.071 18.4159L121.68 20.1581V16.5104Z" fill="white"/>
<path d="M133.274 18.8514H136.255L134.764 22.0364C134.669 22.3453 134.465 22.6169 134.183 22.8089C133.902 23.0009 133.558 23.1025 133.207 23.098H130.972V21.0564H132.127C132.395 21.0564 132.589 20.8862 132.708 20.5528L133.274 18.8514ZM143.415 2.51821V4.64152H142.066V15.5303H144.078V17.8442H131.143V15.5303H132.857V4.64152H131.456V2.57945H132.857V1.12988H135.509V2.57945H139.444V1.12988H142.081V2.57945L143.415 2.51821ZM135.509 7.00983H139.444V4.67555H135.509V7.00983ZM135.509 11.3517H139.444V9.03787H135.509V11.3517ZM135.509 15.5711H139.444V13.2845H135.509V15.5711ZM138.386 18.8514H141.321L142.066 20.8046C142.156 21.0632 142.29 21.1925 142.484 21.1925H143.147V20.0083H144.101C144.644 20.0083 144.913 19.9131 144.913 19.7225V2.45695H151.462C151.976 2.45695 152.207 2.06904 152.207 1.30002H155.031V2.66112C155.031 3.98139 154.222 4.64152 152.602 4.64152H147.558V8.23482H155.478V10.4262H153.154V23.4723H150.382V10.4602H147.558V20.3214C147.558 21.6825 146.617 22.363 144.734 22.363H143.624V23.1116H141.388C141.008 23.1488 140.625 23.0666 140.303 22.8786C139.981 22.6905 139.738 22.4079 139.615 22.0772L138.386 18.8514Z" fill="white"/>
<path d="M161.938 10.7463H164.047L163.444 20.9545C163.453 21.4977 163.256 22.027 162.885 22.4517C162.708 22.6144 162.498 22.7434 162.267 22.831C162.035 22.9186 161.787 22.9632 161.536 22.9621H160.59V20.8388H160.776C161.141 20.8388 161.342 20.5734 161.357 20.0426L161.938 10.7463ZM168.801 1.48398H171.23C171.253 2.31205 171.023 3.12962 170.567 3.84549C170.38 4.05489 170.141 4.22082 169.871 4.32966C169.6 4.4385 169.305 4.48714 169.01 4.47159H167.348V6.81268H171.468V8.936H167.348V23.4998H164.815V8.936H160.985V6.81268H164.815V4.47159H161.328V2.42994H168.093C168.421 2.45716 168.659 2.13731 168.801 1.49078V1.48398ZM167.743 10.8415H169.859L170.805 20.3148C170.88 20.7503 171.051 20.9953 171.334 20.9953H171.893V22.9213H170.068C169.278 22.9213 168.816 22.3837 168.697 21.3084L167.743 10.8415ZM185.201 16.7215V19.0354L182.966 19.1579V23.4045H179.985V19.2804L171.789 19.6138V17.3272L179.985 16.9393V1.39551H182.966V16.8304L185.201 16.7215ZM172.072 2.42994H175.052L175.999 4.86631C176.073 5.23381 176.274 5.41755 176.61 5.41755H178.54V7.73143H175.157C174.752 7.75314 174.353 7.63717 174.037 7.40592C173.72 7.17466 173.509 6.84452 173.443 6.47922L172.072 2.42994ZM172.288 9.10613H175.269L176.118 11.4949C176.185 11.8964 176.386 12.1006 176.722 12.1006H178.435V14.4144H175.269C174.863 14.4344 174.464 14.3169 174.148 14.0845C173.832 13.8522 173.62 13.5213 173.555 13.1554L172.288 9.10613Z" fill="white"/>
<path d="M200.26 3.51834V5.85262H197.592V9.13287H199.828V11.4263H197.592V20.8792C197.611 21.4946 197.362 22.0917 196.899 22.5397C196.686 22.7328 196.43 22.8824 196.149 22.9786C195.868 23.0748 195.567 23.1154 195.267 23.0978H191.676V20.8792H194.314C194.686 20.8792 194.873 20.5253 194.873 19.8175V15.6661L194.127 17.5241C193.81 18.2318 193.422 18.5857 192.965 18.5857H190.856V16.3671H191.698C192.175 16.3671 192.518 16.0609 192.727 15.4552L194.895 10.1469V5.85262H191.303V3.51834H194.895V1.47669H197.615V3.51834H200.26ZM214.417 4.11722V6.41067H209.127V9.38468H214.38V11.7938L209.164 18.504L210.848 20.3075C210.977 20.4693 211.143 20.6032 211.335 20.6997C211.527 20.7961 211.739 20.8528 211.958 20.8655H214.603V23.0841H210.296C209.988 23.0823 209.685 23.0157 209.41 22.8894C209.134 22.7631 208.895 22.5806 208.709 22.356L207.368 20.7703L206.31 22.1314C206.031 22.4578 205.668 22.7166 205.253 22.8851C204.839 23.0536 204.386 23.1266 203.933 23.0978H199.813V20.8792H202.57C202.873 20.8996 203.178 20.8535 203.458 20.7446C203.737 20.6356 203.985 20.4671 204.179 20.2531L205.505 18.6606L201.199 13.6449H204.581L207.271 16.51L211.205 11.7462H201.079V9.38468H206.295V6.39706H201.355V4.10361H206.295V1.28613H209.171V4.10361L214.417 4.11722Z" fill="white"/>
<path d="M244.571 3.25994V5.57381H228.924L227.731 7.50657H243.602V21.3217C243.602 22.5966 242.713 23.2318 240.935 23.2273H232.314V20.9542H239.921C240.398 20.9542 240.667 20.8045 240.667 20.4983V18.8309H226.271V23.4859H223.343V12.5971H220.362V10.0178H222.598C222.985 10.0178 223.298 9.766 223.544 9.2692L225.712 5.5534H220.832V3.25994H227.061L228.193 1.33398H231.576L230.362 3.25994H244.571ZM226.271 12.1071H240.637V9.766H226.301L226.271 12.1071ZM226.271 16.6123H240.637V14.3189H226.271V16.6123Z" fill="white"/>
<path d="M253.475 22.0365V23.3159H250.651V1.89899H258.892V10.365C258.886 10.6537 258.776 10.9324 258.579 11.1586C258.383 11.3848 258.111 11.5459 257.804 11.6172C258.119 11.7439 258.388 11.949 258.58 12.2091C258.773 12.4691 258.881 12.7735 258.892 13.0872V20.6141C258.892 21.5124 258.281 21.9752 257.067 22.0365H253.475ZM253.475 4.11758V10.5556H255.472C255.904 10.5556 256.128 10.4059 256.128 10.0996V4.11758H253.475ZM253.475 12.7742V19.8179H255.8C256.031 19.8179 256.143 19.6341 256.143 19.2598V13.1825C256.143 12.9103 255.83 12.7742 255.197 12.7742H253.475ZM273.251 1.80371V11.8078C273.251 12.6653 272.677 13.0872 271.537 13.0872H263.825V20.2262C263.825 20.4848 264.011 20.6141 264.384 20.6141H267.103V22.9008H262.558C261.448 22.9008 260.897 22.4584 260.897 21.5397V1.80371H273.251ZM263.825 6.14562V6.41103H270.27V4.02231H263.825V6.14562ZM263.825 8.53435V10.8482H269.875C270.136 10.8482 270.27 10.7189 270.27 10.4603V8.53435H263.825ZM271.328 14.0536H274.1L272.677 17.6469C272.394 18.45 271.887 18.8515 271.187 18.8515H270.233L270.732 20.6141C270.772 20.7426 270.855 20.8561 270.971 20.9381C271.086 21.0201 271.227 21.0664 271.373 21.0701H274.458V23.1117H270.024C269.575 23.1044 269.142 22.9606 268.792 22.703C268.443 22.4454 268.197 22.0887 268.094 21.6894L265.859 14.4551H268.951L269.696 17.0344H270.091C270.35 17.0344 270.543 16.8076 270.672 16.3539L271.328 14.0536Z" fill="white"/>
<path d="M284.591 1.99426H287.571L286.178 9.42587C285.805 11.159 284.899 12.0256 283.458 12.0256H280.18V9.49393H282.534C282.884 9.49393 283.175 9.07879 283.406 8.24171L284.591 1.99426ZM289.68 8.33699H292.958L286.021 20.4168H299.202C298.986 20.4168 298.882 20.2806 298.882 20.0084L297.682 14.8294H300.663L302.213 20.7162C302.226 21.289 302.035 21.8502 301.669 22.3155C301.34 22.6074 300.911 22.7855 300.454 22.8191H282.504V21.0837C282.536 20.4922 282.714 19.9151 283.026 19.3959L289.68 8.33699ZM289.128 1.80371H298.763C299.009 1.80371 299.254 2.19162 299.508 2.96064L301.192 8.40504C301.438 9.27615 301.654 9.7117 301.825 9.7117H304.15V12.046H299.508C299.225 12.046 298.956 11.6036 298.711 10.7257L296.758 4.81174C296.602 4.30133 296.423 4.04272 296.229 4.04272H289.128V1.80371Z" fill="white"/>
<path d="M309.783 1.99414H333.023V20.9543C333.023 22.3698 332.117 23.0776 330.304 23.0776H326.921V20.7637H329.238C329.707 20.7637 329.983 20.6072 329.983 20.3009V4.47815H309.783V1.99414ZM327.845 6.69674V9.22838H310.238V6.69674H327.845ZM310.707 11.6171H326.444V19.3618C326.444 20.58 325.736 21.1925 324.328 21.1925H310.737L310.707 11.6171ZM322.77 18.7561C322.872 18.773 322.977 18.7671 323.076 18.7389C323.175 18.7107 323.265 18.661 323.338 18.5941C323.411 18.5272 323.466 18.4451 323.497 18.3548C323.528 18.2644 323.534 18.1686 323.516 18.0755V13.9922H313.717V18.6948L322.77 18.7561Z" fill="white"/>
<path d="M73.5161 48.1761V45.4539C73.8083 45.689 74.1311 45.8901 74.4773 46.0528C74.856 46.2378 75.2526 46.3904 75.662 46.5088C76.0695 46.6287 76.4852 46.7242 76.9064 46.7946C77.2873 46.8594 77.6738 46.8936 78.0613 46.8967C79.0137 46.9567 79.9644 46.7603 80.7959 46.3318C81.088 46.1574 81.325 45.916 81.4832 45.6318C81.6414 45.3476 81.7153 45.0305 81.6974 44.7121C81.7081 44.3634 81.6043 44.0197 81.3994 43.7253C81.1782 43.4199 80.8919 43.1583 80.5574 42.9563C80.1572 42.6969 79.7334 42.4693 79.2907 42.2757L77.7334 41.5952C77.1374 41.3094 76.5785 41.0099 76.0644 40.7105C75.5744 40.4334 75.1239 40.102 74.7232 39.7237C74.3464 39.3682 74.0434 38.9531 73.8291 38.4987C73.6006 37.9918 73.489 37.4474 73.5012 36.8994C73.4826 36.209 73.6762 35.5276 74.0601 34.9326C74.4386 34.3825 74.948 33.9173 75.5503 33.5715C76.185 33.1969 76.8858 32.9253 77.6217 32.7685C78.3991 32.5915 79.1974 32.5024 79.9986 32.5031C81.3667 32.4278 82.7366 32.6228 84.0147 33.0747V35.7016C82.8799 35.0099 81.5331 34.6666 80.17 34.7216C79.7375 34.7204 79.3058 34.7569 78.8809 34.8305C78.4773 34.8971 78.0876 35.0211 77.726 35.198C77.3996 35.3675 77.1174 35.5997 76.8989 35.8786C76.6825 36.164 76.5703 36.5046 76.5785 36.8518C76.5694 37.1769 76.6542 37.4985 76.8244 37.7841C77.0158 38.067 77.2695 38.3103 77.5695 38.4987C77.9288 38.7429 78.3131 38.9549 78.717 39.1316C79.1715 39.3358 79.6931 39.5604 80.2892 39.8122C80.8848 40.0884 81.4643 40.3928 82.0253 40.7241C82.544 41.0307 83.0239 41.3891 83.4559 41.7926C83.8642 42.1676 84.1971 42.6053 84.4394 43.0856C84.6865 43.5928 84.8086 44.1434 84.7971 44.6985C84.8186 45.4104 84.6335 46.1148 84.2606 46.7402C83.9064 47.2962 83.4073 47.7638 82.8076 48.1013C82.1514 48.4703 81.4266 48.7264 80.6692 48.8567C79.8439 49.0178 79.0021 49.0977 78.1582 49.0949C77.7971 49.0912 77.4365 49.0707 77.0777 49.0336C76.6456 48.986 76.206 48.9315 75.7589 48.8499C75.3282 48.7787 74.9026 48.6832 74.4848 48.564C74.1439 48.4761 73.8179 48.3456 73.5161 48.1761Z" fill="white"/>
<path d="M95.7349 49.1015C94.8831 49.1386 94.032 49.0151 93.2347 48.7388C92.4373 48.4625 91.7108 48.0392 91.1003 47.4954C90.5127 46.928 90.0562 46.2585 89.7579 45.5265C89.4596 44.7946 89.3257 44.0153 89.3642 43.2352C89.2857 42.4128 89.4053 41.5847 89.7146 40.8091C90.0239 40.0334 90.5153 39.329 91.1544 38.7453C91.7934 38.1616 92.5647 37.7127 93.4139 37.4303C94.2632 37.1478 95.1698 37.0386 96.0702 37.1102C96.9125 37.065 97.7559 37.1822 98.5454 37.4542C99.3349 37.7262 100.053 38.147 100.653 38.6891C101.807 39.895 102.398 41.4658 102.299 43.065C102.339 43.8677 102.203 44.6696 101.898 45.4235C101.594 46.1774 101.127 46.8679 100.526 47.4546C99.8963 48.0178 99.1451 48.4551 98.3202 48.7387C97.4954 49.0222 96.6149 49.1458 95.7349 49.1015ZM95.869 39.1723C95.3706 39.152 94.8739 39.2372 94.4176 39.4214C93.9613 39.6056 93.5578 39.8837 93.2388 40.2339C92.546 41.0762 92.2028 42.1155 92.2701 43.1671C92.2061 44.1901 92.5532 45.1992 93.2462 46.005C93.571 46.3455 93.9752 46.6151 94.4291 46.7941C94.8829 46.9731 95.375 47.057 95.869 47.0394C96.3562 47.0657 96.8434 46.987 97.2913 46.8097C97.7391 46.6323 98.135 46.3614 98.4471 46.0186C99.1048 45.1787 99.4234 44.1566 99.3487 43.1263C99.4229 42.0854 99.1047 41.0527 98.4471 40.1999C98.1354 39.8563 97.7397 39.5844 97.2919 39.4059C96.8442 39.2274 96.3568 39.1474 95.869 39.1723Z" fill="white"/>
<path d="M118.603 48.8569H115.764V47.0194H115.712C115.363 47.6708 114.813 48.215 114.13 48.585C113.447 48.9549 112.66 49.1346 111.867 49.1018C108.887 49.1018 107.396 47.4753 107.396 44.2223V37.376H110.243V43.9501C110.243 45.9917 111.107 47.0398 112.851 47.0398C113.245 47.0479 113.636 46.9758 113.995 46.8286C114.355 46.6815 114.674 46.463 114.93 46.1891C115.491 45.5641 115.781 44.7716 115.742 43.9637V37.376H118.581L118.603 48.8569Z" fill="white"/>
<path d="M132.089 39.8465C131.652 39.575 131.127 39.4456 130.599 39.479C130.181 39.4807 129.77 39.5766 129.402 39.7582C129.034 39.9399 128.721 40.2016 128.49 40.5202C127.885 41.3545 127.589 42.3449 127.648 43.3445V48.857H124.81V37.3761H127.648V39.7308H127.701C127.924 39.0059 128.365 38.3527 128.975 37.8457C129.505 37.4108 130.192 37.1687 130.905 37.1651C131.31 37.1427 131.716 37.2153 132.082 37.3761L132.089 39.8465Z" fill="white"/>
<path d="M145.591 48.3053C144.5 48.8555 143.268 49.1303 142.022 49.1016C141.197 49.1277 140.374 48.9994 139.605 48.7243C138.837 48.4493 138.137 48.0334 137.551 47.5023C136.976 46.9542 136.528 46.3059 136.234 45.5962C135.939 44.8864 135.805 44.1298 135.837 43.3713C135.795 42.5386 135.936 41.7065 136.252 40.9244C136.568 40.1423 137.053 39.4262 137.678 38.8185C138.327 38.2381 139.1 37.7863 139.948 37.4912C140.797 37.1961 141.703 37.0641 142.611 37.1035C143.651 37.0836 144.683 37.2718 145.636 37.6547V40.0707C144.839 39.496 143.856 39.18 142.842 39.1724C142.286 39.1527 141.733 39.2422 141.219 39.4347C140.704 39.6273 140.241 39.9184 139.861 40.2885C139.075 41.0842 138.663 42.1304 138.714 43.2012C138.651 44.2319 139.04 45.2429 139.794 46.0119C140.174 46.3598 140.63 46.631 141.131 46.808C141.633 46.9851 142.17 47.0639 142.707 47.0395C143.768 47.0245 144.79 46.6732 145.598 46.0459L145.591 48.3053Z" fill="white"/>
<path d="M161.535 43.8067H152.982C152.968 44.2603 153.056 44.7118 153.24 45.1332C153.425 45.5545 153.702 45.9369 154.055 46.2566C154.838 46.8624 155.846 47.1716 156.871 47.1209C158.196 47.1239 159.486 46.7373 160.552 46.0184V48.1145C159.173 48.8249 157.603 49.1669 156.022 49.1013C155.217 49.1407 154.412 49.0212 153.663 48.7511C152.913 48.481 152.236 48.0666 151.678 47.5361C150.558 46.3107 149.995 44.7396 150.105 43.1465C150.037 41.543 150.661 39.9791 151.842 38.791C152.386 38.2452 153.052 37.8122 153.795 37.5211C154.538 37.23 155.34 37.0875 156.148 37.1032C156.891 37.0726 157.633 37.1956 158.316 37.4631C159 37.7306 159.609 38.1356 160.097 38.6481C161.105 39.8474 161.605 41.3382 161.506 42.8471L161.535 43.8067ZM158.793 41.9692C158.827 41.1866 158.564 40.4174 158.048 39.7914C157.808 39.5343 157.507 39.3307 157.167 39.1962C156.827 39.0618 156.458 39 156.089 39.0156C155.699 39.0096 155.312 39.0793 154.953 39.2201C154.595 39.3609 154.273 39.5695 154.01 39.8322C153.42 40.4246 153.052 41.173 152.959 41.9692H158.793Z" fill="white"/>
<path d="M175.67 48.1757V45.4535C175.963 45.6885 176.285 45.8897 176.632 46.0523C177.008 46.2373 177.402 46.3899 177.809 46.5083C178.219 46.6291 178.637 46.7246 179.061 46.7941C179.442 46.8593 179.828 46.8934 180.216 46.8962C181.168 46.9551 182.118 46.7587 182.95 46.3314C183.242 46.1569 183.479 45.9156 183.638 45.6314C183.796 45.3472 183.87 45.0301 183.852 44.7117C183.859 44.3633 183.755 44.0206 183.554 43.7249C183.33 43.4215 183.044 43.1603 182.712 42.9558C182.311 42.6965 181.888 42.4688 181.445 42.2753L179.88 41.5947C179.284 41.3089 178.733 41.0095 178.219 40.71C177.726 40.4364 177.275 40.1046 176.878 39.7232C176.501 39.3659 176.196 38.9514 175.976 38.4982C175.75 37.9908 175.641 37.4465 175.656 36.8989C175.637 36.2085 175.831 35.5272 176.214 34.9322C176.592 34.3816 177.102 33.9163 177.705 33.5711C178.343 33.198 179.046 32.9265 179.783 32.768C180.561 32.5906 181.359 32.5015 182.16 32.5026C183.528 32.4286 184.898 32.6236 186.177 33.0743V35.7012C185.041 35.0111 183.695 34.668 182.332 34.7212C181.897 34.7203 181.463 34.7567 181.035 34.8301C180.634 34.8965 180.247 35.0206 179.888 35.1976C179.558 35.3633 179.275 35.5962 179.061 35.8781C178.841 36.1621 178.728 36.5037 178.74 36.8513C178.731 37.1764 178.816 37.498 178.986 37.7837C179.179 38.0654 179.433 38.3085 179.731 38.4982C180.093 38.7424 180.48 38.9543 180.886 39.1312C181.333 39.3353 181.862 39.5599 182.458 39.8117C183.052 40.088 183.629 40.3924 184.187 40.7236C184.707 41.032 185.189 41.3902 185.625 41.7921C186.029 42.1692 186.359 42.6065 186.601 43.0851C186.854 43.5908 186.979 44.1422 186.966 44.698C187.001 45.3763 186.834 46.0505 186.484 46.6494C186.134 47.2483 185.613 47.7498 184.977 48.1008C184.315 48.4691 183.585 48.725 182.824 48.8562C181.998 49.0166 181.156 49.0964 180.312 49.0944C179.949 49.0907 179.586 49.0703 179.225 49.0331C178.8 48.9855 178.36 48.9311 177.906 48.8494C177.475 48.7782 177.049 48.6828 176.632 48.5636C176.293 48.4758 175.97 48.3452 175.67 48.1757Z" fill="white"/>
<path d="M197.89 49.1012C197.037 49.138 196.185 49.0144 195.386 48.7382C194.588 48.4619 193.86 48.0388 193.248 47.4951C192.661 46.9274 192.206 46.2576 191.909 45.5257C191.612 44.7937 191.479 44.0146 191.519 43.2349C191.439 42.4122 191.558 41.5836 191.867 40.8074C192.176 40.0312 192.667 39.3263 193.307 38.7423C193.946 38.1583 194.718 37.7095 195.568 37.4275C196.417 37.1454 197.325 37.0371 198.225 37.1099C199.068 37.0647 199.911 37.1819 200.7 37.4539C201.49 37.7259 202.208 38.1467 202.808 38.6888C203.963 39.8935 204.553 41.4659 204.447 43.0647C204.489 43.8676 204.353 44.6699 204.048 45.424C203.744 46.1781 203.276 46.8685 202.674 47.4543C202.045 48.017 201.295 48.454 200.472 48.7376C199.648 49.0211 198.769 49.1449 197.89 49.1012ZM198.024 39.172C197.525 39.1522 197.027 39.2376 196.57 39.4217C196.112 39.6058 195.707 39.8836 195.386 40.2336C194.697 41.0775 194.354 42.1156 194.418 43.1668C194.352 44.1911 194.703 45.2014 195.401 46.0047C195.726 46.3452 196.13 46.6148 196.584 46.7938C197.038 46.9728 197.53 47.0567 198.024 47.0391C198.511 47.0649 198.998 46.9859 199.446 46.8086C199.894 46.6313 200.29 46.3607 200.602 46.0183C201.257 45.177 201.575 44.156 201.504 43.126C201.574 42.0855 201.257 41.0538 200.602 40.1996C200.29 39.8564 199.894 39.5848 199.447 39.4063C198.999 39.2279 198.512 39.1476 198.024 39.172Z" fill="white"/>
<path d="M212.673 48.8565H209.819V31.8428H212.673V48.8565Z" fill="white"/>
<path d="M229.818 48.8569H226.979V47.0194H226.927C226.576 47.6697 226.026 48.2129 225.343 48.5827C224.661 48.9524 223.875 49.1328 223.082 49.1018C220.102 49.1018 218.611 47.4753 218.611 44.2223V37.376H221.458V43.9501C221.458 45.9917 222.322 47.0398 224.065 47.0398C224.458 47.0488 224.849 46.9771 225.207 46.8298C225.566 46.6826 225.884 46.4636 226.137 46.1891C226.705 45.5667 226.997 44.7729 226.957 43.9637V37.376H229.795L229.818 48.8569Z" fill="white"/>
<path d="M242.642 48.7066C241.953 48.9849 241.203 49.1153 240.451 49.0877C238.017 49.0877 236.8 48.0215 236.8 45.8891V39.4102H234.706V37.3686H236.8V34.7145L239.639 33.9727V37.3754H242.619V39.4171H239.639V45.1473C239.59 45.6591 239.734 46.1707 240.048 46.5968C240.224 46.7562 240.436 46.878 240.669 46.9533C240.902 47.0286 241.151 47.0556 241.397 47.0324C241.848 47.0432 242.289 46.9082 242.642 46.6513V48.7066Z" fill="white"/>
<path d="M249.034 34.9667C248.593 34.9758 248.165 34.8268 247.842 34.5516C247.681 34.4204 247.552 34.2587 247.466 34.0777C247.38 33.8968 247.338 33.7008 247.343 33.5035C247.335 33.3028 247.375 33.1029 247.461 32.9182C247.548 32.7335 247.678 32.5685 247.842 32.4351C248.164 32.158 248.592 32.0066 249.034 32.0131C249.488 32.0035 249.929 32.1547 250.264 32.4351C250.425 32.571 250.552 32.7365 250.638 32.9206C250.724 33.1048 250.767 33.3034 250.763 33.5035C250.769 33.7036 250.727 33.9025 250.639 34.086C250.552 34.2695 250.421 34.4332 250.256 34.5652C249.921 34.8384 249.483 34.9823 249.034 34.9667ZM250.442 48.8567H247.604V37.3759H250.442V48.8567Z" fill="white"/>
<path d="M262.23 49.1013C261.377 49.1381 260.525 49.0145 259.727 48.7383C258.928 48.462 258.2 48.0389 257.588 47.4952C257.001 46.9275 256.546 46.2577 256.249 45.5258C255.952 44.7938 255.82 44.0147 255.859 43.235C255.805 42.4102 255.938 41.5841 256.248 40.8079C256.558 40.0317 257.04 39.322 257.663 38.7229C258.316 38.171 259.084 37.7435 259.921 37.4654C260.757 37.1874 261.646 37.0642 262.536 37.1032C263.378 37.058 264.221 37.1752 265.011 37.4472C265.8 37.7192 266.518 38.14 267.118 38.6821C268.27 39.889 268.858 41.4598 268.757 43.058C268.799 43.8609 268.663 44.6632 268.359 45.4173C268.054 46.1714 267.587 46.8618 266.984 47.4476C266.359 48.008 265.615 48.4443 264.797 48.7289C263.978 49.0136 263.105 49.1403 262.23 49.1013ZM262.364 39.1721C261.865 39.1523 261.367 39.2377 260.91 39.4218C260.452 39.6059 260.047 39.8837 259.727 40.2337C259.037 41.0776 258.694 42.1157 258.758 43.1669C258.692 44.1912 259.043 45.2015 259.741 46.0048C260.065 46.346 260.47 46.6162 260.924 46.7953C261.378 46.9744 261.87 47.0578 262.364 47.0392C262.851 47.065 263.338 46.986 263.786 46.8087C264.234 46.6314 264.63 46.3608 264.942 46.0184C265.597 45.1771 265.915 44.1561 265.844 43.1261C265.914 42.0856 265.597 41.0539 264.942 40.1997C264.63 39.8566 264.234 39.5849 263.787 39.4064C263.339 39.228 262.852 39.1477 262.364 39.1721Z" fill="white"/>
<path d="M285.329 48.8562H282.483V42.3978C282.483 40.2609 281.656 39.1924 280.001 39.1924C279.594 39.1841 279.19 39.2593 278.819 39.4124C278.447 39.5655 278.118 39.7926 277.856 40.0771C277.278 40.7038 276.978 41.5047 277.014 42.3229V48.8562H274.152V37.3753H277.014V39.2741H277.081C277.47 38.6021 278.057 38.0429 278.776 37.6593C279.495 37.2758 280.317 37.0831 281.149 37.1031C281.736 37.0704 282.324 37.1628 282.866 37.373C283.408 37.5832 283.889 37.9055 284.271 38.3145C285.062 39.3368 285.444 40.5769 285.351 41.8261L285.329 48.8562Z" fill="white"/>
</g>
<defs>
<clipPath id="clip0_1488_42199">
<rect width="332.386" height="50" fill="white" transform="translate(0.636719)"/>
</clipPath>
</defs>
</svg>
