<svg width="212" height="50" viewBox="0 0 212 50" fill="none" xmlns="http://www.w3.org/2000/svg">
<g clip-path="url(#clip0_1328_13342)">
<path d="M30.088 9.375H36.3056C36.3056 9.375 40.066 10.298 40.4171 13.4583V24.7342L23.1727 13.4583H14.2478C14.2478 13.4583 12.2908 13.6029 12.1899 15.3511V18.3285C12.3249 18.9454 12.7027 19.4871 13.243 19.8385L33.199 33.1049H26.0248L10.4303 22.7053C10.4303 22.7053 8.17497 21.4292 8.17497 19.8852V13.99C8.17497 13.99 8.07405 9.76206 12.8393 9.375H24.296L36.5031 17.5416L36.4022 14.0878C36.4022 14.0878 35.0858 11.8548 30.0836 9.57066" fill="#B72222"/>
<path d="M18.3593 40.6249H12.1417C12.1417 40.6249 8.3813 39.7019 8.03027 36.5416V25.2658L25.2746 36.5416H34.1996C34.1996 36.5416 36.1565 36.397 36.2575 34.6489V31.6715C36.1224 31.0545 35.7447 30.5129 35.2044 30.1615L15.2483 16.895H22.4181L38.0126 27.2947C38.0126 27.2947 40.268 28.5707 40.268 30.1147V35.9972C40.268 35.9972 40.3689 40.2251 35.6037 40.6122H24.1469L11.9399 32.4626L12.0408 35.9121C12.0408 35.9121 13.3572 38.1452 18.3593 40.4293" fill="#B72222"/>
<path d="M52.6546 21.157H54.5853L53.4796 23.0583C53.3666 23.2625 53.195 23.4307 52.9855 23.5424C52.776 23.6541 52.5377 23.7046 52.2992 23.6878H49.9824V22.4117H51.5533C51.6602 22.4163 51.7663 22.3915 51.8594 22.3404C51.9525 22.2893 52.0289 22.2137 52.0798 22.1225L52.6546 21.157ZM63.8525 11.1061V12.4927H57.942V13.5603H63.7867V16.2315H62.0622V14.9555H51.9701V16.2315H50.2457V13.5603H56.0947V12.4927H50.2457V11.1061H56.0947V10.0215H57.942V11.1061H63.8525ZM56.1562 20.553H51.5533V19.277L52.7029 17.8903H52.0359V16.3974L53.6024 15.2957H55.5945L54.0236 16.5718H60.25C60.3641 16.5718 60.4212 16.5377 60.4212 16.4654L60.1272 15.6148H61.7288L62.0535 16.3974C62.0857 16.4479 62.1066 16.5044 62.1149 16.5633V17.2396C62.1149 17.6649 61.777 17.8903 61.1057 17.8903H54.7389L53.6024 19.1664H60.8205C60.9433 19.1664 61.0048 19.1323 61.0048 19.0643L60.6932 18.0817H62.3123L62.6239 18.9877C62.6239 18.9877 62.6546 19.0685 62.6853 19.1664V19.8767C62.6853 20.3276 62.3474 20.553 61.6717 20.553H57.8192V24.0663H56.1562V20.553ZM59.39 21.157H61.2987L61.7682 22.1353C61.8172 22.2319 61.8958 22.3115 61.9931 22.3633C62.0905 22.415 62.202 22.4364 62.3123 22.4245H64.1991V23.7005H61.3207C61.1195 23.6858 60.9259 23.6199 60.7595 23.5093C60.593 23.3988 60.4597 23.2476 60.3729 23.071L59.39 21.157Z" fill="#231815"/>
<path d="M81.6895 10.3662V11.7698H75.3314V13.1139H78.7979L78.3327 12.1952H80.0572L80.417 12.846C80.45 12.9161 80.5053 12.9741 80.5748 13.0116C80.6442 13.0491 80.7242 13.0641 80.8031 13.0544H81.6807V14.2453H80.9348V23.4243C80.9348 23.8666 80.6188 24.0878 79.987 24.0878H78.3854V22.9436H79.0699C79.2235 22.9436 79.3025 22.8798 79.3025 22.7607V22.5651H78.2625L77.6087 21.8292L76.5644 23.1053H75.3227V24.0835H73.7825V23.1648H72.4662L71.7816 22.1695L70.9699 23.1648H69.851V24.0835H68.2363V14.3006H67.2227V13.1139H67.7975C67.8763 13.1167 67.9542 13.0968 68.0214 13.0566C68.0885 13.0165 68.1419 12.958 68.1748 12.8885L68.5917 12.1952H70.3468L69.829 13.1139H73.7781V11.7911H67.3718V10.3875L81.6895 10.3662ZM73.7913 15.2066V14.4197H69.8729V18.6434L71.2288 16.942L69.9826 15.2109H71.4745L72.0054 15.9467L72.5934 15.2109L73.7913 15.2066ZM69.8729 22.6799L71.1191 21.1444L69.8729 19.3325V22.6799ZM71.9747 20.1023L72.8523 19.0049H72.7294L71.9659 17.9458L71.3955 18.6434C71.3054 18.7205 71.2464 18.8259 71.2288 18.9411C71.2562 19.0742 71.3252 19.196 71.4262 19.2899L71.9747 20.1023ZM73.7913 22.799V19.6812L72.6417 21.0976L73.7913 22.799ZM73.7913 18.4137V15.666L72.7338 16.9761L73.7913 18.4137ZM75.3314 14.4197V18.6434L76.7619 16.891L75.5157 15.1896H76.9637L77.5078 15.9425L78.1309 15.1896H79.3112V14.4027L75.3314 14.4197ZM75.3314 19.2304V22.7267L76.7926 20.902L75.3622 19.2729C75.3541 19.2574 75.3437 19.2431 75.3314 19.2304ZM77.4903 17.8735L76.8847 18.6434C76.7881 18.7177 76.7226 18.8235 76.7004 18.9411C76.7004 19.0134 76.7794 19.1113 76.933 19.2431L77.5561 19.9535L78.3327 19.0049L77.4903 17.8735ZM79.3112 15.6702L78.2538 16.9463L79.3112 18.3797V15.6702ZM79.3112 19.694L78.3635 20.885L79.3112 21.9738V19.694Z" fill="#231815"/>
<path d="M86.1391 21.157H87.8942L87.0166 23.1476C86.9606 23.3407 86.8403 23.5105 86.6744 23.6304C86.5086 23.7504 86.3065 23.814 86.0996 23.8111H84.7832V22.5351H85.4633C85.6213 22.5351 85.7354 22.4288 85.8056 22.2204L86.1391 21.157ZM92.1109 10.9488V12.2758H91.3167V19.0813H92.5015V20.5275H84.8841V19.0813H85.8933V12.2758H85.0684V10.987H85.8933V10.0811H87.4554V10.987H89.7722V10.0811H91.3255V10.987L92.1109 10.9488ZM87.4554 13.756H89.7722V12.2971H87.4554V13.756ZM87.4554 16.4697H89.7722V15.0235H87.4554V16.4697ZM87.4554 19.1068H89.7722V17.6777H87.4554V19.1068ZM89.1491 21.157H90.8779L91.3167 22.3777C91.3694 22.5394 91.4484 22.6202 91.5625 22.6202H91.953V21.8801H92.5146C92.835 21.8801 92.9929 21.8205 92.9929 21.7014V10.9105H96.8498C97.1526 10.9105 97.2886 10.668 97.2886 10.1874H98.9516V11.0381C98.9516 11.8632 98.4748 12.2758 97.5212 12.2758H94.5506V14.5216H99.2149V15.8912H97.8459V24.0451H96.2136V15.9125H94.5506V22.0757C94.5506 22.9264 93.9963 23.3518 92.8876 23.3518H92.2338V23.8197H90.9175C90.6935 23.8429 90.4681 23.7915 90.2783 23.674C90.0885 23.5565 89.9456 23.3798 89.8731 23.1731L89.1491 21.157Z" fill="#231815"/>
<path d="M103.019 16.0913H104.261L103.905 22.4714C103.911 22.8109 103.794 23.1417 103.576 23.4072C103.472 23.5089 103.348 23.5895 103.212 23.6443C103.076 23.699 102.929 23.7269 102.782 23.7262H102.225V22.3991H102.334C102.549 22.3991 102.668 22.2333 102.677 21.9015L103.019 16.0913ZM107.06 10.3024H108.491C108.504 10.8199 108.369 11.3309 108.1 11.7783C107.99 11.9092 107.849 12.0129 107.69 12.0809C107.531 12.1489 107.357 12.1793 107.183 12.1696H106.204V13.6328H108.631V14.9599H106.204V24.0622H104.713V14.9599H102.457V13.6328H104.713V12.1696H102.659V10.8936H106.643C106.836 10.9106 106.977 10.7107 107.06 10.3066V10.3024ZM106.437 16.1508H107.683L108.24 22.0716C108.284 22.3438 108.385 22.497 108.552 22.497H108.881V23.7007H107.806C107.341 23.7007 107.069 23.3647 106.999 22.6926L106.437 16.1508ZM116.718 19.8258V21.272L115.401 21.3485V24.0027H113.646V21.4251L108.82 21.6335V20.2044L113.646 19.9619V10.2471H115.401V19.8939L116.718 19.8258ZM108.986 10.8936H110.741L111.299 12.4163C111.343 12.646 111.461 12.7608 111.659 12.7608H112.795V14.207H110.803C110.565 14.2206 110.33 14.1481 110.143 14.0036C109.957 13.859 109.832 13.6527 109.794 13.4244L108.986 10.8936ZM109.114 15.0662H110.869L111.369 16.5592C111.408 16.8101 111.527 16.9377 111.724 16.9377H112.734V18.3839H110.869C110.63 18.3964 110.395 18.3229 110.209 18.1777C110.022 18.0325 109.898 17.8257 109.86 17.597L109.114 15.0662Z" fill="#231815"/>
<path d="M125.585 11.5738V13.0328H124.014V15.0829H125.331V16.5163H124.014V22.4244C124.025 22.809 123.879 23.1822 123.606 23.4622C123.481 23.5829 123.33 23.6764 123.165 23.7365C122.999 23.7966 122.822 23.822 122.645 23.811H120.531V22.4244H122.084C122.303 22.4244 122.413 22.2032 122.413 21.7608V19.1662L121.974 20.3274C121.787 20.7698 121.559 20.9909 121.29 20.9909H120.048V19.6043H120.544C120.824 19.6043 121.026 19.4129 121.149 19.0344L122.426 15.7167V13.0328H120.311V11.5738H122.426V10.2978H124.028V11.5738H125.585ZM133.922 11.9481V13.3815H130.807V15.2403H133.9V16.746L130.829 20.9399L131.82 22.0671C131.896 22.1682 131.994 22.2519 132.107 22.3122C132.22 22.3725 132.346 22.4079 132.474 22.4158H134.032V23.8025H131.496C131.314 23.8013 131.136 23.7597 130.974 23.6807C130.812 23.6018 130.67 23.4877 130.561 23.3474L129.771 22.3563L129.148 23.207C128.984 23.411 128.77 23.5728 128.526 23.6781C128.282 23.7834 128.015 23.829 127.749 23.811H125.322V22.4244H126.946C127.124 22.4371 127.304 22.4083 127.468 22.3402C127.633 22.2722 127.779 22.1668 127.893 22.033L128.674 21.0377L126.138 17.903H128.13L129.714 19.6937L132.031 16.7162H126.068V15.2403H129.14V13.373H126.23V11.9396H129.14V10.1787H130.833V11.9396L133.922 11.9481Z" fill="#231815"/>
<path d="M151.68 11.4122V12.8584H142.465L141.763 14.0664H151.11V22.7008C151.11 23.4977 150.586 23.8946 149.539 23.8918H144.462V22.4712H148.942C149.223 22.4712 149.381 22.3776 149.381 22.1862V21.1441H140.903V24.0534H139.179V17.2479H137.424V15.6359H138.74C138.968 15.6359 139.153 15.4785 139.297 15.168L140.574 12.8456H137.7V11.4122H141.369L142.035 10.2085H144.028L143.312 11.4122H151.68ZM140.903 16.9417H149.363V15.4785H140.921L140.903 16.9417ZM140.903 19.7575H149.363V18.3241H140.903V19.7575Z" fill="#231815"/>
<path d="M156.924 23.1474V23.9471H155.261V10.5615H160.114V15.8528C160.11 16.0332 160.045 16.2074 159.929 16.3488C159.814 16.4901 159.653 16.5908 159.473 16.6354C159.658 16.7146 159.817 16.8428 159.93 17.0053C160.043 17.1678 160.107 17.3581 160.114 17.5542V22.2585C160.114 22.8199 159.754 23.1091 159.039 23.1474H156.924ZM156.924 11.9481V15.9719H158.1C158.354 15.9719 158.486 15.8783 158.486 15.6869V11.9481H156.924ZM156.924 17.3585V21.7608H158.293C158.429 21.7608 158.495 21.646 158.495 21.412V17.6137C158.495 17.4436 158.31 17.3585 157.937 17.3585H156.924ZM168.569 10.502V16.7545C168.569 17.2904 168.231 17.5542 167.56 17.5542H163.019V22.016C163.019 22.1776 163.128 22.2585 163.348 22.2585H164.949V23.6876H162.273C161.619 23.6876 161.294 23.4111 161.294 22.8369V10.502H168.569ZM163.019 13.2156V13.3815H166.814V11.8886H163.019V13.2156ZM163.019 14.7086V16.1548H166.581C166.735 16.1548 166.814 16.074 166.814 15.9123V14.7086H163.019ZM167.437 18.1581H169.069L168.231 20.404C168.065 20.9059 167.766 21.1568 167.354 21.1568H166.792L167.086 22.2585C167.109 22.3387 167.159 22.4097 167.226 22.461C167.294 22.5122 167.377 22.5411 167.463 22.5434H169.28V23.8195H166.669C166.405 23.8149 166.149 23.725 165.944 23.564C165.738 23.403 165.593 23.1801 165.533 22.9305L164.216 18.4091H166.037L166.476 20.0211H166.709C166.861 20.0211 166.975 19.8794 167.051 19.5958L167.437 18.1581Z" fill="#231815"/>
<path d="M175.248 10.621H177.003L176.183 15.2658C175.963 16.349 175.429 16.8906 174.581 16.8906H172.65V15.3083H174.037C174.243 15.3083 174.414 15.0489 174.55 14.5257L175.248 10.621ZM178.245 14.5853H180.176L176.09 22.1351H183.853C183.725 22.1351 183.664 22.05 183.664 21.8799L182.958 18.643H184.713L185.625 22.3223C185.633 22.6803 185.521 23.031 185.305 23.3218C185.112 23.5043 184.859 23.6156 184.59 23.6366H174.019V22.5519C174.038 22.1823 174.143 21.8215 174.327 21.4971L178.245 14.5853ZM177.92 10.502H183.594C183.739 10.502 183.883 10.7444 184.033 11.225L185.024 14.6278C185.169 15.1722 185.296 15.4444 185.397 15.4444H186.766V16.9034H184.033C183.866 16.9034 183.708 16.6269 183.563 16.0782L182.413 12.382C182.321 12.063 182.216 11.9013 182.102 11.9013H177.92V10.502Z" fill="#231815"/>
<path d="M190.083 10.6211H203.769V22.4712C203.769 23.3559 203.235 23.7982 202.167 23.7982H200.175V22.3521H201.54C201.816 22.3521 201.979 22.2542 201.979 22.0628V12.1736H190.083V10.6211ZM200.719 13.5602V15.1425H190.351V13.5602H200.719ZM190.627 16.6355H199.894V21.4759C199.894 22.2372 199.477 22.62 198.648 22.62H190.645L190.627 16.6355ZM197.731 21.0973C197.791 21.1079 197.853 21.1042 197.911 21.0866C197.969 21.0689 198.022 21.0379 198.065 20.9961C198.109 20.9543 198.141 20.9029 198.159 20.8465C198.177 20.79 198.181 20.7301 198.17 20.672V18.1199H192.4V21.059L197.731 21.0973Z" fill="#231815"/>
<path d="M50.948 39.4852V37.7838C51.12 37.9307 51.3101 38.0564 51.514 38.1581C51.737 38.2737 51.9706 38.3691 52.2117 38.4431C52.4517 38.5181 52.6964 38.5778 52.9445 38.6217C53.1688 38.6623 53.3964 38.6836 53.6246 38.6855C54.1854 38.7231 54.7453 38.6003 55.2349 38.3325C55.407 38.2235 55.5465 38.0726 55.6397 37.895C55.7328 37.7174 55.7764 37.5192 55.7659 37.3202C55.7721 37.1022 55.711 36.8875 55.5903 36.7034C55.4601 36.5125 55.2915 36.3491 55.0945 36.2228C54.8588 36.0607 54.6093 35.9184 54.3486 35.7975L53.4315 35.3721C53.0805 35.1935 52.7514 35.0063 52.4486 34.8192C52.1601 34.646 51.8948 34.4389 51.6588 34.2024C51.4369 33.9803 51.2585 33.7208 51.1323 33.4368C50.9977 33.12 50.932 32.7798 50.9392 32.4372C50.9282 32.0057 51.0423 31.5799 51.2683 31.208C51.4912 30.8642 51.7912 30.5734 52.1459 30.3573C52.5196 30.1232 52.9323 29.9534 53.3657 29.8554C53.8235 29.7448 54.2936 29.6891 54.7654 29.6895C55.5711 29.6425 56.3778 29.7644 57.1305 30.0468V31.6886C56.4622 31.2563 55.6691 31.0417 54.8664 31.0761C54.6117 31.0754 54.3575 31.0982 54.1072 31.1442C53.8695 31.1858 53.64 31.2633 53.4271 31.3739C53.2349 31.4798 53.0687 31.6249 52.9401 31.7992C52.8126 31.9776 52.7466 32.1905 52.7514 32.4075C52.746 32.6107 52.7959 32.8117 52.8962 32.9902C53.0089 33.167 53.1583 33.3191 53.335 33.4368C53.5466 33.5894 53.7729 33.7219 54.0107 33.8324C54.2784 33.96 54.5855 34.1003 54.9366 34.2577C55.2873 34.4304 55.6286 34.6206 55.9589 34.8277C56.2644 35.0193 56.547 35.2433 56.8014 35.4955C57.0418 35.7299 57.2379 36.0034 57.3806 36.3036C57.5261 36.6206 57.598 36.9648 57.5912 37.3117C57.6039 37.7566 57.4949 38.1968 57.2753 38.5877C57.0667 38.9353 56.7728 39.2275 56.4196 39.4384C56.0332 39.6691 55.6063 39.8291 55.1603 39.9105C54.6743 40.0113 54.1786 40.0612 53.6816 40.0594C53.469 40.0571 53.2566 40.0443 53.0454 40.0211C52.7909 39.9914 52.532 39.9573 52.2687 39.9063C52.0151 39.8618 51.7645 39.8021 51.5184 39.7276C51.3176 39.6727 51.1257 39.5911 50.948 39.4852Z" fill="#5C5D5D"/>
<path d="M64.033 40.0636C63.5313 40.0867 63.0302 40.0096 62.5606 39.8369C62.0911 39.6642 61.6632 39.3996 61.3037 39.0597C60.9577 38.7052 60.6888 38.2867 60.5132 37.8292C60.3375 37.3718 60.2587 36.8847 60.2813 36.3971C60.2351 35.8831 60.3056 35.3656 60.4877 34.8808C60.6698 34.396 60.9592 33.9557 61.3356 33.5909C61.7119 33.2261 62.1661 32.9456 62.6662 32.769C63.1663 32.5925 63.7002 32.5242 64.2304 32.569C64.7265 32.5407 65.2231 32.614 65.688 32.784C66.153 32.954 66.5758 33.217 66.929 33.5558C67.6087 34.3095 67.9568 35.2913 67.8987 36.2908C67.9222 36.7925 67.8419 37.2936 67.6626 37.7648C67.4832 38.236 67.2084 38.6676 66.8544 39.0342C66.4836 39.3863 66.0412 39.6596 65.5555 39.8368C65.0697 40.014 64.5512 40.0912 64.033 40.0636ZM64.1119 33.8578C63.8185 33.8451 63.5259 33.8984 63.2572 34.0135C62.9885 34.1286 62.7509 34.3024 62.563 34.5213C62.1551 35.0477 61.953 35.6973 61.9926 36.3546C61.9549 36.9939 62.1593 37.6246 62.5674 38.1282C62.7587 38.341 62.9967 38.5096 63.264 38.6215C63.5313 38.7333 63.821 38.7857 64.1119 38.7748C64.3989 38.7912 64.6858 38.742 64.9495 38.6312C65.2132 38.5203 65.4464 38.351 65.6302 38.1368C66.0175 37.6118 66.2051 36.973 66.1611 36.329C66.2048 35.6785 66.0174 35.0331 65.6302 34.5001C65.4466 34.2853 65.2136 34.1153 64.9499 34.0038C64.6862 33.8922 64.3992 33.8422 64.1119 33.8578Z" fill="#5C5D5D"/>
<path d="M77.4988 39.9104H75.827V38.762H75.7963C75.5907 39.1692 75.2669 39.5092 74.8647 39.7405C74.4625 39.9717 73.9993 40.084 73.5321 40.0635C71.777 40.0635 70.8994 39.047 70.8994 37.0138V32.7349H72.5756V36.8437C72.5756 38.1197 73.0846 38.7747 74.1113 38.7747C74.3433 38.7798 74.5736 38.7347 74.7853 38.6428C74.9971 38.5508 75.1851 38.4143 75.3356 38.2431C75.6664 37.8524 75.8367 37.3571 75.8138 36.8522V32.7349H77.4856L77.4988 39.9104Z" fill="#5C5D5D"/>
<path d="M85.4412 34.2789C85.1835 34.1093 84.8745 34.0284 84.5637 34.0492C84.3174 34.0503 84.0752 34.1102 83.8586 34.2238C83.642 34.3373 83.4576 34.5009 83.3219 34.7C82.9651 35.2214 82.7912 35.8404 82.8261 36.4652V39.9105H81.1543V32.7349H82.8261V34.2066H82.8568C82.9882 33.7535 83.2482 33.3453 83.6071 33.0284C83.9195 32.7567 84.3238 32.6053 84.7436 32.6031C84.9825 32.589 85.2211 32.6344 85.4369 32.7349L85.4412 34.2789Z" fill="#5C5D5D"/>
<path d="M93.3917 39.566C92.7491 39.9098 92.0236 40.0816 91.2898 40.0636C90.8039 40.08 90.3196 39.9997 89.8668 39.8278C89.414 39.6559 89.0024 39.396 88.6571 39.064C88.3186 38.7215 88.0547 38.3163 87.8813 37.8727C87.7079 37.4291 87.6286 36.9562 87.6479 36.4822C87.6229 35.9617 87.7059 35.4417 87.8921 34.9529C88.0782 34.4641 88.3638 34.0165 88.7317 33.6367C89.1138 33.2739 89.569 32.9915 90.0688 32.8071C90.5686 32.6227 91.1023 32.5402 91.6365 32.5648C92.2491 32.5524 92.8572 32.67 93.418 32.9093V34.4193C92.9491 34.0601 92.3701 33.8626 91.7725 33.8578C91.4455 33.8456 91.1196 33.9015 90.8168 34.0218C90.514 34.1422 90.2414 34.3241 90.0174 34.5554C89.5544 35.0527 89.3117 35.7066 89.3416 36.3759C89.3051 37.02 89.5339 37.6519 89.9779 38.1326C90.2016 38.35 90.4699 38.5195 90.7654 38.6302C91.0609 38.7408 91.3771 38.7901 91.6935 38.7748C92.3181 38.7654 92.9199 38.5459 93.396 38.1538L93.3917 39.566Z" fill="#5C5D5D"/>
<path d="M102.782 36.7545H97.7447C97.7365 37.0381 97.7884 37.3202 97.897 37.5836C98.0057 37.847 98.1689 38.0859 98.3766 38.2858C98.8381 38.6644 99.4315 38.8576 100.035 38.8259C100.815 38.8278 101.575 38.5862 102.203 38.1369V39.447C101.391 39.891 100.466 40.1047 99.535 40.0637C99.0611 40.0883 98.5874 40.0136 98.1459 39.8448C97.7045 39.676 97.3058 39.417 96.9769 39.0854C96.3173 38.3196 95.9859 37.3376 96.051 36.3419C96.0108 35.3398 96.3779 34.3623 97.0734 33.6197C97.394 33.2786 97.7862 33.008 98.2236 32.8261C98.6611 32.6441 99.1337 32.5551 99.6096 32.5649C100.047 32.5457 100.484 32.6226 100.886 32.7898C101.289 32.957 101.648 33.2101 101.935 33.5304C102.528 34.28 102.823 35.2118 102.764 36.1548L102.782 36.7545ZM101.167 35.6061C101.187 35.117 101.032 34.6362 100.728 34.245C100.587 34.0843 100.409 33.957 100.209 33.873C100.009 33.789 99.7922 33.7503 99.5745 33.7601C99.3448 33.7564 99.1169 33.8 98.9059 33.8879C98.6948 33.9759 98.5055 34.1063 98.3503 34.2705C98.003 34.6407 97.7863 35.1085 97.7316 35.6061H101.167Z" fill="#5C5D5D"/>
<path d="M111.106 39.4849V37.7835C111.278 37.9304 111.468 38.0562 111.672 38.1578C111.894 38.2734 112.126 38.3688 112.366 38.4428C112.607 38.5183 112.853 38.578 113.103 38.6215C113.327 38.6622 113.555 38.6835 113.783 38.6853C114.344 38.722 114.903 38.5993 115.393 38.3322C115.565 38.2232 115.705 38.0723 115.798 37.8947C115.891 37.7171 115.935 37.5189 115.924 37.3199C115.928 37.1022 115.867 36.888 115.749 36.7032C115.617 36.5135 115.448 36.3503 115.253 36.2225C115.017 36.0604 114.767 35.9181 114.507 35.7972L113.585 35.3718C113.234 35.1932 112.91 35.006 112.607 34.8189C112.317 34.6479 112.051 34.4405 111.817 34.2021C111.595 33.9788 111.416 33.7197 111.286 33.4365C111.153 33.1194 111.089 32.7792 111.097 32.437C111.086 32.0055 111.2 31.5796 111.427 31.2077C111.649 30.8636 111.949 30.5728 112.304 30.357C112.68 30.1239 113.094 29.9542 113.528 29.8551C113.986 29.7443 114.456 29.6886 114.928 29.6892C115.734 29.643 116.54 29.7649 117.293 30.0465V31.6884C116.624 31.2571 115.832 31.0426 115.029 31.0759C114.773 31.0753 114.517 31.0981 114.265 31.1439C114.029 31.1855 113.801 31.263 113.59 31.3736C113.396 31.4772 113.229 31.6227 113.103 31.7989C112.973 31.9764 112.907 32.1899 112.914 32.4072C112.909 32.6104 112.959 32.8114 113.059 32.9899C113.172 33.166 113.322 33.3179 113.498 33.4365C113.711 33.5891 113.939 33.7216 114.178 33.8321C114.441 33.9597 114.753 34.1001 115.104 34.2574C115.453 34.4301 115.793 34.6203 116.122 34.8274C116.428 35.0201 116.711 35.244 116.968 35.4952C117.206 35.7309 117.401 36.0042 117.543 36.3033C117.692 36.6194 117.766 36.964 117.758 37.3114C117.779 37.7353 117.68 38.1567 117.474 38.531C117.268 38.9053 116.961 39.2187 116.587 39.4381C116.197 39.6683 115.767 39.8283 115.319 39.9103C114.832 40.0105 114.337 40.0604 113.84 40.0591C113.626 40.0568 113.412 40.044 113.199 40.0208C112.949 39.9911 112.69 39.957 112.423 39.906C112.169 39.8615 111.918 39.8018 111.672 39.7274C111.473 39.6725 111.282 39.5909 111.106 39.4849Z" fill="#5C5D5D"/>
<path d="M124.191 40.0635C123.688 40.0865 123.187 40.0093 122.716 39.8366C122.246 39.6639 121.817 39.3995 121.457 39.0597C121.112 38.7049 120.843 38.2863 120.668 37.8288C120.494 37.3713 120.416 36.8844 120.439 36.397C120.392 35.8829 120.462 35.365 120.644 34.8799C120.826 34.3947 121.115 33.9542 121.492 33.5892C121.868 33.2242 122.323 32.9437 122.823 32.7674C123.323 32.5912 123.858 32.5234 124.388 32.5689C124.884 32.5407 125.381 32.6139 125.846 32.7839C126.311 32.954 126.733 33.2169 127.087 33.5557C127.767 34.3087 128.114 35.2914 128.052 36.2907C128.077 36.7925 127.997 37.294 127.817 37.7653C127.638 38.2366 127.363 38.6681 127.008 39.0342C126.638 39.3859 126.196 39.659 125.711 39.8362C125.226 40.0134 124.708 40.0908 124.191 40.0635ZM124.27 33.8577C123.976 33.8453 123.682 33.8987 123.413 34.0138C123.144 34.1289 122.905 34.3025 122.716 34.5213C122.31 35.0487 122.109 35.6975 122.146 36.3545C122.107 36.9947 122.314 37.6261 122.725 38.1282C122.916 38.341 123.154 38.5095 123.422 38.6214C123.689 38.7333 123.979 38.7857 124.27 38.7747C124.557 38.7908 124.843 38.7414 125.107 38.6306C125.371 38.5198 125.604 38.3507 125.788 38.1367C126.173 37.6109 126.361 36.9727 126.319 36.329C126.36 35.6787 126.173 35.0339 125.788 34.5C125.604 34.2855 125.371 34.1157 125.107 34.0042C124.844 33.8927 124.557 33.8425 124.27 33.8577Z" fill="#5C5D5D"/>
<path d="M132.896 39.9104H131.216V29.2769H132.896V39.9104Z" fill="#5C5D5D"/>
<path d="M142.993 39.9104H141.321V38.762H141.29C141.084 39.1685 140.76 39.5079 140.358 39.739C139.956 39.9702 139.493 40.0829 139.026 40.0635C137.271 40.0635 136.394 39.047 136.394 37.0138V32.7349H138.07V36.8437C138.07 38.1197 138.579 38.7747 139.605 38.7747C139.837 38.7804 140.067 38.7356 140.278 38.6435C140.489 38.5515 140.676 38.4146 140.825 38.2431C141.16 37.8541 141.332 37.3579 141.308 36.8522V32.7349H142.98L142.993 39.9104Z" fill="#5C5D5D"/>
<path d="M150.544 39.8171C150.139 39.991 149.697 40.0725 149.254 40.0553C147.821 40.0553 147.104 39.3889 147.104 38.0562V34.0069H145.871V32.7309H147.104V31.072L148.776 30.6084V32.7351H150.531V34.0111H148.776V37.5925C148.747 37.9124 148.832 38.2322 149.017 38.4985C149.12 38.5981 149.245 38.6742 149.383 38.7213C149.52 38.7684 149.666 38.7853 149.811 38.7707C150.077 38.7775 150.337 38.6931 150.544 38.5325V39.8171Z" fill="#5C5D5D"/>
<path d="M154.309 31.2291C154.049 31.2347 153.797 31.1416 153.607 30.9696C153.512 30.8876 153.437 30.7866 153.386 30.6735C153.335 30.5604 153.31 30.4379 153.313 30.3146C153.308 30.1891 153.332 30.0642 153.383 29.9488C153.434 29.8333 153.51 29.7302 153.607 29.6468C153.797 29.4736 154.049 29.379 154.309 29.3831C154.577 29.377 154.836 29.4715 155.033 29.6468C155.128 29.7318 155.203 29.8352 155.254 29.9503C155.304 30.0653 155.329 30.1895 155.327 30.3146C155.331 30.4397 155.306 30.564 155.254 30.6787C155.203 30.7933 155.126 30.8956 155.029 30.9781C154.831 31.1489 154.573 31.2388 154.309 31.2291ZM155.138 39.9103H153.467V32.7348H155.138V39.9103Z" fill="#5C5D5D"/>
<path d="M162.08 40.0633C161.578 40.0863 161.076 40.0091 160.606 39.8364C160.135 39.6637 159.707 39.3993 159.346 39.0595C159.001 38.7047 158.733 38.2861 158.558 37.8286C158.383 37.3711 158.305 36.8842 158.328 36.3969C158.296 35.8814 158.374 35.365 158.557 34.8799C158.74 34.3948 159.023 33.9513 159.39 33.5768C159.775 33.2319 160.227 32.9647 160.72 32.7909C161.213 32.6171 161.736 32.5401 162.26 32.5645C162.756 32.5362 163.252 32.6095 163.717 32.7795C164.182 32.9495 164.605 33.2125 164.958 33.5513C165.636 34.3056 165.983 35.2874 165.924 36.2863C165.948 36.7881 165.868 37.2895 165.689 37.7608C165.51 38.2321 165.234 38.6636 164.879 39.0297C164.512 39.38 164.073 39.6527 163.591 39.8306C163.109 40.0085 162.595 40.0877 162.08 40.0633ZM162.159 33.8576C161.865 33.8452 161.572 33.8986 161.302 34.0136C161.033 34.1287 160.795 34.3023 160.606 34.5211C160.2 35.0485 159.998 35.6973 160.035 36.3543C159.997 36.9945 160.203 37.6259 160.614 38.128C160.805 38.3413 161.043 38.5101 161.31 38.6221C161.578 38.734 161.868 38.7861 162.159 38.7745C162.446 38.7906 162.732 38.7413 162.996 38.6305C163.26 38.5197 163.493 38.3505 163.677 38.1365C164.062 37.6107 164.25 36.9725 164.208 36.3288C164.25 35.6785 164.062 35.0337 163.677 34.4998C163.493 34.2853 163.26 34.1155 162.997 34.004C162.733 33.8925 162.446 33.8423 162.159 33.8576Z" fill="#5C5D5D"/>
<path d="M175.682 39.9103H174.006V35.8737C174.006 34.5382 173.519 33.8704 172.545 33.8704C172.305 33.8652 172.067 33.9122 171.848 34.0078C171.63 34.1035 171.436 34.2455 171.281 34.4233C170.941 34.815 170.765 35.3155 170.786 35.827V39.9103H169.101V32.7347H170.786V33.9214H170.825C171.054 33.5015 171.4 33.1519 171.824 32.9122C172.247 32.6725 172.731 32.5521 173.221 32.5646C173.567 32.5441 173.913 32.6019 174.232 32.7332C174.551 32.8646 174.834 33.0661 175.059 33.3217C175.525 33.9606 175.75 34.7357 175.696 35.5165L175.682 39.9103Z" fill="#5C5D5D"/>
</g>
<defs>
<clipPath id="clip0_1328_13342">
<rect width="195.739" height="31.25" fill="white" transform="translate(8.03027 9.375)"/>
</clipPath>
</defs>
</svg>
